<svg width="18" height="18" viewBox="0 0 18 18" fill="none" xmlns="http://www.w3.org/2000/svg">
<path d="M16.5 3.63653V12.554C16.5 13.2815 15.9075 13.949 15.18 14.039L14.9475 14.069C13.7175 14.234 11.985 14.744 10.59 15.329C10.1025 15.5315 9.5625 15.164 9.5625 14.6315V4.19903C9.5625 3.92153 9.72 3.66653 9.9675 3.53153C11.34 2.78903 13.4175 2.12903 14.8275 2.00903H14.8725C15.7725 2.00903 16.5 2.73653 16.5 3.63653Z" fill="#97C3E9"/>
<path d="M8.02047 3.53153C6.64797 2.78903 4.57047 2.12903 3.16047 2.00903H3.10797C2.20797 2.00903 1.48047 2.73653 1.48047 3.63653V12.554C1.48047 13.2815 2.07297 13.949 2.80047 14.039L3.03297 14.069C4.26297 14.234 5.99547 14.744 7.39047 15.329C7.87797 15.5315 8.41797 15.164 8.41797 14.6315V4.19903C8.41797 3.91403 8.26797 3.66653 8.02047 3.53153ZM3.73797 5.80403H5.42547C5.73297 5.80403 5.98797 6.05903 5.98797 6.36653C5.98797 6.68153 5.73297 6.92903 5.42547 6.92903H3.73797C3.43047 6.92903 3.17547 6.68153 3.17547 6.36653C3.17547 6.05903 3.43047 5.80403 3.73797 5.80403ZM5.98797 9.17903H3.73797C3.43047 9.17903 3.17547 8.93153 3.17547 8.61653C3.17547 8.30903 3.43047 8.05403 3.73797 8.05403H5.98797C6.29547 8.05403 6.55047 8.30903 6.55047 8.61653C6.55047 8.93153 6.29547 9.17903 5.98797 9.17903Z" fill="#97C3E9"/>
</svg>
