<svg width="580" height="400" viewBox="0 0 580 400" fill="none" xmlns="http://www.w3.org/2000/svg">
<path d="M0 20C0 8.95431 8.95431 0 20 0H430C441.046 0 450 8.95431 450 20V50C450 61.0457 458.954 70 470 70H560C571.046 70 580 78.9543 580 90V380C580 391.046 571.046 400 560 400H20C8.95432 400 0 391.046 0 380V20Z" fill="#97C3E9"/>
<mask id="mask0_1305_22770" style="mask-type:alpha" maskUnits="userSpaceOnUse" x="0" y="0" width="580" height="400">
<path d="M0 20C0 8.95431 8.95431 0 20 0H430C441.046 0 450 8.95431 450 20V50C450 61.0457 458.954 70 470 70H560C571.046 70 580 78.9543 580 90V380C580 391.046 571.046 400 560 400H20C8.95432 400 0 391.046 0 380V20Z" fill="#97C3E9"/>
</mask>
<g mask="url(#mask0_1305_22770)">
<g clip-path="url(#clip0_1305_22770)">
<path d="M437.09 244.754C451.193 238.32 467.584 233.853 480.588 225.346C496.463 214.95 504.182 195.863 520.174 185.244C545.071 168.717 576.199 142.661 606.109 158.906C620.174 166.547 638.317 175.842 649.228 187.288C662.67 201.382 673.843 203.961 691.509 210.648C706.002 216.128 724.486 222.757 736.234 233.142C745.958 241.746 747.038 254.331 755.419 264.045C763.624 273.545 777.494 277.643 787.928 284.038" stroke="#191919" stroke-width="0.2" stroke-linecap="round" stroke-linejoin="round"/>
<path d="M434.424 246.019C448.81 239.663 465.113 235.264 478.681 227.283C494.994 217.695 503.92 200.01 519.445 189.147C543.184 172.542 578.02 143.965 606.13 159.831C621.829 168.698 637.354 179.638 649.608 192.71C661.863 205.782 676.19 207.465 692.425 213.451C707.142 218.883 726.307 225.375 737.685 236.461C746.504 245.056 748.226 259.14 757.132 267.491C765.951 275.755 780.006 279.064 789.973 286.091" stroke="#191919" stroke-width="0.2" stroke-linecap="round" stroke-linejoin="round"/>
<path d="M431.834 247.411C447.475 240.364 464.995 235.897 479.965 227.536C495.792 218.688 505.827 202.307 520.553 191.61C532.662 182.821 546.24 174.956 559.409 167.929C577.503 158.273 586.857 148.929 606.119 160.823C623.133 171.326 634.901 183.239 649.014 196.885C662.183 209.626 678.662 210.931 695.52 217.102C707.969 221.666 726.209 227.214 736.224 236.169C746.921 245.737 748.177 261.33 759.701 270.207C769.542 277.789 782.604 279.19 791.987 288.184" stroke="#191919" stroke-width="0.2" stroke-linecap="round" stroke-linejoin="round"/>
<path d="M429.314 248.91C445.16 241.522 462.301 236.967 478.03 229.414C494.791 221.365 505.332 206.268 519.98 195.221C531.972 186.169 545.832 178.937 558.836 171.481C577.018 161.057 586.031 149.484 606.111 161.797C624.351 172.98 633.812 188.534 649.375 201.976C662.068 212.936 680.61 214.289 696.456 219.953C709.06 224.46 727.914 229.93 737.628 239.556C748.568 250.409 748.568 264.152 762.428 272.494C773.008 278.869 784.873 281.186 793.974 290.296" stroke="#191919" stroke-width="0.2" stroke-linecap="round" stroke-linejoin="round"/>
<path d="M426.881 250.526C442.532 242.389 459.867 237.97 476.093 231.205C493.788 223.827 504.738 210.24 519.532 198.813C531.475 189.585 545.53 182.967 558.33 175.005C576.054 163.977 585.573 150.837 606.081 162.828C613.031 166.897 622.239 172.63 627.864 178.139C636.381 186.471 640.138 199.319 649.677 206.628C662.213 216.226 682.04 217.501 697.351 222.844C710.977 227.594 729.004 232.899 738.98 243.858C750.826 256.882 749.054 266.79 765.591 274.898C776.366 280.183 786.907 284.047 795.93 292.447" stroke="#191919" stroke-width="0.2" stroke-linecap="round" stroke-linejoin="round"/>
<path d="M424.506 252.239C439.816 243.576 457.706 239.04 474.126 232.928C492.688 226.017 503.979 214.182 519.124 202.297C531.037 192.953 545.258 186.724 557.882 178.285C574.769 166.985 585.456 153.124 606.033 163.977C613.887 168.123 622.677 174.586 628.409 181.166C636.391 190.325 639.613 203.524 649.949 210.648C662.817 219.515 683.072 220.596 698.227 225.745C713.119 230.806 730.483 235.828 740.314 248.715C751.848 263.841 751.322 269.233 769.017 277.4C779.588 282.276 788.893 286.928 797.867 294.608" stroke="#191919" stroke-width="0.2" stroke-linecap="round" stroke-linejoin="round"/>
<path d="M422.219 254.049C436.974 245.202 454.855 240.646 471.002 235.021C489.671 228.509 501.896 219.613 516.973 207.261C529.83 196.72 545.063 190.306 558.583 180.475C574.127 169.175 586.118 156.619 606.013 165.018C629.149 174.791 630.405 202.015 649.249 214.727C662.398 223.594 686.226 224.265 701.273 229.404C718.453 235.274 732.274 240.257 742.757 255.646C757.25 276.893 780.074 281.118 799.775 296.788" stroke="#191919" stroke-width="0.2" stroke-linecap="round" stroke-linejoin="round"/>
<path d="M420 255.957C434.775 246.856 452.685 242.194 469.017 236.695C488.192 230.242 500.757 222.932 516.418 210.356C529.597 199.766 544.82 193.917 558.233 183.366C572.385 172.241 586.859 159.714 605.897 166.537C629.325 174.927 630.016 205.49 649.619 217.53C663.898 226.3 686.275 227.068 702.14 232.354C721.159 238.69 732.109 244.219 744.062 260.658C757.815 279.58 783.151 284.758 801.663 298.988" stroke="#191919" stroke-width="0.2" stroke-linecap="round" stroke-linejoin="round"/>
<path d="M417.848 257.943C432.691 248.637 450.503 243.858 467.001 238.388C486.584 231.886 499.471 225.803 515.726 213.169C529.372 202.56 544.478 197.353 557.93 186.169C570.982 175.326 587.587 163.189 605.779 168.357C628.827 174.898 629.781 208.838 650.085 220.012C665.726 228.616 686.147 229.823 703.034 235.313C710.12 237.619 717.946 239.615 724.457 243.216C734.609 248.822 738.142 256.911 745.374 265.252C759.838 281.925 785.651 287.863 803.512 301.217" stroke="#191919" stroke-width="0.2" stroke-linecap="round" stroke-linejoin="round"/>
<path d="M415.775 260.016C430.697 250.565 448.372 245.571 465.026 240.121C484.902 233.609 498.139 228.081 514.939 215.68C529.149 205.198 544.022 200.516 557.678 188.943C569.62 178.83 588.62 166.615 605.634 170.557C626.93 175.491 630.931 212.03 650.485 222.834C666.399 231.614 686.664 232.869 703.882 238.32C711.094 240.607 718.998 242.554 725.519 246.428C735.262 252.219 738.815 261.739 746.65 269.185C762.36 284.106 787.238 290.462 805.138 303.29" stroke="#191919" stroke-width="0.2" stroke-linecap="round" stroke-linejoin="round"/>
<path d="M413.77 262.147C429.1 252.346 447.077 247.08 464.247 241.513C484.862 234.836 498.557 228.83 516.223 216.323C529.694 206.784 543.719 203.874 556.353 192.554C567.206 182.821 590.001 169.272 605.565 174.032C625.927 180.261 630.326 215.028 651.788 226.076C667.352 234.086 685.719 235.624 702.45 240.637C709.955 242.885 718.063 244.822 724.837 248.813C734.454 254.478 738.59 264.143 746.718 271.19C763.079 285.361 787.607 292.788 806.013 304.711" stroke="#191919" stroke-width="0.2" stroke-linecap="round" stroke-linejoin="round"/>
<path d="M411.832 264.347C427.25 254.439 445.042 248.988 462.338 243.382C483.012 236.675 497.378 230.31 515.482 218.377C529.323 209.256 543.076 206.463 556.002 195.309C566.913 185.896 590.955 172.98 605.574 178.665C617.449 183.278 621.293 198.676 628.165 208.478C634.404 217.384 642.376 224.236 652.022 229.229C667.653 237.327 686.341 238.758 703.248 243.693C711.015 245.961 718.948 247.966 725.839 252.288C734.735 257.855 739.768 267.238 747.982 273.642C764.296 286.354 787.811 296.068 806.334 305.675" stroke="#191919" stroke-width="0.2" stroke-linecap="round" stroke-linejoin="round"/>
<path d="M409.955 266.605C425.451 256.648 443.068 250.974 460.452 245.318C481.057 238.612 496.212 231.332 514.637 220.168C528.721 211.641 542.192 208.361 555.663 198.102C567.635 188.982 591.667 176.747 605.595 183.969C617.187 189.975 620.03 204.38 627.894 213.714C634.036 221.014 643.876 228.266 652.208 232.597C667.84 240.715 687.053 241.941 704.028 246.778C724.76 252.677 732.742 264.347 749.833 276.173C764.54 286.344 788.845 301.431 806.306 306.385" stroke="#191919" stroke-width="0.2" stroke-linecap="round" stroke-linejoin="round"/>
<path d="M408.154 268.902C423.698 258.974 441.15 252.988 458.563 247.285C479.149 240.539 494.898 232.139 513.664 221.744C520.516 217.948 527.641 216.994 534.824 214.181C542.873 211.028 548.207 205.441 555.332 201.022C569.046 192.505 591.414 180.475 605.634 189.663C616.418 196.632 619.484 210.794 628.264 219.399C634.591 225.608 644.606 232.227 652.383 236.14C668.346 244.17 687.608 245.046 704.826 249.874C725.179 255.577 735.009 268.192 752.296 279.259C762.944 286.072 792.796 307.359 806.16 307.018" stroke="#191919" stroke-width="0.2" stroke-linecap="round" stroke-linejoin="round"/>
<path d="M406.402 271.248C420.924 262.069 436.936 256.064 453.122 250.574C473.932 243.527 490.81 234.602 510.306 224.83C525.013 217.452 539.467 213.529 553.95 205.042C569.309 196.039 590.878 183.463 605.897 196.642C622.794 211.466 632.284 230.397 653.61 240.909C668.57 248.277 687.19 248.248 703.123 252.336C726.24 258.254 740.256 274.09 760.491 285.955C772.765 293.148 791.969 306.95 806.072 307.758" stroke="#191919" stroke-width="0.2" stroke-linecap="round" stroke-linejoin="round"/>
<path d="M404.707 273.623C420.397 263.88 437.576 257.378 455.009 251.548C475.653 244.647 492.219 233.084 511.822 224.606C518.821 221.579 526.422 221.608 533.547 219.136C541.334 216.44 547.446 211.193 554.717 207.553C572.782 198.521 589.037 189.157 605.467 203.952C620.865 217.802 633.635 234.154 652.673 243.489C669.96 251.957 688.21 251.227 706.324 256.132C726.783 261.67 740.429 275.55 758.056 286.714C768.782 293.508 792.824 309.977 806.275 308.799" stroke="#191919" stroke-width="0.2" stroke-linecap="round" stroke-linejoin="round"/>
<path d="M403.072 276.027C418.792 266.44 435.913 259.675 453.277 253.757C473.873 246.73 490.925 233.619 510.859 226.173C525.722 220.615 539.514 218.065 554.396 211.31C561.492 208.088 573.707 201.879 581.494 200.827C592.97 199.29 596.532 202.696 605.127 210.97C619.736 225.024 634.473 238.398 652.83 247.401C670.875 256.259 688.22 254.439 707.054 259.296C728.282 264.775 742.688 279.59 760.996 290.851C772.705 298.054 792.727 310.775 806.967 310.318" stroke="#191919" stroke-width="0.2" stroke-linecap="round" stroke-linejoin="round"/>
<path d="M401.438 278.509C416.806 269.262 433.567 262.332 450.474 256.483C470.7 249.484 487.714 236.13 507.356 229.035C515.843 225.969 524.905 226.903 533.548 224.353C540.945 222.173 548.041 217.734 555.166 214.785C561.999 211.953 570.243 207.281 577.669 206.239C591.208 204.341 594.459 207.524 604.64 217.841C617.722 231.098 635.164 242.428 651.857 250.613C663.216 256.181 669.085 258.799 681.466 260.084C691.364 261.106 700.163 260.23 710.15 263.082C732.001 269.311 746.134 285.371 765.542 296.156C779.227 303.757 793.983 308.682 808.32 312.517" stroke="#191919" stroke-width="0.2" stroke-linecap="round" stroke-linejoin="round"/>
<path d="M399.676 281.556C415.551 270.664 434.404 264.279 452.353 257.777C470.359 251.256 485.31 239.916 502.781 232.879C519.26 226.251 538.415 225.501 555.604 218.98C562.855 216.226 570.214 210.794 578.166 210.356C590.537 209.665 595.131 217.656 604.446 225.083C620.301 237.736 637.85 247.791 655.828 257.213C673.708 266.586 689.573 261.077 708.563 265.71C732.828 271.628 747.419 289.693 769.007 300.633C776.57 304.468 787.179 309.111 795.238 311.758C801.468 313.802 803.171 310.386 809.907 314.97" stroke="#191919" stroke-width="0.2" stroke-linecap="round" stroke-linejoin="round"/>
<path d="M397.963 285.118C412.31 272.504 433.392 266.78 450.99 260.318C468.734 253.806 483.684 242.749 501.019 235.848C517.644 229.229 537.519 229.891 554.923 223.642C562.768 220.82 569.386 215.038 578.253 215.408C590.216 215.904 595.345 225.219 604.436 231.945C620.516 243.839 638.882 252.589 656.071 262.838C673.114 273 690.45 264.454 709.284 268.97C733.958 274.888 747.944 293.187 770.195 303.621C777.952 307.261 787.754 311.379 795.969 313.89C802.636 315.934 803.58 309.86 811.493 317.413" stroke="#191919" stroke-width="0.2" stroke-linecap="round" stroke-linejoin="round"/>
<path d="M396.279 289.099C411.356 276.319 430.112 270.119 448.547 263.393C466.934 256.687 483.519 244.199 502.032 238.651C517.829 233.921 535.32 235.186 551.107 229.881C560.471 226.737 568.258 218.289 578.877 220.06C589.155 221.773 596.192 233.668 604.261 238.729C620.633 248.998 637.958 258.828 655.079 267.939C673.202 277.584 687.89 267.754 707.697 271.696C733.539 276.845 749.259 296.35 772.395 307.008C785.175 312.897 801.935 312.109 813.002 319.905" stroke="#191919" stroke-width="0.2" stroke-linecap="round" stroke-linejoin="round"/>
<path d="M394.75 293.206C409.428 278.986 428.359 273.058 447.368 266.187C465.579 259.607 482.039 247.888 500.473 242.428C516.825 237.59 534.345 239.848 550.308 235.264C561.083 232.169 566.524 223.321 578.768 226.231C587.032 228.197 597.992 240.15 604.873 244.384C621.235 254.448 638.366 265.583 655.292 274.207C672.208 282.831 689.174 271.199 708.339 274.976C734.171 280.076 749.793 300.02 773.435 309.957C787.617 315.924 801.282 314.902 814.5 322.397" stroke="#191919" stroke-width="0.2" stroke-linecap="round" stroke-linejoin="round"/>
<path d="M393.418 297.217C408.096 281.945 426.579 276.037 446.231 269.068C464.286 262.673 480.697 251.694 498.995 246.418C515.912 241.532 533.315 245.396 549.531 241.133C560.5 238.252 565.737 228.996 578.283 232.237C584.834 233.93 599.113 245.601 605.118 248.832C614.189 253.709 622.94 259.704 631.593 265.145C639.068 269.846 647.584 277.244 655.498 280.543C666.185 284.991 670.127 281.41 680.318 278.061C690.781 274.625 698.616 276.124 708.963 278.295C734.678 283.687 750.135 303.913 774.449 312.955C789.35 318.494 801.439 317.579 815.971 324.927" stroke="#191919" stroke-width="0.2" stroke-linecap="round" stroke-linejoin="round"/>
<path d="M392.113 301.392C407.073 285.176 424.642 279.035 445.15 272.027C463.098 265.895 479.528 255.86 497.642 250.545C507.239 247.732 516.564 246.117 526.414 246.662C534.337 247.1 540.839 249.319 548.771 247.469C559.225 245.036 565.561 236.422 577.29 238.904C583.772 240.277 599.2 251.314 605.195 254.4C614.16 259.003 623.027 264.415 631.709 269.058C640.411 273.72 646.504 283.843 655.711 286.559C666.486 289.732 671.002 283.639 680.862 280.427C690.761 277.205 699.784 279.278 709.546 281.624C734.921 287.727 750.514 308.118 775.412 315.953C790.83 320.81 801.926 320.08 817.392 327.458" stroke="#191919" stroke-width="0.2" stroke-linecap="round" stroke-linejoin="round"/>
<path d="M390.818 305.675C406.148 288.739 422.666 281.955 444.089 275.015C461.998 269.214 478.438 260.171 496.406 254.721C506.947 251.519 515.191 250.097 525.294 251.606C533.49 252.833 539.291 256.103 548.051 254.108C558.679 251.694 564.315 244.141 576.199 245.922C583.645 247.041 598.421 256.21 604.903 259.86C613.537 264.736 623.795 268.951 631.874 273.73C640.537 278.859 645.832 289.975 655.993 291.698C666.554 293.489 671.946 285.332 681.465 282.578C690.459 279.969 701.292 282.519 710.179 284.953C734.989 291.766 750.923 312.488 776.424 318.961C792.182 322.961 802.772 322.572 818.822 330.008" stroke="#191919" stroke-width="0.2" stroke-linecap="round" stroke-linejoin="round"/>
<path d="M389.543 310.006C405.262 292.486 420.904 285.06 443.086 278.052C460.869 272.426 477.61 264.571 495.325 258.935C506.839 255.276 513.283 255.412 524.447 258.293C532.857 260.454 538.444 263.335 547.457 261.262C558.523 258.712 563.04 251.655 575.284 252.755C584.91 253.621 596.386 261.232 604.504 265.642C613.079 270.304 623.99 273.886 632 278.937C640.819 284.495 645.179 295.202 656.304 295.796C666.427 296.341 672.588 286.977 682.02 284.807C690.06 282.957 702.732 285.858 710.743 288.34C735.008 295.873 751.097 317.258 777.348 322.027C783.685 323.175 788.522 321.384 794.265 322.144C802.84 323.273 812.485 329.152 820.194 332.607" stroke="#191919" stroke-width="0.2" stroke-linecap="round" stroke-linejoin="round"/>
<path d="M388.238 314.464C415.579 284.106 456.537 275.93 494.4 263.179C507.267 258.848 511.209 260.269 523.415 264.941C531.26 267.939 538.433 272.299 547.32 269.301C559.029 265.35 561.414 258.682 574.641 259.325C585.981 259.87 594.634 266.868 604.124 271.628C613.215 276.183 623.649 278.675 632.136 284.262C641.247 290.257 644.838 299.407 656.664 298.803C666.31 298.307 672.86 288.807 682.535 287.337C690.312 286.15 703.491 289.303 711.307 291.727C735.387 299.192 751.155 322.776 778.272 325.083C794.819 326.494 804.913 327.682 821.547 335.352" stroke="#191919" stroke-width="0.2" stroke-linecap="round" stroke-linejoin="round"/>
<path d="M386.916 319.039C403.803 300.438 416.33 291.688 440.031 284.583C458.047 279.181 477.738 270.07 495.939 266.605C508.437 264.23 512.301 264.746 524.078 272.397C533.636 278.616 537.753 279.512 548.48 275.171C558.807 270.995 563.352 265.262 575.324 265.914C587.228 266.557 593.847 272.543 603.823 277.507C611.104 281.127 619.757 281.789 626.901 285.644C636.537 290.841 643.253 304.069 655.809 301.908C668.569 299.708 672.2 291.065 686.051 290.948C692.942 290.89 708.213 293.304 714.501 296.087C729.043 302.541 737.16 315.807 752.773 321.161C760.783 323.905 771.928 327.838 780.133 328.305C784.844 328.568 788.046 326.202 792.816 326.679C802.529 327.643 814.482 333.882 822.872 338.583" stroke="#191919" stroke-width="0.2" stroke-linecap="round" stroke-linejoin="round"/>
<path d="M385.631 323.584C402.752 305.042 415.074 294.686 439.154 287.707C456.84 282.587 477.436 273.526 495.287 270.761C518.257 267.209 527.017 291.844 548.314 281.994C558.719 277.176 562.768 270.898 575.411 271.637C587.111 272.328 593.36 278.957 603.521 283.123C611.23 286.286 619.484 286.218 627.037 290.316C637.968 296.253 642.776 306.132 656.276 302.794C670.253 299.338 671.557 293.8 686.43 294.491C695.569 294.92 707.425 296.983 715.464 301.392C730.726 309.763 735.7 320.489 753.249 324.577C761.941 326.602 771.236 330.067 780.103 330.592C784.415 330.845 788.348 328.529 793.331 329.142C803.162 330.349 816.224 336.461 824.147 342.155" stroke="#191919" stroke-width="0.2" stroke-linecap="round" stroke-linejoin="round"/>
<path d="M384.375 328.042C401.661 309.831 414.071 297.654 438.317 290.851C455.925 285.906 476.958 277.322 494.732 274.927C506.927 273.282 512.845 274.81 522.579 283.677C533.149 293.304 534.278 295.104 547.837 288.067C558.212 282.685 562.476 276.134 575.518 277.205C586.497 278.11 593.301 284.952 603.297 288.252C611.541 290.977 619.27 290.501 627.192 294.676C639.203 300.983 643.155 306.833 656.811 303.047C677.416 297.324 697.623 293.713 716.447 307.758C737.315 323.312 753.161 330.738 779.558 332.432C784.035 332.724 788.425 330.592 794.168 331.916C804.699 334.339 817.284 338.603 825.412 345.893" stroke="#191919" stroke-width="0.2" stroke-linecap="round" stroke-linejoin="round"/>
<path d="M383.148 332.344C400.678 314.776 414.276 300.341 438.687 293.664C456.236 288.865 474.175 284.31 491.831 280.086C505.214 276.884 509.448 278.529 520.223 286.452C531.591 294.812 532.701 303.154 546.133 294.248C556.596 287.308 561.531 280.865 575.119 282.11C585.436 283.055 593.33 290.51 603.015 293.391C613.42 296.487 622.092 297.197 632.789 301.869C643.155 306.395 647.574 304.663 658.602 302.541C677.261 298.939 698.771 299.124 714.179 311.68C733.986 327.818 752.12 335.167 778.176 334.271C795.598 333.668 811.6 338.398 826.657 349.621" stroke="#191919" stroke-width="0.2" stroke-linecap="round" stroke-linejoin="round"/>
<path d="M381.961 336.442C400.123 319.555 413.361 303.524 437.918 296.856C455.584 292.058 473.629 288.671 491.305 284.018C506.1 280.125 508.124 281.575 519.989 290.267C530.248 297.791 532.565 304.341 545.51 298.501C557.589 293.051 560.461 285.77 575.129 287.503C584.589 288.622 593.603 295.095 602.966 297.246C613.254 299.611 622.608 301.597 632.964 304.74C642.785 307.719 649.345 303.884 659.079 302.901C679.11 300.896 699.949 305.383 714.695 318.902C733.402 336.062 753.58 335.887 777.163 335.79C795.491 335.712 812.68 341.649 827.855 353.281" stroke="#191919" stroke-width="0.2" stroke-linecap="round" stroke-linejoin="round"/>
<path d="M380.793 340.257C400.347 323.866 412.952 306.453 438.443 299.728C454.494 295.494 472.646 294.618 488.152 288.865C501.282 283.999 506.129 280.057 517.585 289.673C530.784 300.75 531.952 307.359 548.858 299.299C571.148 288.671 580.375 297.625 603.024 300.857C611.551 302.073 620.282 304.283 628.652 305.363C641.627 307.037 648.109 302.901 660.87 302.93C668.939 302.949 684.502 306.59 691.569 309.257C703.141 313.627 707.94 321.706 718.121 328.548C736.254 340.734 755.604 338.155 775.577 337.649C794.868 337.162 813.479 345.036 829.023 356.716" stroke="#191919" stroke-width="0.2" stroke-linecap="round" stroke-linejoin="round"/>
<path d="M379.693 343.635C399.102 329.405 409.867 310.347 434.064 303.777C452.275 298.832 473.046 298.219 490.176 290.15C507.502 281.994 505.867 283.025 521.06 295.591C530.258 303.193 535.689 304.448 547.214 302.443C556.081 300.896 563.887 296.175 573.348 297.226C583.276 298.326 592.96 303.047 603.044 304.419C611.512 305.568 620.934 307.106 629.392 307.407C638.707 307.738 647.925 303.115 657.103 303.718C663.527 304.147 682.517 310.113 688.649 312.42C702.908 317.773 707.347 331.429 720.925 337.736C737.715 345.543 757.785 340.754 773.971 339.576C793.72 338.135 814.52 348.745 830.094 359.773" stroke="#191919" stroke-width="0.2" stroke-linecap="round" stroke-linejoin="round"/>
<path d="M378.633 346.642C399.735 333.444 409.225 313.092 434.648 306.551C454.767 301.373 474.253 300.205 492.338 289.839C514.491 277.137 522.715 306.921 545.676 305.334C557.785 304.497 565.133 301.129 577.572 302.648C586.089 303.689 594.314 306.853 603.161 307.651C611.522 308.41 621.956 310.279 630.152 309.617C640.518 308.789 647.993 304.088 658.641 306.191C667.46 307.933 676.843 312.809 685.564 315.69C701.341 320.907 702.412 334.992 717.294 341.532C726.103 345.406 740.956 345.328 750.281 345.581C758.496 345.805 765.474 342.136 772.414 341.601C792.767 340.043 814.891 352.005 831.174 362.459" stroke="#191919" stroke-width="0.2" stroke-linecap="round" stroke-linejoin="round"/>
<path d="M377.602 349.319C399.589 337.454 408.135 316.09 433.958 309.666C455.332 304.351 473.329 303.086 491.881 290.861C512.837 277.049 523.631 305.733 545.463 307.222C564.871 308.546 583.685 308.702 603.259 310.629C622.298 312.508 641.813 302.891 658.944 308.313C667.645 311.067 677.242 315.836 685.856 319.243C700.291 324.957 701.673 341.211 716.798 346.136C725.734 349.047 740.781 349.358 749.902 349.017C757.902 348.716 764.589 344.17 771.782 343.538C791.794 341.795 815.806 355.646 832.216 364.795" stroke="#191919" stroke-width="0.2" stroke-linecap="round" stroke-linejoin="round"/>
<path d="M376.598 351.986C398.984 340.54 407.112 319.029 433.314 312.839C456.168 307.437 472.267 305.84 491.49 291.853C503.452 283.152 506.557 286.909 518.305 294.481C527.474 300.39 534.112 307.076 545.267 309.159C563.945 312.654 584.326 311.145 603.375 313.325C615.142 314.678 618.802 315.914 630.764 311.194C642.678 306.492 647.291 306.093 659.156 311.31C664.159 315.145 669.542 318.387 675.294 321.024C678.886 321.706 682.477 322.387 686.069 323.059C701.087 330.641 698.167 346.165 716.427 349.942C726.141 351.947 739.651 353.096 749.297 352.083C757.142 351.256 763.838 346.516 771.557 345.951C791.608 344.482 816.204 358.78 833.198 367.112" stroke="#191919" stroke-width="0.2" stroke-linecap="round" stroke-linejoin="round"/>
<path d="M375.625 354.663C397.944 342.506 406.158 321.861 432.682 315.982C441.393 314.046 450.435 313.062 459.059 310.824C474.769 306.755 477.903 303.212 491.072 293.216C502.888 284.252 506.188 287.902 518.004 295.416C527.144 301.227 534.424 307.904 545.063 311.135C563.371 316.693 584.532 313.773 603.502 315.739C616.642 317.102 617.878 317.822 631.144 311.817C643.769 306.103 647.545 308.614 659.352 315.106C667.547 319.613 678.38 323.38 686.07 328.324C701.906 338.525 695.131 351.499 716.165 353.709C726.502 354.789 738.474 356.532 748.636 354.818C756.87 353.427 763.362 349.163 771.888 348.92C792.63 348.336 816.029 361.281 834.172 369.389" stroke="#191919" stroke-width="0.2" stroke-linecap="round" stroke-linejoin="round"/>
<path d="M374.68 357.232C396.404 343.576 405.349 324.674 431.98 319.155C440.808 317.326 449.743 316.031 458.562 314.172C474.086 310.911 478.164 304.487 490.682 295.182C509.516 281.166 526.637 305.918 544.887 313.364C563.02 320.761 584.501 316.557 603.647 318.026C617.137 319.068 617.906 318.679 631.542 312.78C644.896 306.999 648.011 312.556 659.526 319.671C667.614 324.674 678.584 328.499 685.864 334.875C700.23 347.47 695.315 356.239 715.989 357.515C726.647 358.176 737.577 359.724 747.992 357.398C757.248 355.325 762.913 351.879 772.481 352.142C793.797 352.726 816.028 363.53 835.115 371.706" stroke="#191919" stroke-width="0.2" stroke-linecap="round" stroke-linejoin="round"/>
<path d="M373.775 359.52C394.478 344.229 404.669 327.546 431.105 322.348C440.05 320.586 449.218 319.584 458.095 317.54C473.513 313.997 477.542 306.376 490.303 297.878C509.332 285.206 527.874 307.602 544.722 316.274C562.797 325.579 584.385 318.581 603.823 320.129C616.895 321.17 618.715 318.533 631.913 314.123C645.53 309.578 648.83 318.026 659.673 324.811C668.929 330.602 678.069 333.609 685.515 342.223C697.37 355.947 697.457 359.938 715.922 361.281C736.546 362.78 753.706 353.894 773.066 355.363C794.723 357.008 816.272 365.798 836.041 374.013" stroke="#191919" stroke-width="0.2" stroke-linecap="round" stroke-linejoin="round"/>
<path d="M372.891 361.651C382.906 353.319 393.136 339.128 404.339 332.626C411.902 328.237 421.596 327.137 429.996 325.55C439.116 323.827 448.645 323.195 457.658 320.985C472.57 317.335 477.183 308.741 489.953 301.402C509.946 289.917 528.595 310.181 544.567 320.09C561.834 330.797 584.863 320.976 604.038 321.998C615.981 322.64 620.292 318.046 632.216 316.041C645.054 313.88 650.125 324.139 659.81 330.32C670.419 337.094 677.077 339.985 685.097 349.981C695.755 363.257 699.6 363.617 715.981 364.99C736.81 366.732 753.357 356.337 773.612 358.605C795.454 361.048 816.662 368.202 836.918 376.339" stroke="#191919" stroke-width="0.2" stroke-linecap="round" stroke-linejoin="round"/>
<path d="M372.043 363.715C381.728 354.945 391.918 340.832 403.667 334.719C410.889 330.962 420.768 330.203 428.633 328.772C438.064 327.059 447.885 326.553 457.219 324.382C471.391 321.083 477.114 311.953 489.612 305.811C511.619 295.007 528.107 313.89 544.411 324.898C556.499 333.055 564.578 329.59 577.387 325.56C587.296 322.436 594.031 323.623 604.241 323.925C613.955 324.207 623.192 318.601 632.41 318.766C643.506 318.971 651.614 330.271 659.936 335.887C670.817 343.245 676.064 348.317 684.668 357.729C694.46 368.435 702.616 367.404 716.194 368.64C727.942 369.71 735.787 365.905 746.952 363.101C756.957 360.581 763.878 360.473 774.137 361.885C796.076 364.892 817.158 370.732 837.773 378.704" stroke="#191919" stroke-width="0.2" stroke-linecap="round" stroke-linejoin="round"/>
<path d="M371.225 365.788C390.244 347.557 400.648 336.598 427.016 332.013C436.847 330.3 447.057 329.94 456.79 327.769C470.096 324.801 477.162 316.197 489.309 311.057C514.577 300.38 526.053 318.601 544.254 330.641C556.946 339.041 564.908 332.704 577.318 327.877C587.305 323.983 593.991 325.979 604.435 326.066C612.864 326.144 624.544 321.151 632.496 322.65C641.772 324.402 653.092 336.14 660.042 341.221C669.425 348.093 675.586 358.05 684.307 364.999C692.61 371.618 706.47 371.54 716.495 372.212C728.438 373.01 735.835 367.404 747.097 364.863C756.801 362.683 764.724 363.491 774.642 365.145C796.639 368.815 817.634 373.273 838.59 381.04" stroke="#191919" stroke-width="0.2" stroke-linecap="round" stroke-linejoin="round"/>
<path d="M370.438 367.929C380.317 358.157 388.95 345.114 402.295 340.043C409.429 337.328 417.732 336.5 425.197 335.264C435.515 333.551 446.143 333.24 456.383 331.166C469.172 328.577 477.095 320.907 489.058 316.547C497.224 313.569 508.203 312.332 516.554 314.629C529.928 318.309 533.004 330.787 544.109 337.162C557.045 344.579 565.737 335.225 577.251 330.32C587.111 326.125 594.256 328.402 604.612 328.402C613.42 328.402 623.962 324.557 632.537 327.633C641.18 330.719 653.327 341.776 660.024 347.012C667.664 352.979 675.383 366.567 684.065 371.414C690.674 375.103 709.381 375.784 716.779 375.823C728.42 375.891 736.44 368.941 747.478 366.927C756.987 365.194 765.552 366.927 775.111 368.445C797.05 371.92 818.375 376.018 839.37 383.425" stroke="#191919" stroke-width="0.2" stroke-linecap="round" stroke-linejoin="round"/>
<path d="M369.688 370.197C379.518 360.386 387.85 347.898 401.262 343.109C408.27 340.608 415.95 339.683 423.25 338.535C434.093 336.831 445.15 336.452 455.964 334.602C468.588 332.432 476.949 325.92 488.872 322.056C496.951 319.447 508.173 317.559 516.349 319.808C529.567 323.438 532.147 339.157 543.982 344.092C556.567 349.339 566.807 337.367 577.192 333.045C586.614 329.122 594.897 331.089 604.757 331.059C628.205 330.972 641.257 337.454 659.916 352.911C667.586 359.267 674.107 372.572 684.045 376.495C689.817 378.772 710.831 379.891 717.06 379.444C728.225 378.646 737.043 370.82 747.973 369.379C757.22 368.163 766.418 370.324 775.567 371.754C797.429 375.181 819.105 378.792 840.119 385.829" stroke="#191919" stroke-width="0.2" stroke-linecap="round" stroke-linejoin="round"/>
<path d="M368.957 372.65C385.942 355.977 395.938 345.689 419.677 342.019C443.427 338.359 463.283 335.994 485.952 328.412C493.31 325.949 510.47 322.046 518.159 325.103C529.878 329.775 531.251 347.489 545.228 349.689C556.333 351.441 562.981 343.323 572.335 338.622C584.171 332.665 592.152 334.495 604.825 334.271C627.007 333.882 641.364 343.09 658.748 356.755C672.88 367.861 670.136 375.56 687.714 380.563C696.639 383.104 711.823 383.717 720.506 381.712C731.319 379.21 739.067 372.407 750.698 371.92C759.371 371.56 768.89 373.798 777.485 375.278C798.791 378.938 820.35 381.468 840.839 388.564" stroke="#191919" stroke-width="0.2" stroke-linecap="round" stroke-linejoin="round"/>
<path d="M368.266 375.336C384.686 359.724 394.993 348.579 417.682 345.309C441.314 341.912 462.864 340.598 485.708 333.707C495.149 330.865 508.669 327.02 517.964 332.441C529.255 339.031 529.781 354.945 545.111 355.354C555.827 355.636 563.039 345.942 572.267 341.922C582.409 337.503 594.059 337.435 604.883 337.678C626.063 338.145 643.378 347.762 658.319 363.393C671.985 377.692 669.113 380.67 687.899 384.34C698.615 386.432 710.967 386.831 721.274 383.269C742.269 376.018 755.516 374.168 777.912 378.665C799.199 382.938 821.206 383.785 841.529 391.727" stroke="#191919" stroke-width="0.2" stroke-linecap="round" stroke-linejoin="round"/>
<path d="M367.613 378.276C383.576 363.841 394.166 351.49 415.793 348.609C439.387 345.475 462.455 345.183 485.455 338.827C497.213 335.576 507.141 331.634 517.779 339.917C528.573 348.326 528.972 361.583 545.003 360.162C555.068 359.267 562.913 349.232 572.218 345.65C582.379 341.747 594.225 341.396 604.912 341.435C626.51 341.503 644.828 352.95 657.793 370.041C669.687 385.722 669.736 385.868 688.083 388.116C700.873 389.683 710.022 389.45 722.16 384.233C740.565 376.319 758.776 377.925 778.331 382.403C799.705 387.299 822.111 385.946 842.201 395.251" stroke="#191919" stroke-width="0.2" stroke-linecap="round" stroke-linejoin="round"/>
<path d="M366.992 381.458C383.928 367.17 393.506 354.351 415.795 351.752C439.982 348.93 464.306 348.949 487.997 342.963C499.92 339.946 505.225 339.527 515.601 345.922C526.775 352.813 527.845 368.708 543.516 364.922C554.7 362.225 565.62 352.2 576.989 348.599C586.537 345.581 594.791 344.822 604.914 345.299C616.117 345.825 622.551 346.895 632.897 352.434C644.898 358.848 649.395 368.318 658.34 377.77C674.838 395.192 697.468 396.642 719.767 386.598C737.657 378.538 758.233 381.215 777.213 386.023C799.23 391.591 822.58 388.097 842.826 399.027" stroke="#191919" stroke-width="0.2" stroke-linecap="round" stroke-linejoin="round"/>
<path d="M366.398 384.865C384.133 371.355 391.871 357.563 414.471 355.091C438.668 352.443 464.024 353.378 487.763 347.625C500.349 344.579 504.524 344.209 515.464 351.392C526.648 358.731 527.874 372.728 543.409 367.939C566.516 360.814 579.072 346.594 604.904 348.959C615.484 349.922 623.125 350.789 632.975 355.782C645.55 362.157 648.685 373.059 657.941 382.636C676.872 402.239 697.38 396.818 720.624 386.948C736.907 380.037 760.929 385.469 777.554 390.384C800.174 397.081 822.483 390.559 843.41 402.979" stroke="#191919" stroke-width="0.2" stroke-linecap="round" stroke-linejoin="round"/>
<path d="M365.834 388.437C381.31 378.149 389.301 361.184 408.164 358.916C433.481 355.879 459.693 357.106 484.736 352.366C495.793 350.273 502.938 345.64 513.206 352.56C526.999 361.846 525.363 371.716 541.852 370.217C550.913 369.399 562.194 362.177 570.497 357.943C587.189 349.426 586.917 350.176 604.904 353.008C614.929 354.585 624.235 354.001 633.666 359.16C646.923 366.411 649.21 378.383 658.691 388.583C676.921 408.196 698.471 397.314 718.025 388.963C737.579 380.602 762.584 391.727 781.963 396.224C804.321 401.402 823.038 394.346 843.965 407.038" stroke="#191919" stroke-width="0.2" stroke-linecap="round" stroke-linejoin="round"/>
<path d="M365.307 392.087C381.571 382.432 387.898 365.048 407.433 362.255C432.817 358.624 459.438 361.311 484.55 356.171C495.879 353.855 502.371 348.57 513.107 355.49C526.491 364.124 525.946 372.494 541.762 372.076C552.362 371.793 561.949 365.155 570.456 359.539C586.905 348.677 586.954 352.035 604.912 356.152C614.714 358.4 624.437 357.388 633.703 362.255C646.211 368.825 649.569 380.982 658.708 390.608C666.135 398.424 676.18 403.553 687.091 403.329C700.854 403.047 706.947 392.671 718.812 389.09C738.415 383.172 763.75 396.964 782.302 400.906C805.448 405.821 822.394 398.103 844.518 411.087" stroke="#191919" stroke-width="0.2" stroke-linecap="round" stroke-linejoin="round"/>
<path d="M364.82 395.718C381.795 386.374 387.567 368.795 408.377 365.476C432.272 361.661 457.832 365.632 481.435 360.639C498.878 356.95 500.299 348.346 516.621 360.483C523.999 365.963 530.112 373.828 540.137 374.489C558.037 375.667 562.164 362.362 575.45 355.062C586.692 348.891 593.894 355.461 604.893 358.527C614.062 361.087 626.034 360.434 634.502 364.717C645.861 370.47 651.71 384.456 660.607 392.885C668.296 400.176 677.435 409.101 689.291 407.281C701.973 405.325 708.942 391.678 722.189 390.754C742.59 389.323 761.853 401.169 781.047 405.188C805.604 410.337 821.002 401.791 844.985 414.98" stroke="#191919" stroke-width="0.2" stroke-linecap="round" stroke-linejoin="round"/>
<path d="M364.363 399.173C374.544 397.09 376.54 389.167 382.866 382.821C390.4 375.259 398.936 370.625 409.497 368.718C433.1 364.455 461.453 371.258 484.171 363.462C497.768 358.79 499.384 351.986 514.315 359.685C525.742 365.574 529.986 375.405 544.479 375.959C560.334 376.563 561.969 361.846 574.681 356.259C587.062 350.818 591.033 355.558 604.903 360.775C613.079 363.851 621.08 363.676 629.139 366.022C643.817 370.304 652.334 385.663 662.301 395.913C667.858 401.626 676.56 411.165 685.602 410.785C698.217 410.25 706.792 394.774 719.289 392.856C739.369 389.771 760.909 405.072 779.714 409.423C789.69 411.729 799.521 409.656 809.654 409.14C823.543 408.43 832.916 412.274 845.443 418.591" stroke="#191919" stroke-width="0.2" stroke-linecap="round" stroke-linejoin="round"/>
<path d="M363.916 402.288C372.569 400.984 375.732 393.051 381.407 387.717C388.96 380.631 398.937 374.694 409.234 372.319C432.711 366.907 461.785 375.842 484.016 365.554C497.535 359.296 498.713 352.103 514.208 360.065C524.837 365.535 530.921 377.419 544.411 377.877C560.578 378.431 561.405 360.24 574.652 355.616C586.342 351.538 592.61 356.775 604.904 362.274C613.313 366.031 620.467 367.199 629.12 369.642C645.569 374.285 652.12 386.199 662.905 398.219C668.268 404.196 676.736 413.793 685.992 412.907C698.636 411.69 706.062 395.718 719.64 394.735C740.839 393.197 760.355 409.948 779.958 413.87C789.886 415.856 799.979 413.471 809.965 412.907C823.621 412.138 833.335 416.138 845.862 421.745" stroke="#191919" stroke-width="0.2" stroke-linecap="round" stroke-linejoin="round"/>
<path d="M363.127 405.198C370.544 404.517 375.595 396.506 380.919 392.156C389.105 385.478 400.104 378.772 410.538 375.998C435.961 369.224 464.178 379.93 486.974 364.766C496.425 358.478 499.948 352.58 511.784 358.41C523.308 364.094 528.934 376.826 542.804 378.373C561.093 380.417 559.76 357.554 573.844 353.563C583.237 350.906 597.155 359.909 604.893 363.588C626.91 374.042 643.496 376.271 659.546 395.776C663.186 403.621 668.812 408.916 676.433 411.661C680.794 415.817 685.057 415.535 689.213 410.814C703.122 407.067 707.035 395.212 722.813 397.713C744.343 401.12 763.654 417.813 784.668 418.64C792.795 418.961 801.244 417.384 809.342 416.752C824.117 415.593 832.536 419.107 846.26 424.519" stroke="#191919" stroke-width="0.2" stroke-linecap="round" stroke-linejoin="round"/>
<path d="M361.988 408.118C378.525 405.461 393.738 386.043 410.324 380.437C436.925 371.443 463.186 383.59 486.838 366.158C496.425 359.091 499.793 354.137 511.697 360.347C523.299 366.401 528.837 378.393 542.746 378.889C558.981 379.473 559.779 357.933 573.815 354.536C583.422 352.21 597.136 360.542 604.893 364.62C616.116 370.509 623.893 373.837 635.972 377.867C648.051 381.897 652.197 389.644 659.945 399.027C671.8 413.394 674.711 415.769 689.904 410.892C703.219 406.609 708.096 398.326 722.92 400.954C744.586 404.799 763.556 421.764 784.872 422.407C793.039 422.65 801.497 421.472 809.595 420.567C824.75 418.873 832.264 421.998 846.611 427.205" stroke="#191919" stroke-width="0.2" stroke-linecap="round" stroke-linejoin="round"/>
<path d="M360.645 411.048C378.009 408.79 394.234 391.912 410.129 385.294C437.382 373.945 461.725 386.072 486.701 368.036C496.103 361.252 500.386 357.709 511.618 363.287C523.95 369.419 528.642 380.3 542.697 379.21C556.421 378.149 560.061 360.951 573.795 357.524C584.988 354.731 595.666 360.308 604.903 365.506C615.891 371.686 624.116 376.923 636.01 381.683C648.196 386.569 651.71 393.304 660.237 402.794C682.331 427.39 695.792 400.273 723.036 404.274C745.491 407.563 762.923 425.015 785.076 426.028C793.35 426.407 801.711 425.191 809.848 423.867C825.353 421.336 832.117 424.461 846.941 429.707" stroke="#191919" stroke-width="0.2" stroke-linecap="round" stroke-linejoin="round"/>
<path d="M359.215 413.987C378.166 411.34 393.398 398.502 409.964 390.462C424.068 383.619 438.989 385.965 453.998 384.233C469.542 382.442 472.803 379.424 486.585 370.625C509.887 355.753 520.652 383.376 542.659 379.356C555.059 377.088 560.734 364.016 573.776 360.581C586.264 357.291 593.934 359.997 604.904 366.421C615.532 372.65 625.11 379.113 636.031 384.982C646.845 390.793 651.721 398.91 660.452 406.94C673.475 418.922 677.076 415.36 691.209 411.554C702.286 408.576 711.318 406.366 723.134 407.719C746.076 410.347 762.603 427.643 785.253 429.541C793.944 430.271 801.692 428.471 810.063 426.534C825.607 422.932 832.342 426.748 847.234 432.091" stroke="#191919" stroke-width="0.2" stroke-linecap="round" stroke-linejoin="round"/>
<path d="M357.812 416.946C378.457 413.822 392.093 405.529 410.256 396.01C424.554 388.505 439.29 390.141 454.669 387.873C469.288 385.722 473.045 381.186 486.487 374.12C507.618 363.004 522.491 384.816 542.619 379.755C553.959 376.903 562.115 367.189 573.756 363.481C586.799 359.325 592.746 360.434 604.903 367.588C625.567 379.755 641.237 398.064 660.626 411.174C673.27 419.73 678.808 415.545 691.656 413.033C702.217 410.97 712.242 410.366 723.212 411.301C746.309 413.267 762.739 429.979 785.398 432.86C795.141 434.096 801.224 431.361 810.247 428.558C825.402 423.847 833.091 428.879 847.487 434.369" stroke="#191919" stroke-width="0.2" stroke-linecap="round" stroke-linejoin="round"/>
<path d="M356.547 419.905C363.876 418.942 371.303 419.243 378.593 417.968C391.957 415.642 399.802 407.865 411.229 401.782C425.391 394.229 439.845 394.19 455.184 391.474C468.354 389.138 473.941 383.765 486.428 378.548C505.662 370.518 523.629 385.858 542.59 380.875C567.731 374.266 578.769 354.166 604.903 369C625.956 380.952 639.329 405.403 660.782 415.058C678.195 422.893 704.329 413.861 723.27 415.029C746.386 416.46 763.108 432.286 785.514 435.955C796.708 437.785 800.543 433.707 810.393 429.979C824.847 424.499 834.171 431.128 847.681 436.549" stroke="#191919" stroke-width="0.2" stroke-linecap="round" stroke-linejoin="round"/>
<path d="M355.486 422.874C363.468 421.716 371.303 424.285 379.265 423.234C393.768 421.326 401.583 412.829 415.239 406.512C426.773 401.178 438.784 397.158 451.379 395.397C463.312 393.722 471.916 389.479 483.343 385.712C502.83 379.298 521.479 389.245 540.916 384.194C564.315 378.12 580.336 356.979 604.893 370.255C627.329 382.383 638.658 412.479 662.32 418.825C679.986 423.565 701.623 418.25 720.048 418.786C744.508 419.496 760.85 433.434 783.977 438.389C796.504 441.065 798.859 436.014 809.537 431.478C824.117 425.278 834.327 432.948 847.857 438.583" stroke="#191919" stroke-width="0.2" stroke-linecap="round" stroke-linejoin="round"/>
<path d="M354.727 425.862C363.195 424.645 370.767 428.918 379.167 428.519C393.524 427.848 403.89 419.049 417.244 412.566C438.307 402.356 460.995 396.886 483.353 391.017C502.235 386.062 521.751 390.958 540.906 387.007C564.305 382.179 579.927 361.077 604.902 372.163C629.518 383.094 637.042 416.547 662.436 422.193C680.258 426.154 701.739 422.358 720.096 422.679C744.858 423.117 760.83 436.637 784.074 440.997C796.931 443.402 799.112 436.423 809.653 432.13C823.474 426.495 835.553 435.264 848.012 440.569" stroke="#191919" stroke-width="0.2" stroke-linecap="round" stroke-linejoin="round"/>
<path d="M354.299 428.85C363.244 427.896 370.369 433.298 379.109 433.59C393.427 434.067 406.207 425.112 419.366 418.718C440.857 408.264 460.013 401.548 483.363 396.535C502.148 392.506 521.917 394.414 540.887 390.822C564.081 386.422 579.45 366.012 604.903 374.499C631.358 383.327 636.108 418.504 662.476 425.239C680.181 429.755 701.818 426.378 720.136 426.582C731.641 426.709 741.238 427.351 752.139 430.719C762.369 433.872 773.747 442.078 784.142 443.44C796.465 445.056 799.793 436.131 809.741 432.734C822.55 428.354 836.946 437.659 848.129 442.467" stroke="#191919" stroke-width="0.2" stroke-linecap="round" stroke-linejoin="round"/>
<path d="M354.26 431.848C363.497 431.488 370.252 437.474 379.177 438.36C393.427 439.781 408.65 431.313 421.449 424.889C443.261 413.948 458.932 406.269 483.353 401.938C502.177 398.599 522.189 399.154 540.877 395.377C563.789 390.734 579.226 371.745 604.903 377.351C631.962 383.259 637.101 419.195 662.456 428.072C679.665 434.096 701.896 430.359 720.155 430.485C731.28 430.563 741.442 430.583 752.168 433.376C762.106 435.965 774.389 444.92 784.181 445.582C795.355 446.341 800.582 436.121 809.79 433.629C821.684 430.408 837.948 439.888 848.197 444.278" stroke="#191919" stroke-width="0.2" stroke-linecap="round" stroke-linejoin="round"/>
<path d="M354.621 434.856C364.131 435.362 370.934 441.543 380.21 442.73C392.591 444.307 404.037 439.138 415.464 434.223C428.886 428.451 440.031 417.647 453.648 412.673C461.688 409.734 471.616 409.218 480.045 407.768C490.936 405.889 501.896 404.118 512.759 402.317C523.115 400.604 535.797 401.529 545.716 398.219C565.873 391.494 581.515 377.809 604.914 381.76C633.033 386.501 638.503 422.27 664.015 432.344C680.289 438.768 706.364 434.35 723.281 434.418C732.197 434.447 740.791 434.242 749.59 435.722C760.579 437.581 771.694 446.098 782.469 446.818C793.312 447.548 799.541 437.931 808.778 435.703C821.062 432.734 837.55 441.581 848.237 446.049" stroke="#191919" stroke-width="0.2" stroke-linecap="round" stroke-linejoin="round"/>
<path d="M355.369 437.873C364.703 439.274 371.575 445.144 380.812 446.633C393.251 448.628 405.622 444.647 417.127 439.956C440.789 430.291 454.016 416.022 480.014 412.741C491.334 411.311 501.729 408.176 512.786 405.986C523.59 403.845 535.124 405.198 545.714 401.373C554.795 398.083 561.94 391.581 572.023 390.452C576.403 390.686 580.793 390.919 585.173 391.153C591.49 388.301 598.07 386.627 604.903 386.15C633.003 387.006 641.227 421.492 663.926 434.038C679.986 442.924 705.818 438.369 723.27 438.33C732.049 438.311 740.838 437.922 749.579 438.992C760.451 440.316 771.781 447.947 782.458 448.103C792.006 448.239 799.959 439.839 808.767 438.184C821.284 435.829 837.043 443.265 848.226 447.528" stroke="#191919" stroke-width="0.2" stroke-linecap="round" stroke-linejoin="round"/>
<path d="M356.324 440.91C365.483 443.158 372.579 448.492 381.855 450.147C394.236 452.356 406.879 449.748 418.423 445.446C441.686 436.773 454.465 420.158 479.986 417.355C492.075 416.031 501.263 411.544 512.826 408.985C524.263 406.454 534.191 408.293 545.715 404.059C555.595 400.429 561.055 396.983 572.015 397.645C576.395 398.258 580.785 398.872 585.165 399.485C591.326 395.621 597.896 392.817 604.894 391.085C632.634 387.581 644.003 420.47 663.839 434.953C680.24 446.925 704.067 442.321 723.251 442.224C731.972 442.185 740.849 441.708 749.551 442.399C760.345 443.256 771.733 449.534 782.43 449.222C791.171 448.969 800.028 442.594 808.73 441.406C822.084 439.586 835.769 444.764 848.179 448.765" stroke="#191919" stroke-width="0.2" stroke-linecap="round" stroke-linejoin="round"/>
<path d="M357.268 444.034C379.508 451.081 395.451 458.547 419.444 450.663C442.133 443.207 455.428 424.743 479.995 421.618C492.941 419.973 500.698 414.425 512.874 411.525C524.554 408.741 533.704 410.435 545.734 406.522C557.784 402.609 560.062 403.524 572.034 406.503C587.49 410.357 590.877 400.964 604.903 396.759C632.536 388.467 645.579 419.127 663.79 435.274C680.881 450.419 701.662 446.37 723.241 446.107C731.972 446 740.819 445.446 749.54 445.845C760.325 446.341 771.645 451.14 782.41 450.478C791.073 449.942 799.823 445.523 808.7 444.755C822.579 443.548 834.795 446.604 848.129 449.972" stroke="#191919" stroke-width="0.2" stroke-linecap="round" stroke-linejoin="round"/>
<path d="M358.191 447.178C379.868 454.965 402.507 463.851 425.741 454.157C434.958 450.312 443.027 443.11 451.33 437.717C461.958 430.816 471.497 428.724 483.343 425.298C493.475 422.368 504.746 413.773 515.317 412.352C524.106 411.175 531.776 413.345 540.915 411.019C545.178 409.685 549.451 408.352 553.715 407.018C560.382 409.442 566.786 412.42 572.918 415.954C577.182 420.528 581.445 420.538 585.718 415.983C592.989 412.644 599.393 408.001 604.922 402.045C630.511 387.98 646.648 417.92 662.358 433.61C673.055 444.297 678.622 450.04 694.517 450.4C703.024 450.595 711.599 450.186 720.116 450.04C740.672 449.68 764.032 453.943 784.093 451.792C806.46 449.397 825.314 447.178 848.031 451.276" stroke="#191919" stroke-width="0.2" stroke-linecap="round" stroke-linejoin="round"/>
</g>
</g>
<defs>
<clipPath id="clip0_1305_22770">
<rect width="494.95" height="531.148" fill="white" transform="translate(353.773 153.28)"/>
</clipPath>
</defs>
</svg>
