<svg width="580" height="400" viewBox="0 0 580 400" fill="none" xmlns="http://www.w3.org/2000/svg">
<mask id="mask0_1305_22772" style="mask-type:alpha" maskUnits="userSpaceOnUse" x="0" y="0" width="580" height="400">
<path d="M0 20C0 8.95431 8.95431 0 20 0H430C441.046 0 450 8.95431 450 20V50C450 61.0457 458.954 70 470 70H560C571.046 70 580 78.9543 580 90V380C580 391.046 571.046 400 560 400H20C8.95432 400 0 391.046 0 380V20Z" fill="#EFB7FA"/>
</mask>
<g mask="url(#mask0_1305_22772)">
<rect width="580" height="400" rx="20" fill="#EFB7FA"/>
<rect width="580" height="400" rx="20" fill="#EFB7FA"/>
</g>
<mask id="mask1_1305_22772" style="mask-type:alpha" maskUnits="userSpaceOnUse" x="0" y="0" width="580" height="400">
<rect width="580" height="400" rx="20" fill="#EFB7FA"/>
</mask>
<g mask="url(#mask1_1305_22772)">
<g clip-path="url(#clip0_1305_22772)">
<path d="M-265.273 -14.138C-256.805 -15.3546 -249.233 -11.0817 -240.833 -11.4808C-226.476 -12.1524 -216.11 -20.9513 -202.756 -27.4337C-181.693 -37.644 -159.005 -43.1141 -136.647 -48.9833C-117.765 -53.9376 -98.2494 -49.0417 -79.0942 -52.9934C-55.6953 -57.8212 -40.0733 -78.923 -15.0976 -67.8368C9.51804 -56.9062 17.0419 -23.4528 42.4362 -17.8074C60.2579 -13.846 81.7393 -17.642 100.096 -17.3208C124.858 -16.8828 140.83 -3.36316 164.074 0.997374C176.931 3.40151 179.112 -3.57731 189.653 -7.86971C203.474 -13.5053 215.553 -4.73556 228.012 0.569104" stroke="#191919" stroke-width="0.2" stroke-linecap="round" stroke-linejoin="round"/>
<path d="M-265.701 -11.1499C-256.756 -12.1038 -249.631 -6.7018 -240.891 -6.40981C-226.573 -5.93287 -213.793 -14.8875 -200.634 -21.2823C-179.143 -31.7359 -159.987 -38.4519 -136.637 -43.4646C-117.852 -47.4942 -98.0834 -45.5865 -79.1132 -49.1781C-55.9186 -53.5775 -40.5497 -73.9883 -15.097 -65.5009C11.3582 -56.6727 16.108 -21.4965 42.4756 -14.761C60.1805 -10.2447 81.8177 -13.6222 100.136 -13.4178C111.641 -13.2913 121.238 -12.6489 132.139 -9.28112C142.369 -6.12752 153.747 2.07766 164.142 3.44033C176.465 5.05606 179.793 -3.86941 189.741 -7.26634C202.55 -11.6463 216.946 -2.34127 228.129 2.46699" stroke="#191919" stroke-width="0.2" stroke-linecap="round" stroke-linejoin="round"/>
<path d="M-265.74 -8.15193C-256.503 -8.51206 -249.748 -2.52606 -240.823 -1.64032C-226.573 -0.219257 -211.35 -8.68728 -198.551 -15.1113C-176.739 -26.0516 -161.068 -33.7311 -136.647 -38.0625C-117.823 -41.401 -97.811 -40.8462 -79.123 -44.6228C-56.2108 -49.2656 -40.7737 -68.2553 -15.0972 -62.6489C11.9615 -56.7407 17.1007 -20.8053 42.4561 -11.9285C59.6646 -5.90353 81.8955 -9.64115 100.155 -9.51462C111.28 -9.43675 121.442 -9.41728 132.168 -6.62382C142.106 -4.03475 154.389 4.91992 164.181 5.58179C175.355 6.34099 180.582 -3.87901 189.79 -6.37074C201.684 -9.59247 217.948 -0.112207 228.197 4.27753" stroke="#191919" stroke-width="0.2" stroke-linecap="round" stroke-linejoin="round"/>
<path d="M-265.379 -5.14428C-255.869 -4.63815 -249.066 1.54251 -239.79 2.72998C-227.409 4.30678 -215.963 -0.861612 -204.536 -5.77695C-191.114 -11.5488 -179.969 -22.3528 -166.352 -27.3266C-158.312 -30.266 -148.384 -30.7819 -139.955 -32.2322C-129.064 -34.1107 -118.104 -35.8822 -107.241 -37.6828C-96.8852 -39.3959 -84.2026 -38.4712 -74.2844 -41.7806C-54.1266 -48.5063 -38.4852 -62.1914 -15.0863 -58.2396C13.0333 -53.4995 18.5035 -17.7295 44.0145 -7.6555C60.2887 -1.2315 86.3643 -5.65043 103.281 -5.5823C112.197 -5.5531 120.791 -5.7575 129.59 -4.27803C140.579 -2.41897 151.694 6.09769 162.469 6.81796C173.312 7.54796 179.541 -2.06856 188.778 -4.29749C201.062 -7.26616 217.55 1.58145 228.237 6.04905" stroke="#191919" stroke-width="0.2" stroke-linecap="round" stroke-linejoin="round"/>
<path d="M-264.631 -2.12714C-255.297 -0.725539 -248.425 5.14366 -239.188 6.63286C-226.749 8.6282 -214.378 4.64725 -202.873 -0.0442209C-179.211 -9.70942 -165.984 -23.9785 -139.986 -27.2586C-128.666 -28.6894 -118.271 -31.8236 -107.214 -34.0136C-96.4097 -36.1549 -84.8757 -34.802 -74.2858 -38.6272C-65.2046 -41.917 -58.0603 -48.4189 -47.9766 -49.548C-43.5966 -49.3144 -39.2068 -49.0808 -34.8268 -48.8472C-28.5099 -51.699 -21.9302 -53.3732 -15.0974 -53.8501C13.0027 -52.9936 21.2274 -18.5083 43.9255 -5.96208C59.9855 2.92446 85.8178 -1.63077 103.27 -1.6697C112.049 -1.68917 120.838 -2.07848 129.579 -1.00781C140.451 0.315922 151.781 7.94684 162.458 8.10258C172.006 8.23884 179.959 -0.161028 188.767 -1.8157C201.284 -4.17116 217.043 3.26511 228.226 7.52831" stroke="#191919" stroke-width="0.2" stroke-linecap="round" stroke-linejoin="round"/>
<path d="M-263.676 0.909883C-254.517 3.15828 -247.421 8.49214 -238.145 10.1468C-225.764 12.3563 -213.121 9.74775 -201.577 5.44562C-178.314 -3.22678 -165.535 -19.8416 -140.014 -22.6448C-127.925 -23.9685 -118.737 -28.4556 -107.174 -31.0155C-95.7368 -33.5461 -85.8089 -31.7065 -74.2846 -35.9405C-64.4053 -39.5711 -58.9448 -43.0167 -47.9851 -42.3548C-43.6051 -41.7416 -39.2154 -41.1284 -34.8354 -40.5152C-28.6742 -44.3793 -22.1042 -47.1825 -15.1059 -48.9151C12.6341 -52.4191 24.0026 -19.5301 43.8391 -5.04691C60.2398 6.92509 84.067 2.32119 103.251 2.22386C111.972 2.18493 120.849 1.70802 129.551 2.39908C140.345 3.25562 151.733 9.5336 162.43 9.22213C171.171 8.96906 180.028 2.59373 188.73 1.40626C202.084 -0.413871 215.769 4.76426 228.179 8.76466" stroke="#191919" stroke-width="0.2" stroke-linecap="round" stroke-linejoin="round"/>
<path d="M-262.732 4.03427C-240.492 11.0812 -224.549 18.5467 -200.556 10.6627C-177.867 3.20694 -164.572 -15.2572 -140.005 -18.3816C-127.059 -20.0265 -119.302 -25.5745 -107.126 -28.4751C-95.4456 -31.2588 -86.2963 -29.5652 -74.2659 -33.478C-62.216 -37.3908 -59.9384 -36.4759 -47.9664 -33.4975C-32.5099 -29.6431 -29.1227 -39.0357 -15.097 -43.2405C12.536 -51.5333 25.5786 -20.8733 43.7897 -4.72573C60.8814 10.4193 81.6621 6.37028 103.241 6.10748C111.972 6.00041 120.819 5.44559 129.54 5.84466C140.325 6.34106 151.645 11.1396 162.41 10.4777C171.073 9.9424 179.823 5.52346 188.7 4.75453C202.579 3.5476 214.795 6.60388 228.129 9.97161" stroke="#191919" stroke-width="0.2" stroke-linecap="round" stroke-linejoin="round"/>
<path d="M-261.809 7.17815C-240.132 14.9648 -217.493 23.8513 -194.259 14.1569C-185.042 10.3123 -176.973 3.10962 -168.67 -2.28265C-158.042 -9.18359 -148.503 -11.2763 -136.657 -14.7024C-126.525 -17.6321 -115.254 -26.2267 -104.683 -27.6477C-95.8942 -28.8255 -88.2243 -26.6549 -79.0847 -28.9812C-74.8215 -30.3147 -70.5486 -31.6481 -66.2854 -32.9816C-59.6181 -30.558 -53.2135 -27.5796 -47.0815 -24.0464C-42.8183 -19.4717 -38.5551 -19.462 -34.2822 -24.0172C-27.0114 -27.3557 -20.6069 -31.9985 -15.0783 -37.9553C10.5106 -52.02 26.6485 -22.0803 42.3581 -6.39012C53.055 4.29708 58.6224 10.0397 74.517 10.3999C83.0239 10.5945 91.599 10.1858 100.116 10.0398C120.672 9.67962 144.032 13.9428 164.093 11.7917C186.46 9.39734 205.314 7.17814 228.031 11.2759" stroke="#191919" stroke-width="0.2" stroke-linecap="round" stroke-linejoin="round"/>
<path d="M-260.912 10.3024C-240.891 18.1182 -215.759 26.4305 -194.18 19.2863C-184.963 16.23 -176.602 9.31932 -168.611 4.04385C-158.177 -2.83762 -147.986 -6.28324 -136.637 -10.9066C-126.651 -14.9751 -115.866 -24.3678 -104.663 -25.2535C-95.6012 -25.9738 -88.5056 -24.0952 -79.0837 -26.0322C-74.8205 -26.9082 -70.5573 -27.7842 -66.2844 -28.6602C-60.931 -22.2167 -54.5265 -17.243 -47.0902 -13.739C-42.4572 -8.63871 -38.194 -9.04751 -34.2909 -14.9556C-27.3121 -19.7834 -20.9173 -25.3119 -15.0968 -31.5412C10.4727 -48.5843 26.4354 -23.5404 42.437 -5.99122C52.5791 5.13398 58.312 13.3002 74.4694 14.3806C82.7914 14.9354 91.7168 14.3028 100.049 13.9134C121.228 12.9401 143.021 15.5876 163.977 13.7869C185.624 11.9181 206.064 10.4581 227.857 12.7844" stroke="#191919" stroke-width="0.2" stroke-linecap="round" stroke-linejoin="round"/>
<path d="M-260.055 13.3685C-241.016 20.7853 -214.707 28.9126 -194.072 24.0557C-175.083 19.5881 -153.397 1.9026 -136.578 -7.46086C-125.832 -13.4469 -117.783 -22.2166 -104.623 -22.2458C-95.5614 -22.2653 -88.2127 -21.8759 -79.0439 -22.5573C-61.2416 -23.881 -62.2539 -5.87433 -47.0699 -3.50913C-41.9015 1.26993 -37.6383 0.296612 -34.2803 -6.44859C-27.6811 -12.4054 -21.2863 -18.5763 -15.0959 -24.9614C10.4931 -43.9414 25.7062 -24.6597 42.4962 -5.13461C59.5977 14.7506 73.711 20.4349 99.991 17.7874C141.212 13.641 185.917 12.619 227.683 14.5657" stroke="#191919" stroke-width="0.2" stroke-linecap="round" stroke-linejoin="round"/>
<path d="M-259.238 16.3468C-240.414 23.0628 -214.27 31.3556 -193.947 28.4356C-174.471 25.6324 -151.675 6.73026 -136.511 -4.21974C-124.753 -12.7072 -120.324 -20.1337 -104.576 -18.6251C-95.9519 -17.7977 -87.1822 -19.3356 -79.0159 -18.5083C-62.3914 -16.8244 -62.2064 5.13401 -47.0614 5.67907C-32.7826 6.19494 -26.6019 -9.17399 -15.0971 -18.2552C-8.80934 -23.2192 2.02385 -30.2856 10.4724 -30.2467C26.2988 -30.1688 33.8713 -13.846 42.5145 -3.58705C58.5064 15.4124 74.0116 25.9633 99.9314 21.3497C122.328 17.3591 140.909 20.4543 163.753 19.2863C184.981 18.1962 206.21 16.7264 227.467 16.668" stroke="#191919" stroke-width="0.2" stroke-linecap="round" stroke-linejoin="round"/>
<path d="M-258.469 19.2474C-238.914 25.1652 -215.954 32.9032 -195.436 32.3776C-172.183 31.7742 -149.027 10.8183 -133.337 -4.20023C-125.015 -12.1524 -120.518 -17.3597 -108.449 -15.8413C-99.3677 -14.6928 -86.218 -13.9239 -77.3412 -11.1596C-65.6612 -7.52905 -59.062 16.4052 -46.2237 16.3858C-36.4028 16.376 -21.832 -5.46557 -15.0965 -10.9357C-6.57008 -17.8658 3.92243 -27.9301 16.0307 -26.1976C28.4407 -24.4261 34.3391 -11.5684 41.0648 -2.90571C57.7088 18.5174 75.6766 31.0539 103.125 22.4399C123.526 16.0354 143.644 23.7734 165.243 22.6346C185.907 21.5444 206.551 19.9969 227.225 19.043" stroke="#191919" stroke-width="0.2" stroke-linecap="round" stroke-linejoin="round"/>
<path d="M-257.768 22.0701C-237.659 27.1606 -216.041 34.957 -195.27 35.8428C-168.571 36.9718 -149.621 16.1328 -133.259 -1.47484C-124.255 -11.1595 -121.287 -14.4007 -108.38 -11.3444C-96.934 -8.63856 -87.0449 -8.92084 -77.3018 -3.78164C-66.1474 2.0973 -61.31 22.7806 -46.2038 21.1065C-35.429 19.9093 -22.5518 1.66904 -15.0961 -4.77443C-6.44316 -12.2594 3.15389 -23.8421 16.0116 -22.1971C28.3048 -20.6301 34.0086 -8.14218 40.9971 0.131153C58.1959 20.4738 77.2635 34.704 103.037 23.715C122.193 15.5488 144.005 27.404 165.078 26.1192C185.712 24.8636 206.337 23.3452 226.943 21.7002" stroke="#191919" stroke-width="0.2" stroke-linecap="round" stroke-linejoin="round"/>
<path d="M-257.125 24.8536C-236.636 29.2142 -215.904 37.3805 -195.075 39.3077C-165.164 42.0719 -150.964 21.6027 -133.171 2.0874C-123.944 -8.02554 -121.063 -9.91381 -108.312 -6.34167C-94.5783 -2.49701 -87.8915 -2.92527 -77.2627 4.76406C-65.865 13.0082 -62.9158 29.1266 -46.1939 24.4157C-34.1149 21.009 -23.856 8.745 -15.1154 0.695537C-6.27756 -7.44153 1.9082 -20.4647 15.9631 -17.9341C27.1467 -15.9193 33.7264 -3.6066 40.8902 3.5766C49.3776 12.0835 60.863 21.5638 71.8811 27.0144C86.8607 34.441 89.7418 30.8786 102.911 24.4351C121.034 15.5778 144.365 30.7618 164.864 29.5354C185.469 28.2993 206.055 26.4889 226.602 24.5033" stroke="#191919" stroke-width="0.2" stroke-linecap="round" stroke-linejoin="round"/>
<path d="M-256.551 27.6181C-235.984 31.8035 -215.554 40.2715 -194.851 42.7632C-162.128 46.6955 -152.959 27.4137 -133.054 6.70118C-116.177 -10.8578 -92.8945 1.17266 -77.1849 14.3516C-65.0864 24.5035 -62.7309 33.8182 -46.1453 27.1996C-33.4628 22.1382 -24.6249 14.4976 -15.096 5.24118C-5.80065 -3.79136 0.204801 -17.4375 15.9436 -12.7168C25.5017 -9.85521 33.2982 1.32839 40.8123 7.20733C49.6696 14.1375 61.5832 23.2673 71.8129 28.4844C87.688 36.5825 89.1383 31.4628 102.804 24.9804C120.781 16.454 144.453 33.9448 164.659 32.9909C185.206 32.0176 205.802 29.6037 226.252 27.4818" stroke="#191919" stroke-width="0.2" stroke-linecap="round" stroke-linejoin="round"/>
<path d="M-256.064 30.4407C-235.255 34.2269 -215.36 43.5709 -194.618 46.1697C-184.125 47.4837 -173.594 47.9315 -163.773 43.5028C-148.462 36.6019 -144.822 23.9096 -132.938 12.4827C-112.546 -7.12999 -93.8585 10.4484 -77.1269 24.2795C-64.3373 34.8499 -61.5827 36.6408 -46.1165 29.9248C-32.8889 24.1821 -25.1703 18.2156 -15.0963 8.10267C-5.18779 -1.83506 -0.798079 -14.4202 15.9043 -6.81851C24.5378 -2.88624 32.1979 5.82508 40.7438 10.5749C51.0903 16.3273 61.213 24.4449 71.7347 29.7009C87.8434 37.7504 88.7681 31.1999 102.687 25.6519C121.365 18.2059 144.345 36.9328 164.435 36.4169C184.875 35.8913 205.568 32.6599 225.872 30.4504" stroke="#191919" stroke-width="0.2" stroke-linecap="round" stroke-linejoin="round"/>
<path d="M-255.637 33.3412C-234.983 36.6603 -216.285 46.6856 -195.903 49.4207C-186.073 50.7444 -175.473 52.1752 -165.895 49.4207C-150.896 45.0894 -145.835 33.4288 -135.868 23.092C-127.342 14.2444 -118.64 8.18055 -105.704 10.974C-88.4862 14.6922 -89.5569 27.5986 -75.5214 36.8939C-63.8317 44.6416 -56.5025 37.5655 -45.3189 32.6696C-28.0325 25.0971 -29.1713 26.0899 -15.0969 8.93001C-8.52686 0.909747 -2.55059 -7.56797 9.05154 -4.53117C15.3003 -0.705973 21.335 3.42096 27.175 7.84963C32.0806 12.726 38.1347 15.0426 45.3179 14.7798C54.3407 17.8847 61.4947 24.4352 69.4566 29.3408C85.0591 38.9573 85.2246 33.8668 99.6007 29.3019C120.995 22.4983 137.862 37.2832 159.704 39.3077C180.563 41.2349 204.75 35.8329 225.433 33.3704" stroke="#191919" stroke-width="0.2" stroke-linecap="round" stroke-linejoin="round"/>
<path d="M-255.18 36.2222C-234.234 39.3369 -216.217 50.1896 -195.621 52.7981C-185.946 54.0245 -175.23 56.1464 -165.682 53.9661C-151.237 50.6568 -145.67 40.0961 -135.674 30.6256C-127.877 23.238 -117.18 14.8284 -105.608 16.9794C-89.4405 19.987 -90.19 40.6704 -75.4537 45.7512C-65.0293 49.3525 -53.7873 40.2226 -45.2901 35.9108C-41.134 34.1685 -37.1044 32.1537 -33.2208 29.8761C-24.1882 26.1872 -18.1536 19.1792 -15.107 8.87158C-7.7389 0.880509 -1.75289 -3.66497 9.02191 0.676096C14.7743 5.1729 20.7992 9.26089 27.0967 12.9304C32.2164 17.3493 38.2706 18.8677 45.2494 17.505C54.4279 19.5685 61.4651 25.6908 69.3588 30.2557C84.1146 38.7821 85.3604 34.5286 99.4543 31.1122C121.286 25.827 137.93 38.8989 159.441 41.8481C180.056 44.6708 204.496 38.8502 224.985 36.2222" stroke="#191919" stroke-width="0.2" stroke-linecap="round" stroke-linejoin="round"/>
<path d="M-254.693 39.1033C-233.523 42.1693 -216.188 53.7034 -195.32 56.1756C-185.713 57.3144 -175.007 59.7867 -165.448 58.1709C-151.812 55.8739 -145.417 47.2696 -135.46 38.7043C-127.547 31.9007 -116.723 22.1479 -105.501 24.3768C-91.1442 27.2287 -90.0346 50.3454 -75.3762 52.7106C-66.986 54.0635 -51.6171 43.4347 -45.2515 39.6095C-31.0603 31.0928 -27.9359 18.8093 -15.1074 8.56014C-7.27204 2.3016 0.0766345 1.59107 9.02157 5.76667C25.0134 13.2516 27.6414 17.8068 45.1712 20.8241C54.6903 22.4691 60.9976 26.9951 69.2514 31.5016C82.8197 38.8989 85.7592 35.9692 99.2982 33.7306C121.529 30.0611 137.803 39.9988 159.158 43.9116C180.007 47.7368 203.698 41.9747 224.498 39.1033" stroke="#191919" stroke-width="0.2" stroke-linecap="round" stroke-linejoin="round"/>
<path d="M-254.166 41.965C-232.908 45.1186 -216.109 57.1003 -194.997 59.5336C-185.371 60.6432 -174.82 63.2031 -165.203 62.2006C-152.19 60.8379 -145.24 54.4626 -135.244 46.7148C-126.63 40.0378 -116.712 29.662 -105.373 32.5723C-91.8043 36.0568 -91.23 56.8861 -75.2868 57.402C-67.4612 57.6551 -50.9729 46.7927 -45.2011 42.7631C-34.2803 35.1419 -26.2016 14.5072 -15.0959 8.77428C-7.52333 4.87121 1.84011 7.04176 9.04277 10.4582C23.4189 17.2812 28.9767 22.3133 45.0951 24.6201C55.1399 26.0607 60.2109 28.679 69.1364 33.3607C81.7118 39.9599 86.2184 38.13 99.1248 36.7284C121.044 34.334 137.863 40.466 158.849 45.469C180.359 50.5984 202.318 45.1672 223.974 41.965" stroke="#191919" stroke-width="0.2" stroke-linecap="round" stroke-linejoin="round"/>
<path d="M-253.602 44.8168C-232.393 48.1651 -215.992 60.3026 -194.637 62.8722C-170.888 65.7338 -155.49 68.7316 -135.03 54.4723C-125.423 47.7758 -116.907 37.4974 -105.227 41.235C-91.5416 45.615 -92.5636 63.5535 -75.1896 61.091C-66.2933 59.8354 -51.8101 50.5011 -45.1525 45.1478C-35.0298 37.0107 -27.6033 14.8382 -15.0862 10.5263C3.42655 4.14124 26.5822 25.5837 44.9976 28.1436C55.4512 29.5939 59.5295 31.1804 69.0195 36.086C80.7871 42.1694 86.6758 41.05 98.9592 40.1059C120.246 38.4804 138.146 40.4563 158.537 46.598C181.04 53.3822 200.332 48.4668 223.429 44.8168" stroke="#191919" stroke-width="0.2" stroke-linecap="round" stroke-linejoin="round"/>
<path d="M-253.008 47.6589C-232.383 51.1337 -216.741 63.3101 -195.708 66.0257C-175.9 68.5758 -155.84 74.0557 -137.736 63.6799C-127.204 57.6452 -116.342 43.4541 -102.891 49.7029C-94.0138 53.8298 -91.7654 66.2203 -79.4917 65.5974C-72.6783 65.2567 -49.367 52.6326 -44.3836 48.3207C-32.6452 38.1688 -32.5575 18.2837 -15.0959 14.9062C4.50699 11.1102 24.8205 26.1384 43.3819 30.7131C64.951 36.0275 78.7918 45.4104 101.792 43.5319C122.572 41.8286 140.024 41.2057 159.744 48.0871C182.432 56.0101 199.057 51.6495 222.816 47.6491" stroke="#191919" stroke-width="0.2" stroke-linecap="round" stroke-linejoin="round"/>
<path d="M-252.387 50.4915C-231.927 54.4919 -216.607 66.4249 -195.31 69.3352C-176.914 71.8464 -155.063 78.2607 -137.514 70.2404C-125.065 64.5464 -117.337 51.3382 -102.727 58.2879C-93.0618 62.8917 -91.8938 70.8731 -79.3767 68.3911C-68.125 66.1621 -51.2766 57.1004 -44.327 48.3404C-34.9051 36.456 -32.1019 21.4472 -15.0881 18.6634C4.63168 15.432 25.1301 27.6862 43.2633 33.5652C64.8129 40.544 78.1865 49.2261 101.576 47.2113C122.697 45.3912 139.468 40.5537 159.372 48.7394C169.904 53.0708 176.367 57.4313 188.047 56.2536C199.474 55.0953 210.91 52.4965 222.201 50.4817" stroke="#191919" stroke-width="0.2" stroke-linecap="round" stroke-linejoin="round"/>
<path d="M-251.734 53.3043C-240.512 56.273 -233.708 61.5874 -223.41 66.1426C-214.251 70.1916 -204.781 71.1942 -194.882 72.625C-177.323 75.1556 -154.586 82.0663 -137.27 76.1971C-122.68 71.2428 -118.689 58.9594 -102.542 65.5683C-92.5554 69.6563 -90.7061 73.793 -79.25 70.6686C-61.9344 65.9479 -55.0529 62.5899 -44.2781 47.4449C-35.2358 34.7331 -32.092 25.4864 -15.0976 22.9071C4.88498 19.8703 25.1205 28.7374 43.1272 36.4559C52.6756 40.5439 62.4576 48.1359 72.3175 51.0073C81.6323 53.7131 91.9301 51.7567 101.323 50.8904C123.135 48.8756 138.358 39.7458 158.954 49.2455C169.018 53.8883 175.841 59.9911 187.521 59.3876C198.773 58.8134 210.521 55.397 221.529 53.3141" stroke="#191919" stroke-width="0.2" stroke-linecap="round" stroke-linejoin="round"/>
<path d="M-251.043 56.1075C-230.71 63.4562 -216.597 72.5373 -194.444 75.8953C-177.264 78.5039 -154.294 85.5898 -137.036 81.5407C-120.383 77.6279 -120.276 66.2691 -102.366 71.311C-92.6524 74.046 -89.1192 75.0096 -79.1426 72.4011C-58.323 66.9699 -57.5832 64.9356 -44.2388 46.2574C-35.4204 33.9058 -30.6706 29.1559 -15.1167 27.0535C5.29407 24.299 24.9846 29.8761 43.0107 39.6095C52.5397 44.7487 61.2218 53.7715 72.1329 55.9712C81.2336 57.8108 92.0278 55.4554 101.06 54.5307C112.624 53.3432 118.853 51.6301 129.871 46.9971C141.833 41.9649 147.08 44.0187 158.516 49.7127C168.045 54.4626 175.588 62.259 186.976 62.405C197.858 62.551 210.288 58.2099 220.829 56.1172" stroke="#191919" stroke-width="0.2" stroke-linecap="round" stroke-linejoin="round"/>
<path d="M-250.312 58.9009C-230.164 68.4396 -216.528 75.5644 -193.966 79.1657C-177.001 81.8716 -153.875 89.2105 -136.754 86.2516C-119.448 83.2635 -120.587 72.9169 -102.152 75.5157C-93.1192 76.7908 -87.7366 75.3016 -78.9864 73.7248C-48.852 68.3131 -46.8566 35.4923 -15.0968 31.0247C5.54763 28.1242 25.3355 31.5795 42.9431 42.9577C52.6764 49.2552 59.6358 58.9983 71.9582 60.5848C80.9226 61.7431 91.9699 59.2903 100.817 58.1417C112.858 56.5747 118.396 54.2971 129.541 48.5252C141.474 42.3348 146.253 44.155 158.088 50.2772C167.335 55.0563 175.414 63.9525 186.432 64.9259C197.022 65.8603 209.977 61.0131 220.119 58.8912" stroke="#191919" stroke-width="0.2" stroke-linecap="round" stroke-linejoin="round"/>
<path d="M-249.562 61.8989C-230.845 72.4888 -216.08 78.6013 -194.822 82.1832C-176.709 85.2395 -151.373 92.919 -133.59 88.5488C-122.474 85.8234 -117.676 77.4528 -105.519 77.4138C-95.6298 77.3846 -87.0256 77.3652 -77.3312 75.3407C-60.2686 71.7783 -59.2953 64.6632 -49.0656 52.1072C-39.1862 39.9697 -30.105 36.8842 -15.0962 34.519C3.94217 31.5212 25.667 33.2926 41.4642 45.1478C51.4019 52.5938 56.7066 61.4901 69.6908 63.8456C78.665 65.4711 88.7584 63.028 97.8007 62.0741C113.15 60.4487 117.9 55.5431 131.342 48.574C142.691 42.6951 148.356 45.6832 159.091 51.9028C167.822 56.9641 176.232 65.5878 186.637 67.116C196.964 68.6344 209.53 63.8261 219.36 61.6653" stroke="#191919" stroke-width="0.2" stroke-linecap="round" stroke-linejoin="round"/>
<path d="M-248.775 65.1693C-230.642 76.5962 -215.264 81.7062 -194.308 85.4049C-176.32 88.5877 -150.693 96.0629 -133.299 91.5174C-122.262 88.6363 -117.074 81.4823 -105.306 80.1391C-96.4585 79.1269 -85.6545 78.134 -77.1865 76.6546C-60.377 73.7151 -60.5133 61.7821 -48.989 51.5329C-40.9395 44.3691 -25.6192 39.6582 -15.0975 38.1495C4.85582 35.2782 25.8993 36.0374 41.3947 49.6543C50.7971 57.9179 56.3744 65.5781 69.4949 67.6221C78.4009 69.0042 88.5917 66.9213 97.5269 65.6949C112.37 63.6509 117.996 56.9349 130.961 50.2578C141.852 44.6514 148.072 46.8998 158.604 52.6522C167.617 57.5675 175.861 66.2789 186.032 68.7901C196.632 71.3986 208.448 66.785 218.58 64.449" stroke="#191919" stroke-width="0.2" stroke-linecap="round" stroke-linejoin="round"/>
<path d="M-247.957 68.5953C-230.515 80.1585 -214.114 84.8695 -193.762 88.6265C-175.668 91.9651 -149.923 98.8076 -132.987 93.7268C-126.952 90.9625 -121.365 87.4293 -116.246 83.1369C-112.518 82.7962 -108.8 82.4556 -105.072 82.1149C-95.2994 79.9736 -86.5297 78.6498 -77.03 77.0536C-61.5637 74.4548 -60.9894 59.7867 -48.9006 52.1655C-41.7077 47.6297 -23.5161 42.7436 -15.087 41.7313C6.40416 39.152 25.2382 39.5705 41.2885 54.6085C58.5943 70.8243 73.8757 73.8026 97.2357 69.2961C120.888 64.7312 132.675 41.4296 158.088 53.5476C167.647 58.1028 175.316 66.4443 185.39 70.0067C196.418 73.9097 206.911 69.8217 217.773 67.2035" stroke="#191919" stroke-width="0.2" stroke-linecap="round" stroke-linejoin="round"/>
<path d="M-247.109 72.0507C-228.937 84.159 -210.386 88.5779 -189.128 92.5686C-171.686 95.8487 -145.493 102.75 -129.949 93.6295C-120.547 88.1107 -113.325 84.6943 -102.754 81.5602C-97.7319 78.5818 -92.2715 76.8298 -86.3828 76.3042C-82.7328 77.151 -79.0926 78.0075 -75.4426 78.8543C-68.9115 74.7858 -63.4414 69.6466 -59.003 63.4465C-55.6352 56.9543 -50.1456 53.6352 -42.5439 53.5087C-33.2778 50.287 -24.9947 46.5688 -15.0862 45.6052C-6.14125 44.739 3.41692 44.9531 12.3716 44.9531C25.3169 44.9531 29.9208 50.5108 39.839 58.3754C57.6121 72.479 76.524 79.5259 99.7769 72.0604C118.669 65.9966 131.303 46.4326 153.631 52.6035C165.701 55.942 174.247 66.7266 185.498 71.5933C196.234 76.2361 206.123 72.9851 216.947 69.9191" stroke="#191919" stroke-width="0.2" stroke-linecap="round" stroke-linejoin="round"/>
<path d="M-246.225 75.4768C-228.442 86.8843 -209.209 91.9359 -188.555 95.7806C-169.536 99.3235 -146.254 103.947 -129.629 94.0578C-121.073 88.9672 -111.71 84.558 -102.512 81.531C-93.1777 78.465 -83.9991 80.6063 -75.2781 78.426C-69.7106 73.6275 -64.2502 68.7219 -58.8871 63.6995C-54.9451 58.2975 -49.475 55.8933 -42.4767 56.4968C-32.9867 53.6644 -25.2974 49.9074 -15.0969 49.2163C-6.29793 48.6226 3.54249 48.389 12.283 48.7588C25.024 49.2942 29.7544 56.4189 39.6532 63.534C56.2972 75.4963 78.8882 83.0786 99.4158 74.5814C117.296 67.184 131.292 50.4719 153.056 54.4333C165.875 56.7596 173.886 67.3008 184.767 73.0727C195.338 78.6888 204.984 76.1679 216.031 72.6542" stroke="#191919" stroke-width="0.2" stroke-linecap="round" stroke-linejoin="round"/>
<path d="M-245.32 78.7765C-227.684 89.162 -208.158 95.5081 -187.972 98.9732C-178.871 100.54 -170.461 100.005 -161.429 100.472C-144.162 101.368 -145.194 102.828 -129.309 94.8365C-120.841 90.5733 -110.815 84.1493 -102.26 81.1222C-97.8506 76.2459 -92.4291 75.4088 -85.9857 78.611C-82.3649 78.358 -78.7343 78.1049 -75.1135 77.8616C-70.4318 72.6056 -64.9908 68.4494 -58.7712 65.3834C-53.8364 62.0449 -48.3761 59.9133 -42.4095 58.9886C-32.9974 55.7182 -25.2886 53.3725 -15.1075 52.954C-6.71738 52.6036 4.05739 51.4648 12.1945 52.5452C23.7771 54.0928 30.0454 62.9112 39.4673 68.6052C55.9458 78.5624 80.649 86.1544 99.0547 76.6449C116.02 67.8752 131.652 54.959 152.471 56.7013C179.715 58.9789 184.377 86.203 215.105 75.3698" stroke="#191919" stroke-width="0.2" stroke-linecap="round" stroke-linejoin="round"/>
<path d="M-244.375 81.891C-226.738 91.1182 -207.213 99.2261 -187.347 102.146C-165.788 105.319 -148.317 104.667 -128.967 96.2671C-125.366 95.2159 -121.764 94.155 -118.163 93.1038C-113.179 88.4221 -107.787 84.3049 -101.986 80.7522C-92.7686 77.5305 -84.651 81.891 -74.9274 77.6959C-63.666 72.8293 -54.2928 65.8018 -42.3208 61.198C-33.0838 57.6453 -25.0051 56.9639 -15.0966 56.7109C-7.27101 56.5162 4.81777 54.7642 12.1178 56.7011C22.5032 59.4557 29.8616 68.7899 39.303 73.3354C56.5212 81.6379 81.3899 88.4707 98.7055 78.3773C114.269 69.2961 132.655 58.2195 151.898 59.4751C178.421 61.2174 184.622 90.0573 214.182 78.0658" stroke="#191919" stroke-width="0.2" stroke-linecap="round" stroke-linejoin="round"/>
<path d="M-243.402 84.7723C-207.321 102.02 -166.334 115.228 -128.607 98.5644C-118.397 94.0579 -111.759 84.0033 -101.695 80.8595C-92.1172 77.8713 -84.8755 82.3876 -74.7334 78.2801C-53.7483 69.7829 -38.4183 60.5265 -15.0973 60.4292C-6.87261 60.3903 4.2623 58.7453 12.0198 61.5096C21.9088 65.0233 29.1602 73.9683 39.1271 77.6475C57.4744 84.4121 81.068 90.3008 98.3155 79.9348C113.383 70.8828 132.986 62.298 151.275 62.6387C177.263 63.1253 184.076 93.4544 213.208 80.7427" stroke="#191919" stroke-width="0.2" stroke-linecap="round" stroke-linejoin="round"/>
<path d="M-242.398 87.3904C-207.826 103.227 -165.174 119.063 -128.246 101.922C-117.442 96.9096 -112.556 84.9765 -101.401 82.0273C-92.0574 79.5551 -84.2902 82.8644 -74.5374 79.9152C-52.8418 73.3549 -38.3586 64.1667 -15.0959 64.1667C-6.09257 64.1667 3.35849 62.8429 11.9141 66.6097C21.8129 70.9703 28.2174 78.8445 38.9435 81.7451C58.3129 86.9816 80.1642 91.7607 97.9178 81.4725C112.343 73.1116 133.532 65.9284 150.643 65.8213C169.302 65.7143 166.226 71.8171 181.693 82.5529C191.523 89.376 201.432 88.208 212.207 83.4095" stroke="#191919" stroke-width="0.2" stroke-linecap="round" stroke-linejoin="round"/>
<path d="M-241.367 89.746C-224.353 97.63 -204.342 109.583 -185.352 110.42C-176.874 110.789 -167.861 109.875 -159.315 109.592C-149.397 109.261 -137.298 110.137 -127.838 105.154C-116.995 99.4307 -113.218 86.8455 -101.1 84.0423C-92.2915 82.008 -83.5315 84.7334 -74.3237 82.6407C-62.0111 79.8375 -53.8448 72.9268 -42.048 69.2379C-33.5313 66.571 -23.8077 67.8558 -15.0867 67.9044C-5.32415 67.9531 2.63772 66.9214 11.8357 71.6712C21.6664 76.752 27.5161 83.1274 38.7679 85.366C58.984 89.3859 79.0249 92.8899 97.5183 83.1176C111.242 75.8663 134.164 68.9459 149.991 69.014C168.387 69.0919 165.564 75.876 180.865 86.0279C190.764 92.5979 200.594 90.6707 211.174 86.0863" stroke="#191919" stroke-width="0.2" stroke-linecap="round" stroke-linejoin="round"/>
<path d="M-240.297 92.0624C-223.41 100.024 -203.427 112.425 -184.642 112.678C-176.076 112.794 -167.17 112.454 -158.732 112.298C-149.631 112.133 -135.79 112.366 -127.41 107.626C-116.713 101.572 -113.608 89.6096 -100.799 86.8648C-92.2237 85.0252 -83.0354 88.0912 -74.1197 86.3684C-62.0114 84.0227 -53.6894 75.9635 -41.9607 72.8294C-33.4927 70.5615 -23.7205 71.5056 -15.0967 71.5835C6.31661 71.7782 18.5611 85.434 38.5436 88.539C59.4508 91.7802 77.769 93.61 97.0799 84.9182C110.103 79.049 134.884 71.4375 149.299 72.1383C166.654 72.9754 165.525 81.8522 179.998 89.8335C190.384 95.5664 199.387 93.0844 210.103 88.7044" stroke="#191919" stroke-width="0.2" stroke-linecap="round" stroke-linejoin="round"/>
<path d="M-239.207 94.3789C-222.086 102.584 -202.97 114.634 -183.912 114.576C-175.113 114.546 -166.684 114.799 -158.128 114.936C-148.2 115.091 -135.79 115.267 -126.933 109.797C-116.762 103.509 -113.443 93.5029 -100.468 90.7386C-91.7568 88.8796 -82.588 92.5101 -73.8961 90.5148C-62.2453 87.8381 -53.7286 79.409 -41.8637 76.9465C-33.4054 75.1945 -23.6624 75.3113 -15.097 75.2626C5.70311 75.1264 18.5705 88.8893 38.3292 91.6536C59.3727 94.6028 76.9121 94.2232 96.6416 87.0594C109.178 82.5042 135.4 73.9292 148.598 75.3794C163.519 77.0146 166.634 87.9354 179.112 93.9701C189.498 98.9925 198.764 95.4106 209.013 91.3324" stroke="#191919" stroke-width="0.2" stroke-linecap="round" stroke-linejoin="round"/>
<path d="M-238.039 96.783C-220.344 105.397 -202.873 116.289 -183.124 116.308C-165.652 116.328 -141.796 122.868 -126.417 112.035C-117.005 105.397 -112.508 97.8245 -100.127 95.2062C-91.4453 93.3666 -82.2084 96.3645 -73.6625 94.009C-61.7781 90.7386 -54.1472 84.2952 -41.7567 81.8813C-33.4444 80.2558 -23.5456 79.6231 -15.0971 79.1949C5.06068 78.1729 18.8625 91.5368 38.0859 94.5638C58.6719 97.8148 76.5617 95.5761 96.1647 89.6874C108.954 85.8427 134.709 77.3066 147.849 79.3019C160.736 81.2583 166.79 93.9603 178.168 98.4377C188.466 102.487 198.16 97.7855 207.845 94.0285" stroke="#191919" stroke-width="0.2" stroke-linecap="round" stroke-linejoin="round"/>
<path d="M-236.842 99.1776C-218.543 108.327 -202.746 117.612 -182.316 118.002C-163.258 118.362 -142.798 126.47 -125.862 114.556C-117.132 108.405 -110.805 102.146 -99.7575 99.674C-91.0657 97.7273 -82.0234 99.674 -73.3997 96.9389C-59.6367 92.5589 -55.7726 89.6876 -41.6301 87.9258C-32.5683 86.7968 -24.149 84.6165 -15.0775 83.4777C4.41834 81.0249 19.3688 93.542 37.8621 97.2406C58.0101 101.26 76.1822 97.3866 95.6878 92.8119C108.818 89.7362 133.92 80.3728 147.09 83.5264C159.237 86.4269 165.271 99.6253 177.214 103.003C187.278 105.855 197.576 100.219 206.667 96.7248" stroke="#191919" stroke-width="0.2" stroke-linecap="round" stroke-linejoin="round"/>
<path d="M-235.615 101.582C-216.849 111.072 -202.337 118.849 -181.469 119.832C-160.6 120.815 -144.531 129.507 -125.288 117.574C-117.015 112.444 -108.877 106.585 -99.3778 103.966C-90.647 101.562 -81.8772 102.419 -73.1464 99.4014C-56.9404 93.795 -58.1376 93.1818 -41.5228 95.0311C-31.079 96.1991 -24.8107 90.0964 -15.0968 87.9161C3.74692 83.6821 19.768 95.2453 37.58 99.6545C57.2024 104.511 75.7833 100.268 95.1429 96.2381C108.672 93.4252 132.801 83.575 146.253 87.6922C158.302 91.3812 163.364 105.086 176.183 107.441C185.643 109.183 197.129 102.633 205.422 99.3722" stroke="#191919" stroke-width="0.2" stroke-linecap="round" stroke-linejoin="round"/>
<path d="M-234.35 103.986C-215.447 113.671 -201.548 120.104 -180.602 121.963C-158.809 123.9 -145.465 132.543 -124.723 121.379C-106.96 111.821 -91.367 108.327 -72.8736 101.64C-55.4412 95.3329 -58.1471 100.336 -41.396 103.178C-30.6309 105.008 -24.3724 96.0824 -15.0868 92.8801C3.48437 86.4659 19.593 96.8903 37.3564 101.932C56.8522 107.461 75.1314 103.46 94.6273 99.6935C108.546 96.9973 131.692 86.8747 145.435 91.7219C157.349 95.9169 161.982 109.816 175.161 111.685C183.648 112.882 196.847 105.008 204.176 102.039" stroke="#191919" stroke-width="0.2" stroke-linecap="round" stroke-linejoin="round"/>
<path d="M-233.064 106.39C-214.299 116.133 -200.399 121.554 -179.726 124.416C-158.741 127.326 -144.666 136.369 -124.178 125.954C-106.93 117.184 -91.571 108.745 -72.6105 103.762C-54.2047 98.9244 -58.0494 109.135 -41.2886 112.064C-30.7863 113.904 -23.3793 102.117 -15.1059 98.175C3.20246 89.4636 19.0873 98.4183 37.1134 104.064C56.8429 110.244 74.1487 106.896 94.0729 103.1C108.196 100.414 130.641 90.1839 144.579 95.4107C156.142 99.7518 161.058 113.943 174.091 115.461C181.819 116.357 196.205 107.451 202.872 104.648" stroke="#191919" stroke-width="0.2" stroke-linecap="round" stroke-linejoin="round"/>
<path d="M-231.742 108.794C-213.259 118.518 -198.999 123.18 -178.822 127.034C-159.725 130.674 -142.838 140.651 -123.624 131.103C-107 122.849 -91.3583 109.689 -72.3297 106.098C-54.4398 102.711 -56.7758 120.26 -41.1635 121.311C-31.0798 121.992 -22.6604 108.2 -15.1074 103.713C2.84089 93.0551 18.4142 99.8295 36.9076 106.137C57.1334 113.038 72.8625 110.497 93.5166 106.507C107.679 103.772 129.695 93.4736 143.702 98.7199C155.012 102.954 160.248 117.028 172.999 118.42C180.611 119.248 195.026 110.098 201.537 107.266" stroke="#191919" stroke-width="0.2" stroke-linecap="round" stroke-linejoin="round"/>
<path d="M-230.389 111.198C-212.372 120.815 -197.432 125.136 -177.897 129.847C-160.192 134.12 -141.017 144.846 -123.069 135.346C-108.041 127.394 -90.1508 110.877 -72.0371 109.164C-55.5975 107.606 -55.9965 130.519 -41.0267 130.373C-31.8481 130.275 -21.8423 114.021 -15.0971 109.388C2.46187 97.3183 17.6848 101.348 36.7037 108.385C57.3773 116.036 71.5685 114.176 92.9527 109.913C107.008 107.11 128.839 96.7343 142.826 101.64C154.136 105.611 159.363 118.907 171.909 120.396C180.202 121.379 193.216 113.018 200.204 109.884" stroke="#191919" stroke-width="0.2" stroke-linecap="round" stroke-linejoin="round"/>
<path d="M-229.016 113.592C-211.525 123.063 -195.854 127.443 -176.952 132.845C-160.074 137.673 -139.119 149.109 -122.504 138.5C-113.354 132.66 -107.845 127.647 -97.275 123.715C-91.4642 121.554 -78.0224 112.765 -71.7542 112.999C-56.356 113.573 -57.0374 140.116 -40.9092 138.597C-32.412 137.799 -21.4523 119.9 -15.1159 115.111C2.14129 102.088 16.936 103.032 36.4513 110.848C57.4169 119.257 70.3233 117.778 92.3401 113.232C106.23 110.371 127.954 99.8587 141.883 104.122C153.105 107.558 158.712 120.016 170.742 121.798C179.989 123.17 190.987 116.036 198.794 112.415" stroke="#191919" stroke-width="0.2" stroke-linecap="round" stroke-linejoin="round"/>
<path d="M-227.605 115.997C-210.562 125.351 -194.317 129.964 -175.96 135.863C-158.489 141.469 -137.913 152.906 -121.892 140.71C-112.772 133.77 -107.934 131.375 -96.7992 127.91C-90.7256 126.022 -77.9555 117.408 -71.4341 118.235C-56.3377 120.153 -59.1604 149.392 -40.7547 145.177C-31.8487 143.133 -22.0375 126.373 -15.1073 120.912C2.14988 107.334 16.1756 105.134 36.1874 113.817C57.1335 122.907 69.4072 121.272 91.7258 116.571C105.761 113.612 126.717 103.217 140.937 106.351C152.092 108.804 158.331 120.717 169.583 122.937C179.696 124.932 188.65 119.228 197.401 114.994" stroke="#191919" stroke-width="0.2" stroke-linecap="round" stroke-linejoin="round"/>
<path d="M-226.164 118.391C-209.608 127.774 -192.847 132.689 -174.957 138.86C-167.005 141.605 -158.985 144.428 -150.828 146.52C-135.956 150.326 -133.902 152.273 -121.278 142.257C-112.235 135.084 -107.398 135.084 -96.3214 132.485C-89.8877 130.976 -78.159 123.024 -71.1121 125.701C-56.5023 131.258 -59.9285 156.662 -40.5981 150.384C-31.3319 147.377 -22.6109 132.67 -15.087 126.791C2.51085 113.038 15.427 107.879 35.9254 117.496C56.3946 127.093 69.1453 124.64 91.1231 119.909C105.061 116.912 125.852 106.292 139.994 108.434C151.402 110.157 157.777 121.223 168.406 123.949C178.85 126.616 186.675 122.489 195.971 117.554" stroke="#191919" stroke-width="0.2" stroke-linecap="round" stroke-linejoin="round"/>
<path d="M-224.686 120.785C-208.684 130.305 -191.388 135.609 -173.926 141.839C-166.101 144.632 -158.1 147.786 -149.982 149.664C-133.796 153.402 -134.438 153.178 -120.646 143.367C-111.72 137.011 -106.124 139.055 -95.8357 137.4C-86.735 135.93 -80.0871 129.798 -70.8015 134.626C-56.2891 142.17 -59.9683 162.473 -40.4433 154.726C-31.1285 151.027 -23.0888 138.773 -15.088 132.874C-7.84636 127.54 1.93565 119.987 10.2576 116.97C21.2563 112.979 25.6363 116.824 35.613 121.807C55.1867 131.589 69.4363 127.969 90.4895 123.219C104.457 120.065 124.887 109.407 139.01 110.507C163.46 112.415 168.074 135.843 194.51 120.085" stroke="#191919" stroke-width="0.2" stroke-linecap="round" stroke-linejoin="round"/>
<path d="M-223.186 123.17C-207.797 132.894 -189.888 138.549 -172.884 144.788C-165.262 147.581 -157.155 151.28 -149.125 152.769C-131.206 156.098 -136.033 152.039 -120.012 144.36C-111.505 140.281 -104.196 143.493 -95.3577 142.637C-84.0184 141.527 -80.3684 136.252 -70.4988 144.35C-58.4392 154.229 -57.3296 165.423 -40.306 158.23C-31.254 154.395 -23.3213 144.642 -15.0966 139.289C-6.90115 133.955 1.72258 127.443 10.0835 122.654C21.3644 116.191 24.5862 121.292 35.2831 126.625C54.3215 136.125 69.7196 131.473 89.8287 126.479C103.923 122.975 123.779 112.687 137.999 112.736C160.824 112.814 168.776 138.977 193.002 122.567" stroke="#191919" stroke-width="0.2" stroke-linecap="round" stroke-linejoin="round"/>
<path d="M-221.658 125.545C-206.873 135.473 -188.39 141.459 -171.824 147.718C-164.572 150.463 -156.056 154.95 -148.249 155.865C-131.041 157.889 -135.08 150.433 -119.351 145.664C-111.915 143.416 -102.328 148.165 -94.8621 148.136C-82.0822 148.088 -80.1063 145.245 -70.1783 154.307C-58.4691 164.994 -55.3253 167.837 -40.1607 160.994C-31.5175 157.101 -23.4292 150.667 -15.0877 146.17C-5.52956 141.021 0.884726 134.977 9.90753 128.845C21.0133 121.301 23.8651 126.927 34.9514 131.813C54.4959 140.427 69.4268 135.463 89.1563 129.721C103.289 125.604 122.551 116.376 136.966 115.403C158.107 113.982 169.417 141.488 191.463 125.02" stroke="#191919" stroke-width="0.2" stroke-linecap="round" stroke-linejoin="round"/>
<path d="M-220.1 127.92C-205.48 137.838 -187.094 144.262 -170.713 150.628C-163.997 153.237 -154.701 158.677 -147.333 158.94C-133.278 159.437 -131.692 149.314 -118.649 147.708C-112.137 146.9 -100.954 152.886 -94.3352 153.694C-81.4288 155.281 -79.7644 155.923 -69.817 163.943C-57.7282 173.686 -52.9783 169.17 -39.994 163.145C-31.8472 159.369 -23.3111 156.974 -15.0767 153.616C-3.57188 148.915 -0.457215 143.085 9.68492 135.347C20.2651 127.278 23.4576 133.264 34.612 137.177C55.782 144.603 68.2601 140.116 88.4568 132.952C102.142 128.105 121.647 120.007 135.897 118.352C155.899 116.036 169.467 143.279 189.917 127.492" stroke="#191919" stroke-width="0.2" stroke-linecap="round" stroke-linejoin="round"/>
<path d="M-218.514 130.285C-203.787 140.067 -185.956 146.988 -169.604 153.519C-163.481 155.962 -153.242 162.288 -146.419 161.987C-135.235 161.5 -129.123 149.392 -117.959 150.881C-110.902 151.815 -100.682 157.48 -93.8102 159.271C-83.1522 162.055 -78.7138 168.576 -69.4574 172.82C-56.6289 178.689 -51.295 169.997 -39.8486 165.403C-31.6239 162.103 -23.3798 163.632 -15.0773 161.451C-1.94702 157.996 -1.43114 151.115 9.05166 142.189C18.9407 133.77 23.0579 139.386 34.1637 142.549C40.9673 144.486 51.5377 148.379 58.7501 148.117C71.929 147.649 76.1533 141.508 87.7554 136.252C100.088 130.665 121.481 123.092 134.816 121.282C154.244 118.644 168.854 144.837 188.32 129.935" stroke="#191919" stroke-width="0.2" stroke-linecap="round" stroke-linejoin="round"/>
<path d="M-216.908 132.689C-201.87 142.179 -184.886 149.654 -168.475 156.4C-162.499 158.852 -152.298 165.14 -145.504 164.459C-133.104 163.232 -130.739 151.26 -117.258 154.91C-110.075 156.857 -100.225 162.58 -93.2754 165.267C-85.4303 168.294 -77.0402 178.368 -69.0589 180.519C-57.8071 183.556 -49.0277 171.331 -39.7031 168.255C-30.6998 165.286 -23.8281 170.678 -15.0681 169.462C-2.30765 167.681 -0.46805 159.252 8.44768 150.277C17.4608 141.216 21.9089 144.398 33.5305 147.377C40.4022 149.139 51.3717 154.881 58.2531 154.833C72.0939 154.735 75.705 146.404 87.0444 140.077C98.0625 133.935 121.267 125.779 133.725 124.212C153.056 121.768 167.627 146.17 186.704 132.475" stroke="#191919" stroke-width="0.2" stroke-linecap="round" stroke-linejoin="round"/>
<path d="M-215.264 135.025C-199.973 144.272 -183.776 152.292 -167.317 159.242C-160.845 161.977 -152.007 167.213 -144.561 166.211C-130.214 164.293 -132.16 153.334 -116.538 159.495C-108.995 162.473 -100.079 167.681 -92.7113 171.37C-85.3918 175.039 -77.3034 185.648 -68.6115 186.661C-58.1287 187.877 -48.6582 174.105 -39.5478 171.72C-29.6101 169.121 -24.3346 177.94 -15.0588 177.356C-3.86543 176.645 0.787121 167.447 7.98005 159.154C16.0198 149.878 20.2927 148.603 32.839 151.533C40.5575 153.334 50.1449 161.938 57.7563 162.084C71.4998 162.347 75.9966 151.27 86.3334 144.398C96.6507 137.536 120.274 128.65 132.635 127.453C151.683 125.603 166.507 147.464 185.088 134.899" stroke="#191919" stroke-width="0.2" stroke-linecap="round" stroke-linejoin="round"/>
<path d="M-213.588 137.322C-198.268 146.53 -182.539 154.949 -166.138 162.074C-158.633 165.335 -151.976 168.819 -143.595 167.603C-128.217 165.374 -132.13 156.731 -115.817 164.43C-102.978 170.484 -81.672 192.102 -68.1914 191.313C-56.9202 190.651 -49.9511 177.862 -39.4196 175.886C-29.2678 173.988 -24.5082 185.133 -15.0766 184.879C6.3465 184.286 7.60209 151.377 31.877 155.971C41.5325 157.801 47.8786 168.508 57.2226 169.725C69.3211 171.311 77.8476 155.417 85.5758 149.197C95.6693 141.079 118.338 131.95 131.478 131.161C149.942 130.052 165.457 148.905 183.386 137.274" stroke="#191919" stroke-width="0.2" stroke-linecap="round" stroke-linejoin="round"/>
<path d="M-211.895 139.6C-196.769 148.983 -181.273 157.743 -164.941 164.877C-145.474 173.384 -133.677 160.137 -115.077 169.472C-100.818 176.626 -83.2199 197.718 -67.7731 195.586C-57.2805 194.146 -49.7372 181.755 -39.2544 181.044C-29.3264 180.373 -24.5181 191.372 -15.0768 191.634C-6.29733 191.878 1.3336 183.672 7.25147 177.161C9.84054 173.764 12.4296 170.357 15.0089 166.96C19.0191 157.538 24.2653 155.378 30.7477 160.497C41.0943 162.006 46.4768 176.246 56.6968 177.414C68.0556 178.718 78.3145 160.458 84.8261 154.326C95.2408 144.525 115.691 135.376 130.329 135.171C148.171 134.928 164.396 150.492 181.702 139.551" stroke="#191919" stroke-width="0.2" stroke-linecap="round" stroke-linejoin="round"/>
<path d="M-210.172 141.868C-195.484 151.523 -179.94 160.848 -163.705 167.652C-154.517 171.506 -150.623 171 -141.571 170.27C-126.65 169.073 -128.957 167.175 -114.299 174.436C-98.404 182.31 -85.3224 203.13 -67.3449 199.703C-57.1736 197.767 -49.8639 187.157 -39.0696 187.021C-29.8132 186.904 -24.2749 196.998 -15.1061 197.27C-6.88147 197.513 1.05119 191.206 6.96906 185.464C9.53866 182.339 12.0985 179.215 14.6681 176.09C17.3837 163.359 22.4548 160.069 29.8911 166.221C39.9748 167.583 45.9413 185.376 56.1321 184.841C67.7732 184.237 77.2729 166.873 84.0279 159.748C95.1433 148.029 112.537 138.851 129.132 139.425C146.545 140.028 163.111 152.351 179.979 141.81" stroke="#191919" stroke-width="0.2" stroke-linecap="round" stroke-linejoin="round"/>
<path d="M-208.42 144.146C-194.307 153.947 -178.529 164.177 -162.459 170.426C-153.368 173.959 -149.124 172.07 -140.53 172.012C-127.643 171.924 -125.463 172.82 -113.539 179.224C-97.3529 187.907 -86.8117 208.055 -66.9557 203.811C-56.395 201.553 -50.3506 193.046 -38.8847 193.474C-30.3097 193.786 -23.9927 201.971 -15.1354 202.185C-7.39739 202.37 0.827263 198.039 6.75486 193.085C9.305 190.243 11.8551 187.391 14.4053 184.549C16.5369 172.178 21.4814 168.528 29.2291 173.618C39.8677 174.523 44.9971 192.695 55.5772 191.751C66.1379 190.807 77.4772 171.993 83.2491 165.413C95.3087 151.65 109.091 142.432 127.935 143.931C145.221 145.304 161.622 154.473 178.227 144.068" stroke="#191919" stroke-width="0.2" stroke-linecap="round" stroke-linejoin="round"/>
<path d="M-206.639 146.423C-193.051 156.186 -177.049 167.515 -161.194 173.151C-152.716 176.158 -147.421 173.599 -139.449 174.192C-128.937 174.981 -121.988 178.387 -112.751 183.653C-95.8636 193.27 -88.2035 212.542 -66.5468 207.879C-55.4411 205.485 -50.5841 199.197 -38.6705 199.995C-30.5724 200.54 -23.7007 206.361 -15.1061 206.419C-7.55307 206.468 0.282273 203.889 6.61867 199.82C15.7388 193.97 17.0333 182.368 29.0735 182.407C39.8775 182.437 44.5495 198.857 55.0225 197.669C64.9116 196.54 77.234 177.472 82.4511 171.194C95.4353 155.572 105.801 146.053 126.718 148.555C144.121 150.628 160.006 156.721 176.446 146.297" stroke="#191919" stroke-width="0.2" stroke-linecap="round" stroke-linejoin="round"/>
<path d="M-204.838 148.701C-191.669 158.424 -175.589 170.562 -159.909 175.691C-152.19 178.212 -145.776 175.789 -138.359 176.937C-129.998 178.232 -119.175 183.332 -111.962 187.624C-94.3061 198.136 -89.313 216.182 -66.1671 211.929C-54.7596 209.836 -50.3991 205.563 -38.4757 206.361C-30.5723 206.896 -23.5254 210.215 -15.106 210.001C-7.70869 209.816 -0.184824 208.921 6.52144 205.641C15.116 201.426 18.143 191.42 28.986 190.973C39.1184 190.554 44.316 203.48 54.4387 202.147C64.6295 200.794 76.2316 183.712 81.6336 177.025C95.4452 159.914 102.94 149.927 125.482 153.246C143.158 155.845 158.371 159.028 174.645 148.506" stroke="#191919" stroke-width="0.2" stroke-linecap="round" stroke-linejoin="round"/>
<path d="M-202.998 150.978C-190.101 160.721 -174.178 173.297 -158.595 178.124C-142.418 183.127 -126.679 181.794 -111.125 191.401C-93.2255 202.458 -89.7507 218.897 -65.7483 215.987C-54.7496 214.654 -49.4937 211.88 -38.2419 212.405C-30.2898 212.775 -23.3986 214.079 -15.096 213.515C-7.89336 213.028 -0.359775 213.116 6.51196 210.634C14.6977 207.675 19.1945 199.606 28.9473 199.11C38.1453 198.633 44.287 206.906 53.8646 205.368C65.2137 203.548 74.3728 190.934 80.8162 182.884C95.3968 164.683 100.487 154.258 124.227 158.006C142.204 160.848 156.785 161.383 172.806 150.735" stroke="#191919" stroke-width="0.2" stroke-linecap="round" stroke-linejoin="round"/>
<path d="M-201.15 153.207C-188.439 163.087 -172.768 175.769 -157.243 180.509C-141.378 185.356 -124.763 185.707 -110.251 195.771C-93.1396 207.626 -88.8083 221.272 -65.3315 219.949C-48.6193 219.005 -31.7709 218.79 -15.1075 216.912C-8.02159 216.114 -0.35172 216.532 6.57841 214.751C14.5208 212.717 20.1661 206.994 29.0235 206.546C37.5499 206.108 44.5384 210.215 53.2303 208.444C65.2899 205.991 72.405 197.903 79.9288 188.646C86.5378 180.509 92.0371 167.797 101.683 163.203C109.625 159.427 114.55 161.49 122.911 162.687C141.268 165.315 155.09 163.807 170.945 152.964" stroke="#191919" stroke-width="0.2" stroke-linecap="round" stroke-linejoin="round"/>
<path d="M-199.262 155.407C-186.589 165.559 -171.434 177.842 -155.89 182.855C-140.054 187.955 -123.235 189.873 -109.374 200.55C-93.4799 212.795 -86.9001 223.657 -64.9125 223.832C-48.3756 223.969 -31.4396 222.528 -15.0973 220.211C-0.516774 218.148 14.638 213.778 29.1018 212.765C50.4664 211.257 63.9568 212.24 79.0921 194.253C94.3929 176.061 97.2253 164.78 121.627 167.389C140.295 169.374 153.455 166.347 169.067 155.173" stroke="#191919" stroke-width="0.2" stroke-linecap="round" stroke-linejoin="round"/>
<path d="M-197.354 157.597C-184.603 168.109 -170.129 179.584 -154.517 185.181C-138.486 190.943 -121.91 194.116 -108.478 205.456C-94.2386 217.476 -84.1646 226.246 -64.4741 227.541C-47.6354 228.65 -31.5559 225.935 -15.0871 223.385C14.1907 218.849 56.8909 223.55 78.2361 199.655C93.6634 182.397 96.4082 170.737 120.323 172.022C139.03 173.034 151.976 168.975 167.17 157.373" stroke="#191919" stroke-width="0.2" stroke-linecap="round" stroke-linejoin="round"/>
<path d="M-195.416 159.758C-182.656 170.601 -168.727 181.405 -153.134 187.576C-137.065 193.931 -120.45 198.224 -107.582 210.254C-80.1149 235.94 -49.2895 231.804 -15.0963 226.441C13.3153 221.983 55.558 227.103 77.3509 204.794C92.8756 188.909 95.8735 176.888 118.98 176.587C137.61 176.343 150.477 171.662 165.223 159.573" stroke="#191919" stroke-width="0.2" stroke-linecap="round" stroke-linejoin="round"/>
<path d="M-193.461 161.889C-180.759 173.005 -167.23 183.351 -151.734 190.077C-135.333 197.202 -120.033 202.633 -106.679 214.751C-79.0359 239.824 -48.2396 234.383 -15.1074 229.38C13.4113 225.069 52.9481 229.614 76.4444 209.583C92.5628 195.839 95.2686 183.021 117.616 181.035C136.051 179.39 148.919 174.309 163.256 161.753" stroke="#191919" stroke-width="0.2" stroke-linecap="round" stroke-linejoin="round"/>
<path d="M-191.475 164.002C-165.331 187.547 -132.403 197.173 -105.714 218.82C-93.3723 228.826 -78.5874 234.432 -63.092 237.089C-45.0658 240.175 -32.5195 234.646 -15.0969 232.242C13.1493 228.358 51.1968 232.028 75.5204 213.943C91.4539 202.088 95.3959 188.802 116.225 185.269C134.524 182.164 147.06 176.713 161.281 163.895" stroke="#191919" stroke-width="0.2" stroke-linecap="round" stroke-linejoin="round"/>
<path d="M-189.459 166.094C-163.928 189.785 -132.003 201.708 -104.789 222.372C-92.2814 231.862 -77.9052 237.323 -62.6239 240.087C-44.6367 243.348 -32.5284 237.157 -15.096 235.113C13.2085 231.804 49.5041 234.091 74.5966 217.759C90.024 207.724 95.9224 194.165 114.834 189.415C132.841 184.899 145.202 179.049 159.267 166.007" stroke="#191919" stroke-width="0.2" stroke-linecap="round" stroke-linejoin="round"/>
<path d="M-187.426 168.158C-162.606 191.897 -131.449 205.689 -103.855 225.331C-90.8614 234.588 -77.7798 240.184 -62.1383 243.056C-44.4139 246.316 -32.364 239.561 -15.0971 237.975C13.8693 235.318 47.2546 235.571 73.6709 221.136C88.6602 212.941 96.4469 199.187 113.432 193.532C130.981 187.692 143.42 181.229 157.241 168.109" stroke="#191919" stroke-width="0.2" stroke-linecap="round" stroke-linejoin="round"/>
</g>
</g>
<defs>
<clipPath id="clip0_1305_22772">
<rect width="494.95" height="531.148" fill="white" transform="translate(-266.227 -286.72)"/>
</clipPath>
</defs>
</svg>
