<svg width="22" height="22" viewBox="0 0 22 22" fill="none" xmlns="http://www.w3.org/2000/svg">
<path d="M14.8415 1.83331H7.15982C3.82315 1.83331 1.83398 3.82248 1.83398 7.15915V14.8316C1.83398 18.1775 3.82315 20.1666 7.15982 20.1666H14.8323C18.169 20.1666 20.1582 18.1775 20.1582 14.8408V7.15915C20.1673 3.82248 18.1782 1.83331 14.8415 1.83331ZM9.11232 12.1641C8.48898 13.0991 7.62732 13.86 6.61898 14.3641C6.52732 14.41 6.41732 14.4375 6.31648 14.4375C6.05982 14.4375 5.82148 14.3 5.70232 14.0616C5.52815 13.7225 5.66565 13.31 6.01398 13.1358C6.81148 12.7416 7.48982 12.1366 7.97565 11.4033C8.14065 11.1558 8.14065 10.8441 7.97565 10.5966C7.48065 9.86331 6.80232 9.25831 6.01398 8.86415C5.66565 8.69915 5.52815 8.28665 5.70232 7.93831C5.86732 7.59915 6.27982 7.46165 6.61898 7.63581C7.62732 8.13998 8.48898 8.90081 9.11232 9.83581C9.58898 10.5416 9.58898 11.4583 9.11232 12.1641ZM15.584 14.4375H11.9173C11.5415 14.4375 11.2298 14.1258 11.2298 13.75C11.2298 13.3741 11.5415 13.0625 11.9173 13.0625H15.584C15.9598 13.0625 16.2715 13.3741 16.2715 13.75C16.2715 14.1258 15.9598 14.4375 15.584 14.4375Z" fill="#8892EE"/>
</svg>
