<svg width="22" height="22" viewBox="0 0 22 22" fill="none" xmlns="http://www.w3.org/2000/svg">
<path d="M20.0935 15.3541C19.791 17.7925 17.7927 19.7908 15.3544 20.0933C13.8785 20.2766 12.5035 19.8733 11.431 19.085C10.8169 18.6358 10.9635 17.6825 11.6969 17.4625C14.456 16.6283 16.6285 14.4466 17.4719 11.6875C17.6919 10.9633 18.6452 10.8166 19.0944 11.4216C19.8735 12.5033 20.2769 13.8783 20.0935 15.3541Z" fill="#8892EE"/>
<path d="M9.15815 1.83331C5.11565 1.83331 1.83398 5.11498 1.83398 9.15748C1.83398 13.2 5.11565 16.4816 9.15815 16.4816C13.2006 16.4816 16.4823 13.2 16.4823 9.15748C16.4731 5.11498 13.2006 1.83331 9.15815 1.83331ZM8.29648 8.13081L10.5057 8.90081C11.3032 9.18498 11.6882 9.74415 11.6882 10.6058C11.6882 11.5958 10.8998 12.4116 9.93732 12.4116H9.85482V12.4575C9.85482 12.8333 9.54315 13.145 9.16732 13.145C8.79148 13.145 8.47982 12.8333 8.47982 12.4575V12.4025C7.46232 12.3566 6.64648 11.5041 6.64648 10.4408C6.64648 10.065 6.95815 9.75331 7.33398 9.75331C7.70982 9.75331 8.02148 10.065 8.02148 10.4408C8.02148 10.7708 8.25982 11.0366 8.55315 11.0366H9.92815C10.139 11.0366 10.304 10.8441 10.304 10.6058C10.304 10.285 10.249 10.2666 10.0381 10.1933L7.82898 9.42331C7.04065 9.14831 6.64648 8.58915 6.64648 7.71831C6.64648 6.72831 7.43482 5.91248 8.39732 5.91248H8.47982V5.87581C8.47982 5.49998 8.79148 5.18831 9.16732 5.18831C9.54315 5.18831 9.85482 5.49998 9.85482 5.87581V5.93081C10.8723 5.97665 11.6882 6.82915 11.6882 7.89248C11.6882 8.26831 11.3765 8.57998 11.0007 8.57998C10.6248 8.57998 10.3132 8.26831 10.3132 7.89248C10.3132 7.56248 10.0748 7.29665 9.78148 7.29665H8.40648C8.19565 7.29665 8.03065 7.48915 8.03065 7.72748C8.02148 8.03915 8.07648 8.05748 8.29648 8.13081Z" fill="#8892EE"/>
</svg>
