<svg width="30" height="30" viewBox="0 0 30 30" fill="none" xmlns="http://www.w3.org/2000/svg">
<g id="vuesax/bold/export">
<g id="vuesax/bold/arrow-square-down">
<g id="arrow-square-down">
<path id="Vector" d="M20.2375 2.5H9.7625C5.2125 2.5 2.5 5.2125 2.5 9.7625V20.225C2.5 24.7875 5.2125 27.5 9.7625 27.5H20.225C24.775 27.5 27.4875 24.7875 27.4875 20.2375V9.7625C27.5 5.2125 24.7875 2.5 20.2375 2.5ZM20.075 13.9625L15.6625 18.375C15.475 18.5625 15.2375 18.65 15 18.65C14.7625 18.65 14.525 18.5625 14.3375 18.375L9.925 13.9625C9.5625 13.6 9.5625 13 9.925 12.6375C10.2875 12.275 10.8875 12.275 11.25 12.6375L15 16.3875L18.75 12.6375C19.1125 12.275 19.7125 12.275 20.075 12.6375C20.4375 13 20.4375 13.5875 20.075 13.9625Z" fill="#191919"/>
</g>
</g>
</g>
</svg>
