<svg width="14" height="11" viewBox="0 0 14 11" fill="none" xmlns="http://www.w3.org/2000/svg">
<path d="M11.8697 0.907315C13.4508 3.24847 14.2316 5.88923 13.9397 8.92935C13.9385 8.94222 13.9318 8.95403 13.9213 8.96178C12.724 9.8472 11.5639 10.3846 10.4201 10.7409C10.4112 10.7436 10.4017 10.7435 10.3929 10.7405C10.3841 10.7375 10.3764 10.7318 10.371 10.7242C10.1067 10.3539 9.86661 9.96352 9.65626 9.55359C9.64418 9.52945 9.65521 9.50037 9.68006 9.49085C10.0614 9.34616 10.424 9.17274 10.7728 8.96742C10.8002 8.95121 10.802 8.91155 10.7766 8.89252C10.7026 8.83718 10.6293 8.77902 10.5591 8.72086C10.546 8.71011 10.5283 8.708 10.5134 8.71522C8.24908 9.76825 5.76864 9.76825 3.47754 8.71522C3.46267 8.70852 3.44499 8.71082 3.43222 8.72139C3.36222 8.77955 3.28872 8.83718 3.21539 8.89252C3.19002 8.91155 3.19212 8.95121 3.21977 8.96742C3.56854 9.16886 3.93114 9.34616 4.31194 9.49156C4.33662 9.50107 4.34834 9.52945 4.33609 9.55359C4.13029 9.96405 3.89019 10.3544 3.62104 10.7247C3.60932 10.7397 3.59007 10.7466 3.57187 10.7409C2.43349 10.3846 1.27342 9.8472 0.0760729 8.96178C0.0660979 8.95403 0.0589229 8.94169 0.0578729 8.92882C-0.186077 6.29916 0.311097 3.63655 2.12602 0.906787C2.13039 0.899561 2.13704 0.893921 2.14474 0.890573C3.03777 0.477821 3.99449 0.174162 4.99444 0.000742938C5.01264 -0.00207688 5.03084 0.00638258 5.04029 0.0225965C5.16384 0.242895 5.30506 0.525406 5.40061 0.756279C6.45464 0.594139 7.52511 0.594139 8.60118 0.756279C8.69673 0.53034 8.83306 0.242895 8.95608 0.0225965C8.96046 0.014553 8.96726 0.00810889 8.97549 0.00418431C8.98372 0.000259726 8.99298 -0.000944716 9.00193 0.000742938C10.0024 0.174691 10.9591 0.47835 11.8515 0.890573C11.8593 0.893921 11.8658 0.899561 11.8697 0.907315ZM5.93646 5.90721C5.94749 5.12982 5.38469 4.48655 4.67822 4.48655C3.97752 4.48655 3.42014 5.12418 3.42014 5.90721C3.42014 6.69006 3.98854 7.32769 4.67822 7.32769C5.37909 7.32769 5.93646 6.69006 5.93646 5.90721ZM10.5883 5.90721C10.5993 5.12982 10.0365 4.48655 9.33023 4.48655C8.62936 4.48655 8.07198 5.12418 8.07198 5.90721C8.07198 6.69006 8.64038 7.32769 9.33023 7.32769C10.0365 7.32769 10.5883 6.69006 10.5883 5.90721Z" fill="black"/>
</svg>
