<svg width="94" height="72" viewBox="0 0 94 72" fill="none" xmlns="http://www.w3.org/2000/svg">
<g id="Group 11">
<g id="Group 10">
<g id="Vector">
<path d="M86.273 21.7925C86.273 21.7925 76.6462 49.1517 55.0129 57.0256C33.3796 64.8995 7.93181 50.3064 7.93181 50.3064C7.93181 50.3064 17.5373 22.1309 39.1706 14.257C60.8039 6.38309 86.273 21.7925 86.273 21.7925Z" stroke="#191919" stroke-linecap="round"/>
<path d="M62.7707 30.3467C65.9034 38.9537 61.428 48.4844 52.7747 51.6339C44.1214 54.7835 34.5669 50.3593 31.4342 41.7522C28.3015 33.1452 32.7768 23.6145 41.4301 20.465C50.0835 17.3154 59.638 21.7396 62.7707 30.3467Z" stroke="#191919" stroke-linecap="round"/>
</g>
<rect id="Rectangle 21" x="25.0547" y="25.6575" width="34.3284" height="34.3284" rx="17.1642" transform="rotate(-20 25.0547 25.6575)" fill="#8892EE"/>
<rect id="Rectangle 22" x="33.8555" y="29.7609" width="20.597" height="20.597" rx="10.2985" transform="rotate(-20 33.8555 29.7609)" fill="#191919"/>
<rect id="Rectangle 23" x="43.1543" y="30.4875" width="2.45203" height="2.45203" rx="1.22601" transform="rotate(-20 43.1543 30.4875)" fill="white"/>
</g>
</g>
</svg>
