<svg width="192" height="147" viewBox="0 0 192 147" fill="none" xmlns="http://www.w3.org/2000/svg">
<path d="M176.144 45.1702C176.144 45.1702 156.514 100.959 112.401 117.015C68.2878 133.071 16.3966 103.314 16.3966 103.314C16.3966 103.314 35.9834 45.8602 80.0965 29.8043C124.21 13.7485 176.144 45.1702 176.144 45.1702Z" stroke="#191919" stroke-linecap="round"/>
<path d="M128.22 62.6133C134.608 80.1641 125.482 99.5983 107.837 106.021C90.1917 112.443 70.7089 103.422 64.3209 85.8706C57.9329 68.3197 67.0587 48.8856 84.704 42.4632C102.349 36.0409 121.832 45.0624 128.22 62.6133Z" stroke="#191919" stroke-linecap="round"/>
<rect x="51.3115" y="53.0513" width="70" height="70" rx="35" transform="rotate(-20 51.3115 53.0513)" fill="#8892EE"/>
<rect x="69.2559" y="61.4187" width="42" height="42" rx="21" transform="rotate(-20 69.2559 61.4187)" fill="#191919"/>
<rect x="88.2217" y="62.9005" width="5" height="5" rx="2.5" transform="rotate(-20 88.2217 62.9005)" fill="white"/>
</svg>
