<svg width="22" height="22" viewBox="0 0 22 22" fill="none" xmlns="http://www.w3.org/2000/svg">
<path d="M17.5272 13.695L17.8206 14.2908C17.9672 14.5842 18.3431 14.8592 18.6547 14.9142L19.0489 14.9783C20.2497 15.18 20.5247 16.06 19.6722 16.9217L19.3056 17.2883C19.0581 17.5358 18.9297 18.0125 19.0031 18.3608L19.0489 18.5808C19.3789 20.0292 18.6089 20.5883 17.3531 19.8275L17.0872 19.6625C16.7664 19.47 16.2347 19.47 15.9139 19.6625L15.6481 19.8275C14.3831 20.5883 13.6222 20.0292 13.9522 18.5808L13.9981 18.3608C14.0714 18.0217 13.9431 17.5358 13.6956 17.2883L13.3289 16.9217C12.4764 16.0508 12.7514 15.18 13.9522 14.9783L14.3464 14.9142C14.6672 14.8592 15.0339 14.5842 15.1806 14.2908L15.4739 13.695C16.0422 12.5492 16.9589 12.5492 17.5272 13.695Z" fill="#8892EE"/>
<path d="M14.8415 1.83331H7.15982C3.82315 1.83331 1.83398 3.82248 1.83398 7.15915V14.8408C1.83398 18.1775 3.82315 20.1666 7.15982 20.1666H11.9998C12.3207 20.1666 12.5498 19.8366 12.5132 19.5158C12.4765 19.1675 12.4948 18.755 12.6048 18.2783C12.6232 18.2141 12.6048 18.1408 12.5498 18.0858L12.3482 17.8841C11.569 17.0958 11.2848 16.1425 11.5598 15.2716C11.844 14.41 12.6323 13.805 13.7232 13.6216L13.9982 13.5758L14.2457 13.0808C14.7498 12.0541 15.5748 11.4583 16.5007 11.4583C17.4265 11.4583 18.2515 12.0541 18.7557 13.0808L18.8932 13.365C18.9573 13.5025 19.0857 13.5941 19.2323 13.6216C19.3148 13.64 19.3973 13.6583 19.4798 13.6766C19.8007 13.7591 20.1673 13.5025 20.1673 13.1633V7.15915C20.1673 3.82248 18.1782 1.83331 14.8415 1.83331ZM14.9057 8.21331L12.7882 10.945C12.5223 11.2841 12.1465 11.5041 11.7157 11.55C11.294 11.605 10.8632 11.4858 10.5332 11.22L8.85565 9.91831C8.79148 9.86331 8.71815 9.86331 8.68148 9.87248C8.64482 9.87248 8.58065 9.89081 8.52565 9.96415L6.34398 12.7966C6.20648 12.9708 6.00482 13.0625 5.79398 13.0625C5.64732 13.0625 5.50065 13.0166 5.37232 12.9158C5.06982 12.6866 5.01482 12.2558 5.24398 11.9533L7.42565 9.12081C7.69148 8.78165 8.06732 8.56165 8.49815 8.50665C8.92899 8.45165 9.35065 8.57081 9.68982 8.83665L11.3673 10.1566C11.4315 10.2116 11.4957 10.2025 11.5415 10.2025C11.5782 10.2025 11.6423 10.1841 11.6973 10.1108L13.8148 7.37915C14.044 7.07665 14.4748 7.02165 14.7773 7.25998C15.089 7.48915 15.1348 7.91998 14.9057 8.21331Z" fill="#8892EE"/>
</svg>
