<svg width="14" height="14" viewBox="0 0 14 14" fill="none" xmlns="http://www.w3.org/2000/svg">
<path fill-rule="evenodd" clip-rule="evenodd" d="M7 0C3.1325 0 0 3.12004 0 6.97216C0 10.0573 2.00375 12.6632 4.78625 13.587C5.13625 13.648 5.2675 13.4388 5.2675 13.2558C5.2675 13.0902 5.25875 12.5412 5.25875 11.9573C3.5 12.2797 3.045 11.5302 2.905 11.138C2.82625 10.9376 2.485 10.3188 2.1875 10.1532C1.9425 10.0225 1.5925 9.70002 2.17875 9.6913C2.73 9.68259 3.12375 10.1968 3.255 10.4059C3.885 11.4605 4.89125 11.1642 5.29375 10.9812C5.355 10.528 5.53875 10.2229 5.74 10.0486C4.1825 9.87432 2.555 9.27297 2.555 6.60612C2.555 5.8479 2.82625 5.2204 3.2725 4.73235C3.2025 4.55805 2.9575 3.8434 3.3425 2.88473C3.3425 2.88473 3.92875 2.70171 5.2675 3.59938C5.8275 3.4425 6.4225 3.36407 7.0175 3.36407C7.6125 3.36407 8.2075 3.4425 8.7675 3.59938C10.1063 2.693 10.6925 2.88473 10.6925 2.88473C11.0775 3.8434 10.8325 4.55805 10.7625 4.73235C11.2087 5.2204 11.48 5.83918 11.48 6.60612C11.48 9.28169 9.84375 9.87432 8.28625 10.0486C8.54 10.2665 8.75875 10.6848 8.75875 11.3385C8.75875 12.271 8.75 13.0205 8.75 13.2558C8.75 13.4388 8.88125 13.6567 9.23125 13.587C11.9963 12.6632 14 10.0486 14 6.97216C14 3.12004 10.8675 0 7 0Z" fill="#191919"/>
</svg>
