<svg width="20" height="20" viewBox="0 0 20 20" fill="none" xmlns="http://www.w3.org/2000/svg">
<g id="vuesax/bold/call">
<g id="call">
<path id="Vector" d="M9.20378 12.4583L7.66211 14C7.33711 14.325 6.82044 14.325 6.48711 14.0083C6.39544 13.9167 6.30378 13.8333 6.21211 13.7417C5.35378 12.875 4.57878 11.9667 3.88711 11.0167C3.20378 10.0667 2.65378 9.11668 2.25378 8.17501C1.86211 7.22501 1.66211 6.31668 1.66211 5.45001C1.66211 4.88334 1.76211 4.34168 1.96211 3.84168C2.16211 3.33334 2.47878 2.86668 2.92044 2.45001C3.45378 1.92501 4.03711 1.66668 4.65378 1.66668C4.88711 1.66668 5.12044 1.71668 5.32878 1.81668C5.54544 1.91668 5.73711 2.06668 5.88711 2.28334L7.82044 5.00834C7.97044 5.21668 8.07878 5.40834 8.15378 5.59168C8.22878 5.76668 8.27044 5.94168 8.27044 6.10001C8.27044 6.30001 8.21211 6.50001 8.09544 6.69168C7.98711 6.88334 7.82878 7.08334 7.62878 7.28334L6.99544 7.94168C6.90378 8.03334 6.86211 8.14168 6.86211 8.27501C6.86211 8.34168 6.87044 8.40001 6.88711 8.46668C6.91211 8.53334 6.93711 8.58334 6.95378 8.63334C7.10378 8.90834 7.36211 9.26668 7.72878 9.70001C8.10378 10.1333 8.50378 10.575 8.93711 11.0167C9.02044 11.1 9.11211 11.1833 9.19544 11.2667C9.52878 11.5917 9.53711 12.125 9.20378 12.4583Z" fill="#191919"/>
<path id="Vector_2" d="M18.3064 15.275C18.3064 15.5083 18.2647 15.75 18.1814 15.9833C18.1564 16.05 18.1314 16.1167 18.098 16.1833C17.9564 16.4833 17.773 16.7667 17.5314 17.0333C17.123 17.4833 16.673 17.8083 16.1647 18.0167C16.1564 18.0167 16.148 18.025 16.1397 18.025C15.648 18.225 15.1147 18.3333 14.5397 18.3333C13.6897 18.3333 12.7814 18.1333 11.823 17.725C10.8647 17.3167 9.90638 16.7667 8.95638 16.075C8.63138 15.8333 8.30638 15.5917 7.99805 15.3333L10.723 12.6083C10.9564 12.7833 11.1647 12.9167 11.3397 13.0083C11.3814 13.025 11.4314 13.05 11.4897 13.075C11.5564 13.1 11.623 13.1083 11.698 13.1083C11.8397 13.1083 11.948 13.0583 12.0397 12.9667L12.673 12.3417C12.8814 12.1333 13.0814 11.975 13.273 11.875C13.4647 11.7583 13.6564 11.7 13.8647 11.7C14.023 11.7 14.1897 11.7333 14.373 11.8083C14.5564 11.8833 14.748 11.9917 14.9564 12.1333L17.7147 14.0917C17.9314 14.2417 18.0814 14.4167 18.173 14.625C18.2564 14.8333 18.3064 15.0417 18.3064 15.275Z" fill="#191919"/>
</g>
</g>
</svg>
