<svg width="133" height="133" viewBox="0 0 133 133" fill="none" xmlns="http://www.w3.org/2000/svg">
<path d="M133 66.5C133 81.1389 128.17 95.3688 119.258 106.983C110.346 118.596 97.8516 126.945 83.7115 130.734C69.5714 134.523 54.5762 133.54 41.0516 127.938C27.527 122.336 16.2288 112.428 8.90931 99.75L20.4274 93.1C26.283 103.242 35.3216 111.169 46.1412 115.65C56.9609 120.132 68.9571 120.918 80.2692 117.887C91.5813 114.856 101.577 108.177 108.706 98.8861C115.836 89.595 119.7 78.2111 119.7 66.5H133Z" fill="#8892EE"/>
<path d="M8.90931 99.75C2.33308 88.3596 -0.71783 75.275 0.142381 62.1507C1.00259 49.0264 5.73529 36.4519 13.742 26.0174C21.7487 15.5828 32.6698 7.75687 45.1243 3.52915C57.5787 -0.698572 71.0072 -1.13817 83.7115 2.26593L80.2692 15.1127C70.1057 12.3895 59.363 12.7411 49.3994 16.1233C39.4359 19.5055 30.699 25.7663 24.2936 34.1139C17.8882 42.4615 14.1021 52.5211 13.4139 63.0206C12.7257 73.52 15.1665 83.9877 20.4274 93.1L8.90931 99.75Z" fill="#8892EE"/>
<path d="M83.7115 2.26593C94.9869 5.28718 105.268 11.2232 113.523 19.4774C121.777 27.7316 127.713 38.0131 130.734 49.2885L117.887 52.7308C115.47 43.7105 110.721 35.4853 104.118 28.8819C97.5147 22.2786 89.2895 17.5297 80.2692 15.1127L83.7115 2.26593Z" fill="#97C3E9"/>
<path d="M130.734 49.2885C132.238 54.902 133 60.6885 133 66.5L119.7 66.5C119.7 61.8508 119.091 57.2216 117.887 52.7308L130.734 49.2885Z" fill="#D9EE88"/>
</svg>
