<svg width="580" height="400" viewBox="0 0 580 400" fill="none" xmlns="http://www.w3.org/2000/svg">
<mask id="mask0_1478_53578" style="mask-type:alpha" maskUnits="userSpaceOnUse" x="0" y="0" width="580" height="400">
<path d="M0 20C0 8.95431 8.95431 0 20 0H430C441.046 0 450 8.95431 450 20V50C450 61.0457 458.954 70 470 70H560C571.046 70 580 78.9543 580 90V380C580 391.046 571.046 400 560 400H20C8.95432 400 0 391.046 0 380V20Z" fill="#8892EE"/>
</mask>
<g mask="url(#mask0_1478_53578)">
<g clip-path="url(#clip0_1478_53578)">
<path d="M-182.91 244.754C-168.807 238.32 -152.416 233.853 -139.412 225.346C-123.537 214.95 -115.818 195.863 -99.8264 185.244C-74.9285 168.717 -43.8014 142.661 -13.8908 158.906C0.173842 166.547 18.3168 175.842 29.2278 187.288C42.6696 201.382 53.8434 203.961 71.5094 210.648C86.0024 216.128 104.486 222.757 116.234 233.142C125.958 241.746 127.038 254.331 135.419 264.045C143.624 273.545 157.494 277.643 167.928 284.038" stroke="#191919" stroke-width="0.2" stroke-linecap="round" stroke-linejoin="round"/>
<path d="M-185.576 246.019C-171.19 239.663 -154.887 235.264 -141.319 227.283C-125.006 217.695 -116.08 200.01 -100.555 189.147C-76.8159 172.542 -41.9803 143.965 -13.8704 159.831C1.82942 168.698 17.3541 179.638 29.6084 192.71C41.8626 205.782 56.1901 207.465 72.4253 213.451C87.1421 218.883 106.307 225.375 117.685 236.461C126.504 245.056 128.226 259.14 137.132 267.491C145.951 275.755 160.006 279.064 169.973 286.091" stroke="#191919" stroke-width="0.2" stroke-linecap="round" stroke-linejoin="round"/>
<path d="M-188.166 247.411C-172.525 240.364 -155.005 235.897 -140.035 227.536C-124.208 218.688 -114.173 202.307 -99.4467 191.61C-87.3384 182.821 -73.7604 174.956 -60.5912 167.929C-42.4969 158.273 -33.1432 148.929 -13.8809 160.823C3.13292 171.326 14.9005 183.239 29.0138 196.885C42.183 209.626 58.6615 210.931 75.5197 217.102C87.9686 221.666 106.209 227.214 116.224 236.169C126.921 245.737 128.177 261.33 139.701 270.207C149.542 277.789 162.604 279.19 171.987 288.184" stroke="#191919" stroke-width="0.2" stroke-linecap="round" stroke-linejoin="round"/>
<path d="M-190.686 248.91C-174.84 241.522 -157.699 236.967 -141.97 229.414C-125.209 221.365 -114.668 206.268 -100.02 195.221C-88.0281 186.169 -74.1678 178.937 -61.1641 171.481C-42.9822 161.057 -33.9691 149.484 -13.8893 161.797C4.35099 172.98 13.8118 188.534 29.3754 201.976C42.0677 212.936 60.6097 214.289 76.4555 219.953C89.0602 224.46 107.914 229.93 117.628 239.556C128.568 250.409 128.568 264.152 142.428 272.494C153.008 278.869 164.873 281.186 173.974 290.296" stroke="#191919" stroke-width="0.2" stroke-linecap="round" stroke-linejoin="round"/>
<path d="M-193.119 250.526C-177.468 242.389 -160.133 237.97 -143.907 231.205C-126.212 223.827 -115.262 210.24 -100.468 198.813C-88.5247 189.585 -74.4698 182.967 -61.6705 175.005C-43.9461 163.977 -34.4269 150.837 -13.9187 162.828C-6.96914 166.897 2.2386 172.63 7.86447 178.139C16.3811 186.471 20.1382 199.319 29.6769 206.628C42.2134 216.226 62.0402 217.501 77.3507 222.844C90.9774 227.594 109.004 232.899 118.98 243.858C130.826 256.882 129.054 266.79 145.591 274.898C156.366 280.183 166.907 284.047 175.93 292.447" stroke="#191919" stroke-width="0.2" stroke-linecap="round" stroke-linejoin="round"/>
<path d="M-195.494 252.239C-180.184 243.576 -162.294 239.04 -145.874 232.928C-127.312 226.017 -116.021 214.182 -100.876 202.297C-88.9628 192.953 -74.7424 186.724 -62.1183 178.285C-45.2309 166.985 -34.5437 153.124 -13.9675 163.977C-6.11265 168.123 2.67654 174.586 8.40947 181.166C16.3908 190.325 19.6125 203.524 29.9493 210.648C42.8168 219.515 63.0719 220.596 78.2267 225.745C93.1187 230.806 110.483 235.828 120.314 248.715C131.848 263.841 131.322 269.233 149.017 277.4C159.588 282.276 168.893 286.928 177.867 294.608" stroke="#191919" stroke-width="0.2" stroke-linecap="round" stroke-linejoin="round"/>
<path d="M-197.781 254.049C-183.026 245.202 -165.145 240.646 -148.998 235.021C-130.329 228.509 -118.104 219.613 -103.027 207.261C-90.1695 196.72 -74.9368 190.306 -61.4172 180.475C-45.8731 169.175 -33.8817 156.619 -13.9867 165.018C9.14941 174.791 10.405 202.015 29.2488 214.727C42.3985 223.594 66.2257 224.265 81.2734 229.404C98.4527 235.274 112.274 240.257 122.757 255.646C137.25 276.893 160.074 281.118 179.775 296.788" stroke="#191919" stroke-width="0.2" stroke-linecap="round" stroke-linejoin="round"/>
<path d="M-200 255.957C-185.225 246.856 -167.315 242.194 -150.983 236.695C-131.808 230.242 -119.243 222.932 -103.582 210.356C-90.4027 199.766 -75.1797 193.917 -61.7672 183.366C-47.6149 172.241 -33.1415 159.714 -14.1031 166.537C9.32505 174.927 10.0161 205.49 29.6191 217.53C43.8979 226.3 66.2748 227.068 82.1401 232.354C101.159 238.69 112.109 244.219 124.062 260.658C137.815 279.58 163.151 284.758 181.663 298.988" stroke="#191919" stroke-width="0.2" stroke-linecap="round" stroke-linejoin="round"/>
<path d="M-202.152 257.943C-187.309 248.637 -169.497 243.858 -152.999 238.388C-133.416 231.886 -120.529 225.803 -104.274 213.169C-90.6278 202.56 -75.5217 197.353 -62.0702 186.169C-49.0178 175.326 -32.4127 163.189 -14.2211 168.357C8.8274 174.898 9.78125 208.838 30.085 220.012C45.7265 228.616 66.147 229.823 83.0343 235.313C90.1202 237.619 97.9458 239.615 104.457 243.216C114.609 248.822 118.142 256.911 125.374 265.252C139.838 281.925 165.651 287.863 183.512 301.217" stroke="#191919" stroke-width="0.2" stroke-linecap="round" stroke-linejoin="round"/>
<path d="M-204.225 260.016C-189.303 250.565 -171.628 245.571 -154.974 240.121C-135.098 233.609 -121.861 228.081 -105.061 215.68C-90.8507 205.198 -75.9782 200.516 -62.3223 188.943C-50.3795 178.83 -31.3801 166.615 -14.3662 170.557C6.93033 175.491 10.9307 212.03 30.485 222.834C46.399 231.614 66.6638 232.869 83.882 238.32C91.0944 240.607 98.9979 242.554 105.519 246.428C115.262 252.219 118.815 261.739 126.65 269.185C142.36 284.106 167.238 290.462 185.138 303.29" stroke="#191919" stroke-width="0.2" stroke-linecap="round" stroke-linejoin="round"/>
<path d="M-206.23 262.147C-190.9 252.346 -172.923 247.08 -155.753 241.513C-135.138 234.836 -121.443 228.83 -103.777 216.323C-90.3065 206.784 -76.2807 203.874 -63.6469 192.554C-52.7942 182.821 -29.9987 169.272 -14.4352 174.032C5.92698 180.261 10.3264 215.028 31.7884 226.076C47.352 234.086 65.7189 235.624 82.4505 240.637C89.9549 242.885 98.0627 244.822 104.837 248.813C114.454 254.478 118.59 264.143 126.718 271.19C143.079 285.361 167.607 292.788 186.013 304.711" stroke="#191919" stroke-width="0.2" stroke-linecap="round" stroke-linejoin="round"/>
<path d="M-208.168 264.347C-192.75 254.439 -174.958 248.988 -157.662 243.382C-136.988 236.675 -122.622 230.31 -104.518 218.377C-90.6769 209.256 -76.9237 206.463 -63.9978 195.309C-53.0868 185.896 -29.0454 172.98 -14.4259 178.665C-2.55128 183.278 1.29338 198.676 8.16511 208.478C14.4042 217.384 22.3758 224.236 32.0215 229.229C47.6533 237.327 66.3412 238.758 83.248 243.693C91.0152 245.961 98.9479 247.966 105.839 252.288C114.735 257.855 119.768 267.238 127.982 273.642C144.296 286.354 167.811 296.068 186.334 305.675" stroke="#191919" stroke-width="0.2" stroke-linecap="round" stroke-linejoin="round"/>
<path d="M-210.045 266.605C-194.549 256.648 -176.932 250.974 -159.548 245.318C-138.943 238.612 -123.788 231.332 -105.363 220.168C-91.2788 211.641 -77.8079 208.361 -64.3369 198.102C-52.3649 188.982 -28.3333 176.747 -14.4049 183.969C-2.81252 189.975 0.0296206 204.38 7.89415 213.714C14.0359 221.014 23.8763 228.266 32.208 232.597C47.8397 240.715 67.0534 241.941 84.0283 246.778C104.76 252.677 112.742 264.347 129.833 276.173C144.54 286.344 168.845 301.431 186.306 306.385" stroke="#191919" stroke-width="0.2" stroke-linecap="round" stroke-linejoin="round"/>
<path d="M-211.846 268.902C-196.302 258.974 -178.85 252.988 -161.437 247.285C-140.851 240.539 -125.102 232.139 -106.336 221.744C-99.4841 217.948 -92.3593 216.994 -85.1761 214.181C-77.1266 211.028 -71.7928 205.441 -64.668 201.022C-50.9537 192.505 -28.5865 180.475 -14.3661 189.663C-3.58155 196.632 -0.51555 210.794 8.26392 219.399C14.5906 225.608 24.6062 232.227 32.3831 236.14C48.3458 244.17 67.6081 245.046 84.8263 249.874C105.179 255.577 115.009 268.192 132.296 279.259C142.944 286.072 172.796 307.359 186.16 307.018" stroke="#191919" stroke-width="0.2" stroke-linecap="round" stroke-linejoin="round"/>
<path d="M-213.598 271.248C-199.076 262.069 -183.064 256.064 -166.878 250.574C-146.068 243.527 -129.19 234.602 -109.694 224.83C-94.9873 217.452 -80.5333 213.529 -66.0501 205.042C-50.6909 196.039 -29.1218 183.463 -14.1033 196.642C2.7938 211.466 12.2838 230.397 33.6095 240.909C48.5696 248.277 67.1895 248.248 83.123 252.336C106.24 258.254 120.256 274.09 140.491 285.955C152.765 293.148 171.969 306.95 186.072 307.758" stroke="#191919" stroke-width="0.2" stroke-linecap="round" stroke-linejoin="round"/>
<path d="M-215.293 273.623C-199.603 263.88 -182.424 257.378 -164.991 251.548C-144.347 244.647 -127.781 233.084 -108.178 224.606C-101.179 221.579 -93.5776 221.608 -86.4528 219.136C-78.6662 216.44 -72.5536 211.193 -65.2828 207.553C-47.2178 198.521 -30.9631 189.157 -14.5332 203.952C0.864898 217.802 13.635 234.154 32.6734 243.489C49.9598 251.957 68.2098 251.227 86.3236 256.132C106.783 261.67 120.429 275.55 138.056 286.714C148.782 293.508 172.824 309.977 186.275 308.799" stroke="#191919" stroke-width="0.2" stroke-linecap="round" stroke-linejoin="round"/>
<path d="M-216.928 276.027C-201.208 266.44 -184.087 259.675 -166.723 253.757C-146.127 246.73 -129.075 233.619 -109.141 226.173C-94.278 220.615 -80.4859 218.065 -65.6036 211.31C-58.508 208.088 -46.2927 201.879 -38.506 200.827C-27.0304 199.29 -23.468 202.696 -14.8735 210.97C-0.263745 225.024 14.4725 238.398 32.8296 247.401C50.8752 256.259 68.22 254.439 87.054 259.296C108.282 264.775 122.688 279.59 140.996 290.851C152.705 298.054 172.727 310.775 186.967 310.318" stroke="#191919" stroke-width="0.2" stroke-linecap="round" stroke-linejoin="round"/>
<path d="M-218.562 278.509C-203.194 269.262 -186.433 262.332 -169.526 256.483C-149.3 249.484 -132.286 236.13 -112.644 229.035C-104.157 225.969 -95.0952 226.903 -86.452 224.353C-79.0546 222.173 -71.959 217.734 -64.8342 214.785C-58.0014 211.953 -49.7573 207.281 -42.3308 206.239C-28.7917 204.341 -25.5408 207.524 -15.3597 217.841C-2.27811 231.098 15.164 242.428 31.8567 250.613C43.2155 256.181 49.0847 258.799 61.4655 260.084C71.3643 261.106 80.1633 260.23 90.1497 263.082C112.001 269.311 126.134 285.371 145.542 296.156C159.227 303.757 173.983 308.682 188.32 312.517" stroke="#191919" stroke-width="0.2" stroke-linecap="round" stroke-linejoin="round"/>
<path d="M-220.324 281.556C-204.449 270.664 -185.596 264.279 -167.647 257.777C-149.641 251.256 -134.69 239.916 -117.219 232.879C-100.74 226.251 -81.5853 225.501 -64.3962 218.98C-57.1449 216.226 -49.7865 210.794 -41.8344 210.356C-29.4633 209.665 -24.8691 217.656 -15.5543 225.083C0.301259 237.736 17.8504 247.791 35.8279 257.213C53.708 266.586 69.5734 261.077 88.5631 265.71C112.828 271.628 127.419 289.693 149.007 300.633C156.57 304.468 167.179 309.111 175.238 311.758C181.468 313.802 183.171 310.386 189.907 314.97" stroke="#191919" stroke-width="0.2" stroke-linecap="round" stroke-linejoin="round"/>
<path d="M-222.037 285.118C-207.69 272.504 -186.608 266.78 -169.01 260.318C-151.266 253.806 -136.316 242.749 -118.981 235.848C-102.356 229.229 -82.4806 229.891 -65.0774 223.642C-57.2323 220.82 -50.6136 215.038 -41.7466 215.408C-29.7843 215.904 -24.6548 225.219 -15.5639 231.945C0.515568 243.839 18.8824 252.589 36.0714 262.838C53.1145 273 70.4496 264.454 89.2836 268.97C113.958 274.888 127.944 293.187 150.195 303.621C157.952 307.261 167.754 311.379 175.969 313.89C182.636 315.934 183.58 309.86 191.493 317.413" stroke="#191919" stroke-width="0.2" stroke-linecap="round" stroke-linejoin="round"/>
<path d="M-223.721 289.099C-208.644 276.319 -189.888 270.119 -171.453 263.393C-153.066 256.687 -136.481 244.199 -117.968 238.651C-102.171 233.921 -84.68 235.186 -68.8926 229.881C-59.5291 226.737 -51.7424 218.289 -41.1234 220.06C-30.845 221.773 -23.8078 233.668 -15.7388 238.729C0.63263 248.998 17.958 258.828 35.0789 267.939C53.2024 277.584 67.89 267.754 87.6973 271.696C113.539 276.845 129.259 296.35 152.395 307.008C165.175 312.897 181.935 312.109 193.002 319.905" stroke="#191919" stroke-width="0.2" stroke-linecap="round" stroke-linejoin="round"/>
<path d="M-225.25 293.206C-210.572 278.986 -191.641 273.058 -172.632 266.187C-154.421 259.607 -137.961 247.888 -119.527 242.428C-103.175 237.59 -85.6545 239.848 -69.6919 235.264C-58.9171 232.169 -53.4761 223.321 -41.2316 226.231C-32.968 228.197 -22.0083 240.15 -15.1268 244.384C1.23494 254.448 18.3656 265.583 35.2919 274.207C52.2084 282.831 69.1736 271.199 88.3385 274.976C114.171 280.076 129.793 300.02 153.435 309.957C167.617 315.924 181.282 314.902 194.5 322.397" stroke="#191919" stroke-width="0.2" stroke-linecap="round" stroke-linejoin="round"/>
<path d="M-226.582 297.217C-211.904 281.945 -193.421 276.037 -173.769 269.068C-155.714 262.673 -139.303 251.694 -121.005 246.418C-104.088 241.532 -86.6848 245.396 -70.4691 241.133C-59.4996 238.252 -54.2631 228.996 -41.7168 232.237C-35.1663 233.93 -20.8875 245.601 -14.882 248.832C-5.81056 253.709 2.93969 259.704 11.5926 265.145C19.0678 269.846 27.5845 277.244 35.4977 280.543C46.1849 284.991 50.1269 281.41 60.3177 278.061C70.781 274.625 78.6164 276.124 88.9629 278.295C114.678 283.687 130.135 303.913 154.449 312.955C169.35 318.494 181.439 317.579 195.971 324.927" stroke="#191919" stroke-width="0.2" stroke-linecap="round" stroke-linejoin="round"/>
<path d="M-227.887 301.392C-212.927 285.176 -195.358 279.035 -174.85 272.027C-156.902 265.895 -140.472 255.86 -122.358 250.545C-112.761 247.732 -103.436 246.117 -93.5862 246.662C-85.6633 247.1 -79.1614 249.319 -71.2287 247.469C-60.7751 245.036 -54.4387 236.422 -42.71 238.904C-36.2276 240.277 -20.8003 251.314 -14.8046 254.4C-5.84018 259.003 3.02688 264.415 11.709 269.058C20.4106 273.72 26.5037 283.843 35.7114 286.559C46.4862 289.732 51.0025 283.639 60.8623 280.427C70.7611 277.205 79.784 279.278 89.5465 281.624C114.921 287.727 130.514 308.118 155.412 315.953C170.83 320.81 181.926 320.08 197.392 327.458" stroke="#191919" stroke-width="0.2" stroke-linecap="round" stroke-linejoin="round"/>
<path d="M-229.182 305.675C-213.852 288.739 -197.334 281.955 -175.911 275.015C-158.002 269.214 -141.562 260.171 -123.594 254.721C-113.053 251.519 -104.809 250.097 -94.7059 251.606C-86.5104 252.833 -80.7094 256.103 -71.9494 254.108C-61.3206 251.694 -55.685 244.141 -43.8006 245.922C-36.3546 247.041 -21.5794 256.21 -15.097 259.86C-6.46349 264.736 3.79544 268.951 11.8741 273.73C20.5368 278.859 25.8317 289.975 35.9933 291.698C46.554 293.489 51.9462 285.332 61.4654 282.578C70.459 279.969 81.2922 282.519 90.1788 284.953C114.989 291.766 130.923 312.488 156.424 318.961C172.182 322.961 182.772 322.572 198.822 330.008" stroke="#191919" stroke-width="0.2" stroke-linecap="round" stroke-linejoin="round"/>
<path d="M-230.457 310.006C-214.738 292.486 -199.096 285.06 -176.914 278.052C-159.131 272.426 -142.39 264.571 -124.675 258.935C-113.161 255.276 -106.717 255.412 -95.553 258.293C-87.1434 260.454 -81.5565 263.335 -72.5434 261.262C-61.4766 258.712 -56.9604 251.655 -44.7158 252.755C-35.0896 253.621 -23.614 261.232 -15.4964 265.642C-6.9213 270.304 3.98977 273.886 12.0003 278.937C20.8187 284.495 25.1792 295.202 36.3044 295.796C46.4271 296.341 52.5883 286.977 62.0199 284.807C70.0596 282.957 82.7324 285.858 90.743 288.34C115.008 295.873 131.097 317.258 157.348 322.027C163.685 323.175 168.522 321.384 174.265 322.144C182.84 323.273 192.485 329.152 200.194 332.607" stroke="#191919" stroke-width="0.2" stroke-linecap="round" stroke-linejoin="round"/>
<path d="M-231.762 314.464C-204.421 284.106 -163.463 275.93 -125.6 263.179C-112.733 258.848 -108.791 260.269 -96.5852 264.941C-88.7401 267.939 -81.5666 272.299 -72.6801 269.301C-60.9709 265.35 -58.5863 258.682 -45.3587 259.325C-34.0193 259.87 -25.3664 266.868 -15.8764 271.628C-6.78546 276.183 3.64867 278.675 12.1361 284.262C21.2465 290.257 24.8382 299.407 36.6642 298.803C46.3099 298.307 52.8604 288.807 62.5353 287.337C70.3123 286.15 83.4912 289.303 91.3071 291.727C115.387 299.192 131.155 322.776 158.272 325.083C174.819 326.494 184.913 327.682 201.547 335.352" stroke="#191919" stroke-width="0.2" stroke-linecap="round" stroke-linejoin="round"/>
<path d="M-233.084 319.039C-216.197 300.438 -203.67 291.688 -179.969 284.583C-161.953 279.181 -142.262 270.07 -124.061 266.605C-111.563 264.23 -107.699 264.746 -95.9218 272.397C-86.3637 278.616 -82.2465 279.512 -71.5204 275.171C-61.1933 270.995 -56.6479 265.262 -44.6759 265.914C-32.772 266.557 -26.1533 272.543 -16.1767 277.507C-8.89612 281.127 -0.243196 281.789 6.90107 285.644C16.5371 290.841 23.2531 304.069 35.8091 301.908C48.5695 299.708 52.2 291.065 66.0506 290.948C72.9418 290.89 88.2134 293.304 94.5011 296.087C109.043 302.541 117.16 315.807 132.773 321.161C140.783 323.905 151.928 327.838 160.133 328.305C164.844 328.568 168.046 326.202 172.816 326.679C182.529 327.643 194.482 333.882 202.872 338.583" stroke="#191919" stroke-width="0.2" stroke-linecap="round" stroke-linejoin="round"/>
<path d="M-234.369 323.584C-217.248 305.042 -204.926 294.686 -180.846 287.707C-163.16 282.587 -142.564 273.526 -124.713 270.761C-101.743 267.209 -92.9827 291.844 -71.6862 281.994C-61.2813 277.176 -57.2322 270.898 -44.5886 271.637C-32.8891 272.328 -26.6403 278.957 -16.4787 283.123C-8.76995 286.286 -0.516078 286.218 7.03699 290.316C17.9675 296.253 22.7758 306.132 36.2759 302.794C50.253 299.338 51.5572 293.8 66.4298 294.491C75.5694 294.92 87.4246 296.983 95.4643 301.392C110.726 309.763 115.7 320.489 133.249 324.577C141.941 326.602 151.236 330.067 160.103 330.592C164.415 330.845 168.348 328.529 173.331 329.142C183.162 330.349 196.224 336.461 204.147 342.155" stroke="#191919" stroke-width="0.2" stroke-linecap="round" stroke-linejoin="round"/>
<path d="M-235.625 328.042C-218.339 309.831 -205.929 297.654 -181.683 290.851C-164.075 285.906 -143.042 277.322 -125.268 274.927C-113.073 273.282 -107.155 274.81 -97.4214 283.677C-86.851 293.304 -85.7219 295.104 -72.1634 288.067C-61.7877 282.685 -57.5245 276.134 -44.4818 277.205C-33.5026 278.11 -26.699 284.952 -16.7029 288.252C-8.45874 290.977 -0.73046 290.501 7.19247 294.676C19.2034 300.983 23.1551 306.833 36.811 303.047C57.4165 297.324 77.6229 293.713 96.4471 307.758C117.315 323.312 133.161 330.738 159.558 332.432C164.035 332.724 168.425 330.592 174.168 331.916C184.699 334.339 197.284 338.603 205.412 345.893" stroke="#191919" stroke-width="0.2" stroke-linecap="round" stroke-linejoin="round"/>
<path d="M-236.852 332.344C-219.322 314.776 -205.724 300.341 -181.313 293.664C-163.764 288.865 -145.825 284.31 -128.169 280.086C-114.786 276.884 -110.552 278.529 -99.777 286.452C-88.4085 294.812 -87.2989 303.154 -73.8669 294.248C-63.4036 287.308 -58.4688 280.865 -44.881 282.11C-34.5637 283.055 -26.67 290.51 -16.9853 293.391C-6.58036 296.487 2.09204 297.197 12.789 301.869C23.155 306.395 27.5739 304.663 38.6018 302.541C57.2606 298.939 78.7712 299.124 94.1791 311.68C113.986 327.818 132.12 335.167 158.176 334.271C175.598 333.668 191.6 338.398 206.657 349.621" stroke="#191919" stroke-width="0.2" stroke-linecap="round" stroke-linejoin="round"/>
<path d="M-238.039 336.442C-219.877 319.555 -206.639 303.524 -182.082 296.856C-164.416 292.058 -146.371 288.671 -128.695 284.018C-113.9 280.125 -111.876 281.575 -100.011 290.267C-89.7517 297.791 -87.4352 304.341 -74.4899 298.501C-62.4108 293.051 -59.5395 285.77 -44.8713 287.503C-35.4105 288.622 -26.3975 295.095 -17.034 297.246C-6.74587 299.611 2.60787 301.597 12.9641 304.74C22.7851 307.719 29.3453 303.884 39.0787 302.901C59.1099 300.896 79.9489 305.383 94.6949 318.902C113.402 336.062 133.58 335.887 157.163 335.79C175.491 335.712 192.68 341.649 207.855 353.281" stroke="#191919" stroke-width="0.2" stroke-linecap="round" stroke-linejoin="round"/>
<path d="M-239.207 340.257C-219.653 323.866 -207.048 306.453 -181.557 299.728C-165.506 295.494 -147.354 294.618 -131.848 288.865C-118.718 283.999 -113.871 280.057 -102.415 289.673C-89.2164 300.75 -88.0484 307.359 -71.1416 299.299C-48.8522 288.671 -39.625 297.625 -16.9756 300.857C-8.44918 302.073 0.281636 304.283 8.6523 305.363C21.6268 307.037 28.1092 302.901 40.8696 302.93C48.9386 302.949 64.5021 306.59 71.5685 309.257C83.1415 313.627 87.94 321.706 98.1211 328.548C116.254 340.734 135.604 338.155 155.577 337.649C174.868 337.162 193.479 345.036 209.023 356.716" stroke="#191919" stroke-width="0.2" stroke-linecap="round" stroke-linejoin="round"/>
<path d="M-240.307 343.635C-220.898 329.405 -210.133 310.347 -185.936 303.777C-167.725 298.832 -146.954 298.219 -129.824 290.15C-112.498 281.994 -114.133 283.025 -98.9397 295.591C-89.7417 303.193 -84.3105 304.448 -72.7862 302.443C-63.9192 300.896 -56.113 296.175 -46.6522 297.226C-36.7242 298.326 -27.0396 303.047 -16.9558 304.419C-8.48783 305.568 0.934041 307.106 9.39231 307.407C18.7071 307.738 27.9246 303.115 37.1031 303.718C43.5271 304.147 62.5168 310.113 68.6488 312.42C82.9082 317.773 87.3466 331.429 100.925 337.736C117.715 345.543 137.785 340.754 153.971 339.576C173.72 338.135 194.52 348.745 210.094 359.773" stroke="#191919" stroke-width="0.2" stroke-linecap="round" stroke-linejoin="round"/>
<path d="M-241.367 346.642C-220.265 333.444 -210.775 313.092 -185.352 306.551C-165.233 301.373 -145.747 300.205 -127.662 289.839C-105.509 277.137 -97.2847 306.921 -74.3237 305.334C-62.2155 304.497 -54.8668 301.129 -42.4276 302.648C-33.9109 303.689 -25.6863 306.853 -16.8387 307.651C-8.47774 308.41 1.95641 310.279 10.1519 309.617C20.5179 308.789 27.9931 304.088 38.6413 306.191C47.4597 307.933 56.8427 312.809 65.5637 315.69C81.3415 320.907 82.4121 334.992 97.2944 341.532C106.103 345.406 120.956 345.328 130.281 345.581C138.496 345.805 145.474 342.136 152.414 341.601C172.767 340.043 194.891 352.005 211.174 362.459" stroke="#191919" stroke-width="0.2" stroke-linecap="round" stroke-linejoin="round"/>
<path d="M-242.398 349.319C-220.411 337.454 -211.865 316.09 -186.042 309.666C-164.668 304.351 -146.671 303.086 -128.119 290.861C-107.163 277.049 -96.3692 305.733 -74.5374 307.222C-55.1291 308.546 -36.3146 308.702 -16.7408 310.629C2.29758 312.508 21.8129 302.891 38.9436 308.313C47.6452 311.067 57.2422 315.836 65.8562 319.243C80.2908 324.957 81.6729 341.211 96.7985 346.136C105.734 349.047 120.781 349.358 129.902 349.017C137.902 348.716 144.589 344.17 151.782 343.538C171.794 341.795 195.806 355.646 212.216 364.795" stroke="#191919" stroke-width="0.2" stroke-linecap="round" stroke-linejoin="round"/>
<path d="M-243.402 351.986C-221.016 340.54 -212.888 319.029 -186.686 312.839C-163.832 307.437 -147.733 305.84 -128.51 291.853C-116.548 283.152 -113.443 286.909 -101.695 294.481C-92.526 300.39 -85.8878 307.076 -74.7334 309.159C-56.0551 312.654 -35.6735 311.145 -16.6254 313.325C-4.85781 314.678 -1.19811 315.914 10.7642 311.194C22.6778 306.492 27.2914 306.093 39.1563 311.31C44.1592 315.145 49.5418 318.387 55.2942 321.024C58.8858 321.706 62.4774 322.387 66.069 323.059C81.0875 330.641 78.1675 346.165 96.4272 349.942C106.141 351.947 119.651 353.096 129.297 352.083C137.142 351.256 143.838 346.516 151.557 345.951C171.608 344.482 196.204 358.78 213.198 367.112" stroke="#191919" stroke-width="0.2" stroke-linecap="round" stroke-linejoin="round"/>
<path d="M-244.375 354.663C-222.056 342.506 -213.842 321.861 -187.318 315.982C-178.607 314.046 -169.565 313.062 -160.941 310.824C-145.231 306.755 -142.097 303.212 -128.928 293.216C-117.112 284.252 -113.812 287.902 -101.996 295.416C-92.8562 301.227 -85.5757 307.904 -74.9371 311.135C-56.6287 316.693 -35.4685 313.773 -16.4982 315.739C-3.35818 317.102 -2.12207 317.822 11.1445 311.817C23.7686 306.103 27.5451 308.614 39.3517 315.106C47.5471 319.613 58.3803 323.38 66.0697 328.324C81.9058 338.525 75.1314 351.499 96.1651 353.709C106.502 354.789 118.474 356.532 128.636 354.818C136.87 353.427 143.362 349.163 151.888 348.92C172.63 348.336 196.029 361.281 214.172 369.389" stroke="#191919" stroke-width="0.2" stroke-linecap="round" stroke-linejoin="round"/>
<path d="M-245.32 357.232C-223.596 343.576 -214.651 324.674 -188.02 319.155C-179.192 317.326 -170.257 316.031 -161.438 314.172C-145.914 310.911 -141.836 304.487 -129.318 295.182C-110.484 281.166 -93.3635 305.918 -75.1135 313.364C-56.9803 320.761 -35.4988 316.557 -16.3534 318.026C-2.86297 319.068 -2.09405 318.679 11.5424 312.78C24.8965 306.999 28.0112 312.556 39.5257 319.671C47.6141 324.674 58.5836 328.499 65.8641 334.875C80.2305 347.47 75.3152 356.239 95.9888 357.515C106.647 358.176 117.577 359.724 127.992 357.398C137.248 355.325 142.913 351.879 152.481 352.142C173.797 352.726 196.028 363.53 215.115 371.706" stroke="#191919" stroke-width="0.2" stroke-linecap="round" stroke-linejoin="round"/>
<path d="M-246.225 359.52C-225.522 344.229 -215.331 327.546 -188.895 322.348C-179.95 320.586 -170.782 319.584 -161.905 317.54C-146.487 313.997 -142.458 306.376 -129.697 297.878C-110.668 285.206 -92.1265 307.602 -75.2781 316.274C-57.2033 325.579 -35.6148 318.581 -16.1773 320.129C-3.10543 321.17 -1.28526 318.533 11.9131 314.123C25.5301 309.578 28.8297 318.026 39.6726 324.811C48.929 330.602 58.0686 333.609 65.5146 342.223C77.3698 355.947 77.4574 359.938 95.9215 361.281C116.546 362.78 133.706 353.894 153.066 355.363C174.723 357.008 196.272 365.798 216.041 374.013" stroke="#191919" stroke-width="0.2" stroke-linecap="round" stroke-linejoin="round"/>
<path d="M-247.109 361.651C-237.094 353.319 -226.864 339.128 -215.661 332.626C-208.098 328.237 -198.404 327.137 -190.004 325.55C-180.884 323.827 -171.355 323.195 -162.342 320.985C-147.43 317.335 -142.817 308.741 -130.047 301.402C-110.054 289.917 -91.4052 310.181 -75.4328 320.09C-58.1659 330.797 -35.1369 320.976 -15.9622 321.998C-4.01939 322.64 0.292476 318.046 12.2158 316.041C25.0541 313.88 30.1252 324.139 39.8098 330.32C50.4192 337.094 57.0768 339.985 65.097 349.981C75.755 363.257 79.5997 363.617 95.9809 364.99C116.81 366.732 133.357 356.337 153.612 358.605C175.454 361.048 196.662 368.202 216.918 376.339" stroke="#191919" stroke-width="0.2" stroke-linecap="round" stroke-linejoin="round"/>
<path d="M-247.957 363.715C-238.272 354.945 -228.082 340.832 -216.333 334.719C-209.111 330.962 -199.232 330.203 -191.367 328.772C-181.936 327.059 -172.115 326.553 -162.781 324.382C-148.609 321.083 -142.886 311.953 -130.388 305.811C-108.381 295.007 -91.8928 313.89 -75.5894 324.898C-63.5006 333.055 -55.422 329.59 -42.6129 325.56C-32.7044 322.436 -25.9689 323.623 -15.7586 323.925C-6.04478 324.207 3.19218 318.601 12.4096 318.766C23.5056 318.971 31.6135 330.271 39.9355 335.887C50.8174 343.245 56.0636 348.317 64.6679 357.729C74.4596 368.435 82.6162 367.404 96.1942 368.64C107.942 369.71 115.787 365.905 126.952 363.101C136.957 360.581 143.878 360.473 154.137 361.885C176.076 364.892 197.158 370.732 217.773 378.704" stroke="#191919" stroke-width="0.2" stroke-linecap="round" stroke-linejoin="round"/>
<path d="M-248.775 365.788C-229.756 347.557 -219.352 336.598 -192.984 332.013C-183.153 330.3 -172.943 329.94 -163.21 327.769C-149.904 324.801 -142.838 316.197 -130.691 311.057C-105.423 300.38 -93.9473 318.601 -75.7459 330.641C-63.0537 339.041 -55.0918 332.704 -42.6818 327.877C-32.6954 323.983 -26.0086 325.979 -15.5647 326.066C-7.13565 326.144 4.54434 321.151 12.4965 322.65C21.7723 324.402 33.0922 336.14 40.0418 341.221C49.4248 348.093 55.586 358.05 64.307 364.999C72.6096 371.618 86.4698 371.54 96.4952 372.212C108.438 373.01 115.835 367.404 127.097 364.863C136.801 362.683 144.724 363.491 154.642 365.145C176.639 368.815 197.634 373.273 218.59 381.04" stroke="#191919" stroke-width="0.2" stroke-linecap="round" stroke-linejoin="round"/>
<path d="M-249.562 367.929C-239.683 358.157 -231.05 345.114 -217.705 340.043C-210.571 337.328 -202.268 336.5 -194.803 335.264C-184.485 333.551 -173.857 333.24 -163.617 331.166C-150.828 328.577 -142.905 320.907 -130.942 316.547C-122.776 313.569 -111.797 312.332 -103.446 314.629C-90.0721 318.309 -86.9964 330.787 -75.8906 337.162C-62.955 344.579 -54.2632 335.225 -42.7486 330.32C-32.8888 326.125 -25.7445 328.402 -15.3882 328.402C-6.57956 328.402 3.96164 324.557 12.5367 327.633C21.1799 330.719 33.3271 341.776 40.0237 347.012C47.6643 352.979 55.3828 366.567 64.065 371.414C70.6739 375.103 89.3814 375.784 96.7787 375.823C108.42 375.891 116.44 368.941 127.478 366.927C136.987 365.194 145.552 366.927 155.111 368.445C177.05 371.92 198.375 376.018 219.37 383.425" stroke="#191919" stroke-width="0.2" stroke-linecap="round" stroke-linejoin="round"/>
<path d="M-250.312 370.197C-240.482 360.386 -232.15 347.898 -218.738 343.109C-211.73 340.608 -204.05 339.683 -196.75 338.535C-185.907 336.831 -174.85 336.452 -164.036 334.602C-151.412 332.432 -143.051 325.92 -131.128 322.056C-123.049 319.447 -111.827 317.559 -103.651 319.808C-90.4328 323.438 -87.8534 339.157 -76.0177 344.092C-63.4325 349.339 -53.1931 337.367 -42.8076 333.045C-33.3857 329.122 -25.1027 331.089 -15.2428 331.059C8.2048 330.972 21.2572 337.454 39.916 352.911C47.5859 359.267 54.1072 372.572 64.045 376.495C69.8168 378.772 90.8311 379.891 97.0604 379.444C108.225 378.646 117.043 370.82 127.973 369.379C137.22 368.163 146.418 370.324 155.567 371.754C177.429 375.181 199.105 378.792 220.119 385.829" stroke="#191919" stroke-width="0.2" stroke-linecap="round" stroke-linejoin="round"/>
<path d="M-251.043 372.65C-234.058 355.977 -224.062 345.689 -200.323 342.019C-176.573 338.359 -156.717 335.994 -134.048 328.412C-126.69 325.949 -109.53 322.046 -101.841 325.103C-90.1218 329.775 -88.7494 347.489 -74.7723 349.689C-63.6666 351.441 -57.0187 343.323 -47.665 338.622C-35.8292 332.665 -27.8479 334.495 -15.1751 334.271C7.00716 333.882 21.3638 343.09 38.7476 356.755C52.8804 367.861 50.1356 375.56 67.714 380.563C76.6394 383.104 91.8234 383.717 100.506 381.712C111.319 379.21 119.067 372.407 130.698 371.92C139.371 371.56 148.89 373.798 157.485 375.278C178.791 378.938 200.35 381.468 220.839 388.564" stroke="#191919" stroke-width="0.2" stroke-linecap="round" stroke-linejoin="round"/>
<path d="M-251.734 375.336C-235.314 359.724 -225.007 348.579 -202.318 345.309C-178.686 341.912 -157.136 340.598 -134.292 333.707C-124.851 330.865 -111.331 327.02 -102.036 332.441C-90.745 339.031 -90.2194 354.945 -74.8894 355.354C-64.173 355.636 -56.9606 345.942 -47.7334 341.922C-37.5913 337.503 -25.9405 337.435 -15.117 337.678C6.06269 338.145 23.3783 347.762 38.319 363.393C51.9846 377.692 49.1132 380.67 67.8986 384.34C78.615 386.432 90.9666 386.831 101.274 383.269C122.269 376.018 135.516 374.168 157.912 378.665C179.199 382.938 201.206 383.785 221.529 391.727" stroke="#191919" stroke-width="0.2" stroke-linecap="round" stroke-linejoin="round"/>
<path d="M-252.387 378.276C-236.424 363.841 -225.834 351.49 -204.207 348.609C-180.613 345.474 -157.545 345.182 -134.545 338.827C-122.787 335.576 -112.859 331.634 -102.221 339.917C-91.4266 348.326 -91.0275 361.583 -74.9967 360.162C-64.9324 359.267 -57.0874 349.231 -47.7823 345.65C-37.6207 341.747 -25.7753 341.396 -15.0881 341.435C6.51021 341.503 24.8284 352.95 37.7932 370.041C49.6873 385.722 49.736 385.868 68.0833 388.116C80.8729 389.683 90.0222 389.45 102.16 384.233C120.565 376.319 138.776 377.925 158.331 382.403C179.705 387.299 202.111 385.946 222.201 395.251" stroke="#191919" stroke-width="0.2" stroke-linecap="round" stroke-linejoin="round"/>
<path d="M-253.008 381.459C-236.072 367.17 -226.494 354.351 -204.205 351.752C-180.018 348.93 -155.694 348.949 -132.003 342.963C-120.08 339.946 -114.775 339.527 -104.399 345.922C-93.2254 352.813 -92.1547 368.708 -76.4841 364.922C-65.3005 362.226 -54.3797 352.2 -43.0111 348.599C-33.4627 345.582 -25.2089 344.822 -15.0862 345.299C-3.88315 345.825 2.5506 346.896 12.8971 352.434C24.8983 358.848 29.3951 368.319 38.3401 377.77C54.8381 395.192 77.4681 396.643 99.7671 386.598C117.657 378.539 138.233 381.215 157.213 386.024C179.23 391.591 202.58 388.097 222.826 399.027" stroke="#191919" stroke-width="0.2" stroke-linecap="round" stroke-linejoin="round"/>
<path d="M-253.602 384.865C-235.867 371.355 -228.129 357.563 -205.529 355.091C-181.332 352.443 -155.976 353.378 -132.237 347.625C-119.651 344.579 -115.476 344.209 -104.536 351.392C-93.352 358.731 -92.1256 372.728 -76.5912 367.939C-53.4842 360.814 -40.9282 346.594 -15.096 348.959C-4.51583 349.922 3.12483 350.789 12.975 355.782C25.5504 362.157 28.6846 373.059 37.941 382.636C56.8723 402.239 77.3804 396.818 100.624 386.948C116.907 380.037 140.929 385.469 157.554 390.384C180.174 397.081 202.483 390.559 223.41 402.979" stroke="#191919" stroke-width="0.2" stroke-linecap="round" stroke-linejoin="round"/>
<path d="M-254.166 388.437C-238.69 378.149 -230.699 361.184 -211.836 358.916C-186.519 355.879 -160.307 357.106 -135.264 352.366C-124.207 350.273 -117.062 345.64 -106.794 352.56C-93.0015 361.846 -94.6367 371.716 -78.1484 370.217C-69.0867 369.399 -57.8057 362.177 -49.5032 357.943C-32.8105 349.426 -33.0831 350.176 -15.0959 353.008C-5.07053 354.585 4.23451 354.001 13.6661 359.16C26.9229 366.411 29.2102 378.383 38.6905 388.583C56.921 408.196 78.4707 397.314 98.0249 388.963C117.579 380.602 142.584 391.727 161.963 396.224C184.321 401.402 203.038 394.346 223.965 407.038" stroke="#191919" stroke-width="0.2" stroke-linecap="round" stroke-linejoin="round"/>
<path d="M-254.693 392.087C-238.429 382.432 -232.102 365.048 -212.567 362.255C-187.183 358.624 -160.562 361.311 -135.45 356.171C-124.121 353.855 -117.629 348.57 -106.893 355.49C-93.5094 364.124 -94.0544 372.494 -78.2378 372.076C-67.6382 371.793 -58.0508 365.155 -49.5439 359.539C-33.0946 348.677 -33.0459 352.035 -15.0879 356.152C-5.28644 358.4 4.43718 357.388 13.7033 362.255C26.2106 368.825 29.5687 380.982 38.7083 390.608C46.1348 398.424 56.1796 403.553 67.0907 403.329C80.8536 403.047 86.9467 392.671 98.8116 389.09C118.415 383.172 143.75 396.964 162.302 400.906C185.448 405.821 202.394 398.103 224.518 411.087" stroke="#191919" stroke-width="0.2" stroke-linecap="round" stroke-linejoin="round"/>
<path d="M-255.18 395.718C-238.205 386.374 -232.433 368.795 -211.623 365.476C-187.728 361.661 -162.168 365.632 -138.565 360.639C-121.122 356.95 -119.701 348.346 -103.379 360.483C-96.0008 365.963 -89.8882 373.828 -79.8629 374.489C-61.9633 375.667 -57.8364 362.362 -44.5504 355.062C-33.3084 348.891 -26.1057 355.461 -15.107 358.527C-5.93824 361.087 6.03378 360.434 14.5018 364.717C25.8606 370.47 31.7103 384.456 40.6066 392.885C48.2959 400.176 57.4355 409.101 69.2907 407.281C81.9732 405.325 88.9423 391.678 102.189 390.754C122.59 389.323 141.853 401.169 161.047 405.188C185.604 410.337 201.002 401.791 224.985 414.98" stroke="#191919" stroke-width="0.2" stroke-linecap="round" stroke-linejoin="round"/>
<path d="M-255.637 399.173C-245.456 397.09 -243.46 389.167 -237.134 382.821C-229.6 375.258 -221.064 370.625 -210.503 368.718C-186.9 364.454 -158.547 371.258 -135.829 363.462C-122.232 358.79 -120.616 351.986 -105.685 359.685C-94.2581 365.574 -90.0143 375.404 -75.5214 375.959C-59.6658 376.563 -58.0306 361.846 -45.3188 356.259C-32.938 350.818 -28.9668 355.558 -15.0968 360.775C-6.92084 363.851 1.07995 363.676 9.13915 366.022C23.817 370.304 32.3337 385.663 42.3006 395.913C47.8584 401.626 56.56 411.165 65.6022 410.785C78.2166 410.25 86.7917 394.774 99.2893 392.856C119.369 389.771 140.909 405.072 159.714 409.422C169.69 411.729 179.521 409.656 189.654 409.14C203.543 408.43 212.916 412.274 225.443 418.591" stroke="#191919" stroke-width="0.2" stroke-linecap="round" stroke-linejoin="round"/>
<path d="M-256.084 402.288C-247.431 400.984 -244.268 393.051 -238.593 387.717C-231.04 380.631 -221.063 374.694 -210.766 372.319C-187.289 366.907 -158.215 375.842 -135.984 365.554C-122.465 359.296 -121.287 352.103 -105.792 360.065C-95.1628 365.535 -89.0794 377.419 -75.589 377.877C-59.422 378.432 -58.5947 360.24 -45.3476 355.617C-33.6579 351.538 -27.3896 356.775 -15.0964 362.274C-6.68677 366.031 0.467223 367.199 9.12016 369.642C25.5695 374.285 32.12 386.199 42.9045 398.219C48.2676 404.196 56.7356 413.793 65.992 412.907C78.6356 411.69 86.0622 395.718 99.6402 394.735C120.839 393.197 140.355 409.948 159.958 413.871C169.886 415.856 179.979 413.472 189.965 412.907C203.621 412.138 213.335 416.138 225.862 421.745" stroke="#191919" stroke-width="0.2" stroke-linecap="round" stroke-linejoin="round"/>
<path d="M-256.873 405.198C-249.456 404.517 -244.405 396.506 -239.081 392.156C-230.895 385.478 -219.896 378.772 -209.462 375.998C-184.039 369.224 -155.822 379.93 -133.026 364.766C-123.575 358.478 -120.052 352.58 -108.216 358.41C-96.6916 364.094 -91.0657 376.826 -77.1957 378.373C-58.9068 380.417 -60.2402 357.554 -46.1561 353.563C-36.7634 350.906 -22.8448 359.909 -15.1068 363.588C6.91001 374.042 23.4956 376.271 39.5459 395.776C43.1862 403.621 48.812 408.916 56.4332 411.661C60.7938 415.817 65.057 415.535 69.2131 410.814C83.122 407.067 87.0348 395.212 102.813 397.713C124.343 401.12 143.654 417.813 164.668 418.64C172.795 418.961 181.244 417.384 189.342 416.752C204.117 415.593 212.536 419.107 226.26 424.519" stroke="#191919" stroke-width="0.2" stroke-linecap="round" stroke-linejoin="round"/>
<path d="M-258.012 408.118C-241.475 405.461 -226.262 386.043 -209.676 380.437C-183.075 371.443 -156.814 383.59 -133.162 366.158C-123.575 359.091 -120.207 354.137 -108.303 360.347C-96.7012 366.401 -91.1629 378.393 -77.254 378.889C-61.0188 379.473 -60.2207 357.933 -46.1852 354.536C-36.5784 352.21 -22.8641 360.542 -15.1067 364.62C-3.88413 370.509 3.8928 373.837 15.9719 377.867C28.0509 381.897 32.1973 389.644 39.9451 399.027C51.8003 413.394 54.7105 415.769 69.9043 410.892C83.2195 406.609 88.0959 398.326 102.92 400.954C124.586 404.799 143.556 421.764 164.872 422.407C173.039 422.65 181.497 421.472 189.595 420.567C204.75 418.873 212.264 421.998 226.611 427.205" stroke="#191919" stroke-width="0.2" stroke-linecap="round" stroke-linejoin="round"/>
<path d="M-259.355 411.048C-241.991 408.79 -225.766 391.912 -209.871 385.293C-182.618 373.944 -158.275 386.072 -133.299 368.036C-123.897 361.252 -119.614 357.709 -108.382 363.286C-96.0496 369.418 -91.3581 380.3 -77.3032 379.21C-63.5792 378.149 -59.9389 360.95 -46.2052 357.524C-35.0119 354.731 -24.3344 360.308 -15.0975 365.506C-4.10853 371.686 4.11613 376.923 16.0103 381.682C28.1964 386.569 31.7101 393.304 40.2365 402.794C62.3312 427.39 75.7924 400.273 103.036 404.273C125.491 407.563 142.923 425.015 165.076 426.027C173.35 426.407 181.711 425.19 189.848 423.867C205.353 421.336 212.117 424.46 226.941 429.707" stroke="#191919" stroke-width="0.2" stroke-linecap="round" stroke-linejoin="round"/>
<path d="M-260.785 413.987C-241.834 411.34 -226.602 398.502 -210.036 390.462C-195.932 383.619 -181.011 385.965 -166.002 384.233C-150.458 382.442 -147.197 379.424 -133.415 370.625C-110.113 355.753 -99.3481 383.376 -77.341 379.356C-64.9408 377.088 -59.2662 364.016 -46.2236 360.581C-33.7357 357.291 -26.0658 359.997 -15.0964 366.421C-4.46755 372.65 5.11003 379.113 16.0308 384.982C26.8446 390.793 31.721 398.91 40.4518 406.94C53.475 418.922 57.0763 415.36 71.2091 411.554C82.2856 408.576 91.3182 406.366 103.134 407.719C126.076 410.347 142.603 427.643 165.253 429.541C173.944 430.271 181.692 428.471 190.063 426.534C205.607 422.932 212.342 426.748 227.234 432.091" stroke="#191919" stroke-width="0.2" stroke-linecap="round" stroke-linejoin="round"/>
<path d="M-262.188 416.946C-241.543 413.822 -227.907 405.529 -209.744 396.01C-195.446 388.506 -180.71 390.141 -165.331 387.873C-150.712 385.722 -146.955 381.186 -133.513 374.12C-112.382 363.004 -97.5092 384.817 -77.3807 379.755C-66.0414 376.903 -57.8848 367.19 -46.2438 363.481C-33.2011 359.325 -27.254 360.435 -15.0971 367.589C5.56677 379.755 21.2374 398.064 40.6262 411.174C53.2698 419.73 58.8081 415.545 71.6561 413.034C82.2168 410.97 92.2421 410.367 103.212 411.301C126.309 413.267 142.739 429.979 165.398 432.86C175.141 434.096 181.224 431.361 190.247 428.558C205.402 423.847 213.091 428.879 227.487 434.369" stroke="#191919" stroke-width="0.2" stroke-linecap="round" stroke-linejoin="round"/>
<path d="M-263.453 419.905C-256.124 418.942 -248.697 419.243 -241.407 417.968C-228.043 415.642 -220.198 407.865 -208.771 401.782C-194.609 394.229 -180.155 394.19 -164.816 391.474C-151.646 389.138 -146.059 383.765 -133.572 378.548C-114.338 370.518 -96.3707 385.858 -77.4102 380.875C-52.269 374.266 -41.2314 354.166 -15.0974 369C5.95582 380.952 19.3294 405.403 40.7817 415.058C58.1946 422.893 84.3286 413.861 103.27 415.029C126.386 416.46 143.108 432.286 165.514 435.955C176.708 437.785 180.543 433.707 190.393 429.979C204.847 424.499 214.171 431.128 227.681 436.549" stroke="#191919" stroke-width="0.2" stroke-linecap="round" stroke-linejoin="round"/>
<path d="M-264.514 422.874C-256.532 421.716 -248.697 424.285 -240.735 423.234C-226.232 421.326 -218.417 412.829 -204.761 406.512C-193.227 401.178 -181.216 397.158 -168.621 395.397C-156.688 393.722 -148.084 389.479 -136.657 385.712C-117.17 379.298 -98.5214 389.245 -79.0839 384.194C-55.685 378.12 -39.664 356.979 -15.1068 370.255C7.32857 382.383 18.6582 412.479 42.3199 418.825C59.9859 423.565 81.6231 418.25 100.048 418.786C124.508 419.496 140.85 433.434 163.977 438.389C176.504 441.065 178.859 436.014 189.537 431.478C204.117 425.278 214.327 432.948 227.857 438.583" stroke="#191919" stroke-width="0.2" stroke-linecap="round" stroke-linejoin="round"/>
<path d="M-265.273 425.862C-256.805 424.645 -249.233 428.918 -240.833 428.519C-226.476 427.848 -216.11 419.049 -202.756 412.566C-181.693 402.356 -159.005 396.886 -136.647 391.017C-117.765 386.062 -98.2494 390.958 -79.0942 387.007C-55.6953 382.179 -40.0733 361.077 -15.0976 372.163C9.51804 383.094 17.0419 416.547 42.4362 422.193C60.2579 426.154 81.7393 422.358 100.096 422.679C124.858 423.117 140.83 436.637 164.074 440.997C176.931 443.402 179.112 436.423 189.653 432.13C203.474 426.495 215.553 435.264 228.012 440.569" stroke="#191919" stroke-width="0.2" stroke-linecap="round" stroke-linejoin="round"/>
<path d="M-265.701 428.85C-256.756 427.896 -249.631 433.298 -240.891 433.59C-226.573 434.067 -213.793 425.113 -200.634 418.718C-179.143 408.264 -159.987 401.548 -136.637 396.536C-117.852 392.506 -98.0834 394.414 -79.1132 390.822C-55.9186 386.423 -40.5497 366.012 -15.097 374.499C11.3582 383.327 16.108 418.504 42.4756 425.239C60.1805 429.755 81.8177 426.378 100.136 426.582C111.641 426.709 121.238 427.351 132.139 430.719C142.369 433.873 153.747 442.078 164.142 443.44C176.465 445.056 179.793 436.131 189.741 432.734C202.55 428.354 216.946 437.659 228.129 442.467" stroke="#191919" stroke-width="0.2" stroke-linecap="round" stroke-linejoin="round"/>
<path d="M-265.74 431.848C-256.503 431.488 -249.748 437.474 -240.823 438.36C-226.573 439.781 -211.35 431.313 -198.551 424.889C-176.739 413.948 -161.068 406.269 -136.647 401.938C-117.823 398.599 -97.811 399.154 -79.123 395.377C-56.2108 390.734 -40.7737 371.745 -15.0972 377.351C11.9615 383.259 17.1007 419.195 42.4561 428.072C59.6646 434.096 81.8955 430.359 100.155 430.485C111.28 430.563 121.442 430.583 132.168 433.376C142.106 435.965 154.389 444.92 164.181 445.582C175.355 446.341 180.582 436.121 189.79 433.629C201.684 430.408 217.948 439.888 228.197 444.278" stroke="#191919" stroke-width="0.2" stroke-linecap="round" stroke-linejoin="round"/>
<path d="M-265.379 434.856C-255.869 435.362 -249.066 441.542 -239.79 442.73C-227.409 444.307 -215.963 439.138 -204.536 434.223C-191.114 428.451 -179.969 417.647 -166.352 412.673C-158.312 409.734 -148.384 409.218 -139.955 407.768C-129.064 405.889 -118.104 404.118 -107.241 402.317C-96.8852 400.604 -84.2026 401.529 -74.2844 398.219C-54.1266 391.494 -38.4852 377.809 -15.0863 381.76C13.0333 386.5 18.5035 422.27 44.0145 432.344C60.2887 438.768 86.3643 434.349 103.281 434.418C112.197 434.447 120.791 434.242 129.59 435.722C140.579 437.581 151.694 446.098 162.469 446.818C173.312 447.548 179.541 437.931 188.778 435.702C201.062 432.734 217.55 441.581 228.237 446.049" stroke="#191919" stroke-width="0.2" stroke-linecap="round" stroke-linejoin="round"/>
<path d="M-264.631 437.873C-255.297 439.275 -248.425 445.144 -239.188 446.633C-226.749 448.628 -214.378 444.647 -202.873 439.956C-179.211 430.291 -165.984 416.022 -139.986 412.742C-128.666 411.311 -118.271 408.177 -107.214 405.987C-96.4097 403.845 -84.8757 405.198 -74.2858 401.373C-65.2046 398.083 -58.0603 391.581 -47.9766 390.452C-43.5966 390.686 -39.2068 390.919 -34.8268 391.153C-28.5099 388.301 -21.9302 386.627 -15.0974 386.15C13.0027 387.007 21.2274 421.492 43.9255 434.038C59.9855 442.925 85.8178 438.369 103.27 438.33C112.049 438.311 120.838 437.922 129.579 438.992C140.451 440.316 151.781 447.947 162.458 448.103C172.006 448.239 179.959 439.839 188.767 438.184C201.284 435.829 217.043 443.265 228.226 447.528" stroke="#191919" stroke-width="0.2" stroke-linecap="round" stroke-linejoin="round"/>
<path d="M-263.676 440.91C-254.517 443.158 -247.421 448.492 -238.145 450.147C-225.764 452.356 -213.121 449.748 -201.577 445.445C-178.314 436.773 -165.535 420.158 -140.014 417.355C-127.925 416.031 -118.737 411.544 -107.174 408.984C-95.7368 406.454 -85.8089 408.293 -74.2846 404.059C-64.4053 400.429 -58.9448 396.983 -47.9851 397.645C-43.6051 398.258 -39.2154 398.871 -34.8354 399.485C-28.6742 395.621 -22.1042 392.817 -15.1059 391.085C12.6341 387.581 24.0026 420.47 43.8391 434.953C60.2398 446.925 84.067 442.321 103.251 442.224C111.972 442.185 120.849 441.708 129.551 442.399C140.345 443.255 151.733 449.533 162.43 449.222C171.171 448.969 180.028 442.594 188.73 441.406C202.084 439.586 215.769 444.764 228.179 448.765" stroke="#191919" stroke-width="0.2" stroke-linecap="round" stroke-linejoin="round"/>
<path d="M-262.732 444.034C-240.492 451.081 -224.549 458.547 -200.556 450.663C-177.867 443.207 -164.572 424.743 -140.005 421.618C-127.059 419.973 -119.302 414.425 -107.126 411.525C-95.4456 408.741 -86.2963 410.435 -74.2659 406.522C-62.216 402.609 -59.9384 403.524 -47.9664 406.502C-32.5099 410.357 -29.1227 400.964 -15.097 396.759C12.536 388.467 25.5786 419.127 43.7897 435.274C60.8814 450.419 81.6621 446.37 103.241 446.107C111.972 446 120.819 445.445 129.54 445.845C140.325 446.341 151.645 451.139 162.41 450.478C171.073 449.942 179.823 445.523 188.7 444.754C202.579 443.547 214.795 446.604 228.129 449.971" stroke="#191919" stroke-width="0.2" stroke-linecap="round" stroke-linejoin="round"/>
<path d="M-261.809 447.178C-240.132 454.965 -217.493 463.851 -194.259 454.157C-185.042 450.312 -176.973 443.109 -168.67 437.717C-158.042 430.816 -148.503 428.724 -136.657 425.297C-126.525 422.368 -115.254 413.773 -104.683 412.352C-95.8942 411.174 -88.2243 413.345 -79.0847 411.019C-74.8215 409.685 -70.5486 408.352 -66.2854 407.018C-59.6181 409.442 -53.2135 412.42 -47.0815 415.953C-42.8183 420.528 -38.5551 420.538 -34.2822 415.983C-27.0114 412.644 -20.6069 408.001 -15.0783 402.045C10.5106 387.98 26.6485 417.92 42.3581 433.61C53.055 444.297 58.6224 450.04 74.517 450.4C83.0239 450.594 91.599 450.186 100.116 450.04C120.672 449.679 144.032 453.943 164.093 451.792C186.46 449.397 205.314 447.178 228.031 451.276" stroke="#191919" stroke-width="0.2" stroke-linecap="round" stroke-linejoin="round"/>
</g>
</g>
<defs>
<clipPath id="clip0_1478_53578">
<rect width="494.95" height="531.148" fill="white" transform="translate(-266.227 153.28)"/>
</clipPath>
</defs>
</svg>
