<svg width="580" height="400" viewBox="0 0 580 400" fill="none" xmlns="http://www.w3.org/2000/svg">
<mask id="mask0_1478_53599" style="mask-type:alpha" maskUnits="userSpaceOnUse" x="0" y="0" width="580" height="400">
<path d="M0 20C0 8.95431 8.95431 0 20 0H430C441.046 0 450 8.95431 450 20V50C450 61.0457 458.954 70 470 70H560C571.046 70 580 78.9543 580 90V380C580 391.046 571.046 400 560 400H20C8.95432 400 0 391.046 0 380V20Z" fill="#D9EE88"/>
</mask>
<g mask="url(#mask0_1478_53599)">
<g clip-path="url(#clip0_1478_53599)">
<path d="M362.369 -10.127C371.703 -8.72542 378.575 -2.85622 387.812 -1.36702C400.251 0.628318 412.622 -3.35263 424.127 -8.0441C447.789 -17.7093 461.016 -31.9784 487.014 -35.2585C498.334 -36.6893 508.729 -39.8234 519.786 -42.0134C530.59 -44.1548 542.124 -42.8018 552.714 -46.627C561.795 -49.9169 568.94 -56.4188 579.023 -57.5478C583.403 -57.3142 587.793 -57.0806 592.173 -56.847C598.49 -59.6989 605.07 -61.373 611.903 -61.85C640.003 -60.9934 648.227 -26.5082 670.926 -13.962C686.986 -5.07542 712.818 -9.63065 730.27 -9.66958C739.049 -9.68905 747.838 -10.0784 756.579 -9.00769C767.451 -7.68396 778.781 -0.0530352 789.458 0.102698C799.006 0.238965 806.959 -8.16091 815.767 -9.81557C828.284 -12.171 844.043 -4.73477 855.226 -0.471565" stroke="#191919" stroke-width="0.2" stroke-linecap="round" stroke-linejoin="round"/>
<path d="M363.324 -7.09024C372.483 -4.84184 379.579 0.492019 388.855 2.14669C401.236 4.35615 413.879 1.74763 425.423 -2.5545C448.686 -11.2269 461.465 -27.8417 486.986 -30.6449C499.075 -31.9687 508.263 -36.4557 519.826 -39.0156C531.263 -41.5463 541.191 -39.7067 552.715 -43.9407C562.595 -47.5712 568.055 -51.0168 579.015 -50.3549C583.395 -49.7417 587.785 -49.1285 592.165 -48.5153C598.326 -52.3795 604.896 -55.1826 611.894 -56.9152C639.634 -60.4192 651.003 -27.5302 670.839 -13.047C687.24 -1.07503 711.067 -5.67893 730.251 -5.77626C738.972 -5.8152 747.849 -6.29211 756.551 -5.60104C767.345 -4.74451 778.733 1.53347 789.43 1.22201C798.171 0.96894 807.028 -5.40639 815.73 -6.59386C829.084 -8.41399 842.769 -3.23586 855.179 0.764539" stroke="#191919" stroke-width="0.2" stroke-linecap="round" stroke-linejoin="round"/>
<path d="M364.268 -3.96585C386.508 3.08109 402.451 10.5466 426.444 2.66255C449.133 -4.79318 462.428 -23.2573 486.995 -26.3817C499.941 -28.0266 507.698 -33.5746 519.874 -36.4752C531.554 -39.2589 540.704 -37.5653 552.734 -41.4781C564.784 -45.3909 567.062 -44.476 579.034 -41.4976C594.49 -37.6432 597.877 -47.0359 611.903 -51.2407C639.536 -59.5335 652.579 -28.8734 670.79 -12.7258C687.881 2.41922 708.662 -1.62984 730.241 -1.89264C738.972 -1.99971 747.819 -2.55453 756.54 -2.15546C767.325 -1.65906 778.645 3.13948 789.41 2.47761C798.073 1.94228 806.823 -2.47666 815.7 -3.24559C829.579 -4.45252 841.795 -1.39624 855.129 1.97149" stroke="#191919" stroke-width="0.2" stroke-linecap="round" stroke-linejoin="round"/>
<path d="M365.191 -0.821971C386.868 6.9647 409.507 15.8512 432.741 6.15681C441.958 2.31215 450.027 -4.89051 458.33 -10.2828C468.958 -17.1837 478.497 -19.2764 490.343 -22.7025C500.475 -25.6323 511.746 -34.2268 522.317 -35.6478C531.106 -36.8256 538.776 -34.6551 547.915 -36.9813C552.178 -38.3148 556.451 -39.6483 560.715 -40.9817C567.382 -38.5581 573.786 -35.5797 579.918 -32.0465C584.182 -27.4719 588.445 -27.4621 592.718 -32.0173C599.989 -35.3559 606.393 -39.9987 611.922 -45.9555C637.511 -60.0201 653.648 -30.0804 669.358 -14.3902C680.055 -3.70304 685.622 2.03963 701.517 2.39976C710.024 2.59443 718.599 2.18563 727.116 2.03963C747.672 1.6795 771.032 5.94269 791.093 3.79162C813.46 1.39722 832.314 -0.82198 855.031 3.27575" stroke="#191919" stroke-width="0.2" stroke-linecap="round" stroke-linejoin="round"/>
<path d="M366.088 2.30237C386.109 10.1182 411.241 18.4305 432.82 11.2863C442.037 8.22999 450.398 1.31932 458.389 -3.95615C468.823 -10.8376 479.014 -14.2832 490.363 -18.9066C500.349 -22.9751 511.134 -32.3678 522.337 -33.2535C531.399 -33.9738 538.494 -32.0952 547.916 -34.0322C552.179 -34.9082 556.443 -35.7842 560.716 -36.6602C566.069 -30.2167 572.473 -25.243 579.91 -21.739C584.543 -16.6387 588.806 -17.0475 592.709 -22.9556C599.688 -27.7834 606.083 -33.3119 611.903 -39.5412C637.473 -56.5843 653.435 -31.5404 669.437 -13.9912C679.579 -2.86602 685.312 5.30024 701.469 6.38064C709.791 6.93544 718.717 6.30277 727.049 5.91343C748.228 4.9401 770.021 7.58756 790.977 5.7869C812.624 3.9181 833.064 2.4581 854.857 4.78436" stroke="#191919" stroke-width="0.2" stroke-linecap="round" stroke-linejoin="round"/>
<path d="M366.945 5.36846C385.984 12.7853 412.293 20.9126 432.928 16.0557C451.917 11.5881 473.603 -6.0974 490.422 -15.4609C501.168 -21.4469 509.217 -30.2166 522.377 -30.2458C531.439 -30.2653 538.787 -29.8759 547.956 -30.5573C565.758 -31.881 564.746 -13.8743 579.93 -11.5091C585.099 -6.73007 589.362 -7.70339 592.72 -14.4486C599.319 -20.4054 605.714 -26.5763 611.904 -32.9614C637.493 -51.9414 652.706 -32.6597 669.496 -13.1346C686.598 6.75059 700.711 12.4349 726.991 9.78741C768.212 5.64101 812.917 4.61901 854.683 6.56567" stroke="#191919" stroke-width="0.2" stroke-linecap="round" stroke-linejoin="round"/>
<path d="M367.762 8.3468C386.586 15.0628 412.73 23.3556 433.053 20.4356C452.529 17.6324 475.325 -1.26974 490.489 -12.2197C502.247 -20.7072 506.676 -28.1337 522.424 -26.6251C531.048 -25.7977 539.818 -27.3356 547.984 -26.5083C564.609 -24.8244 564.794 -2.86599 579.939 -2.32093C594.217 -1.80506 600.398 -17.174 611.903 -26.2552C618.191 -31.2192 629.024 -38.2856 637.472 -38.2467C653.299 -38.1688 660.871 -21.846 669.515 -11.587C685.506 7.41242 701.012 17.9633 726.931 13.3497C749.328 9.35908 767.909 12.4543 790.753 11.2863C811.981 10.1962 833.21 8.72642 854.467 8.66802" stroke="#191919" stroke-width="0.2" stroke-linecap="round" stroke-linejoin="round"/>
<path d="M368.531 11.2474C388.086 17.1652 411.046 24.9032 431.564 24.3776C454.817 23.7742 477.973 2.81831 493.663 -12.2002C501.985 -20.1524 506.482 -25.3597 518.551 -23.8413C527.632 -22.6928 540.782 -21.9239 549.659 -19.1596C561.339 -15.5291 567.938 8.40524 580.776 8.38577C590.597 8.37604 605.168 -13.4656 611.904 -18.9357C620.43 -25.8658 630.922 -35.9301 643.031 -34.1976C655.441 -32.4261 661.339 -19.5684 668.065 -10.9057C684.709 10.5174 702.677 23.0539 730.125 14.4399C750.526 8.03537 770.644 15.7734 792.243 14.6346C812.907 13.5444 833.551 11.9969 854.225 11.043" stroke="#191919" stroke-width="0.2" stroke-linecap="round" stroke-linejoin="round"/>
<path d="M369.232 14.0701C389.341 19.1606 410.959 26.957 431.73 27.8428C458.429 28.9718 477.379 8.13276 493.741 -9.47484C502.745 -19.1595 505.713 -22.4007 518.62 -19.3444C530.066 -16.6386 539.955 -16.9208 549.698 -11.7816C560.853 -5.9027 565.69 14.7806 580.796 13.1065C591.571 11.9093 604.448 -6.33096 611.904 -12.7744C620.557 -20.2594 630.154 -31.8421 643.012 -30.1971C655.305 -28.6301 661.009 -16.1422 667.997 -7.86885C685.196 12.4738 704.264 26.704 730.037 15.715C749.193 7.54877 771.005 19.404 792.078 18.1192C812.712 16.8636 833.337 15.3452 853.943 13.7002" stroke="#191919" stroke-width="0.2" stroke-linecap="round" stroke-linejoin="round"/>
<path d="M369.875 16.8538C390.364 21.2143 411.096 29.3806 431.925 31.3078C461.836 34.072 476.036 13.6029 493.829 -5.91248C503.056 -16.0254 505.937 -17.9137 518.688 -14.3416C532.422 -10.4969 539.108 -10.9251 549.737 -3.23581C561.135 5.00832 564.084 21.1267 580.806 16.4158C592.885 13.0091 603.144 0.745126 611.885 -7.30434C620.722 -15.4414 628.908 -28.4646 642.963 -25.934C654.147 -23.9192 660.726 -11.6065 667.89 -4.42328C676.378 4.08365 687.863 13.5639 698.881 19.0146C713.861 26.4411 716.742 22.8787 729.911 16.4352C748.034 7.57791 771.365 22.7619 791.864 21.5355C812.469 20.2994 833.055 18.489 853.602 16.5034" stroke="#191919" stroke-width="0.2" stroke-linecap="round" stroke-linejoin="round"/>
<path d="M370.449 19.618C391.016 23.8033 411.446 32.2713 432.149 34.7631C464.872 38.6953 474.041 19.4136 493.946 -1.29895C510.823 -18.8579 534.105 -6.82746 549.815 6.35147C561.914 16.5033 564.269 25.8181 580.855 19.1994C593.537 14.1381 602.375 6.49745 611.904 -2.75895C621.199 -11.7915 627.205 -25.4376 642.944 -20.7169C652.502 -17.8553 660.298 -6.67173 667.812 -0.792795C676.67 6.13734 688.583 15.2672 698.813 20.4843C714.688 28.5824 716.138 23.4627 729.804 16.9803C747.781 8.45385 771.453 25.9447 791.659 24.9908C812.206 24.0175 832.802 21.6036 853.252 19.4817" stroke="#191919" stroke-width="0.2" stroke-linecap="round" stroke-linejoin="round"/>
<path d="M370.936 22.4407C391.745 26.2269 411.64 35.5709 432.382 38.1697C442.875 39.4837 453.406 39.9315 463.227 35.5028C478.538 28.6019 482.178 15.9096 494.062 4.48267C514.454 -15.13 533.142 2.4484 549.873 16.2795C562.663 26.8499 565.417 28.6408 580.884 21.9248C594.111 16.1821 601.83 10.2156 611.904 0.102675C621.812 -9.83506 626.202 -22.4202 642.904 -14.8185C651.538 -10.8862 659.198 -2.17492 667.744 2.57495C678.09 8.32735 688.213 16.4449 698.735 21.7009C714.843 29.7504 715.768 23.1999 729.687 17.6519C748.365 10.2059 771.345 28.9328 791.435 28.4169C811.875 27.8913 832.568 24.6599 852.872 22.4504" stroke="#191919" stroke-width="0.2" stroke-linecap="round" stroke-linejoin="round"/>
<path d="M371.363 25.3412C392.017 28.6603 410.715 38.6856 431.097 41.4207C440.927 42.7444 451.527 44.1752 461.105 41.4207C476.104 37.0894 481.165 25.4288 491.132 15.092C499.658 6.2444 508.36 0.180552 521.296 2.97402C538.514 6.69215 537.443 19.5986 551.479 28.8939C563.168 36.6416 570.498 29.5655 581.681 24.6696C598.968 17.0971 597.829 18.0899 611.903 0.930013C618.473 -7.09025 624.449 -15.568 636.052 -12.5312C642.3 -8.70597 648.335 -4.57904 654.175 -0.150373C659.081 4.72603 665.135 7.04256 672.318 6.77976C681.341 9.88469 688.495 16.4352 696.457 21.3408C712.059 30.9573 712.225 25.8668 726.601 21.3019C747.995 14.4983 764.862 29.2832 786.704 31.3077C807.563 33.2349 831.75 27.8329 852.433 25.3704" stroke="#191919" stroke-width="0.2" stroke-linecap="round" stroke-linejoin="round"/>
<path d="M371.82 28.2222C392.766 31.3369 410.783 42.1896 431.379 44.7981C441.054 46.0245 451.77 48.1464 461.318 45.9661C475.763 42.6568 481.33 32.0961 491.326 22.6256C499.123 15.238 509.82 6.82836 521.392 8.97943C537.56 11.987 536.81 32.6704 551.546 37.7512C561.971 41.3525 573.213 32.2226 581.71 27.9108C585.866 26.1685 589.896 24.1537 593.779 21.8761C602.812 18.1872 608.846 11.1792 611.893 0.871575C619.261 -7.11949 625.247 -11.665 636.022 -7.3239C641.774 -2.8271 647.799 1.26089 654.097 4.93036C659.216 9.34929 665.271 10.8677 672.249 9.50504C681.428 11.5685 688.465 17.6908 696.359 22.2557C711.115 30.7821 712.36 26.5286 726.454 23.1122C748.286 17.827 764.93 30.8989 786.441 33.8481C807.056 36.6708 831.496 30.8502 851.985 28.2222" stroke="#191919" stroke-width="0.2" stroke-linecap="round" stroke-linejoin="round"/>
<path d="M372.307 31.1033C393.477 34.1693 410.812 45.7034 431.68 48.1756C441.287 49.3144 451.993 51.7867 461.552 50.1709C475.188 47.8739 481.583 39.2696 491.54 30.7043C499.453 23.9007 510.277 14.1479 521.499 16.3768C535.856 19.2287 536.965 42.3454 551.624 44.7106C560.014 46.0635 575.383 35.4347 581.748 31.6095C595.94 23.0928 599.064 10.8093 611.893 0.560136C619.728 -5.6984 627.077 -6.40893 636.022 -2.23333C652.013 5.25161 654.641 9.80681 672.171 12.8241C681.69 14.4691 687.998 18.9951 696.251 23.5016C709.82 30.8989 712.759 27.9692 726.298 25.7306C748.529 22.0611 764.803 31.9988 786.158 35.9116C807.007 39.7368 830.698 33.9747 851.498 31.1033" stroke="#191919" stroke-width="0.2" stroke-linecap="round" stroke-linejoin="round"/>
<path d="M372.834 33.965C394.092 37.1186 410.891 49.1003 432.003 51.5336C441.629 52.6432 452.18 55.2031 461.797 54.2006C474.81 52.8379 481.76 46.4626 491.756 38.7148C500.37 32.0378 510.288 21.662 521.627 24.5723C535.196 28.0568 535.77 48.8861 551.713 49.402C559.539 49.6551 576.027 38.7927 581.799 34.7631C592.72 27.1419 600.798 6.50721 611.904 0.774279C619.477 -3.12879 628.84 -0.958244 636.043 2.45816C650.419 9.28122 655.977 14.3133 672.095 16.6201C682.14 18.0607 687.211 20.679 696.136 25.3607C708.712 31.9599 713.218 30.13 726.125 28.7284C748.044 26.334 764.863 32.466 785.849 37.469C807.359 42.5984 829.318 37.1672 850.974 33.965" stroke="#191919" stroke-width="0.2" stroke-linecap="round" stroke-linejoin="round"/>
<path d="M373.398 36.8168C394.607 40.1651 411.008 52.3026 432.363 54.8722C456.112 57.7338 471.51 60.7316 491.97 46.4723C501.577 39.7758 510.093 29.4974 521.773 33.235C535.458 37.615 534.436 55.5535 551.81 53.091C560.707 51.8354 575.19 42.5011 581.848 37.1478C591.97 29.0107 599.397 6.83817 611.914 2.52631C630.427 -3.85876 653.582 17.5837 671.998 20.1436C682.451 21.5939 686.529 23.1804 696.019 28.086C707.787 34.1694 713.676 33.05 725.959 32.1059C747.246 30.4804 765.146 32.4563 785.537 38.598C808.04 45.3822 827.332 40.4668 850.429 36.8168" stroke="#191919" stroke-width="0.2" stroke-linecap="round" stroke-linejoin="round"/>
<path d="M373.992 39.659C394.617 43.1338 410.259 55.3102 431.292 58.0258C451.1 60.5759 471.16 66.0558 489.264 55.68C499.796 49.6454 510.658 35.4542 524.109 41.703C532.986 45.8299 535.235 58.2204 547.508 57.5975C554.322 57.2568 577.633 44.6327 582.616 40.3208C594.355 30.169 594.442 10.2838 611.904 6.90631C631.507 3.1103 651.82 18.1386 670.382 22.7132C691.951 28.0276 705.792 37.4106 728.792 35.532C749.572 33.8287 767.024 33.2058 786.744 40.0872C809.432 48.0102 826.057 43.6496 849.816 39.6492" stroke="#191919" stroke-width="0.2" stroke-linecap="round" stroke-linejoin="round"/>
<path d="M374.613 42.4913C395.073 46.4917 410.393 58.4248 431.69 61.3351C450.086 63.8463 471.937 70.2605 489.486 62.2403C501.935 56.5463 509.663 43.3381 524.273 50.2877C533.938 54.8916 535.106 62.8729 547.623 60.3909C558.875 58.162 575.723 49.1003 582.673 40.3403C592.095 28.4559 594.898 13.4471 611.912 10.6633C631.632 7.43185 652.13 19.6861 670.263 25.5651C691.813 32.5439 705.186 41.226 728.576 39.2112C749.697 37.3911 766.468 32.5536 786.372 40.7393C796.904 45.0707 803.367 49.4312 815.047 48.2535C826.474 47.0952 837.91 44.4964 849.201 42.4816" stroke="#191919" stroke-width="0.2" stroke-linecap="round" stroke-linejoin="round"/>
<path d="M375.266 45.3043C386.488 48.273 393.292 53.5874 403.59 58.1426C412.749 62.1916 422.219 63.1942 432.118 64.625C449.677 67.1556 472.414 74.0663 489.73 68.1971C504.32 63.2428 508.311 50.9594 524.458 57.5683C534.445 61.6563 536.294 65.793 547.75 62.6686C565.066 57.9479 571.947 54.5899 582.722 39.4449C591.764 26.7331 594.908 17.4864 611.902 14.9071C631.885 11.8703 652.121 20.7374 670.127 28.4559C679.676 32.5439 689.458 40.1359 699.317 43.0073C708.632 45.7131 718.93 43.7567 728.323 42.8904C750.135 40.8756 765.358 31.7458 785.954 41.2455C796.018 45.8883 802.841 51.9911 814.521 51.3876C825.773 50.8134 837.521 47.397 848.529 45.3141" stroke="#191919" stroke-width="0.2" stroke-linecap="round" stroke-linejoin="round"/>
<path d="M375.957 48.1075C396.29 55.4562 410.403 64.5373 432.556 67.8953C449.736 70.5039 472.706 77.5898 489.964 73.5407C506.617 69.6279 506.724 58.2691 524.634 63.311C534.348 66.046 537.881 67.0096 547.857 64.4011C568.677 58.9699 569.417 56.9356 582.761 38.2574C591.58 25.9058 596.329 21.1559 611.883 19.0535C632.294 16.299 651.985 21.8761 670.011 31.6095C679.54 36.7487 688.222 45.7715 699.133 47.9712C708.234 49.8108 719.028 47.4554 728.06 46.5307C739.624 45.3432 745.853 43.6301 756.871 38.9971C768.833 33.9649 774.08 36.0187 785.516 41.7127C795.045 46.4626 802.588 54.259 813.976 54.405C824.858 54.551 837.288 50.2099 847.829 48.1172" stroke="#191919" stroke-width="0.2" stroke-linecap="round" stroke-linejoin="round"/>
<path d="M376.688 50.9009C396.836 60.4396 410.472 67.5644 433.034 71.1657C449.999 73.8716 473.125 81.2105 490.246 78.2516C507.552 75.2635 506.413 64.9169 524.848 67.5157C533.881 68.7908 539.263 67.3016 548.014 65.7248C578.148 60.3131 580.143 27.4923 611.903 23.0247C632.548 20.1242 652.335 23.5795 669.943 34.9577C679.676 41.2552 686.636 50.9983 698.958 52.5848C707.923 53.7431 718.97 51.2903 727.817 50.1417C739.858 48.5747 745.396 46.2971 756.541 40.5252C768.474 34.3348 773.253 36.155 785.088 42.2772C794.335 47.0563 802.414 55.9525 813.432 56.9259C824.022 57.8603 836.977 53.0131 847.119 50.8912" stroke="#191919" stroke-width="0.2" stroke-linecap="round" stroke-linejoin="round"/>
<path d="M377.438 53.8988C396.155 64.4887 410.92 70.6012 432.178 74.1831C450.291 77.2393 475.627 84.9189 493.41 80.5486C504.526 77.8233 509.324 69.4526 521.481 69.4137C531.37 69.3845 539.974 69.3651 549.669 67.3405C566.731 63.7781 567.705 56.663 577.934 44.107C587.814 31.9696 596.895 28.8841 611.904 26.5189C630.942 23.5211 652.667 25.2925 668.464 37.1477C678.402 44.5937 683.707 53.49 696.691 55.8455C705.665 57.4709 715.758 55.0279 724.801 54.074C740.15 52.4485 744.9 47.5429 758.342 40.5739C769.691 34.6949 775.356 37.683 786.091 43.9026C794.822 48.964 803.232 57.5877 813.637 59.1159C823.964 60.6343 836.53 55.826 846.36 53.6652" stroke="#191919" stroke-width="0.2" stroke-linecap="round" stroke-linejoin="round"/>
<path d="M378.225 57.1693C396.358 68.5962 411.736 73.7062 432.692 77.4049C450.68 80.5877 476.307 88.0629 493.701 83.5174C504.738 80.6363 509.926 73.4823 521.694 72.1391C530.542 71.1269 541.346 70.134 549.814 68.6546C566.623 65.7151 566.487 53.7821 578.011 43.5329C586.06 36.3691 601.381 31.6582 611.902 30.1495C631.856 27.2782 652.899 28.0374 668.395 41.6543C677.797 49.9179 683.374 57.5781 696.495 59.6221C705.401 61.0042 715.592 58.9213 724.527 57.6949C739.37 55.6509 744.996 48.9349 757.961 42.2578C768.852 36.6514 775.072 38.8998 785.604 44.6522C794.617 49.5675 802.861 58.2789 813.032 60.7901C823.632 63.3986 835.448 58.785 845.58 56.449" stroke="#191919" stroke-width="0.2" stroke-linecap="round" stroke-linejoin="round"/>
<path d="M379.043 60.5953C396.485 72.1585 412.886 76.8695 433.238 80.6265C451.332 83.9651 477.077 90.8076 494.013 85.7268C500.048 82.9625 505.635 79.4293 510.754 75.1369C514.482 74.7962 518.2 74.4556 521.928 74.1149C531.701 71.9736 540.47 70.6498 549.97 69.0536C565.436 66.4548 566.011 51.7867 578.099 44.1655C585.292 39.6297 603.484 34.7436 611.913 33.7313C633.404 31.152 652.238 31.5705 668.288 46.6085C685.594 62.8243 700.876 65.8026 724.236 61.2961C747.888 56.7312 759.675 33.4296 785.088 45.5476C794.647 50.1028 802.316 58.4443 812.39 62.0067C823.418 65.9097 833.911 61.8217 844.773 59.2035" stroke="#191919" stroke-width="0.2" stroke-linecap="round" stroke-linejoin="round"/>
<path d="M379.891 64.0507C398.063 76.159 416.614 80.5779 437.872 84.5686C455.314 87.8487 481.507 94.7497 497.051 85.6295C506.453 80.1107 513.675 76.6943 524.246 73.5602C529.268 70.5818 534.729 68.8298 540.617 68.3042C544.267 69.151 547.907 70.0075 551.557 70.8543C558.088 66.7858 563.559 61.6466 567.997 55.4465C571.365 48.9543 576.854 45.6352 584.456 45.5087C593.722 42.287 602.005 38.5688 611.914 37.6052C620.859 36.739 630.417 36.9531 639.372 36.9531C652.317 36.9531 656.921 42.5108 666.839 50.3754C684.612 64.479 703.524 71.5259 726.777 64.0604C745.669 57.9966 758.303 38.4326 780.631 44.6035C792.701 47.942 801.247 58.7266 812.498 63.5933C823.234 68.2361 833.123 64.9851 843.947 61.9191" stroke="#191919" stroke-width="0.2" stroke-linecap="round" stroke-linejoin="round"/>
<path d="M380.775 67.4768C398.558 78.8843 417.791 83.9359 438.445 87.7806C457.464 91.3235 480.746 95.9468 497.371 86.0578C505.927 80.9672 515.29 76.558 524.488 73.531C533.822 70.465 543.001 72.6063 551.722 70.426C557.289 65.6275 562.75 60.7219 568.113 55.6995C572.055 50.2975 577.525 47.8933 584.523 48.4968C594.013 45.6644 601.703 41.9074 611.903 41.2163C620.702 40.6226 630.542 40.389 639.283 40.7588C652.024 41.2942 656.754 48.4189 666.653 55.534C683.297 67.4963 705.888 75.0786 726.416 66.5814C744.296 59.184 758.292 42.4719 780.056 46.4333C792.875 48.7596 800.886 59.3008 811.767 65.0727C822.338 70.6888 831.984 68.1679 843.031 64.6542" stroke="#191919" stroke-width="0.2" stroke-linecap="round" stroke-linejoin="round"/>
<path d="M381.68 70.7765C399.316 81.162 418.842 87.5081 439.028 90.9732C448.129 92.5402 456.539 92.0049 465.571 92.4721C482.838 93.3676 481.806 94.8276 497.691 86.8365C506.159 82.5733 516.185 76.1493 524.74 73.1222C529.149 68.2459 534.571 67.4088 541.014 70.611C544.635 70.358 548.266 70.1049 551.886 69.8616C556.568 64.6056 562.009 60.4494 568.229 57.3834C573.164 54.0449 578.624 51.9133 584.59 50.9886C594.003 47.7182 601.711 45.3725 611.892 44.954C620.283 44.6036 631.057 43.4648 639.194 44.5452C650.777 46.0928 657.045 54.9112 666.467 60.6052C682.946 70.5624 707.649 78.1544 726.055 68.6449C743.02 59.8752 758.652 46.959 779.471 48.7013C806.715 50.9789 811.377 78.203 842.105 67.3698" stroke="#191919" stroke-width="0.2" stroke-linecap="round" stroke-linejoin="round"/>
<path d="M382.625 73.891C400.262 83.1182 419.787 91.2261 439.653 94.1461C461.212 97.3191 478.683 96.667 498.033 88.2671C501.634 87.2159 505.236 86.155 508.837 85.1038C513.821 80.4221 519.213 76.3049 525.014 72.7522C534.231 69.5305 542.349 73.891 552.073 69.6959C563.334 64.8293 572.707 57.8018 584.679 53.198C593.916 49.6453 601.995 48.9639 611.903 48.7109C619.729 48.5162 631.818 46.7642 639.118 48.7011C649.503 51.4557 656.862 60.7899 666.303 65.3354C683.521 73.6379 708.39 80.4707 725.705 70.3773C741.269 61.2961 759.655 50.2195 778.898 51.4751C805.421 53.2174 811.622 82.0573 841.182 70.0658" stroke="#191919" stroke-width="0.2" stroke-linecap="round" stroke-linejoin="round"/>
<path d="M383.598 76.7723C419.679 94.0197 460.666 107.228 498.393 90.5644C508.603 86.0579 515.241 76.0033 525.305 72.8595C534.883 69.8713 542.124 74.3876 552.267 70.2801C573.252 61.7829 588.582 52.5265 611.903 52.4292C620.127 52.3903 631.262 50.7453 639.02 53.5096C648.909 57.0233 656.16 65.9683 666.127 69.6475C684.474 76.4121 708.068 82.3008 725.315 71.9348C740.383 62.8828 759.986 54.298 778.275 54.6387C804.263 55.1253 811.076 85.4544 840.208 72.7427" stroke="#191919" stroke-width="0.2" stroke-linecap="round" stroke-linejoin="round"/>
<path d="M384.602 79.3904C419.174 95.2265 461.826 111.063 498.754 93.9223C509.558 88.9096 514.444 76.9765 525.599 74.0273C534.943 71.5551 542.71 74.8644 552.463 71.9152C574.158 65.3549 588.641 56.1667 611.904 56.1667C620.907 56.1667 630.358 54.8429 638.914 58.6097C648.813 62.9703 655.217 70.8445 665.944 73.7451C685.313 78.9816 707.164 83.7607 724.918 73.4725C739.343 65.1116 760.532 57.9284 777.643 57.8213C796.302 57.7143 793.226 63.8171 808.693 74.5529C818.523 81.376 828.432 80.208 839.207 75.4095" stroke="#191919" stroke-width="0.2" stroke-linecap="round" stroke-linejoin="round"/>
<path d="M385.633 81.746C402.647 89.63 422.658 101.583 441.648 102.42C450.126 102.789 459.139 101.875 467.685 101.592C477.603 101.261 489.702 102.137 499.162 97.1539C510.005 91.4307 513.782 78.8455 525.9 76.0423C534.709 74.008 543.469 76.7334 552.676 74.6407C564.989 71.8375 573.155 64.9268 584.952 61.2379C593.469 58.571 603.192 59.8558 611.913 59.9044C621.676 59.9531 629.638 58.9214 638.836 63.6712C648.666 68.752 654.516 75.1274 665.768 77.366C685.984 81.3859 706.025 84.8899 724.518 75.1176C738.242 67.8663 761.164 60.9459 776.991 61.014C795.387 61.0919 792.564 67.876 807.865 78.0279C817.764 84.5979 827.594 82.6707 838.174 78.0863" stroke="#191919" stroke-width="0.2" stroke-linecap="round" stroke-linejoin="round"/>
<path d="M386.703 84.0624C403.59 92.0243 423.573 104.425 442.358 104.678C450.924 104.794 459.83 104.454 468.268 104.298C477.369 104.133 491.21 104.366 499.59 99.626C510.287 93.5719 513.392 81.6096 526.201 78.8648C534.776 77.0252 543.965 80.0912 552.88 78.3684C564.989 76.0227 573.311 67.9635 585.039 64.8294C593.507 62.5615 603.28 63.5056 611.903 63.5835C633.317 63.7782 645.561 77.434 665.544 80.539C686.451 83.7802 704.769 85.61 724.08 76.9182C737.103 71.049 761.884 63.4375 776.299 64.1383C793.654 64.9754 792.525 73.8522 806.998 81.8335C817.384 87.5664 826.387 85.0844 837.103 80.7044" stroke="#191919" stroke-width="0.2" stroke-linecap="round" stroke-linejoin="round"/>
<path d="M387.793 86.3789C404.914 94.5841 424.03 106.634 443.088 106.576C451.887 106.546 460.316 106.799 468.872 106.936C478.8 107.091 491.21 107.267 500.067 101.797C510.238 95.5088 513.557 85.5029 526.532 82.7386C535.243 80.8796 544.412 84.5101 553.104 82.5148C564.755 79.8381 573.271 71.409 585.136 68.9465C593.595 67.1945 603.338 67.3113 611.903 67.2626C632.703 67.1264 645.571 80.8893 665.329 83.6536C686.373 86.6028 703.912 86.2232 723.642 79.0594C736.178 74.5042 762.4 65.9292 775.598 67.3794C790.519 69.0146 793.634 79.9354 806.112 85.9701C816.498 90.9925 825.764 87.4106 836.013 83.3324" stroke="#191919" stroke-width="0.2" stroke-linecap="round" stroke-linejoin="round"/>
<path d="M388.961 88.783C406.656 97.397 424.127 108.289 443.876 108.308C461.348 108.328 485.204 114.868 500.583 104.035C509.995 97.397 514.492 89.8245 526.873 87.2062C535.555 85.3666 544.792 88.3645 553.337 86.009C565.222 82.7386 572.853 76.2952 585.243 73.8813C593.556 72.2558 603.454 71.6231 611.903 71.1949C632.061 70.1729 645.863 83.5368 665.086 86.5638C685.672 89.8148 703.562 87.5761 723.165 81.6874C735.954 77.8427 761.709 69.3066 774.849 71.3019C787.736 73.2583 793.79 85.9603 805.168 90.4377C815.466 94.4867 825.16 89.7855 834.845 86.0285" stroke="#191919" stroke-width="0.2" stroke-linecap="round" stroke-linejoin="round"/>
<path d="M390.158 91.1776C408.457 100.327 424.254 109.612 444.684 110.002C463.742 110.362 484.202 118.47 501.138 106.556C509.868 100.405 516.195 94.1462 527.242 91.674C535.934 89.7273 544.977 91.674 553.6 88.9389C567.363 84.5589 571.227 81.6876 585.37 79.9258C594.432 78.7968 602.851 76.6165 611.922 75.4777C631.418 73.0249 646.369 85.542 664.862 89.2406C685.01 93.2605 703.182 89.3866 722.688 84.8119C735.818 81.7362 760.92 72.3728 774.09 75.5264C786.237 78.4269 792.271 91.6253 804.214 95.0027C814.278 97.8546 824.576 92.219 833.667 88.7248" stroke="#191919" stroke-width="0.2" stroke-linecap="round" stroke-linejoin="round"/>
<path d="M391.385 93.5817C410.151 103.072 424.663 110.849 445.531 111.832C466.4 112.815 482.469 121.507 501.712 109.574C509.985 104.444 518.123 98.5846 527.622 95.9664C536.353 93.5622 545.123 94.4188 553.854 91.4014C570.06 85.795 568.862 85.1818 585.477 87.0311C595.921 88.1991 602.189 82.0964 611.903 79.9161C630.747 75.6821 646.768 87.2453 664.58 91.6545C684.202 96.5114 702.783 92.2677 722.143 88.2381C735.672 85.4252 759.801 75.575 773.253 79.6922C785.302 83.3812 790.364 97.0857 803.183 99.4411C812.643 101.183 824.129 94.6329 832.422 91.3722" stroke="#191919" stroke-width="0.2" stroke-linecap="round" stroke-linejoin="round"/>
<path d="M392.65 95.9859C411.553 105.671 425.452 112.104 446.398 113.963C468.191 115.9 481.535 124.543 502.277 113.379C520.04 103.821 535.633 100.327 554.126 93.6401C571.559 87.3329 568.853 92.3359 585.604 95.178C596.369 97.0079 602.628 88.0824 611.913 84.8801C630.484 78.4659 646.593 88.8903 664.356 93.9321C683.852 99.4607 702.131 95.4603 721.627 91.6935C735.546 88.9973 758.692 78.8747 772.435 83.7219C784.349 87.9169 788.982 101.816 802.161 103.685C810.648 104.882 823.847 97.0079 831.176 94.0392" stroke="#191919" stroke-width="0.2" stroke-linecap="round" stroke-linejoin="round"/>
<path d="M393.936 98.3899C412.701 108.133 426.601 113.554 447.274 116.416C468.259 119.326 482.334 128.369 502.822 117.954C520.07 109.184 535.429 100.745 554.39 95.7619C572.795 90.9244 568.951 101.135 585.711 104.064C596.214 105.904 603.621 94.117 611.894 90.175C630.202 81.4636 646.087 90.4183 664.113 96.0636C683.843 102.244 701.149 98.896 721.073 95.1C735.196 92.4136 757.641 82.1839 771.579 87.4107C783.142 91.7518 788.058 105.943 801.091 107.461C808.819 108.357 823.205 99.4508 829.872 96.6476" stroke="#191919" stroke-width="0.2" stroke-linecap="round" stroke-linejoin="round"/>
<path d="M395.258 100.794C413.741 110.518 428.001 115.18 448.178 119.034C467.275 122.674 484.162 132.651 503.376 123.103C520 114.849 535.642 101.689 554.67 98.0978C572.56 94.7106 570.224 112.26 585.836 113.311C595.92 113.992 604.34 100.2 611.893 95.7131C629.841 85.0551 645.414 91.8295 663.908 98.1367C684.133 105.038 699.863 102.497 720.517 98.5066C734.679 95.7715 756.695 85.4736 770.702 90.7199C782.012 94.9539 787.248 109.028 799.999 110.42C807.611 111.248 822.026 102.098 828.537 99.2658" stroke="#191919" stroke-width="0.2" stroke-linecap="round" stroke-linejoin="round"/>
<path d="M396.611 103.198C414.628 112.815 429.568 117.136 449.103 121.847C466.808 126.12 485.983 136.846 503.931 127.346C518.959 119.394 536.849 102.877 554.963 101.164C571.403 99.6065 571.003 122.519 585.973 122.373C595.152 122.275 605.158 106.021 611.903 101.388C629.462 89.3183 644.685 93.3479 663.704 100.385C684.377 108.036 698.569 106.176 719.953 101.913C734.008 99.1101 755.839 88.7343 769.826 93.6399C781.136 97.6111 786.363 110.907 798.909 112.396C807.202 113.379 820.216 105.018 827.204 101.884" stroke="#191919" stroke-width="0.2" stroke-linecap="round" stroke-linejoin="round"/>
<path d="M397.984 105.592C415.475 115.063 431.146 119.443 450.048 124.845C466.926 129.673 487.881 141.109 504.496 130.5C513.646 124.66 519.155 119.647 529.725 115.715C535.536 113.554 548.978 104.765 555.246 104.999C570.644 105.573 569.963 132.116 586.091 130.597C594.588 129.799 605.548 111.9 611.884 107.111C629.141 94.0877 643.936 95.0318 663.451 102.848C684.417 111.257 697.323 109.778 719.34 105.232C733.23 102.371 754.954 91.8587 768.883 96.1219C780.105 99.5578 785.712 112.016 797.742 113.798C806.989 115.17 817.987 108.036 825.794 104.415" stroke="#191919" stroke-width="0.2" stroke-linecap="round" stroke-linejoin="round"/>
<path d="M399.395 107.997C416.438 117.351 432.683 121.964 451.04 127.863C468.511 133.469 489.087 144.906 505.108 132.71C514.228 125.77 519.066 123.375 530.201 119.91C536.274 118.022 549.045 109.408 555.566 110.235C570.662 112.153 567.84 141.392 586.245 137.177C595.151 135.133 604.963 118.373 611.893 112.912C629.15 99.3341 643.176 97.1344 663.187 105.817C684.133 114.907 696.407 113.272 718.726 108.571C732.761 105.612 753.717 95.2169 767.937 98.351C779.092 100.804 785.331 112.717 796.583 114.937C806.696 116.932 815.65 111.228 824.401 106.994" stroke="#191919" stroke-width="0.2" stroke-linecap="round" stroke-linejoin="round"/>
<path d="M400.836 110.391C417.392 119.774 434.153 124.689 452.043 130.86C459.995 133.605 468.015 136.428 476.172 138.52C491.044 142.326 493.098 144.273 505.722 134.257C514.765 127.084 519.602 127.084 530.679 124.485C537.112 122.976 548.841 115.024 555.888 117.701C570.498 123.258 567.072 148.662 586.402 142.384C595.668 139.377 604.389 124.67 611.913 118.791C629.511 105.038 642.427 99.879 662.925 109.496C683.395 119.093 696.145 116.64 718.123 111.909C732.061 108.912 752.852 98.2925 766.994 100.434C778.402 102.157 784.777 113.223 795.406 115.949C805.85 118.616 813.675 114.489 822.971 109.554" stroke="#191919" stroke-width="0.2" stroke-linecap="round" stroke-linejoin="round"/>
<path d="M402.314 112.785C418.316 122.305 435.612 127.609 453.074 133.839C460.899 136.632 468.9 139.786 477.018 141.664C493.204 145.402 492.562 145.178 506.354 135.367C515.28 129.011 520.876 131.055 531.164 129.4C540.265 127.93 546.913 121.798 556.198 126.626C570.711 134.17 567.032 154.473 586.557 146.726C595.872 143.027 603.911 130.773 611.912 124.874C619.154 119.54 628.936 111.987 637.258 108.97C648.256 104.979 652.636 108.824 662.613 113.807C682.187 123.589 696.436 119.969 717.49 115.219C731.457 112.065 751.887 101.407 766.01 102.507C790.46 104.415 795.074 127.843 821.51 112.085" stroke="#191919" stroke-width="0.2" stroke-linecap="round" stroke-linejoin="round"/>
<path d="M403.814 115.17C419.203 124.894 437.112 130.549 454.116 136.788C461.738 139.581 469.845 143.28 477.875 144.769C495.794 148.098 490.967 144.039 506.988 136.36C515.495 132.281 522.804 135.493 531.642 134.637C542.982 133.527 546.632 128.252 556.501 136.35C568.561 146.229 569.67 157.423 586.694 150.23C595.746 146.395 603.679 136.642 611.903 131.289C620.099 125.955 628.723 119.443 637.084 114.654C648.364 108.191 651.586 113.292 662.283 118.625C681.321 128.125 696.72 123.473 716.829 118.479C730.923 114.975 750.779 104.687 764.999 104.736C787.824 104.814 795.776 130.977 820.002 114.567" stroke="#191919" stroke-width="0.2" stroke-linecap="round" stroke-linejoin="round"/>
<path d="M405.342 117.545C420.127 127.473 438.61 133.459 455.176 139.718C462.428 142.463 470.944 146.95 478.751 147.865C495.959 149.889 491.92 142.433 507.649 137.664C515.085 135.416 524.672 140.165 532.138 140.136C544.918 140.088 546.894 137.245 556.822 146.307C568.531 156.994 571.675 159.837 586.839 152.994C595.482 149.101 603.571 142.667 611.912 138.17C621.47 133.021 627.885 126.977 636.908 120.845C648.013 113.301 650.865 118.927 661.951 123.813C681.496 132.427 696.427 127.463 716.156 121.721C730.289 117.604 749.551 108.376 763.966 107.403C785.107 105.982 796.417 133.488 818.463 117.02" stroke="#191919" stroke-width="0.2" stroke-linecap="round" stroke-linejoin="round"/>
<path d="M406.9 119.92C421.52 129.838 439.906 136.262 456.287 142.628C463.003 145.237 472.299 150.677 479.667 150.94C493.722 151.437 495.308 141.314 508.351 139.708C514.863 138.9 526.046 144.886 532.665 145.694C545.571 147.281 547.236 147.923 557.183 155.943C569.272 165.686 574.022 161.17 587.006 155.145C595.153 151.369 603.689 148.974 611.923 145.616C623.428 140.915 626.543 135.085 636.685 127.347C647.265 119.278 650.458 125.264 661.612 129.177C682.782 136.603 695.26 132.116 715.457 124.952C729.142 120.105 748.647 112.007 762.897 110.352C782.899 108.036 796.467 135.279 816.917 119.492" stroke="#191919" stroke-width="0.2" stroke-linecap="round" stroke-linejoin="round"/>
<path d="M408.486 122.285C423.213 132.067 441.044 138.988 457.396 145.519C463.519 147.962 473.758 154.288 480.581 153.987C491.765 153.5 497.877 141.392 509.041 142.881C516.098 143.815 526.318 149.48 533.19 151.271C543.848 154.055 548.286 160.576 557.543 164.82C570.371 170.689 575.705 161.997 587.151 157.403C595.376 154.103 603.62 155.632 611.923 153.451C625.053 149.996 625.569 143.115 636.052 134.189C645.941 125.77 650.058 131.386 661.164 134.549C667.967 136.486 678.538 140.379 685.75 140.117C698.929 139.649 703.153 133.508 714.755 128.252C727.088 122.665 748.481 115.092 761.816 113.282C781.244 110.644 795.854 136.837 815.32 121.935" stroke="#191919" stroke-width="0.2" stroke-linecap="round" stroke-linejoin="round"/>
<path d="M410.092 124.689C425.13 134.179 442.114 141.654 458.525 148.4C464.501 150.852 474.702 157.14 481.496 156.459C493.896 155.232 496.261 143.26 509.742 146.91C516.925 148.857 526.775 154.58 533.725 157.267C541.57 160.294 549.96 170.368 557.941 172.519C569.193 175.556 577.972 163.331 587.297 160.255C596.3 157.286 603.172 162.678 611.932 161.462C624.692 159.681 626.532 151.252 635.448 142.277C644.461 133.216 648.909 136.398 660.53 139.377C667.402 141.139 678.372 146.881 685.253 146.833C699.094 146.735 702.705 138.404 714.044 132.077C725.062 125.935 748.267 117.779 760.725 116.212C780.056 113.768 794.627 138.17 813.704 124.475" stroke="#191919" stroke-width="0.2" stroke-linecap="round" stroke-linejoin="round"/>
<path d="M411.736 127.025C427.027 136.272 443.224 144.292 459.683 151.242C466.155 153.977 474.993 159.213 482.439 158.211C496.786 156.293 494.84 145.334 510.462 151.495C518.005 154.473 526.921 159.681 534.289 163.37C541.608 167.039 549.697 177.648 558.388 178.661C568.871 179.877 578.342 166.105 587.452 163.72C597.39 161.121 602.665 169.94 611.941 169.356C623.135 168.645 627.787 159.447 634.98 151.154C643.02 141.878 647.293 140.603 659.839 143.533C667.558 145.334 677.145 153.938 684.756 154.084C698.5 154.347 702.997 143.27 713.333 136.398C723.651 129.536 747.274 120.65 759.635 119.453C778.683 117.603 793.507 139.464 812.088 126.899" stroke="#191919" stroke-width="0.2" stroke-linecap="round" stroke-linejoin="round"/>
<path d="M413.412 129.322C428.732 138.53 444.461 146.949 460.862 154.074C468.367 157.335 475.024 160.819 483.405 159.603C498.783 157.374 494.87 148.731 511.183 156.43C524.022 162.484 545.328 184.102 558.809 183.313C570.08 182.651 577.049 169.862 587.58 167.886C597.732 165.988 602.492 177.133 611.923 176.879C633.346 176.286 634.602 143.377 658.877 147.971C668.532 149.801 674.879 160.508 684.223 161.725C696.321 163.311 704.848 147.417 712.576 141.197C722.669 133.079 745.338 123.95 758.478 123.161C776.942 122.052 792.457 140.905 810.386 129.274" stroke="#191919" stroke-width="0.2" stroke-linecap="round" stroke-linejoin="round"/>
<path d="M415.105 131.6C430.231 140.983 445.727 149.743 462.059 156.877C481.526 165.384 493.323 152.137 511.923 161.472C526.182 168.626 543.78 189.718 559.227 187.586C569.719 186.146 577.263 173.755 587.746 173.044C597.674 172.373 602.482 183.372 611.923 183.634C620.703 183.878 628.334 175.672 634.251 169.161C636.841 165.764 639.43 162.357 642.009 158.96C646.019 149.538 651.265 147.378 657.748 152.497C668.094 154.006 673.477 168.246 683.697 169.414C695.056 170.718 705.315 152.458 711.826 146.326C722.241 136.525 742.691 127.376 757.329 127.171C775.171 126.928 791.396 142.492 808.702 131.551" stroke="#191919" stroke-width="0.2" stroke-linecap="round" stroke-linejoin="round"/>
<path d="M416.828 133.868C431.516 143.523 447.06 152.848 463.295 159.652C472.483 163.506 476.377 163 485.429 162.27C500.35 161.073 498.043 159.175 512.701 166.436C528.596 174.31 541.678 195.13 559.655 191.703C569.826 189.767 577.136 179.157 587.93 179.021C597.187 178.904 602.725 188.998 611.894 189.27C620.119 189.513 628.051 183.206 633.969 177.464C636.539 174.339 639.099 171.215 641.668 168.09C644.384 155.359 649.455 152.069 656.891 158.221C666.975 159.583 672.941 177.376 683.132 176.841C694.773 176.237 704.273 158.873 711.028 151.748C722.143 140.029 739.537 130.851 756.132 131.425C773.545 132.028 790.111 144.351 806.979 133.81" stroke="#191919" stroke-width="0.2" stroke-linecap="round" stroke-linejoin="round"/>
<path d="M418.58 136.146C432.693 145.947 448.471 156.177 464.541 162.426C473.632 165.959 477.876 164.07 486.47 164.012C499.357 163.924 501.537 164.82 513.461 171.224C529.647 179.907 540.188 200.055 560.044 195.811C570.605 193.553 576.649 185.046 588.115 185.474C596.69 185.786 603.007 193.971 611.865 194.185C619.603 194.37 627.827 190.039 633.755 185.085C636.305 182.243 638.855 179.391 641.405 176.549C643.537 164.178 648.481 160.528 656.229 165.618C666.868 166.523 671.997 184.695 682.577 183.751C693.138 182.807 704.477 163.993 710.249 157.413C722.309 143.65 736.091 134.432 754.935 135.931C772.221 137.304 788.622 146.473 805.227 136.068" stroke="#191919" stroke-width="0.2" stroke-linecap="round" stroke-linejoin="round"/>
<path d="M420.361 138.423C433.949 148.186 449.951 159.515 465.806 165.151C474.284 168.158 479.579 165.599 487.551 166.192C498.063 166.981 505.012 170.387 514.249 175.653C531.136 185.27 538.797 204.542 560.453 199.879C571.559 197.485 576.416 191.197 588.329 191.995C596.428 192.54 603.299 198.361 611.894 198.419C619.447 198.468 627.282 195.889 633.619 191.82C642.739 185.97 644.033 174.368 656.073 174.407C666.877 174.437 671.549 190.857 682.023 189.669C691.912 188.54 704.234 169.472 709.451 163.194C722.435 147.572 732.801 138.053 753.718 140.555C771.121 142.628 787.006 148.721 803.446 138.297" stroke="#191919" stroke-width="0.2" stroke-linecap="round" stroke-linejoin="round"/>
<path d="M422.162 140.701C435.331 150.424 451.411 162.562 467.091 167.691C474.81 170.212 481.224 167.789 488.641 168.937C497.002 170.232 507.825 175.332 515.038 179.624C532.694 190.136 537.687 208.182 560.833 203.929C572.24 201.836 576.601 197.563 588.524 198.361C596.428 198.896 603.475 202.215 611.894 202.001C619.291 201.816 626.815 200.921 633.521 197.641C642.116 193.426 645.143 183.42 655.986 182.973C666.118 182.554 671.316 195.48 681.439 194.147C691.629 192.794 703.232 175.712 708.634 169.025C722.445 151.914 729.94 141.927 752.482 145.246C770.158 147.845 785.371 151.028 801.645 140.506" stroke="#191919" stroke-width="0.2" stroke-linecap="round" stroke-linejoin="round"/>
<path d="M424.002 142.978C436.899 152.721 452.822 165.297 468.405 170.124C484.582 175.127 500.321 173.794 515.875 183.401C533.774 194.458 537.249 210.897 561.252 207.987C572.25 206.654 577.506 203.88 588.758 204.405C596.71 204.775 603.601 206.079 611.904 205.515C619.107 205.028 626.64 205.116 633.512 202.634C641.698 199.675 646.195 191.606 655.947 191.11C665.145 190.633 671.287 198.906 680.865 197.368C692.214 195.548 701.373 182.934 707.816 174.884C722.397 156.683 727.487 146.258 751.227 150.006C769.204 152.848 783.785 153.383 799.806 142.735" stroke="#191919" stroke-width="0.2" stroke-linecap="round" stroke-linejoin="round"/>
<path d="M425.85 145.207C438.561 155.087 454.232 167.769 469.757 172.509C485.622 177.356 502.237 177.707 516.749 187.771C533.86 199.626 538.192 213.272 561.669 211.949C578.381 211.005 595.229 210.79 611.893 208.912C618.978 208.114 626.648 208.532 633.578 206.751C641.521 204.717 647.166 198.994 656.023 198.546C664.55 198.108 671.538 202.215 680.23 200.444C692.29 197.991 699.405 189.903 706.929 180.646C713.538 172.509 719.037 159.797 728.683 155.203C736.625 151.427 741.55 153.49 749.911 154.687C768.268 157.315 782.09 155.807 797.945 144.964" stroke="#191919" stroke-width="0.2" stroke-linecap="round" stroke-linejoin="round"/>
<path d="M427.738 147.407C440.411 157.559 455.566 169.842 471.11 174.855C486.946 179.955 503.765 181.873 517.626 192.55C533.52 204.795 540.1 215.657 562.087 215.832C578.624 215.969 595.56 214.528 611.903 212.211C626.483 210.148 641.638 205.778 656.102 204.765C677.466 203.257 690.957 204.24 706.092 186.253C721.393 168.061 724.225 156.78 748.627 159.389C767.295 161.374 780.455 158.347 796.067 147.173" stroke="#191919" stroke-width="0.2" stroke-linecap="round" stroke-linejoin="round"/>
<path d="M429.646 149.597C442.397 160.109 456.871 171.584 472.483 177.181C488.514 182.943 505.09 186.116 518.522 197.456C532.761 209.476 542.835 218.246 562.526 219.541C579.365 220.65 595.444 217.935 611.913 215.385C641.191 210.849 683.891 215.55 705.236 191.655C720.663 174.397 723.408 162.737 747.323 164.022C766.03 165.034 778.976 160.975 794.17 149.373" stroke="#191919" stroke-width="0.2" stroke-linecap="round" stroke-linejoin="round"/>
<path d="M431.584 151.758C444.344 162.601 458.273 173.405 473.866 179.576C489.935 185.931 506.55 190.224 519.418 202.254C546.885 227.94 577.711 223.804 611.904 218.441C640.315 213.983 682.558 219.103 704.351 196.794C719.876 180.909 722.873 168.888 745.98 168.587C764.61 168.343 777.477 163.662 792.223 151.573" stroke="#191919" stroke-width="0.2" stroke-linecap="round" stroke-linejoin="round"/>
<path d="M433.539 153.889C446.241 165.005 459.77 175.351 475.266 182.077C491.667 189.202 506.967 194.633 520.321 206.751C547.964 231.824 578.76 226.383 611.893 221.38C640.411 217.069 679.948 221.614 703.444 201.583C719.563 187.839 722.269 175.021 744.616 173.035C763.051 171.39 775.919 166.309 790.256 153.753" stroke="#191919" stroke-width="0.2" stroke-linecap="round" stroke-linejoin="round"/>
<path d="M435.525 156.002C461.669 179.547 494.597 189.173 521.286 210.82C533.628 220.826 548.413 226.432 563.908 229.089C581.934 232.175 594.48 226.646 611.903 224.242C640.149 220.358 678.197 224.028 702.52 205.943C718.454 194.088 722.396 180.802 743.225 177.269C761.524 174.164 774.06 168.713 788.281 155.895" stroke="#191919" stroke-width="0.2" stroke-linecap="round" stroke-linejoin="round"/>
<path d="M437.541 158.094C463.072 181.785 494.997 193.708 522.211 214.372C534.719 223.862 549.095 229.323 564.376 232.087C582.363 235.348 594.472 229.157 611.904 227.113C640.209 223.804 676.504 226.091 701.597 209.759C717.024 199.724 722.922 186.165 741.834 181.415C759.841 176.899 772.202 171.049 786.267 158.007" stroke="#191919" stroke-width="0.2" stroke-linecap="round" stroke-linejoin="round"/>
<path d="M439.574 160.158C464.394 183.897 495.551 197.689 523.145 217.331C536.139 226.588 549.22 232.184 564.862 235.056C582.586 238.316 594.636 231.561 611.903 229.975C640.869 227.318 674.255 227.571 700.671 213.136C715.66 204.941 723.447 191.187 740.432 185.532C757.981 179.692 770.42 173.229 784.241 160.109" stroke="#191919" stroke-width="0.2" stroke-linecap="round" stroke-linejoin="round"/>
</g>
</g>
<defs>
<clipPath id="clip0_1478_53599">
<rect width="494.95" height="531.148" fill="white" transform="translate(360.773 -294.72)"/>
</clipPath>
</defs>
</svg>
