<svg width="580" height="400" viewBox="0 0 580 400" fill="none" xmlns="http://www.w3.org/2000/svg">
<mask id="mask0_1478_53565" style="mask-type:alpha" maskUnits="userSpaceOnUse" x="0" y="0" width="580" height="400">
<path d="M0 20C0 8.95431 8.95431 0 20 0H430C441.046 0 450 8.95431 450 20V50C450 61.0457 458.954 70 470 70H560C571.046 70 580 78.9543 580 90V380C580 391.046 571.046 400 560 400H20C8.95432 400 0 391.046 0 380V20Z" fill="#97C3E9"/>
</mask>
<g mask="url(#mask0_1478_53565)">
<g clip-path="url(#clip0_1478_53565)">
<path d="M436.09 257.754C450.193 251.32 466.584 246.853 479.588 238.346C495.463 227.95 503.182 208.863 519.174 198.244C544.071 181.717 575.199 155.661 605.109 171.906C619.174 179.547 637.317 188.842 648.228 200.288C661.67 214.382 672.843 216.961 690.509 223.648C705.002 229.128 723.486 235.757 735.234 246.142C744.958 254.746 746.038 267.331 754.419 277.045C762.624 286.545 776.494 290.643 786.928 297.038" stroke="#191919" stroke-width="0.2" stroke-linecap="round" stroke-linejoin="round"/>
<path d="M433.424 259.019C447.81 252.663 464.113 248.264 477.681 240.283C493.994 230.695 502.92 213.01 518.445 202.147C542.184 185.542 577.02 156.965 605.13 172.831C620.829 181.698 636.354 192.638 648.608 205.71C660.863 218.782 675.19 220.465 691.425 226.451C706.142 231.883 725.307 238.375 736.685 249.461C745.504 258.056 747.226 272.14 756.132 280.491C764.951 288.755 779.006 292.064 788.973 299.091" stroke="#191919" stroke-width="0.2" stroke-linecap="round" stroke-linejoin="round"/>
<path d="M430.834 260.411C446.475 253.364 463.995 248.897 478.965 240.536C494.792 231.688 504.827 215.307 519.553 204.61C531.662 195.821 545.24 187.956 558.409 180.929C576.503 171.273 585.857 161.929 605.119 173.823C622.133 184.326 633.901 196.239 648.014 209.885C661.183 222.626 677.662 223.931 694.52 230.102C706.969 234.666 725.209 240.214 735.224 249.169C745.921 258.737 747.177 274.33 758.701 283.207C768.542 290.789 781.604 292.19 790.987 301.184" stroke="#191919" stroke-width="0.2" stroke-linecap="round" stroke-linejoin="round"/>
<path d="M428.314 261.91C444.16 254.522 461.301 249.967 477.03 242.414C493.791 234.365 504.332 219.268 518.98 208.221C530.972 199.169 544.832 191.937 557.836 184.481C576.018 174.057 585.031 162.484 605.111 174.797C623.351 185.98 632.812 201.534 648.375 214.976C661.068 225.936 679.61 227.289 695.456 232.953C708.06 237.46 726.914 242.93 736.628 252.556C747.568 263.409 747.568 277.152 761.428 285.494C772.008 291.869 783.873 294.186 792.974 303.296" stroke="#191919" stroke-width="0.2" stroke-linecap="round" stroke-linejoin="round"/>
<path d="M425.881 263.526C441.532 255.389 458.867 250.97 475.093 244.205C492.788 236.827 503.738 223.24 518.532 211.813C530.475 202.585 544.53 195.967 557.33 188.005C575.054 176.977 584.573 163.837 605.081 175.828C612.031 179.897 621.239 185.63 626.864 191.139C635.381 199.471 639.138 212.319 648.677 219.628C661.213 229.226 681.04 230.501 696.351 235.844C709.977 240.594 728.004 245.899 737.98 256.858C749.826 269.882 748.054 279.79 764.591 287.898C775.366 293.183 785.907 297.047 794.93 305.447" stroke="#191919" stroke-width="0.2" stroke-linecap="round" stroke-linejoin="round"/>
<path d="M423.506 265.239C438.816 256.576 456.706 252.04 473.126 245.928C491.688 239.017 502.979 227.182 518.124 215.297C530.037 205.953 544.258 199.724 556.882 191.285C573.769 179.985 584.456 166.124 605.033 176.977C612.887 181.123 621.677 187.586 627.409 194.166C635.391 203.325 638.613 216.524 648.949 223.648C661.817 232.515 682.072 233.596 697.227 238.745C712.119 243.806 729.483 248.828 739.314 261.715C750.848 276.841 750.322 282.233 768.017 290.4C778.588 295.276 787.893 299.928 796.867 307.608" stroke="#191919" stroke-width="0.2" stroke-linecap="round" stroke-linejoin="round"/>
<path d="M421.219 267.049C435.974 258.202 453.855 253.646 470.002 248.021C488.671 241.509 500.896 232.613 515.973 220.261C528.83 209.72 544.063 203.306 557.583 193.475C573.127 182.175 585.118 169.619 605.013 178.018C628.149 187.791 629.405 215.015 648.249 227.727C661.398 236.594 685.226 237.265 700.273 242.404C717.453 248.274 731.274 253.257 741.757 268.646C756.25 289.893 779.074 294.118 798.775 309.788" stroke="#191919" stroke-width="0.2" stroke-linecap="round" stroke-linejoin="round"/>
<path d="M419 268.957C433.775 259.856 451.685 255.194 468.017 249.695C487.192 243.242 499.757 235.932 515.418 223.356C528.597 212.766 543.82 206.917 557.233 196.366C571.385 185.241 585.859 172.714 604.897 179.537C628.325 187.927 629.016 218.49 648.619 230.53C662.898 239.3 685.275 240.068 701.14 245.354C720.159 251.69 731.109 257.219 743.062 273.658C756.815 292.58 782.151 297.758 800.663 311.988" stroke="#191919" stroke-width="0.2" stroke-linecap="round" stroke-linejoin="round"/>
<path d="M416.848 270.943C431.691 261.637 449.503 256.858 466.001 251.388C485.584 244.886 498.471 238.803 514.726 226.169C528.372 215.56 543.478 210.353 556.93 199.169C569.982 188.326 586.587 176.189 604.779 181.357C627.827 187.898 628.781 221.838 649.085 233.012C664.726 241.616 685.147 242.823 702.034 248.313C709.12 250.619 716.946 252.615 723.457 256.216C733.609 261.822 737.142 269.911 744.374 278.252C758.838 294.925 784.651 300.863 802.512 314.217" stroke="#191919" stroke-width="0.2" stroke-linecap="round" stroke-linejoin="round"/>
<path d="M414.775 273.016C429.697 263.565 447.372 258.571 464.026 253.121C483.902 246.609 497.139 241.081 513.939 228.68C528.149 218.198 543.022 213.516 556.678 201.943C568.62 191.83 587.62 179.615 604.634 183.557C625.93 188.491 629.931 225.03 649.485 235.834C665.399 244.614 685.664 245.869 702.882 251.32C710.094 253.607 717.998 255.554 724.519 259.428C734.262 265.219 737.815 274.739 745.65 282.185C761.36 297.106 786.238 303.462 804.138 316.29" stroke="#191919" stroke-width="0.2" stroke-linecap="round" stroke-linejoin="round"/>
<path d="M412.77 275.147C428.1 265.346 446.077 260.08 463.247 254.513C483.862 247.836 497.557 241.83 515.223 229.323C528.694 219.784 542.719 216.874 555.353 205.554C566.206 195.821 589.001 182.272 604.565 187.032C624.927 193.261 629.326 228.028 650.788 239.076C666.352 247.086 684.719 248.624 701.45 253.637C708.955 255.885 717.063 257.822 723.837 261.813C733.454 267.478 737.59 277.143 745.718 284.19C762.079 298.361 786.607 305.788 805.013 317.711" stroke="#191919" stroke-width="0.2" stroke-linecap="round" stroke-linejoin="round"/>
<path d="M410.832 277.347C426.25 267.439 444.042 261.988 461.338 256.382C482.012 249.675 496.378 243.31 514.482 231.377C528.323 222.256 542.076 219.463 555.002 208.309C565.913 198.896 589.955 185.98 604.574 191.665C616.449 196.278 620.293 211.676 627.165 221.478C633.404 230.384 641.376 237.236 651.022 242.229C666.653 250.327 685.341 251.758 702.248 256.693C710.015 258.961 717.948 260.966 724.839 265.288C733.735 270.855 738.768 280.238 746.982 286.642C763.296 299.354 786.811 309.068 805.334 318.675" stroke="#191919" stroke-width="0.2" stroke-linecap="round" stroke-linejoin="round"/>
<path d="M408.955 279.605C424.451 269.648 442.068 263.974 459.452 258.318C480.057 251.612 495.212 244.332 513.637 233.168C527.721 224.641 541.192 221.361 554.663 211.102C566.635 201.982 590.667 189.747 604.595 196.969C616.187 202.975 619.03 217.38 626.894 226.714C633.036 234.014 642.876 241.266 651.208 245.597C666.84 253.715 686.053 254.941 703.028 259.778C723.76 265.677 731.742 277.347 748.833 289.173C763.54 299.344 787.845 314.431 805.306 319.385" stroke="#191919" stroke-width="0.2" stroke-linecap="round" stroke-linejoin="round"/>
<path d="M407.154 281.902C422.698 271.974 440.15 265.988 457.563 260.285C478.149 253.539 493.898 245.139 512.664 234.744C519.516 230.948 526.641 229.994 533.824 227.181C541.873 224.028 547.207 218.441 554.332 214.022C568.046 205.505 590.414 193.475 604.634 202.663C615.418 209.632 618.484 223.794 627.264 232.399C633.591 238.608 643.606 245.227 651.383 249.14C667.346 257.17 686.608 258.046 703.826 262.874C724.179 268.577 734.009 281.192 751.296 292.259C761.944 299.072 791.796 320.359 805.16 320.018" stroke="#191919" stroke-width="0.2" stroke-linecap="round" stroke-linejoin="round"/>
<path d="M405.402 284.248C419.924 275.069 435.936 269.064 452.122 263.574C472.932 256.527 489.81 247.602 509.306 237.83C524.013 230.452 538.467 226.529 552.95 218.042C568.309 209.039 589.878 196.463 604.897 209.642C621.794 224.466 631.284 243.397 652.61 253.909C667.57 261.277 686.19 261.248 702.123 265.336C725.24 271.254 739.256 287.09 759.491 298.955C771.765 306.148 790.969 319.95 805.072 320.758" stroke="#191919" stroke-width="0.2" stroke-linecap="round" stroke-linejoin="round"/>
<path d="M403.707 286.623C419.397 276.88 436.576 270.378 454.009 264.548C474.653 257.647 491.219 246.084 510.822 237.606C517.821 234.579 525.422 234.608 532.547 232.136C540.334 229.44 546.446 224.193 553.717 220.553C571.782 211.521 588.037 202.157 604.467 216.952C619.865 230.802 632.635 247.154 651.673 256.489C668.96 264.957 687.21 264.227 705.324 269.132C725.783 274.67 739.429 288.55 757.056 299.714C767.782 306.508 791.824 322.977 805.275 321.799" stroke="#191919" stroke-width="0.2" stroke-linecap="round" stroke-linejoin="round"/>
<path d="M402.072 289.027C417.792 279.44 434.913 272.675 452.277 266.757C472.873 259.73 489.925 246.619 509.859 239.173C524.722 233.615 538.514 231.065 553.396 224.31C560.492 221.088 572.707 214.879 580.494 213.827C591.97 212.29 595.532 215.696 604.127 223.97C618.736 238.024 633.473 251.398 651.83 260.401C669.875 269.259 687.22 267.439 706.054 272.296C727.282 277.775 741.688 292.59 759.996 303.851C771.705 311.054 791.727 323.775 805.967 323.318" stroke="#191919" stroke-width="0.2" stroke-linecap="round" stroke-linejoin="round"/>
<path d="M400.438 291.509C415.806 282.262 432.567 275.332 449.474 269.483C469.7 262.484 486.714 249.13 506.356 242.035C514.843 238.969 523.905 239.903 532.548 237.353C539.945 235.173 547.041 230.734 554.166 227.785C560.999 224.953 569.243 220.281 576.669 219.239C590.208 217.341 593.459 220.524 603.64 230.841C616.722 244.098 634.164 255.428 650.857 263.613C662.216 269.181 668.085 271.799 680.466 273.084C690.364 274.106 699.163 273.23 709.15 276.082C731.001 282.311 745.134 298.371 764.542 309.156C778.227 316.757 792.983 321.682 807.32 325.517" stroke="#191919" stroke-width="0.2" stroke-linecap="round" stroke-linejoin="round"/>
<path d="M398.676 294.556C414.551 283.664 433.404 277.279 451.353 270.777C469.359 264.256 484.31 252.916 501.781 245.879C518.26 239.251 537.415 238.501 554.604 231.98C561.855 229.226 569.214 223.794 577.166 223.356C589.537 222.665 594.131 230.656 603.446 238.083C619.301 250.736 636.85 260.791 654.828 270.213C672.708 279.586 688.573 274.077 707.563 278.71C731.828 284.628 746.419 302.693 768.007 313.633C775.57 317.468 786.179 322.111 794.238 324.758C800.468 326.802 802.171 323.386 808.907 327.97" stroke="#191919" stroke-width="0.2" stroke-linecap="round" stroke-linejoin="round"/>
<path d="M396.963 298.118C411.31 285.504 432.392 279.78 449.99 273.318C467.734 266.806 482.684 255.749 500.019 248.848C516.644 242.229 536.519 242.891 553.923 236.642C561.768 233.82 568.386 228.038 577.253 228.408C589.216 228.904 594.345 238.219 603.436 244.945C619.516 256.839 637.882 265.589 655.071 275.838C672.114 286 689.45 277.454 708.284 281.97C732.958 287.888 746.944 306.187 769.195 316.621C776.952 320.261 786.754 324.379 794.969 326.89C801.636 328.934 802.58 322.86 810.493 330.413" stroke="#191919" stroke-width="0.2" stroke-linecap="round" stroke-linejoin="round"/>
<path d="M395.279 302.099C410.356 289.319 429.112 283.119 447.547 276.393C465.934 269.687 482.519 257.199 501.032 251.651C516.829 246.921 534.32 248.186 550.107 242.881C559.471 239.737 567.258 231.289 577.877 233.06C588.155 234.773 595.192 246.668 603.261 251.729C619.633 261.998 636.958 271.828 654.079 280.939C672.202 290.584 686.89 280.754 706.697 284.696C732.539 289.845 748.259 309.35 771.395 320.008C784.175 325.897 800.935 325.109 812.002 332.905" stroke="#191919" stroke-width="0.2" stroke-linecap="round" stroke-linejoin="round"/>
<path d="M393.75 306.206C408.428 291.986 427.359 286.058 446.368 279.187C464.579 272.607 481.039 260.888 499.473 255.428C515.825 250.59 533.345 252.848 549.308 248.264C560.083 245.169 565.524 236.321 577.768 239.231C586.032 241.197 596.992 253.15 603.873 257.384C620.235 267.448 637.366 278.583 654.292 287.207C671.208 295.831 688.174 284.199 707.339 287.976C733.171 293.076 748.793 313.02 772.435 322.957C786.617 328.924 800.282 327.902 813.5 335.397" stroke="#191919" stroke-width="0.2" stroke-linecap="round" stroke-linejoin="round"/>
<path d="M392.418 310.217C407.096 294.945 425.579 289.037 445.231 282.068C463.286 275.673 479.697 264.694 497.995 259.418C514.912 254.532 532.315 258.396 548.531 254.133C559.5 251.252 564.737 241.996 577.283 245.237C583.834 246.93 598.113 258.601 604.118 261.832C613.189 266.709 621.94 272.704 630.593 278.145C638.068 282.846 646.584 290.244 654.498 293.543C665.185 297.991 669.127 294.41 679.318 291.061C689.781 287.625 697.616 289.124 707.963 291.295C733.678 296.687 749.135 316.913 773.449 325.955C788.35 331.494 800.439 330.579 814.971 337.927" stroke="#191919" stroke-width="0.2" stroke-linecap="round" stroke-linejoin="round"/>
<path d="M391.113 314.392C406.073 298.176 423.642 292.035 444.15 285.027C462.098 278.895 478.528 268.86 496.642 263.545C506.239 260.732 515.564 259.117 525.414 259.662C533.337 260.1 539.839 262.319 547.771 260.469C558.225 258.036 564.561 249.422 576.29 251.904C582.772 253.277 598.2 264.314 604.195 267.4C613.16 272.003 622.027 277.415 630.709 282.058C639.411 286.72 645.504 296.843 654.711 299.559C665.486 302.732 670.002 296.639 679.862 293.427C689.761 290.205 698.784 292.278 708.546 294.624C733.921 300.727 749.514 321.118 774.412 328.953C789.83 333.81 800.926 333.08 816.392 340.458" stroke="#191919" stroke-width="0.2" stroke-linecap="round" stroke-linejoin="round"/>
<path d="M389.818 318.675C405.148 301.739 421.666 294.955 443.089 288.015C460.998 282.214 477.438 273.171 495.406 267.721C505.947 264.519 514.191 263.097 524.294 264.606C532.49 265.833 538.291 269.103 547.051 267.108C557.679 264.694 563.315 257.141 575.199 258.922C582.645 260.041 597.421 269.21 603.903 272.86C612.537 277.736 622.795 281.951 630.874 286.73C639.537 291.859 644.832 302.975 654.993 304.698C665.554 306.489 670.946 298.332 680.465 295.578C689.459 292.969 700.292 295.519 709.179 297.953C733.989 304.766 749.923 325.488 775.424 331.961C791.182 335.961 801.772 335.572 817.822 343.008" stroke="#191919" stroke-width="0.2" stroke-linecap="round" stroke-linejoin="round"/>
<path d="M388.543 323.006C404.262 305.486 419.904 298.06 442.086 291.052C459.869 285.426 476.61 277.571 494.325 271.935C505.839 268.276 512.283 268.412 523.447 271.293C531.857 273.454 537.444 276.335 546.457 274.262C557.523 271.712 562.04 264.655 574.284 265.755C583.91 266.621 595.386 274.232 603.504 278.642C612.079 283.304 622.99 286.886 631 291.937C639.819 297.495 644.179 308.202 655.304 308.796C665.427 309.341 671.588 299.977 681.02 297.807C689.06 295.957 701.732 298.858 709.743 301.34C734.008 308.873 750.097 330.258 776.348 335.027C782.685 336.175 787.522 334.384 793.265 335.144C801.84 336.273 811.485 342.152 819.194 345.607" stroke="#191919" stroke-width="0.2" stroke-linecap="round" stroke-linejoin="round"/>
<path d="M387.238 327.464C414.579 297.106 455.537 288.93 493.4 276.179C506.267 271.848 510.209 273.269 522.415 277.941C530.26 280.939 537.433 285.299 546.32 282.301C558.029 278.35 560.414 271.682 573.641 272.325C584.981 272.87 593.634 279.868 603.124 284.628C612.215 289.183 622.649 291.675 631.136 297.262C640.247 303.257 643.838 312.407 655.664 311.803C665.31 311.307 671.86 301.807 681.535 300.337C689.312 299.15 702.491 302.303 710.307 304.727C734.387 312.192 750.155 335.776 777.272 338.083C793.819 339.494 803.913 340.682 820.547 348.352" stroke="#191919" stroke-width="0.2" stroke-linecap="round" stroke-linejoin="round"/>
<path d="M385.916 332.039C402.803 313.438 415.33 304.688 439.031 297.583C457.047 292.181 476.738 283.07 494.939 279.605C507.437 277.23 511.301 277.746 523.078 285.397C532.636 291.616 536.753 292.512 547.48 288.171C557.807 283.995 562.352 278.262 574.324 278.914C586.228 279.557 592.847 285.543 602.823 290.507C610.104 294.127 618.757 294.789 625.901 298.644C635.537 303.841 642.253 317.069 654.809 314.908C667.569 312.708 671.2 304.065 685.051 303.948C691.942 303.89 707.213 306.304 713.501 309.087C728.043 315.541 736.16 328.807 751.773 334.161C759.783 336.905 770.928 340.838 779.133 341.305C783.844 341.568 787.046 339.202 791.816 339.679C801.529 340.643 813.482 346.882 821.872 351.583" stroke="#191919" stroke-width="0.2" stroke-linecap="round" stroke-linejoin="round"/>
<path d="M384.631 336.584C401.752 318.042 414.074 307.686 438.154 300.707C455.84 295.587 476.436 286.526 494.287 283.761C517.257 280.209 526.017 304.844 547.314 294.994C557.719 290.176 561.768 283.898 574.411 284.637C586.111 285.328 592.36 291.957 602.521 296.123C610.23 299.286 618.484 299.218 626.037 303.316C636.968 309.253 641.776 319.132 655.276 315.794C669.253 312.338 670.557 306.8 685.43 307.491C694.569 307.92 706.425 309.983 714.464 314.392C729.726 322.763 734.7 333.489 752.249 337.577C760.941 339.602 770.236 343.067 779.103 343.592C783.415 343.845 787.348 341.529 792.331 342.142C802.162 343.349 815.224 349.461 823.147 355.155" stroke="#191919" stroke-width="0.2" stroke-linecap="round" stroke-linejoin="round"/>
<path d="M383.375 341.042C400.661 322.831 413.071 310.654 437.317 303.851C454.925 298.906 475.958 290.322 493.732 287.927C505.927 286.282 511.845 287.81 521.579 296.677C532.149 306.304 533.278 308.104 546.837 301.067C557.212 295.685 561.476 289.134 574.518 290.205C585.497 291.11 592.301 297.952 602.297 301.252C610.541 303.977 618.27 303.501 626.192 307.676C638.203 313.983 642.155 319.833 655.811 316.047C676.416 310.324 696.623 306.713 715.447 320.758C736.315 336.312 752.161 343.738 778.558 345.432C783.035 345.724 787.425 343.592 793.168 344.916C803.699 347.339 816.284 351.603 824.412 358.893" stroke="#191919" stroke-width="0.2" stroke-linecap="round" stroke-linejoin="round"/>
<path d="M382.148 345.344C399.678 327.776 413.276 313.341 437.687 306.664C455.236 301.865 473.175 297.31 490.831 293.086C504.214 289.884 508.448 291.529 519.223 299.452C530.591 307.812 531.701 316.154 545.133 307.248C555.596 300.308 560.531 293.865 574.119 295.11C584.436 296.055 592.33 303.51 602.015 306.391C612.42 309.487 621.092 310.197 631.789 314.869C642.155 319.395 646.574 317.663 657.602 315.541C676.261 311.939 697.771 312.124 713.179 324.68C732.986 340.818 751.12 348.167 777.176 347.271C794.598 346.668 810.6 351.398 825.657 362.621" stroke="#191919" stroke-width="0.2" stroke-linecap="round" stroke-linejoin="round"/>
<path d="M380.961 349.442C399.123 332.555 412.361 316.524 436.918 309.856C454.584 305.058 472.629 301.671 490.305 297.018C505.1 293.125 507.124 294.575 518.989 303.267C529.248 310.791 531.565 317.341 544.51 311.501C556.589 306.051 559.461 298.77 574.129 300.503C583.589 301.622 592.603 308.095 601.966 310.246C612.254 312.611 621.608 314.597 631.964 317.74C641.785 320.719 648.345 316.884 658.079 315.901C678.11 313.896 698.949 318.383 713.695 331.902C732.402 349.062 752.58 348.887 776.163 348.79C794.491 348.712 811.68 354.649 826.855 366.281" stroke="#191919" stroke-width="0.2" stroke-linecap="round" stroke-linejoin="round"/>
<path d="M379.793 353.257C399.347 336.866 411.952 319.453 437.443 312.728C453.494 308.494 471.646 307.618 487.152 301.865C500.282 296.999 505.129 293.057 516.585 302.673C529.784 313.75 530.952 320.359 547.858 312.299C570.148 301.671 579.375 310.625 602.024 313.857C610.551 315.073 619.282 317.283 627.652 318.363C640.627 320.037 647.109 315.901 659.87 315.93C667.939 315.949 683.502 319.59 690.569 322.257C702.141 326.627 706.94 334.706 717.121 341.548C735.254 353.734 754.604 351.155 774.577 350.649C793.868 350.162 812.479 358.036 828.023 369.716" stroke="#191919" stroke-width="0.2" stroke-linecap="round" stroke-linejoin="round"/>
<path d="M378.693 356.635C398.102 342.405 408.867 323.347 433.064 316.777C451.275 311.832 472.046 311.219 489.176 303.15C506.502 294.994 504.867 296.025 520.06 308.591C529.258 316.193 534.689 317.448 546.214 315.443C555.081 313.896 562.887 309.175 572.348 310.226C582.276 311.326 591.96 316.047 602.044 317.419C610.512 318.568 619.934 320.106 628.392 320.407C637.707 320.738 646.925 316.115 656.103 316.718C662.527 317.147 681.517 323.113 687.649 325.42C701.908 330.773 706.347 344.429 719.925 350.736C736.715 358.543 756.785 353.754 772.971 352.576C792.72 351.135 813.52 361.745 829.094 372.773" stroke="#191919" stroke-width="0.2" stroke-linecap="round" stroke-linejoin="round"/>
<path d="M377.633 359.642C398.735 346.444 408.225 326.092 433.648 319.551C453.767 314.373 473.253 313.205 491.338 302.839C513.491 290.137 521.715 319.921 544.676 318.334C556.785 317.497 564.133 314.129 576.572 315.648C585.089 316.689 593.314 319.853 602.161 320.651C610.522 321.41 620.956 323.279 629.152 322.617C639.518 321.789 646.993 317.088 657.641 319.191C666.46 320.933 675.843 325.809 684.564 328.69C700.341 333.907 701.412 347.992 716.294 354.532C725.103 358.406 739.956 358.328 749.281 358.581C757.496 358.805 764.474 355.136 771.414 354.601C791.767 353.043 813.891 365.005 830.174 375.459" stroke="#191919" stroke-width="0.2" stroke-linecap="round" stroke-linejoin="round"/>
<path d="M376.602 362.319C398.589 350.454 407.135 329.09 432.958 322.666C454.332 317.351 472.329 316.086 490.881 303.861C511.837 290.049 522.631 318.733 544.463 320.222C563.871 321.546 582.685 321.702 602.259 323.629C621.298 325.508 640.813 315.891 657.944 321.313C666.645 324.067 676.242 328.836 684.856 332.243C699.291 337.957 700.673 354.211 715.798 359.136C724.734 362.047 739.781 362.358 748.902 362.017C756.902 361.716 763.589 357.17 770.782 356.538C790.794 354.795 814.806 368.646 831.216 377.795" stroke="#191919" stroke-width="0.2" stroke-linecap="round" stroke-linejoin="round"/>
<path d="M375.598 364.986C397.984 353.54 406.112 332.029 432.314 325.839C455.168 320.437 471.267 318.84 490.49 304.853C502.452 296.152 505.557 299.909 517.305 307.481C526.474 313.39 533.112 320.076 544.267 322.159C562.945 325.654 583.326 324.145 602.375 326.325C614.142 327.678 617.802 328.914 629.764 324.194C641.678 319.492 646.291 319.093 658.156 324.31C663.159 328.145 668.542 331.387 674.294 334.024C677.886 334.706 681.477 335.387 685.069 336.059C700.087 343.641 697.167 359.165 715.427 362.942C725.141 364.947 738.651 366.096 748.297 365.083C756.142 364.256 762.838 359.516 770.557 358.951C790.608 357.482 815.204 371.78 832.198 380.112" stroke="#191919" stroke-width="0.2" stroke-linecap="round" stroke-linejoin="round"/>
<path d="M374.625 367.663C396.944 355.506 405.158 334.861 431.682 328.982C440.393 327.046 449.435 326.062 458.059 323.824C473.769 319.755 476.903 316.212 490.072 306.216C501.888 297.252 505.188 300.902 517.004 308.416C526.144 314.227 533.424 320.904 544.063 324.135C562.371 329.693 583.532 326.773 602.502 328.739C615.642 330.102 616.878 330.822 630.144 324.817C642.769 319.103 646.545 321.614 658.352 328.106C666.547 332.613 677.38 336.38 685.07 341.324C700.906 351.525 694.131 364.499 715.165 366.709C725.502 367.789 737.474 369.532 747.636 367.818C755.87 366.427 762.362 362.163 770.888 361.92C791.63 361.336 815.029 374.281 833.172 382.389" stroke="#191919" stroke-width="0.2" stroke-linecap="round" stroke-linejoin="round"/>
<path d="M373.68 370.232C395.404 356.576 404.349 337.674 430.98 332.155C439.808 330.326 448.743 329.031 457.562 327.172C473.086 323.911 477.164 317.487 489.682 308.182C508.516 294.166 525.637 318.918 543.887 326.364C562.02 333.761 583.501 329.557 602.647 331.026C616.137 332.068 616.906 331.679 630.542 325.78C643.896 319.999 647.011 325.556 658.526 332.671C666.614 337.674 677.584 341.499 684.864 347.875C699.23 360.47 694.315 369.239 714.989 370.515C725.647 371.176 736.577 372.724 746.992 370.398C756.248 368.325 761.913 364.879 771.481 365.142C792.797 365.726 815.028 376.53 834.115 384.706" stroke="#191919" stroke-width="0.2" stroke-linecap="round" stroke-linejoin="round"/>
<path d="M372.775 372.52C393.478 357.229 403.669 340.546 430.105 335.348C439.05 333.586 448.218 332.584 457.095 330.54C472.513 326.997 476.542 319.376 489.303 310.878C508.332 298.206 526.874 320.602 543.722 329.274C561.797 338.579 583.385 331.581 602.823 333.129C615.895 334.17 617.715 331.533 630.913 327.123C644.53 322.578 647.83 331.026 658.673 337.811C667.929 343.602 677.069 346.609 684.515 355.223C696.37 368.947 696.457 372.938 714.922 374.281C735.546 375.78 752.706 366.894 772.066 368.363C793.723 370.008 815.272 378.798 835.041 387.013" stroke="#191919" stroke-width="0.2" stroke-linecap="round" stroke-linejoin="round"/>
<path d="M371.891 374.651C381.906 366.319 392.136 352.128 403.339 345.626C410.902 341.237 420.596 340.137 428.996 338.55C438.116 336.827 447.645 336.195 456.658 333.985C471.57 330.335 476.183 321.741 488.953 314.402C508.946 302.917 527.595 323.181 543.567 333.09C560.834 343.797 583.863 333.976 603.038 334.998C614.981 335.64 619.292 331.046 631.216 329.041C644.054 326.88 649.125 337.139 658.81 343.32C669.419 350.094 676.077 352.985 684.097 362.981C694.755 376.257 698.6 376.617 714.981 377.99C735.81 379.732 752.357 369.337 772.612 371.605C794.454 374.048 815.662 381.202 835.918 389.339" stroke="#191919" stroke-width="0.2" stroke-linecap="round" stroke-linejoin="round"/>
<path d="M371.043 376.715C380.728 367.945 390.918 353.832 402.667 347.719C409.889 343.962 419.768 343.203 427.633 341.772C437.064 340.059 446.885 339.553 456.219 337.382C470.391 334.083 476.114 324.953 488.612 318.811C510.619 308.007 527.107 326.89 543.411 337.898C555.499 346.055 563.578 342.59 576.387 338.56C586.296 335.436 593.031 336.623 603.241 336.925C612.955 337.207 622.192 331.601 631.41 331.766C642.506 331.971 650.614 343.271 658.936 348.887C669.817 356.245 675.064 361.317 683.668 370.729C693.46 381.435 701.616 380.404 715.194 381.64C726.942 382.71 734.787 378.905 745.952 376.101C755.957 373.581 762.878 373.473 773.137 374.885C795.076 377.892 816.158 383.732 836.773 391.704" stroke="#191919" stroke-width="0.2" stroke-linecap="round" stroke-linejoin="round"/>
<path d="M370.225 378.788C389.244 360.557 399.648 349.598 426.016 345.013C435.847 343.3 446.057 342.94 455.79 340.769C469.096 337.801 476.162 329.197 488.309 324.057C513.577 313.38 525.053 331.601 543.254 343.641C555.946 352.041 563.908 345.704 576.318 340.877C586.305 336.983 592.991 338.979 603.435 339.066C611.864 339.144 623.544 334.151 631.496 335.65C640.772 337.402 652.092 349.14 659.042 354.221C668.425 361.093 674.586 371.05 683.307 377.999C691.61 384.618 705.47 384.54 715.495 385.212C727.438 386.01 734.835 380.404 746.097 377.863C755.801 375.683 763.724 376.491 773.642 378.145C795.639 381.815 816.634 386.273 837.59 394.04" stroke="#191919" stroke-width="0.2" stroke-linecap="round" stroke-linejoin="round"/>
<path d="M369.438 380.929C379.317 371.157 387.95 358.114 401.295 353.043C408.429 350.328 416.732 349.5 424.197 348.264C434.515 346.551 445.143 346.24 455.383 344.166C468.172 341.577 476.095 333.907 488.058 329.547C496.224 326.569 507.203 325.332 515.554 327.629C528.928 331.309 532.004 343.787 543.109 350.162C556.045 357.579 564.737 348.225 576.251 343.32C586.111 339.125 593.256 341.402 603.612 341.402C612.42 341.402 622.962 337.557 631.537 340.633C640.18 343.719 652.327 354.776 659.024 360.012C666.664 365.979 674.383 379.567 683.065 384.414C689.674 388.103 708.381 388.784 715.779 388.823C727.42 388.891 735.44 381.941 746.478 379.927C755.987 378.194 764.552 379.927 774.111 381.445C796.05 384.92 817.375 389.018 838.37 396.425" stroke="#191919" stroke-width="0.2" stroke-linecap="round" stroke-linejoin="round"/>
<path d="M368.688 383.197C378.518 373.386 386.85 360.898 400.262 356.109C407.27 353.608 414.95 352.683 422.25 351.535C433.093 349.831 444.15 349.452 454.964 347.602C467.588 345.432 475.949 338.92 487.872 335.056C495.951 332.447 507.173 330.559 515.349 332.808C528.567 336.438 531.147 352.157 542.982 357.092C555.567 362.339 565.807 350.367 576.192 346.045C585.614 342.122 593.897 344.089 603.757 344.059C627.205 343.972 640.257 350.454 658.916 365.911C666.586 372.267 673.107 385.572 683.045 389.495C688.817 391.772 709.831 392.891 716.06 392.444C727.225 391.646 736.043 383.82 746.973 382.379C756.22 381.163 765.418 383.324 774.567 384.754C796.429 388.181 818.105 391.792 839.119 398.829" stroke="#191919" stroke-width="0.2" stroke-linecap="round" stroke-linejoin="round"/>
<path d="M367.957 385.65C384.942 368.977 394.938 358.689 418.677 355.019C442.427 351.359 462.283 348.994 484.952 341.412C492.31 338.949 509.47 335.046 517.159 338.103C528.878 342.775 530.251 360.489 544.228 362.689C555.333 364.441 561.981 356.323 571.335 351.622C583.171 345.665 591.152 347.495 603.825 347.271C626.007 346.882 640.364 356.09 657.748 369.755C671.88 380.861 669.136 388.56 686.714 393.563C695.639 396.104 710.823 396.717 719.506 394.712C730.319 392.21 738.067 385.407 749.698 384.92C758.371 384.56 767.89 386.798 776.485 388.278C797.791 391.938 819.35 394.468 839.839 401.564" stroke="#191919" stroke-width="0.2" stroke-linecap="round" stroke-linejoin="round"/>
<path d="M367.266 388.336C383.686 372.724 393.993 361.579 416.682 358.309C440.314 354.912 461.864 353.598 484.708 346.707C494.149 343.865 507.669 340.02 516.964 345.441C528.255 352.031 528.781 367.945 544.111 368.354C554.827 368.636 562.039 358.942 571.267 354.922C581.409 350.503 593.059 350.435 603.883 350.678C625.063 351.145 642.378 360.762 657.319 376.393C670.985 390.692 668.113 393.67 686.899 397.34C697.615 399.432 709.967 399.831 720.274 396.269C741.269 389.018 754.516 387.168 776.912 391.665C798.199 395.938 820.206 396.785 840.529 404.727" stroke="#191919" stroke-width="0.2" stroke-linecap="round" stroke-linejoin="round"/>
<path d="M366.613 391.276C382.576 376.841 393.166 364.49 414.793 361.609C438.387 358.474 461.455 358.182 484.455 351.827C496.213 348.576 506.141 344.634 516.779 352.917C527.573 361.326 527.972 374.583 544.003 373.162C554.068 372.267 561.913 362.231 571.218 358.65C581.379 354.747 593.225 354.396 603.912 354.435C625.51 354.503 643.828 365.95 656.793 383.041C668.687 398.722 668.736 398.868 687.083 401.116C699.873 402.683 709.022 402.45 721.16 397.233C739.565 389.319 757.776 390.925 777.331 395.403C798.705 400.299 821.111 398.946 841.201 408.251" stroke="#191919" stroke-width="0.2" stroke-linecap="round" stroke-linejoin="round"/>
<path d="M365.992 394.459C382.928 380.17 392.506 367.351 414.795 364.752C438.982 361.93 463.306 361.949 486.997 355.963C498.92 352.946 504.225 352.527 514.601 358.922C525.775 365.813 526.845 381.708 542.516 377.922C553.7 375.226 564.62 365.2 575.989 361.599C585.537 358.582 593.791 357.822 603.914 358.299C615.117 358.825 621.551 359.896 631.897 365.434C643.898 371.848 648.395 381.319 657.34 390.77C673.838 408.192 696.468 409.643 718.767 399.598C736.657 391.539 757.233 394.215 776.213 399.024C798.23 404.591 821.58 401.097 841.826 412.027" stroke="#191919" stroke-width="0.2" stroke-linecap="round" stroke-linejoin="round"/>
<path d="M365.398 397.865C383.133 384.355 390.871 370.563 413.471 368.091C437.668 365.443 463.024 366.378 486.763 360.625C499.349 357.579 503.524 357.209 514.464 364.392C525.648 371.731 526.874 385.728 542.409 380.939C565.516 373.814 578.072 359.594 603.904 361.959C614.484 362.922 622.125 363.789 631.975 368.782C644.55 375.157 647.685 386.059 656.941 395.636C675.872 415.239 696.38 409.818 719.624 399.948C735.907 393.037 759.929 398.469 776.554 403.384C799.174 410.081 821.483 403.559 842.41 415.979" stroke="#191919" stroke-width="0.2" stroke-linecap="round" stroke-linejoin="round"/>
<path d="M364.834 401.437C380.31 391.149 388.301 374.184 407.164 371.916C432.481 368.879 458.693 370.106 483.736 365.366C494.793 363.273 501.938 358.64 512.206 365.56C525.999 374.846 524.363 384.716 540.852 383.217C549.913 382.399 561.194 375.177 569.497 370.943C586.189 362.426 585.917 363.176 603.904 366.008C613.929 367.585 623.235 367.001 632.666 372.16C645.923 379.411 648.21 391.383 657.691 401.583C675.921 421.196 697.471 410.314 717.025 401.963C736.579 393.602 761.584 404.727 780.963 409.224C803.321 414.402 822.038 407.346 842.965 420.038" stroke="#191919" stroke-width="0.2" stroke-linecap="round" stroke-linejoin="round"/>
<path d="M364.307 405.087C380.571 395.432 386.898 378.048 406.433 375.255C431.817 371.624 458.438 374.311 483.55 369.171C494.879 366.855 501.371 361.57 512.107 368.49C525.491 377.124 524.946 385.494 540.762 385.076C551.362 384.793 560.949 378.155 569.456 372.539C585.905 361.677 585.954 365.035 603.912 369.152C613.714 371.4 623.437 370.388 632.703 375.255C645.211 381.825 648.569 393.982 657.708 403.608C665.135 411.424 675.18 416.553 686.091 416.329C699.854 416.047 705.947 405.671 717.812 402.09C737.415 396.172 762.75 409.964 781.302 413.906C804.448 418.821 821.394 411.103 843.518 424.087" stroke="#191919" stroke-width="0.2" stroke-linecap="round" stroke-linejoin="round"/>
<path d="M363.82 408.718C380.795 399.374 386.567 381.795 407.377 378.476C431.272 374.661 456.832 378.632 480.435 373.639C497.878 369.95 499.299 361.346 515.621 373.483C522.999 378.963 529.112 386.828 539.137 387.489C557.037 388.667 561.164 375.362 574.45 368.062C585.692 361.891 592.894 368.461 603.893 371.527C613.062 374.087 625.034 373.434 633.502 377.717C644.861 383.47 650.71 397.456 659.607 405.885C667.296 413.176 676.435 422.101 688.291 420.281C700.973 418.325 707.942 404.678 721.189 403.754C741.59 402.323 760.853 414.169 780.047 418.188C804.604 423.337 820.002 414.791 843.985 427.98" stroke="#191919" stroke-width="0.2" stroke-linecap="round" stroke-linejoin="round"/>
<path d="M363.363 412.173C373.544 410.09 375.54 402.167 381.866 395.821C389.4 388.258 397.936 383.625 408.497 381.718C432.1 377.454 460.453 384.258 483.171 376.462C496.768 371.79 498.384 364.986 513.315 372.685C524.742 378.574 528.986 388.404 543.479 388.959C559.334 389.563 560.969 374.846 573.681 369.259C586.062 363.818 590.033 368.558 603.903 373.775C612.079 376.851 620.08 376.676 628.139 379.022C642.817 383.304 651.334 398.663 661.301 408.913C666.858 414.626 675.56 424.165 684.602 423.785C697.217 423.25 705.792 407.774 718.289 405.856C738.369 402.771 759.909 418.072 778.714 422.422C788.69 424.729 798.521 422.656 808.654 422.14C822.543 421.43 831.916 425.274 844.443 431.591" stroke="#191919" stroke-width="0.2" stroke-linecap="round" stroke-linejoin="round"/>
<path d="M362.916 415.288C371.569 413.984 374.732 406.051 380.407 400.717C387.96 393.631 397.937 387.694 408.234 385.319C431.711 379.907 460.785 388.842 483.016 378.554C496.535 372.296 497.713 365.103 513.208 373.065C523.837 378.535 529.921 390.419 543.411 390.877C559.578 391.432 560.405 373.24 573.652 368.617C585.342 364.538 591.61 369.775 603.904 375.274C612.313 379.031 619.467 380.199 628.12 382.642C644.569 387.285 651.12 399.199 661.905 411.219C667.268 417.196 675.736 426.793 684.992 425.907C697.636 424.69 705.062 408.718 718.64 407.735C739.839 406.197 759.355 422.948 778.958 426.871C788.886 428.856 798.979 426.472 808.965 425.907C822.621 425.138 832.335 429.138 844.862 434.745" stroke="#191919" stroke-width="0.2" stroke-linecap="round" stroke-linejoin="round"/>
<path d="M362.127 418.198C369.544 417.517 374.595 409.506 379.919 405.156C388.105 398.478 399.104 391.772 409.538 388.998C434.961 382.224 463.178 392.93 485.974 377.766C495.425 371.478 498.948 365.58 510.784 371.41C522.308 377.094 527.934 389.826 541.804 391.373C560.093 393.417 558.76 370.554 572.844 366.563C582.237 363.906 596.155 372.909 603.893 376.588C625.91 387.042 642.496 389.271 658.546 408.776C662.186 416.621 667.812 421.916 675.433 424.661C679.794 428.817 684.057 428.535 688.213 423.814C702.122 420.067 706.035 408.212 721.813 410.713C743.343 414.12 762.654 430.813 783.668 431.64C791.795 431.961 800.244 430.384 808.342 429.752C823.117 428.593 831.536 432.107 845.26 437.519" stroke="#191919" stroke-width="0.2" stroke-linecap="round" stroke-linejoin="round"/>
<path d="M360.988 421.118C377.525 418.461 392.738 399.043 409.324 393.437C435.925 384.443 462.186 396.59 485.838 379.158C495.425 372.091 498.793 367.137 510.697 373.347C522.299 379.401 527.837 391.393 541.746 391.889C557.981 392.473 558.779 370.933 572.815 367.536C582.422 365.21 596.136 373.542 603.893 377.62C615.116 383.509 622.893 386.837 634.972 390.867C647.051 394.897 651.197 402.644 658.945 412.027C670.8 426.394 673.711 428.769 688.904 423.892C702.219 419.609 707.096 411.326 721.92 413.954C743.586 417.799 762.556 434.764 783.872 435.407C792.039 435.65 800.497 434.472 808.595 433.567C823.75 431.873 831.264 434.998 845.611 440.205" stroke="#191919" stroke-width="0.2" stroke-linecap="round" stroke-linejoin="round"/>
<path d="M359.645 424.048C377.009 421.79 393.234 404.912 409.129 398.293C436.382 386.944 460.725 399.072 485.701 381.036C495.103 374.252 499.386 370.709 510.618 376.286C522.95 382.418 527.642 393.3 541.697 392.21C555.421 391.149 559.061 373.95 572.795 370.524C583.988 367.731 594.666 373.308 603.903 378.506C614.891 384.686 623.116 389.923 635.01 394.682C647.196 399.569 650.71 406.304 659.237 415.794C681.331 440.39 694.792 413.273 722.036 417.273C744.491 420.563 761.923 438.015 784.076 439.027C792.35 439.407 800.711 438.19 808.848 436.867C824.353 434.336 831.117 437.46 845.941 442.707" stroke="#191919" stroke-width="0.2" stroke-linecap="round" stroke-linejoin="round"/>
<path d="M358.215 426.987C377.166 424.34 392.398 411.502 408.964 403.462C423.068 396.619 437.989 398.965 452.998 397.233C468.542 395.442 471.803 392.424 485.585 383.625C508.887 368.753 519.652 396.376 541.659 392.356C554.059 390.088 559.734 377.016 572.776 373.581C585.264 370.291 592.934 372.997 603.904 379.421C614.532 385.65 624.11 392.113 635.031 397.982C645.845 403.793 650.721 411.91 659.452 419.94C672.475 431.922 676.076 428.36 690.209 424.554C701.286 421.576 710.318 419.366 722.134 420.719C745.076 423.347 761.603 440.643 784.253 442.541C792.944 443.271 800.692 441.471 809.063 439.534C824.607 435.932 831.342 439.748 846.234 445.091" stroke="#191919" stroke-width="0.2" stroke-linecap="round" stroke-linejoin="round"/>
<path d="M356.812 429.946C377.457 426.822 391.093 418.529 409.256 409.01C423.554 401.506 438.29 403.141 453.669 400.873C468.288 398.722 472.045 394.186 485.487 387.12C506.618 376.004 521.491 397.817 541.619 392.755C552.959 389.903 561.115 380.19 572.756 376.481C585.799 372.325 591.746 373.435 603.903 380.589C624.567 392.755 640.237 411.064 659.626 424.174C672.27 432.73 677.808 428.545 690.656 426.034C701.217 423.97 711.242 423.367 722.212 424.301C745.309 426.267 761.739 442.979 784.398 445.86C794.141 447.096 800.224 444.361 809.247 441.558C824.402 436.847 832.091 441.879 846.487 447.369" stroke="#191919" stroke-width="0.2" stroke-linecap="round" stroke-linejoin="round"/>
<path d="M355.547 432.905C362.876 431.942 370.303 432.243 377.593 430.968C390.957 428.642 398.802 420.865 410.229 414.782C424.391 407.229 438.845 407.19 454.184 404.474C467.354 402.138 472.941 396.765 485.428 391.548C504.662 383.518 522.629 398.858 541.59 393.875C566.731 387.266 577.769 367.166 603.903 382C624.956 393.952 638.329 418.403 659.782 428.058C677.195 435.893 703.329 426.861 722.27 428.029C745.386 429.46 762.108 445.286 784.514 448.955C795.708 450.785 799.543 446.707 809.393 442.979C823.847 437.499 833.171 444.128 846.681 449.549" stroke="#191919" stroke-width="0.2" stroke-linecap="round" stroke-linejoin="round"/>
<path d="M354.486 435.874C362.468 434.716 370.303 437.285 378.265 436.234C392.768 434.326 400.583 425.829 414.239 419.512C425.773 414.178 437.784 410.158 450.379 408.397C462.312 406.722 470.916 402.479 482.343 398.712C501.83 392.298 520.479 402.245 539.916 397.194C563.315 391.12 579.336 369.979 603.893 383.255C626.329 395.383 637.658 425.479 661.32 431.825C678.986 436.565 700.623 431.25 719.048 431.786C743.508 432.496 759.85 446.434 782.977 451.389C795.504 454.065 797.859 449.014 808.537 444.478C823.117 438.278 833.327 445.948 846.857 451.583" stroke="#191919" stroke-width="0.2" stroke-linecap="round" stroke-linejoin="round"/>
<path d="M353.727 438.862C362.195 437.645 369.767 441.918 378.167 441.519C392.524 440.848 402.89 432.049 416.244 425.566C437.307 415.356 459.995 409.886 482.353 404.017C501.235 399.062 520.751 403.958 539.906 400.007C563.305 395.179 578.927 374.077 603.902 385.163C628.518 396.094 636.042 429.547 661.436 435.193C679.258 439.154 700.739 435.358 719.096 435.679C743.858 436.117 759.83 449.637 783.074 453.997C795.931 456.402 798.112 449.423 808.653 445.13C822.474 439.495 834.553 448.264 847.012 453.569" stroke="#191919" stroke-width="0.2" stroke-linecap="round" stroke-linejoin="round"/>
<path d="M353.299 441.85C362.244 440.896 369.369 446.298 378.109 446.59C392.427 447.067 405.207 438.113 418.366 431.718C439.857 421.264 459.013 414.548 482.363 409.536C501.148 405.506 520.917 407.414 539.887 403.822C563.081 399.423 578.45 379.012 603.903 387.499C630.358 396.327 635.108 431.504 661.476 438.239C679.181 442.755 700.818 439.378 719.136 439.582C730.641 439.709 740.238 440.351 751.139 443.719C761.369 446.873 772.747 455.078 783.142 456.44C795.465 458.056 798.793 449.131 808.741 445.734C821.55 441.354 835.946 450.659 847.129 455.467" stroke="#191919" stroke-width="0.2" stroke-linecap="round" stroke-linejoin="round"/>
<path d="M353.26 444.848C362.497 444.488 369.252 450.474 378.177 451.36C392.427 452.781 407.65 444.313 420.449 437.889C442.261 426.948 457.932 419.269 482.353 414.938C501.177 411.599 521.189 412.154 539.877 408.377C562.789 403.734 578.226 384.745 603.903 390.351C630.962 396.259 636.101 432.195 661.456 441.072C678.665 447.096 700.896 443.359 719.155 443.485C730.28 443.563 740.442 443.583 751.168 446.376C761.106 448.965 773.389 457.92 783.181 458.582C794.355 459.341 799.582 449.121 808.79 446.629C820.684 443.408 836.948 452.888 847.197 457.278" stroke="#191919" stroke-width="0.2" stroke-linecap="round" stroke-linejoin="round"/>
<path d="M353.621 447.856C363.131 448.362 369.934 454.542 379.21 455.73C391.591 457.307 403.037 452.138 414.464 447.223C427.886 441.451 439.031 430.647 452.648 425.673C460.688 422.734 470.616 422.218 479.045 420.768C489.936 418.889 500.896 417.118 511.759 415.317C522.115 413.604 534.797 414.529 544.716 411.219C564.873 404.494 580.515 390.809 603.914 394.76C632.033 399.5 637.503 435.27 663.015 445.344C679.289 451.768 705.364 447.349 722.281 447.418C731.197 447.447 739.791 447.242 748.59 448.722C759.579 450.581 770.694 459.098 781.469 459.818C792.312 460.548 798.541 450.931 807.778 448.702C820.062 445.734 836.55 454.581 847.237 459.049" stroke="#191919" stroke-width="0.2" stroke-linecap="round" stroke-linejoin="round"/>
<path d="M354.369 450.873C363.703 452.275 370.575 458.144 379.812 459.633C392.251 461.628 404.622 457.647 416.127 452.956C439.789 443.291 453.016 429.022 479.014 425.742C490.334 424.311 500.729 421.177 511.786 418.987C522.59 416.845 534.124 418.198 544.714 414.373C553.795 411.083 560.94 404.581 571.023 403.452C575.403 403.686 579.793 403.919 584.173 404.153C590.49 401.301 597.07 399.627 603.903 399.15C632.003 400.007 640.227 434.492 662.926 447.038C678.986 455.925 704.818 451.369 722.27 451.33C731.049 451.311 739.838 450.922 748.579 451.992C759.451 453.316 770.781 460.947 781.458 461.103C791.006 461.239 798.959 452.839 807.767 451.184C820.284 448.829 836.043 456.265 847.226 460.528" stroke="#191919" stroke-width="0.2" stroke-linecap="round" stroke-linejoin="round"/>
</g>
</g>
<defs>
<clipPath id="clip0_1478_53565">
<rect width="494.95" height="531.148" fill="white" transform="translate(352.773 166.28)"/>
</clipPath>
</defs>
</svg>
