<svg width="360" height="360" viewBox="0 0 360 360" fill="none" xmlns="http://www.w3.org/2000/svg">
<mask id="mask0_1196_25956" style="mask-type:alpha" maskUnits="userSpaceOnUse" x="0" y="0" width="360" height="360">
<path d="M0 20C0 8.95431 8.9543 0 20 0H259.31C270.356 0 279.31 8.95431 279.31 20V43C279.31 54.0457 288.265 63 299.31 63H340C351.046 63 360 71.9543 360 83V340C360 351.046 351.046 360 340 360H20C8.95431 360 0 351.046 0 340V20Z" fill="#97C3E9"/>
</mask>
<g mask="url(#mask0_1196_25956)">
<g clip-path="url(#clip0_1196_25956)">
<path d="M-121.268 72.5879C-111.608 68.6219 -100.381 65.8679 -91.4742 60.6239C-80.6009 54.2159 -75.3142 42.4499 -64.3609 35.9039C-47.3076 25.7159 -25.9876 9.6539 -5.50091 19.6679C4.13242 24.3779 16.5591 30.1079 24.0324 37.1639C33.2391 45.8519 40.8924 47.4419 52.9924 51.5639C62.9191 54.9419 75.5791 59.0279 83.6258 65.4299C90.2858 70.7339 91.0258 78.4919 96.7658 84.4799C102.386 90.3359 111.886 92.8619 119.032 96.8039" stroke="#191919" stroke-width="0.2" stroke-linecap="round" stroke-linejoin="round"/>
<path d="M-123.094 73.3679C-113.24 69.4499 -102.074 66.7379 -92.7804 61.8179C-81.6071 55.9079 -75.4937 45.0059 -64.8604 38.3099C-48.6004 28.0739 -24.7404 10.4579 -5.48709 20.2379C5.26625 25.7039 15.8996 32.4479 24.2929 40.5059C32.6863 48.5639 42.4996 49.6019 53.6196 53.2919C63.6996 56.6399 76.8263 60.6419 84.6196 67.4759C90.6596 72.7739 91.8396 81.4559 97.9396 86.6039C103.98 91.6979 113.606 93.7379 120.433 98.0699" stroke="#191919" stroke-width="0.2" stroke-linecap="round" stroke-linejoin="round"/>
<path d="M-124.867 74.2259C-114.154 69.8819 -102.154 67.1279 -91.9005 61.9739C-81.0605 56.5199 -74.1872 46.4219 -64.1005 39.8279C-55.8072 34.4099 -46.5072 29.5619 -37.4872 25.2299C-25.0938 19.2779 -18.6872 13.5179 -5.49384 20.8499C6.15949 27.3239 14.2195 34.6679 23.8861 43.0799C32.9061 50.9339 44.1928 51.7379 55.7395 55.5419C64.2661 58.3559 76.7595 61.776 83.6195 67.296C90.9461 73.1939 91.8061 82.8059 99.6995 88.2779C106.439 92.9519 115.386 93.816 121.813 99.3599" stroke="#191919" stroke-width="0.2" stroke-linecap="round" stroke-linejoin="round"/>
<path d="M-126.594 75.15C-115.74 70.596 -104 67.788 -93.2271 63.132C-81.7471 58.17 -74.5271 48.864 -64.4938 42.054C-56.2804 36.474 -46.7871 32.016 -37.8804 27.42C-25.4271 20.994 -19.2538 13.86 -5.50042 21.45C6.99291 28.344 13.4729 37.932 24.1329 46.218C32.8262 52.974 45.5263 53.808 56.3796 57.3C65.0129 60.078 77.9262 63.45 84.5796 69.384C92.0729 76.074 92.0729 84.546 101.566 89.688C108.813 93.618 116.94 95.046 123.173 100.662" stroke="#191919" stroke-width="0.2" stroke-linecap="round" stroke-linejoin="round"/>
<path d="M-128.26 76.1459C-117.54 71.1299 -105.666 68.4059 -94.5531 64.2359C-82.4331 59.6879 -74.9331 51.3119 -64.7998 44.2679C-56.6198 38.5799 -46.9931 34.4999 -38.2264 29.5919C-26.0864 22.7939 -19.5664 14.6939 -5.51976 22.0859C-0.759762 24.5939 5.54691 28.1279 9.40024 31.5239C15.2336 36.6599 17.8069 44.5799 24.3402 49.0859C32.9269 55.0019 46.5069 55.7879 56.9936 59.0819C66.3269 62.0099 78.6736 65.2799 85.5069 72.0359C93.6203 80.0639 92.4069 86.1719 103.734 91.1699C111.114 94.4279 118.334 96.8099 124.514 101.988" stroke="#191919" stroke-width="0.2" stroke-linecap="round" stroke-linejoin="round"/>
<path d="M-129.887 77.202C-119.4 71.862 -107.147 69.066 -95.9 65.298C-83.1867 61.038 -75.4534 53.742 -65.08 46.416C-56.92 40.656 -47.1801 36.816 -38.5334 31.614C-26.9667 24.648 -19.6467 16.104 -5.55337 22.794C-0.173372 25.35 5.84662 29.334 9.77329 33.39C15.24 39.036 17.4466 47.172 24.5266 51.564C33.34 57.03 47.2133 57.696 57.5933 60.87C67.7933 63.99 79.6866 67.086 86.42 75.03C94.32 84.354 93.96 87.678 106.08 92.712C113.32 95.718 119.693 98.586 125.84 103.32" stroke="#191919" stroke-width="0.2" stroke-linecap="round" stroke-linejoin="round"/>
<path d="M-131.453 78.3179C-121.346 72.8639 -109.1 70.0559 -98.0398 66.5879C-85.2531 62.5739 -76.8798 57.0899 -66.5531 49.4759C-57.7465 42.9779 -47.3131 39.0239 -38.0531 32.9639C-27.4065 25.9979 -19.1931 18.2579 -5.56646 23.4359C10.2802 29.4599 11.1402 46.2419 24.0469 54.0779C33.0535 59.5439 49.3735 59.9579 59.6802 63.1259C71.4469 66.7439 80.9136 69.8159 88.0936 79.3019C98.0202 92.3999 113.654 95.0039 127.147 104.664" stroke="#191919" stroke-width="0.2" stroke-linecap="round" stroke-linejoin="round"/>
<path d="M-132.975 79.4939C-122.855 73.8839 -110.588 71.0099 -99.4013 67.6199C-86.2679 63.6419 -77.6613 59.1359 -66.9346 51.3839C-57.9079 44.8559 -47.4813 41.2499 -38.2946 34.7459C-28.6013 27.8879 -18.6879 20.1659 -5.64795 24.3719C10.3987 29.5439 10.8721 48.3839 24.2987 55.8059C34.0787 61.2119 49.4054 61.6859 60.2721 64.9439C73.2987 68.8499 80.7987 72.2579 88.9854 82.3919C98.4054 94.0559 115.759 97.2479 128.439 106.02" stroke="#191919" stroke-width="0.2" stroke-linecap="round" stroke-linejoin="round"/>
<path d="M-134.447 80.718C-124.281 74.982 -112.081 72.036 -100.781 68.664C-87.3673 64.656 -78.5406 60.906 -67.4073 53.118C-58.0606 46.578 -47.7139 43.368 -38.5006 36.474C-29.5606 29.79 -18.1873 22.308 -5.72725 25.494C10.0594 29.526 10.7127 50.448 24.6194 57.336C35.3327 62.64 49.3194 63.384 60.8861 66.768C65.7394 68.19 71.0994 69.42 75.5594 71.64C82.5128 75.096 84.9328 80.082 89.8861 85.224C99.7928 95.502 117.473 99.162 129.706 107.394" stroke="#191919" stroke-width="0.2" stroke-linecap="round" stroke-linejoin="round"/>
<path d="M-135.867 81.996C-125.647 76.17 -113.541 73.092 -102.134 69.732C-88.5205 65.718 -79.4538 62.31 -67.9472 54.666C-58.2138 48.204 -48.0272 45.318 -38.6738 38.184C-30.4938 31.95 -17.4805 24.42 -5.82718 26.85C8.75949 29.892 11.4995 52.416 24.8928 59.076C35.7928 64.488 49.6728 65.262 61.4662 68.622C66.4062 70.032 71.8195 71.232 76.2861 73.62C82.9595 77.19 85.3928 83.058 90.7595 87.648C101.519 96.846 118.559 100.764 130.819 108.672" stroke="#191919" stroke-width="0.2" stroke-linecap="round" stroke-linejoin="round"/>
<path d="M-137.24 83.31C-126.74 77.268 -114.427 74.022 -102.667 70.59C-88.5469 66.474 -79.1669 62.772 -67.0669 55.062C-57.8402 49.182 -48.2336 47.388 -39.5802 40.41C-32.1469 34.41 -16.5336 26.058 -5.87356 28.992C8.07311 32.832 11.0864 54.264 25.7864 61.074C36.4464 66.012 49.0265 66.96 60.4865 70.05C65.6265 71.436 71.1798 72.63 75.8198 75.09C82.4065 78.582 85.2398 84.54 90.8064 88.884C102.013 97.62 118.813 102.198 131.42 109.548" stroke="#191919" stroke-width="0.2" stroke-linecap="round" stroke-linejoin="round"/>
<path d="M-138.566 84.6659C-128.006 78.5579 -115.82 75.1979 -103.973 71.7419C-89.8131 67.6079 -79.9731 63.6839 -67.5731 56.3279C-58.0931 50.7059 -48.6731 48.9839 -39.8197 42.1079C-32.3464 36.3059 -15.8797 28.3439 -5.86639 31.8479C2.26694 34.6919 4.90027 44.1839 9.60694 50.2259C13.8803 55.7159 19.3403 59.9399 25.9469 63.0179C36.6536 68.0099 49.4536 68.8919 61.0336 71.9339C66.3536 73.3319 71.7869 74.5679 76.5069 77.2319C82.6003 80.6639 86.0469 86.4479 91.6736 90.3959C102.847 98.2319 118.954 104.22 131.64 110.142" stroke="#191919" stroke-width="0.2" stroke-linecap="round" stroke-linejoin="round"/>
<path d="M-139.854 86.058C-129.24 79.92 -117.174 76.422 -105.267 72.936C-91.1535 68.802 -80.7735 64.314 -68.1535 57.432C-58.5068 52.176 -49.2802 50.154 -40.0535 43.83C-31.8535 38.208 -15.3935 30.666 -5.85351 35.118C2.08649 38.82 4.03316 47.7 9.41982 53.454C13.6265 57.954 20.3665 62.424 26.0731 65.094C36.7798 70.098 49.9398 70.854 61.5665 73.836C75.7665 77.472 81.2332 84.666 92.9398 91.956C103.013 98.226 119.66 107.526 131.62 110.58" stroke="#191919" stroke-width="0.2" stroke-linecap="round" stroke-linejoin="round"/>
<path d="M-141.088 87.4739C-130.441 81.3539 -118.488 77.6639 -106.561 74.1479C-92.4612 69.9899 -81.6746 64.8119 -68.8212 58.4039C-64.1279 56.0639 -59.2479 55.4759 -54.3279 53.7419C-48.8146 51.7979 -45.1612 48.3539 -40.2812 45.6299C-30.8879 40.3799 -15.5679 32.9639 -5.82789 38.6279C1.55878 42.9239 3.65878 51.6539 9.67211 56.9579C14.0054 60.7859 20.8654 64.8659 26.1921 67.2779C37.1254 72.2279 50.3188 72.7679 62.1121 75.7439C76.0521 79.2599 82.7854 87.0359 94.6254 93.8579C101.919 98.0579 122.365 111.18 131.519 110.97" stroke="#191919" stroke-width="0.2" stroke-linecap="round" stroke-linejoin="round"/>
<path d="M-142.287 88.9199C-132.34 83.2619 -121.374 79.5599 -110.287 76.1759C-96.0338 71.8319 -84.4738 66.3299 -71.1204 60.3059C-61.0471 55.7579 -51.1471 53.3399 -41.2271 48.1079C-30.7071 42.5579 -15.9338 34.8059 -5.64711 42.9299C5.92622 52.0679 12.4262 63.7379 27.0329 70.2179C37.2795 74.7599 50.0329 74.7419 60.9462 77.2619C76.7796 80.9099 86.3795 90.6719 100.24 97.9859C108.646 102.42 121.8 110.928 131.46 111.426" stroke="#191919" stroke-width="0.2" stroke-linecap="round" stroke-linejoin="round"/>
<path d="M-143.447 90.3839C-132.701 84.3779 -120.934 80.3699 -108.994 76.7759C-94.8539 72.5219 -83.5073 65.3939 -70.0806 60.1679C-65.2873 58.3019 -60.0806 58.3199 -55.2006 56.7959C-49.8673 55.1339 -45.6806 51.8999 -40.7006 49.6559C-28.3273 44.0879 -17.1939 38.3159 -5.9406 47.4359C4.60607 55.9739 13.3527 66.0539 26.3927 71.8079C38.2327 77.0279 50.7327 76.5779 63.1394 79.6019C77.1527 83.0159 86.4994 91.5719 98.5727 98.4539C105.919 102.642 122.386 112.794 131.599 112.068" stroke="#191919" stroke-width="0.2" stroke-linecap="round" stroke-linejoin="round"/>
<path d="M-144.566 91.8659C-133.8 85.9559 -122.073 81.7859 -110.18 78.1379C-96.0731 73.8059 -84.3931 65.7239 -70.7397 61.1339C-60.5597 57.7079 -51.1131 56.1359 -40.9197 51.9719C-36.0597 49.9859 -27.6931 46.1579 -22.3597 45.5099C-14.4997 44.5619 -12.0597 46.6619 -6.17307 51.7619C3.8336 60.4259 13.9269 68.6699 26.5003 74.2199C38.8603 79.6799 50.7403 78.5579 63.6403 81.5519C78.1803 84.9299 88.0469 94.0619 100.587 101.004C108.607 105.444 122.32 113.286 132.074 113.004" stroke="#191919" stroke-width="0.2" stroke-linecap="round" stroke-linejoin="round"/>
<path d="M-145.688 93.396C-135.161 87.696 -123.681 83.424 -112.101 79.818C-98.2475 75.504 -86.5942 67.272 -73.1408 62.898C-67.3275 61.008 -61.1208 61.584 -55.2008 60.012C-50.1342 58.668 -45.2742 55.932 -40.3942 54.114C-35.7142 52.368 -30.0675 49.488 -24.9808 48.846C-15.7075 47.676 -13.4808 49.638 -6.5075 55.998C2.4525 64.17 14.3992 71.154 25.8325 76.2C33.6125 79.632 37.6325 81.246 46.1125 82.038C52.8925 82.668 58.9192 82.128 65.7592 83.886C80.7258 87.726 90.4058 97.626 103.699 104.274C113.072 108.96 123.179 111.996 132.999 114.36" stroke="#191919" stroke-width="0.2" stroke-linecap="round" stroke-linejoin="round"/>
<path d="M-146.895 95.2739C-136.021 88.5599 -123.108 84.624 -110.815 80.616C-98.4812 76.596 -88.2412 69.606 -76.2745 65.268C-64.9879 61.182 -51.8679 60.72 -40.0945 56.7C-35.1279 55.002 -30.0879 51.654 -24.6412 51.384C-16.1679 50.958 -13.0212 55.884 -6.64119 60.462C4.21881 68.262 16.2388 74.46 28.5521 80.268C40.7988 86.046 51.6655 82.65 64.6721 85.506C81.2921 89.154 91.2855 100.29 106.072 107.034C111.252 109.398 118.519 112.26 124.039 113.892C128.305 115.152 129.472 113.046 134.085 115.872" stroke="#191919" stroke-width="0.2" stroke-linecap="round" stroke-linejoin="round"/>
<path d="M-148.066 97.47C-138.24 89.694 -123.8 86.166 -111.746 82.182C-99.5931 78.168 -89.3531 71.352 -77.4797 67.098C-66.0931 63.018 -52.4797 63.426 -40.5597 59.574C-35.1864 57.834 -30.6531 54.27 -24.5797 54.498C-16.3864 54.804 -12.8731 60.546 -6.6464 64.692C4.36694 72.024 16.9469 77.418 28.7203 83.736C40.3936 90 52.2669 84.732 65.1669 87.516C82.0669 91.164 91.6469 102.444 106.887 108.876C112.2 111.12 118.914 113.658 124.54 115.206C129.107 116.466 129.754 112.722 135.174 117.378" stroke="#191919" stroke-width="0.2" stroke-linecap="round" stroke-linejoin="round"/>
<path d="M-149.221 99.9239C-138.894 92.0459 -126.047 88.2239 -113.421 84.0779C-100.827 79.9439 -89.4674 72.2459 -76.7874 68.8259C-65.9674 65.9099 -53.9874 66.6899 -43.174 63.4199C-36.7607 61.4819 -31.4274 56.2739 -24.154 57.3659C-17.114 58.4219 -12.294 65.7539 -6.76737 68.8739C4.44596 75.2039 16.3126 81.2639 28.0393 86.8799C40.4526 92.8259 50.5126 86.7659 64.0793 89.1959C81.7793 92.3699 92.5459 104.394 108.393 110.964C117.146 114.594 128.626 114.108 136.206 118.914" stroke="#191919" stroke-width="0.2" stroke-linecap="round" stroke-linejoin="round"/>
<path d="M-150.268 102.456C-140.214 93.69 -127.248 90.036 -114.228 85.8C-101.754 81.744 -90.4809 74.52 -77.8542 71.154C-66.6542 68.172 -54.6542 69.564 -43.7209 66.738C-36.3409 64.83 -32.6142 59.376 -24.2276 61.17C-18.5676 62.382 -11.0609 69.75 -6.34757 72.36C4.8591 78.564 16.5924 85.428 28.1858 90.744C39.7724 96.06 51.3924 88.89 64.5191 91.218C82.2124 94.362 92.9124 106.656 109.106 112.782C118.819 116.46 128.179 115.83 137.232 120.45" stroke="#191919" stroke-width="0.2" stroke-linecap="round" stroke-linejoin="round"/>
<path d="M-151.18 104.928C-141.126 95.5139 -128.466 91.8719 -115.006 87.5759C-102.64 83.6339 -91.3997 76.8659 -78.8663 73.6139C-67.2797 70.6019 -55.3597 72.9839 -44.253 70.3559C-36.7397 68.5799 -33.153 62.8739 -24.5597 64.8719C-20.073 65.9159 -10.293 73.1099 -6.17966 75.1019C0.0336738 78.1079 6.027 81.8039 11.9537 85.1579C17.0737 88.0559 22.907 92.6159 28.327 94.6499C35.647 97.3919 38.347 95.1839 45.327 93.1199C52.4937 91.0019 57.8603 91.9259 64.947 93.2639C82.5603 96.5879 93.147 109.056 109.8 114.63C120.007 118.044 128.287 117.48 138.24 122.01" stroke="#191919" stroke-width="0.2" stroke-linecap="round" stroke-linejoin="round"/>
<path d="M-152.074 107.502C-141.828 97.506 -129.794 93.72 -115.748 89.4C-103.454 85.62 -92.2009 79.434 -79.7942 76.158C-73.2209 74.424 -66.8342 73.428 -60.0876 73.764C-54.6609 74.034 -50.2076 75.402 -44.7742 74.262C-37.6142 72.762 -33.2742 67.452 -25.2409 68.982C-20.8009 69.828 -10.2342 76.632 -6.12756 78.534C0.0124377 81.372 6.08576 84.708 12.0324 87.57C17.9924 90.444 22.1658 96.6839 28.4724 98.3579C35.8524 100.314 38.9458 96.558 45.6991 94.578C52.4791 92.592 58.6591 93.87 65.3458 95.316C82.7258 99.078 93.4058 111.648 110.459 116.478C121.019 119.472 128.619 119.022 139.212 123.57" stroke="#191919" stroke-width="0.2" stroke-linecap="round" stroke-linejoin="round"/>
<path d="M-152.961 110.142C-142.461 99.702 -131.148 95.52 -116.474 91.242C-104.208 87.666 -92.9476 82.092 -80.6409 78.732C-73.4209 76.758 -67.7743 75.882 -60.8543 76.812C-55.2409 77.568 -51.2676 79.584 -45.2676 78.354C-37.9876 76.866 -34.1276 72.21 -25.9876 73.308C-20.8876 73.998 -10.7676 79.65 -6.32759 81.9C-0.414258 84.906 6.6124 87.504 12.1457 90.45C18.0791 93.612 21.7057 100.464 28.6657 101.526C35.8991 102.63 39.5924 97.602 46.1124 95.904C52.2724 94.296 59.6924 95.868 65.7791 97.368C82.7724 101.568 93.6857 114.342 111.152 118.332C121.946 120.798 129.199 120.558 140.192 125.142" stroke="#191919" stroke-width="0.2" stroke-linecap="round" stroke-linejoin="round"/>
<path d="M-153.834 112.812C-143.067 102.012 -132.354 97.4339 -117.161 93.1139C-104.981 89.6459 -93.514 84.8039 -81.3807 81.3299C-73.494 79.0739 -69.0806 79.1579 -61.434 80.9339C-55.674 82.2659 -51.8473 84.0419 -45.674 82.7639C-38.094 81.1919 -35.0006 76.8419 -26.614 77.5199C-20.0206 78.0539 -12.1606 82.7459 -6.60064 85.4639C-0.727309 88.3379 6.74602 90.5459 12.2327 93.6599C18.2727 97.0859 21.2594 103.686 28.8794 104.052C35.8127 104.388 40.0327 98.6159 46.4927 97.2779C51.9993 96.1379 60.6794 97.9259 66.166 99.4559C82.786 104.1 93.806 117.282 111.786 120.222C116.126 120.93 119.439 119.826 123.373 120.294C129.246 120.99 135.853 124.614 141.133 126.744" stroke="#191919" stroke-width="0.2" stroke-linecap="round" stroke-linejoin="round"/>
<path d="M-154.727 115.56C-136 96.846 -107.947 91.806 -82.0132 83.946C-73.1999 81.276 -70.4999 82.152 -62.1399 85.032C-56.7666 86.88 -51.8532 89.568 -45.7666 87.72C-37.7466 85.284 -36.1132 81.174 -27.0532 81.57C-19.2866 81.906 -13.3599 86.22 -6.8599 89.154C-0.633233 91.962 6.51343 93.498 12.3268 96.942C18.5668 100.638 21.0268 106.278 29.1268 105.906C35.7334 105.6 40.2201 99.744 46.8468 98.838C52.1734 98.106 61.2001 100.05 66.5534 101.544C83.0468 106.146 93.8468 120.684 112.42 122.106C123.753 122.976 130.667 123.708 142.06 128.436" stroke="#191919" stroke-width="0.2" stroke-linecap="round" stroke-linejoin="round"/>
<path d="M-155.635 118.38C-144.068 106.914 -135.488 101.52 -119.255 97.14C-106.915 93.81 -93.4281 88.194 -80.9614 86.058C-72.4014 84.594 -69.7548 84.912 -61.6881 89.628C-55.1414 93.462 -52.3214 94.014 -44.9748 91.338C-37.9014 88.764 -34.7881 85.23 -26.5881 85.632C-18.4348 86.028 -13.9014 89.718 -7.06811 92.778C-2.08145 95.01 3.84521 95.418 8.73855 97.794C15.3385 100.998 19.9386 109.152 28.5386 107.82C37.2786 106.464 39.7652 101.136 49.2519 101.064C53.9719 101.028 64.4319 102.516 68.7386 104.232C78.6986 108.21 84.2586 116.388 94.9519 119.688C100.439 121.38 108.072 123.804 113.692 124.092C116.919 124.254 119.112 122.796 122.379 123.09C129.032 123.684 137.219 127.53 142.965 130.428" stroke="#191919" stroke-width="0.2" stroke-linecap="round" stroke-linejoin="round"/>
<path d="M-156.514 121.182C-144.787 109.752 -136.347 103.368 -119.854 99.066C-107.74 95.91 -93.6337 90.324 -81.407 88.62C-65.6737 86.43 -59.6737 101.616 -45.087 95.544C-37.9603 92.574 -35.187 88.704 -26.527 89.16C-18.5137 89.586 -14.2337 93.672 -7.27367 96.24C-1.99367 98.19 3.65967 98.148 8.833 100.674C16.3197 104.334 19.613 110.424 28.8597 108.366C38.433 106.236 39.3263 102.822 49.513 103.248C55.773 103.512 63.893 104.784 69.3997 107.502C79.853 112.662 83.2597 119.274 95.2797 121.794C101.233 123.042 107.6 125.178 113.673 125.502C116.626 125.658 119.32 124.23 122.733 124.608C129.466 125.352 138.413 129.12 143.84 132.63" stroke="#191919" stroke-width="0.2" stroke-linecap="round" stroke-linejoin="round"/>
<path d="M-157.373 123.93C-145.533 112.704 -137.033 105.198 -120.426 101.004C-108.366 97.956 -93.9597 92.664 -81.7864 91.188C-73.433 90.174 -69.3797 91.116 -62.7131 96.582C-55.4731 102.516 -54.6997 103.626 -45.413 99.288C-38.3064 95.97 -35.3864 91.932 -26.453 92.592C-18.933 93.15 -14.2731 97.368 -7.42639 99.402C-1.77972 101.082 3.51363 100.788 8.94029 103.362C17.167 107.25 19.8736 110.856 29.227 108.522C43.3403 104.994 57.1803 102.768 70.0736 111.426C84.3669 121.014 95.2203 125.592 113.3 126.636C116.367 126.816 119.374 125.502 123.307 126.318C130.52 127.812 139.14 130.44 144.707 134.934" stroke="#191919" stroke-width="0.2" stroke-linecap="round" stroke-linejoin="round"/>
<path d="M-158.215 126.582C-146.208 115.752 -136.895 106.854 -120.175 102.738C-108.155 99.78 -95.8682 96.972 -83.7748 94.368C-74.6082 92.394 -71.7082 93.408 -64.3282 98.292C-56.5415 103.446 -55.7815 108.588 -46.5815 103.098C-39.4148 98.82 -36.0348 94.848 -26.7282 95.616C-19.6615 96.198 -14.2548 100.794 -7.6215 102.57C-0.49483 104.478 5.44517 104.916 12.7718 107.796C19.8718 110.586 22.8985 109.518 30.4518 108.21C43.2318 105.99 57.9652 106.104 68.5185 113.844C82.0852 123.792 94.5052 128.322 112.352 127.77C124.285 127.398 135.245 130.314 145.559 137.232" stroke="#191919" stroke-width="0.2" stroke-linecap="round" stroke-linejoin="round"/>
<path d="M-159.027 129.108C-146.587 118.698 -137.521 108.816 -120.701 104.706C-108.601 101.748 -96.2407 99.66 -84.134 96.792C-74.0007 94.392 -72.614 95.286 -64.4873 100.644C-57.4607 105.282 -55.874 109.32 -47.0073 105.72C-38.734 102.36 -36.7673 97.872 -26.7207 98.94C-20.2407 99.63 -14.0673 103.62 -7.65401 104.946C-0.607341 106.404 5.79933 107.628 12.8927 109.566C19.6193 111.402 24.1127 109.038 30.7793 108.432C44.4993 107.196 58.7727 109.962 68.8727 118.296C81.686 128.874 95.506 128.766 111.659 128.706C124.213 128.658 135.986 132.318 146.379 139.488" stroke="#191919" stroke-width="0.2" stroke-linecap="round" stroke-linejoin="round"/>
<path d="M-159.828 131.46C-146.435 121.356 -137.801 110.622 -120.341 106.476C-109.348 103.866 -96.9148 103.326 -86.2948 99.78C-77.3015 96.78 -73.9815 94.35 -66.1348 100.278C-57.0948 107.106 -56.2948 111.18 -44.7148 106.212C-29.4481 99.66 -23.1281 105.18 -7.61479 107.172C-1.77479 107.922 4.20522 109.284 9.93855 109.95C18.8252 110.982 23.2652 108.432 32.0052 108.45C37.5319 108.462 48.1919 110.706 53.0319 112.35C60.9585 115.044 64.2452 120.024 71.2185 124.242C83.6385 131.754 96.8919 130.164 110.572 129.852C123.785 129.552 136.532 134.406 147.179 141.606" stroke="#191919" stroke-width="0.2" stroke-linecap="round" stroke-linejoin="round"/>
<path d="M-160.58 133.542C-147.287 124.77 -139.913 113.022 -123.34 108.972C-110.867 105.924 -96.6401 105.546 -84.9067 100.572C-73.0401 95.544 -74.1601 96.18 -63.7534 103.926C-57.4534 108.612 -53.7334 109.386 -45.8401 108.15C-39.7667 107.196 -34.4201 104.286 -27.9401 104.934C-21.1401 105.612 -14.5067 108.522 -7.60007 109.368C-1.80007 110.076 4.65327 111.024 10.4466 111.21C16.8266 111.414 23.1399 108.564 29.4266 108.936C33.8266 109.2 46.8332 112.878 51.0333 114.3C60.7999 117.6 63.8399 126.018 73.1399 129.906C84.6399 134.718 98.3866 131.766 109.473 131.04C123 130.152 137.247 136.692 147.913 143.49" stroke="#191919" stroke-width="0.2" stroke-linecap="round" stroke-linejoin="round"/>
<path d="M-161.307 135.396C-146.853 127.26 -140.353 114.714 -122.94 110.682C-109.16 107.49 -95.8133 106.77 -83.4266 100.38C-68.2533 92.55 -62.62 110.91 -46.8933 109.932C-38.6 109.416 -33.5667 107.34 -25.0467 108.276C-19.2133 108.918 -13.58 110.868 -7.51999 111.36C-1.79332 111.828 5.35335 112.98 10.9667 112.572C18.0667 112.062 23.1867 109.164 30.48 110.46C36.52 111.534 42.9467 114.54 48.92 116.316C59.7267 119.532 60.46 128.214 70.6533 132.246C76.6867 134.634 86.86 134.586 93.2467 134.742C98.8733 134.88 103.653 132.618 108.407 132.288C122.347 131.328 137.5 138.702 148.653 145.146" stroke="#191919" stroke-width="0.2" stroke-linecap="round" stroke-linejoin="round"/>
<path d="M-162.014 137.046C-146.954 129.732 -141.1 116.562 -123.414 112.602C-108.774 109.326 -96.447 108.546 -83.7403 101.01C-69.387 92.496 -61.9937 110.178 -47.0403 111.096C-33.747 111.912 -20.8603 112.008 -7.45367 113.196C5.58633 114.354 18.953 108.426 30.6863 111.768C36.6463 113.466 43.2196 116.406 49.1196 118.506C59.0063 122.028 59.953 132.048 70.313 135.084C76.433 136.878 86.7396 137.07 92.9863 136.86C98.4663 136.674 103.046 133.872 107.973 133.482C121.68 132.408 138.126 140.946 149.366 146.586" stroke="#191919" stroke-width="0.2" stroke-linecap="round" stroke-linejoin="round"/>
<path d="M-162.701 138.69C-147.368 131.634 -141.801 118.374 -123.855 114.558C-108.201 111.228 -97.1745 110.244 -84.0078 101.622C-75.8145 96.2579 -73.6878 98.5739 -65.6412 103.242C-59.3612 106.884 -54.8145 111.006 -47.1745 112.29C-34.3812 114.444 -20.4212 113.514 -7.3745 114.858C0.685503 115.692 3.19215 116.454 11.3855 113.544C19.5455 110.646 22.7055 110.4 30.8322 113.616C34.2588 115.98 37.9455 117.978 41.8855 119.604C44.3455 120.024 46.8055 120.444 49.2655 120.858C59.5522 125.532 57.5522 135.102 70.0588 137.43C76.7122 138.666 85.9655 139.374 92.5722 138.75C97.9455 138.24 102.532 135.318 107.819 134.97C121.552 134.064 138.399 142.878 150.039 148.014" stroke="#191919" stroke-width="0.2" stroke-linecap="round" stroke-linejoin="round"/>
<path d="M-163.367 140.34C-148.081 132.846 -142.454 120.12 -124.287 116.496C-118.321 115.302 -112.127 114.696 -106.221 113.316C-95.4605 110.808 -93.3139 108.624 -84.2939 102.462C-76.2005 96.936 -73.9405 99.186 -65.8472 103.818C-59.5872 107.4 -54.6005 111.516 -47.3138 113.508C-34.7738 116.934 -20.2805 115.134 -7.28718 116.346C1.71282 117.186 2.55948 117.63 11.6461 113.928C20.2928 110.406 22.8795 111.954 30.9662 115.956C36.5795 118.734 43.9995 121.056 49.2661 124.104C60.1128 130.392 55.4728 138.39 69.8795 139.752C76.9595 140.418 85.1595 141.492 92.1195 140.436C97.7595 139.578 102.206 136.95 108.046 136.8C122.253 136.44 138.279 144.42 150.706 149.418" stroke="#191919" stroke-width="0.2" stroke-linecap="round" stroke-linejoin="round"/>
<path d="M-164.014 141.924C-149.134 133.506 -143.007 121.854 -124.767 118.452C-118.72 117.324 -112.6 116.526 -106.56 115.38C-95.927 113.37 -93.1337 109.41 -84.5603 103.674C-71.6603 95.034 -59.9337 110.292 -47.4337 114.882C-35.0137 119.442 -20.3003 116.85 -7.187 117.756C2.053 118.398 2.57966 118.158 11.9197 114.522C21.0663 110.958 23.1997 114.384 31.0863 118.77C36.6263 121.854 44.1397 124.212 49.1263 128.142C58.9663 135.906 55.5997 141.312 69.7597 142.098C77.0597 142.506 84.5463 143.46 91.6797 142.026C98.0197 140.748 101.9 138.624 108.453 138.786C123.053 139.146 138.28 145.806 151.353 150.846" stroke="#191919" stroke-width="0.2" stroke-linecap="round" stroke-linejoin="round"/>
<path d="M-164.635 143.334C-150.455 133.908 -143.475 123.624 -125.368 120.42C-119.241 119.334 -112.961 118.716 -106.881 117.456C-96.3214 115.272 -93.5614 110.574 -84.8214 105.336C-71.7881 97.5239 -59.0881 111.33 -47.5481 116.676C-35.1681 122.412 -20.3814 118.098 -7.0681 119.052C1.88523 119.694 3.13192 118.068 12.1719 115.35C21.4986 112.548 23.7586 117.756 31.1852 121.938C37.5252 125.508 43.7852 127.362 48.8852 132.672C57.0052 141.132 57.0653 143.592 69.7119 144.42C83.8386 145.344 95.5919 139.866 108.852 140.772C123.685 141.786 138.445 147.204 151.985 152.268" stroke="#191919" stroke-width="0.2" stroke-linecap="round" stroke-linejoin="round"/>
<path d="M-165.24 144.648C-158.38 139.512 -151.374 130.764 -143.7 126.756C-138.52 124.05 -131.88 123.372 -126.127 122.394C-119.88 121.332 -113.354 120.942 -107.18 119.58C-96.9669 117.33 -93.8069 112.032 -85.0602 107.508C-71.3669 100.428 -58.5936 112.92 -47.6536 119.028C-35.8269 125.628 -20.0536 119.574 -6.92022 120.204C1.25978 120.6 4.21311 117.768 12.3798 116.532C21.1731 115.2 24.6465 121.524 31.2798 125.334C38.5465 129.51 43.1065 131.292 48.5998 137.454C55.8998 145.638 58.5331 145.86 69.7531 146.706C84.0198 147.78 95.3531 141.372 109.226 142.77C124.186 144.276 138.713 148.686 152.586 153.702" stroke="#191919" stroke-width="0.2" stroke-linecap="round" stroke-linejoin="round"/>
<path d="M-165.82 145.92C-159.187 140.514 -152.207 131.814 -144.16 128.046C-139.214 125.73 -132.447 125.262 -127.06 124.38C-120.6 123.324 -113.874 123.012 -107.48 121.674C-97.7736 119.64 -93.8536 114.012 -85.2936 110.226C-70.2203 103.566 -58.927 115.206 -47.7603 121.992C-39.4803 127.02 -33.947 124.884 -25.1736 122.4C-18.387 120.474 -13.7737 121.206 -6.78032 121.392C-0.126986 121.566 6.19969 118.11 12.513 118.212C20.113 118.338 25.6664 125.304 31.3664 128.766C38.8197 133.302 42.413 136.428 48.3064 142.23C55.013 148.83 60.5997 148.194 69.8997 148.956C77.9464 149.616 83.3197 147.27 90.9664 145.542C97.8197 143.988 102.56 143.922 109.586 144.792C124.613 146.646 139.053 150.246 153.173 155.16" stroke="#191919" stroke-width="0.2" stroke-linecap="round" stroke-linejoin="round"/>
<path d="M-166.381 147.198C-153.354 135.96 -146.228 129.204 -128.168 126.378C-121.434 125.322 -114.441 125.1 -107.774 123.762C-98.6609 121.932 -93.8209 116.628 -85.5009 113.46C-68.1942 106.878 -60.3342 118.11 -47.8675 125.532C-39.1742 130.71 -33.7209 126.804 -25.2209 123.828C-18.3809 121.428 -13.8009 122.658 -6.64752 122.712C-0.874184 122.76 7.12581 119.682 12.5725 120.606C18.9258 121.686 26.6792 128.922 31.4392 132.054C37.8658 136.29 42.0858 142.428 48.0591 146.712C53.7458 150.792 63.2392 150.744 70.1058 151.158C78.2858 151.65 83.3525 148.194 91.0658 146.628C97.7125 145.284 103.139 145.782 109.932 146.802C124.999 149.064 139.379 151.812 153.732 156.6" stroke="#191919" stroke-width="0.2" stroke-linecap="round" stroke-linejoin="round"/>
<path d="M-166.92 148.518C-160.153 142.494 -154.24 134.454 -145.1 131.328C-140.213 129.654 -134.527 129.144 -129.413 128.382C-122.347 127.326 -115.067 127.134 -108.053 125.856C-99.2933 124.26 -93.8666 119.532 -85.6733 116.844C-80.0799 115.008 -72.5599 114.246 -66.8399 115.662C-57.6799 117.93 -55.5732 125.622 -47.9666 129.552C-39.1066 134.124 -33.1532 128.358 -25.2666 125.334C-18.5132 122.748 -13.6199 124.152 -6.52659 124.152C-0.493253 124.152 6.72675 121.782 12.6001 123.678C18.5201 125.58 26.8401 132.396 31.4268 135.624C36.6601 139.302 41.9468 147.678 47.8934 150.666C52.4201 152.94 65.2334 153.36 70.3001 153.384C78.2734 153.426 83.7667 149.142 91.3267 147.9C97.8401 146.832 103.707 147.9 110.253 148.836C125.28 150.978 139.887 153.504 154.267 158.07" stroke="#191919" stroke-width="0.2" stroke-linecap="round" stroke-linejoin="round"/>
<path d="M-167.434 149.916C-160.7 143.868 -154.994 136.17 -145.807 133.218C-141.007 131.676 -135.747 131.106 -130.747 130.398C-123.32 129.348 -115.747 129.114 -108.34 127.974C-99.6936 126.636 -93.9669 122.622 -85.8003 120.24C-80.2669 118.632 -72.5803 117.468 -66.9803 118.854C-57.9269 121.092 -56.1603 130.782 -48.0536 133.824C-39.4336 137.058 -32.4203 129.678 -25.3069 127.014C-18.8536 124.596 -13.1803 125.808 -6.42694 125.79C9.63306 125.736 18.5731 129.732 31.3531 139.26C36.6064 143.178 41.0731 151.38 47.8797 153.798C51.8331 155.202 66.2264 155.892 70.4931 155.616C78.1397 155.124 84.1797 150.3 91.6664 149.412C97.9997 148.662 104.3 149.994 110.566 150.876C125.54 152.988 140.386 155.214 154.78 159.552" stroke="#191919" stroke-width="0.2" stroke-linecap="round" stroke-linejoin="round"/>
<path d="M-167.934 151.428C-156.3 141.15 -149.454 134.808 -133.194 132.546C-116.927 130.29 -103.327 128.832 -87.8002 124.158C-82.7602 122.64 -71.0069 120.234 -65.7403 122.118C-57.7136 124.998 -56.7736 135.918 -47.2003 137.274C-39.5936 138.354 -35.0402 133.35 -28.6336 130.452C-20.5269 126.78 -15.0603 127.908 -6.38025 127.77C8.81309 127.53 18.6464 133.206 30.5531 141.63C40.2331 148.476 38.3531 153.222 50.3931 156.306C56.5064 157.872 66.9064 158.25 72.8531 157.014C80.2598 155.472 85.5664 151.278 93.5331 150.978C99.4731 150.756 105.993 152.136 111.88 153.048C126.473 155.304 141.24 156.864 155.273 161.238" stroke="#191919" stroke-width="0.2" stroke-linecap="round" stroke-linejoin="round"/>
<path d="M-168.408 153.084C-157.162 143.46 -150.102 136.59 -134.562 134.574C-118.375 132.48 -103.615 131.67 -87.9682 127.422C-81.5015 125.67 -72.2415 123.3 -65.8749 126.642C-58.1415 130.704 -57.7815 140.514 -47.2815 140.766C-39.9415 140.94 -35.0015 134.964 -28.6815 132.486C-21.7349 129.762 -13.7549 129.72 -6.34154 129.87C8.16513 130.158 20.0251 136.086 30.2585 145.722C39.6185 154.536 37.6518 156.372 50.5185 158.634C57.8585 159.924 66.3185 160.17 73.3785 157.974C87.7585 153.504 96.8318 152.364 112.172 155.136C126.752 157.77 141.825 158.292 155.745 163.188" stroke="#191919" stroke-width="0.2" stroke-linecap="round" stroke-linejoin="round"/>
<path d="M-168.854 154.896C-157.92 145.998 -150.667 138.384 -135.854 136.608C-119.694 134.676 -103.894 134.496 -88.1402 130.578C-80.0869 128.574 -73.2868 126.144 -66.0002 131.25C-58.6068 136.434 -58.3335 144.606 -47.3535 143.73C-40.4602 143.178 -35.0869 136.992 -28.7135 134.784C-21.7535 132.378 -13.6402 132.162 -6.32019 132.186C8.47315 132.228 21.0198 139.284 29.8998 149.82C38.0465 159.486 38.0798 159.576 50.6465 160.962C59.4065 161.928 65.6732 161.784 73.9865 158.568C86.5932 153.69 99.0665 154.68 112.46 157.44C127.1 160.458 142.446 159.624 156.206 165.36" stroke="#191919" stroke-width="0.2" stroke-linecap="round" stroke-linejoin="round"/>
<path d="M-169.281 156.858C-157.681 148.05 -151.121 140.148 -135.855 138.546C-119.288 136.806 -102.628 136.818 -86.4013 133.128C-78.2346 131.268 -74.6013 131.01 -67.4946 134.952C-59.8413 139.2 -59.1079 148.998 -48.3746 146.664C-40.7146 145.002 -33.2346 138.822 -25.4479 136.602C-18.9079 134.742 -13.2546 134.274 -6.32125 134.568C1.35208 134.892 5.75876 135.552 12.8454 138.966C21.0654 142.92 24.1454 148.758 30.2721 154.584C41.5721 165.324 57.0721 166.218 72.3454 160.026C84.5988 155.058 98.6921 156.708 111.692 159.672C126.772 163.104 142.765 160.95 156.632 167.688" stroke="#191919" stroke-width="0.2" stroke-linecap="round" stroke-linejoin="round"/>
<path d="M-169.688 158.958C-157.541 150.63 -152.241 142.128 -136.761 140.604C-120.187 138.972 -102.821 139.548 -86.5608 136.002C-77.9408 134.124 -75.0808 133.896 -67.5875 138.324C-59.9275 142.848 -59.0875 151.476 -48.4475 148.524C-32.6208 144.132 -24.0208 135.366 -6.32749 136.824C0.919177 137.418 6.15251 137.952 12.8992 141.03C21.5125 144.96 23.6592 151.68 29.9992 157.584C42.9658 169.668 57.0125 166.326 72.9325 160.242C84.0858 155.982 100.539 159.33 111.926 162.36C127.419 166.488 142.699 162.468 157.033 170.124" stroke="#191919" stroke-width="0.2" stroke-linecap="round" stroke-linejoin="round"/>
<path d="M-170.074 161.16C-159.474 154.818 -154.001 144.36 -141.081 142.962C-123.741 141.09 -105.788 141.846 -88.6342 138.924C-81.0609 137.634 -76.1675 134.778 -69.1342 139.044C-59.6875 144.768 -60.8076 150.852 -49.5142 149.928C-43.3076 149.424 -35.5809 144.972 -29.8942 142.362C-18.4609 137.112 -18.6475 137.574 -6.32754 139.32C0.539127 140.292 6.91244 139.932 13.3724 143.112C22.4524 147.582 24.0191 154.962 30.5124 161.25C42.9991 173.34 57.7591 166.632 71.1525 161.484C84.5458 156.33 101.672 163.188 114.946 165.96C130.259 169.152 143.079 164.802 157.412 172.626" stroke="#191919" stroke-width="0.2" stroke-linecap="round" stroke-linejoin="round"/>
<path d="M-170.434 163.41C-159.294 157.458 -154.96 146.742 -141.58 145.02C-124.194 142.782 -105.96 144.438 -88.7603 141.27C-81.0003 139.842 -76.5536 136.584 -69.2003 140.85C-60.0336 146.172 -60.4069 151.332 -49.5736 151.074C-42.3136 150.9 -35.7469 146.808 -29.9203 143.346C-18.6536 136.65 -18.6203 138.72 -6.32027 141.258C0.393066 142.644 7.05308 142.02 13.3997 145.02C21.9664 149.07 24.2664 156.564 30.5264 162.498C35.6131 167.316 42.4931 170.478 49.9664 170.34C59.3931 170.166 63.5664 163.77 71.6931 161.562C85.1197 157.914 102.473 166.416 115.18 168.846C131.033 171.876 142.64 167.118 157.793 175.122" stroke="#191919" stroke-width="0.2" stroke-linecap="round" stroke-linejoin="round"/>
<path d="M-170.768 165.648C-159.141 159.888 -155.188 149.052 -140.934 147.006C-124.568 144.654 -107.061 147.102 -90.8942 144.024C-78.9476 141.75 -77.9742 136.446 -66.7942 143.928C-61.7409 147.306 -57.5542 152.154 -50.6876 152.562C-38.4276 153.288 -35.6009 145.086 -26.5009 140.586C-18.8009 136.782 -13.8676 140.832 -6.33424 142.722C-0.0542437 144.3 8.14577 143.898 13.9458 146.538C21.7258 150.084 25.7324 158.706 31.8258 163.902C37.0924 168.396 43.3524 173.898 51.4724 172.776C60.1591 171.57 64.9324 163.158 74.0058 162.588C87.9791 161.706 101.172 169.008 114.319 171.486C131.139 174.66 141.686 169.392 158.112 177.522" stroke="#191919" stroke-width="0.2" stroke-linecap="round" stroke-linejoin="round"/>
<path d="M-171.08 167.778C-164.107 166.494 -162.74 161.61 -158.407 157.698C-153.247 153.036 -147.4 150.18 -140.167 149.004C-124 146.376 -104.58 150.57 -89.0201 145.764C-79.7067 142.884 -78.6001 138.69 -68.3734 143.436C-60.5467 147.066 -57.6401 153.126 -47.7134 153.468C-36.8534 153.84 -35.7334 144.768 -27.0267 141.324C-18.5467 137.97 -15.8267 140.892 -6.32674 144.108C-0.726737 146.004 4.75326 145.896 10.2733 147.342C20.3266 149.982 26.1599 159.45 32.9866 165.768C36.7933 169.29 42.7533 175.17 48.9466 174.936C57.5866 174.606 63.4599 165.066 72.0199 163.884C85.7733 161.982 100.527 171.414 113.407 174.096C120.24 175.518 126.973 174.24 133.913 173.922C143.427 173.484 149.847 175.854 158.427 179.748" stroke="#191919" stroke-width="0.2" stroke-linecap="round" stroke-linejoin="round"/>
<path d="M-171.387 169.698C-165.46 168.894 -163.293 164.004 -159.407 160.716C-154.233 156.348 -147.4 152.688 -140.347 151.224C-124.267 147.888 -104.353 153.396 -89.1267 147.054C-79.8667 143.196 -79.06 138.762 -68.4467 143.67C-61.1667 147.042 -57 154.368 -47.76 154.65C-36.6867 154.992 -36.1201 143.778 -27.0467 140.928C-19.0401 138.414 -14.7467 141.642 -6.32671 145.032C-0.566706 147.348 4.33329 148.068 10.26 149.574C21.5266 152.436 26.0133 159.78 33.3999 167.19C37.0733 170.874 42.8733 176.79 49.2133 176.244C57.8733 175.494 62.96 165.648 72.26 165.042C86.78 164.094 100.147 174.42 113.573 176.838C120.373 178.062 127.287 176.592 134.127 176.244C143.48 175.77 150.133 178.236 158.713 181.692" stroke="#191919" stroke-width="0.2" stroke-linecap="round" stroke-linejoin="round"/>
<path d="M-171.928 171.492C-166.848 171.072 -163.388 166.134 -159.741 163.452C-154.134 159.336 -146.601 155.202 -139.454 153.492C-122.041 149.316 -102.714 155.916 -87.1011 146.568C-80.6277 142.692 -78.2144 139.056 -70.1077 142.65C-62.2144 146.154 -58.3611 154.002 -48.8611 154.956C-36.3344 156.216 -37.2477 142.122 -27.6011 139.662C-21.1677 138.024 -11.6344 143.574 -6.3344 145.842C8.7456 152.286 20.1056 153.66 31.0989 165.684C33.5923 170.52 37.4456 173.784 42.6656 175.476C45.6523 178.038 48.5723 177.864 51.419 174.954C60.9456 172.644 63.6256 165.336 74.4323 166.878C89.1789 168.978 102.406 179.268 116.799 179.778C122.366 179.976 128.152 179.004 133.699 178.614C143.819 177.9 149.586 180.066 158.986 183.402" stroke="#191919" stroke-width="0.2" stroke-linecap="round" stroke-linejoin="round"/>
<path d="M-172.707 173.292C-161.38 171.654 -150.96 159.684 -139.6 156.228C-121.38 150.684 -103.394 158.172 -87.1937 147.426C-80.627 143.07 -78.3204 140.016 -70.167 143.844C-62.2204 147.576 -58.427 154.968 -48.9004 155.274C-37.7804 155.634 -37.2337 142.356 -27.6204 140.262C-21.0404 138.828 -11.647 143.964 -6.33371 146.478C1.35296 150.108 6.67962 152.16 14.953 154.644C23.2263 157.128 26.0663 161.904 31.373 167.688C39.493 176.544 41.4863 178.008 51.893 175.002C61.013 172.362 64.353 167.256 74.5063 168.876C89.3463 171.246 102.34 181.704 116.94 182.1C122.533 182.25 128.326 181.524 133.873 180.966C144.253 179.922 149.4 181.848 159.226 185.058" stroke="#191919" stroke-width="0.2" stroke-linecap="round" stroke-linejoin="round"/>
<path d="M-173.627 175.098C-161.734 173.706 -150.62 163.302 -139.734 159.222C-121.067 152.226 -104.394 159.702 -87.2869 148.584C-80.8469 144.402 -77.9136 142.218 -70.2203 145.656C-61.7736 149.436 -58.5603 156.144 -48.9336 155.472C-39.5336 154.818 -37.0403 144.216 -27.6336 142.104C-19.9669 140.382 -12.6536 143.82 -6.32694 147.024C1.19973 150.834 6.83305 154.062 14.9797 156.996C23.3264 160.008 25.733 164.16 31.573 170.01C46.7064 185.172 55.9264 168.456 74.5864 170.922C89.9664 172.95 101.906 183.708 117.08 184.332C122.746 184.566 128.473 183.816 134.046 183C144.666 181.44 149.3 183.366 159.453 186.6" stroke="#191919" stroke-width="0.2" stroke-linecap="round" stroke-linejoin="round"/>
<path d="M-174.607 176.91C-161.627 175.278 -151.194 167.364 -139.847 162.408C-130.187 158.19 -119.967 159.636 -109.687 158.568C-99.0407 157.464 -96.8074 155.604 -87.3674 150.18C-71.4074 141.012 -64.0341 158.04 -48.9607 155.562C-40.4674 154.164 -36.5807 146.106 -27.6474 143.988C-19.0941 141.96 -13.8407 143.628 -6.32739 147.588C0.952608 151.428 7.5126 155.412 14.9926 159.03C22.3993 162.612 25.7393 167.616 31.7193 172.566C40.6393 179.952 43.1059 177.756 52.7859 175.41C60.3726 173.574 66.5593 172.212 74.6526 173.046C90.366 174.666 101.686 185.328 117.199 186.498C123.153 186.948 128.459 185.838 134.193 184.644C144.839 182.424 149.453 184.776 159.653 188.07" stroke="#191919" stroke-width="0.2" stroke-linecap="round" stroke-linejoin="round"/>
<path d="M-175.566 178.734C-161.426 176.808 -152.086 171.696 -139.646 165.828C-129.853 161.202 -119.76 162.21 -109.226 160.812C-99.2131 159.486 -96.6397 156.69 -87.4331 152.334C-72.9597 145.482 -62.7731 158.928 -48.9864 155.808C-41.2197 154.05 -35.6331 148.062 -27.6597 145.776C-18.7264 143.214 -14.6531 143.898 -6.32639 148.308C7.82694 155.808 18.5603 167.094 31.8403 175.176C40.5003 180.45 44.2936 177.87 53.0936 176.322C60.3269 175.05 67.1936 174.678 74.7069 175.254C90.5269 176.466 101.78 186.768 117.3 188.544C123.974 189.306 128.14 187.62 134.32 185.892C144.7 182.988 149.967 186.09 159.827 189.474" stroke="#191919" stroke-width="0.2" stroke-linecap="round" stroke-linejoin="round"/>
<path d="M-176.434 180.558C-171.414 179.964 -166.327 180.15 -161.334 179.364C-152.18 177.93 -146.807 173.136 -138.98 169.386C-129.28 164.73 -119.38 164.706 -108.874 163.032C-99.8536 161.592 -96.0269 158.28 -87.4736 155.064C-74.3003 150.114 -61.9936 159.57 -49.0069 156.498C-31.7869 152.424 -24.2269 140.034 -6.32692 149.178C8.09308 156.546 17.2531 171.618 31.9464 177.57C43.8731 182.4 61.7731 176.832 74.7464 177.552C90.5797 178.434 102.033 188.19 117.38 190.452C125.046 191.58 127.673 189.066 134.42 186.768C144.32 183.39 150.706 187.476 159.96 190.818" stroke="#191919" stroke-width="0.2" stroke-linecap="round" stroke-linejoin="round"/>
<path d="M-177.16 182.388C-171.693 181.674 -166.327 183.258 -160.873 182.61C-150.94 181.434 -145.587 176.196 -136.233 172.302C-128.333 169.014 -120.107 166.536 -111.48 165.45C-103.307 164.418 -97.4135 161.802 -89.5868 159.48C-76.2402 155.526 -63.4668 161.658 -50.1535 158.544C-34.1268 154.8 -23.1535 141.768 -6.33349 149.952C9.03318 157.428 16.7932 175.98 32.9998 179.892C45.0998 182.814 59.9198 179.538 72.5398 179.868C89.2932 180.306 100.487 188.898 116.327 191.952C124.907 193.602 126.52 190.488 133.833 187.692C143.82 183.87 150.813 188.598 160.08 192.072" stroke="#191919" stroke-width="0.2" stroke-linecap="round" stroke-linejoin="round"/>
<path d="M-177.68 184.23C-171.88 183.48 -166.693 186.114 -160.94 185.868C-151.106 185.454 -144.006 180.03 -134.86 176.034C-120.433 169.74 -104.893 166.368 -89.5797 162.75C-76.6463 159.696 -63.2797 162.714 -50.1597 160.278C-34.133 157.302 -23.433 144.294 -6.32635 151.128C10.5337 157.866 15.687 178.488 33.0803 181.968C45.287 184.41 60.0003 182.07 72.5736 182.268C89.5336 182.538 100.474 190.872 116.394 193.56C125.2 195.042 126.694 190.74 133.914 188.094C143.38 184.62 151.654 190.026 160.187 193.296" stroke="#191919" stroke-width="0.2" stroke-linecap="round" stroke-linejoin="round"/>
<path d="M-177.975 186.072C-171.848 185.484 -166.968 188.814 -160.981 188.994C-151.175 189.288 -142.421 183.768 -133.408 179.826C-118.688 173.382 -105.568 169.242 -89.5746 166.152C-76.7079 163.668 -63.1679 164.844 -50.1746 162.63C-34.2879 159.918 -23.7613 147.336 -6.32792 152.568C11.7921 158.01 15.0454 179.694 33.1054 183.846C45.2321 186.63 60.0521 184.548 72.5987 184.674C80.4787 184.752 87.0521 185.148 94.5187 187.224C101.525 189.168 109.319 194.226 116.439 195.066C124.879 196.062 127.159 190.56 133.972 188.466C142.745 185.766 152.605 191.502 160.265 194.466" stroke="#191919" stroke-width="0.2" stroke-linecap="round" stroke-linejoin="round"/>
<path d="M-178 187.92C-171.673 187.698 -167.047 191.388 -160.933 191.934C-151.173 192.81 -140.747 187.59 -131.98 183.63C-117.04 176.886 -106.307 172.152 -89.58 169.482C-76.6867 167.424 -62.98 167.766 -50.18 165.438C-34.4867 162.576 -23.9133 150.87 -6.32667 154.326C12.2067 157.968 15.7267 180.12 33.0933 185.592C44.88 189.306 60.1067 187.002 72.6133 187.08C80.2333 187.128 87.1933 187.14 94.54 188.862C101.347 190.458 109.76 195.978 116.467 196.386C124.12 196.854 127.7 190.554 134.007 189.018C142.153 187.032 153.293 192.876 160.313 195.582" stroke="#191919" stroke-width="0.2" stroke-linecap="round" stroke-linejoin="round"/>
<path d="M-177.754 189.774C-171.241 190.086 -166.581 193.896 -160.227 194.628C-151.747 195.6 -143.907 192.414 -136.081 189.384C-126.887 185.826 -119.254 179.166 -109.927 176.1C-104.421 174.288 -97.6206 173.97 -91.8472 173.076C-84.3872 171.918 -76.8806 170.826 -69.4406 169.716C-62.3472 168.66 -53.6606 169.23 -46.8672 167.19C-33.0606 163.044 -22.3472 154.608 -6.32057 157.044C12.9394 159.966 16.6861 182.016 34.1594 188.226C45.3061 192.186 63.1661 189.462 74.7528 189.504C80.8594 189.522 86.7461 189.396 92.7728 190.308C100.299 191.454 107.913 196.704 115.293 197.148C122.719 197.598 126.986 191.67 133.313 190.296C141.726 188.466 153.019 193.92 160.339 196.674" stroke="#191919" stroke-width="0.2" stroke-linecap="round" stroke-linejoin="round"/>
<path d="M-177.24 191.634C-170.847 192.498 -166.14 196.116 -159.814 197.034C-151.294 198.264 -142.82 195.81 -134.94 192.918C-118.734 186.96 -109.674 178.164 -91.8669 176.142C-84.1136 175.26 -76.9936 173.328 -69.4202 171.978C-62.0202 170.658 -54.1202 171.492 -46.8669 169.134C-40.6469 167.106 -35.7536 163.098 -28.8469 162.402C-25.8469 162.546 -22.8402 162.69 -19.8402 162.834C-15.5136 161.076 -11.0069 160.044 -6.3269 159.75C12.9198 160.278 18.5531 181.536 34.0998 189.27C45.0998 194.748 62.7931 191.94 74.7464 191.916C80.7598 191.904 86.7798 191.664 92.7664 192.324C100.213 193.14 107.973 197.844 115.286 197.94C121.826 198.024 127.273 192.846 133.306 191.826C141.88 190.374 152.673 194.958 160.333 197.586" stroke="#191919" stroke-width="0.2" stroke-linecap="round" stroke-linejoin="round"/>
<path d="M-176.588 193.506C-170.315 194.892 -165.455 198.18 -159.101 199.2C-150.621 200.562 -141.961 198.954 -134.055 196.302C-118.121 190.956 -109.368 180.714 -91.8879 178.986C-83.6079 178.17 -77.3145 175.404 -69.3945 173.826C-61.5612 172.266 -54.7612 173.4 -46.8679 170.79C-40.1012 168.552 -36.3612 166.428 -28.8545 166.836C-25.8545 167.214 -22.8479 167.592 -19.8479 167.97C-15.6279 165.588 -11.1279 163.86 -6.33455 162.792C12.6655 160.632 20.4521 180.906 34.0388 189.834C45.2721 197.214 61.5921 194.376 74.7321 194.316C80.7055 194.292 86.7855 193.998 92.7455 194.424C100.139 194.952 107.939 198.822 115.265 198.63C121.252 198.474 127.319 194.544 133.279 193.812C142.425 192.69 151.799 195.882 160.299 198.348" stroke="#191919" stroke-width="0.2" stroke-linecap="round" stroke-linejoin="round"/>
<path d="M-175.941 195.432C-160.708 199.776 -149.788 204.378 -133.355 199.518C-117.815 194.922 -108.708 183.54 -91.8814 181.614C-83.0147 180.6 -77.7014 177.18 -69.3614 175.392C-61.3614 173.676 -55.0947 174.72 -46.8547 172.308C-38.6014 169.896 -37.0414 170.46 -28.8414 172.296C-18.2547 174.672 -15.9347 168.882 -6.32806 166.29C12.5986 161.178 21.5319 180.078 34.0053 190.032C45.7119 199.368 59.9453 196.872 74.7253 196.71C80.7053 196.644 86.7653 196.302 92.7386 196.548C100.125 196.854 107.879 199.812 115.252 199.404C121.185 199.074 127.179 196.35 133.259 195.876C142.765 195.132 151.132 197.016 160.265 199.092" stroke="#191919" stroke-width="0.2" stroke-linecap="round" stroke-linejoin="round"/>
<path d="M-175.307 197.37C-160.46 202.17 -144.953 207.648 -129.04 201.672C-122.727 199.302 -117.2 194.862 -111.513 191.538C-104.233 187.284 -97.7 185.994 -89.5866 183.882C-82.6466 182.076 -74.9266 176.778 -67.6866 175.902C-61.6666 175.176 -56.4133 176.514 -50.1533 175.08C-47.2333 174.258 -44.3066 173.436 -41.3866 172.614C-36.82 174.108 -32.4333 175.944 -28.2333 178.122C-25.3133 180.942 -22.3933 180.948 -19.4666 178.14C-14.4866 176.082 -10.1 173.22 -6.3133 169.548C11.2134 160.878 22.2667 179.334 33.0267 189.006C40.3534 195.594 44.1667 199.134 55.0534 199.356C60.88 199.476 66.7534 199.224 72.5867 199.134C86.6667 198.912 102.667 201.54 116.407 200.214C131.727 198.738 144.64 197.37 160.2 199.896" stroke="#191919" stroke-width="0.2" stroke-linecap="round" stroke-linejoin="round"/>
<path d="M-174.693 199.296C-160.98 204.114 -143.767 209.238 -128.987 204.834C-122.673 202.95 -116.947 198.69 -111.473 195.438C-104.327 191.196 -97.3467 189.072 -89.5734 186.222C-82.7334 183.714 -75.3467 177.924 -67.6734 177.378C-61.4667 176.934 -56.6067 178.092 -50.1534 176.898C-47.2334 176.358 -44.3134 175.818 -41.3867 175.278C-37.72 179.25 -33.3334 182.316 -28.24 184.476C-25.0667 187.62 -22.1467 187.368 -19.4734 183.726C-14.6934 180.75 -10.3134 177.342 -6.32669 173.502C11.1866 162.996 22.12 178.434 33.08 189.252C40.0266 196.11 43.9533 201.144 55.02 201.81C60.72 202.152 66.8333 201.762 72.54 201.522C87.0467 200.922 101.973 202.554 116.327 201.444C131.153 200.292 145.153 199.392 160.08 200.826" stroke="#191919" stroke-width="0.2" stroke-linecap="round" stroke-linejoin="round"/>
<path d="M-174.107 201.186C-161.067 205.758 -143.047 210.768 -128.914 207.774C-115.907 205.02 -101.054 194.118 -89.5341 188.346C-82.1741 184.656 -76.6608 179.25 -67.6474 179.232C-61.4407 179.22 -56.4074 179.46 -50.1274 179.04C-37.9341 178.224 -38.6274 189.324 -28.2274 190.782C-24.6874 193.728 -21.7674 193.128 -19.4674 188.97C-14.9474 185.298 -10.5674 181.494 -6.32741 177.558C11.1993 165.858 21.6192 177.744 33.1192 189.78C44.8326 202.038 54.4993 205.542 72.4993 203.91C100.733 201.354 131.353 200.724 159.959 201.924" stroke="#191919" stroke-width="0.2" stroke-linecap="round" stroke-linejoin="round"/>
<path d="M-173.547 203.022C-160.654 207.162 -142.747 212.274 -128.827 210.474C-115.487 208.746 -99.8735 197.094 -89.4869 190.344C-81.4335 185.112 -78.4002 180.534 -67.6135 181.464C-61.7069 181.974 -55.7002 181.026 -50.1069 181.536C-38.7202 182.574 -38.5935 196.11 -28.2202 196.446C-18.4402 196.764 -14.2069 187.29 -6.32687 181.692C-2.02021 178.632 5.39978 174.276 11.1865 174.3C22.0265 174.348 27.2131 184.41 33.1331 190.734C44.0865 202.446 54.7065 208.95 72.4598 206.106C87.7998 203.646 100.526 205.554 116.173 204.834C130.713 204.162 145.253 203.256 159.813 203.22" stroke="#191919" stroke-width="0.2" stroke-linecap="round" stroke-linejoin="round"/>
<path d="M-173.021 204.81C-159.628 208.458 -143.901 213.228 -129.848 212.904C-113.921 212.532 -98.0615 199.614 -87.3148 190.356C-81.6148 185.454 -78.5348 182.244 -70.2681 183.18C-64.0481 183.888 -55.0415 184.362 -48.9615 186.066C-40.9615 188.304 -36.4415 203.058 -27.6481 203.046C-20.9215 203.04 -10.9415 189.576 -6.32814 186.204C-0.48814 181.932 6.69851 175.728 14.9918 176.796C23.4918 177.888 27.5318 185.814 32.1385 191.154C43.5385 204.36 55.8452 212.088 74.6452 206.778C88.6185 202.83 102.399 207.6 117.192 206.898C131.345 206.226 145.485 205.272 159.645 204.684" stroke="#191919" stroke-width="0.2" stroke-linecap="round" stroke-linejoin="round"/>
<path d="M-172.541 206.55C-158.768 209.688 -143.961 214.494 -129.734 215.04C-111.448 215.736 -98.4677 202.89 -87.261 192.036C-81.0943 186.066 -79.061 184.068 -70.221 185.952C-62.381 187.62 -55.6077 187.446 -48.9343 190.614C-41.2943 194.238 -37.981 206.988 -27.6343 205.956C-20.2543 205.218 -11.4343 193.974 -6.32767 190.002C-0.401005 185.388 6.17232 178.248 14.979 179.262C23.399 180.228 27.3057 187.926 32.0923 193.026C43.8723 205.566 56.9323 214.338 74.5857 207.564C87.7057 202.53 102.646 209.838 117.079 209.046C131.212 208.272 145.339 207.336 159.452 206.322" stroke="#191919" stroke-width="0.2" stroke-linecap="round" stroke-linejoin="round"/>
<path d="M-172.102 208.266C-158.068 210.954 -143.868 215.988 -129.602 217.176C-109.115 218.88 -99.3882 206.262 -87.2016 194.232C-80.8816 187.998 -78.9082 186.834 -70.1749 189.036C-60.7682 191.406 -56.1882 191.142 -48.9082 195.882C-41.1016 200.964 -39.0816 210.9 -27.6282 207.996C-19.3549 205.896 -12.3282 198.336 -6.34157 193.374C-0.288235 188.358 5.31845 180.33 14.9451 181.89C22.6051 183.132 27.1118 190.722 32.0184 195.15C37.8318 200.394 45.6984 206.238 53.2451 209.598C63.5051 214.176 65.4784 211.98 74.4984 208.008C86.9118 202.548 102.892 211.908 116.932 211.152C131.045 210.39 145.145 209.274 159.218 208.05" stroke="#191919" stroke-width="0.2" stroke-linecap="round" stroke-linejoin="round"/>
<path d="M-171.707 209.97C-157.62 212.55 -143.627 217.77 -129.447 219.306C-107.034 221.73 -100.754 209.844 -87.1204 197.076C-75.5604 186.252 -59.6137 193.668 -48.8537 201.792C-40.567 208.05 -38.9537 213.792 -27.5937 209.712C-18.907 206.592 -12.8537 201.882 -6.32702 196.176C0.0396455 190.608 4.15297 182.196 14.933 185.106C21.4796 186.87 26.8196 193.764 31.9663 197.388C38.033 201.66 46.193 207.288 53.1996 210.504C64.073 215.496 65.0663 212.34 74.4263 208.344C86.7397 203.088 102.953 213.87 116.793 213.282C130.866 212.682 144.973 211.194 158.98 209.886" stroke="#191919" stroke-width="0.2" stroke-linecap="round" stroke-linejoin="round"/>
<path d="M-171.373 211.71C-157.12 214.044 -143.493 219.804 -129.286 221.406C-122.1 222.216 -114.886 222.492 -108.16 219.762C-97.673 215.508 -95.1797 207.684 -87.0397 200.64C-73.073 188.55 -60.273 199.386 -48.813 207.912C-40.053 214.428 -38.1664 215.532 -27.573 211.392C-18.513 207.852 -13.2264 204.174 -6.32636 197.94C0.460312 191.814 3.46696 184.056 14.907 188.742C20.8203 191.166 26.067 196.536 31.9203 199.464C39.007 203.01 45.9403 208.014 53.147 211.254C64.1803 216.216 64.8136 212.178 74.347 208.758C87.1403 204.168 102.88 215.712 116.64 215.394C130.64 215.07 144.814 213.078 158.72 211.716" stroke="#191919" stroke-width="0.2" stroke-linecap="round" stroke-linejoin="round"/>
<path d="M-171.08 213.498C-156.933 215.544 -144.127 221.724 -130.167 223.41C-123.433 224.226 -116.173 225.108 -109.613 223.41C-99.3401 220.74 -95.8734 213.552 -89.0467 207.18C-83.2067 201.726 -77.2467 197.988 -68.3867 199.71C-56.5934 202.002 -57.3267 209.958 -47.7134 215.688C-39.7067 220.464 -34.6867 216.102 -27.0267 213.084C-15.1867 208.416 -15.9667 209.028 -6.32672 198.45C-1.82672 193.506 2.26661 188.28 10.2133 190.152C14.4933 192.51 18.6266 195.054 22.6266 197.784C25.9866 200.79 30.1333 202.218 35.0533 202.056C41.2333 203.97 46.1333 208.008 51.5866 211.032C62.2733 216.96 62.3866 213.822 72.2333 211.008C86.8866 206.814 98.44 215.928 113.4 217.176C127.687 218.364 144.253 215.034 158.42 213.516" stroke="#191919" stroke-width="0.2" stroke-linecap="round" stroke-linejoin="round"/>
<path d="M-170.768 215.274C-156.421 217.194 -144.081 223.884 -129.974 225.492C-123.348 226.248 -116.008 227.556 -109.468 226.212C-99.5742 224.172 -95.7609 217.662 -88.9142 211.824C-83.5742 207.27 -76.2476 202.086 -68.3209 203.412C-57.2476 205.266 -57.7609 218.016 -47.6676 221.148C-40.5276 223.368 -32.8276 217.74 -27.0076 215.082C-24.1609 214.008 -21.4009 212.766 -18.7409 211.362C-12.5542 209.088 -8.42091 204.768 -6.33424 198.414C-1.28758 193.488 2.81243 190.686 10.1924 193.362C14.1324 196.134 18.2591 198.654 22.5724 200.916C26.0791 203.64 30.2258 204.576 35.0058 203.736C41.2924 205.008 46.1124 208.782 51.5191 211.596C61.6258 216.852 62.4791 214.23 72.1324 212.124C87.0858 208.866 98.4857 216.924 113.219 218.742C127.339 220.482 144.079 216.894 158.112 215.274" stroke="#191919" stroke-width="0.2" stroke-linecap="round" stroke-linejoin="round"/>
<path d="M-170.434 217.05C-155.934 218.94 -144.06 226.05 -129.767 227.574C-123.187 228.276 -115.854 229.8 -109.307 228.804C-99.9669 227.388 -95.5869 222.084 -88.7669 216.804C-83.3469 212.61 -75.9336 206.598 -68.2469 207.972C-58.4136 209.73 -57.6536 223.98 -47.6136 225.438C-41.8669 226.272 -31.3403 219.72 -26.9803 217.362C-17.2603 212.112 -15.1203 204.54 -6.33359 198.222C-0.966926 194.364 4.06641 193.926 10.1931 196.5C21.1464 201.114 22.9464 203.922 34.9531 205.782C41.4731 206.796 45.7931 209.586 51.4464 212.364C60.7398 216.924 62.7531 215.118 72.0264 213.738C87.2531 211.476 98.3997 217.602 113.026 220.014C127.306 222.372 143.533 218.82 157.78 217.05" stroke="#191919" stroke-width="0.2" stroke-linecap="round" stroke-linejoin="round"/>
<path d="M-170.074 218.814C-155.514 220.758 -144.008 228.144 -129.548 229.644C-122.954 230.328 -115.728 231.906 -109.141 231.288C-100.228 230.448 -95.4676 226.518 -88.6209 221.742C-82.7209 217.626 -75.9276 211.23 -68.1609 213.024C-58.8676 215.172 -58.4742 228.012 -47.5542 228.33C-42.1942 228.486 -30.9009 221.79 -26.9476 219.306C-19.4676 214.608 -13.9342 201.888 -6.32755 198.354C-1.14089 195.948 5.27243 197.286 10.2058 199.392C20.0524 203.598 23.8591 206.7 34.8991 208.122C41.7791 209.01 45.2524 210.624 51.3658 213.51C59.9791 217.578 63.0657 216.45 71.9057 215.586C86.9191 214.11 98.4391 217.89 112.812 220.974C127.546 224.136 142.586 220.788 157.419 218.814" stroke="#191919" stroke-width="0.2" stroke-linecap="round" stroke-linejoin="round"/>
<path d="M-169.688 220.572C-155.161 222.636 -143.927 230.118 -129.301 231.702C-113.034 233.466 -102.488 235.314 -88.4742 226.524C-81.8942 222.396 -76.0608 216.06 -68.0608 218.364C-58.6875 221.064 -59.3875 232.122 -47.4875 230.604C-41.3942 229.83 -31.4742 224.076 -26.9142 220.776C-19.9808 215.76 -14.8942 202.092 -6.32084 199.434C6.35916 195.498 22.2192 208.716 34.8325 210.294C41.9925 211.188 44.7858 212.166 51.2858 215.19C59.3458 218.94 63.3792 218.25 71.7925 217.668C86.3725 216.666 98.6325 217.884 112.599 221.67C128.013 225.852 141.226 222.822 157.046 220.572" stroke="#191919" stroke-width="0.2" stroke-linecap="round" stroke-linejoin="round"/>
<path d="M-169.281 222.324C-155.155 224.466 -144.441 231.972 -130.035 233.646C-116.468 235.218 -102.728 238.596 -90.3279 232.2C-83.1146 228.48 -75.6746 219.732 -66.4612 223.584C-60.3812 226.128 -58.8412 233.766 -50.4346 233.382C-45.7679 233.172 -29.8012 225.39 -26.3879 222.732C-18.3479 216.474 -18.2879 204.216 -6.32791 202.134C7.09876 199.794 21.0121 209.058 33.7254 211.878C48.4988 215.154 57.9788 220.938 73.7321 219.78C87.9654 218.73 99.9188 218.346 113.425 222.588C128.965 227.472 140.352 224.784 156.625 222.318" stroke="#191919" stroke-width="0.2" stroke-linecap="round" stroke-linejoin="round"/>
<path d="M-168.854 224.07C-154.84 226.536 -144.347 233.892 -129.76 235.686C-117.16 237.234 -102.194 241.188 -90.1735 236.244C-81.6468 232.734 -76.3535 224.592 -66.3468 228.876C-59.7268 231.714 -58.9268 236.634 -50.3535 235.104C-42.6468 233.73 -31.1068 228.144 -26.3468 222.744C-19.8935 215.418 -17.9735 206.166 -6.32019 204.45C7.18648 202.458 21.2265 210.012 33.6465 213.636C48.4065 217.938 57.5665 223.29 73.5865 222.048C88.0532 220.926 99.5398 217.944 113.173 222.99C120.386 225.66 124.813 228.348 132.813 227.622C140.64 226.908 148.473 225.306 156.206 224.064" stroke="#191919" stroke-width="0.2" stroke-linecap="round" stroke-linejoin="round"/>
<path d="M-168.408 225.804C-160.722 227.634 -156.062 230.91 -149.008 233.718C-142.735 236.214 -136.248 236.832 -129.468 237.714C-117.442 239.274 -101.868 243.534 -90.0082 239.916C-80.0149 236.862 -77.2815 229.29 -66.2215 233.364C-59.3815 235.884 -58.1149 238.434 -50.2682 236.508C-38.4082 233.598 -33.6949 231.528 -26.3149 222.192C-20.1215 214.356 -17.9682 208.656 -6.32819 207.066C7.35848 205.194 21.2185 210.66 33.5518 215.418C40.0918 217.938 46.7918 222.618 53.5451 224.388C59.9251 226.056 66.9785 224.85 73.4118 224.316C88.3518 223.074 98.7785 217.446 112.885 223.302C119.778 226.164 124.452 229.926 132.452 229.554C140.158 229.2 148.205 227.094 155.745 225.81" stroke="#191919" stroke-width="0.2" stroke-linecap="round" stroke-linejoin="round"/>
<path d="M-167.934 227.532C-154.007 232.062 -144.34 237.66 -129.167 239.73C-117.4 241.338 -101.667 245.706 -89.8469 243.21C-78.4403 240.798 -78.3669 233.796 -66.1003 236.904C-59.4469 238.59 -57.0269 239.184 -50.1936 237.576C-35.9336 234.228 -35.4269 232.974 -26.2869 221.46C-20.2469 213.846 -16.9936 210.918 -6.34027 209.622C7.63973 207.924 21.1264 211.362 33.4731 217.362C39.9997 220.53 45.9464 226.092 53.4197 227.448C59.6531 228.582 67.0464 227.13 73.2331 226.56C81.1531 225.828 85.4198 224.772 92.9664 221.916C101.16 218.814 104.753 220.08 112.586 223.59C119.113 226.518 124.28 231.324 132.08 231.414C139.533 231.504 148.046 228.828 155.266 227.538" stroke="#191919" stroke-width="0.2" stroke-linecap="round" stroke-linejoin="round"/>
<path d="M-167.434 229.254C-153.634 235.134 -144.294 239.526 -128.84 241.746C-117.22 243.414 -101.38 247.938 -89.6536 246.114C-77.8003 244.272 -78.5803 237.894 -65.9536 239.496C-59.7669 240.282 -56.0803 239.364 -50.0869 238.392C-29.4469 235.056 -28.0803 214.824 -6.32692 212.07C7.81308 210.282 21.3664 212.412 33.4264 219.426C40.0931 223.308 44.8598 229.314 53.2998 230.292C59.4398 231.006 67.0064 229.494 73.0664 228.786C81.3131 227.82 85.1064 226.416 92.7397 222.858C100.913 219.042 104.186 220.164 112.293 223.938C118.626 226.884 124.16 232.368 131.706 232.968C138.96 233.544 147.833 230.556 154.78 229.248" stroke="#191919" stroke-width="0.2" stroke-linecap="round" stroke-linejoin="round"/>
<path d="M-166.92 231.102C-154.1 237.63 -143.987 241.398 -129.427 243.606C-117.02 245.49 -99.6666 250.224 -87.4866 247.53C-79.8733 245.85 -76.5866 240.69 -68.2599 240.666C-61.4866 240.648 -55.5932 240.636 -48.9532 239.388C-37.2666 237.192 -36.5999 232.806 -29.5932 225.066C-22.8266 217.584 -16.6066 215.682 -6.32657 214.224C6.71343 212.376 21.5934 213.468 32.4134 220.776C39.2201 225.366 42.8534 230.85 51.7468 232.302C57.8934 233.304 64.8068 231.798 71.0001 231.21C81.5134 230.208 84.7667 227.184 93.9734 222.888C101.747 219.264 105.627 221.106 112.98 224.94C118.96 228.06 124.72 233.376 131.847 234.318C138.92 235.254 147.527 232.29 154.26 230.958" stroke="#191919" stroke-width="0.2" stroke-linecap="round" stroke-linejoin="round"/>
<path d="M-166.381 233.118C-153.961 240.162 -143.428 243.312 -129.074 245.592C-116.754 247.554 -99.2009 252.162 -87.2875 249.36C-79.7275 247.584 -76.1742 243.174 -68.1142 242.346C-62.0542 241.722 -54.6542 241.11 -48.8542 240.198C-37.3409 238.386 -37.4342 231.03 -29.5409 224.712C-24.0275 220.296 -13.5342 217.392 -6.32752 216.462C7.33914 214.692 21.7525 215.16 32.3658 223.554C38.8058 228.648 42.6258 233.37 51.6125 234.63C57.7125 235.482 64.6925 234.198 70.8125 233.442C80.9791 232.182 84.8325 228.042 93.7125 223.926C101.172 220.47 105.432 221.856 112.646 225.402C118.819 228.432 124.466 233.802 131.432 235.35C138.692 236.958 146.786 234.114 153.726 232.674" stroke="#191919" stroke-width="0.2" stroke-linecap="round" stroke-linejoin="round"/>
<path d="M-165.82 235.23C-153.874 242.358 -142.64 245.262 -128.7 247.578C-116.307 249.636 -98.6736 253.854 -87.0736 250.722C-82.9403 249.018 -79.1136 246.84 -75.607 244.194C-73.0536 243.984 -70.507 243.774 -67.9536 243.564C-61.2603 242.244 -55.2536 241.428 -48.747 240.444C-38.1536 238.842 -37.7603 229.8 -29.4803 225.102C-24.5536 222.306 -12.0937 219.294 -6.32032 218.67C8.39968 217.08 21.2997 217.338 32.293 226.608C44.1464 236.604 54.613 238.44 70.613 235.662C86.813 232.848 94.8864 218.484 112.293 225.954C118.84 228.762 124.093 233.904 130.993 236.1C138.546 238.506 145.733 235.986 153.173 234.372" stroke="#191919" stroke-width="0.2" stroke-linecap="round" stroke-linejoin="round"/>
<path d="M-165.24 237.36C-152.794 244.824 -140.087 247.548 -125.527 250.008C-113.58 252.03 -95.6402 256.284 -84.9936 250.662C-78.5536 247.26 -73.6069 245.154 -66.3669 243.222C-62.9269 241.386 -59.1869 240.306 -55.1536 239.982C-52.6536 240.504 -50.1602 241.032 -47.6602 241.554C-43.1869 239.046 -39.4402 235.878 -36.4002 232.056C-34.0936 228.054 -30.3336 226.008 -25.1269 225.93C-18.7802 223.944 -13.1069 221.652 -6.32022 221.058C-0.193555 220.524 6.35314 220.656 12.4865 220.656C21.3531 220.656 24.5065 224.082 31.2998 228.93C43.4731 237.624 56.4265 241.968 72.3531 237.366C85.2931 233.628 93.9464 221.568 109.24 225.372C117.506 227.43 123.36 234.078 131.066 237.078C138.42 239.94 145.193 237.936 152.606 236.046" stroke="#191919" stroke-width="0.2" stroke-linecap="round" stroke-linejoin="round"/>
<path d="M-164.635 239.472C-152.455 246.504 -139.281 249.618 -125.135 251.988C-112.108 254.172 -96.1614 257.022 -84.7748 250.926C-78.9148 247.788 -72.5014 245.07 -66.2014 243.204C-59.8081 241.314 -53.5214 242.634 -47.5481 241.29C-43.7348 238.332 -39.9948 235.308 -36.3214 232.212C-33.6214 228.882 -29.8748 227.4 -25.0814 227.772C-18.5814 226.026 -13.3148 223.71 -6.32809 223.284C-0.301423 222.918 6.43859 222.774 12.4253 223.002C21.1519 223.332 24.3919 227.724 31.1719 232.11C42.5719 239.484 58.0453 244.158 72.1053 238.92C84.3519 234.36 93.9386 224.058 108.845 226.5C117.625 227.934 123.112 234.432 130.565 237.99C137.805 241.452 144.412 239.898 151.979 237.732" stroke="#191919" stroke-width="0.2" stroke-linecap="round" stroke-linejoin="round"/>
<path d="M-164.014 241.506C-151.934 247.908 -138.56 251.82 -124.734 253.956C-118.5 254.922 -112.74 254.592 -106.554 254.88C-94.727 255.432 -95.4337 256.332 -84.5537 251.406C-78.7537 248.778 -71.887 244.818 -66.027 242.952C-63.007 239.946 -59.2937 239.43 -54.8803 241.404C-52.4003 241.248 -49.9137 241.092 -47.4337 240.942C-44.227 237.702 -40.5003 235.14 -36.2403 233.25C-32.8603 231.192 -29.1203 229.878 -25.0337 229.308C-18.587 227.292 -13.307 225.846 -6.33366 225.588C-0.586998 225.372 6.79298 224.67 12.3663 225.336C20.2997 226.29 24.593 231.726 31.0463 235.236C42.333 241.374 59.253 246.054 71.8597 240.192C83.4797 234.786 94.1863 226.824 108.446 227.898C127.106 229.302 130.3 246.084 151.346 239.406" stroke="#191919" stroke-width="0.2" stroke-linecap="round" stroke-linejoin="round"/>
<path d="M-163.367 243.426C-151.287 249.114 -137.914 254.112 -124.307 255.912C-109.541 257.868 -97.5739 257.466 -84.3205 252.288C-81.8539 251.64 -79.3872 250.986 -76.9205 250.338C-73.5072 247.452 -69.8139 244.914 -65.8405 242.724C-59.5272 240.738 -53.9672 243.426 -47.3072 240.84C-39.5939 237.84 -33.1739 233.508 -24.9739 230.67C-18.6472 228.48 -13.1139 228.06 -6.32719 227.904C-0.967189 227.784 7.3128 226.704 12.3128 227.898C19.4261 229.596 24.4661 235.35 30.9328 238.152C42.7261 243.27 59.7595 247.482 71.6195 241.26C82.2795 235.662 94.8728 228.834 108.053 229.608C126.219 230.682 130.466 248.46 150.713 241.068" stroke="#191919" stroke-width="0.2" stroke-linecap="round" stroke-linejoin="round"/>
<path d="M-162.701 245.202C-137.988 255.834 -109.915 263.976 -84.0745 253.704C-77.0812 250.926 -72.5345 244.728 -65.6412 242.79C-59.0812 240.948 -54.1212 243.732 -47.1745 241.2C-32.8012 235.962 -22.3012 230.256 -6.32783 230.196C-0.694492 230.172 6.93216 229.158 12.2455 230.862C19.0188 233.028 23.9855 238.542 30.8122 240.81C43.3788 244.98 59.5388 248.61 71.3522 242.22C81.6722 236.64 95.0988 231.348 107.625 231.558C125.425 231.858 130.092 250.554 150.046 242.718" stroke="#191919" stroke-width="0.2" stroke-linecap="round" stroke-linejoin="round"/>
<path d="M-162.014 246.816C-138.334 256.578 -109.12 266.34 -83.827 255.774C-76.427 252.684 -73.0803 245.328 -65.4403 243.51C-59.0403 241.986 -53.7203 244.026 -47.0403 242.208C-32.1803 238.164 -22.2603 232.5 -6.32701 232.5C-0.160339 232.5 6.31298 231.684 12.173 234.006C18.953 236.694 23.3396 241.548 30.6863 243.336C43.953 246.564 58.9196 249.51 71.0796 243.168C80.9596 238.014 95.473 233.586 107.193 233.52C119.973 233.454 117.866 237.216 128.46 243.834C135.193 248.04 141.98 247.32 149.36 244.362" stroke="#191919" stroke-width="0.2" stroke-linecap="round" stroke-linejoin="round"/>
<path d="M-161.307 248.268C-149.653 253.128 -135.947 260.496 -122.94 261.012C-117.133 261.24 -110.96 260.676 -105.107 260.502C-98.3133 260.298 -90.0267 260.838 -83.5467 257.766C-76.12 254.238 -73.5333 246.48 -65.2333 244.752C-59.2 243.498 -53.2 245.178 -46.8933 243.888C-38.46 242.16 -32.8666 237.9 -24.7866 235.626C-18.9533 233.982 -12.2933 234.774 -6.32 234.804C0.36667 234.834 5.82001 234.198 12.12 237.126C18.8533 240.258 22.86 244.188 30.5667 245.568C44.4133 248.046 58.14 250.206 70.8067 244.182C80.2067 239.712 95.9067 235.446 106.747 235.488C119.347 235.536 117.413 239.718 127.893 245.976C134.673 250.026 141.407 248.838 148.653 246.012" stroke="#191919" stroke-width="0.2" stroke-linecap="round" stroke-linejoin="round"/>
<path d="M-160.574 249.696C-149.008 254.604 -135.321 262.248 -122.454 262.404C-116.588 262.476 -110.488 262.266 -104.708 262.17C-98.4742 262.068 -88.9942 262.212 -83.2542 259.29C-75.9276 255.558 -73.8009 248.184 -65.0276 246.492C-59.1542 245.358 -52.8609 247.248 -46.7542 246.186C-38.4609 244.74 -32.7609 239.772 -24.7276 237.84C-18.9276 236.442 -12.2342 237.024 -6.32755 237.072C8.33911 237.192 16.7258 245.61 30.4124 247.524C44.7324 249.522 57.2791 250.65 70.5058 245.292C79.4258 241.674 96.3991 236.982 106.272 237.414C118.159 237.93 117.386 243.402 127.299 248.322C134.412 251.856 140.579 250.326 147.919 247.626" stroke="#191919" stroke-width="0.2" stroke-linecap="round" stroke-linejoin="round"/>
<path d="M-159.828 251.124C-148.101 256.182 -135.008 263.61 -121.955 263.574C-115.928 263.556 -110.155 263.712 -104.295 263.796C-97.4948 263.892 -88.9948 264 -82.9281 260.628C-75.9615 256.752 -73.6881 250.584 -64.8014 248.88C-58.8348 247.734 -52.5548 249.972 -46.6014 248.742C-38.6214 247.092 -32.7881 241.896 -24.6615 240.378C-18.8681 239.298 -12.1948 239.37 -6.32811 239.34C7.91856 239.256 16.7319 247.74 30.2652 249.444C44.6785 251.262 56.6919 251.028 70.2052 246.612C78.7919 243.804 96.7519 238.518 105.792 239.412C116.012 240.42 118.145 247.152 126.692 250.872C133.805 253.968 140.152 251.76 147.172 249.246" stroke="#191919" stroke-width="0.2" stroke-linecap="round" stroke-linejoin="round"/>
<path d="M-159.027 252.606C-146.907 257.916 -134.941 264.63 -121.414 264.642C-109.447 264.654 -93.1073 268.686 -82.574 262.008C-76.1273 257.916 -73.0473 253.248 -64.5673 251.634C-58.6207 250.5 -52.294 252.348 -46.4407 250.896C-38.3007 248.88 -33.074 244.908 -24.5873 243.42C-18.894 242.418 -12.114 242.028 -6.32734 241.764C7.47932 241.134 16.9326 249.372 30.0993 251.238C44.1993 253.242 56.4527 251.862 69.8793 248.232C78.6393 245.862 96.2793 240.6 105.279 241.83C114.106 243.036 118.253 250.866 126.046 253.626C133.099 256.122 139.739 253.224 146.373 250.908" stroke="#191919" stroke-width="0.2" stroke-linecap="round" stroke-linejoin="round"/>
<path d="M-158.207 254.082C-145.674 259.722 -134.854 265.446 -120.86 265.686C-107.807 265.908 -93.7937 270.906 -82.1937 263.562C-76.2137 259.77 -71.8804 255.912 -64.3137 254.388C-58.3604 253.188 -52.167 254.388 -46.2604 252.702C-36.8337 250.002 -34.187 248.232 -24.5004 247.146C-18.2937 246.45 -12.527 245.106 -6.3137 244.404C7.03964 242.892 17.2796 250.608 29.9463 252.888C43.7463 255.366 56.193 252.978 69.553 250.158C78.5463 248.262 95.7397 242.49 104.76 244.434C113.08 246.222 117.213 254.358 125.393 256.44C132.286 258.198 139.34 254.724 145.566 252.57" stroke="#191919" stroke-width="0.2" stroke-linecap="round" stroke-linejoin="round"/>
<path d="M-157.367 255.564C-144.514 261.414 -134.574 266.208 -120.281 266.814C-105.987 267.42 -94.9805 272.778 -81.8005 265.422C-76.1339 262.26 -70.5605 258.648 -64.0539 257.034C-58.0739 255.552 -52.0672 256.08 -46.0872 254.22C-34.9872 250.764 -35.8072 250.386 -24.4272 251.526C-17.2739 252.246 -12.9805 248.484 -6.32719 247.14C6.57948 244.53 17.5528 251.658 29.7528 254.376C43.1928 257.37 55.9195 254.754 69.1795 252.27C78.4461 250.536 94.9728 244.464 104.186 247.002C112.439 249.276 115.906 257.724 124.686 259.176C131.166 260.25 139.033 256.212 144.713 254.202" stroke="#191919" stroke-width="0.2" stroke-linecap="round" stroke-linejoin="round"/>
<path d="M-156.5 257.046C-143.553 263.016 -134.033 266.982 -119.687 268.128C-104.76 269.322 -95.62 274.65 -81.4133 267.768C-69.2467 261.876 -58.5667 259.722 -45.9 255.6C-33.96 251.712 -35.8133 254.796 -24.34 256.548C-16.9667 257.676 -12.68 252.174 -6.32 250.2C6.4 246.246 17.4333 252.672 29.6 255.78C42.9533 259.188 55.4733 256.722 68.8267 254.4C78.36 252.738 94.2133 246.498 103.627 249.486C111.787 252.072 114.96 260.64 123.987 261.792C129.8 262.53 138.84 257.676 143.86 255.846" stroke="#191919" stroke-width="0.2" stroke-linecap="round" stroke-linejoin="round"/>
<path d="M-155.621 258.528C-142.768 264.534 -133.248 267.876 -119.088 269.64C-104.714 271.434 -95.0744 277.008 -81.0411 270.588C-69.2278 265.182 -58.7078 259.98 -45.7211 256.908C-33.1144 253.926 -35.7478 260.22 -24.2678 262.026C-17.0744 263.16 -12.0011 255.894 -6.33443 253.464C6.20557 248.094 17.0856 253.614 29.4322 257.094C42.9456 260.904 54.7989 258.84 68.4456 256.5C78.1189 254.844 93.4922 248.538 103.039 251.76C110.959 254.436 114.326 263.184 123.252 264.12C128.546 264.672 138.399 259.182 142.966 257.454" stroke="#191919" stroke-width="0.2" stroke-linecap="round" stroke-linejoin="round"/>
<path d="M-154.715 260.01C-142.055 266.004 -132.288 268.878 -118.468 271.254C-105.388 273.498 -93.8215 279.648 -80.6615 273.762C-69.2748 268.674 -58.5615 260.562 -45.5282 258.348C-33.2748 256.26 -34.8748 267.078 -24.1815 267.726C-17.2748 268.146 -11.5082 259.644 -6.33483 256.878C5.9585 250.308 16.6252 254.484 29.2918 258.372C43.1452 262.626 53.9185 261.06 68.0652 258.6C77.7652 256.914 92.8452 250.566 102.439 253.8C110.185 256.41 113.772 265.086 122.505 265.944C127.719 266.454 137.592 260.814 142.052 259.068" stroke="#191919" stroke-width="0.2" stroke-linecap="round" stroke-linejoin="round"/>
<path d="M-153.787 261.492C-141.447 267.42 -131.214 270.084 -117.834 272.988C-105.707 275.622 -92.5738 282.234 -80.2804 276.378C-69.9871 271.476 -57.7338 261.294 -45.3271 260.238C-34.0671 259.278 -34.3404 273.402 -24.0871 273.312C-17.8004 273.252 -10.9471 263.232 -6.3271 260.376C5.69956 252.936 16.1262 255.42 29.1529 259.758C43.3129 264.474 53.0329 263.328 67.6796 260.7C77.3062 258.972 92.2596 252.576 101.84 255.6C109.586 258.048 113.166 266.244 121.76 267.162C127.44 267.768 136.353 262.614 141.14 260.682" stroke="#191919" stroke-width="0.2" stroke-linecap="round" stroke-linejoin="round"/>
<path d="M-152.848 262.968C-140.868 268.806 -130.134 271.506 -117.188 274.836C-105.628 277.812 -91.2743 284.862 -79.8943 278.322C-73.6276 274.722 -69.8543 271.632 -62.6143 269.208C-58.6343 267.876 -49.4276 262.458 -45.1343 262.602C-34.5876 262.956 -35.0543 279.318 -24.0076 278.382C-18.1876 277.89 -10.681 266.856 -6.34099 263.904C5.47901 255.876 15.6123 256.458 28.979 261.276C43.339 266.46 52.179 265.548 67.259 262.746C76.7724 260.982 91.6523 254.502 101.192 257.13C108.879 259.248 112.719 266.928 120.959 268.026C127.292 268.872 134.826 264.474 140.172 262.242" stroke="#191919" stroke-width="0.2" stroke-linecap="round" stroke-linejoin="round"/>
<path d="M-151.881 264.45C-140.208 270.216 -129.081 273.06 -116.508 276.696C-104.541 280.152 -90.4475 287.202 -79.4742 279.684C-73.2275 275.406 -69.9142 273.93 -62.2875 271.794C-58.1275 270.63 -49.3808 265.32 -44.9142 265.83C-34.5742 267.012 -36.5075 285.036 -23.9009 282.438C-17.8009 281.178 -11.0809 270.846 -6.33418 267.48C5.48582 259.11 15.0925 257.754 28.7992 263.106C43.1458 268.71 51.5525 267.702 66.8392 264.804C76.4525 262.98 90.8058 256.572 100.546 258.504C108.186 260.016 112.459 267.36 120.166 268.728C127.092 269.958 133.226 266.442 139.219 263.832" stroke="#191919" stroke-width="0.2" stroke-linecap="round" stroke-linejoin="round"/>
<path d="M-150.895 265.926C-139.555 271.71 -128.075 274.74 -115.821 278.544C-110.375 280.236 -104.881 281.976 -99.2945 283.266C-89.1079 285.612 -87.7012 286.812 -79.0545 280.638C-72.8612 276.216 -69.5479 276.216 -61.9612 274.614C-57.5545 273.684 -49.5212 268.782 -44.6945 270.432C-34.6879 273.858 -37.0345 289.518 -23.7945 285.648C-17.4479 283.794 -11.4745 274.728 -6.3212 271.104C5.73213 262.626 14.5788 259.446 28.6188 265.374C42.6388 271.29 51.3721 269.778 66.4255 266.862C75.9721 265.014 90.2121 258.468 99.8988 259.788C107.712 260.85 112.079 267.672 119.359 269.352C126.512 270.996 131.872 268.452 138.239 265.41" stroke="#191919" stroke-width="0.2" stroke-linecap="round" stroke-linejoin="round"/>
<path d="M-149.881 267.402C-138.921 273.27 -127.074 276.54 -115.114 280.38C-109.754 282.102 -104.274 284.046 -98.7142 285.204C-87.6275 287.508 -88.0675 287.37 -78.6209 281.322C-72.5075 277.404 -68.6742 278.664 -61.6275 277.644C-55.3942 276.738 -50.8409 272.958 -44.4809 275.934C-34.5409 280.584 -37.0608 293.1 -23.6875 288.324C-17.3075 286.044 -11.8009 278.49 -6.32086 274.854C-1.36086 271.566 5.33915 266.91 11.0391 265.05C18.5725 262.59 21.5725 264.96 28.4058 268.032C41.8125 274.062 51.5725 271.83 65.9925 268.902C75.5591 266.958 89.5525 260.388 99.2258 261.066C115.972 262.242 119.132 276.684 137.239 266.97" stroke="#191919" stroke-width="0.2" stroke-linecap="round" stroke-linejoin="round"/>
<path d="M-148.854 268.872C-138.314 274.866 -126.047 278.352 -114.4 282.198C-109.18 283.92 -103.627 286.2 -98.1268 287.118C-85.8535 289.17 -89.1602 286.668 -78.1868 281.934C-72.3602 279.42 -67.3535 281.4 -61.3002 280.872C-53.5335 280.188 -51.0335 276.936 -44.2735 281.928C-36.0135 288.018 -35.2535 294.918 -23.5935 290.484C-17.3935 288.12 -11.9602 282.108 -6.32684 278.808C-0.713505 275.52 5.19316 271.506 10.9198 268.554C18.6465 264.57 20.8531 267.714 28.1798 271.002C41.2198 276.858 51.7665 273.99 65.5398 270.912C75.1932 268.752 88.7931 262.41 98.5331 262.44C114.166 262.488 119.613 278.616 136.206 268.5" stroke="#191919" stroke-width="0.2" stroke-linecap="round" stroke-linejoin="round"/>
<path d="M-147.807 270.336C-137.68 276.456 -125.02 280.146 -113.673 284.004C-108.707 285.696 -102.873 288.462 -97.5266 289.026C-85.74 290.274 -88.5066 285.678 -77.7333 282.738C-72.64 281.352 -66.0733 284.28 -60.96 284.262C-52.2067 284.232 -50.8533 282.48 -44.0533 288.066C-36.0333 294.654 -33.88 296.406 -23.4933 292.188C-17.5733 289.788 -12.0333 285.822 -6.32 283.05C0.226671 279.876 4.62002 276.15 10.8 272.37C18.4067 267.72 20.36 271.188 27.9533 274.2C41.34 279.51 51.5667 276.45 65.08 272.91C74.76 270.372 87.9533 264.684 97.8267 264.084C112.307 263.208 120.053 280.164 135.153 270.012" stroke="#191919" stroke-width="0.2" stroke-linecap="round" stroke-linejoin="round"/>
<path d="M-146.74 271.8C-136.727 277.914 -124.134 281.874 -112.914 285.798C-108.314 287.406 -101.947 290.76 -96.9002 290.922C-87.2736 291.228 -86.1869 284.988 -77.2536 283.998C-72.7936 283.5 -65.1336 287.19 -60.6002 287.688C-51.7602 288.666 -50.6202 289.062 -43.8069 294.006C-35.5269 300.012 -32.2736 297.228 -23.3802 293.514C-17.8002 291.186 -11.9536 289.71 -6.31356 287.64C1.56644 284.742 3.69977 281.148 10.6464 276.378C17.8931 271.404 20.0798 275.094 27.7198 277.506C42.2198 282.084 50.7664 279.318 64.5998 274.902C73.9731 271.914 87.3331 266.922 97.0931 265.902C110.793 264.474 120.086 281.268 134.093 271.536" stroke="#191919" stroke-width="0.2" stroke-linecap="round" stroke-linejoin="round"/>
<path d="M-145.654 273.258C-135.568 279.288 -123.354 283.554 -112.154 287.58C-107.961 289.086 -100.948 292.986 -96.2743 292.8C-88.6143 292.5 -84.4276 285.036 -76.781 285.954C-71.9476 286.53 -64.9476 290.022 -60.241 291.126C-52.941 292.842 -49.901 296.862 -43.561 299.478C-34.7743 303.096 -31.121 297.738 -23.281 294.906C-17.6476 292.872 -12.001 293.814 -6.3143 292.47C2.67904 290.34 3.03238 286.098 10.2124 280.596C16.9857 275.406 19.8057 278.868 27.4124 280.818C32.0724 282.012 39.3124 284.412 44.2524 284.25C53.2791 283.962 56.1724 280.176 64.119 276.936C72.5657 273.492 87.2191 268.824 96.3524 267.708C109.659 266.082 119.666 282.228 132.999 273.042" stroke="#191919" stroke-width="0.2" stroke-linecap="round" stroke-linejoin="round"/>
<path d="M-144.555 274.74C-134.255 280.59 -122.621 285.198 -111.381 289.356C-107.288 290.868 -100.301 294.744 -95.648 294.324C-87.1547 293.568 -85.5347 286.188 -76.3013 288.438C-71.3813 289.638 -64.6347 293.166 -59.8747 294.822C-54.5013 296.688 -48.7547 302.898 -43.288 304.224C-35.5813 306.096 -29.568 298.56 -23.1814 296.664C-17.0147 294.834 -12.308 298.158 -6.30801 297.408C2.43199 296.31 3.69199 291.114 9.79866 285.582C15.972 279.996 19.0186 281.958 26.9786 283.794C31.6853 284.88 39.1987 288.42 43.912 288.39C53.392 288.33 55.8653 283.194 63.632 279.294C71.1787 275.508 87.072 270.48 95.6053 269.514C108.845 268.008 118.825 283.05 131.892 274.608" stroke="#191919" stroke-width="0.2" stroke-linecap="round" stroke-linejoin="round"/>
<path d="M-143.428 276.18C-132.954 281.88 -121.861 286.824 -110.588 291.108C-106.154 292.794 -100.101 296.022 -95.0011 295.404C-85.1744 294.222 -86.5077 287.466 -75.8077 291.264C-70.6411 293.1 -64.5344 296.31 -59.4877 298.584C-54.4744 300.846 -48.9344 307.386 -42.9811 308.01C-35.8011 308.76 -29.3144 300.27 -23.0744 298.8C-16.2677 297.198 -12.6544 302.634 -6.30107 302.274C1.36559 301.836 4.55227 296.166 9.47894 291.054C14.9856 285.336 17.9123 284.55 26.5056 286.356C31.7923 287.466 38.3589 292.77 43.5723 292.86C52.9856 293.022 56.0656 286.194 63.1456 281.958C70.2123 277.728 86.3923 272.25 94.8589 271.512C107.906 270.372 118.059 283.848 130.786 276.102" stroke="#191919" stroke-width="0.2" stroke-linecap="round" stroke-linejoin="round"/>
<path d="M-142.281 277.596C-131.788 283.272 -121.015 288.462 -109.781 292.854C-104.641 294.864 -100.081 297.012 -94.3413 296.262C-83.8079 294.888 -86.4879 289.56 -75.3146 294.306C-66.5213 298.038 -51.9279 311.364 -42.6946 310.878C-34.9746 310.47 -30.2012 302.586 -22.9879 301.368C-16.0346 300.198 -12.7746 307.068 -6.31458 306.912C8.35875 306.546 9.21875 286.26 25.8454 289.092C32.4587 290.22 36.8054 296.82 43.2054 297.57C51.4921 298.548 57.3321 288.75 62.6254 284.916C69.5387 279.912 85.0654 274.284 94.0654 273.798C106.712 273.114 117.339 284.736 129.619 277.566" stroke="#191919" stroke-width="0.2" stroke-linecap="round" stroke-linejoin="round"/>
<path d="M-141.121 279C-130.761 284.784 -120.148 290.184 -108.961 294.582C-95.6278 299.826 -87.5478 291.66 -74.8078 297.414C-65.0411 301.824 -52.9878 314.826 -42.4078 313.512C-35.2211 312.624 -30.0544 304.986 -22.8744 304.548C-16.0744 304.134 -12.7811 310.914 -6.31443 311.076C-0.301095 311.226 4.92557 306.168 8.97891 302.154C10.7522 300.06 12.5256 297.96 14.2922 295.866C17.0389 290.058 20.6322 288.726 25.0722 291.882C32.1589 292.812 35.8456 301.59 42.8456 302.31C50.6256 303.114 57.6522 291.858 62.1122 288.078C69.2456 282.036 83.2523 276.396 93.2789 276.27C105.499 276.12 116.612 285.714 128.466 278.97" stroke="#191919" stroke-width="0.2" stroke-linecap="round" stroke-linejoin="round"/>
<path d="M-139.941 280.398C-129.881 286.35 -119.235 292.098 -108.115 296.292C-101.821 298.668 -99.1547 298.356 -92.9547 297.906C-82.7347 297.168 -84.3147 295.998 -74.2747 300.474C-63.3881 305.328 -54.4281 318.162 -42.1147 316.05C-35.1481 314.856 -30.1414 308.316 -22.7481 308.232C-16.4081 308.16 -12.6147 314.382 -6.33475 314.55C-0.701412 314.7 4.73192 310.812 8.78525 307.272C10.5452 305.346 12.2986 303.42 14.0586 301.494C15.9186 293.646 19.3919 291.618 24.4853 295.41C31.3919 296.25 35.4786 307.218 42.4586 306.888C50.4319 306.516 56.9386 295.812 61.5653 291.42C69.1786 284.196 81.0919 278.538 92.4586 278.892C104.385 279.264 115.732 286.86 127.285 280.362" stroke="#191919" stroke-width="0.2" stroke-linecap="round" stroke-linejoin="round"/>
<path d="M-138.74 281.802C-129.074 287.844 -118.267 294.15 -107.26 298.002C-101.034 300.18 -98.1269 299.016 -92.2402 298.98C-83.4136 298.926 -81.9202 299.478 -73.7536 303.426C-62.6669 308.778 -55.4469 321.198 -41.8469 318.582C-34.6136 317.19 -30.4735 311.946 -22.6202 312.21C-16.7469 312.402 -12.4202 317.448 -6.35355 317.58C-1.05355 317.694 4.57978 315.024 8.63978 311.97C10.3864 310.218 12.1331 308.46 13.8798 306.708C15.3398 299.082 18.7264 296.832 24.0331 299.97C31.3198 300.528 34.8331 311.73 42.0798 311.148C49.3131 310.566 57.0798 298.968 61.0331 294.912C69.2931 286.428 78.7331 280.746 91.6398 281.67C103.48 282.516 114.713 288.168 126.086 281.754" stroke="#191919" stroke-width="0.2" stroke-linecap="round" stroke-linejoin="round"/>
<path d="M-137.521 283.206C-128.215 289.224 -117.255 296.208 -106.395 299.682C-100.588 301.536 -96.9615 299.958 -91.5015 300.324C-84.3015 300.81 -79.5415 302.91 -73.2148 306.156C-61.6481 312.084 -56.4015 323.964 -41.5681 321.09C-33.9615 319.614 -30.6348 315.738 -22.4748 316.23C-16.9281 316.566 -12.2215 320.154 -6.3348 320.19C-1.16147 320.22 4.2052 318.63 8.5452 316.122C14.7919 312.516 15.6785 305.364 23.9252 305.388C31.3252 305.406 34.5252 315.528 41.6985 314.796C48.4719 314.1 56.9119 302.346 60.4852 298.476C69.3785 288.846 76.4785 282.978 90.8052 284.52C102.725 285.798 113.605 289.554 124.865 283.128" stroke="#191919" stroke-width="0.2" stroke-linecap="round" stroke-linejoin="round"/>
<path d="M-136.287 284.61C-127.267 290.604 -116.254 298.086 -105.514 301.248C-100.227 302.802 -95.8338 301.308 -90.7538 302.016C-85.0271 302.814 -77.6138 305.958 -72.6738 308.604C-60.5804 315.084 -57.1604 326.208 -41.3071 323.586C-33.4938 322.296 -30.5071 319.662 -22.3404 320.154C-16.9271 320.484 -12.1004 322.53 -6.33378 322.398C-1.26711 322.284 3.88622 321.732 8.47956 319.71C14.3662 317.112 16.4395 310.944 23.8662 310.668C30.8062 310.41 34.3662 318.378 41.2996 317.556C48.2796 316.722 56.2262 306.192 59.9262 302.07C69.3862 291.522 74.5196 285.366 89.9596 287.412C102.066 289.014 112.486 290.976 123.633 284.49" stroke="#191919" stroke-width="0.2" stroke-linecap="round" stroke-linejoin="round"/>
<path d="M-135.027 286.014C-126.194 292.02 -115.287 299.772 -104.614 302.748C-93.534 305.832 -82.754 305.01 -72.1007 310.932C-59.8407 317.748 -57.4607 327.882 -41.0207 326.088C-33.4873 325.266 -29.8874 323.556 -22.1807 323.88C-16.734 324.108 -12.014 324.912 -6.32734 324.564C-1.39401 324.264 3.76598 324.318 8.47265 322.788C14.0793 320.964 17.1593 315.99 23.8393 315.684C30.1393 315.39 34.346 320.49 40.906 319.542C48.6793 318.42 54.9526 310.644 59.366 305.682C69.3526 294.462 72.8393 288.036 89.0993 290.346C101.413 292.098 111.399 292.428 122.373 285.864" stroke="#191919" stroke-width="0.2" stroke-linecap="round" stroke-linejoin="round"/>
<path d="M-133.76 287.388C-125.053 293.478 -114.32 301.296 -103.686 304.218C-92.8198 307.206 -81.4398 307.422 -71.4998 313.626C-59.7798 320.934 -56.8131 329.346 -40.7331 328.53C-29.2864 327.948 -17.7464 327.816 -6.3331 326.658C-1.47976 326.166 3.77357 326.424 8.52024 325.326C13.9602 324.072 17.8269 320.544 23.8936 320.268C29.7336 319.998 34.5202 322.53 40.4736 321.438C48.7336 319.926 53.6069 314.94 58.7603 309.234C63.2869 304.218 67.0536 296.382 73.6602 293.55C79.1002 291.222 82.4736 292.494 88.2002 293.232C100.774 294.852 110.24 293.922 121.1 287.238" stroke="#191919" stroke-width="0.2" stroke-linecap="round" stroke-linejoin="round"/>
<path d="M-132.467 288.744C-123.787 295.002 -113.407 302.574 -102.76 305.664C-91.9135 308.808 -80.3935 309.99 -70.9001 316.572C-60.0135 324.12 -55.5068 330.816 -40.4468 330.924C-29.1201 331.008 -17.5201 330.12 -6.32679 328.692C3.65988 327.42 14.0399 324.726 23.9465 324.102C38.5799 323.172 47.8199 323.778 58.1865 312.69C68.6665 301.476 70.6065 294.522 87.3199 296.13C100.107 297.354 109.12 295.488 119.813 288.6" stroke="#191919" stroke-width="0.2" stroke-linecap="round" stroke-linejoin="round"/>
<path d="M-131.16 290.094C-122.427 296.574 -112.513 303.648 -101.82 307.098C-90.8402 310.65 -79.4868 312.606 -70.2868 319.596C-60.5335 327.006 -53.6335 332.412 -40.1468 333.21C-28.6135 333.894 -17.6002 332.22 -6.32018 330.648C13.7332 327.852 42.9798 330.75 57.5998 316.02C68.1665 305.382 70.0465 298.194 86.4265 298.986C99.2398 299.61 108.106 297.108 118.513 289.956" stroke="#191919" stroke-width="0.2" stroke-linecap="round" stroke-linejoin="round"/>
<path d="M-129.834 291.426C-121.094 298.11 -111.554 304.77 -100.874 308.574C-89.8673 312.492 -78.4873 315.138 -69.674 322.554C-50.8606 338.388 -29.7473 335.838 -6.32731 332.532C13.1327 329.784 42.066 332.94 56.9927 319.188C67.626 309.396 69.6794 301.986 85.506 301.8C98.266 301.65 107.079 298.764 117.179 291.312" stroke="#191919" stroke-width="0.2" stroke-linecap="round" stroke-linejoin="round"/>
<path d="M-128.494 292.74C-119.794 299.592 -110.527 305.97 -99.9141 310.116C-88.6808 314.508 -78.2008 317.856 -69.0541 325.326C-50.1208 340.782 -29.0275 337.428 -6.33414 334.344C13.1992 331.686 40.2792 334.488 56.3725 322.14C67.4125 313.668 69.2658 305.766 84.5725 304.542C97.1992 303.528 106.013 300.396 115.833 292.656" stroke="#191919" stroke-width="0.2" stroke-linecap="round" stroke-linejoin="round"/>
<path d="M-127.135 294.042C-109.228 308.556 -86.6748 314.49 -68.3948 327.834C-59.9414 334.002 -49.8148 337.458 -39.2014 339.096C-26.8548 340.998 -18.2614 337.59 -6.3281 336.108C13.0186 333.714 39.0786 335.976 55.7386 324.828C66.6519 317.52 69.3519 309.33 83.6186 307.152C96.1519 305.238 104.739 301.878 114.479 293.976" stroke="#191919" stroke-width="0.2" stroke-linecap="round" stroke-linejoin="round"/>
<path d="M-125.754 295.332C-108.267 309.936 -86.4006 317.286 -67.7606 330.024C-59.1939 335.874 -49.3472 339.24 -38.8806 340.944C-26.5606 342.954 -18.2672 339.138 -6.32723 337.878C13.0594 335.838 37.9194 337.248 55.1061 327.18C65.6728 320.994 69.7128 312.636 82.6661 309.708C94.9994 306.924 103.466 303.318 113.099 295.278" stroke="#191919" stroke-width="0.2" stroke-linecap="round" stroke-linejoin="round"/>
<path d="M-124.361 296.604C-107.361 311.238 -86.0213 319.74 -67.1213 331.848C-58.2213 337.554 -49.2613 341.004 -38.548 342.774C-26.408 344.784 -18.1546 340.62 -6.32797 339.642C13.512 338.004 36.3787 338.16 54.472 329.262C64.7387 324.21 70.072 315.732 81.7054 312.246C93.7254 308.646 102.245 304.662 111.712 296.574" stroke="#191919" stroke-width="0.2" stroke-linecap="round" stroke-linejoin="round"/>
</g>
</g>
<defs>
<clipPath id="clip0_1196_25956">
<rect width="339.007" height="327.42" fill="white" transform="translate(-178.334 16.2)"/>
</clipPath>
</defs>
</svg>
