<svg width="1600" height="246" viewBox="0 0 1600 246" fill="none" xmlns="http://www.w3.org/2000/svg">
<path d="M-296 245L-196.412 122.699C-144.829 59.3508 -48.0988 59.2915 3.56256 122.577V122.577C55.1831 185.812 151.848 185.773 203.469 122.538V122.538C255.122 59.2636 351.847 59.2253 403.5 122.5V122.5C455.153 185.775 551.847 185.775 603.5 122.5V122.5C655.153 59.2253 751.847 59.2253 803.5 122.5V122.5C855.153 185.775 951.847 185.775 1003.5 122.5V122.5C1055.15 59.2253 1151.88 59.2636 1203.53 122.538V122.538C1255.15 185.773 1351.82 185.812 1403.44 122.577V122.577C1455.1 59.2915 1551.83 59.3508 1603.41 122.699L1703 245" stroke="url(#paint0_linear_1218_21774)"/>
<path d="M-296 245L-196.412 122.699C-144.829 59.3508 -48.0988 59.2915 3.56256 122.577V122.577C55.1831 185.812 151.848 185.773 203.469 122.538V122.538C255.122 59.2636 351.847 59.2253 403.5 122.5V122.5C455.153 185.775 551.847 185.775 603.5 122.5V122.5C655.153 59.2253 751.847 59.2253 803.5 122.5V122.5C855.153 185.775 951.847 185.775 1003.5 122.5V122.5C1055.15 59.2253 1151.88 59.2636 1203.53 122.538V122.538C1255.15 185.773 1351.82 185.812 1403.44 122.577V122.577C1455.1 59.2915 1551.83 59.3508 1603.41 122.699L1703 245" stroke="url(#paint1_linear_1218_21774)"/>
<path d="M-296 245L-196.412 122.699C-144.829 59.3508 -48.0988 59.2915 3.56256 122.577V122.577C55.1831 185.812 151.848 185.773 203.469 122.538V122.538C255.122 59.2636 351.847 59.2253 403.5 122.5V122.5C455.153 185.775 551.847 185.775 603.5 122.5V122.5C655.153 59.2253 751.847 59.2253 803.5 122.5V122.5C855.153 185.775 951.847 185.775 1003.5 122.5V122.5C1055.15 59.2253 1151.88 59.2636 1203.53 122.538V122.538C1255.15 185.773 1351.82 185.812 1403.44 122.577V122.577C1455.1 59.2915 1551.83 59.3508 1603.41 122.699L1703 245" stroke="url(#paint2_linear_1218_21774)" stroke-dasharray="11.4 11.4"/>
<rect opacity="0.4" x="291" y="61" width="27" height="27" rx="13.5" fill="#8892EE"/>
<rect x="300.449" y="70.4498" width="8.1" height="8.1" rx="4.05" fill="#8892EE"/>
<rect opacity="0.4" x="1090" y="62" width="27" height="27" rx="13.5" fill="#8892EE"/>
<rect x="1099.45" y="71.4498" width="8.1" height="8.1" rx="4.05" fill="#8892EE"/>
<rect opacity="0.4" x="490" y="156" width="27" height="27" rx="13.5" fill="#8892EE"/>
<rect x="499.449" y="165.45" width="8.1" height="8.1" rx="4.05" fill="#8892EE"/>
<rect opacity="0.4" x="890" y="156" width="27" height="27" rx="13.5" fill="#8892EE"/>
<rect x="899.449" y="165.45" width="8.1" height="8.1" rx="4.05" fill="#8892EE"/>
<rect opacity="0.4" x="691" y="62" width="27" height="27" rx="13.5" fill="#8892EE"/>
<rect x="700.449" y="71.4498" width="8.1" height="8.1" rx="4.05" fill="#8892EE"/>
<defs>
<linearGradient id="paint0_linear_1218_21774" x1="703.5" y1="123" x2="705.5" y2="123" gradientUnits="userSpaceOnUse">
<stop stop-color="#C3C3C3"/>
<stop offset="1" stop-color="#C3C3C3" stop-opacity="0"/>
</linearGradient>
<linearGradient id="paint1_linear_1218_21774" x1="703.5" y1="123" x2="705.5" y2="123" gradientUnits="userSpaceOnUse">
<stop stop-color="#C3C3C3"/>
<stop offset="1" stop-color="#C3C3C3" stop-opacity="0"/>
</linearGradient>
<linearGradient id="paint2_linear_1218_21774" x1="1373.5" y1="149.5" x2="1375" y2="148" gradientUnits="userSpaceOnUse">
<stop stop-color="#C3C3C3"/>
<stop offset="1" stop-color="#C3C3C3" stop-opacity="0"/>
</linearGradient>
</defs>
</svg>
