<svg width="20" height="20" viewBox="0 0 20 20" fill="none" xmlns="http://www.w3.org/2000/svg">
<g id="vuesax/bold/shopping-cart">
<g id="vuesax/linear/shopping-cart">
<g id="shopping-cart">
<path id="Vector" d="M1.66602 1.66675H3.11602C4.01602 1.66675 4.72435 2.44175 4.64935 3.33341L3.95768 11.6334C3.84102 12.9917 4.91601 14.1584 6.28268 14.1584H15.1577C16.3577 14.1584 17.4077 13.1751 17.4993 11.9834L17.9493 5.73342C18.0493 4.35009 16.9993 3.22508 15.6077 3.22508H4.84935" stroke="white" stroke-width="1.5" stroke-miterlimit="10" stroke-linecap="round" stroke-linejoin="round"/>
<path id="Vector_2" d="M13.5417 18.3333C14.117 18.3333 14.5833 17.867 14.5833 17.2917C14.5833 16.7164 14.117 16.25 13.5417 16.25C12.9664 16.25 12.5 16.7164 12.5 17.2917C12.5 17.867 12.9664 18.3333 13.5417 18.3333Z" stroke="white" stroke-width="1.5" stroke-miterlimit="10" stroke-linecap="round" stroke-linejoin="round"/>
<path id="Vector_3" d="M6.87565 18.3333C7.45095 18.3333 7.91732 17.867 7.91732 17.2917C7.91732 16.7164 7.45095 16.25 6.87565 16.25C6.30035 16.25 5.83398 16.7164 5.83398 17.2917C5.83398 17.867 6.30035 18.3333 6.87565 18.3333Z" stroke="white" stroke-width="1.5" stroke-miterlimit="10" stroke-linecap="round" stroke-linejoin="round"/>
<path id="Vector_4" d="M7.5 6.66675H17.5" stroke="white" stroke-width="1.5" stroke-miterlimit="10" stroke-linecap="round" stroke-linejoin="round"/>
</g>
</g>
</g>
</svg>
