<svg width="22" height="22" viewBox="0 0 22 22" fill="none" xmlns="http://www.w3.org/2000/svg">
<path d="M14.8952 20.625C15.7811 20.625 16.4993 19.9067 16.4993 19.0208C16.4993 18.1348 15.7811 17.4166 14.8952 17.4166C14.0092 17.4166 13.291 18.1348 13.291 19.0208C13.291 19.9067 14.0092 20.625 14.8952 20.625Z" fill="#8892EE"/>
<path d="M7.56315 20.625C8.44911 20.625 9.16732 19.9067 9.16732 19.0208C9.16732 18.1348 8.44911 17.4166 7.56315 17.4166C6.67719 17.4166 5.95898 18.1348 5.95898 19.0208C5.95898 19.9067 6.67719 20.625 7.56315 20.625Z" fill="#8892EE"/>
<path d="M4.43732 3.61171L4.25398 5.85754C4.21732 6.28837 4.55648 6.64587 4.98732 6.64587H19.0215C19.4065 6.64587 19.7273 6.35254 19.7548 5.96754C19.874 4.34504 18.6365 3.02504 17.014 3.02504H5.74815C5.65648 2.62171 5.47315 2.23671 5.18898 1.91587C4.73065 1.43004 4.08898 1.14587 3.42898 1.14587H1.83398C1.45815 1.14587 1.14648 1.45754 1.14648 1.83337C1.14648 2.20921 1.45815 2.52087 1.83398 2.52087H3.42898C3.71315 2.52087 3.97898 2.64004 4.17148 2.84171C4.36398 3.05254 4.45565 3.32754 4.43732 3.61171Z" fill="#8892EE"/>
<path d="M18.8002 8.02087H4.73856C4.35356 8.02087 4.0419 8.31421 4.00523 8.69004L3.67523 12.6775C3.5469 14.245 4.77523 15.5834 6.34273 15.5834H16.5361C17.9111 15.5834 19.1211 14.4559 19.2219 13.0809L19.5244 8.80004C19.5611 8.37837 19.2311 8.02087 18.8002 8.02087Z" fill="#8892EE"/>
</svg>
