<svg width="444" height="640" viewBox="0 0 444 640" fill="none" xmlns="http://www.w3.org/2000/svg">
<g opacity="0.4">
<g clip-path="url(#clip0_1067_76884)">
<path d="M132.693 132.117C181.611 82.912 252.747 57.504 321.397 57.7493C354.944 57.8667 388.331 63.9254 419.733 75.7334C435.584 81.696 450.827 89.0667 465.301 97.856C485.696 110.219 490.571 119.648 504.011 138.539" stroke="#191919" stroke-width="0.2" stroke-linecap="round" stroke-linejoin="round"/>
<path d="M130.464 134.379C158.379 110.101 189.483 90.3573 223.253 77.024C254.624 64.6293 287.968 55.9787 321.739 56C356.171 56.0213 391.744 64.5227 424.203 77.952C438.72 83.9573 452.8 91.136 466.229 99.3067C474.421 104.299 483.381 109.216 489.813 116.405C496.555 123.947 498.688 133.579 506.261 140.789" stroke="#191919" stroke-width="0.2" stroke-linecap="round" stroke-linejoin="round"/>
<path d="M128.267 136.672C156.469 112.544 188.277 92.6507 222.251 80.128C237.152 74.6347 253.141 70.6133 268.949 67.2747C278.155 65.3333 288.309 65.3227 297.557 63.4133C306.187 61.6427 313.28 56.4267 321.685 57.2053C337.483 58.6667 353.525 63.0613 369.387 66.4747C386.784 70.2187 404.501 74.1547 420.843 80.128C437.621 86.2613 454.304 94.464 470.016 104.032C488.085 115.029 494.624 128.16 508.448 143.093" stroke="#191919" stroke-width="0.2" stroke-linecap="round" stroke-linejoin="round"/>
<path d="M126.091 138.976C154.613 114.976 186.987 95.328 221.216 83.2427C236.267 77.9307 252.48 74.208 268.416 70.5707C277.653 68.4587 288.501 68.8853 297.323 66.7733C306.912 64.4693 310.582 56.928 321.6 58.1013C329.632 58.9547 337.814 64.9173 345.782 66.7733C353.515 68.576 362.283 68.7573 369.867 69.9307C387.243 72.6293 405.248 77.3227 421.888 83.2427C438.87 89.2907 455.691 97.344 471.595 106.805C489.291 117.333 495.776 132.299 510.646 145.408" stroke="#191919" stroke-width="0.2" stroke-linecap="round" stroke-linejoin="round"/>
<path d="M123.936 141.301C152.917 117.557 185.674 98.1974 220.234 86.4107C235.445 81.216 251.893 77.536 267.882 73.504C272.341 70.112 277.258 68.5013 282.634 68.672C287.498 68 292.341 68.224 297.173 69.344C307.968 65.344 307.904 56.3947 321.472 58.7413C329.717 60.1707 337.941 67.2533 346.122 69.92C353.717 72.3947 362.73 72.8107 370.261 73.664C387.765 75.648 405.994 80.5653 422.858 86.4107C439.946 92.3413 457.077 100.171 473.066 109.611C490.304 119.787 497.728 135.221 512.778 147.765" stroke="#191919" stroke-width="0.2" stroke-linecap="round" stroke-linejoin="round"/>
<path d="M121.824 143.637C151.147 120.021 184.363 101.461 219.275 89.5893C234.774 84.32 251.328 80.096 267.339 75.2747C271.552 70.592 276.512 68.704 282.219 69.6107C287.168 69.6533 292.128 69.6853 297.078 69.696C308.47 64.9387 306.763 56.1493 321.334 59.5947C329.856 61.6107 338.091 68.928 346.454 72.864C354.016 76.416 362.955 77.152 370.635 77.632C388.363 78.72 406.699 83.808 423.819 89.6C440.982 95.4133 458.496 102.987 474.496 112.469C491.179 122.368 500.022 137.835 514.891 150.133" stroke="#191919" stroke-width="0.2" stroke-linecap="round" stroke-linejoin="round"/>
<path d="M119.733 145.995C149.419 122.432 182.965 105.131 218.336 92.8C234.315 87.232 250.795 81.952 266.848 75.9573C270.933 70.0907 275.915 68.16 281.781 70.1547C286.752 71.296 291.755 71.1893 296.779 69.8453C308.565 64.5867 305.675 56.3413 321.28 61.088C330.379 63.8613 338.059 70.8373 346.656 76.2133C354.176 80.9173 363.093 81.7387 370.976 81.7493C388.949 81.7707 407.349 87.04 424.779 92.7893C442.005 98.4747 459.936 105.792 475.936 115.328C492.224 125.035 502.272 140.469 517.003 152.491" stroke="#191919" stroke-width="0.2" stroke-linecap="round" stroke-linejoin="round"/>
<path d="M117.664 148.363C147.733 124.768 181.557 108.448 217.387 96.0427C225.227 93.3333 233.579 91.36 241.739 89.184C253.44 86.0587 257.856 81.8453 266.379 75.808C275.339 69.4613 286.901 74.56 296.437 70.5387C307.947 65.696 306.059 56.7467 321.259 62.8053C330.283 66.4 339.381 73.5893 346.645 80.224C353.376 86.368 363.435 86.304 371.275 85.9947C389.707 85.2907 407.904 90.304 425.685 96.032C442.987 101.611 461.28 108.683 477.323 118.229C493.419 127.808 504.341 143.125 519.051 154.88" stroke="#191919" stroke-width="0.2" stroke-linecap="round" stroke-linejoin="round"/>
<path d="M115.638 150.741C146.144 126.987 180.011 111.595 216.448 99.296C224.352 96.6293 233.227 95.1253 241.024 92.544C250.23 89.504 258.667 80.9067 265.942 75.328C274.656 68.6614 286.326 75.7974 296.043 72.1067C306.614 68.096 307.68 59.6374 321.27 64.768C330.582 68.288 340.246 77.504 346.624 84.8533C352.459 91.5733 363.648 91.2 371.616 90.3254C390.091 88.2987 409.27 93.3547 426.656 99.296C444.235 105.301 462.678 111.893 478.88 121.355C494.966 130.741 506.368 145.813 521.163 157.269" stroke="#191919" stroke-width="0.2" stroke-linecap="round" stroke-linejoin="round"/>
<path d="M113.643 153.056C130.411 140.16 143.04 130.656 162.827 123.424C180.608 116.928 197.643 108.491 215.541 102.603C223.435 100.011 233.035 99.2107 240.341 95.9467C250.059 91.6053 257.344 81.024 265.493 75.1573C274.155 68.9173 286.005 76.064 295.776 75.2C305.067 74.3787 310.016 62.7734 321.344 67.1254C331.979 71.2 339.371 81.8667 346.539 90.176C352.235 96.768 364.149 95.6373 371.904 94.752C390.944 92.5867 409.493 96.5974 427.552 102.613C445.28 108.512 463.893 114.955 480.331 124.213C496.704 133.429 508.128 148.491 523.371 159.52" stroke="#191919" stroke-width="0.2" stroke-linecap="round" stroke-linejoin="round"/>
<path d="M111.669 155.424C128.778 142.325 140.81 131.573 161.504 125.525C179.477 120.277 196.842 111.627 214.645 105.92C222.613 103.36 233.066 102.805 239.669 98.88C249.354 93.12 255.381 80.192 265.034 75.6267C274.506 71.136 285.13 82.0587 295.648 79.6693C304.714 77.6107 310.869 66.1867 321.418 70.112C332.202 74.1333 339.573 87.7333 346.453 95.5733C351.754 101.621 364.437 99.9573 372.192 99.1467C391.701 97.088 409.781 99.872 428.448 105.92C446.346 111.723 465.12 118.048 481.877 126.933C498.72 135.861 509.717 151.285 525.973 161.344" stroke="#191919" stroke-width="0.2" stroke-linecap="round" stroke-linejoin="round"/>
<path d="M109.717 157.899C126.815 144.64 139.05 131.904 160.223 127.371C178.186 123.531 196.01 114.816 213.77 109.269C222.111 106.667 232.522 105.877 239.007 101.237C248.159 94.688 254.367 79.808 264.575 77.2054C274.367 74.7094 284.33 88.096 295.658 85.0347C305.301 82.4214 309.429 69.3974 321.482 74.4107C331.893 78.7414 339.658 94.1014 346.645 100.725C352.127 105.92 364.437 104.149 372.479 103.488C392.437 101.845 410.037 103.179 429.311 109.259C447.402 114.965 466.367 121.163 483.519 129.536C501.002 138.069 511.178 154.165 528.831 162.891" stroke="#191919" stroke-width="0.2" stroke-linecap="round" stroke-linejoin="round"/>
<path d="M107.797 160.491C124.864 146.901 138.144 132.971 159.018 128.672C176.917 124.981 194.858 118.176 212.917 112.651C222.005 109.867 231.818 108.661 238.368 103.136C246.549 96.224 254.08 80.9067 264.213 80.5333C273.696 80.192 285.162 97.12 295.669 89.568C302.666 84.5333 311.349 74.208 321.6 79.744C331.37 85.0133 339.253 99.2747 346.741 105.163C352.608 109.771 364.725 108.075 372.8 107.733C393.29 106.891 410.208 106.507 430.186 112.64C448.448 118.251 467.946 124.053 485.429 131.904C503.744 140.128 512.512 156.949 531.861 164.299" stroke="#191919" stroke-width="0.2" stroke-linecap="round" stroke-linejoin="round"/>
<path d="M105.898 163.179C122.186 149.643 137.888 132.501 157.909 129.504C176.522 126.709 193.205 121.995 212.032 116.021C221.973 112.864 230.773 110.816 237.685 104.213C244.949 97.28 253.002 83.552 263.914 85.5573C273.834 87.3707 284.65 106.059 295.594 92.5227C301.632 85.056 312.224 79.136 321.61 85.7387C331.2 92.4907 336.48 104.896 346.869 109.301C354.016 112.331 364.704 111.637 373.141 111.776C394.09 112.128 410.346 109.835 431.061 116.011C449.472 121.504 469.888 126.528 487.541 134.016C506.613 142.101 513.749 159.424 534.89 165.643" stroke="#191919" stroke-width="0.2" stroke-linecap="round" stroke-linejoin="round"/>
<path d="M104.032 165.941C119.606 152.725 137.835 131.701 157.131 130.037C165.59 129.312 171.734 132.117 180.747 129.749C190.934 127.072 201.28 122.453 211.222 119.445C220.054 116.768 230.806 111.456 237.046 104.885C243.734 97.856 252.608 86.7733 263.467 90.7413C275.467 95.136 283.552 110.656 295.499 94.304C302.112 85.248 313.792 85.248 321.568 92.8C328.587 99.616 337.014 111.691 347.051 113.077C355.008 114.176 365.024 114.987 373.504 115.616C394.208 117.141 410.731 113.333 431.894 119.435C450.379 124.757 472.267 128.651 489.803 135.957C509.28 144.075 515.222 161.344 537.824 167.083" stroke="#191919" stroke-width="0.2" stroke-linecap="round" stroke-linejoin="round"/>
<path d="M102.187 168.725C116 157.184 138.528 129.568 156.075 130.699C165.76 131.317 170.069 135.328 179.733 133.493C189.685 131.595 200.885 126.08 210.389 122.901C219.744 119.765 229.739 112.864 236.363 105.781C242.997 98.688 252.619 90.496 262.784 94.976C275.68 100.661 282.965 110.325 295.104 95.712C303.499 85.6 314.688 94.0693 321.408 100.939C329.056 108.747 334.987 113.739 346.048 115.701C356.139 117.504 365.173 116.619 373.867 119.019C390.357 123.573 411.317 117.035 432.672 122.891C440.981 125.163 449.333 127.488 457.579 130.069C468.789 133.568 481.536 133.248 492.085 137.781C501.568 141.856 503.573 146.635 510.848 153.941C520.085 163.221 527.285 165.397 540.533 168.747" stroke="#191919" stroke-width="0.2" stroke-linecap="round" stroke-linejoin="round"/>
<path d="M100.384 171.445C114.741 160.149 136.554 131.189 155.402 132.235C165.152 132.779 169.6 138.176 179.232 137.141C188.981 136.107 201.12 129.92 209.61 126.368C225.866 119.563 240.949 90.1227 262.176 98.6453C266.24 105.259 271.68 108.235 278.506 107.552C286.165 109.355 291.573 105.6 294.752 96.288C305.642 89.8667 314.933 102.336 321.152 108.661C328.746 116.384 334.965 118.891 346.432 119.179C357.205 119.456 365.322 118.421 374.293 121.931C388.512 127.488 412.299 121.045 433.483 126.357C441.856 128.459 450.24 130.688 458.57 133.013C470.197 136.256 483.701 134.571 494.347 139.531C503.605 143.84 505.152 149.44 512.533 156.48C521.397 164.939 531.018 167.2 542.986 170.677" stroke="#191919" stroke-width="0.2" stroke-linecap="round" stroke-linejoin="round"/>
<path d="M98.624 174.027C114.496 162.763 133.472 134.08 154.336 133.877C163.861 133.781 168.811 139.595 178.336 139.563C188.427 139.541 200.096 133.515 208.821 129.867C225.611 122.848 239.957 94.4747 261.728 101.877C266.197 107.776 271.648 110.037 278.069 108.661C285.707 109.525 291.168 105.632 294.453 96.96C306.571 95.7227 313.899 107.851 321.216 115.093C337.013 130.731 358.005 119.232 374.773 124.043C390.816 128.64 413.568 125.717 434.251 129.856C444.523 131.915 454.784 135.093 465.109 136.96C475.541 138.837 487.573 135.915 496.939 140.779C505.824 145.387 507.083 153.312 514.891 159.808C523.531 166.987 535.339 167.68 545.024 172.992" stroke="#191919" stroke-width="0.2" stroke-linecap="round" stroke-linejoin="round"/>
<path d="M96.8857 176.693C114.784 165.429 130.507 137.771 153.227 135.904C163.083 135.093 167.52 140.491 177.451 141.557C188.182 142.709 198.368 137.355 208.064 133.376C225.494 126.24 239.403 99.7867 261.419 104.768C266.176 109.6 271.606 111.445 277.718 110.283C284.747 111.157 290.07 107.883 293.686 100.448C305.483 102.709 312.352 113.248 321.206 120.117C330.294 127.157 337.312 124.725 347.318 122.464C360.427 119.509 363.296 121.237 375.35 125.365C391.115 130.773 414.966 129.856 434.944 133.088C444.726 134.667 451.595 133.963 461.44 138.688C470.315 142.944 483.414 143.04 492.843 143.531C504.512 144.149 506.87 156.267 515.275 162.592C524.47 169.515 537.014 169.387 546.902 175.435" stroke="#191919" stroke-width="0.2" stroke-linecap="round" stroke-linejoin="round"/>
<path d="M95.1787 179.392C115.232 168.341 127.968 141.984 152.085 138.389C162.635 136.821 166.219 141.141 176.565 143.232C188.053 145.557 196.117 141.387 207.285 136.917C225.024 129.813 239.189 104.811 261.099 107.2C265.781 112.395 271.253 114.411 277.493 113.248C283.701 113.899 289.056 111.68 293.536 106.592C304.235 110.005 311.755 118.773 321.28 124.256C331.04 129.867 338.027 125.76 347.851 123.371C360.277 120.352 364.053 121.931 375.968 126.165C392.747 132.117 415.765 132.672 435.541 134.709C438.997 133.888 442.443 133.067 445.899 132.256C451.509 134.997 457.067 138.293 462.325 141.195C471.381 146.187 484.928 145.419 494.155 146.645C504 147.947 508.448 159.285 516.864 164.736C526.475 170.965 538.603 172.011 548.736 177.899" stroke="#191919" stroke-width="0.2" stroke-linecap="round" stroke-linejoin="round"/>
<path d="M93.5039 182.112C115.168 171.371 125.845 146.069 150.389 140.715C161.355 138.325 164.768 141.088 175.115 143.723C187.445 146.869 193.163 144.459 206.56 140.48C215.893 137.707 226.517 132.384 233.739 126.037C241.397 119.296 249.643 110.421 260.864 110.411C265.163 117.28 270.677 119.829 277.387 118.059C282.912 117.899 288.277 116.8 293.483 114.784C303.04 118.677 311.488 125.056 321.515 127.733C341.259 133.013 357.643 117.92 376.629 126.613C384.672 130.293 395.008 132.629 404.075 134.091C409.504 134.965 414.955 135.947 420.352 137.045C425.749 138.997 431.008 138.283 436.117 134.88C439.627 134.133 443.136 133.397 446.645 132.651C452.011 136.459 457.365 140.299 463.179 143.413C472.395 148.352 485.6 148.544 494.987 150.101C504.117 151.616 510.475 161.803 518.965 166.517C529.323 172.267 540.299 173.483 550.603 180.288" stroke="#191919" stroke-width="0.2" stroke-linecap="round" stroke-linejoin="round"/>
<path d="M91.8613 184.853C114.571 174.219 124.757 150.304 149.205 143.563C160.352 140.491 163.925 141.632 174.251 144.469C187.371 148.064 191.221 147.904 205.845 144.075C215.051 141.664 226.069 137.515 233.451 131.669C241.344 125.408 249.44 116.533 260.555 116.299C264.779 124.288 270.347 126.933 277.259 124.235C282.592 122.923 288.021 122.571 293.536 123.189C303.691 125.909 311.253 131.936 321.547 131.339C339.947 130.272 357.877 122.112 377.28 127.04C386.069 129.269 395.573 136.331 404.576 137.835C409.952 138.731 415.467 139.712 420.928 140.512C427.157 142.72 432.427 140.651 436.715 134.293C454.272 131.232 478.784 148.811 495.723 153.547C504.864 156.107 512.256 164.075 520.949 168.267C531.861 173.536 542.027 175.531 552.437 182.72" stroke="#191919" stroke-width="0.2" stroke-linecap="round" stroke-linejoin="round"/>
<path d="M90.251 187.616C113.238 177.088 124.235 154.805 147.84 146.731C158.539 143.072 163.104 142.528 173.195 145.237C187.403 149.056 189.046 151.851 205.163 147.691C215.232 145.088 224.886 143.136 232.96 137.504C240.928 131.947 249.184 123.093 260.16 124.459C264.768 132.672 270.422 134.923 277.131 131.2C282.368 128.789 287.819 128.597 293.472 130.635C303.648 132.885 311.392 137.707 321.6 134.699C341.206 128.917 359.36 124.469 377.92 127.648C386.955 129.195 394.891 138.645 405.088 141.472C410.475 143.733 415.958 143.861 421.451 142.827C428.342 143.168 433.664 139.904 437.43 133.035C448.747 132.981 456.758 142.56 464.918 148.096C473.163 153.696 486.699 155.104 496.576 156.64C512.363 159.104 541.76 174.677 554.272 185.077" stroke="#191919" stroke-width="0.2" stroke-linecap="round" stroke-linejoin="round"/>
<path d="M88.6719 190.4C96.9705 186.677 106.805 183.168 113.877 177.28C126.272 166.955 130.197 156.171 146.699 149.675C156.427 145.845 162.72 144.053 172.352 146.315C187.232 149.813 187.605 155.093 204.48 151.339C214.325 149.141 224.224 147.872 232.395 143.04C240.512 138.24 249.269 130.336 259.776 133.12C264.779 140.352 270.453 142.101 276.789 138.379C282.037 135.819 287.552 135.477 293.333 137.355C302.613 137.408 312.672 141.579 321.664 137.461C341.344 128.448 360.885 126.56 378.475 128.789C387.456 129.931 394.816 141.803 405.557 145.077C411.52 149.056 417.013 148.235 421.931 144.427C428.277 141.739 433.717 137.696 438.251 132.309C449.867 134.475 457.099 144.992 465.781 151.029C474.347 156.981 486.827 158.773 497.579 159.445C515.541 160.565 542.56 176.459 556.064 187.456" stroke="#191919" stroke-width="0.2" stroke-linecap="round" stroke-linejoin="round"/>
<path d="M87.125 193.205C95.093 189.739 105.386 186.859 112.458 181.803C125.066 172.8 130.144 159.371 145.61 152.864C169.461 142.827 182.421 158.581 203.786 154.987C213.066 153.419 222.72 151.605 231.882 147.904C243.338 143.275 247.562 139.424 259.381 141.237C279.701 144.352 305.525 147.072 321.749 140.16C331.061 136.192 338.464 130.827 350.432 130.56C360.245 130.347 371.402 129.813 378.986 130.688C387.37 131.659 394.773 145.696 406.058 148.789C413.024 153.803 418.549 151.755 422.442 145.643C427.04 140.576 432.629 136.885 439.2 134.581C450.24 136.843 459.136 148.16 466.741 154.827C475.253 162.293 488.554 160.64 498.848 161.856C518.752 164.213 541.248 176.235 557.888 189.803" stroke="#191919" stroke-width="0.2" stroke-linecap="round" stroke-linejoin="round"/>
<path d="M85.6104 196.032C93.6317 192.64 103.754 190.155 111.125 185.6C124.138 177.557 130.208 162.688 144.576 156.32C152.266 152.917 162.346 149.632 170.773 150.251C183.861 151.211 190.069 160.032 203.146 158.667C211.712 157.771 222.09 155.563 231.317 152.757C242.645 149.312 248.149 148.555 259.082 148.277C280 147.744 305.941 150.987 321.802 143.243C340.234 134.24 362.602 131.275 379.36 133.675C387.893 134.891 394.368 151.125 406.485 152.704C413.962 155.488 419.477 152.011 422.922 145.643C426.4 139.211 432.608 136.181 439.893 137.611C451.914 139.957 459.178 151.957 467.488 159.68C476.032 167.616 489.952 163.563 500.266 163.936C521.824 164.725 542.57 177.867 559.68 192.096" stroke="#191919" stroke-width="0.2" stroke-linecap="round" stroke-linejoin="round"/>
<path d="M84.1279 198.869C93.5253 194.997 103.936 191.819 112.789 186.699C124.608 179.872 130.496 165.995 142.795 159.68C150.507 155.723 163.744 151.936 172.075 152.981C183.189 154.368 188.405 162.688 200.757 162.848C218.133 163.072 237.333 156.448 254.795 154.539C276.832 152.128 305.141 155.477 321.824 146.965C339.2 138.101 362.987 133.141 379.637 137.941C387.925 140.331 396.821 158.571 406.923 156.715C417.397 154.795 428.032 138.421 440.587 141.024C452.256 143.445 459.691 157.44 468.203 164.843C476.907 172.416 491.339 166.091 501.867 165.696C524.405 164.843 544.395 179.872 561.483 194.368" stroke="#191919" stroke-width="0.2" stroke-linecap="round" stroke-linejoin="round"/>
<path d="M82.6777 201.739C92.0004 198.016 102.475 195.051 111.51 190.613C124.235 184.363 129.963 170.581 141.707 163.669C149.195 159.264 162.848 155.605 171.19 156.48C182.016 157.611 188.352 166.208 200.022 166.645C217.323 167.296 236.95 160.501 254.336 158.635C276.555 156.256 304.843 159.531 321.792 151.435C337.856 143.755 363.542 134.581 379.819 143.253C387.211 147.189 397.44 164.213 407.286 160.363C417.579 156.341 428.427 140.544 441.206 144.779C452.939 148.672 459.232 163.893 469.024 170.112C478.592 176.181 492.651 168.341 503.627 167.243C526.902 164.917 546.379 182.197 563.264 196.544" stroke="#191919" stroke-width="0.2" stroke-linecap="round" stroke-linejoin="round"/>
<path d="M81.2695 204.619C90.9122 200.896 101.515 198.251 110.742 193.739C124.128 187.211 129.291 175.733 141.579 167.744C163.168 153.685 183.318 169.867 201.312 169.877C217.174 169.888 239.606 165.269 258.123 160.331C278.806 154.816 304.608 164.341 321.718 156.48C340.971 147.627 362.944 138.571 379.947 149.269C386.763 153.557 397.387 167.477 407.52 161.621C417.035 156.117 428.704 140.981 441.782 148.523C453.43 155.232 459.03 170.763 469.867 175.029C480.064 179.04 493.91 170.123 505.526 168.533C529.419 165.259 547.734 184.501 564.95 198.315" stroke="#191919" stroke-width="0.2" stroke-linecap="round" stroke-linejoin="round"/>
<path d="M79.8828 207.52C89.6961 203.851 99.9575 200.939 109.589 196.917C124.555 190.667 127.317 183.755 140.501 173.419C160.992 157.365 181.92 173.835 200.725 173.632C217.013 173.461 240.064 168.544 257.675 161.269C268.918 156.619 281.344 161.749 292.576 163.605C301.376 165.056 312.864 165.451 321.622 161.813C342.752 153.024 361.984 141.557 380.032 155.755C387.467 161.6 398.155 169.28 407.755 161.237C417.131 153.376 431.04 144.213 442.358 152.288C452.224 159.328 459.414 176.096 471.03 178.432C482.208 180.683 495.52 171.456 507.584 169.643C531.915 165.984 548.363 186.795 566.56 199.787" stroke="#191919" stroke-width="0.2" stroke-linecap="round" stroke-linejoin="round"/>
<path d="M78.5391 210.443C102.976 201.632 120.15 197.365 139.339 179.936C159.755 161.397 178.923 178.688 200.16 177.397C208.651 176.885 219.606 174.261 228.8 173.077C238.507 171.829 249.078 165.664 257.248 161.28C268.342 155.328 281.334 164.768 292.512 167.456C300.939 169.483 313.558 168.928 321.568 166.88C343.904 161.163 360.992 144.736 380.139 162.421C387.488 169.205 401.376 166.891 408.054 160.437C416.459 152.32 433.206 149.899 442.944 157.227C452.118 164.128 459.755 181.312 472.406 180.907C484.438 180.512 497.558 172.171 509.846 170.56C534.646 167.307 548.224 189.259 568.139 201.024" stroke="#191919" stroke-width="0.2" stroke-linecap="round" stroke-linejoin="round"/>
<path d="M77.2266 213.387C99.0932 205.771 121.077 202.261 138.272 186.485C146.88 178.592 150.72 172.416 163.2 174.421C177.813 176.768 185.291 182.827 199.616 181.227C208.608 180.224 218.955 178.976 228.395 177.024C234.443 176.693 240.171 175.072 245.6 172.16C249.397 168.299 253.205 164.448 257.003 160.587C270.059 156.448 281.227 166.731 292.48 170.624C300.629 173.451 313.365 171.925 321.557 171.179C331.467 170.272 341.099 162.613 351.499 160.416C364.16 157.739 368.565 161.216 380.213 169.067C385.696 173.749 391.349 173.952 397.003 172.288C400.832 168.032 404.651 163.776 408.48 159.52C420.096 153.824 433.845 156.725 443.488 164.907C447.296 170.581 451.115 176.245 454.923 181.92C460.469 184.021 466.635 184.704 473.952 183.061C486.784 179.499 499.787 172.875 512.096 171.573C536.661 168.971 548.501 191.744 569.685 202.155" stroke="#191919" stroke-width="0.2" stroke-linecap="round" stroke-linejoin="round"/>
<path d="M75.9463 216.341C95.8076 209.653 120.65 206.187 137.248 192.917C146.368 185.632 149.344 177.952 162.357 179.904C178.186 182.283 182.666 187.552 199.093 185.056C208.33 183.648 219.818 184.032 228 180.971C239.136 176.8 246.389 163.435 256.8 160.011C268.074 156.299 281.664 168.619 292.522 173.301C300.874 176.896 312.394 174.869 321.546 175.285C332.512 175.787 340.821 169.835 351.381 167.915C363.648 165.696 368.405 168.768 380.288 175.328C386.058 179.936 391.722 177.515 396.928 173.611C400.949 168.917 404.97 164.235 408.992 159.541C422.816 156.043 435.52 164.139 444.01 174.005C451.776 183.029 463.541 189.323 475.648 184.885C488.266 180.256 501.792 173.845 514.165 172.832C537.93 170.891 549.92 193.675 571.221 203.211" stroke="#191919" stroke-width="0.2" stroke-linecap="round" stroke-linejoin="round"/>
<path d="M74.752 219.221C93.8346 213.003 119.36 209.707 136.331 198.571C145.611 192.48 148.864 183.787 161.589 185.173C177.611 186.912 181.728 191.456 198.613 188.811C207.851 187.371 219.989 188.171 227.616 184.512C238.709 179.2 245.653 164.128 256.64 160.949C268.128 157.621 281.536 170.677 292.48 176.149C301.163 180.491 312.288 178.56 321.557 179.307C333.344 180.256 340.672 175.979 352.437 175.317C362.837 174.731 372.171 181.333 380.395 180.768C389.675 180.128 399.701 167.381 409.376 163.392C423.04 157.76 435.52 173.931 444.491 182.987C462.72 201.376 496.213 175.477 515.915 174.485C538.688 173.333 552.085 194.688 572.715 204.288" stroke="#191919" stroke-width="0.2" stroke-linecap="round" stroke-linejoin="round"/>
<path d="M73.5781 222.112C92.2875 216.139 116.714 212.736 134.058 203.456C142.485 198.955 148.031 188.341 159.093 188.512C172.863 188.725 180.757 194.101 195.242 193.056C204.469 192.395 216.863 192.949 225.066 188.971C235.786 183.765 244.277 171.04 254.965 166.027C264.607 161.504 277.151 168.597 285.674 174.507C296.042 181.685 309.706 183.008 321.546 183.349C331.413 183.637 341.887 181.931 352.117 181.739C362.559 181.547 372.853 186.357 381.983 185.557C391.733 184.704 401.567 173.504 411.53 169.696C424.917 164.576 433.365 179.157 441.909 187.147C463.829 207.637 497.173 174.197 522.175 176.416C542.197 178.197 556.97 196.459 574.229 205.515" stroke="#191919" stroke-width="0.2" stroke-linecap="round" stroke-linejoin="round"/>
<path d="M72.4482 225.024C91.7229 218.987 115.083 215.179 133.344 206.635C141.59 202.784 148.438 193.024 158.571 192.896C170.667 192.747 182.07 196.971 194.71 196.651C203.947 196.416 216.448 196.341 224.651 192.245C235.723 186.709 242.582 172.779 254.774 168.757C265.387 165.248 276.875 171.573 285.302 178.336C295.392 186.443 309.067 187.605 321.547 187.424C340.064 187.147 364.939 193.963 382.304 190.059C393.088 187.637 401.6 178.155 411.808 175.051C426.272 170.656 431.979 188.309 442.347 194.731C467.254 210.165 498.539 174.123 523.328 179.232C541.867 183.051 558.326 196.821 575.787 206.955" stroke="#191919" stroke-width="0.2" stroke-linecap="round" stroke-linejoin="round"/>
<path d="M71.3496 227.947C91.6163 222.357 114.795 219.008 132.203 211.637C142.56 207.253 150.315 199.061 162.699 197.707C171.648 196.725 184.971 199.424 194.027 199.872C203.35 200.341 216.438 198.773 224.214 193.557C234.102 186.933 242.294 175.669 254.635 172.693C266.112 169.931 276.598 176.363 284.928 183.488C294.795 191.925 309.142 191.616 321.536 191.509C341.163 191.339 363.659 198.656 382.71 195.36C393.291 193.525 401.632 185.003 412 181.237C418.731 175.371 424.982 177.301 430.731 187.008C434.742 191.264 438.667 195.659 442.752 199.765C471.99 207.189 496.384 175.2 524.096 182.571C540.918 187.04 563.264 196.693 577.216 208.619" stroke="#191919" stroke-width="0.2" stroke-linecap="round" stroke-linejoin="round"/>
<path d="M70.2822 230.88C90.7089 225.525 111.338 221.184 131.317 214.624C142.805 210.848 149.706 201.184 161.962 200.309C171.338 199.648 183.968 201.205 193.205 202.709C203.061 204.32 216.618 200.544 223.808 193.792C232.32 185.792 242.197 177.931 254.432 176.693C265.12 175.616 277.173 183.936 284.65 189.813C294.272 197.376 309.301 196.107 321.557 195.584C331.562 195.157 342.325 195.253 352.117 195.915C362.24 196.597 373.034 201.664 382.901 201.451C393.418 201.227 401.92 191.584 412.341 188.224C419.616 182.688 425.877 185.323 431.125 196.117C435.146 198.603 438.858 201.643 443.381 203.243C471.189 203.744 497.365 178.336 524.821 186.016C539.328 190.08 568.021 197.824 578.464 210.283" stroke="#191919" stroke-width="0.2" stroke-linecap="round" stroke-linejoin="round"/>
<path d="M69.2588 233.845C89.8881 228.832 110.656 224.544 130.421 217.643C141.44 213.792 149.333 204.128 161.056 202.571C170.24 201.355 183.435 203.189 192.277 205.237C203.765 207.904 215.669 202.88 223.499 194.347C231.371 185.76 242.656 179.808 254.229 180.757C266.187 181.739 274.859 192.555 284.661 197.451C295.275 202.752 309.451 200.309 321.547 199.733C331.563 199.253 342.507 198.912 352.181 200.235C362.389 201.632 373.184 208.021 382.88 208.32C393.301 208.64 403.008 196.683 412.917 195.712C423.285 194.699 433.451 206.549 444.213 206.315C469.355 205.76 497.355 186.581 524.907 190.72C539.168 192.864 570.581 199.232 579.456 211.925" stroke="#191919" stroke-width="0.2" stroke-linecap="round" stroke-linejoin="round"/>
<path d="M68.2129 236.608C89.1089 232.16 109.802 228.64 129.472 220.597C153.546 210.752 163.53 199.264 191.221 207.467C203.36 211.061 215.072 204.107 223.264 195.616C230.389 188.235 244.01 183.019 254.069 184.864C266.666 187.179 273.781 200.395 284.661 204.213C295.488 208.011 309.408 204.629 321.557 203.883C331.562 203.275 342.837 202.517 352.277 204.363C362.57 206.379 372.949 214.816 382.805 215.371C393.173 215.957 403.264 204.149 413.461 203.285C423.424 202.443 434.538 211.04 445.269 208.971C470.944 204.011 497.824 188.469 525.824 193.088C540.469 195.509 571.733 199.904 580.202 213.483" stroke="#191919" stroke-width="0.2" stroke-linecap="round" stroke-linejoin="round"/>
<path d="M67.125 239.04C88.3943 234.709 109.258 232.373 128.448 223.36C150.752 212.875 163.424 200.128 190.026 209.408C202.581 213.781 214.197 206.389 223.029 198.315C231.125 190.912 243.765 187.125 254.144 190.453C265.28 194.027 273.482 205.76 284.597 208.704C295.904 211.701 309.322 208.811 321.557 208.053C331.541 207.435 342.997 206.379 352.362 208.544C362.73 210.944 372.981 219.307 383.125 220.523C393.461 221.76 403.861 211.541 413.941 210.4C423.882 209.28 436.074 213.365 446.506 211.296C472.33 206.176 498.656 191.776 526.464 196.544C542.24 199.253 571.637 200.032 580.725 215.019" stroke="#191919" stroke-width="0.2" stroke-linecap="round" stroke-linejoin="round"/>
<path d="M65.9941 241.088C75.3168 236.864 87.6581 238.475 97.5888 236.512C107.893 234.464 118.346 230.997 127.349 225.835C148.938 213.44 162.879 204.203 188.799 211.147C201.791 214.624 213.13 211.957 222.858 202.901C230.826 195.477 243.615 191.861 253.813 196.16C264.255 200.565 272.885 212.011 284.49 212.875C296.213 213.749 309.279 212.875 321.546 212.256C331.423 211.755 343.05 210.997 352.447 213.451C362.709 216.128 373.087 223.2 383.274 224.661C393.599 226.144 404.309 217.931 414.293 216.587C424.543 215.2 437.322 216.48 447.914 213.419C473.578 206.016 499.413 194.624 527.103 199.819C545.386 203.253 570.026 199.371 581.034 216.608" stroke="#191919" stroke-width="0.2" stroke-linecap="round" stroke-linejoin="round"/>
<path d="M64.832 242.805C73.888 237.12 86.688 241.088 96.736 239.467C106.923 237.813 117.675 233.344 126.272 228.064C146.987 215.339 162.357 203.413 187.659 212.843C199.125 217.12 213.248 217.92 222.699 209.525C230.997 202.144 242.987 196.693 253.568 202.293C263.435 207.509 272.405 217.152 284.416 217.056C296.619 216.949 309.419 216.864 321.557 216.459C331.349 216.128 343.275 215.819 352.544 218.795C362.368 221.941 373.248 227.925 383.424 228.789C393.877 229.675 404.384 222.603 414.539 221.483C425.909 220.224 438.411 219.179 449.397 215.712C474.123 207.904 500.235 197.92 527.701 202.965C539.808 205.184 547.947 203.947 558.912 204.757C569.675 205.547 574.187 207.787 581.173 218.336" stroke="#191919" stroke-width="0.2" stroke-linecap="round" stroke-linejoin="round"/>
<path d="M63.6475 244.299C75.3381 240.128 83.1035 243.36 94.9435 241.621C105.375 240.096 115.103 235.392 123.775 230.432C143.573 219.104 157.738 204.661 182.527 212.843C195.338 217.077 214.474 223.531 226.357 213.291C233.866 206.816 240.874 202.315 251.935 208.171C256.042 216.917 262.293 221.12 270.677 220.768C277.002 221.803 283.37 221.909 289.77 221.099C300.351 220.789 310.965 220.672 321.557 220.693C343.487 220.736 364.245 234.613 385.077 233.035C395.658 232.235 405.909 225.728 416.767 224.459C430.346 222.869 442.613 221.333 454.986 216.352C478.463 206.901 503.573 202.101 529.695 206.741C553.493 210.965 565.269 196.747 581.173 220.437" stroke="#191919" stroke-width="0.2" stroke-linecap="round" stroke-linejoin="round"/>
<path d="M62.4854 245.76C72.544 233.856 82.7307 245.653 94.1867 245.131C103.403 244.715 115.413 237.461 122.645 232.768C141.664 220.437 157.504 206.357 181.312 214.731C194.389 219.328 213.504 229.099 226.144 220.085C235.52 213.397 239.957 209.419 251.488 216.309C263.051 223.221 276.352 225.973 289.696 225.344C300.16 224.853 311.179 225.269 321.547 224.96C331.467 224.661 344.395 225.835 353.451 230.496C362.347 235.072 375.605 238.976 385.205 237.163C395.403 235.232 406.251 229.003 417.024 228.949C430.464 228.875 444.107 224.896 456.352 219.04C479.957 207.744 504.48 205.589 530.219 209.973C555.435 214.272 564.299 195.093 581.141 223.264" stroke="#191919" stroke-width="0.2" stroke-linecap="round" stroke-linejoin="round"/>
<path d="M61.3223 247.072C70.8263 232.352 82.0369 246.133 93.1303 247.179C102.08 248.032 114.869 239.413 121.504 234.944C139.754 222.645 157.13 208.939 180.106 216.715C194.069 221.44 211.125 232.16 225.909 226.699C237.632 222.357 239.221 220.224 251.242 225.088C273.44 234.069 298.666 228.725 321.536 229.205C342.901 229.653 364.469 245.387 385.333 240.64C394.997 238.443 406.762 233.269 417.397 234.539C431.84 236.267 445.514 228.459 457.461 222.368C480.544 210.592 509.237 206.251 530.72 213.365C536.384 215.243 542.698 216.427 547.797 212.768C551.893 210.912 555.712 208.587 559.274 205.824C568.896 205.44 577.152 221.237 581.216 227.104" stroke="#191919" stroke-width="0.2" stroke-linecap="round" stroke-linejoin="round"/>
<path d="M60.1816 248.299C77.0563 234.539 73.7176 245.077 91.9576 248.277C101.824 250.005 113.046 241.984 120.406 236.917C138.08 224.747 156.747 211.712 179.062 218.709C193.846 223.349 209.312 232.661 225.366 232.235C238.923 231.872 238.827 230.251 251.19 233.376C274.038 239.157 298.848 233.141 321.558 233.493C342.816 233.824 364.032 249.152 385.483 243.659C395.904 240.992 407.179 239.339 417.739 241.077C432.352 243.488 445.206 232.864 458.336 227.115C483.808 215.957 506.059 210.581 531.211 216.896C544.171 220.149 548.011 208.043 559.147 209.195C568.544 210.165 577.312 224.917 581.44 232.075" stroke="#191919" stroke-width="0.2" stroke-linecap="round" stroke-linejoin="round"/>
<path d="M59.0615 249.493C75.4775 235.499 72.7469 244.224 90.6775 248.779C101.899 251.627 110.432 245.067 119.318 238.912C136.758 226.837 156.438 215.157 178.176 220.832C193.75 224.896 208.448 233.664 224.523 236.533C237.131 238.795 240.203 238.123 251.104 239.435C274.4 242.24 298.795 239.925 321.558 237.792C331.531 236.853 344.854 238.624 353.739 243.872C362.454 249.024 376.15 249.909 385.611 246.475C389.558 244.075 393.824 242.581 398.4 241.995C405.728 238.709 412.064 241.013 417.92 247.979C432.747 248.437 446.23 238.805 459.019 233.269C470.923 228.117 480.278 220.48 493.686 218.325C505.92 216.363 519.595 218.56 531.691 220.331C543.851 222.112 548.566 209.376 558.923 212.565C569.088 215.691 576.736 230.4 581.835 238.325" stroke="#191919" stroke-width="0.2" stroke-linecap="round" stroke-linejoin="round"/>
<path d="M57.9736 250.699C68.8643 236.587 76.0216 244.085 88.107 247.659C102.187 251.819 108.523 244.971 120.715 238.475C138.144 229.184 157.227 219.573 177.387 223.285C203.531 228.107 227.318 244.523 254.422 244.971C276.715 245.344 300.032 244.885 321.494 241.515C332.203 239.829 344.246 237.771 353.856 245.035C363.051 251.979 374.998 252.352 385.696 248.864C389.408 245.205 393.696 244.171 398.507 245.888C406.006 245.685 412.48 248.555 417.952 254.432C433.472 253.888 446.208 246.293 459.296 240.747C471.339 235.637 479.926 224.981 493.654 221.813C505.494 219.083 521.952 223.723 532.032 223.648C541.984 223.573 547.499 211.584 558.528 216.373C568.886 220.864 577.067 236.928 582.315 245.397" stroke="#191919" stroke-width="0.2" stroke-linecap="round" stroke-linejoin="round"/>
<path d="M56.9492 252C72.6506 241.675 72.4479 243.979 89.0879 249.397C102.165 253.664 106.859 250.229 118.432 241.824C135.691 229.291 159.232 222.987 180.181 227.029C205.483 231.915 229.003 249.141 255.68 247.744C277.536 246.603 300.075 252.075 321.483 246.144C333.408 242.848 333.973 234.037 348.235 241.259C353.547 247.637 360.053 252 367.733 254.325C374.688 259.04 381.237 257.483 387.403 249.643C399.296 247.072 404.448 256.608 413.696 258.784C427.189 261.952 442.123 256.512 454.453 251.349C468.064 245.664 476.832 233.984 490.507 228.021C502.133 222.944 520.875 227.808 530.613 226.88C541.248 225.856 544.939 213.792 557.547 220.619C568.576 226.592 577.173 243.157 582.901 252.907" stroke="#191919" stroke-width="0.2" stroke-linecap="round" stroke-linejoin="round"/>
<path d="M55.9893 253.472C72.4479 244.949 71.0293 247.051 87.8293 249.312C101.568 251.168 103.893 253.803 117.44 243.691C133.941 231.371 158.848 227.029 179.552 229.952C205.589 233.632 228.341 252.16 255.595 252.043C276.971 251.947 303.019 258.133 321.333 247.829C329.216 243.392 338.699 232.917 348.267 242.048C353.621 248.523 360.171 253.035 367.915 255.573C374.539 260.235 381.077 259.157 387.52 252.32C396.629 252 406.08 262.432 413.867 263.893C426.133 266.187 442.325 265.44 453.963 259.595C458.752 257.184 466.251 255.989 471.104 252.971C478.944 248.096 482.272 238.293 490.176 233.536C502.091 226.379 520.619 232.341 530.496 229.216C540.811 225.952 545.067 216.672 557.045 225.589C568.395 234.048 576.459 248.917 583.531 260.469" stroke="#191919" stroke-width="0.2" stroke-linecap="round" stroke-linejoin="round"/>
<path d="M55.1143 255.189C68.1703 250.24 72.7249 247.883 86.2396 249.109C99.2529 250.293 103.114 256.117 116.469 245.973C132 234.176 158.272 231.563 179.072 233.269C205.706 235.456 228.672 253.845 255.466 256.245C276.629 258.144 303.733 261.195 321.162 247.829C329.621 241.344 338.08 233.195 348.224 242.859C353.653 249.344 360.245 253.92 368.01 256.587C374.133 260.736 380.661 260.715 387.605 256.533C396.149 257.707 405.749 267.371 413.994 268.117C424.554 269.067 443.861 271.765 453.77 266.048C458.41 263.371 465.93 262.123 470.89 259.051C479.157 253.941 482.624 244.565 490.208 238.923C503.008 229.376 520.512 237.131 530.485 230.912C551.445 217.845 573.248 251.371 584.128 267.584" stroke="#191919" stroke-width="0.2" stroke-linecap="round" stroke-linejoin="round"/>
<path d="M54.3467 257.248C63.936 254.613 74.912 249.216 85.056 249.44C97.216 249.707 102.944 258.357 115.52 248.395C130.059 236.864 157.963 237.835 178.752 237.216C206.123 236.405 229.301 256.693 255.2 260.128C265.867 261.536 277.803 259.915 288.469 259.861C300.416 259.797 312.117 255.925 321.045 247.413C328.405 240.405 339.339 237.323 348.139 243.808C353.696 250.24 360.331 255.051 368.021 258.219C373.888 262.144 380.448 263.531 387.691 262.357C397.888 265.515 404.011 272.203 414.112 272.341C424.832 272.491 442.88 276.672 453.387 271.904C468.416 265.077 477.045 259.829 489.515 248.619C503.008 236.491 518.635 244.565 528 236.235C547.456 218.944 577.099 262.528 584.672 273.909" stroke="#191919" stroke-width="0.2" stroke-linecap="round" stroke-linejoin="round"/>
<path d="M53.707 259.765C62.827 257.419 74.699 254.816 81.6324 253.387C93.3657 250.965 100.886 259.435 114.763 251.051C132.395 240.384 157.803 242.987 178.582 241.429C205.76 239.403 229.632 258.528 254.902 263.893C265.366 266.112 277.664 265.355 288.438 264.256C292.939 264.661 297.312 264.117 301.568 262.613C310.656 261.749 317.163 256.491 321.099 246.869C328.512 242.539 340.267 241.579 348.139 245.259C353.376 252.576 360.011 257.963 368.032 261.408C374.155 265.099 380.747 267.659 387.808 269.099C398.038 273.387 403.798 276.907 414.23 276.619C427.275 276.256 442.283 280.395 452.608 277.749C464.32 274.752 478.784 266.56 489.654 255.776C503.776 241.771 518.006 248.128 528.107 239.264C545.707 223.829 578.667 270.955 585.163 279.179" stroke="#191919" stroke-width="0.2" stroke-linecap="round" stroke-linejoin="round"/>
<path d="M53.2051 262.805C63.4984 262.304 78.5384 255.328 84.8531 254.336C90.7411 253.419 108.245 258.315 115.2 252.256C127.722 241.355 160.053 246.837 181.802 245.248C207.253 243.392 229.312 261.365 252.682 267.211C263.872 270.005 276.33 269.483 287.541 268.672C300.682 267.723 310.037 256.064 321.301 250.517C332.341 245.067 346.08 247.179 355.637 255.488C363.392 262.229 373.461 268.309 382.762 272.299C393.354 276.832 406.016 282.933 416.661 280.832C422.752 279.627 430.005 277.557 436.885 277.024C442.826 280.917 450.442 282.827 456.181 280.875C469.194 276.459 481.93 268.917 493.536 257.568C499.733 251.509 502.965 247.541 511.061 244.843C518.89 242.24 525.344 243.787 532.096 238.123C545.536 226.859 575.541 277.739 585.621 283.061" stroke="#191919" stroke-width="0.2" stroke-linecap="round" stroke-linejoin="round"/>
<path d="M52.8955 266.517C61.8875 262.624 73.8128 264.864 81.5675 260C94.6128 251.829 102.944 264.725 115.168 256.683C130.997 246.272 160.128 251.243 181.674 249.387C207.04 247.2 229.642 263.584 252.405 271.008C263.893 274.752 276.725 275.136 287.53 273.099C299.978 270.752 308.906 256.661 321.344 252.629C343.488 245.461 364.064 269.056 382.933 278.165C392.469 282.773 406.709 286.571 416.906 284.117C432.597 280.352 443.2 284.864 455.157 285.899C464.256 286.688 484.298 276.416 493.77 267.861C499.274 262.891 503.072 254.795 509.941 251.264C517.258 247.499 525.706 247.157 532.629 244.085C548.704 236.939 573.696 278.187 586.058 286.24" stroke="#191919" stroke-width="0.2" stroke-linecap="round" stroke-linejoin="round"/>
<path d="M52.7998 271.125C61.2798 265.131 75.1571 268.565 81.3331 263.701C91.4878 255.712 102.261 266.251 114.933 260.491C135.136 251.307 160.106 254.912 181.536 253.557C206.944 251.957 229.397 266.912 252.181 275.008C263.797 279.136 275.733 281.984 287.488 277.547C299.957 272.843 308.128 259.157 321.546 256.021C335.082 252.853 345.696 264.299 355.605 271.531C363.136 277.024 374.25 280.235 382.997 283.275C392.736 286.656 406.698 289.728 417.066 287.232C433.162 283.36 438.688 281.589 454.048 288.501C462.933 292.501 485.984 282.261 493.834 276.523C500.277 271.819 503.818 262.901 510.389 258.432C517.472 253.621 525.738 253.216 533.066 252.341C552.021 250.069 568.181 282.357 586.443 289.461" stroke="#191919" stroke-width="0.2" stroke-linecap="round" stroke-linejoin="round"/>
<path d="M52.8857 276.405C61.0457 269.557 72.9817 272.011 81.1631 267.52C94.1977 260.373 103.712 266.507 114.902 264.725C130.699 262.208 160.054 258.795 181.419 257.728C206.731 256.459 231.894 269.323 252.064 279.371C263.232 284.939 276.128 286.464 287.392 281.344C299.083 276.032 306.902 261.888 321.547 260.491C326.294 259.819 330.848 260.523 335.179 262.592C344.768 264.235 351.584 270.144 355.627 280.32C362.475 283.616 375.68 285.323 383.008 287.307C393.131 290.048 406.379 292.448 416.95 290.251C432.246 287.061 440.416 283.424 453.024 289.973C481.408 304.725 506.603 253.472 533.27 260.107C540 261.781 545.536 277.653 551.446 282.656C561.163 290.869 574.379 293.248 586.784 292.661" stroke="#191919" stroke-width="0.2" stroke-linecap="round" stroke-linejoin="round"/>
<path d="M53.0986 282.144C60.7146 274.101 72.6293 275.541 80.4053 271.701C93.7813 265.099 101.835 267.883 113.301 268.469C129.248 269.28 155.755 262.944 177.92 262.048C203.392 261.013 230.933 272.171 249.995 283.413C261.653 290.283 274.229 290.037 286.389 282.816C297.6 276.16 308.395 264.043 321.557 264.981C332.853 265.781 340.331 278.208 349.568 283.381C359.467 288.917 373.376 287.488 384.693 288.992C395.872 290.475 408.117 293.952 419.595 291.147C429.12 288.821 437.333 285.568 448.021 289.685C465.589 296.469 475.157 298.677 492.256 286.891C503.381 279.221 516.725 255.861 531.541 266.08C539.413 271.509 543.36 283.659 549.568 290.208C558.24 299.349 574.56 296.331 587.125 295.893" stroke="#191919" stroke-width="0.2" stroke-linecap="round" stroke-linejoin="round"/>
<path d="M53.4082 288.139C58.8482 279.563 72.5549 277.888 80.4482 276.043C93.4189 273.024 100.011 269.675 113.28 271.691C130.976 274.389 156.683 267.285 177.835 266.24C202.059 265.045 232.875 276.693 250.112 289.045C261.814 297.44 275.051 294.208 286.39 286.645C296.715 279.755 308.907 267.253 321.558 269.493C332.886 271.499 339.467 286.368 349.579 290.709C359.606 295.008 373.664 290.347 384.811 290.261C395.958 290.176 408.096 293.589 419.563 293.344C428.331 293.163 438.336 291.328 447.691 292.853C454.262 293.92 462.059 300.843 468.512 301.355C477.558 302.08 485.334 294.549 491.926 289.493C501.856 281.888 518.347 261.365 530.56 271.947C538.123 278.496 540.79 291.936 548.438 297.835C557.995 305.195 574.71 299.52 587.392 299.125" stroke="#191919" stroke-width="0.2" stroke-linecap="round" stroke-linejoin="round"/>
<path d="M53.7598 294.165C66.6238 280.064 95.8718 271.413 113.578 276.288C122.176 278.656 135.104 272.811 145.418 271.605C156.064 270.357 167.018 270.923 177.696 270.432C200.458 269.387 233.717 281.227 250.304 295.435C262.197 305.621 275.68 299.488 286.389 291.669C295.829 284.768 310.474 271.797 321.546 274.005C331.861 276.064 339.178 291.755 349.578 295.413C360.181 299.147 373.941 290.891 384.97 289.579C396.085 288.256 408.384 294.219 419.744 296.032C428.16 297.376 438.73 297.035 447.68 296.917C455.978 296.811 460.522 302.283 468.416 303.072C478.933 304.117 483.68 297.653 491.53 291.488C501.248 283.861 518.026 267.253 529.322 278.208C536.48 285.152 538.912 299.659 547.584 304.235C558.293 309.877 574.56 303.659 587.605 302.368" stroke="#191919" stroke-width="0.2" stroke-linecap="round" stroke-linejoin="round"/>
<path d="M54.1123 300.064C64.5016 288.779 67.883 283.925 83.0616 284.16C93.5576 284.32 104.16 283.115 114.358 283.061C134.88 282.955 155.712 275.061 177.504 274.848C201.408 274.613 231.638 288.405 250.592 302.272C262.304 310.837 276.011 307.136 286.443 298.549C295.99 290.688 308.448 281.867 321.547 281.141C326.219 286.219 330.891 291.296 335.574 296.363C340.246 297.557 344.918 298.741 349.6 299.936C362.912 301.173 373.43 290.731 385.014 288.779C396.576 286.837 408.608 295.68 419.862 298.976C428.342 301.451 439.488 301.504 447.744 301.163C455.04 300.864 460.566 303.808 468.075 303.893C479.478 304.032 481.728 300.16 490.87 293.515C500.95 286.197 517.696 273.835 527.808 285.44C534.038 292.587 537.75 307.36 546.934 310.229C558.603 313.888 574.262 307.147 587.819 305.621" stroke="#191919" stroke-width="0.2" stroke-linecap="round" stroke-linejoin="round"/>
<path d="M54.4424 305.632C67.1037 292.992 66.9544 291.765 83.1037 291.936C94.4744 292.053 102.485 295.243 113.952 290.987C133.461 283.733 151.2 277.376 174.026 278.933C204.8 281.035 230.805 301.739 256.586 311.392C264.533 314.368 277.909 313.237 285.514 307.723C290.208 303.595 294.901 299.595 299.594 297.483C307.168 287.584 314.485 286.368 321.557 293.845C330.357 298.101 340.33 304.075 350.368 304.48C355.882 305.643 360.778 304.309 365.045 300.491C373.184 296.768 380.32 291.563 386.453 284.864C396.97 286.827 406.965 295.467 415.509 299.349C426.282 304.245 439.072 305.845 451.189 305.483C466.314 305.035 475.317 305.525 490.154 296.704C499.84 290.944 515.786 284.043 524.352 293.013C530.741 299.701 535.893 314.347 545.322 316.011C557.898 318.219 573.61 310.645 587.946 308.907" stroke="#191919" stroke-width="0.2" stroke-linecap="round" stroke-linejoin="round"/>
<path d="M54.6982 310.709C67.9569 299.744 68.0422 298.923 83.9676 300.149C95.9249 301.077 102.624 307.349 115.082 299.339C132.789 287.957 152.736 281.173 173.834 283.499C188.138 285.077 201.514 290.891 214.816 296.277C228.448 301.792 242.752 314.613 256.693 316.597C265.205 317.803 276.266 318.528 285.386 314.368C290.048 311.371 294.72 307.787 299.381 305.44C307.338 294.197 314.73 295.712 321.546 302.784C330.421 305.664 341.504 311.179 350.368 309.003C362.912 305.92 372.896 287.861 386.389 287.84C397.066 287.829 406.645 297.312 415.466 302.773C425.674 309.099 439.402 310.112 451.242 309.717C470.773 309.056 507.893 288.587 522.112 303.243C528.085 309.397 535.477 321.355 545.045 321.067C558.56 320.651 573.376 313.568 588.096 312.16" stroke="#191919" stroke-width="0.2" stroke-linecap="round" stroke-linejoin="round"/>
<path d="M54.8584 315.136C67.3811 305.984 70.8477 306.987 84.8957 308.096C97.2904 309.067 103.317 313.301 115.85 305.44C133.152 294.581 152.554 285.045 174.058 288.629C187.989 290.944 201.429 296.747 214.442 302.261C227.445 307.765 242.986 320.736 256.693 321.291C278.613 322.187 299.52 307.253 321.546 310.485C331.296 311.915 340.768 316.096 350.592 312.448C363.253 307.744 372.394 293.077 386.4 292.331C397.546 291.744 406.645 302.101 415.36 307.861C425.312 314.443 439.264 314.368 451.264 314.005C472 313.376 502.613 297.589 520.128 312.619C539.178 328.96 566.005 316.64 588.17 315.467" stroke="#191919" stroke-width="0.2" stroke-linecap="round" stroke-linejoin="round"/>
<path d="M54.8906 318.763C77.2906 309.867 96.6933 321.803 118.037 309.76C137.152 298.976 155.851 287.968 178.645 294.272C191.157 297.739 203.947 303.04 215.595 308.811C228.085 314.997 240.341 326.336 254.891 326.251C277.707 326.112 300.395 316.117 321.557 317.856C330.336 318.581 343.307 320.928 351.488 317.429C362.005 312.928 368.949 299.104 380.821 296.821C395.104 294.069 405.781 307.435 417.867 313.611C426.133 317.845 438.208 318.496 447.541 317.941C468.821 316.672 497.92 306.741 516.875 319.499C538.379 333.973 564.864 319.541 588.224 318.752" stroke="#191919" stroke-width="0.2" stroke-linecap="round" stroke-linejoin="round"/>
<path d="M54.8906 322.059C74.8586 320.395 97.408 324.661 115.861 316.341C137.632 306.528 154.016 291.413 179.541 299.467C191.392 303.211 203.509 307.765 214.88 312.992C226.987 318.56 238.261 327.989 251.541 329.717C275.744 332.864 298.539 321.685 321.568 322.667C330.603 323.051 344.299 322.656 351.723 317.579C359.648 312.16 370.101 301.344 380.821 301.333C395.147 301.312 405.237 314.251 417.984 318.816C426.816 321.973 437.92 321.024 447.584 321.493C460.523 322.112 472.821 322.688 485.312 321.035C494.709 319.787 507.435 323.339 515.499 328C537.856 340.907 564.053 322.613 588.224 322.069" stroke="#191919" stroke-width="0.2" stroke-linecap="round" stroke-linejoin="round"/>
<path d="M54.9229 325.355C75.3389 325.973 98.6562 329.035 118.059 321.888C128.128 318.187 138.891 311.648 147.008 304.693C154.443 298.315 166.454 293.44 175.446 297.536C189.867 304.107 203.798 316.448 219.008 323.115C231.286 328.501 244.022 334.069 256.683 338.304C265.568 341.28 276.192 342.549 284.8 338.187C296.982 332.021 307.478 329.003 321.547 327.253C326.432 327.52 331.296 327.253 336.128 326.485C342.859 327.403 347.712 324.576 350.688 317.995C361.056 310.453 374.315 301.024 386.411 305.813C396.502 309.813 405.291 320.683 415.232 326.976C420.139 324.907 425.056 322.837 429.963 320.768C436.939 323.125 444.107 324.725 451.371 325.643C461.024 326.869 470.411 326.635 480.128 326.517C492.779 326.368 504.875 332.245 516.544 336.053C540.022 343.723 564.256 326.624 588.182 325.333" stroke="#191919" stroke-width="0.2" stroke-linecap="round" stroke-linejoin="round"/>
<path d="M55.0078 328.651C75.8611 329.749 98.2078 332.181 118.677 327.147C128.832 324.651 141.28 318.475 147.85 310.677C154.421 302.88 164.97 292.853 175.754 299.424C190.058 308.139 202.773 324.139 219.68 328.971C232.842 332.725 245.824 340.363 256.704 344.437C273.856 350.859 299.264 333.888 321.546 331.851C331.541 330.933 342.794 324.96 350.624 319.093C360.437 311.723 375.242 305.067 386.4 310.389C396.32 315.115 402.688 328.341 415.584 329.323C420.32 326.528 425.056 323.733 429.792 320.939C436.725 324.352 444.021 327.189 451.381 328.96C461.088 331.296 469.984 330.005 479.989 330.795C492.437 331.765 504.181 337.717 516.17 340.651C523.274 342.389 537.536 341.547 544.917 339.211C550.997 332.907 558.154 329.781 566.4 329.856C573.578 328.811 580.811 328.416 588.075 328.683" stroke="#191919" stroke-width="0.2" stroke-linecap="round" stroke-linejoin="round"/>
<path d="M55.125 331.925C76.6823 332.939 97.8983 334.645 119.21 332.128C129.408 330.923 142.72 325.035 148.682 316.651C154.176 308.928 164.053 290.037 175.882 301.717C188.053 313.739 203.424 331.136 220.202 334.496C233.002 337.067 246.933 341.899 256.661 349.963C266.208 357.877 276.533 354.464 285.536 349.056C298.442 341.312 307.285 339.701 321.546 336.395C341.877 331.68 365.344 304.96 386.432 317.195C395.477 322.443 402.997 336.907 415.733 328.971C420.33 326.293 424.928 323.616 429.536 320.939C436.533 325.195 443.829 328.811 451.434 331.776C461.525 334.933 470.656 333.131 479.978 335.019C491.722 337.397 504.224 342.187 515.968 344.736C523.53 346.379 536.746 344.64 544.832 341.675C550.88 335.008 558.058 332.032 566.357 332.747C573.557 332.341 580.757 332.064 587.968 331.915" stroke="#191919" stroke-width="0.2" stroke-linecap="round" stroke-linejoin="round"/>
<path d="M55.2852 335.189C78.1865 336.288 101.888 340.245 124.448 335.712C130.645 334.464 142.506 331.168 147.594 323.776C150.272 314.123 153.066 304.715 157.045 298.315C164.448 294.155 172.64 298.379 180.81 308.939C192.928 320.117 207.2 339.392 223.36 340.064C232.128 340.427 245.013 345.547 251.434 351.957C261.184 361.685 275.605 361.824 286.581 354.251C297.205 346.923 308.48 342.304 321.568 340.949C331.37 339.936 341.877 331.552 349.664 325.941C360.384 318.219 373.301 318.976 384.725 326.101C388.32 331.083 393.066 334.304 398.954 335.755C408.181 342.219 415.2 338.304 419.989 324.021C429.44 321.76 440.864 328.469 448.16 332.747C457.92 338.485 471.968 337.216 482.976 339.648C493.941 342.069 506.186 347.328 517.792 348.565C526.73 349.515 536.672 347.349 545.685 343.744C559.072 338.389 573.397 335.445 587.829 335.2" stroke="#191919" stroke-width="0.2" stroke-linecap="round" stroke-linejoin="round"/>
<path d="M55.4883 338.443C78.571 339.723 101.995 343.147 124.971 340.544C132.352 339.701 142.646 335.019 148.203 324.405C150.72 314.421 153.323 304.651 157.174 298.016C164.587 296.373 172.928 301.824 181.11 311.712C193.419 323.893 205.344 343.317 223.446 344.597C232.694 345.248 244.534 351.221 251.36 357.323C260.918 365.867 276.022 366.443 286.614 360.597C296.843 354.944 309.419 346.613 321.558 345.483C330.656 344.629 341.846 338.656 349.59 332.843C355.744 326.432 362.763 324.139 370.646 325.963C377.227 324.811 382.07 327.627 384.683 334.219C387.723 341.856 392.406 344.043 398.976 340.235C408.416 339.381 415.371 334.133 419.819 324.501C429.366 323.317 440.619 329.675 447.904 334.453C457.814 340.949 471.755 341.056 483.275 343.381C494.496 345.643 506.176 350.72 517.814 352.192C527.2 353.376 536.267 350.219 545.515 346.699C558.944 341.579 573.27 338.965 587.627 338.453" stroke="#191919" stroke-width="0.2" stroke-linecap="round" stroke-linejoin="round"/>
<path d="M55.7227 341.696C78.9653 343.253 102.859 345.824 125.376 345.067C136.725 344.683 144.619 333.739 148.053 323.627C154.528 304.523 166.603 298.101 181.472 314.987C192.992 328.064 205.152 346.016 223.499 349.344C233.003 351.072 243.413 357.749 251.317 362.987C261.579 369.803 277.056 371.083 286.645 366.635C296.032 362.283 309.269 350.805 321.568 349.995C330.496 349.408 341.696 345.312 349.589 340.16C355.797 331.851 362.816 329.728 370.656 333.792C376.693 334.304 381.365 337.195 384.672 342.475C388.939 350.987 393.675 351.381 398.891 343.659C405.909 338.421 412.811 333.035 419.616 327.52C428.981 326.037 440.491 331.563 447.701 336.523C457.909 343.541 471.979 344.363 483.925 346.784C494.987 349.024 506.539 354.101 517.867 355.488C541.227 358.347 563.883 343.968 587.392 341.685" stroke="#191919" stroke-width="0.2" stroke-linecap="round" stroke-linejoin="round"/>
<path d="M56 344.928C79.232 346.613 103.264 349.28 125.696 349.248C139.221 349.237 145.323 333.216 147.861 322.315C152.416 302.741 172.811 309.408 182.165 320.235C193.963 333.888 205.6 349.803 223.563 354.101C233.451 356.469 241.984 364.384 251.232 368.437C278.592 380.448 296.288 355.104 321.557 354.507C332.011 354.261 340.533 352.768 349.568 347.424C363.221 339.349 371.072 347.328 384.789 349.205C390.773 355.019 395.477 353.728 398.923 345.323C403.808 338.155 411.104 333.739 419.381 332.085C428.395 330.283 440.448 335.456 447.541 340.736C457.867 348.416 472.757 347.776 484.768 349.877C495.467 351.755 506.539 357.451 517.6 358.688C541.12 361.323 563.52 347.467 587.125 344.917" stroke="#191919" stroke-width="0.2" stroke-linecap="round" stroke-linejoin="round"/>
<path d="M56.3096 348.149C78.9016 349.909 101.526 351.595 124.107 353.003C128.651 353.291 133.216 353.483 137.323 352.608C141.142 340.395 144.704 329.728 151.126 319.104C161.206 302.421 180.576 322.123 187.606 331.072C195.979 341.717 205.238 355.115 219.318 357.717C231.211 359.904 241.195 370.72 253.27 374.869C281.323 384.523 296.086 359.829 321.547 359.008C332.694 358.645 345.088 354.485 355.638 350.859C369.846 345.973 371.766 358.251 382.912 358.229C389.974 352.981 396.875 347.531 403.606 341.867C406.859 336.597 411.222 335.019 416.715 337.12C430.763 333.504 440.534 345.163 451.488 349.749C462.24 354.251 476.63 350.816 488.107 352.992C498.166 354.901 508.64 360.661 519.136 362.005C542.016 364.917 563.99 351.467 586.784 348.16" stroke="#191919" stroke-width="0.2" stroke-linecap="round" stroke-linejoin="round"/>
<path d="M56.6611 351.36C79.2638 353.749 101.728 356.683 124.32 356.779C140.629 356.843 144.096 330.944 151.68 322.251C163.114 309.141 182.058 332.523 189.194 342.272C196.629 352.427 208.778 358.891 219.413 361.952C230.016 365.003 242.122 374.453 253.269 379.488C277.141 390.272 297.557 364.427 321.557 363.467C332.746 363.019 344.586 360.181 355.626 357.92C364.33 356.139 375.338 363.147 383.2 361.483C387.776 352.587 394.517 346.859 403.434 344.299C407.562 341.205 411.946 340.747 416.576 342.933C423.402 344.992 430.336 344.928 437.365 342.752C441.76 347.317 445.984 352.011 452.277 355.083C464.64 356.501 477.579 353.493 489.248 355.627C499.104 357.429 508.896 363.413 518.965 365.237C541.685 369.344 564.053 355.84 586.443 351.349" stroke="#191919" stroke-width="0.2" stroke-linecap="round" stroke-linejoin="round"/>
<path d="M57.0449 354.56C79.4769 357.184 101.845 363.563 124.544 360.544C140.266 358.453 143.765 334.72 152.437 326.709C164.16 315.872 183.061 346.4 190.922 354.752C197.525 361.749 211.157 364.427 219.488 366.069C230.602 368.256 242.314 377.781 253.226 383.595C264.896 389.813 277.685 382.848 287.584 377.141C297.408 371.477 309.866 367.136 321.546 367.936C332.138 368.661 344.426 365.963 355.594 364.96C364.906 364.117 374.144 367.232 383.274 362.048C387.082 350.155 393.749 345.461 403.253 347.979C407.765 348 412.202 348.725 416.49 350.016C423.136 352.021 430.08 352.693 437.13 352.128C441.514 355.776 447.104 358.464 453.824 360.256C466.122 359.744 478.944 356.128 490.602 358.219C500.096 359.915 509.28 366.368 518.656 368.864C540.789 374.763 564.245 359.979 586.037 354.571" stroke="#191919" stroke-width="0.2" stroke-linecap="round" stroke-linejoin="round"/>
<path d="M57.4717 357.749C79.445 360.843 102.773 369.707 124.8 364.288C139.445 360.693 142.602 339.957 153.536 332.832C156.533 330.88 162.058 331.872 166.933 334.837C180.106 340.021 187.957 352.907 192.138 365.803C201.024 372.064 211.893 368.011 219.605 370.208C231.456 373.589 242.656 381.333 253.45 387.04C265.29 393.291 277.92 383.179 287.626 378.251C298.005 372.981 309.397 371.221 321.546 372.363C341.077 374.208 365.45 376.149 383.125 363.413C388.096 349.792 394.762 346.443 403.114 353.365C407.146 356.288 411.648 357.771 416.608 357.803C423.306 358.912 429.589 359.979 436.96 360.171C442.176 362.571 449.088 363.595 456.32 364.384C468.202 362.624 480.341 358.997 492.202 360.715C502.773 362.251 506.624 368.555 518.72 372.309C541.44 379.36 564.192 363.403 585.61 357.728" stroke="#191919" stroke-width="0.2" stroke-linecap="round" stroke-linejoin="round"/>
<path d="M57.9414 360.928C79.0507 364.192 103.552 374.496 123.445 367.883C136.544 363.531 141.856 344.981 152.427 339.627C165.184 333.163 179.531 364.181 189.045 370.645C197.515 376.395 211.808 373.429 222.357 376.16C233.579 379.061 244.256 386.432 255.253 390.688C267.019 395.232 278.443 385.195 288.437 380.235C298.037 375.477 311.285 376.459 321.536 376.821C330.059 377.12 339.2 376.757 348.032 376.661C354.869 377.483 361.536 376.917 368.032 374.955C376.939 374.208 383.552 369.312 387.872 360.267C401.216 354.635 403.531 366.699 414.219 367.904C420.907 362.688 426.475 362.837 434.229 365.803C439.328 367.083 445.771 367.445 452.149 366.827C473.92 364.693 494.656 364.235 514.933 373.387C537.76 383.691 562.997 366.453 585.141 360.917" stroke="#191919" stroke-width="0.2" stroke-linecap="round" stroke-linejoin="round"/>
<path d="M58.4424 364.096C79.1891 367.552 105.258 378.368 124.074 369.995C135.232 365.035 142.538 346.912 153.525 345.696C167.242 344.171 176.117 371.424 189.418 376.949C199.093 380.971 212.256 377.707 222.453 380.597C233.162 383.627 244.416 390.741 255.402 393.419C267.349 396.32 277.813 386.101 288.458 382.187C298.346 378.56 311.029 381.045 321.536 381.237C330.197 381.397 339.178 381.173 348 381.067C354.89 382.08 361.525 381.408 367.936 379.04C376.288 377.813 382.869 373.323 387.68 365.568C398.762 364.523 404.522 374.635 414.858 376.085C420.554 367.712 425.706 366.656 435.296 369.707C440.885 370.677 447.605 370.763 454.09 369.867C466.73 368.128 479.754 364.192 492.586 365.12C503.146 365.888 506.72 372.373 516.064 377.099C537.621 388.021 562.944 369.397 584.65 364.085" stroke="#191919" stroke-width="0.2" stroke-linecap="round" stroke-linejoin="round"/>
<path d="M58.9863 367.243C79.4557 370.816 105.632 381.131 124.341 371.819C134.218 366.901 144.458 351.136 154.528 351.829C167.786 352.747 175.285 376.139 189.61 380.747C199.637 383.968 212.384 382.187 222.496 384.917C233.109 387.787 244.234 394.56 255.573 395.755C267.701 397.035 277.941 386.891 288.522 384.491C298.314 382.261 310.73 385.621 321.557 385.621C330.133 385.621 339.178 385.557 347.989 385.44C354.805 386.315 361.429 385.685 367.85 383.541C375.552 382.464 382.09 378.848 387.477 372.704C395.989 371.424 405.984 381.664 414.357 380.341C419.477 370.208 424.736 368.576 435.434 371.712C441.397 372.341 448.117 372.448 454.997 372.331C468 370.08 481.226 366.443 494.325 367.52C504.714 368.373 508.704 375.573 517.365 380.427C537.802 391.883 563.2 372.032 584.117 367.253" stroke="#191919" stroke-width="0.2" stroke-linecap="round" stroke-linejoin="round"/>
<path d="M59.5625 370.389C80.1492 374.08 105.547 383.371 124.715 374.059C134.24 369.429 145.632 358.261 155.605 359.701C168 361.493 174.997 381.429 189.76 383.264C200.459 384.587 212.416 385.675 222.539 388.928C233.205 392.363 243.915 398.197 255.648 397.76C267.797 397.312 278.133 388.16 288.565 387.029C298.304 385.984 310.603 389.984 321.557 390.016C330.123 390.037 339.157 389.952 347.957 389.824C354.656 390.357 361.259 389.899 367.765 388.448C375.403 388.064 381.899 384.821 387.253 378.72C395.499 377.547 404.277 385.003 413.675 382.101C419.04 370.112 424.224 368.704 435.552 373.621C441.675 375.211 449.504 376.32 456.213 375.584C469.237 374.155 482.699 368.8 495.893 370.037C505.525 370.944 511.221 379.115 518.816 383.541C538.325 394.891 563.392 374.784 583.563 370.4" stroke="#191919" stroke-width="0.2" stroke-linecap="round" stroke-linejoin="round"/>
<path d="M60.1709 373.515C81.0242 377.344 105.12 385.28 125.184 377.013C134.923 373.003 145.622 366.869 156.555 368.48C165.408 369.781 173.163 378.325 176.939 387.893C181.206 386.709 185.526 385.632 189.835 384.523C212.971 385.067 231.851 403.851 255.712 398.976C260.096 397.419 264.47 396.64 268.854 394.859C275.435 393.067 282.336 389.013 288.608 389.493C299.179 390.293 310.571 394.037 321.558 394.379C330.07 394.635 339.254 394.176 347.915 394.165C354.422 394.165 361.099 394.016 367.67 393.451C375.808 394.155 382.251 390.549 386.998 382.635C396.928 380.757 402.102 387.296 413.408 381.685C420.235 369.717 425.312 368.928 436.171 376.16C442.07 379.413 449.707 380.789 457.739 379.808C470.795 377.152 483.979 371.243 497.131 372.736C506.358 373.792 513.814 382.507 520.32 386.507C537.899 397.301 564.512 378.891 582.934 373.515" stroke="#191919" stroke-width="0.2" stroke-linecap="round" stroke-linejoin="round"/>
<path d="M60.8213 376.629C81.408 380.629 104.149 387.776 124.203 381.515C135.744 377.909 149.355 370.368 161.344 377.632C165.771 382.571 170.123 387.349 174.336 391.765C178.432 389.728 182.56 387.787 186.677 385.803C200.395 385.44 212.533 393.024 225.099 396.331C232.597 398.304 243.797 403.061 251.221 401.216C263.029 398.283 277.707 391.168 289.461 391.957C299.499 392.629 310.88 397.717 321.557 398.624C331.915 399.509 343.093 398.816 353.653 398.389C364.395 397.952 375.755 392.128 385.259 387.392C388.907 382.965 393.195 382.101 398.133 384.811C405.717 388.16 412.277 385.728 417.408 377.397C433.387 376.693 449.504 388.565 464.576 384.629C475.765 381.707 487.904 373.483 499.861 376.075C507.989 377.835 516.16 385.909 522.72 389.643C540.811 399.936 564.704 381.771 582.293 376.629" stroke="#191919" stroke-width="0.2" stroke-linecap="round" stroke-linejoin="round"/>
<path d="M61.5039 379.733C82.1546 383.883 104.096 390.635 124.725 386.059C136.672 383.413 150.539 379.584 161.685 387.051C165.493 389.6 170.208 391.808 174.464 394.197C178.581 391.189 182.699 388.171 186.816 385.163C194.048 386.923 200.587 390.016 206.432 394.464C211.712 399.275 218.059 401.12 225.472 400C233.749 401.344 243.392 404.715 251.179 402.741C274.667 396.779 296.459 398.315 321.547 402.485C331.797 404.181 343.179 403.307 353.589 402.699C365.749 401.995 374.88 393.333 385.376 388.096C389.163 384.395 393.461 383.467 398.283 385.301C405.557 387.488 412.149 385.397 417.589 378.699C433.952 381.024 450.283 395.541 466.165 390.4C476.96 386.912 488.32 377.397 500.459 379.36C509.141 380.768 517.088 387.957 523.787 391.744C531.115 395.872 534.283 397.813 544.181 392.299C555.733 385.856 568.555 381.835 581.6 379.733" stroke="#191919" stroke-width="0.2" stroke-linecap="round" stroke-linejoin="round"/>
<path d="M62.2295 382.816C82.9335 387.125 103.904 393.451 125.28 390.891C131.285 389.12 137.366 387.712 143.52 386.656C151.168 383.648 157.366 386.581 162.102 395.477C174.72 398.795 178.069 384.555 186.955 384.309C192.939 390.037 199.499 394.965 206.624 399.093C211.979 403.84 218.347 405.493 225.739 404.043C234.24 405.045 243.115 406.827 251.254 404.395C275.126 397.28 297.206 399.36 321.536 405.952C331.371 408.608 343.552 408.277 353.515 406.965C366.07 405.312 373.984 393.92 384.982 389.184C394.358 385.141 407.915 382.133 418.016 383.744C433.195 386.176 451.872 403.339 467.382 396.064C477.59 391.275 488.832 381.803 500.662 382.699C509.814 383.392 518.08 390.155 524.747 393.728C532.918 398.123 533.942 398.613 543.648 393.845C555.467 388.043 567.296 385.376 580.854 382.805" stroke="#191919" stroke-width="0.2" stroke-linecap="round" stroke-linejoin="round"/>
<path d="M62.9756 385.888C83.5943 390.336 104.202 396.917 125.546 395.755C131.573 393.44 137.76 392.48 144.106 392.885C151.584 391.701 157.749 394.677 162.602 401.803C172.544 398.112 177.493 388.992 187.605 385.653C191.829 394.485 198.229 400.576 206.794 403.915C212.469 407.851 218.848 409.28 225.93 408.181C234.421 408.981 243.136 409.227 251.338 406.453C275.872 398.187 297.344 400.213 321.546 409.131C330.976 412.608 343.904 413.365 353.461 411.243C365.888 408.48 373.525 396.053 384.725 391.317C395.242 386.88 408.437 387.392 419.52 391.755C426.176 396.565 434.346 401.579 442.346 406.581C452.352 408.779 461.056 407.083 468.426 401.813C478.229 395.168 488.736 386.485 500.629 386.144C510.528 385.856 518.997 392.299 525.632 395.584C534.272 399.872 533.92 399.04 543.264 395.424C555.093 390.848 567.242 388.331 580.117 385.877" stroke="#191919" stroke-width="0.2" stroke-linecap="round" stroke-linejoin="round"/>
<path d="M63.7764 388.949C84.4697 393.781 104.416 398.933 125.664 400.32C131.968 397.899 138.294 397.461 144.63 399.019C151.222 399.445 157.323 401.579 162.934 405.408C171.051 400.715 177.6 390.229 188.064 390.891C191.36 401.141 197.664 407.189 206.955 409.045C213.024 411.723 219.414 412.811 226.144 412.309C234.603 412.971 243.318 411.883 251.52 408.821C276.246 399.563 297.686 401.685 321.547 412.064C330.678 416.043 344.086 418.176 353.419 415.509C365.451 412.064 373.643 400.192 384.896 395.051C397.27 389.397 411.264 394.72 422.251 401.984C436.054 411.104 454.251 418.539 469.248 407.883C478.859 401.056 488.608 392.117 500.331 389.995C510.422 388.171 519.595 394.4 526.272 397.355C535.019 401.216 534.059 400.213 542.955 397.195C554.571 393.248 566.806 391.147 579.318 388.981" stroke="#191919" stroke-width="0.2" stroke-linecap="round" stroke-linejoin="round"/>
<path d="M64.5977 391.989C85.0137 396.768 105.398 401.152 126.059 404.043C138.166 405.739 151.488 410.229 163.222 407.424C170.966 405.568 177.003 390.315 188.48 398.581C191.755 409.152 198.016 414.4 207.275 414.325C213.59 415.413 220.075 416.096 226.368 416.363C234.656 416.704 243.488 414.539 251.691 411.232C276.31 401.301 297.782 403.84 321.558 414.72C331.275 419.168 344.182 422.955 353.43 419.573C363.936 415.744 374.432 405.845 384.64 400.459C398.56 393.12 413.323 405.813 425.792 413.131C438.731 420.725 456.864 424.651 469.867 414.059C478.859 406.731 488.768 398.123 500 394.304C510.112 390.859 519.979 396.373 526.784 398.912C535.264 402.091 534.678 401.184 542.838 399.147C554.475 396.245 566.518 394.123 578.507 391.968" stroke="#191919" stroke-width="0.2" stroke-linecap="round" stroke-linejoin="round"/>
<path d="M65.4609 395.019C85.2903 399.595 105.28 403.744 125.152 407.328C136.992 409.461 149.184 412.629 161.354 410.656C165.194 407.296 169.045 403.936 172.885 400.576C181.408 400.203 187.904 403.584 191.808 410.56C195.744 417.589 201.888 420.576 210.4 418.976C214.496 419.349 218.645 419.872 222.688 420.096C232.682 420.661 244.48 416.981 253.504 412.864C277.184 402.048 298.73 406.336 321.546 417.259C331.04 421.803 342.485 425.675 352.65 423.061C363.104 420.373 374.016 412.544 382.986 406.955C396.768 398.379 412.394 412.736 424.672 419.488C432.81 428.064 441.834 431.2 452.981 426.08C458.09 425.387 463.296 424.971 467.136 422.347C478.698 414.464 489.322 404.149 501.984 398.059C510.805 393.813 521.696 398.773 528.213 400.789C535.765 403.115 535.584 402.72 543.594 401.504C554.986 399.787 566.346 397.365 577.632 395.008" stroke="#191919" stroke-width="0.2" stroke-linecap="round" stroke-linejoin="round"/>
<path d="M66.3574 398.037C86.0908 402.613 106.219 406.603 125.749 410.848C137.397 413.387 149.92 416.491 161.877 412.96C165.835 410.304 169.781 407.637 173.728 404.981C180.16 408.576 186.293 412.619 192.149 417.077C213.216 427.456 234.709 424.501 255.637 415.755C278.389 406.251 299.819 408.971 321.547 419.669C331.04 424.352 342.229 429.237 352.533 427.659C362.901 426.069 374.133 418.475 383.157 413.195C397.76 404.64 415.755 422.304 427.125 428.32C438.283 434.219 459.339 430.272 467.392 428.533C479.936 425.813 505.429 395.595 528.416 402.165C544.597 406.795 561.003 402.88 576.747 398.037" stroke="#191919" stroke-width="0.2" stroke-linecap="round" stroke-linejoin="round"/>
<path d="M67.2852 401.035C86.9118 405.781 106.858 409.984 126.368 414.347C138.037 416.96 150.72 419.445 162.549 415.787C173.237 412.491 183.189 418.613 192.426 422.976C211.968 432.192 235.178 424.789 253.845 417.312C262.837 413.707 275.05 413.76 284.533 414.453C296.885 415.371 310.026 416.789 321.546 422.016C331.189 426.4 342.101 432.437 352.373 431.925C362.997 431.403 373.771 423.392 383.691 420.299C399.253 415.445 414.859 434.101 428.523 436.779C442.048 439.435 457.803 430.016 467.403 432.48C477.941 435.189 502.304 398.485 528.544 403.68C544.373 406.816 560.277 405.696 575.808 401.024" stroke="#191919" stroke-width="0.2" stroke-linecap="round" stroke-linejoin="round"/>
<path d="M68.2559 404.021C87.7759 408.971 107.915 414.368 127.019 417.835C139.157 420.032 150.709 419.819 163.339 419.232C173.312 418.773 184.107 424.597 192.917 428.299C212.363 436.469 235.733 425.909 254.101 419.829C263.317 416.779 275.349 419.232 284.725 419.499C296.608 419.84 310.208 419.285 321.547 424.331C330.912 428.491 342.251 434.848 352.267 435.424C362.805 436.032 374.112 428.981 384.32 428.309C399.659 427.296 418.464 447.019 428.971 443.413C437.472 440.501 455.573 422.048 467.392 433.824C472.736 439.157 488.139 422.859 495.296 417.824C505.109 410.912 515.477 404.352 527.733 404.811C543.232 405.387 559.307 408.523 574.848 404.011" stroke="#191919" stroke-width="0.2" stroke-linecap="round" stroke-linejoin="round"/>
<path d="M69.248 406.987C110.325 417.163 152.651 423.968 193.483 432.544C213.856 436.821 235.499 427.136 254.261 422.891C264.053 420.672 275.189 425.483 284.928 424.512C296.608 423.349 309.856 421.963 321.547 426.677C331.563 430.72 341.931 436.192 352.181 438.571C362.443 440.96 374.859 437.205 384.811 437.568C395.637 437.963 418.603 455.296 428.789 445.621C437.387 437.461 456.587 412.832 467.36 433.643C473.941 446.347 513.451 408.235 527.872 407.669C542.773 407.093 558.752 411.413 573.845 406.976" stroke="#191919" stroke-width="0.2" stroke-linecap="round" stroke-linejoin="round"/>
<path d="M70.2822 409.941C111.029 421.056 152.48 429.269 193.898 436.384C214.442 439.915 235.434 428.171 254.421 426.059C264.437 424.949 274.976 431.499 285.109 429.568C296.725 427.349 309.568 424.981 321.557 429.099C331.936 432.661 342.218 437.557 352.138 441.664C362.026 445.76 374.709 446.368 385.045 447.765C397.205 449.408 418.624 459.136 428.234 446.592C434.613 438.272 457.589 415.872 467.285 433.109C478.24 452.576 511.978 412.704 527.818 410.88C542.581 409.184 557.45 412.32 572.81 409.952" stroke="#191919" stroke-width="0.2" stroke-linecap="round" stroke-linejoin="round"/>
<path d="M71.3496 412.885C111.84 424.608 152.63 434.475 194.336 440.192C215.136 443.04 235.488 427.829 254.678 429.781C264.043 430.731 275.435 436.715 285.259 434.603C296.715 432.139 309.547 428.043 321.547 431.605C344.342 438.357 364.288 453.856 387.392 459.797C408.47 465.216 414.699 458.88 430.24 444.533C444.203 431.648 461.984 424.939 471.723 437.792C481.984 451.349 512.395 418.411 524.096 414.816C539.04 410.219 556.011 417.131 571.744 412.885" stroke="#191919" stroke-width="0.2" stroke-linecap="round" stroke-linejoin="round"/>
<path d="M72.4482 415.797C112.342 427.979 154.39 441.717 194.784 443.979C214.283 445.077 234.976 430.336 254.891 434.848C277.014 439.861 300.758 426.315 321.547 434.251C343.552 442.656 364.651 459.968 387.126 467.115C409.472 474.208 412.864 460.939 430.176 446.581C438.091 440.021 462.55 427.339 471.691 437.408C482.166 448.949 484.256 448.949 497.771 438.272C506.699 431.221 514.198 423.445 523.755 419.019C537.216 412.779 555.488 422.048 570.646 415.787" stroke="#191919" stroke-width="0.2" stroke-linecap="round" stroke-linejoin="round"/>
<path d="M73.5781 418.709C113.525 431.2 158.442 446.496 195.231 447.68C203.754 447.957 216.287 446.315 225.055 441.899C233.343 437.728 246.357 436.459 255.082 440.139C277.386 449.536 299.615 430.539 321.535 437.109C345.461 444.277 363.103 466.581 386.751 474.197C412.714 482.56 412.906 466.24 429.909 450.699C437.951 443.349 463.69 432.277 471.423 437.6C481.247 444.363 484.373 452.331 497.823 443.52C506.751 437.675 514.559 428.416 523.285 423.552C536.661 416.096 554.421 424.725 569.503 418.709" stroke="#191919" stroke-width="0.2" stroke-linecap="round" stroke-linejoin="round"/>
<path d="M74.752 421.6C111.104 433.813 161.653 457.109 198.4 450.037C207.648 448.256 219.179 446.88 227.648 443.125C235.499 439.648 248.832 443.296 256.864 446.965C277.227 456.277 300.448 435.765 321.547 440.181C346.485 445.397 362.944 471.616 386.624 480C409.536 488.107 415.68 476.555 429.301 459.104C438.784 446.965 461.909 436.043 470.688 438.741C477.899 440.96 485.685 454.379 497.429 448.576C505.717 444.48 515.371 432.981 522.56 428.309C536.032 419.573 553.216 427.445 568.384 421.547" stroke="#191919" stroke-width="0.2" stroke-linecap="round" stroke-linejoin="round"/>
<path d="M75.9463 424.48C96.4583 431.627 116.949 438.933 137.898 444.693C155.317 449.483 181.28 458.336 198.645 451.883C208.149 448.352 219.242 449.184 228.053 445.632C236.704 442.144 248.266 447.84 257.098 451.136C277.738 458.848 300.501 440.405 321.536 443.541C347.072 447.349 363.114 476.619 386.517 485.781C405.504 493.216 416.8 486.261 428.416 470.293C440.373 453.845 456.213 441.483 469.568 442.411C476.81 442.912 487.925 456.576 496.874 453.376C505.002 450.464 515.765 438.517 521.93 433.536C535.029 422.955 552.48 429.632 567.317 424.341" stroke="#191919" stroke-width="0.2" stroke-linecap="round" stroke-linejoin="round"/>
<path d="M77.2266 427.435C105.067 437.483 171.221 467.979 198.859 453.355C207.552 448.757 218.891 451.872 228.448 449.248C237.835 446.677 248.299 452.928 257.355 455.179C268.779 458.016 281.291 452.213 292.277 448.299C300.843 445.248 313.504 445.973 321.536 447.285C346.187 451.317 361.856 477.344 382.827 488.032C396.811 495.157 413.952 494.539 425.077 483.136C433.163 474.848 435.851 462.411 445.579 455.424C451.317 451.307 462.048 449.76 467.68 447.275C477.899 442.752 489.632 460.437 494.464 461.067C501.013 461.92 515.221 443.52 523.755 436.437C535.477 426.699 552.011 432.683 566.229 427.147" stroke="#191919" stroke-width="0.2" stroke-linecap="round" stroke-linejoin="round"/>
<path d="M78.5391 430.379C106.358 440.779 171.851 471.477 199.062 454.613C207.062 449.653 219.542 454.197 228.832 453.237C239.307 452.149 246.08 458.069 257.643 459.189C269.718 460.363 281.184 454.144 292.47 451.029C300.8 448.725 313.75 450.112 321.558 451.403C346.208 455.467 361.846 481.237 382.624 492.224C394.411 498.453 412.918 499.637 424 491.264C433.59 484.021 435.616 470.795 444.107 462.603C450.059 456.853 459.456 454.933 466.016 451.979C481.387 445.067 482.635 461.92 496.043 462.56C504.342 462.955 517.824 446.443 522.752 442.101C535.136 431.211 550.646 435.296 565.163 429.899" stroke="#191919" stroke-width="0.2" stroke-linecap="round" stroke-linejoin="round"/>
<path d="M79.8828 433.301C110.219 445.013 169.216 475.296 199.296 455.936C207.445 450.699 220.597 456.32 229.269 457.472C239.296 458.805 246.624 463.275 257.931 463.211C269.835 463.147 281.099 457.099 292.587 454.805C301.269 453.067 313.099 454.08 321.547 455.819C347.52 461.163 363.168 487.947 385.846 498.517C395.691 503.104 414.88 503.861 425.035 497.739C442.688 487.083 444.533 459.723 464.341 456.949C474.133 455.573 483.008 463.691 493.558 464.608C505.11 465.611 510.805 459.221 519.275 450.603C531.445 438.208 547.968 437.963 564.053 432.651" stroke="#191919" stroke-width="0.2" stroke-linecap="round" stroke-linejoin="round"/>
<path d="M81.2695 436.203C115.264 449.717 167.35 471.371 199.584 457.611C216.075 450.571 236.502 472.384 258.23 467.509C269.6 464.949 281.195 460.928 292.726 458.848C301.28 457.301 313.238 457.995 321.558 460.565C345.12 467.851 363.776 490.315 385.451 501.483C395.435 506.624 412.63 507.179 423.819 502.229C439.606 495.243 444.15 461.045 462.166 463.04C471.84 464.117 482.571 469.333 492.043 469.621C504.406 469.995 509.259 465.653 518.144 456.309C530.24 443.584 546.23 440.8 562.891 435.381" stroke="#191919" stroke-width="0.2" stroke-linecap="round" stroke-linejoin="round"/>
<path d="M82.6777 439.083C102.208 447.093 121.75 455.243 141.91 461.557C165.59 468.971 177.867 467.979 199.926 459.755C219.147 452.587 236.63 479.243 258.518 472.021C269.483 468.405 281.227 464.267 292.843 462.837C301.579 461.76 312.886 462.528 321.536 465.547C344.299 473.504 363.627 492.821 384.982 503.819C395.776 509.376 410.294 509.909 422.39 506.24C441.462 500.459 445.739 469.984 459.83 469.728C479.968 469.355 499.158 480.832 516.843 461.867C528.96 448.875 544.427 443.712 561.654 438.101" stroke="#191919" stroke-width="0.2" stroke-linecap="round" stroke-linejoin="round"/>
<path d="M84.1279 441.952C103.392 450.112 122.731 458.283 142.677 464.661C150.709 467.232 162.048 472.171 170.347 472.128C181.205 472.064 190.485 464.256 200.395 462.677C219.029 459.701 240.395 484.363 258.859 475.595C268.843 470.848 281.717 466.912 292.992 466.837C302.475 466.773 312.651 467.392 321.547 470.763C343.541 479.083 363.413 494.709 384.501 505.632C395.275 511.221 408.747 512.928 420.832 510.208C439.776 505.941 448.501 481.099 457.408 478.112C470.731 473.643 497.504 486.208 515.445 467.211C527.701 454.24 542.677 446.709 560.363 440.843" stroke="#191919" stroke-width="0.2" stroke-linecap="round" stroke-linejoin="round"/>
<path d="M85.6104 444.789C104.778 453.045 123.968 461.397 143.808 467.947C150.965 470.304 160.33 474.549 167.904 474.773C180.234 475.147 188.949 466.24 201.002 466.453C218.101 466.752 244.288 485.493 259.392 477.397C268.746 472.384 282.453 470.293 293.13 470.795C302.4 471.232 312.458 472.469 321.536 476.096C342.794 484.587 363.317 496.96 383.957 507.168C394.922 512.587 406.816 515.019 419.168 513.696C437.109 511.765 445.077 494.261 454.816 489.227C469.834 481.451 495.04 491.755 513.92 472.309C526.432 459.413 540.949 449.824 558.997 443.616" stroke="#191919" stroke-width="0.2" stroke-linecap="round" stroke-linejoin="round"/>
<path d="M87.125 447.616C106.133 456.075 125.184 464.587 144.896 471.307C151.85 473.675 161.226 477.877 168.693 477.696C181.344 477.387 189.205 468.917 201.653 470.443C210.826 471.563 220.053 470.997 230.037 473.749C240.597 476.672 248.234 484.032 259.85 479.061C269.365 474.987 282.73 474.101 293.28 474.731C302.57 475.275 312.245 477.824 321.536 481.568C342.368 489.973 363.093 499.061 383.424 508.629C408.138 520.267 433.354 514.229 452.266 500.469C462.442 493.067 470.133 498.997 484.17 495.616C494.378 493.152 505.6 484.277 512.288 477.045C525.205 463.093 539.274 452.981 557.536 446.379" stroke="#191919" stroke-width="0.2" stroke-linecap="round" stroke-linejoin="round"/>
<path d="M88.6719 450.421C107.509 459.072 126.4 467.733 145.973 474.624C153.045 477.109 161.696 480.704 169.376 480.181C182.645 479.275 189.067 472.725 202.347 474.485C210.912 475.616 221.259 473.877 230.773 476.149C240.789 478.539 249.472 484.608 259.947 481.077C278.88 474.688 302.656 479.797 321.547 487.147C341.685 494.976 363.221 501.365 382.891 510.112C401.365 518.325 433.195 523.68 449.845 510.208C465.909 497.205 492.149 499.84 510.592 481.451C524.128 467.947 537.717 456.288 556.021 449.184" stroke="#191919" stroke-width="0.2" stroke-linecap="round" stroke-linejoin="round"/>
<path d="M90.251 453.205C108.886 462.027 127.606 470.805 147.008 477.856C167.638 485.344 183.648 476.267 203.03 478.613C211.84 479.68 221.718 477.397 231.179 479.232C241.27 481.184 249.76 486.912 260.235 483.765C279.776 477.888 303.008 485.44 321.558 492.747C340.758 500.309 363.275 503.84 382.326 511.669C403.755 520.48 426.07 528.384 447.606 517.621C467.926 507.467 490.88 502.464 508.8 485.472C522.742 472.256 536.16 459.531 554.4 451.989" stroke="#191919" stroke-width="0.2" stroke-linecap="round" stroke-linejoin="round"/>
<path d="M91.8613 455.968C109.867 465.291 128.181 474.187 147.136 481.419C167.36 489.131 184.512 481.003 203.744 483.2C212.352 484.181 222.411 482.229 231.755 483.808C241.696 485.493 250.165 490.304 260.501 488.096C281.013 483.712 302.528 491.179 321.429 498.891C339.061 506.08 359.243 506.389 377.44 512.16C398.933 518.987 418.699 532.565 442.187 524.245C464.768 516.245 488.661 506.251 506.453 490.048C521.227 476.587 534.731 464.224 552.693 454.816" stroke="#191919" stroke-width="0.2" stroke-linecap="round" stroke-linejoin="round"/>
<path d="M93.5039 458.709C111.296 468.192 129.461 477.195 148.288 484.48C167.851 492.043 186.379 484.971 204.427 487.211C219.765 489.109 244.384 496.928 260.875 493.003C281.728 488.043 301.952 496.533 321.504 504.288C339.008 511.232 358.901 509.685 377.067 514.283C398.101 519.616 417.888 535.509 440.725 528.448C463.264 521.483 486.891 508.896 504.555 493.227C519.445 480.011 533.195 467.296 550.933 457.664" stroke="#191919" stroke-width="0.2" stroke-linecap="round" stroke-linejoin="round"/>
<path d="M95.1787 461.429C112.736 471.072 130.784 480.203 149.461 487.499C168.469 494.923 187.115 488.181 205.109 491.104C221.963 493.845 243.157 502.891 261.216 497.973C281.653 492.405 301.813 502.123 321.525 509.643C338.987 516.309 358.485 513.259 376.64 516.672C397.653 520.619 417.643 538.304 439.424 532.469C482.411 520.96 508.405 479.584 549.088 460.523" stroke="#191919" stroke-width="0.2" stroke-linecap="round" stroke-linejoin="round"/>
<path d="M96.8857 464.128C114.208 473.685 132.022 483.808 150.699 490.432C169.334 497.035 188.822 491.605 205.835 494.816C223.627 498.176 241.675 508.245 261.59 503.008C282.358 497.536 301.782 507.808 321.536 514.869C338.998 521.12 358.155 517.024 376.203 519.328C397.195 522.016 415.872 540.149 438.347 536.213C483.072 528.384 507.904 481.963 547.19 463.36" stroke="#191919" stroke-width="0.2" stroke-linecap="round" stroke-linejoin="round"/>
<path d="M98.624 466.795C115.776 476.512 133.387 486.507 151.936 493.333C170.549 500.181 191.627 494.773 206.603 498.539C224.373 502.997 239.499 512.939 261.952 508.117C283.563 503.477 301.813 513.621 321.525 520.021C338.976 525.696 357.899 521.088 375.787 522.357C396.875 523.861 416.011 543.136 437.557 539.637C460.309 535.936 480.267 516.096 497.867 501.781C513.323 489.205 527.68 476.085 545.227 466.208" stroke="#191919" stroke-width="0.2" stroke-linecap="round" stroke-linejoin="round"/>
<path d="M100.384 469.451C117.386 479.349 134.784 489.152 153.173 496.256C171.808 503.456 193.162 498.763 207.552 503.275C224.853 508.704 239.872 517.771 262.325 513.205C283.04 508.992 302.549 519.563 321.514 525.003C338.89 529.984 357.6 525.333 375.381 525.568C396.757 525.845 415.424 544.117 436.704 542.325C459.093 540.448 478.282 518.443 495.36 504.736C511.029 492.16 525.909 479.2 543.275 468.885" stroke="#191919" stroke-width="0.2" stroke-linecap="round" stroke-linejoin="round"/>
<path d="M102.187 472.085C119.04 482.165 136.224 491.765 154.443 499.211C173.024 506.805 194.037 503.221 208.661 508.715C225.675 515.115 240.917 522.08 262.72 518.272C283.157 514.709 302.592 525.259 321.525 529.803C338.859 533.963 357.195 529.856 375.019 528.981C396.533 527.925 414.997 545.483 435.797 544.384C457.632 543.232 476.192 520.981 492.843 507.744C508.725 495.115 524.117 482.347 541.365 471.595" stroke="#191919" stroke-width="0.2" stroke-linecap="round" stroke-linejoin="round"/>
<path d="M104.021 474.688C120.693 484.939 137.685 494.453 155.712 502.165C174.069 510.016 194.667 507.936 209.813 514.389C226.389 521.461 242.581 526.101 263.115 523.253C283.285 520.448 302.603 530.677 321.525 534.347C338.805 537.696 356.971 534.197 374.656 532.544C395.883 530.549 414.56 546.624 434.816 545.931C455.99 545.205 474.358 523.371 490.315 510.72C506.272 498.08 522.262 485.419 539.446 474.272" stroke="#191919" stroke-width="0.2" stroke-linecap="round" stroke-linejoin="round"/>
<path d="M105.877 477.28C122.357 487.701 139.136 497.237 156.992 505.152C175.05 513.163 195.125 512.875 210.986 520.021C227.178 527.317 245.205 529.109 263.52 528.245C282.677 527.339 302.517 535.413 321.525 538.667C338.368 541.547 356.885 538.176 374.293 536.128C383.626 535.029 391.946 533.995 400.885 536.256C411.861 539.029 422.41 547.083 433.781 547.125C454.293 547.211 472.298 525.92 487.818 513.685C503.904 501.003 520.362 488.459 537.504 476.949" stroke="#191919" stroke-width="0.2" stroke-linecap="round" stroke-linejoin="round"/>
<path d="M107.766 479.84C124.022 490.421 140.608 500.053 158.294 508.107C176.086 516.213 195.35 517.909 212.139 525.259C228.235 532.32 246.571 533.376 263.947 533.088C282.923 532.779 302.187 540.48 321.536 542.624C338.763 544.533 356.662 541.941 373.92 539.616C382.742 538.421 391.478 536.459 400.139 538.112C411.115 540.203 421.504 547.755 432.694 548.043C452.939 548.576 470.219 528.459 485.387 516.576C501.611 503.861 518.443 491.413 535.563 479.584" stroke="#191919" stroke-width="0.2" stroke-linecap="round" stroke-linejoin="round"/>
<path d="M109.686 482.379C143.062 504.736 178.272 514.816 213.195 530.08C228.427 536.736 247.808 537.995 264.342 537.899C283.435 537.781 302.731 545.365 321.515 546.464C338.614 547.467 356.096 545.451 373.515 543.125C381.878 542.005 391.19 539.168 399.403 540.288C410.166 541.76 420.544 548.128 431.574 548.853C451.339 550.165 468.683 530.656 483.008 519.424C499.264 506.677 516.491 494.315 533.568 482.208" stroke="#191919" stroke-width="0.2" stroke-linecap="round" stroke-linejoin="round"/>
<path d="M111.638 484.896C144.32 507.435 178.368 520.843 214.198 534.336C229.814 540.213 248.086 542.08 264.779 542.549C283.606 543.083 302.806 549.557 321.526 550.165C338.582 550.731 355.936 548.928 373.142 546.603C381.291 545.504 390.667 542.229 398.72 542.795C409.376 543.531 419.67 548.832 430.454 549.621C449.931 551.061 466.646 533.184 480.747 522.219C497.131 509.472 514.56 497.173 531.584 484.8" stroke="#191919" stroke-width="0.2" stroke-linecap="round" stroke-linejoin="round"/>
<path d="M113.621 487.381C173.376 531.264 248.842 553.013 321.525 553.707C338.581 553.867 355.733 552.352 372.746 550.048C380.906 548.939 389.973 545.653 398.069 545.664C408.522 545.664 419.189 550.091 429.333 550.421C448.266 551.029 464.053 536.288 478.592 524.939C494.933 512.192 512.64 499.957 529.578 487.349" stroke="#191919" stroke-width="0.2" stroke-linecap="round" stroke-linejoin="round"/>
<path d="M115.627 489.845C176.224 534.197 248.246 556.704 321.526 557.173C338.315 557.28 355.456 555.723 372.352 553.451C390.827 550.976 409.888 551.264 428.214 551.285C447.158 551.317 462.272 538.624 476.555 527.563C492.96 514.848 510.731 502.656 527.563 489.845" stroke="#191919" stroke-width="0.2" stroke-linecap="round" stroke-linejoin="round"/>
<path d="M117.664 492.288C177.248 537.163 248.789 560.832 321.525 560.587C356.117 560.469 391.797 553.483 427.051 552.32C445.728 551.701 460.544 540.971 474.581 530.144C491.019 517.472 508.8 505.312 525.493 492.32" stroke="#191919" stroke-width="0.2" stroke-linecap="round" stroke-linejoin="round"/>
<path d="M119.723 494.709C178.336 540.181 249.397 564.384 321.515 564.032C354.923 563.872 389.845 555.051 423.317 553.44C461.685 551.595 495.285 518.08 523.413 494.752" stroke="#191919" stroke-width="0.2" stroke-linecap="round" stroke-linejoin="round"/>
<path d="M121.813 497.099C179.403 543.115 249.867 567.904 321.504 567.413C354.656 567.179 389.056 558.101 422.24 554.987C460.342 551.424 493.131 520.875 521.312 497.152" stroke="#191919" stroke-width="0.2" stroke-linecap="round" stroke-linejoin="round"/>
<path d="M123.936 499.467C178.272 545.824 251.072 572.139 321.504 570.763C354.88 570.112 387.893 561.963 421.184 556.789C459.946 550.773 490.378 524.149 519.178 499.509" stroke="#191919" stroke-width="0.2" stroke-linecap="round" stroke-linejoin="round"/>
<path d="M126.08 501.813C179.349 548.64 251.499 575.435 321.504 574.091C354.72 573.451 388.128 565.909 420.149 558.869C457.867 550.581 487.563 527.04 517.035 501.856" stroke="#191919" stroke-width="0.2" stroke-linecap="round" stroke-linejoin="round"/>
<path d="M128.256 504.128C180.469 551.36 251.936 578.645 321.504 577.344C354.571 576.725 387.477 569.365 419.093 561.184C456.053 551.627 485.845 529.429 514.848 504.16" stroke="#191919" stroke-width="0.2" stroke-linecap="round" stroke-linejoin="round"/>
<path d="M130.464 506.411C181.579 554.059 252.352 581.835 321.504 580.597C354.421 580.011 386.912 572.981 418.101 563.787C454.293 553.109 484.171 531.84 512.651 506.432" stroke="#191919" stroke-width="0.2" stroke-linecap="round" stroke-linejoin="round"/>
<path d="M132.693 508.683C182.709 556.736 252.213 584.213 321.504 583.829C391.392 583.445 459.691 557.312 510.411 508.683" stroke="#191919" stroke-width="0.2" stroke-linecap="round" stroke-linejoin="round"/>
</g>
</g>
<defs>
<clipPath id="clip0_1067_76884">
<rect width="536.48" height="528.896" fill="white" transform="translate(52.2666 55.4667)"/>
</clipPath>
</defs>
</svg>
