<svg width="580" height="400" viewBox="0 0 580 400" fill="none" xmlns="http://www.w3.org/2000/svg">
<g clip-path="url(#clip0_1067_77235)">
<path d="M126.091 25.7538C140.194 19.3201 156.585 14.8525 169.589 6.34557C185.464 -4.04963 193.183 -23.1367 209.175 -33.7558C234.072 -50.283 265.2 -76.3391 295.11 -60.0942C309.175 -52.4535 327.318 -43.1582 338.229 -31.7118C351.671 -17.6179 362.844 -15.0386 380.51 -8.35176C395.003 -2.8719 413.487 3.7565 425.235 14.142C434.959 22.7462 436.039 35.3314 444.419 45.0453C452.625 54.545 466.495 58.6428 476.929 65.0376" stroke="white" stroke-width="0.2" stroke-linecap="round" stroke-linejoin="round"/>
<path d="M123.424 27.0192C137.81 20.6634 154.113 16.2639 167.681 8.28256C183.994 -1.30477 192.92 -18.9902 208.445 -29.8526C232.184 -46.4577 267.02 -75.0348 295.13 -59.1694C310.829 -50.3024 326.354 -39.3621 338.608 -26.2902C350.863 -13.2184 365.19 -11.5345 381.425 -5.5485C396.142 -0.117304 415.307 6.37483 426.685 17.4611C435.504 26.0556 437.226 40.1398 446.132 48.491C454.951 56.7546 469.006 60.0639 478.973 67.0914" stroke="white" stroke-width="0.2" stroke-linecap="round" stroke-linejoin="round"/>
<path d="M120.835 28.4111C136.476 21.3642 153.996 16.8966 168.966 8.53568C184.793 -0.311923 194.828 -16.6931 209.554 -27.3901C221.663 -36.1793 235.241 -44.0438 248.41 -51.0713C266.504 -60.7267 275.858 -70.0707 295.12 -58.1766C312.134 -47.6743 323.901 -35.7607 338.015 -22.1146C351.184 -9.37366 367.663 -8.06939 384.521 -1.89846C396.97 2.66647 415.21 8.21448 425.225 17.1691C435.922 26.737 437.178 42.3298 448.702 51.2066C458.543 58.7889 471.605 60.1905 480.988 69.1841" stroke="white" stroke-width="0.2" stroke-linecap="round" stroke-linejoin="round"/>
<path d="M118.313 29.91C134.159 22.5224 151.3 17.9672 167.029 10.4142C183.79 2.3647 194.331 -12.7317 208.979 -23.779C220.971 -32.831 234.831 -40.0629 247.835 -47.5186C266.017 -57.943 275.03 -69.516 295.11 -57.2033C313.35 -46.0197 322.811 -30.4658 338.374 -17.0241C351.067 -6.06437 369.609 -4.71143 385.455 0.953368C398.059 5.4599 416.913 10.93 426.627 20.5563C437.567 31.409 437.567 45.1524 451.427 53.4939C462.007 59.8692 473.872 62.1858 482.973 71.2962" stroke="white" stroke-width="0.2" stroke-linecap="round" stroke-linejoin="round"/>
<path d="M115.881 31.5258C131.532 23.3887 148.867 18.9698 165.093 12.2051C182.788 4.82724 193.738 -8.76049 208.532 -20.1874C220.475 -29.4146 234.53 -36.0333 247.33 -43.9952C265.054 -55.023 274.573 -68.163 295.081 -56.1716C302.031 -52.103 311.239 -46.3701 316.864 -40.861C325.381 -32.5293 329.138 -19.6813 338.677 -12.3716C351.213 -2.77449 371.04 -1.49942 386.351 3.84418C399.977 8.59405 418.004 13.8987 427.98 24.8584C439.826 37.8816 438.054 47.7902 454.591 55.898C465.366 61.1832 475.907 65.0474 484.93 73.4473" stroke="white" stroke-width="0.2" stroke-linecap="round" stroke-linejoin="round"/>
<path d="M113.506 33.2389C128.816 24.5762 146.706 20.0405 163.126 13.9279C181.688 7.01726 192.979 -4.81848 208.124 -16.7029C220.037 -26.0469 234.258 -32.2762 246.882 -40.715C263.769 -52.0154 274.456 -65.8757 295.033 -55.023C302.887 -50.8766 311.677 -44.4137 317.409 -37.8339C325.391 -28.6749 328.613 -15.4765 338.949 -8.35168C351.817 0.515386 372.072 1.59579 387.227 6.74472C402.119 11.8061 419.483 16.8285 429.314 29.7154C440.848 44.841 440.322 50.2333 458.017 58.3995C468.588 63.2759 477.893 67.9284 486.867 75.608" stroke="white" stroke-width="0.2" stroke-linecap="round" stroke-linejoin="round"/>
<path d="M111.218 35.0493C125.974 26.2017 143.854 21.6465 160.001 16.0206C178.67 9.50902 190.895 0.612754 205.972 -11.7388C218.83 -22.28 234.062 -28.6943 247.582 -38.525C263.126 -49.8254 275.117 -62.3814 295.012 -53.9815C318.148 -44.2092 319.404 -16.9851 338.248 -4.27338C351.398 4.59369 375.225 5.26529 390.272 10.4045C407.452 16.2737 421.273 21.2572 431.756 36.6456C446.249 57.8934 469.074 62.1177 488.774 77.7883" stroke="white" stroke-width="0.2" stroke-linecap="round" stroke-linejoin="round"/>
<path d="M108.999 36.957C123.774 27.8563 141.684 23.1941 158.016 17.6947C177.191 11.2415 189.756 3.93181 205.417 -8.64366C218.596 -19.2335 233.819 -25.0833 247.232 -35.6342C261.384 -46.7594 275.858 -59.2862 294.896 -52.4631C318.324 -44.073 319.015 -13.5103 338.618 -1.47019C352.897 7.29954 375.274 8.06848 391.139 13.3537C410.158 19.6901 421.108 25.2186 433.061 41.6582C446.814 60.5798 472.15 65.7579 490.662 79.9881" stroke="white" stroke-width="0.2" stroke-linecap="round" stroke-linejoin="round"/>
<path d="M106.848 38.9425C121.691 29.6375 139.503 24.8584 156.001 19.3883C175.584 12.8864 188.471 6.80307 204.726 -5.83079C218.372 -16.4401 233.478 -21.6475 246.93 -32.8311C259.982 -43.674 276.587 -55.8115 294.779 -50.6431C317.827 -44.1023 318.781 -10.1621 339.085 1.01174C354.726 9.616 375.147 10.8229 392.034 16.3125C399.12 18.6193 406.946 20.6147 413.457 24.216C423.609 29.8224 427.142 37.9108 434.374 46.2523C448.838 62.9255 474.651 68.8628 492.512 82.2169" stroke="white" stroke-width="0.2" stroke-linecap="round" stroke-linejoin="round"/>
<path d="M104.774 41.0157C119.696 31.5647 137.371 26.5715 154.025 21.1208C173.901 14.6092 187.138 9.08067 203.938 -3.3196C218.148 -13.8024 233.021 -18.4841 246.677 -30.0571C258.619 -40.17 277.619 -52.3853 294.633 -48.4433C315.929 -43.5085 319.93 -6.9696 339.484 3.8344C355.398 12.6139 375.663 13.8695 392.881 19.3201C400.093 21.6075 407.997 23.5541 414.518 27.428C424.261 33.2193 427.814 42.7385 435.649 50.1845C451.359 65.1057 476.237 71.4616 494.137 84.2901" stroke="white" stroke-width="0.2" stroke-linecap="round" stroke-linejoin="round"/>
<path d="M102.77 43.1474C118.1 33.3459 136.077 28.0802 153.247 22.5127C173.862 15.8357 187.557 9.83019 205.223 -2.67715C218.694 -12.2158 232.719 -15.1261 245.353 -26.4459C256.206 -36.1793 279.001 -49.7281 294.565 -44.9685C314.927 -38.7391 319.326 -3.97168 340.788 7.07566C356.352 15.0862 374.719 16.6241 391.45 21.6367C398.955 23.8851 407.063 25.8221 413.837 29.8127C423.454 35.4775 427.59 45.1427 435.718 52.1897C452.079 66.3614 476.607 73.7879 495.013 85.7113" stroke="white" stroke-width="0.2" stroke-linecap="round" stroke-linejoin="round"/>
<path d="M100.833 45.3471C116.251 35.4386 134.043 29.9879 151.339 24.3815C172.013 17.6752 186.379 11.3096 204.483 -0.623427C218.324 -9.74356 232.077 -12.537 245.003 -23.6914C255.914 -33.1036 279.956 -46.0197 294.575 -40.3354C306.45 -35.7218 310.294 -20.3237 317.166 -10.5222C323.405 -1.61623 331.377 5.23604 341.022 10.2292C356.654 18.3274 375.342 19.7582 392.249 24.693C400.016 26.9608 407.949 28.9659 414.84 33.2875C423.736 38.855 428.768 48.2379 436.983 54.6424C453.296 67.3542 476.812 77.068 495.335 86.6748" stroke="white" stroke-width="0.2" stroke-linecap="round" stroke-linejoin="round"/>
<path d="M98.9541 47.6052C114.45 37.648 132.067 31.9735 149.451 26.3184C170.056 19.6122 185.211 12.3316 203.636 1.16751C217.72 -7.3589 231.191 -10.639 244.662 -20.898C256.634 -30.0181 280.666 -42.2529 294.594 -35.0308C306.187 -29.0253 309.029 -14.62 316.893 -5.2857C323.035 2.0143 332.875 9.26564 341.207 13.597C356.839 21.7146 376.052 22.941 393.027 27.7784C413.759 33.6768 421.741 45.3471 438.832 57.1731C453.539 67.3444 477.844 82.4311 495.305 87.3854" stroke="white" stroke-width="0.2" stroke-linecap="round" stroke-linejoin="round"/>
<path d="M97.1533 49.9023C112.697 39.9743 130.149 33.9883 147.562 28.2845C168.148 21.5393 183.897 13.1395 202.663 2.74426C209.515 -1.05174 216.64 -2.0056 223.823 -4.81853C231.872 -7.97213 237.206 -13.5591 244.331 -17.978C258.045 -26.4947 280.413 -38.5251 294.633 -29.3368C305.417 -22.3677 308.483 -8.20573 317.263 0.398535C323.59 6.6084 333.605 13.2271 341.382 17.1399C357.345 25.1699 376.607 26.0459 393.825 30.8736C414.178 36.5773 424.008 49.1917 441.295 60.2585C451.943 67.0719 481.795 88.3587 495.159 88.018" stroke="white" stroke-width="0.2" stroke-linecap="round" stroke-linejoin="round"/>
<path d="M95.4014 52.248C109.924 43.0695 125.935 37.064 142.121 31.5744C162.931 24.5275 179.809 15.602 199.305 5.82975C214.012 -1.54812 228.466 -5.47066 242.949 -13.9581C258.308 -22.9615 279.877 -35.5369 294.896 -22.358C311.793 -7.53412 321.283 11.3972 342.609 21.9092C357.569 29.2773 376.189 29.2481 392.122 33.3361C415.239 39.254 429.255 55.0901 449.49 66.9551C461.764 74.148 480.968 87.9499 495.071 88.7578" stroke="white" stroke-width="0.2" stroke-linecap="round" stroke-linejoin="round"/>
<path d="M93.708 54.623C109.398 44.88 126.577 38.3781 144.01 32.5478C164.654 25.6469 181.22 14.0837 200.823 5.60595C207.822 2.57889 215.423 2.60809 222.548 0.135824C230.335 -2.56031 236.447 -7.80658 243.718 -11.4468C261.783 -20.4794 278.038 -29.8428 294.468 -15.0482C309.866 -1.19764 322.636 15.1544 341.674 24.4886C358.961 32.9566 377.211 32.2266 395.325 37.1322C415.784 42.6705 429.43 56.5502 447.057 67.7144C457.783 74.5082 481.825 90.977 495.276 89.7993" stroke="white" stroke-width="0.2" stroke-linecap="round" stroke-linejoin="round"/>
<path d="M92.0732 57.0272C107.793 47.4398 124.914 40.6752 142.278 34.7573C162.874 27.7298 179.926 14.619 199.86 7.17301C214.723 1.61528 228.515 -0.934854 243.397 -7.68979C250.493 -10.9115 262.708 -17.1214 270.495 -18.1726C281.971 -19.7105 285.533 -16.3038 294.127 -8.03045C308.737 6.02448 323.474 19.3981 341.831 28.4014C359.876 37.2587 377.221 35.4386 396.055 40.2955C417.283 45.7754 431.689 60.5895 449.997 71.851C461.706 79.0537 481.728 91.7751 495.968 91.3177" stroke="white" stroke-width="0.2" stroke-linecap="round" stroke-linejoin="round"/>
<path d="M90.4375 59.5091C105.806 50.2624 122.567 43.3323 139.474 37.4825C159.7 30.4843 176.714 17.1301 196.356 10.0345C204.843 6.96853 213.905 7.90292 222.548 5.35279C229.945 3.17252 237.041 -1.26588 244.166 -4.21508C250.999 -7.04748 259.243 -11.7195 266.669 -12.7609C280.208 -14.6589 283.459 -11.4761 293.64 -1.15881C306.722 12.098 324.164 23.4276 340.857 31.6133C352.216 37.1808 358.085 39.7991 370.466 41.0839C380.364 42.1059 389.163 41.2299 399.15 44.0817C421.001 50.3111 435.134 66.371 454.542 77.1556C468.227 84.7573 482.983 89.6824 497.32 93.5173" stroke="white" stroke-width="0.2" stroke-linecap="round" stroke-linejoin="round"/>
<path d="M88.6758 62.5556C104.551 51.664 123.404 45.279 141.353 38.7771C159.359 32.2558 174.31 20.9164 191.781 13.8792C208.26 7.25084 227.415 6.50138 244.604 -0.019956C251.855 -2.77449 259.214 -8.20569 267.166 -8.64369C279.537 -9.33476 284.131 -1.34369 293.446 6.08284C309.301 18.7362 326.85 28.7907 344.828 38.2126C362.708 47.5858 378.573 42.0767 397.563 46.7098C421.828 52.6276 436.419 70.6927 458.007 81.633C465.57 85.4679 476.179 90.1107 484.238 92.7582C490.468 94.8022 492.171 91.3858 498.907 95.9702" stroke="white" stroke-width="0.2" stroke-linecap="round" stroke-linejoin="round"/>
<path d="M86.9629 66.1181C101.31 53.5037 122.392 47.7805 139.99 41.3175C157.734 34.8059 172.684 23.7489 190.019 16.8479C206.644 10.2293 226.519 10.8911 243.923 4.64233C251.768 1.81966 258.386 -3.96194 267.253 -3.59207C279.216 -3.09567 284.345 6.21912 293.436 12.9449C309.516 24.839 327.882 33.5893 345.071 43.8385C362.114 54.0001 379.45 45.4542 398.284 49.9705C422.958 55.8883 436.944 74.187 459.195 84.6211C466.952 88.2614 476.754 92.3786 484.969 94.8898C491.636 96.9338 492.58 90.8602 500.493 98.4133" stroke="white" stroke-width="0.2" stroke-linecap="round" stroke-linejoin="round"/>
<path d="M85.2793 70.0989C100.356 57.3191 119.112 51.1189 137.547 44.3932C155.934 37.6869 172.519 25.1991 191.032 19.6511C206.829 14.9207 224.32 16.186 240.107 10.8813C249.471 7.73746 257.258 -0.711069 267.877 1.0604C278.155 2.77346 285.192 14.6676 293.261 19.7289C309.633 29.9976 326.958 39.8283 344.079 48.9387C362.202 58.5844 376.89 48.7537 396.697 52.6957C422.539 57.8447 438.259 77.3503 461.395 88.0083C474.175 93.8969 490.935 93.1085 502.002 100.905" stroke="white" stroke-width="0.2" stroke-linecap="round" stroke-linejoin="round"/>
<path d="M83.751 74.2064C98.4288 59.986 117.36 54.0584 136.369 47.1867C154.58 40.6069 171.04 28.888 189.474 23.4276C205.826 18.5901 223.346 20.8483 239.309 16.2639C250.084 13.1687 255.525 4.32107 267.769 7.23134C276.033 9.19747 286.993 21.15 293.874 25.384C310.236 35.4483 327.367 46.5832 344.293 55.2069C361.209 63.8307 378.175 52.1993 397.34 55.9759C423.172 61.0761 438.794 81.0197 462.436 90.9575C476.618 96.924 490.283 95.902 503.501 103.397" stroke="white" stroke-width="0.2" stroke-linecap="round" stroke-linejoin="round"/>
<path d="M82.417 78.2165C97.0949 62.9449 115.578 57.0368 135.23 50.0677C153.285 43.6729 169.696 32.6937 187.994 27.4183C204.911 22.5321 222.314 26.3963 238.53 22.1331C249.499 19.252 254.736 9.9956 267.282 13.2368C273.833 14.9304 288.112 26.6007 294.117 29.8321C303.188 34.7085 311.939 40.7043 320.592 46.1452C328.067 50.8464 336.583 58.2437 344.497 61.5433C355.184 65.9915 359.126 62.4096 369.317 59.0613C379.78 55.6255 387.615 57.1244 397.962 59.2949C423.677 64.6872 439.134 84.9131 463.448 93.9553C478.35 99.4936 490.438 98.5787 504.97 105.927" stroke="white" stroke-width="0.2" stroke-linecap="round" stroke-linejoin="round"/>
<path d="M81.1133 82.3921C96.0734 66.1764 113.642 60.0347 134.15 53.0267C152.098 46.8947 168.528 36.8596 186.642 31.5452C196.239 28.7323 205.564 27.1165 215.414 27.6616C223.337 28.0996 229.839 30.3188 237.771 28.4695C248.225 26.0361 254.561 17.4221 266.29 19.9041C272.772 21.2765 288.2 32.3141 294.195 35.3996C303.16 40.0035 312.027 45.4152 320.709 50.058C329.411 54.7203 335.504 64.8429 344.711 67.5585C355.486 70.7316 360.002 64.6385 369.862 61.4265C379.761 58.2048 388.784 60.278 398.546 62.6237C423.921 68.7265 439.514 89.1179 464.412 96.9532C479.83 101.81 490.926 101.08 506.392 108.458" stroke="white" stroke-width="0.2" stroke-linecap="round" stroke-linejoin="round"/>
<path d="M79.8184 86.6748C95.1484 69.7388 111.666 62.9546 133.089 56.0148C150.998 50.2137 167.438 41.1714 185.406 35.7208C195.947 32.5185 204.191 31.0974 214.294 32.6061C222.49 33.8325 228.291 37.1029 237.051 35.1076C247.679 32.6937 253.315 25.1406 265.199 26.9218C272.645 28.0412 287.421 37.21 293.903 40.86C302.537 45.7364 312.795 49.9509 320.874 54.73C329.537 59.8594 334.832 70.9749 344.993 72.6977C355.554 74.4887 360.946 66.3321 370.465 63.5776C379.459 60.969 390.292 63.5192 399.179 65.9525C423.989 72.7658 439.923 93.4881 465.424 99.9608C481.182 103.961 491.772 103.572 507.822 111.008" stroke="white" stroke-width="0.2" stroke-linecap="round" stroke-linejoin="round"/>
<path d="M78.543 91.0062C94.2623 73.4862 109.904 66.0597 132.086 59.0517C149.869 53.4258 166.61 45.571 184.325 39.9354C195.839 36.2757 202.283 36.4119 213.447 39.293C221.857 41.4538 227.444 44.3349 236.457 42.2617C247.523 39.7115 252.04 32.6549 264.284 33.7547C273.91 34.621 285.386 42.2325 293.504 46.6417C302.079 51.3039 312.99 54.8858 321 59.9374C329.819 65.4951 334.179 76.2018 345.304 76.7955C355.427 77.3406 361.588 67.9771 371.02 65.8066C379.06 63.9573 391.732 66.8578 399.743 69.3398C424.008 76.8734 440.097 98.2575 466.348 103.027C472.685 104.175 477.522 102.384 483.265 103.144C491.84 104.273 501.485 110.152 509.194 113.607" stroke="white" stroke-width="0.2" stroke-linecap="round" stroke-linejoin="round"/>
<path d="M77.2393 95.4641C104.58 65.1058 145.538 56.9298 183.401 44.1791C196.268 39.8478 200.21 41.2689 212.416 45.9409C220.261 48.9387 227.434 53.2993 236.321 50.3014C248.03 46.3497 250.415 39.6823 263.642 40.3247C274.982 40.8698 283.635 47.8681 293.125 52.6277C302.216 57.1829 312.65 59.6746 321.137 65.2615C330.248 71.2573 333.839 80.4066 345.665 79.8031C355.311 79.3067 361.861 69.807 371.536 68.3373C379.313 67.1498 392.492 70.3034 400.308 72.727C424.388 80.1925 440.156 103.776 467.273 106.083C483.82 107.494 493.914 108.682 510.548 116.352" stroke="white" stroke-width="0.2" stroke-linecap="round" stroke-linejoin="round"/>
<path d="M75.915 100.039C92.8024 81.4383 105.329 72.688 129.03 65.5827C147.046 60.1807 166.737 51.0703 184.938 47.6052C197.436 45.2303 201.3 45.7461 213.077 53.3965C222.635 59.6161 226.752 60.5116 237.479 56.1705C247.806 51.9949 252.351 46.262 264.323 46.9141C276.227 47.5565 282.846 53.5425 292.822 58.5065C300.103 62.1273 308.756 62.7892 315.9 66.6436C325.536 71.8412 332.252 85.0688 344.808 82.908C357.569 80.7083 361.199 72.0651 375.05 71.9483C381.941 71.8899 397.212 74.3037 403.5 77.0875C418.042 83.5407 426.159 96.8072 441.772 102.161C449.782 104.905 460.927 108.838 469.132 109.305C473.843 109.568 477.045 107.202 481.815 107.679C491.528 108.643 503.481 114.882 511.871 119.583" stroke="white" stroke-width="0.2" stroke-linecap="round" stroke-linejoin="round"/>
<path d="M74.6309 104.584C91.7518 86.0422 104.074 75.6859 128.154 68.7071C145.84 63.5874 166.436 54.5257 184.287 51.7614C207.257 48.2087 216.017 72.8438 237.314 62.9937C247.719 58.1757 251.768 51.8977 264.411 52.6374C276.111 53.3285 282.36 59.9569 292.521 64.1227C300.23 67.2861 308.484 67.2179 316.037 71.3157C326.968 77.253 331.776 87.1323 345.276 83.7938C359.253 80.3385 360.557 74.8002 375.43 75.4913C384.569 75.9195 396.425 77.983 404.464 82.3922C419.726 90.7629 424.7 101.489 442.249 105.577C450.941 107.602 460.236 111.067 469.103 111.592C473.415 111.845 477.348 109.529 482.331 110.142C492.162 111.349 505.224 117.461 513.147 123.155" stroke="white" stroke-width="0.2" stroke-linecap="round" stroke-linejoin="round"/>
<path d="M73.375 109.042C90.6614 90.8309 103.071 78.6545 127.317 71.8509C144.925 66.9064 165.958 58.3216 183.732 55.9272C195.927 54.2822 201.845 55.8104 211.579 64.6774C222.149 74.3037 223.278 76.1044 236.837 69.0672C247.212 63.6846 251.476 57.1341 264.518 58.2048C275.497 59.11 282.301 65.9525 292.297 69.2521C300.541 71.9774 308.27 71.5005 316.192 75.6761C328.203 81.9833 332.155 87.833 345.811 84.0468C366.416 78.3236 386.623 74.7125 405.447 88.7577C426.315 104.312 442.161 111.738 468.558 113.432C473.035 113.724 477.425 111.592 483.168 112.916C493.699 115.339 506.284 119.603 514.412 126.893" stroke="white" stroke-width="0.2" stroke-linecap="round" stroke-linejoin="round"/>
<path d="M72.1484 113.344C89.6782 95.7755 103.276 81.341 127.687 74.6639C145.236 69.8654 163.175 65.3102 180.831 61.0859C194.214 57.8836 198.448 59.5286 209.223 67.4515C220.591 75.8124 221.701 84.1539 235.133 75.2479C245.596 68.308 250.531 61.8646 264.119 63.1104C274.436 64.0546 282.33 71.5103 292.015 74.3914C302.42 77.4866 311.092 78.1971 321.789 82.8691C332.155 87.3951 336.574 85.6626 347.602 83.5407C366.261 79.9394 387.771 80.1243 403.179 92.6803C422.986 108.818 441.12 116.167 467.176 115.271C484.598 114.668 500.6 119.398 515.657 130.621" stroke="white" stroke-width="0.2" stroke-linecap="round" stroke-linejoin="round"/>
<path d="M70.9609 117.442C89.1233 100.555 102.361 84.5237 126.918 77.8564C144.584 73.0579 162.629 69.6707 180.305 65.0181C195.1 61.1248 197.124 62.5751 208.989 71.2669C219.248 78.7908 221.565 85.3413 234.51 79.5013C246.589 74.0507 249.461 66.7701 264.129 68.5027C273.589 69.622 282.603 76.0947 291.966 78.2457C302.254 80.6109 311.608 82.5965 321.964 85.7404C331.785 88.7188 338.345 84.8839 348.079 83.9008C368.11 81.8957 388.949 86.3828 403.695 99.9024C422.402 117.062 442.58 116.887 466.163 116.79C484.491 116.712 501.68 122.649 516.855 134.281" stroke="white" stroke-width="0.2" stroke-linecap="round" stroke-linejoin="round"/>
<path d="M69.793 121.257C89.3472 104.866 101.952 87.4535 127.443 80.7277C143.494 76.4937 161.646 75.6177 177.152 69.8653C190.282 64.9987 195.129 61.0567 206.585 70.6732C219.784 81.7497 220.952 88.3587 237.858 80.2995C260.148 69.6707 269.375 78.6253 292.024 81.8568C300.551 83.0735 309.282 85.2829 317.652 86.3633C330.627 88.0375 337.109 83.9008 349.87 83.93C357.939 83.9495 373.502 87.5897 380.569 90.2567C392.141 94.6269 396.94 102.706 407.121 109.548C425.254 121.734 444.604 119.155 464.577 118.649C483.868 118.162 502.479 126.036 518.023 137.716" stroke="white" stroke-width="0.2" stroke-linecap="round" stroke-linejoin="round"/>
<path d="M68.6934 124.635C88.1016 110.405 98.8667 91.3468 123.064 84.7768C141.275 79.8322 162.046 79.219 179.176 71.1501C196.502 62.9936 194.867 64.0253 210.06 76.5911C219.258 84.1928 224.689 85.4484 236.214 83.4433C245.081 81.8957 252.887 77.175 262.348 78.2262C272.276 79.3261 281.96 84.0468 292.044 85.4192C300.512 86.5677 309.934 88.1056 318.392 88.4073C327.707 88.7383 336.925 84.1149 346.103 84.7184C352.527 85.1466 371.517 91.1132 377.649 93.42C391.908 98.7733 396.347 112.429 409.925 118.736C426.715 126.543 446.785 121.754 462.971 120.576C482.72 119.135 503.52 129.745 519.094 140.773" stroke="white" stroke-width="0.2" stroke-linecap="round" stroke-linejoin="round"/>
<path d="M67.6328 127.642C88.7347 114.444 98.2247 94.0916 123.648 87.5508C143.767 82.3727 163.253 81.2047 181.338 70.8387C203.491 58.1367 211.715 87.9207 234.676 86.3342C246.785 85.4971 254.133 82.1294 266.572 83.6478C275.089 84.6892 283.314 87.8526 292.161 88.6507C300.522 89.4099 310.956 91.2787 319.152 90.6168C329.518 89.7895 336.993 85.0883 347.641 87.1907C356.46 88.933 365.843 93.8094 374.564 96.6904C390.341 101.907 391.412 115.992 406.294 122.532C415.103 126.406 429.956 126.328 439.281 126.581C447.496 126.805 454.474 123.136 461.414 122.601C481.767 121.043 503.891 133.005 520.174 143.459" stroke="white" stroke-width="0.2" stroke-linecap="round" stroke-linejoin="round"/>
<path d="M66.6006 130.319C88.5882 118.454 97.1341 97.0895 122.957 90.6655C144.331 85.3511 162.328 84.0858 180.88 71.8607C201.836 58.0491 212.63 86.7333 234.462 88.2225C253.87 89.5462 272.684 89.7019 292.258 91.6291C311.297 93.5077 330.812 83.8911 347.943 89.3126C356.644 92.0671 366.241 96.8364 374.855 100.243C389.29 105.957 390.672 122.211 405.798 127.136C414.733 130.047 429.78 130.358 438.901 130.017C446.901 129.716 453.588 125.17 460.781 124.538C480.793 122.795 504.805 136.646 521.215 145.795" stroke="white" stroke-width="0.2" stroke-linecap="round" stroke-linejoin="round"/>
<path d="M65.5977 132.986C87.9843 121.54 96.1117 100.029 122.314 93.8385C145.168 88.4365 161.267 86.8403 180.49 72.8535C192.452 64.1519 195.557 67.909 207.305 75.4815C216.474 81.3896 223.112 88.0764 234.267 90.1593C252.945 93.6536 273.326 92.1449 292.375 94.3252C304.142 95.6781 307.802 96.9143 319.764 92.1936C331.678 87.4924 336.291 87.0933 348.156 92.3104C353.159 96.1453 358.542 99.3865 364.294 102.024C367.886 102.706 371.477 103.387 375.069 104.059C390.087 111.641 387.167 127.165 405.427 130.942C415.141 132.947 428.651 134.096 438.297 133.083C446.142 132.256 452.838 127.516 460.557 126.951C480.608 125.482 505.204 139.78 522.198 148.112" stroke="white" stroke-width="0.2" stroke-linecap="round" stroke-linejoin="round"/>
<path d="M64.625 135.663C86.9435 123.506 95.1585 102.861 121.682 96.9824C130.393 95.0455 139.435 94.0624 148.059 91.8238C163.769 87.7552 166.903 84.2123 180.072 74.2162C191.888 65.2518 195.188 68.9018 207.004 76.4159C216.144 82.2267 223.424 88.9038 234.063 92.1352C252.371 97.693 273.532 94.773 292.502 96.7391C305.642 98.1018 306.878 98.822 320.144 92.8166C332.769 87.1031 336.545 89.6143 348.352 96.1064C356.547 100.613 367.38 104.38 375.07 109.324C390.906 119.525 384.131 132.499 405.165 134.709C415.502 135.789 427.474 137.532 437.636 135.818C445.87 134.427 452.362 130.163 460.888 129.92C481.63 129.336 505.029 142.281 523.172 150.389" stroke="white" stroke-width="0.2" stroke-linecap="round" stroke-linejoin="round"/>
<path d="M63.6807 138.232C85.4055 124.576 94.3504 105.674 120.981 100.155C129.809 98.3256 138.744 97.0311 147.563 95.172C163.087 91.9113 167.165 85.4873 179.683 76.1823C198.517 62.1663 215.637 86.9181 233.887 94.3641C252.021 101.761 273.502 97.5567 292.648 99.0264C306.138 100.068 306.907 99.6785 320.543 93.7801C333.897 87.9985 337.012 93.5563 348.527 100.671C356.615 105.674 367.585 109.499 374.865 115.875C389.231 128.47 384.316 137.239 404.99 138.515C415.648 139.176 426.578 140.724 436.993 138.398C446.249 136.325 451.914 132.879 461.482 133.142C482.798 133.726 505.029 144.53 524.116 152.706" stroke="white" stroke-width="0.2" stroke-linecap="round" stroke-linejoin="round"/>
<path d="M62.7754 140.52C83.4782 125.229 93.669 108.546 120.105 103.348C129.05 101.586 138.218 100.584 147.095 98.5397C162.513 94.9968 166.542 87.3756 179.303 78.8784C198.332 66.2056 216.874 88.602 233.722 97.2744C251.797 106.579 273.385 99.5812 292.823 101.129C305.895 102.17 307.715 99.5325 320.913 95.1233C334.53 90.5779 337.83 99.0264 348.673 105.811C357.929 111.602 367.069 114.609 374.515 123.223C386.37 136.947 386.457 140.938 404.922 142.281C425.546 143.78 442.706 134.894 462.066 136.363C483.723 138.008 505.272 146.798 525.041 155.013" stroke="white" stroke-width="0.2" stroke-linecap="round" stroke-linejoin="round"/>
<path d="M61.8896 142.651C71.9052 134.319 82.135 120.128 93.338 113.626C100.901 109.237 110.595 108.137 118.995 106.55C128.115 104.827 137.644 104.195 146.657 101.985C161.569 98.3353 166.182 89.7408 178.952 82.4018C198.945 70.9165 217.594 91.1813 233.566 101.09C250.833 111.797 273.862 101.976 293.037 102.998C304.98 103.64 309.291 99.0459 321.215 97.0408C334.053 94.88 339.124 105.139 348.809 111.32C359.418 118.094 366.076 120.985 374.096 130.981C384.754 144.257 388.599 144.617 404.98 145.99C425.809 147.732 442.356 137.337 462.611 139.605C484.453 142.048 505.661 149.202 525.917 157.339" stroke="white" stroke-width="0.2" stroke-linecap="round" stroke-linejoin="round"/>
<path d="M61.043 144.715C70.7276 135.945 80.9184 121.832 92.6666 115.719C99.8887 111.962 109.768 111.203 117.633 109.772C127.064 108.059 136.885 107.553 146.219 105.382C160.391 102.083 166.114 92.9528 178.612 86.8111C200.619 76.0071 217.107 94.8897 233.411 105.898C245.499 114.055 253.578 110.59 266.387 106.56C276.296 103.436 283.031 104.623 293.241 104.925C302.955 105.207 312.192 99.6007 321.41 99.7661C332.506 99.9705 340.614 111.271 348.936 116.887C359.817 124.245 365.064 129.317 373.668 138.729C383.46 149.435 391.616 148.404 405.194 149.64C416.942 150.71 424.787 146.905 435.952 144.101C445.957 141.581 452.878 141.473 463.137 142.885C485.076 145.892 506.158 151.732 526.773 159.704" stroke="white" stroke-width="0.2" stroke-linecap="round" stroke-linejoin="round"/>
<path d="M60.2256 146.788C79.2445 128.557 89.6495 117.598 116.017 113.013C125.848 111.3 136.058 110.94 145.791 108.769C159.097 105.801 166.163 97.1965 178.31 92.0573C203.578 81.3798 215.054 99.6006 233.255 111.641C245.947 120.041 253.909 113.704 266.319 108.877C276.306 104.983 282.992 106.979 293.436 107.066C301.865 107.144 313.545 102.151 321.497 103.65C330.773 105.402 342.093 117.14 349.043 122.221C358.426 129.093 364.587 139.05 373.308 145.999C381.611 152.618 395.471 152.54 405.496 153.212C417.439 154.01 424.836 148.404 436.098 145.863C445.802 143.683 453.725 144.491 463.643 146.145C485.64 149.815 506.635 154.273 527.591 162.04" stroke="white" stroke-width="0.2" stroke-linecap="round" stroke-linejoin="round"/>
<path d="M59.4365 148.929C69.3159 139.157 77.9493 126.114 91.2937 121.043C98.4283 118.328 106.731 117.5 114.196 116.264C124.514 114.551 135.142 114.24 145.382 112.166C158.171 109.577 166.094 101.907 178.057 97.5469C186.223 94.5685 197.202 93.3324 205.553 95.6295C218.927 99.3087 222.003 111.787 233.108 118.162C246.044 125.579 254.736 116.225 266.25 111.32C276.11 107.125 283.255 109.402 293.611 109.402C302.419 109.402 312.961 105.557 321.536 108.633C330.179 111.719 342.326 122.776 349.023 128.012C356.663 133.979 364.382 147.567 373.064 152.414C379.673 156.103 398.38 156.784 405.778 156.823C417.419 156.891 425.439 149.941 436.477 147.927C445.986 146.194 454.551 147.927 464.11 149.445C486.049 152.92 507.374 157.018 528.369 164.425" stroke="white" stroke-width="0.2" stroke-linecap="round" stroke-linejoin="round"/>
<path d="M58.6875 151.197C68.5182 141.386 76.8499 128.898 90.2624 124.109C97.2704 121.608 104.95 120.683 112.25 119.535C123.093 117.831 134.15 117.452 144.964 115.602C157.588 113.432 165.949 106.92 177.872 103.056C185.951 100.447 197.173 98.5592 205.349 100.808C218.567 104.438 221.147 120.157 232.982 125.092C245.567 130.339 255.807 118.367 266.192 114.045C275.614 110.122 283.897 112.089 293.757 112.059C317.205 111.972 330.257 118.454 348.916 133.911C356.586 140.267 363.107 153.572 373.045 157.495C378.817 159.772 399.831 160.891 406.06 160.444C417.225 159.646 426.043 151.82 436.973 150.379C446.22 149.163 455.418 151.324 464.567 152.754C486.429 156.181 508.105 159.792 529.119 166.829" stroke="white" stroke-width="0.2" stroke-linecap="round" stroke-linejoin="round"/>
<path d="M57.957 153.65C74.9417 136.977 84.9378 126.689 108.677 123.019C132.427 119.359 152.283 116.994 174.952 109.412C182.31 106.949 199.47 103.046 207.159 106.103C218.878 110.775 220.251 128.489 234.228 130.689C245.333 132.441 251.981 124.323 261.335 119.622C273.171 113.665 281.152 115.495 293.825 115.271C316.007 114.882 330.364 124.09 347.748 137.755C361.88 148.861 359.136 156.56 376.714 161.563C385.639 164.104 400.823 164.717 409.506 162.712C420.319 160.21 428.067 153.407 439.698 152.92C448.371 152.56 457.89 154.798 466.485 156.278C487.791 159.938 509.35 162.468 529.839 169.564" stroke="white" stroke-width="0.2" stroke-linecap="round" stroke-linejoin="round"/>
<path d="M57.2666 156.336C73.6867 140.724 83.9943 129.579 106.683 126.309C130.315 122.912 151.865 121.598 174.709 114.707C184.15 111.865 197.67 108.02 206.965 113.441C218.256 120.031 218.782 135.945 234.112 136.354C244.828 136.636 252.04 126.942 261.268 122.922C271.41 118.503 283.06 118.435 293.884 118.678C315.064 119.145 332.379 128.762 347.32 144.393C360.986 158.692 358.114 161.67 376.9 165.34C387.616 167.432 399.968 167.831 410.275 164.269C431.27 157.018 444.517 155.168 466.913 159.665C488.2 163.938 510.207 164.785 530.53 172.727" stroke="white" stroke-width="0.2" stroke-linecap="round" stroke-linejoin="round"/>
<path d="M56.6143 159.276C72.5769 144.841 83.1668 132.49 104.794 129.609C128.388 126.474 151.456 126.182 174.456 119.827C186.214 116.576 196.142 112.634 206.78 120.917C217.574 129.326 217.973 142.583 234.004 141.162C244.069 140.267 251.914 130.231 261.219 126.65C271.38 122.747 283.226 122.396 293.913 122.435C315.511 122.503 333.829 133.95 346.794 151.041C358.688 166.722 358.737 166.868 377.084 169.116C389.874 170.683 399.023 170.45 411.161 165.233C429.566 157.319 447.777 158.925 467.332 163.403C488.706 168.299 511.112 166.946 531.202 176.251" stroke="white" stroke-width="0.2" stroke-linecap="round" stroke-linejoin="round"/>
<path d="M55.9912 162.459C72.9272 148.17 82.5048 135.351 104.794 132.752C128.981 129.93 153.305 129.949 176.996 123.963C188.919 120.946 194.224 120.527 204.6 126.922C215.774 133.813 216.844 149.708 232.515 145.922C243.699 143.226 254.619 133.2 265.988 129.599C275.536 126.582 283.79 125.822 293.913 126.299C305.116 126.825 311.55 127.896 321.896 133.434C333.897 139.848 338.394 149.319 347.339 158.77C363.837 176.192 386.467 177.643 408.766 167.598C426.656 159.539 447.232 162.215 466.212 167.024C488.229 172.591 511.579 169.097 531.825 180.027" stroke="white" stroke-width="0.2" stroke-linecap="round" stroke-linejoin="round"/>
<path d="M55.3975 165.865C73.1316 152.355 80.8696 138.563 103.47 136.091C127.667 133.443 153.023 134.378 176.762 128.625C189.348 125.579 193.523 125.209 204.463 132.392C215.647 139.731 216.873 153.728 232.408 148.939C255.515 141.814 268.071 127.594 293.903 129.959C304.483 130.922 312.124 131.789 321.974 136.782C334.549 143.157 337.684 154.059 346.94 163.636C365.871 183.239 386.379 177.818 409.623 167.948C425.907 161.037 449.928 166.469 466.553 171.384C489.173 178.081 511.482 171.559 532.409 183.979" stroke="white" stroke-width="0.2" stroke-linecap="round" stroke-linejoin="round"/>
<path d="M54.833 169.437C70.309 159.149 78.3001 142.184 97.1633 139.916C122.48 136.879 148.692 138.106 173.735 133.366C184.792 131.273 191.937 126.64 202.205 133.56C215.998 142.846 214.362 152.716 230.851 151.217C239.912 150.399 251.193 143.177 259.496 138.943C276.188 130.426 275.916 131.176 293.903 134.008C303.928 135.585 313.234 135.001 322.665 140.16C335.922 147.411 338.209 159.383 347.69 169.583C365.92 189.196 387.47 178.314 407.024 169.963C426.578 161.602 451.583 172.727 470.962 177.224C493.32 182.402 512.037 175.346 532.964 188.038" stroke="white" stroke-width="0.2" stroke-linecap="round" stroke-linejoin="round"/>
<path d="M54.3076 173.087C70.572 163.432 76.8987 146.048 96.4335 143.255C121.818 139.624 148.439 142.311 173.551 137.171C184.88 134.855 191.372 129.57 202.108 136.49C215.492 145.124 214.947 153.494 230.763 153.076C241.363 152.793 250.95 146.155 259.457 140.539C275.906 129.677 275.955 133.035 293.913 137.152C303.715 139.4 313.438 138.388 322.704 143.255C335.212 149.825 338.57 161.982 347.709 171.608C355.136 179.424 365.181 184.553 376.092 184.329C389.855 184.047 395.948 173.671 407.813 170.09C427.415 164.172 452.751 177.964 471.303 181.906C494.449 186.821 511.395 179.103 533.519 192.087" stroke="white" stroke-width="0.2" stroke-linecap="round" stroke-linejoin="round"/>
<path d="M53.8203 176.718C70.7952 167.374 76.5671 149.795 97.377 146.476C121.272 142.661 146.832 146.632 170.435 141.639C187.878 137.95 189.299 129.346 205.621 141.483C212.999 146.963 219.112 154.828 229.137 155.489C247.037 156.667 251.164 143.362 264.45 136.062C275.692 129.891 282.894 136.461 293.893 139.527C303.062 142.087 315.034 141.434 323.502 145.717C334.861 151.47 340.71 165.456 349.607 173.885C357.296 181.176 366.435 190.101 378.291 188.281C390.973 186.325 397.942 172.678 411.189 171.754C431.59 170.323 450.853 182.169 470.047 186.188C494.604 191.337 510.002 182.791 533.985 195.98" stroke="white" stroke-width="0.2" stroke-linecap="round" stroke-linejoin="round"/>
<path d="M53.3633 180.173C63.5443 178.09 65.5397 170.167 71.8663 163.821C79.3999 156.258 87.9361 151.625 98.4967 149.718C122.1 145.454 150.453 152.258 173.171 144.462C186.768 139.79 188.384 132.986 203.315 140.685C214.742 146.574 218.986 156.404 233.479 156.959C249.334 157.563 250.969 142.846 263.681 137.259C276.062 131.818 280.033 136.558 293.903 141.775C302.079 144.851 310.08 144.676 318.139 147.022C332.817 151.304 341.334 166.663 351.301 176.913C356.858 182.626 365.56 192.165 374.602 191.785C387.217 191.25 395.792 175.774 408.289 173.856C428.369 170.771 449.909 186.072 468.714 190.422C478.69 192.729 488.521 190.656 498.654 190.14C512.543 189.43 521.916 193.274 534.443 199.591" stroke="white" stroke-width="0.2" stroke-linecap="round" stroke-linejoin="round"/>
<path d="M52.916 183.288C61.5689 181.984 64.7323 174.051 70.4068 168.717C77.9599 161.631 87.9365 155.694 98.2344 153.319C121.711 147.907 150.785 156.842 173.016 146.554C186.535 140.296 187.713 133.103 203.208 141.065C213.837 146.535 219.921 158.419 233.411 158.877C249.578 159.432 250.405 141.24 263.652 136.617C275.342 132.538 281.61 137.775 293.904 143.274C302.313 147.031 309.467 148.199 318.12 150.642C334.569 155.285 341.12 167.199 351.905 179.219C357.268 185.196 365.736 194.793 374.992 193.907C387.636 192.69 395.062 176.718 408.64 175.735C429.839 174.197 449.355 190.948 468.958 194.871C478.886 196.856 488.979 194.472 498.965 193.907C512.621 193.138 522.335 197.138 534.862 202.745" stroke="white" stroke-width="0.2" stroke-linecap="round" stroke-linejoin="round"/>
<path d="M52.127 186.198C59.5438 185.517 64.5954 177.506 69.9195 173.156C78.1052 166.478 89.1039 159.772 99.538 156.998C124.961 150.224 153.178 160.93 175.974 145.766C185.425 139.478 188.948 133.58 200.784 139.41C212.308 145.094 217.934 157.826 231.804 159.373C250.093 161.417 248.76 138.554 262.844 134.563C272.237 131.906 286.155 140.909 293.893 144.588C315.91 155.042 332.496 157.271 348.546 176.776C352.186 184.621 357.812 189.916 365.433 192.661C369.794 196.817 374.057 196.535 378.213 191.814C392.122 188.067 396.035 176.212 411.813 178.713C433.343 182.12 452.654 198.813 473.668 199.64C481.795 199.961 490.244 198.384 498.342 197.752C513.117 196.593 521.536 200.107 535.26 205.519" stroke="white" stroke-width="0.2" stroke-linecap="round" stroke-linejoin="round"/>
<path d="M50.9883 189.118C67.5252 186.461 82.7384 167.043 99.324 161.437C125.925 152.443 152.186 164.59 175.838 147.158C185.425 140.091 188.793 135.137 200.697 141.347C212.299 147.401 217.837 159.393 231.746 159.889C247.981 160.473 248.779 138.933 262.815 135.536C272.422 133.21 286.136 141.542 293.893 145.62C305.116 151.509 312.893 154.837 324.972 158.867C337.051 162.897 341.197 170.644 348.945 180.027C360.8 194.394 363.711 196.769 378.904 191.892C392.219 187.609 397.096 179.326 411.92 181.954C433.586 185.799 452.556 202.764 473.872 203.407C482.039 203.65 490.497 202.472 498.595 201.567C513.75 199.873 521.264 202.998 535.611 208.205" stroke="white" stroke-width="0.2" stroke-linecap="round" stroke-linejoin="round"/>
<path d="M49.6455 192.048C67.0098 189.79 83.2352 172.912 99.1298 166.293C126.383 154.944 150.726 167.072 175.702 149.036C185.104 142.252 189.387 138.709 200.619 144.286C212.951 150.418 217.643 161.3 231.698 160.21C245.422 159.149 249.062 141.95 262.796 138.524C273.989 135.731 284.667 141.308 293.904 146.506C304.892 152.686 313.117 157.923 325.011 162.682C337.197 167.569 340.711 174.304 349.237 183.794C371.332 208.39 384.793 181.273 412.037 185.273C434.492 188.563 451.924 206.015 474.077 207.027C482.351 207.407 490.712 206.19 498.849 204.867C514.354 202.336 521.118 205.46 535.942 210.707" stroke="white" stroke-width="0.2" stroke-linecap="round" stroke-linejoin="round"/>
<path d="M48.2148 194.987C67.1656 192.34 82.3983 179.502 98.9644 171.462C113.068 164.619 127.989 166.965 142.998 165.233C158.542 163.442 161.803 160.424 175.585 151.625C198.887 136.753 209.652 164.376 231.659 160.356C244.059 158.088 249.734 145.016 262.776 141.581C275.264 138.291 282.934 140.997 293.904 147.421C304.532 153.65 314.11 160.113 325.031 165.982C335.845 171.793 340.721 179.91 349.452 187.94C362.475 199.922 366.076 196.36 380.209 192.554C391.286 189.576 400.318 187.366 412.134 188.719C435.076 191.347 451.603 208.643 474.253 210.541C482.944 211.271 490.692 209.471 499.063 207.534C514.607 203.932 521.342 207.748 536.234 213.091" stroke="white" stroke-width="0.2" stroke-linecap="round" stroke-linejoin="round"/>
<path d="M46.8125 197.946C67.4569 194.822 81.0933 186.529 99.2557 177.01C113.554 169.506 128.29 171.141 143.669 168.873C158.288 166.722 162.045 162.186 175.487 155.12C196.618 144.004 211.491 165.817 231.619 160.755C242.959 157.903 251.115 148.19 262.756 144.481C275.799 140.325 281.746 141.435 293.903 148.589C314.567 160.755 330.237 179.064 349.626 192.174C362.27 200.73 367.808 196.545 380.656 194.034C391.217 191.97 401.242 191.367 412.212 192.301C435.309 194.267 451.739 210.979 474.398 213.86C484.141 215.096 490.224 212.361 499.247 209.558C514.402 204.847 522.091 209.879 536.487 215.369" stroke="white" stroke-width="0.2" stroke-linecap="round" stroke-linejoin="round"/>
<path d="M45.5479 200.905C52.8771 199.942 60.3036 200.243 67.5939 198.968C80.9577 196.642 88.8028 188.865 100.23 182.782C114.392 175.229 128.846 175.19 144.185 172.474C157.355 170.138 162.942 164.765 175.429 159.548C194.663 151.518 212.63 166.858 231.591 161.875C256.732 155.266 267.77 135.166 293.904 150C314.957 161.952 328.33 186.403 349.783 196.058C367.196 203.893 393.33 194.861 412.271 196.029C435.387 197.46 452.109 213.286 474.515 216.955C485.709 218.785 489.544 214.707 499.394 210.979C513.848 205.499 523.172 212.128 536.682 217.549" stroke="white" stroke-width="0.2" stroke-linecap="round" stroke-linejoin="round"/>
<path d="M44.4863 203.874C52.4677 202.716 60.303 205.285 68.2649 204.234C82.7675 202.326 90.5834 193.829 104.239 187.512C115.773 182.178 127.784 178.158 140.379 176.397C152.312 174.722 160.916 170.479 172.343 166.712C191.83 160.298 210.479 170.245 229.916 165.194C253.315 159.12 269.336 137.979 293.893 151.255C316.329 163.383 327.658 193.479 351.32 199.825C368.986 204.565 390.623 199.25 409.048 199.786C433.508 200.496 449.85 214.434 472.977 219.389C485.504 222.065 487.859 217.014 498.537 212.478C513.117 206.278 523.327 213.948 536.857 219.583" stroke="white" stroke-width="0.2" stroke-linecap="round" stroke-linejoin="round"/>
<path d="M43.7275 206.862C52.1955 205.645 59.7681 209.918 68.1679 209.519C82.5246 208.848 92.8906 200.049 106.245 193.566C127.308 183.356 149.996 177.886 172.354 172.017C191.236 167.062 210.752 171.958 229.907 168.007C253.306 163.179 268.928 142.077 293.903 153.163C318.519 164.094 326.043 197.547 351.437 203.193C369.259 207.154 390.74 203.358 409.097 203.679C433.859 204.117 449.831 217.637 473.075 221.997C485.932 224.402 488.113 217.423 498.654 213.13C512.475 207.495 524.554 216.264 537.013 221.569" stroke="white" stroke-width="0.2" stroke-linecap="round" stroke-linejoin="round"/>
<path d="M43.2988 209.85C52.2438 208.896 59.3686 214.298 68.1091 214.59C82.4268 215.067 95.2067 206.113 108.366 199.718C129.857 189.264 149.013 182.548 172.363 177.536C191.148 173.506 210.917 175.414 229.887 171.822C253.081 167.423 268.45 147.012 293.903 155.499C320.358 164.327 325.108 199.504 351.476 206.239C369.181 210.755 390.818 207.378 409.136 207.582C420.641 207.709 430.238 208.351 441.139 211.719C451.369 214.873 462.747 223.078 473.142 224.44C485.465 226.056 488.793 217.131 498.741 213.734C511.55 209.354 525.946 218.659 537.129 223.467" stroke="white" stroke-width="0.2" stroke-linecap="round" stroke-linejoin="round"/>
<path d="M43.2598 212.848C52.4967 212.488 59.2516 218.474 68.1771 219.36C82.4267 220.781 97.6496 212.313 110.449 205.889C132.261 194.948 147.932 187.269 172.353 182.938C191.177 179.599 211.189 180.154 229.877 176.377C252.789 171.734 268.226 152.745 293.903 158.351C320.962 164.259 326.101 200.195 351.456 209.072C368.665 215.096 390.896 211.359 409.155 211.485C420.28 211.563 430.442 211.583 441.168 214.376C451.106 216.965 463.389 225.92 473.181 226.582C484.355 227.341 489.582 217.121 498.79 214.629C510.684 211.408 526.948 220.888 537.197 225.278" stroke="white" stroke-width="0.2" stroke-linecap="round" stroke-linejoin="round"/>
<path d="M43.6201 215.856C53.1296 216.362 59.9332 222.542 69.209 223.73C81.5898 225.307 93.0363 220.138 104.463 215.223C117.885 209.451 129.03 198.647 142.647 193.673C150.687 190.734 160.615 190.218 169.044 188.768C179.935 186.889 190.895 185.118 201.758 183.317C212.114 181.604 224.796 182.529 234.715 179.219C254.872 172.494 270.514 158.809 293.913 162.76C322.032 167.5 327.503 203.27 353.014 213.344C369.288 219.768 395.363 215.349 412.28 215.418C421.196 215.447 429.79 215.242 438.589 216.722C449.578 218.581 460.693 227.098 471.468 227.818C482.311 228.548 488.541 218.931 497.777 216.702C510.061 213.734 526.549 222.581 537.236 227.049" stroke="white" stroke-width="0.2" stroke-linecap="round" stroke-linejoin="round"/>
<path d="M44.3701 218.873C53.7044 220.275 60.5761 226.144 69.8131 227.633C82.2523 229.628 94.6233 225.647 106.128 220.956C129.79 211.291 143.017 197.022 169.015 193.742C180.335 192.311 190.73 189.177 201.787 186.987C212.591 184.845 224.125 186.198 234.715 182.373C243.796 179.083 250.941 172.581 261.024 171.452C265.404 171.686 269.794 171.919 274.174 172.153C280.491 169.301 287.071 167.627 293.904 167.15C322.004 168.007 330.228 202.492 352.927 215.038C368.987 223.925 394.819 219.369 412.271 219.33C421.05 219.311 429.839 218.922 438.58 219.992C449.452 221.316 460.782 228.947 471.459 229.103C481.007 229.239 488.96 220.839 497.768 219.184C510.285 216.829 526.044 224.265 537.227 228.528" stroke="white" stroke-width="0.2" stroke-linecap="round" stroke-linejoin="round"/>
<path d="M45.3232 221.91C54.4823 224.158 61.5779 229.492 70.8538 231.147C83.2346 233.356 95.8782 230.748 107.422 226.445C130.685 217.773 143.464 201.158 168.985 198.355C181.074 197.031 190.262 192.544 201.826 189.984C213.262 187.454 223.19 189.293 234.714 185.059C244.594 181.429 250.054 177.983 261.014 178.645C265.394 179.258 269.784 179.871 274.164 180.485C280.325 176.621 286.895 173.817 293.893 172.085C321.633 168.581 333.002 201.47 352.838 215.953C369.239 227.925 393.066 223.321 412.25 223.224C420.972 223.185 429.848 222.708 438.55 223.399C449.344 224.255 460.732 230.533 471.429 230.222C480.17 229.969 489.027 223.594 497.729 222.406C511.083 220.586 524.768 225.764 537.178 229.765" stroke="white" stroke-width="0.2" stroke-linecap="round" stroke-linejoin="round"/>
<path d="M46.2676 225.034C68.5082 232.081 84.4514 239.547 108.444 231.663C131.133 224.207 144.428 205.743 168.995 202.618C181.941 200.973 189.698 195.425 201.874 192.525C213.554 189.741 222.704 191.435 234.734 187.522C246.784 183.609 249.062 184.524 261.034 187.502C276.49 191.357 279.877 181.964 293.903 177.759C321.536 169.467 334.579 200.127 352.79 216.274C369.881 231.419 390.662 227.37 412.241 227.107C420.972 227 429.819 226.445 438.54 226.845C449.325 227.341 460.645 232.139 471.41 231.478C480.073 230.942 488.823 226.523 497.7 225.754C511.579 224.547 523.795 227.604 537.129 230.971" stroke="white" stroke-width="0.2" stroke-linecap="round" stroke-linejoin="round"/>
<path d="M47.1924 228.178C68.8685 235.965 91.5082 244.851 114.742 235.157C123.959 231.312 132.028 224.109 140.331 218.717C150.959 211.816 160.498 209.724 172.344 206.297C182.476 203.368 193.747 194.773 204.318 193.352C213.107 192.174 220.777 194.345 229.916 192.019C234.179 190.685 238.452 189.352 242.716 188.018C249.383 190.442 255.787 193.42 261.919 196.953C266.183 201.528 270.446 201.538 274.719 196.983C281.99 193.644 288.394 189.001 293.923 183.045C319.512 168.98 335.649 198.92 351.359 214.61C362.056 225.297 367.623 231.04 383.518 231.4C392.025 231.594 400.6 231.186 409.117 231.04C429.673 230.679 453.033 234.943 473.094 232.792C495.461 230.397 514.314 228.178 537.032 232.276" stroke="white" stroke-width="0.2" stroke-linecap="round" stroke-linejoin="round"/>
<path d="M48.0879 231.302C68.1094 239.118 93.2408 247.431 114.82 240.286C124.037 237.23 132.398 230.319 140.389 225.044C150.823 218.162 161.014 214.717 172.363 210.093C182.349 206.025 193.134 196.632 204.337 195.747C213.399 195.026 220.494 196.905 229.916 194.968C234.179 194.092 238.443 193.216 242.716 192.34C248.069 198.783 254.473 203.757 261.91 207.261C266.543 212.361 270.806 211.952 274.709 206.044C281.688 201.217 288.083 195.688 293.903 189.459C319.473 172.416 335.435 197.46 351.437 215.009C361.579 226.134 367.312 234.3 383.469 235.381C391.791 235.935 400.717 235.303 409.049 234.913C430.228 233.94 452.021 236.588 472.977 234.787C494.624 232.918 515.064 231.458 536.857 233.784" stroke="white" stroke-width="0.2" stroke-linecap="round" stroke-linejoin="round"/>
<path d="M48.9443 234.368C67.9827 241.785 94.2919 249.913 114.927 245.056C133.916 240.588 155.602 222.903 172.421 213.539C183.167 207.553 191.216 198.783 204.376 198.754C213.438 198.735 220.786 199.124 229.955 198.443C247.757 197.119 246.745 215.126 261.929 217.491C267.098 222.27 271.361 221.297 274.719 214.551C281.318 208.595 287.713 202.424 293.903 196.039C319.492 177.059 334.705 196.34 351.495 215.865C368.597 235.751 382.71 241.435 408.99 238.787C450.211 234.641 494.916 233.619 536.682 235.566" stroke="white" stroke-width="0.2" stroke-linecap="round" stroke-linejoin="round"/>
<path d="M49.7617 237.347C68.586 244.063 94.7297 252.356 115.053 249.436C134.529 246.632 157.325 227.73 172.489 216.78C184.247 208.293 188.676 200.866 204.424 202.375C213.048 203.202 221.818 201.664 229.984 202.492C246.609 204.176 246.794 226.134 261.939 226.679C276.217 227.195 282.398 211.826 293.903 202.745C300.191 197.781 311.024 190.714 319.472 190.753C335.299 190.831 342.871 207.154 351.515 217.413C367.506 236.412 383.012 246.963 408.931 242.35C431.328 238.359 449.909 241.454 472.753 240.286C493.981 239.196 515.21 237.726 536.467 237.668" stroke="white" stroke-width="0.2" stroke-linecap="round" stroke-linejoin="round"/>
<path d="M50.5312 240.247C70.0855 246.165 93.0465 253.903 113.564 253.378C136.817 252.774 159.973 231.818 175.663 216.8C183.985 208.848 188.482 203.64 200.551 205.159C209.632 206.307 222.782 207.076 231.659 209.84C243.339 213.471 249.938 237.405 262.776 237.386C272.597 237.376 287.168 215.534 293.904 210.064C302.43 203.134 312.922 193.07 325.031 194.802C337.441 196.574 343.339 209.432 350.065 218.094C366.709 239.517 384.677 252.054 412.125 243.44C432.526 237.035 452.644 244.773 474.243 243.635C494.907 242.544 515.551 240.997 536.225 240.043" stroke="white" stroke-width="0.2" stroke-linecap="round" stroke-linejoin="round"/>
<path d="M51.2314 243.07C71.3405 248.161 92.9582 255.957 113.729 256.843C140.428 257.972 159.379 237.133 175.74 219.525C184.744 209.84 187.712 206.599 200.619 209.656C212.065 212.361 221.954 212.079 231.697 217.218C242.852 223.097 247.689 243.781 262.795 242.107C273.57 240.909 286.447 222.669 293.903 216.226C302.556 208.741 312.153 197.158 325.011 198.803C337.304 200.37 343.008 212.858 349.996 221.131C367.195 241.474 386.263 255.704 412.036 244.715C431.192 236.549 453.004 248.404 474.077 247.119C494.711 245.864 515.336 244.345 535.942 242.7" stroke="white" stroke-width="0.2" stroke-linecap="round" stroke-linejoin="round"/>
<path d="M51.874 245.854C72.3627 250.214 93.0947 258.381 113.924 260.308C143.835 263.072 158.035 242.603 175.828 223.088C185.055 212.975 187.936 211.086 200.687 214.658C214.421 218.503 221.107 218.075 231.736 225.764C243.134 234.008 246.083 250.127 262.805 245.416C274.884 242.009 285.143 229.745 293.884 221.696C302.721 213.559 310.907 200.535 324.962 203.066C336.146 205.081 342.725 217.394 349.889 224.577C358.377 233.084 369.862 242.564 380.88 248.015C395.86 255.441 398.741 251.879 411.91 245.435C430.033 236.578 453.364 251.762 473.863 250.536C494.468 249.299 515.054 247.489 535.601 245.503" stroke="white" stroke-width="0.2" stroke-linecap="round" stroke-linejoin="round"/>
<path d="M52.4482 248.618C73.0148 252.803 93.445 261.271 114.148 263.763C146.871 267.695 156.04 248.414 175.945 227.701C192.822 210.142 216.105 222.173 231.814 235.351C243.913 245.503 246.268 254.818 262.854 248.199C275.536 243.138 284.374 235.497 293.903 226.241C303.198 217.209 309.204 203.562 324.943 208.283C334.501 211.145 342.297 222.328 349.811 228.207C358.669 235.137 370.582 244.267 380.812 249.484C396.687 257.582 398.137 252.463 411.803 245.98C429.78 237.454 453.452 254.945 473.658 253.991C494.205 253.017 514.801 250.604 535.251 248.482" stroke="white" stroke-width="0.2" stroke-linecap="round" stroke-linejoin="round"/>
<path d="M52.9346 251.441C73.7444 255.227 93.6394 264.571 114.381 267.17C124.874 268.484 135.405 268.931 145.226 264.503C160.537 257.602 164.177 244.91 176.061 233.483C196.453 213.87 215.141 231.448 231.872 245.279C244.662 255.85 247.416 257.641 262.883 250.925C276.11 245.182 283.829 239.216 293.903 229.103C303.811 219.165 308.201 206.58 324.903 214.181C333.537 218.114 341.197 226.825 349.743 231.575C360.089 237.327 370.212 245.445 380.734 250.701C396.842 258.75 397.767 252.2 411.686 246.652C430.364 239.206 453.344 257.933 473.434 257.417C493.874 256.891 514.567 253.66 534.871 251.45" stroke="white" stroke-width="0.2" stroke-linecap="round" stroke-linejoin="round"/>
<path d="M53.3633 254.341C74.0174 257.66 92.7151 267.686 113.097 270.421C122.927 271.744 133.527 273.175 143.105 270.421C158.104 266.089 163.165 254.429 173.132 244.092C181.658 235.244 190.36 229.181 203.296 231.974C220.514 235.692 219.443 248.599 233.479 257.894C245.168 265.642 252.498 258.565 263.681 253.67C280.968 246.097 279.829 247.09 293.903 229.93C300.473 221.91 306.449 213.432 318.052 216.469C324.3 220.294 330.335 224.421 336.175 228.85C341.081 233.726 347.135 236.043 354.318 235.78C363.341 238.885 370.495 245.435 378.457 250.341C394.059 259.957 394.225 254.867 408.601 250.302C429.995 243.498 446.862 258.283 468.704 260.308C489.563 262.235 513.75 256.833 534.433 254.37" stroke="white" stroke-width="0.2" stroke-linecap="round" stroke-linejoin="round"/>
<path d="M53.8203 257.222C74.7664 260.337 92.7828 271.19 113.379 273.798C123.054 275.025 133.77 277.146 143.318 274.966C157.763 271.657 163.33 261.096 173.326 251.626C181.123 244.238 191.82 235.828 203.392 237.979C219.56 240.987 218.81 261.67 233.546 266.751C243.971 270.352 255.213 261.223 263.71 256.911C267.866 255.169 271.896 253.154 275.779 250.876C284.812 247.187 290.846 240.179 293.893 229.872C301.261 221.881 307.247 217.335 318.022 221.676C323.774 226.173 329.799 230.261 336.097 233.93C341.216 238.349 347.271 239.868 354.249 238.505C363.428 240.569 370.465 246.691 378.359 251.256C393.115 259.782 394.36 255.529 408.454 252.112C430.286 246.827 446.93 259.899 468.441 262.848C489.056 265.671 513.496 259.85 533.985 257.222" stroke="white" stroke-width="0.2" stroke-linecap="round" stroke-linejoin="round"/>
<path d="M54.3076 260.103C75.4776 263.169 92.8127 274.703 113.681 277.176C123.288 278.314 133.994 280.787 143.553 279.171C157.189 276.874 163.584 268.27 173.541 259.704C181.454 252.901 192.278 243.148 203.5 245.377C217.857 248.229 218.966 271.345 233.625 273.711C242.015 275.063 257.384 264.435 263.749 260.609C277.941 252.093 281.065 239.809 293.894 229.56C301.729 223.302 309.078 222.591 318.023 226.767C334.014 234.252 336.642 238.807 354.172 241.824C363.691 243.469 369.999 247.995 378.252 252.502C391.821 259.899 394.76 256.969 408.299 254.731C430.53 251.061 446.804 260.999 468.159 264.912C489.008 268.737 512.699 262.975 533.499 260.103" stroke="white" stroke-width="0.2" stroke-linecap="round" stroke-linejoin="round"/>
<path d="M54.833 262.965C76.0906 266.119 92.8903 278.1 114.002 280.534C123.628 281.643 134.179 284.203 143.796 283.201C156.809 281.838 163.759 275.463 173.755 267.715C182.369 261.038 192.287 250.662 203.626 253.572C217.195 257.057 217.769 277.886 233.712 278.402C241.538 278.655 258.026 267.793 263.798 263.763C274.719 256.142 282.797 235.507 293.903 229.774C301.476 225.871 310.839 228.042 318.042 231.458C332.418 238.281 337.976 243.313 354.094 245.62C364.139 247.061 369.21 249.679 378.135 254.361C390.711 260.96 395.217 259.13 408.124 257.728C430.043 255.334 446.862 261.466 467.848 266.469C489.358 271.598 511.317 266.167 532.973 262.965" stroke="white" stroke-width="0.2" stroke-linecap="round" stroke-linejoin="round"/>
<path d="M55.3975 265.817C76.6064 269.165 93.0071 281.303 114.362 283.872C138.111 286.734 153.509 289.732 173.969 275.472C183.576 268.776 192.092 258.497 203.772 262.235C217.457 266.615 216.435 284.553 233.809 282.091C242.706 280.835 257.189 271.501 263.847 266.148C273.969 258.011 281.396 235.838 293.913 231.526C312.426 225.141 335.581 246.584 353.997 249.144C364.45 250.594 368.529 252.18 378.019 257.086C389.786 263.169 395.675 262.05 407.958 261.106C429.245 259.48 447.145 261.456 467.536 267.598C490.039 274.382 509.331 269.467 532.428 265.817" stroke="white" stroke-width="0.2" stroke-linecap="round" stroke-linejoin="round"/>
<path d="M55.9912 268.659C76.6161 272.134 92.2576 284.31 113.291 287.026C133.099 289.576 153.159 295.056 171.263 284.68C181.795 278.645 192.657 264.454 206.108 270.703C214.985 274.83 217.234 287.22 229.507 286.598C236.321 286.257 259.632 273.633 264.615 269.321C276.354 259.169 276.441 239.284 293.903 235.906C313.506 232.11 333.819 247.139 352.381 251.713C373.95 257.028 387.791 266.411 410.791 264.532C431.571 262.829 449.023 262.206 468.743 269.087C491.431 277.01 508.056 272.65 531.815 268.649" stroke="white" stroke-width="0.2" stroke-linecap="round" stroke-linejoin="round"/>
<path d="M56.6143 271.491C77.0737 275.492 92.394 287.425 113.691 290.335C132.087 292.846 153.938 299.261 171.487 291.24C183.936 285.546 191.664 272.338 206.274 279.288C215.939 283.892 217.107 291.873 229.624 289.391C240.876 287.162 257.724 278.1 264.674 269.34C274.096 257.456 276.899 242.447 293.913 239.663C313.633 236.432 334.131 248.686 352.264 254.565C373.814 261.544 387.187 270.226 410.577 268.211C431.698 266.391 448.469 261.554 468.373 269.739C478.905 274.071 485.368 278.431 497.048 277.253C508.475 276.095 519.911 273.496 531.202 271.482" stroke="white" stroke-width="0.2" stroke-linecap="round" stroke-linejoin="round"/>
<path d="M57.2666 274.304C68.4891 277.273 75.2927 282.587 85.5906 287.143C94.7497 291.192 104.22 292.194 114.119 293.625C131.678 296.156 154.415 303.066 171.731 297.197C186.321 292.243 190.312 279.959 206.459 286.568C216.446 290.656 218.295 294.793 229.751 291.669C247.067 286.948 253.948 283.59 264.723 268.445C273.765 255.733 276.909 246.486 293.903 243.907C313.886 240.87 334.122 249.737 352.128 257.456C361.677 261.544 371.459 269.136 381.318 272.007C390.633 274.713 400.931 272.757 410.324 271.89C432.136 269.876 447.359 260.746 467.955 270.246C478.019 274.888 484.842 280.991 496.522 280.388C507.774 279.813 519.522 276.397 530.53 274.314" stroke="white" stroke-width="0.2" stroke-linecap="round" stroke-linejoin="round"/>
<path d="M57.957 277.107C78.29 284.456 92.4033 293.537 114.556 296.895C131.736 299.504 154.706 306.59 171.964 302.541C188.617 298.628 188.724 287.269 206.634 292.311C216.348 295.046 219.881 296.01 229.857 293.401C250.677 287.97 251.417 285.936 264.761 267.257C273.58 254.906 278.329 250.156 293.883 248.053C314.294 245.299 333.985 250.876 352.011 260.609C361.54 265.749 370.222 274.771 381.133 276.971C390.234 278.811 401.028 276.455 410.06 275.531C421.624 274.343 427.853 272.63 438.871 267.997C450.833 262.965 456.08 265.019 467.516 270.713C477.045 275.463 484.588 283.259 495.976 283.405C506.858 283.551 519.288 279.21 529.829 277.117" stroke="white" stroke-width="0.2" stroke-linecap="round" stroke-linejoin="round"/>
<path d="M58.6875 279.901C78.8355 289.44 92.4719 296.564 115.034 300.166C131.999 302.872 155.125 310.211 172.246 307.252C189.552 304.263 188.413 293.917 206.848 296.516C215.881 297.791 221.263 296.302 230.014 294.725C260.148 289.313 262.143 256.492 293.903 252.025C314.548 249.124 334.335 252.579 351.943 263.958C361.676 270.255 368.636 279.998 380.958 281.585C389.923 282.743 400.97 280.29 409.817 279.142C421.858 277.575 427.396 275.297 438.541 269.525C450.474 263.335 455.253 265.155 467.088 271.277C476.335 276.056 484.414 284.953 495.432 285.926C506.022 286.86 518.977 282.013 529.119 279.891" stroke="white" stroke-width="0.2" stroke-linecap="round" stroke-linejoin="round"/>
<path d="M59.4365 282.899C78.1537 293.489 92.9192 299.601 114.177 303.183C132.291 306.239 157.626 313.919 175.409 309.549C186.525 306.823 191.323 298.453 203.48 298.414C213.369 298.385 221.973 298.365 231.668 296.341C248.73 292.778 249.704 285.663 259.933 273.107C269.813 260.97 278.894 257.884 293.903 255.519C312.941 252.521 334.666 254.293 350.463 266.148C360.401 273.594 365.706 282.49 378.69 284.845C387.664 286.471 397.757 284.028 406.8 283.074C422.149 281.449 426.899 276.543 440.341 269.574C451.69 263.695 457.355 266.683 468.091 272.903C476.821 277.964 485.231 286.588 495.636 288.116C505.963 289.634 518.529 284.826 528.359 282.665" stroke="white" stroke-width="0.2" stroke-linecap="round" stroke-linejoin="round"/>
<path d="M60.2256 286.169C78.3588 297.596 93.7374 302.706 114.693 306.405C132.681 309.588 158.308 317.063 175.702 312.517C186.739 309.636 191.927 302.482 203.695 301.139C212.543 300.127 223.347 299.134 231.815 297.655C248.624 294.715 248.488 282.782 260.012 272.533C268.061 265.369 283.382 260.658 293.903 259.15C313.857 256.278 334.9 257.037 350.396 270.654C359.798 278.918 365.375 286.578 378.496 288.622C387.402 290.004 397.593 287.921 406.528 286.695C421.371 284.651 426.997 277.935 439.962 271.258C450.853 265.651 457.073 267.9 467.605 273.652C476.618 278.568 484.862 287.279 495.033 289.79C505.633 292.399 517.449 287.785 527.581 285.449" stroke="white" stroke-width="0.2" stroke-linecap="round" stroke-linejoin="round"/>
<path d="M61.043 289.595C78.4851 301.159 94.8858 305.869 115.238 309.627C133.332 312.965 159.077 319.808 176.013 314.727C182.048 311.963 187.635 308.429 192.754 304.137C196.482 303.796 200.2 303.456 203.928 303.115C213.701 300.974 222.47 299.65 231.97 298.054C247.436 295.455 248.011 280.787 260.099 273.165C267.292 268.63 285.484 263.744 293.913 262.731C315.404 260.152 334.238 260.571 350.288 275.609C367.594 291.824 382.876 294.803 406.236 290.296C429.888 285.731 441.675 262.43 467.088 274.548C476.647 279.103 484.316 287.444 494.39 291.007C505.418 294.91 515.911 290.822 526.773 288.203" stroke="white" stroke-width="0.2" stroke-linecap="round" stroke-linejoin="round"/>
<path d="M61.8896 293.051C80.0618 305.159 98.6135 309.578 119.871 313.569C137.313 316.849 163.506 323.75 179.05 314.63C188.452 309.111 195.674 305.694 206.245 302.56C211.267 299.582 216.728 297.83 222.616 297.304C226.266 298.151 229.906 299.008 233.556 299.854C240.088 295.786 245.558 290.647 249.996 284.446C253.364 277.954 258.853 274.635 266.455 274.509C275.721 271.287 284.004 267.569 293.913 266.605C302.858 265.739 312.416 265.953 321.371 265.953C334.316 265.953 338.92 271.511 348.838 279.375C366.611 293.479 385.523 300.526 408.776 293.06C427.668 286.997 440.302 267.433 462.63 273.604C474.7 276.942 483.246 287.727 494.497 292.593C505.233 297.236 515.122 293.985 525.946 290.919" stroke="white" stroke-width="0.2" stroke-linecap="round" stroke-linejoin="round"/>
<path d="M62.7754 296.477C80.5582 307.884 99.7913 312.936 120.445 316.781C139.464 320.324 162.746 324.947 179.371 315.058C187.927 309.967 197.29 305.558 206.488 302.531C215.822 299.465 225.001 301.606 233.722 299.426C239.289 294.627 244.75 289.722 250.113 284.699C254.055 279.297 259.525 276.893 266.523 277.497C276.013 274.664 283.703 270.907 293.903 270.216C302.702 269.623 312.542 269.389 321.283 269.759C334.024 270.294 338.754 277.419 348.653 284.534C365.297 296.496 387.888 304.079 408.416 295.581C426.296 288.184 440.292 271.472 462.056 275.433C474.875 277.76 482.886 288.301 493.767 294.073C504.338 299.689 513.984 297.168 525.031 293.654" stroke="white" stroke-width="0.2" stroke-linecap="round" stroke-linejoin="round"/>
<path d="M63.6807 299.777C81.3175 310.162 100.843 316.508 121.029 319.973C130.13 321.54 138.54 321.005 147.572 321.472C164.839 322.368 163.807 323.828 179.692 315.837C188.16 311.573 198.186 305.149 206.741 302.122C211.15 297.246 216.572 296.409 223.015 299.611C226.636 299.358 230.267 299.105 233.887 298.862C238.569 293.606 244.01 289.449 250.23 286.383C255.165 283.045 260.625 280.913 266.591 279.989C276.004 276.718 283.712 274.373 293.893 273.954C302.284 273.604 313.058 272.465 321.195 273.545C332.778 275.093 339.046 283.911 348.468 289.605C364.947 299.562 389.65 307.154 408.056 297.645C425.021 288.875 440.653 275.959 461.472 277.701C488.716 279.979 493.378 307.203 524.106 296.37" stroke="white" stroke-width="0.2" stroke-linecap="round" stroke-linejoin="round"/>
<path d="M64.625 302.891C82.2618 312.118 101.787 320.226 121.653 323.146C143.212 326.319 160.683 325.667 180.033 317.267C183.634 316.216 187.236 315.155 190.837 314.104C195.821 309.422 201.213 305.305 207.014 301.752C216.231 298.531 224.349 302.891 234.073 298.696C245.334 293.829 254.707 286.802 266.679 282.198C275.916 278.645 283.995 277.964 293.903 277.711C301.729 277.516 313.818 275.764 321.118 277.701C331.503 280.456 338.862 289.79 348.303 294.336C365.521 302.638 390.39 309.471 407.705 299.377C423.269 290.296 441.655 279.22 460.898 280.475C487.421 282.218 493.622 311.057 523.182 299.066" stroke="white" stroke-width="0.2" stroke-linecap="round" stroke-linejoin="round"/>
<path d="M65.5977 305.772C101.679 323.02 142.666 336.228 180.393 319.564C190.603 315.058 197.241 305.003 207.305 301.859C216.883 298.871 224.124 303.387 234.267 299.28C255.252 290.783 270.582 281.526 293.903 281.429C302.127 281.39 313.262 279.745 321.02 282.509C330.909 286.023 338.16 294.968 348.127 298.647C366.474 305.412 390.068 311.301 407.315 300.935C422.383 291.883 441.986 283.298 460.275 283.639C486.263 284.125 493.076 314.454 522.208 301.743" stroke="white" stroke-width="0.2" stroke-linecap="round" stroke-linejoin="round"/>
<path d="M66.6006 308.39C101.173 324.227 143.825 340.063 180.753 322.922C191.557 317.91 196.443 305.977 207.598 303.027C216.942 300.555 224.709 303.864 234.462 300.915C256.157 294.355 270.64 285.167 293.903 285.167C302.906 285.167 312.358 283.843 320.913 287.61C330.812 291.97 337.216 299.845 347.943 302.745C367.312 307.982 389.163 312.761 406.917 302.473C421.342 294.112 442.531 286.928 459.642 286.821C478.301 286.714 475.225 292.817 490.692 303.553C500.522 310.376 510.431 309.208 521.206 304.409" stroke="white" stroke-width="0.2" stroke-linecap="round" stroke-linejoin="round"/>
<path d="M67.6328 310.746C84.6467 318.63 104.658 330.582 123.648 331.419C132.126 331.789 141.139 330.874 149.685 330.592C159.603 330.261 171.702 331.137 181.162 326.154C192.005 320.431 195.782 307.845 207.9 305.042C216.709 303.008 225.469 305.733 234.676 303.641C246.989 300.837 255.155 293.927 266.952 290.238C275.469 287.571 285.192 288.856 293.913 288.904C303.676 288.953 311.638 287.921 320.836 292.671C330.666 297.752 336.516 304.127 347.768 306.366C367.984 310.386 388.025 313.89 406.518 304.118C420.242 296.866 443.164 289.946 458.991 290.014C477.387 290.092 474.564 296.876 489.865 307.028C499.764 313.598 509.594 311.671 520.174 307.086" stroke="white" stroke-width="0.2" stroke-linecap="round" stroke-linejoin="round"/>
<path d="M68.7031 313.062C85.5905 321.024 105.573 333.425 124.358 333.678C132.924 333.794 141.83 333.454 150.268 333.298C159.369 333.133 173.21 333.366 181.59 328.626C192.287 322.572 195.392 310.61 208.201 307.865C216.776 306.025 225.965 309.091 234.88 307.368C246.989 305.023 255.311 296.963 267.039 293.829C275.507 291.562 285.28 292.506 293.903 292.584C315.317 292.778 327.561 306.434 347.544 309.539C368.451 312.78 386.769 314.61 406.08 305.918C419.103 300.049 443.884 292.438 458.299 293.138C475.654 293.975 474.525 302.852 488.998 310.833C499.384 316.566 508.387 314.084 519.103 309.704" stroke="white" stroke-width="0.2" stroke-linecap="round" stroke-linejoin="round"/>
<path d="M69.793 315.379C86.9139 323.584 106.03 335.634 125.088 335.576C133.887 335.546 142.316 335.799 150.872 335.936C160.8 336.091 173.21 336.267 182.067 330.797C192.238 324.509 195.557 314.503 208.532 311.739C217.243 309.88 226.412 313.51 235.104 311.515C246.755 308.838 255.271 300.409 267.136 297.947C275.595 296.195 285.338 296.311 293.903 296.263C314.703 296.126 327.571 309.889 347.329 312.654C368.373 315.603 385.912 315.223 405.642 308.059C418.178 303.504 444.4 294.929 457.598 296.379C472.519 298.015 475.634 308.935 488.112 314.97C498.498 319.992 507.764 316.411 518.013 312.332" stroke="white" stroke-width="0.2" stroke-linecap="round" stroke-linejoin="round"/>
<path d="M70.9609 317.783C88.6561 326.397 106.127 337.289 125.876 337.308C143.348 337.328 167.204 343.868 182.583 333.035C191.995 326.397 196.492 318.825 208.873 316.206C217.555 314.367 226.792 317.365 235.337 315.009C247.222 311.739 254.853 305.295 267.243 302.881C275.556 301.256 285.454 300.623 293.903 300.195C314.061 299.173 327.863 312.537 347.086 315.564C367.672 318.815 385.562 316.576 405.165 310.688C417.954 306.843 443.709 298.307 456.849 300.302C469.736 302.258 475.79 314.96 487.168 319.438C497.466 323.487 507.16 318.786 516.845 315.029" stroke="white" stroke-width="0.2" stroke-linecap="round" stroke-linejoin="round"/>
<path d="M72.1582 320.178C90.4569 329.327 106.254 338.612 126.684 339.002C145.742 339.362 166.202 347.47 183.138 335.556C191.868 329.405 198.195 323.146 209.242 320.674C217.934 318.727 226.977 320.674 235.6 317.939C249.363 313.559 253.227 310.688 267.37 308.926C276.432 307.797 284.851 305.616 293.922 304.478C313.418 302.025 328.369 314.542 346.862 318.241C367.01 322.26 385.182 318.387 404.688 313.812C417.818 310.736 442.92 301.373 456.09 304.526C468.237 307.427 474.271 320.625 486.214 324.003C496.278 326.855 506.576 321.219 515.667 317.725" stroke="white" stroke-width="0.2" stroke-linecap="round" stroke-linejoin="round"/>
<path d="M73.3848 322.582C92.1506 332.072 106.663 339.849 127.531 340.832C148.4 341.815 164.469 350.507 183.712 338.574C191.985 333.444 200.123 327.585 209.622 324.966C218.353 322.562 227.123 323.419 235.854 320.401C252.06 314.795 250.862 314.182 267.477 316.031C277.921 317.199 284.189 311.096 293.903 308.916C312.747 304.682 328.768 316.245 346.58 320.654C366.202 325.511 384.783 321.268 404.143 317.238C417.672 314.425 441.801 304.575 455.253 308.692C467.302 312.381 472.364 326.086 485.183 328.441C494.643 330.183 506.129 323.633 514.422 320.372" stroke="white" stroke-width="0.2" stroke-linecap="round" stroke-linejoin="round"/>
<path d="M74.6504 324.986C93.5525 334.67 107.452 341.104 128.398 342.963C150.191 344.9 163.535 353.543 184.277 342.379C202.04 332.821 217.633 329.327 236.126 322.64C253.559 316.333 250.853 321.336 267.604 324.178C278.369 326.008 284.628 317.082 293.913 313.88C312.484 307.466 328.593 317.89 346.356 322.932C365.852 328.461 384.131 324.46 403.627 320.693C417.546 317.997 440.692 307.875 454.435 312.722C466.349 316.917 470.982 330.816 484.161 332.685C492.648 333.882 505.847 326.008 513.176 323.039" stroke="white" stroke-width="0.2" stroke-linecap="round" stroke-linejoin="round"/>
<path d="M75.9346 327.39C94.7004 337.133 108.6 342.554 129.273 345.416C150.258 348.326 164.333 357.369 184.821 346.954C202.069 338.184 217.428 329.745 236.389 324.762C254.794 319.924 250.95 330.135 267.71 333.064C278.213 334.904 285.62 323.117 293.893 319.175C312.201 310.464 328.086 319.418 346.112 325.064C365.842 331.244 383.148 327.896 403.072 324.1C417.195 321.414 439.64 311.184 453.578 316.411C465.141 320.752 470.057 334.943 483.09 336.461C490.818 337.357 505.204 328.451 511.871 325.648" stroke="white" stroke-width="0.2" stroke-linecap="round" stroke-linejoin="round"/>
<path d="M77.2588 329.794C95.7424 339.518 110.002 344.18 130.179 348.034C149.276 351.675 166.163 361.651 185.377 352.103C202.001 343.849 217.643 330.689 236.671 327.098C254.561 323.711 252.225 341.26 267.837 342.311C277.921 342.992 286.341 329.2 293.894 324.713C311.842 314.055 327.415 320.83 345.909 327.137C366.134 334.038 381.863 331.497 402.518 327.507C416.68 324.772 438.696 314.474 452.703 319.72C464.013 323.954 469.249 338.028 482 339.42C489.611 340.248 504.027 331.098 510.538 328.266" stroke="white" stroke-width="0.2" stroke-linecap="round" stroke-linejoin="round"/>
<path d="M78.6113 332.198C96.6277 341.815 111.568 346.136 131.103 350.847C148.808 355.12 167.983 365.846 185.931 356.347C200.959 348.394 218.849 331.877 236.963 330.164C253.403 328.607 253.003 351.519 267.973 351.373C277.152 351.276 287.158 335.021 293.903 330.388C311.462 318.318 326.685 322.348 345.704 329.385C366.377 337.036 380.569 335.177 401.953 330.913C416.008 328.11 437.839 317.734 451.826 322.64C463.136 326.611 468.363 339.907 480.909 341.396C489.202 342.379 502.216 334.018 509.204 330.884" stroke="white" stroke-width="0.2" stroke-linecap="round" stroke-linejoin="round"/>
<path d="M79.9844 334.593C97.4752 344.063 113.146 348.443 132.048 353.845C148.926 358.673 169.881 370.11 186.496 359.5C195.646 353.66 201.155 348.648 211.725 344.715C217.536 342.554 230.978 333.765 237.246 333.999C252.644 334.573 251.963 361.116 268.091 359.598C276.588 358.799 287.548 340.9 293.884 336.111C311.141 323.088 325.936 324.032 345.451 331.848C366.417 340.257 379.323 338.778 401.34 334.232C415.23 331.371 436.954 320.859 450.883 325.122C462.105 328.558 467.712 341.017 479.742 342.798C488.989 344.17 499.987 337.036 507.794 333.415" stroke="white" stroke-width="0.2" stroke-linecap="round" stroke-linejoin="round"/>
<path d="M81.3955 336.997C98.4386 346.35 114.684 350.964 133.041 356.862C150.512 362.469 171.088 373.905 187.109 361.71C196.229 354.77 201.067 352.375 212.202 348.91C218.275 347.022 231.046 338.408 237.567 339.235C252.663 341.153 249.841 370.392 268.246 366.177C277.152 364.133 286.964 347.372 293.894 341.912C311.151 328.334 325.177 326.134 345.188 334.816C366.134 343.907 378.408 342.272 400.727 337.571C414.762 334.612 435.718 324.217 449.938 327.351C461.093 329.804 467.332 341.717 478.584 343.937C488.697 345.932 497.651 340.228 506.402 335.994" stroke="white" stroke-width="0.2" stroke-linecap="round" stroke-linejoin="round"/>
<path d="M82.8359 339.391C99.3923 348.774 116.153 353.689 134.043 359.86C141.995 362.605 150.015 365.428 158.172 367.52C173.044 371.326 175.098 373.273 187.722 363.257C196.765 356.084 201.602 356.084 212.679 353.485C219.112 351.976 230.841 344.024 237.888 346.701C252.498 352.258 249.072 377.662 268.402 371.384C277.668 368.377 286.389 353.67 293.913 347.791C311.511 334.038 324.427 328.879 344.925 338.496C365.395 348.093 378.145 345.64 400.123 340.909C414.061 337.912 434.852 327.292 448.994 329.434C460.402 331.157 466.777 342.223 477.406 344.949C487.85 347.616 495.675 343.489 504.971 338.554" stroke="white" stroke-width="0.2" stroke-linecap="round" stroke-linejoin="round"/>
<path d="M84.3154 341.786C100.317 351.305 117.613 356.609 135.075 362.839C142.9 365.632 150.901 368.786 159.019 370.664C175.205 374.402 174.563 374.178 188.355 364.367C197.28 358.011 202.877 360.055 213.165 358.4C222.266 356.931 228.914 350.799 238.199 355.626C252.712 363.17 249.033 383.473 268.558 375.726C277.872 372.027 285.912 359.773 293.913 353.874C301.155 348.54 310.937 340.987 319.259 337.97C330.257 333.979 334.637 337.824 344.614 342.808C364.188 352.59 378.437 348.969 399.49 344.219C413.458 341.065 433.888 330.407 448.011 331.507C472.461 333.415 477.075 356.843 503.511 341.085" stroke="white" stroke-width="0.2" stroke-linecap="round" stroke-linejoin="round"/>
<path d="M85.8145 344.17C101.203 353.894 119.112 359.549 136.116 365.788C143.738 368.581 151.845 372.28 159.875 373.769C177.794 377.098 172.967 373.039 188.988 365.36C197.495 361.281 204.804 364.493 213.642 363.637C224.982 362.527 228.632 357.252 238.501 365.35C250.561 375.229 251.67 386.423 268.694 379.23C277.746 375.395 285.679 365.642 293.903 360.289C302.099 354.955 310.723 348.443 319.084 343.654C330.364 337.191 333.586 342.292 344.283 347.625C363.321 357.125 378.72 352.473 398.829 347.479C412.923 343.975 432.779 333.687 446.999 333.736C469.824 333.814 477.776 359.977 502.002 343.567" stroke="white" stroke-width="0.2" stroke-linecap="round" stroke-linejoin="round"/>
<path d="M87.3428 346.545C102.128 356.473 120.611 362.459 137.177 368.718C144.429 371.462 152.945 375.949 160.752 376.864C177.96 378.889 173.921 371.433 189.65 366.664C197.086 364.416 206.673 369.165 214.139 369.136C226.919 369.087 228.895 366.245 238.823 375.307C250.532 385.994 253.676 388.836 268.84 381.994C277.483 378.101 285.572 371.667 293.913 367.17C303.471 362.021 309.886 355.977 318.909 349.845C330.014 342.301 332.866 347.927 343.952 352.813C363.497 361.427 378.428 356.463 398.157 350.721C412.29 346.604 431.552 337.376 445.967 336.403C467.108 334.982 478.418 362.488 500.464 346.019" stroke="white" stroke-width="0.2" stroke-linecap="round" stroke-linejoin="round"/>
<path d="M88.8994 348.92C103.519 358.838 121.905 365.262 138.286 371.628C145.002 374.236 154.298 379.677 161.666 379.94C175.721 380.437 177.307 370.314 190.35 368.708C196.862 367.9 208.045 373.886 214.664 374.694C227.57 376.28 229.235 376.923 239.182 384.943C251.271 394.686 256.021 390.17 269.005 384.145C277.152 380.368 285.688 377.974 293.922 374.616C305.427 369.915 308.542 364.085 318.684 356.347C329.264 348.278 332.457 354.264 343.611 358.176C364.781 365.603 377.259 361.116 397.456 353.952C411.141 349.105 430.646 341.007 444.896 339.352C464.898 337.036 478.466 364.279 498.916 348.492" stroke="white" stroke-width="0.2" stroke-linecap="round" stroke-linejoin="round"/>
<path d="M90.4863 351.285C105.213 361.067 123.044 367.988 139.396 374.519C145.519 376.962 155.758 383.288 162.581 382.987C173.765 382.5 179.877 370.392 191.041 371.881C198.098 372.815 208.318 378.48 215.19 380.271C225.848 383.055 230.286 389.576 239.543 393.82C252.371 399.689 257.705 390.997 269.151 386.403C277.376 383.103 285.62 384.632 293.923 382.451C307.053 378.996 307.569 372.115 318.052 363.189C327.941 354.77 332.058 360.386 343.164 363.549C349.967 365.486 360.538 369.379 367.75 369.117C380.929 368.649 385.153 362.508 396.755 357.252C409.088 351.665 430.481 344.092 443.816 342.282C463.244 339.644 477.854 365.837 497.32 350.935" stroke="white" stroke-width="0.2" stroke-linecap="round" stroke-linejoin="round"/>
<path d="M92.0918 353.689C107.13 363.179 124.114 370.655 140.525 377.4C146.501 379.853 156.702 386.14 163.496 385.459C175.896 384.233 178.261 372.261 191.742 375.911C198.925 377.857 208.775 383.58 215.725 386.267C223.57 389.294 231.96 399.368 239.941 401.519C251.193 404.556 259.972 392.331 269.297 389.255C278.3 386.286 285.172 391.679 293.932 390.462C306.692 388.681 308.532 380.252 317.448 371.278C326.461 362.216 330.909 365.399 342.53 368.377C349.402 370.139 360.372 375.881 367.253 375.833C381.094 375.735 384.705 367.404 396.044 361.077C407.062 354.935 430.267 346.779 442.725 345.212C462.056 342.769 476.627 367.17 495.704 353.475" stroke="white" stroke-width="0.2" stroke-linecap="round" stroke-linejoin="round"/>
<path d="M93.7373 356.025C109.028 365.272 125.225 373.292 141.684 380.242C148.156 382.977 156.994 388.214 164.44 387.211C178.787 385.294 176.84 374.334 192.462 380.495C200.006 383.473 208.922 388.681 216.29 392.37C223.609 396.039 231.698 406.648 240.389 407.661C250.872 408.877 260.343 395.105 269.453 392.72C279.391 390.121 284.666 398.94 293.942 398.356C305.136 397.645 309.788 388.447 316.981 380.154C325.021 370.878 329.294 369.603 341.84 372.533C349.559 374.334 359.146 382.938 366.757 383.084C380.501 383.347 384.998 372.27 395.334 365.399C405.652 358.537 429.274 349.65 441.636 348.453C460.684 346.604 475.508 368.465 494.089 355.899" stroke="white" stroke-width="0.2" stroke-linecap="round" stroke-linejoin="round"/>
<path d="M95.4111 358.322C110.731 367.53 126.46 375.949 142.861 383.074C150.366 386.335 157.023 389.819 165.404 388.603C180.782 386.374 176.869 377.731 193.182 385.43C206.021 391.484 227.327 413.102 240.808 412.313C252.079 411.651 259.048 398.862 269.579 396.886C279.731 394.988 284.491 406.133 293.922 405.879C315.346 405.286 316.601 372.377 340.876 376.971C350.532 378.801 356.878 389.508 366.222 390.725C378.32 392.311 386.847 376.417 394.575 370.197C404.668 362.079 427.337 352.95 440.477 352.161C458.941 351.052 474.456 369.905 492.385 358.274" stroke="white" stroke-width="0.2" stroke-linecap="round" stroke-linejoin="round"/>
<path d="M97.1045 360.6C112.23 369.983 127.726 378.743 144.058 385.878C163.525 394.384 175.322 381.137 193.922 390.472C208.181 397.626 225.779 418.718 241.226 416.586C251.719 415.146 259.262 402.755 269.745 402.045C279.673 401.373 284.481 412.372 293.922 412.634C302.702 412.878 310.333 404.673 316.25 398.161C318.84 394.764 321.429 391.357 324.008 387.96C328.018 378.539 333.264 376.378 339.747 381.498C350.093 383.006 355.476 397.246 365.696 398.414C377.055 399.718 387.314 381.459 393.825 375.327C404.24 365.525 424.69 356.376 439.329 356.171C457.17 355.928 473.395 371.492 490.701 360.551" stroke="white" stroke-width="0.2" stroke-linecap="round" stroke-linejoin="round"/>
<path d="M98.8281 362.868C113.516 372.523 129.06 381.848 145.295 388.652C154.483 392.506 158.377 392 167.429 391.27C182.35 390.073 180.043 388.175 194.701 395.436C210.596 403.31 223.678 424.129 241.655 420.703C251.826 418.766 259.136 408.157 269.93 408.021C279.187 407.904 284.725 417.997 293.894 418.27C302.119 418.513 310.051 412.206 315.969 406.463C318.539 403.339 321.099 400.215 323.668 397.09C326.384 384.359 331.455 381.069 338.891 387.221C348.975 388.583 354.941 406.376 365.132 405.841C376.773 405.237 386.273 387.873 393.028 380.748C404.143 369.029 421.537 359.851 438.132 360.425C455.545 361.028 472.111 373.351 488.979 362.809" stroke="white" stroke-width="0.2" stroke-linecap="round" stroke-linejoin="round"/>
<path d="M100.58 365.146C114.693 374.947 130.471 385.177 146.541 391.426C155.632 394.959 159.876 393.07 168.47 393.012C181.357 392.924 183.537 393.82 195.461 400.224C211.647 408.907 222.188 429.055 242.044 424.811C252.605 422.553 258.649 414.046 270.115 414.474C278.69 414.786 285.007 422.971 293.865 423.185C301.603 423.37 309.827 419.039 315.755 414.085C318.305 411.243 320.855 408.391 323.405 405.549C325.537 393.178 330.481 389.528 338.229 394.618C348.868 395.523 353.997 413.695 364.577 412.751C375.138 411.807 386.477 392.993 392.249 386.413C404.309 372.65 418.091 363.432 436.935 364.931C454.221 366.304 470.622 375.473 487.227 365.068" stroke="white" stroke-width="0.2" stroke-linecap="round" stroke-linejoin="round"/>
<path d="M102.361 367.423C115.949 377.186 131.951 388.515 147.806 394.151C156.284 397.158 161.579 394.599 169.551 395.192C180.063 395.981 187.012 399.387 196.249 404.653C213.136 414.27 220.797 433.542 242.453 428.879C253.559 426.485 258.416 420.197 270.329 420.995C278.428 421.54 285.299 427.361 293.894 427.419C301.447 427.468 309.282 424.889 315.619 420.82C324.739 414.97 326.033 403.368 338.073 403.407C348.877 403.437 353.549 419.857 364.023 418.669C373.912 417.54 386.234 398.472 391.451 392.194C404.435 376.572 414.801 367.053 435.718 369.555C453.121 371.628 469.006 377.721 485.446 367.297" stroke="white" stroke-width="0.2" stroke-linecap="round" stroke-linejoin="round"/>
<path d="M104.161 369.701C117.33 379.424 133.41 391.562 149.09 396.691C156.809 399.212 163.223 396.789 170.64 397.937C179.001 399.232 189.824 404.332 197.037 408.624C214.693 419.136 219.686 437.182 242.832 432.928C254.239 430.836 258.6 426.563 270.523 427.361C278.427 427.896 285.474 431.215 293.893 431.001C301.29 430.816 308.814 429.921 315.52 426.641C324.115 422.426 327.142 412.42 337.985 411.973C348.117 411.554 353.315 424.48 363.438 423.146C373.628 421.793 385.231 404.711 390.633 398.025C404.444 380.913 411.939 370.927 434.481 374.246C452.157 376.845 467.37 380.028 483.644 369.506" stroke="white" stroke-width="0.2" stroke-linecap="round" stroke-linejoin="round"/>
<path d="M106.001 371.978C118.898 381.721 134.821 394.297 150.404 399.125C166.581 404.128 182.32 402.794 197.874 412.401C215.774 423.458 219.248 439.897 243.251 436.987C254.249 435.654 259.505 432.88 270.757 433.405C278.709 433.775 285.6 435.08 293.903 434.515C301.106 434.028 308.639 434.116 315.511 431.634C323.697 428.675 328.194 420.606 337.946 420.11C347.144 419.633 353.286 427.906 362.864 426.368C374.213 424.548 383.372 411.934 389.815 403.884C404.396 385.683 409.486 375.258 433.226 379.006C451.203 381.848 465.784 382.383 481.805 371.735" stroke="white" stroke-width="0.2" stroke-linecap="round" stroke-linejoin="round"/>
<path d="M107.851 374.207C120.562 384.087 136.233 396.769 151.758 401.509C167.623 406.356 184.238 406.707 198.75 416.771C215.861 428.626 220.193 442.272 243.67 440.949C260.382 440.005 277.23 439.79 293.894 437.912C300.979 437.114 308.649 437.532 315.579 435.751C323.522 433.717 329.167 427.994 338.024 427.546C346.551 427.108 353.539 431.215 362.231 429.444C374.291 426.991 381.406 418.903 388.93 409.646C395.539 401.509 401.038 388.797 410.684 384.203C418.626 380.427 423.551 382.49 431.912 383.687C450.269 386.315 464.091 384.807 479.946 373.964" stroke="white" stroke-width="0.2" stroke-linecap="round" stroke-linejoin="round"/>
<path d="M109.738 376.407C122.411 386.559 137.566 398.842 153.11 403.855C168.946 408.955 185.765 410.873 199.626 421.55C215.52 433.795 222.1 444.657 244.087 444.832C260.624 444.969 277.56 443.528 293.903 441.211C308.483 439.148 323.638 434.778 338.102 433.765C359.466 432.257 372.957 433.24 388.092 415.253C403.393 397.061 406.225 385.78 430.627 388.389C449.295 390.374 462.455 387.347 478.067 376.173" stroke="white" stroke-width="0.2" stroke-linecap="round" stroke-linejoin="round"/>
<path d="M111.646 378.597C124.397 389.109 138.871 400.584 154.483 406.181C170.514 411.943 187.09 415.116 200.522 426.456C214.761 438.476 224.835 447.246 244.526 448.541C261.365 449.65 277.444 446.935 293.913 444.385C323.191 439.849 365.891 444.55 387.236 420.655C402.663 403.397 405.408 391.737 429.323 393.022C448.03 394.034 460.976 389.975 476.17 378.373" stroke="white" stroke-width="0.2" stroke-linecap="round" stroke-linejoin="round"/>
<path d="M113.583 380.758C126.343 391.601 140.272 402.405 155.865 408.576C171.934 414.931 188.549 419.224 201.417 431.254C228.884 456.94 259.71 452.804 293.903 447.441C322.314 442.983 364.557 448.103 386.35 425.794C401.875 409.909 404.872 397.888 427.979 397.587C446.609 397.343 459.476 392.662 474.222 380.573" stroke="white" stroke-width="0.2" stroke-linecap="round" stroke-linejoin="round"/>
<path d="M115.54 382.889C128.242 394.005 141.771 404.351 157.267 411.077C173.667 418.202 188.968 423.633 202.322 435.751C229.965 460.824 260.761 455.383 293.894 450.38C322.412 446.069 361.949 450.614 385.445 430.583C401.564 416.839 404.27 404.021 426.617 402.035C445.052 400.39 457.92 395.309 472.257 382.753" stroke="white" stroke-width="0.2" stroke-linecap="round" stroke-linejoin="round"/>
<path d="M117.525 385.001C143.669 408.546 176.597 418.173 203.286 439.82C215.628 449.825 230.413 455.432 245.908 458.089C263.934 461.175 276.48 455.646 293.903 453.242C322.149 449.358 360.197 453.028 384.52 434.943C400.454 423.088 404.396 409.802 425.225 406.269C443.524 403.164 456.06 397.713 470.281 384.894" stroke="white" stroke-width="0.2" stroke-linecap="round" stroke-linejoin="round"/>
<path d="M119.54 387.094C145.071 410.785 176.996 422.708 204.21 443.372C216.718 452.862 231.094 458.323 246.375 461.087C264.362 464.348 276.471 458.157 293.903 456.113C322.208 452.804 358.503 455.091 383.596 438.759C399.023 428.724 404.921 415.165 423.833 410.415C441.84 405.899 454.201 400.049 468.266 387.007" stroke="white" stroke-width="0.2" stroke-linecap="round" stroke-linejoin="round"/>
<path d="M121.574 389.158C146.394 412.897 177.551 426.689 205.145 446.331C218.139 455.588 231.22 461.184 246.862 464.056C264.586 467.316 276.636 460.561 293.903 458.975C322.869 456.318 356.255 456.571 382.671 442.136C397.66 433.941 405.447 420.188 422.432 414.532C439.981 408.692 452.42 402.23 466.241 389.109" stroke="white" stroke-width="0.2" stroke-linecap="round" stroke-linejoin="round"/>
</g>
<defs>
<clipPath id="clip0_1067_77235">
<rect width="494.95" height="531.148" fill="white" transform="translate(42.7734 -65.72)"/>
</clipPath>
</defs>
</svg>
