<svg width="367" height="324" viewBox="0 0 367 324" fill="none" xmlns="http://www.w3.org/2000/svg">
<g opacity="0.4">
<g clip-path="url(#clip0_1067_76883)">
<path d="M-287.975 -15.38C-276.745 -15.8178 -268.532 -8.54031 -257.681 -7.46347C-240.357 -5.73581 -221.85 -16.0308 -206.289 -23.8408C-179.771 -37.1415 -160.719 -46.478 -131.029 -51.7438C-108.143 -55.8027 -83.8141 -55.1282 -61.0941 -59.7195C-33.2385 -65.364 -14.4708 -88.4508 16.7455 -81.6348C49.6422 -74.452 55.8902 -30.7633 86.716 -19.9713C107.637 -12.6465 134.665 -17.1905 156.864 -17.0367C170.39 -16.942 182.743 -16.9183 195.784 -13.5222C207.866 -10.3745 222.799 0.512169 234.704 1.31684C248.288 2.23984 254.643 -10.1852 265.837 -13.2145C280.297 -17.1313 300.071 -5.60566 312.531 -0.268827" stroke="#191919" stroke-width="0.2" stroke-linecap="round" stroke-linejoin="round"/>
<path d="M-287.537 -11.7235C-275.976 -11.1081 -267.704 -3.59399 -256.427 -2.15032C-241.375 -0.23332 -227.459 -6.51681 -213.567 -12.4926C-197.249 -19.5098 -183.7 -32.6448 -167.145 -38.6917C-157.37 -42.2653 -145.3 -42.8925 -135.053 -44.6557C-121.811 -46.9395 -108.487 -49.0932 -95.281 -51.2823C-82.6903 -53.365 -67.2715 -52.2408 -55.2133 -56.2642C-30.7065 -64.441 -11.6903 -81.0786 16.757 -76.2743C50.9435 -70.5115 57.5939 -27.024 88.609 -14.7765C108.394 -6.9665 140.096 -12.3388 160.662 -12.256C171.502 -12.2205 181.95 -12.469 192.648 -10.6703C206.008 -8.41017 219.521 1.94399 232.621 2.81966C245.803 3.70716 253.376 -7.98415 264.606 -10.694C279.54 -14.3032 299.586 -3.54665 312.579 1.88485" stroke="#191919" stroke-width="0.2" stroke-linecap="round" stroke-linejoin="round"/>
<path d="M-286.626 -8.05514C-275.278 -6.35114 -266.923 0.784362 -255.694 2.59486C-240.571 5.0207 -225.53 0.180843 -211.543 -5.52282C-182.777 -17.2733 -166.695 -34.621 -135.088 -38.6088C-121.326 -40.3483 -108.688 -44.1587 -95.2455 -46.8212C-82.1105 -49.4245 -68.088 -47.7797 -55.2133 -52.4302C-44.1728 -56.4298 -35.4872 -64.3345 -23.2278 -65.7072C-17.9028 -65.4232 -12.566 -65.1392 -7.24098 -64.8552C0.43885 -68.3223 8.43817 -70.3577 16.7452 -70.9375C50.908 -69.8962 60.9071 -27.9706 88.5025 -12.7175C108.027 -1.91364 139.433 -7.45167 160.65 -7.49901C171.324 -7.52267 182.009 -7.99598 192.636 -6.69431C205.854 -5.08498 219.628 4.19234 232.609 4.38167C244.217 4.54734 253.885 -5.66483 264.594 -7.6765C279.812 -10.5402 298.97 -1.49949 312.567 3.68351" stroke="#191919" stroke-width="0.2" stroke-linecap="round" stroke-linejoin="round"/>
<path d="M-285.466 -4.36315C-274.331 -1.62965 -265.704 4.85501 -254.427 6.86667C-239.375 9.55284 -224.003 6.38152 -209.969 1.15119C-181.687 -9.39231 -166.15 -29.5918 -135.123 -32.9998C-120.426 -34.6092 -109.256 -40.0643 -95.1977 -43.1765C-81.2935 -46.2532 -69.2235 -44.0167 -55.2128 -49.1642C-43.202 -53.578 -36.5635 -57.767 -23.2392 -56.9623C-17.9142 -56.2168 -12.5773 -55.4713 -7.25233 -54.7258C0.238167 -59.4237 8.22567 -62.8317 16.7338 -64.938C50.4588 -69.198 64.2802 -29.2131 88.3965 -11.6051C108.336 2.94986 137.304 -2.64734 160.627 -2.76568C171.23 -2.81301 182.022 -3.39282 192.601 -2.55265C205.724 -1.51132 219.569 6.12116 232.574 5.74249C243.2 5.43483 253.969 -2.31601 264.548 -3.75967C280.783 -5.97251 297.421 0.322825 312.508 5.18633" stroke="#191919" stroke-width="0.2" stroke-linecap="round" stroke-linejoin="round"/>
<path d="M-284.318 -0.564663C-257.279 8.00267 -237.896 17.0788 -208.727 7.49383C-181.144 -1.5705 -164.979 -24.0183 -135.112 -27.8168C-119.374 -29.8167 -109.942 -36.5616 -95.1389 -40.088C-80.9389 -43.4723 -69.8155 -41.4133 -55.1895 -46.1703C-40.5399 -50.9273 -37.7709 -49.815 -23.2159 -46.194C-4.42453 -41.508 -0.306523 -52.9272 16.7453 -58.0392C50.3401 -68.1212 66.1968 -30.8462 88.337 -11.2147C109.116 7.198 134.38 2.27534 160.615 1.95584C171.229 1.82568 181.986 1.15115 192.589 1.63632C205.7 2.23982 219.462 8.07366 232.55 7.269C243.081 6.61816 253.72 1.24582 264.512 0.310992C281.386 -1.15634 296.237 2.55934 312.448 6.65367" stroke="#191919" stroke-width="0.2" stroke-linecap="round" stroke-linejoin="round"/>
<path d="M-283.194 3.2575C-256.842 12.7242 -229.317 23.528 -201.071 11.742C-189.865 7.06782 -180.055 -1.68883 -169.961 -8.2445C-157.039 -16.6343 -145.443 -19.1785 -131.041 -23.3438C-118.723 -26.9057 -105.02 -37.3545 -92.1688 -39.0822C-81.4833 -40.514 -72.1587 -37.8752 -61.0472 -40.7034C-55.8642 -42.3245 -50.6693 -43.9457 -45.4863 -45.5668C-37.3805 -42.6203 -29.5942 -38.9994 -22.1392 -34.7039C-16.9562 -29.1422 -11.7732 -29.1304 -6.57834 -34.6684C2.26116 -38.7272 10.0475 -44.3717 16.7688 -51.6137C47.8787 -68.7129 67.4983 -32.3135 86.5973 -13.2382C99.6021 -0.245167 106.371 6.7365 125.695 7.17433C136.037 7.411 146.462 6.91401 156.816 6.73651C181.808 6.29867 210.208 11.4817 234.597 8.86649C261.79 5.95549 284.711 3.25749 312.33 8.23933" stroke="#191919" stroke-width="0.2" stroke-linecap="round" stroke-linejoin="round"/>
<path d="M-282.105 7.056C-257.764 16.5582 -227.211 26.6638 -200.976 17.9782C-189.77 14.2625 -179.605 5.86084 -169.89 -0.552826C-157.205 -8.91899 -144.815 -13.108 -131.017 -18.7288C-118.876 -23.6752 -105.765 -35.0943 -92.145 -36.1712C-81.1281 -37.0468 -72.5016 -34.763 -61.047 -37.1178C-55.864 -38.1828 -50.681 -39.2478 -45.4862 -40.3128C-38.9778 -32.4792 -31.1915 -26.4323 -22.1508 -22.1723C-16.5182 -15.9717 -11.3352 -16.4687 -6.59 -23.6515C1.8945 -29.5208 9.66902 -36.2421 16.7454 -43.8155C47.8315 -64.5356 67.2382 -34.0885 86.6922 -12.753C99.0225 0.77251 105.992 10.7007 125.636 12.0142C135.753 12.6887 146.604 11.9195 156.734 11.4461C182.483 10.2628 208.978 13.4815 234.455 11.2923C260.772 9.02031 285.622 7.24531 312.117 10.0735" stroke="#191919" stroke-width="0.2" stroke-linecap="round" stroke-linejoin="round"/>
<path d="M-281.064 10.7835C-257.918 19.8005 -225.933 29.6814 -200.846 23.7765C-177.759 18.345 -151.395 -3.15615 -130.947 -14.5398C-117.883 -21.8173 -108.097 -32.4791 -92.098 -32.5146C-81.0811 -32.5383 -72.147 -32.065 -61 -32.8933C-39.3568 -34.5027 -40.5875 -12.611 -22.1275 -9.73548C-15.844 -3.92532 -10.661 -5.10864 -6.57846 -13.3091C1.44454 -20.5511 9.21905 -28.0535 16.745 -35.8162C47.8549 -58.8912 66.3504 -35.4493 86.7629 -11.7117C107.554 12.4638 124.712 19.3745 156.662 16.1559C206.777 11.1149 261.127 9.87236 311.904 12.239" stroke="#191919" stroke-width="0.2" stroke-linecap="round" stroke-linejoin="round"/>
<path d="M-280.07 14.4045C-257.185 22.5695 -225.4 32.6515 -200.692 29.1015C-177.014 25.6935 -149.3 2.71316 -130.864 -10.5993C-116.569 -20.918 -111.185 -29.9468 -92.0386 -28.1127C-81.5543 -27.1068 -70.8925 -28.9765 -60.9643 -27.9707C-40.753 -25.9235 -40.5282 0.772507 -22.1155 1.43517C-4.75599 2.06234 2.75819 -16.6225 16.7452 -27.663C24.3895 -33.698 37.56 -42.289 47.8313 -42.2417C67.0723 -42.147 76.2787 -22.3025 86.7867 -9.83015C106.229 13.2685 125.079 26.0958 156.592 20.4868C183.82 15.6352 206.41 19.3982 234.183 17.9782C259.991 16.6529 285.8 14.866 311.644 14.795" stroke="#191919" stroke-width="0.2" stroke-linecap="round" stroke-linejoin="round"/>
<path d="M-279.135 17.9308C-255.362 25.1255 -227.447 34.533 -202.502 33.894C-174.232 33.1603 -146.081 7.68319 -127.005 -10.5757C-116.888 -20.2435 -111.421 -26.5743 -96.7476 -24.7283C-85.7071 -23.332 -69.7203 -22.3972 -58.9283 -19.0365C-44.7283 -14.6227 -36.7053 14.4755 -21.0971 14.4518C-9.15725 14.44 8.55726 -12.114 16.7459 -18.7643C27.1119 -27.1897 39.8682 -39.4253 54.5889 -37.319C69.6764 -35.1653 76.8474 -19.5335 85.0242 -9.00183C105.259 17.0433 127.104 32.2847 160.474 21.8122C185.276 14.0258 209.736 23.4333 235.994 22.0488C261.116 20.7235 286.215 18.842 311.349 17.6824" stroke="#191919" stroke-width="0.2" stroke-linecap="round" stroke-linejoin="round"/>
<path d="M-278.283 21.3625C-253.836 27.5514 -227.554 37.0298 -202.301 38.1067C-169.843 39.4793 -146.803 14.1442 -126.911 -7.26231C-115.965 -19.0365 -112.356 -22.977 -96.6652 -19.2613C-82.7492 -15.9716 -70.7265 -16.3148 -58.8814 -10.0668C-45.3204 -2.91947 -39.4392 22.2264 -21.0739 20.191C-7.97438 18.7355 7.68113 -3.44012 16.7455 -11.2738C27.2653 -20.3736 38.9329 -34.4553 54.5648 -32.4555C69.5103 -30.5503 76.4446 -15.3681 84.941 -5.30981C105.85 19.4218 129.032 36.7222 160.367 23.3624C183.655 13.4342 210.173 27.8472 235.792 26.2852C260.879 24.7587 285.954 22.9127 311.005 20.9129" stroke="#191919" stroke-width="0.2" stroke-linecap="round" stroke-linejoin="round"/>
<path d="M-277.502 24.7468C-252.593 30.0481 -227.388 39.9763 -202.064 42.3193C-165.701 45.68 -148.436 20.7945 -126.804 -2.93132C-115.586 -15.2261 -112.084 -17.5218 -96.5821 -13.179C-79.8853 -8.50482 -71.7558 -9.02548 -58.8338 0.322848C-44.977 10.3457 -41.3915 29.9417 -21.0618 24.2143C-6.37664 20.0727 6.09568 5.16269 16.722 -4.62348C27.4667 -14.5161 37.4185 -30.3492 54.5059 -27.2725C68.1024 -24.823 76.1017 -9.85382 84.811 -1.12082C95.1297 9.22151 109.093 20.7472 122.488 27.3738C140.7 36.4026 144.203 32.0717 160.213 24.238C182.247 13.4697 210.611 31.9297 235.532 30.4387C260.583 28.9358 285.611 26.7348 310.591 24.3208" stroke="#191919" stroke-width="0.2" stroke-linecap="round" stroke-linejoin="round"/>
<path d="M-276.804 28.1075C-251.8 33.1958 -226.962 43.4908 -201.792 46.5202C-162.009 51.3008 -150.862 27.859 -126.662 2.67766C-106.143 -18.6697 -77.8381 -4.04366 -58.7391 11.9787C-44.0302 24.3208 -41.1666 35.6453 -21.0026 27.5986C-5.58373 21.4453 5.16095 12.1562 16.7458 0.902657C28.0466 -10.0787 35.3478 -26.669 54.4823 -20.9298C66.1026 -17.4508 75.5811 -3.85432 84.7165 3.29301C95.4848 11.7183 109.969 22.818 122.406 29.1607C141.706 39.006 143.469 32.7816 160.083 24.9006C181.939 14.5347 210.718 35.7992 235.284 34.6395C260.264 33.4562 285.303 30.5215 310.165 27.9418" stroke="#191919" stroke-width="0.2" stroke-linecap="round" stroke-linejoin="round"/>
<path d="M-276.213 31.5392C-250.913 36.1424 -226.726 47.5024 -201.509 50.6619C-188.753 52.2594 -175.949 52.8037 -164.009 47.4195C-145.395 39.0297 -140.97 23.599 -126.521 9.70668C-101.73 -14.1375 -79.0104 7.2335 -58.6689 24.0487C-43.1199 36.8997 -39.7711 39.077 -20.9679 30.912C-4.88643 23.9304 4.49741 16.6765 16.7449 4.38168C28.7912 -7.70016 34.128 -23.0006 54.434 -13.7588C64.9302 -8.97814 74.2431 1.61269 84.6327 7.38735C97.2116 14.3809 109.518 24.2498 122.31 30.6398C141.894 40.426 143.018 32.4622 159.94 25.7172C182.648 16.6647 210.587 39.432 235.011 38.8048C259.861 38.1658 285.018 34.2372 309.703 31.551" stroke="#191919" stroke-width="0.2" stroke-linecap="round" stroke-linejoin="round"/>
<path d="M-275.691 35.0655C-250.581 39.1007 -227.849 51.289 -203.07 54.6142C-191.119 56.2235 -178.232 57.963 -166.588 54.6142C-148.353 49.3484 -142.2 35.172 -130.082 22.605C-119.716 11.8485 -109.137 4.47635 -93.4108 7.87252C-72.4776 12.3929 -73.7793 28.0839 -56.7156 39.3847C-42.5038 48.804 -33.5933 40.2012 -19.9968 34.249C1.01922 25.0427 -0.365275 26.2497 16.7457 5.38751C24.7332 -4.36316 31.9989 -14.67 46.1042 -10.978C53.7012 -6.32748 61.0379 -1.31014 68.1379 4.07403C74.1019 10.0025 81.4622 12.8189 90.1952 12.4994C101.165 16.2742 109.862 24.238 119.542 30.202C138.511 41.8934 138.712 35.7045 156.19 30.1547C182.199 21.8832 202.707 39.858 229.261 42.3193C254.619 44.6623 284.025 38.0948 309.171 35.101" stroke="#191919" stroke-width="0.2" stroke-linecap="round" stroke-linejoin="round"/>
<path d="M-275.136 38.5682C-249.67 42.3548 -227.767 55.549 -202.728 58.7203C-190.965 60.2113 -177.937 62.791 -166.328 60.1403C-148.768 56.117 -141.999 43.2778 -129.846 31.764C-120.368 22.7825 -107.363 12.5585 -93.2929 15.1737C-73.6378 18.8302 -74.5489 43.976 -56.6333 50.153C-43.9598 54.5313 -30.2923 43.4317 -19.9618 38.1895C-14.9089 36.0713 -10.0099 33.6218 -5.28843 30.8528C5.6929 26.368 13.0296 17.848 16.7334 5.3165C25.6912 -4.39866 32.9687 -9.92484 46.0682 -4.64718C53.0617 0.819822 60.3866 5.78982 68.0427 10.251C74.2671 15.6233 81.6274 17.4693 90.1119 15.8127C101.271 18.3213 109.826 25.7645 119.423 31.3143C137.362 41.6803 138.877 36.5092 156.012 32.3557C182.554 25.9302 202.789 41.8223 228.941 45.4078C254.004 48.8395 283.717 41.7632 308.626 38.5682" stroke="#191919" stroke-width="0.2" stroke-linecap="round" stroke-linejoin="round"/>
<path d="M-274.544 42.0708C-248.806 45.7983 -227.731 59.8208 -202.361 62.8265C-190.681 64.211 -177.664 67.2167 -166.044 65.2523C-149.466 62.4597 -141.691 51.999 -129.586 41.5857C-119.965 33.3142 -106.806 21.4572 -93.1626 24.167C-75.7085 27.6342 -74.3595 55.7383 -56.5385 58.6138C-46.3382 60.2587 -27.6533 47.3366 -19.9143 42.6861C-2.66133 32.332 1.13717 17.3983 16.7335 4.93782C26.2593 -2.67101 35.1935 -3.53484 46.0683 1.54166C65.5105 10.6415 68.7055 16.1795 90.0173 19.8478C101.59 21.8477 109.258 27.3502 119.293 32.829C135.789 41.8223 139.362 38.2605 155.822 35.5388C182.85 31.0777 202.635 43.1595 228.597 47.9165C253.944 52.567 282.747 45.5617 308.035 42.0708" stroke="#191919" stroke-width="0.2" stroke-linecap="round" stroke-linejoin="round"/>
<path d="M-273.905 45.5498C-248.061 49.3838 -227.637 63.9506 -201.97 66.909C-190.267 68.258 -177.44 71.3702 -165.749 70.1513C-149.927 68.4947 -141.478 60.7438 -129.326 51.3245C-118.853 43.2068 -106.795 30.5925 -93.0091 34.1307C-76.5135 38.367 -75.8153 63.6903 -56.4323 64.3175C-46.9183 64.6251 -26.8726 51.4192 -19.8555 46.5202C-6.57848 37.2547 3.2432 12.168 16.745 5.19817C25.9514 0.453 37.335 3.09185 46.0917 7.24534C63.5695 15.5405 70.3263 21.6583 89.9223 24.4628C102.134 26.2142 108.299 29.3973 119.151 35.0892C134.439 43.1122 139.918 40.8875 155.609 39.1835C182.258 36.2725 202.706 43.7275 228.218 49.8098C254.37 56.046 281.066 49.443 307.395 45.5498" stroke="#191919" stroke-width="0.2" stroke-linecap="round" stroke-linejoin="round"/>
<path d="M-273.219 49.017C-247.434 53.0877 -227.495 67.8439 -201.532 70.9679C-172.659 74.4469 -153.939 78.0915 -129.065 60.7557C-117.386 52.6143 -107.031 40.1183 -92.8314 44.6623C-76.1938 49.9873 -77.4363 71.7962 -56.3138 68.8023C-45.4981 67.2758 -27.8901 55.9277 -19.7961 49.4193C-7.48943 39.5267 1.53939 12.5704 16.7571 7.32819C39.2641 -0.434483 67.4156 25.6343 89.8042 28.7465C102.513 30.5097 107.471 32.4385 119.009 38.4025C133.315 45.7983 140.475 44.4375 155.408 43.2897C181.288 41.3135 203.049 43.7157 227.84 51.1825C255.199 59.4304 278.652 53.4545 306.733 49.017" stroke="#191919" stroke-width="0.2" stroke-linecap="round" stroke-linejoin="round"/>
<path d="M-272.497 52.4723C-247.422 56.6968 -228.406 71.5003 -202.834 74.8018C-178.753 77.9022 -154.365 84.5643 -132.355 71.95C-119.551 64.6133 -106.345 47.3603 -89.9916 54.9573C-79.1996 59.9747 -76.4661 75.0385 -61.5442 74.2812C-53.2609 73.867 -24.9201 58.5192 -18.8614 53.277C-4.59039 40.9348 -4.48388 16.7594 16.7451 12.6532C40.5775 8.03819 65.2736 26.3088 87.8398 31.8705C114.062 38.3315 130.889 49.7388 158.852 47.455C184.116 45.3841 205.333 44.6268 229.307 52.993C256.891 62.6253 277.102 57.324 305.987 52.4605" stroke="#191919" stroke-width="0.2" stroke-linecap="round" stroke-linejoin="round"/>
<path d="M-271.739 55.9159C-246.866 60.7794 -228.24 75.287 -202.349 78.8252C-179.984 81.8782 -153.418 89.6763 -132.082 79.9257C-116.947 73.0032 -107.552 56.9453 -89.7899 65.3943C-78.0394 70.9915 -76.6194 80.6948 -61.4018 77.6773C-47.7224 74.9675 -27.2389 63.9507 -18.7899 53.3007C-7.33528 38.8522 -3.92728 20.6052 16.7574 17.2208C40.7317 13.2922 65.6527 28.1903 87.6982 35.3377C113.897 43.8222 130.156 54.3775 158.592 51.928C184.27 49.7152 204.659 43.834 228.858 53.7858C241.662 59.0517 249.519 64.353 263.719 62.9212C277.611 61.513 291.516 58.3535 305.242 55.904" stroke="#191919" stroke-width="0.2" stroke-linecap="round" stroke-linejoin="round"/>
<path d="M-270.946 59.3357C-257.302 62.9448 -249.031 69.4058 -236.511 74.9438C-225.376 79.8665 -213.862 81.0853 -201.828 82.8248C-180.48 85.9015 -152.838 94.3032 -131.786 87.1677C-114.048 81.1445 -109.196 66.2108 -89.565 74.2457C-77.424 79.2157 -75.1756 84.2448 -61.2478 80.4463C-40.1963 74.7072 -31.8301 70.6247 -18.7306 52.212C-7.73747 36.7577 -3.91529 25.516 16.7457 22.3801C41.0395 18.6881 65.641 29.4683 87.5327 38.8522C99.1412 43.8222 111.034 53.0522 123.021 56.543C134.345 59.8327 146.865 57.4542 158.284 56.401C184.803 53.9515 203.31 42.8518 228.349 54.4012C240.585 60.0457 248.88 67.4652 263.08 66.7315C276.759 66.0333 291.042 61.8798 304.426 59.3475" stroke="#191919" stroke-width="0.2" stroke-linecap="round" stroke-linejoin="round"/>
<path d="M-270.106 62.7437C-245.387 71.6778 -228.228 82.7183 -201.296 86.8008C-180.41 89.9721 -152.483 98.5868 -131.503 93.6642C-111.256 88.9072 -111.126 75.0977 -89.3523 81.2273C-77.5426 84.5525 -73.2471 85.724 -61.118 82.5527C-35.8065 75.9497 -34.9071 73.4765 -18.6836 50.7683C-7.96262 35.7518 -2.18798 29.9772 16.7217 27.4212C41.5362 24.0723 65.475 30.8528 87.3904 42.6862C98.9752 48.9342 109.531 59.9036 122.796 62.578C133.86 64.8145 146.983 61.9508 157.964 60.8267C172.022 59.383 179.596 57.3003 192.991 51.6676C207.534 45.5498 213.912 48.0467 227.817 54.9692C239.401 60.7438 248.572 70.2223 262.417 70.3998C275.647 70.5773 290.758 65.2997 303.574 62.7555" stroke="#191919" stroke-width="0.2" stroke-linecap="round" stroke-linejoin="round"/>
<path d="M-269.219 66.1398C-244.724 77.7365 -228.145 86.3985 -200.716 90.7769C-180.09 94.0665 -151.974 102.989 -131.159 99.3915C-110.12 95.7587 -111.504 83.1798 -89.0918 86.3394C-78.1104 87.8895 -71.5666 86.079 -60.9284 84.162C-24.2924 77.5827 -21.8666 37.6807 16.7456 32.2492C41.8441 28.7229 65.9012 32.9237 87.3077 46.7568C99.1411 54.413 107.602 66.2582 122.583 68.187C133.481 69.5952 146.912 66.6132 157.669 65.2168C172.307 63.3117 179.04 60.5427 192.589 53.5255C207.097 45.9995 212.907 48.2124 227.296 55.6555C238.538 61.4657 248.359 72.2813 261.755 73.4647C274.629 74.6007 290.38 68.7077 302.71 66.128" stroke="#191919" stroke-width="0.2" stroke-linecap="round" stroke-linejoin="round"/>
<path d="M-268.308 69.7845C-245.552 82.6592 -227.601 90.0905 -201.757 94.4452C-179.735 98.1608 -148.933 107.497 -127.313 102.184C-113.8 98.8708 -107.966 88.6941 -93.1861 88.6468C-81.1635 88.6113 -70.7028 88.5877 -58.9168 86.1263C-38.1729 81.7953 -36.9896 73.1451 -24.5528 57.8801C-12.542 43.124 -1.50145 39.3728 16.7456 36.4973C39.8916 32.8527 66.3035 35.0063 85.509 49.4193C97.5909 58.4718 104.04 69.2875 119.826 72.1512C130.736 74.1273 143.007 71.1572 154 69.9975C172.662 68.0213 178.436 62.0573 194.778 53.5847C208.576 46.4373 215.463 50.0702 228.515 57.6317C239.129 63.785 249.353 74.2693 262.003 76.1272C274.558 77.9732 289.835 72.1275 301.787 69.5005" stroke="#191919" stroke-width="0.2" stroke-linecap="round" stroke-linejoin="round"/>
<path d="M-267.35 73.7605C-245.304 87.6528 -226.607 93.8653 -201.13 98.362C-179.262 102.232 -148.105 111.319 -126.959 105.793C-113.54 102.291 -107.233 93.5932 -92.9263 91.9602C-82.1698 90.7295 -69.0348 89.5225 -58.7398 87.7238C-38.3036 84.1501 -38.4693 69.6425 -24.4586 57.182C-14.6724 48.4727 3.95323 42.7453 16.7451 40.9112C41.0034 37.4203 66.587 38.3433 85.4257 54.8982C96.8567 64.9447 103.637 74.2575 119.589 76.7425C130.416 78.4228 142.806 75.8905 153.669 74.3995C171.714 71.9145 178.554 63.7495 194.316 55.6318C207.558 48.8158 215.119 51.5493 227.923 58.5428C238.88 64.5187 248.903 75.1095 261.269 78.1625C274.156 81.3338 288.521 75.7248 300.84 72.8848" stroke="#191919" stroke-width="0.2" stroke-linecap="round" stroke-linejoin="round"/>
<path d="M-266.355 77.9258C-245.15 91.9838 -225.211 97.7112 -200.467 102.279C-178.469 106.338 -147.17 114.656 -126.58 108.479C-119.243 105.119 -112.451 100.823 -106.227 95.6048C-101.695 95.1906 -97.1743 94.7765 -92.6422 94.3623C-80.7615 91.759 -70.0997 90.1496 -58.5503 88.209C-39.7472 85.0495 -39.049 67.2167 -24.352 57.9512C-15.6072 52.4368 6.50931 46.4965 16.757 45.2658C42.885 42.13 65.7825 42.6388 85.2957 60.9213C106.335 80.6356 124.914 84.2566 153.314 78.7778C182.069 73.228 196.399 44.899 227.296 59.6315C238.916 65.1695 248.241 75.3107 260.488 79.6417C273.895 84.3868 286.652 79.4168 299.858 76.2336" stroke="#191919" stroke-width="0.2" stroke-linecap="round" stroke-linejoin="round"/>
<path d="M-265.326 82.1267C-243.233 96.8473 -220.679 102.22 -194.835 107.071C-173.63 111.059 -141.786 119.449 -122.888 108.361C-111.457 101.652 -102.677 97.4982 -89.826 93.6878C-83.72 90.0668 -77.0815 87.9368 -69.9223 87.2978C-65.4848 88.3273 -61.0592 89.3687 -56.6217 90.3982C-48.6815 85.4518 -42.0312 79.2038 -36.6352 71.666C-32.5409 63.7732 -25.8669 59.738 -16.625 59.5841C-5.35969 55.6673 4.71047 51.147 16.7568 49.9755C27.6316 48.9223 39.252 49.1827 50.1387 49.1827C65.877 49.1827 71.4741 55.9395 83.5323 65.5008C105.14 82.6473 128.132 91.2146 156.402 82.1385C179.37 74.7663 194.73 50.9813 221.876 58.4837C236.549 62.5425 246.939 75.6538 260.618 81.5705C273.67 87.215 285.693 83.2627 298.852 79.5352" stroke="#191919" stroke-width="0.2" stroke-linecap="round" stroke-linejoin="round"/>
<path d="M-264.249 86.292C-242.63 100.161 -219.247 106.302 -194.137 110.976C-171.014 115.284 -142.709 120.904 -122.498 108.882C-112.096 102.693 -100.712 97.3325 -89.5299 93.6523C-78.1817 89.9248 -67.0229 92.5281 -56.4202 89.8775C-49.6515 84.0436 -43.013 78.0796 -36.4929 71.9736C-31.7004 65.4061 -25.05 62.4833 -16.5419 63.217C-5.00437 59.7735 4.34397 55.2058 16.7453 54.3657C27.4426 53.6438 39.4062 53.3598 50.0325 53.8095C65.5223 54.4603 71.2733 63.1223 83.3078 71.7725C103.543 86.3157 131.008 95.5338 155.964 85.2033C177.702 76.21 194.719 55.8922 221.178 60.7083C236.762 63.5365 246.501 76.352 259.731 83.3691C272.582 90.197 284.309 87.1321 297.74 82.8603" stroke="#191919" stroke-width="0.2" stroke-linecap="round" stroke-linejoin="round"/>
<path d="M-263.148 90.3035C-241.706 102.93 -217.969 110.645 -193.426 114.858C-182.362 116.763 -172.138 116.112 -161.157 116.68C-140.165 117.769 -141.419 119.544 -122.107 109.829C-111.812 104.646 -99.6236 96.8355 -89.2221 93.1554C-83.8616 87.2269 -77.2704 86.2092 -69.4368 90.1023C-65.0348 89.7947 -60.6209 89.487 -56.2189 89.1912C-50.5271 82.8012 -43.9123 77.7483 -36.3508 74.0208C-30.3513 69.962 -23.7128 67.3705 -16.4589 66.2463C-5.01609 62.2703 4.35592 59.4185 16.7336 58.9097C26.9339 58.4837 40.0334 57.0992 49.9261 58.4127C64.0077 60.2942 71.6284 71.0152 83.0831 77.9377C103.117 90.0432 133.15 99.2732 155.527 87.712C176.152 77.0502 195.157 61.3473 220.468 63.4655C253.59 66.2345 259.258 99.3323 296.616 86.1618" stroke="#191919" stroke-width="0.2" stroke-linecap="round" stroke-linejoin="round"/>
<path d="M-262.001 94.0901C-240.559 105.308 -216.821 115.165 -192.669 118.715C-166.459 122.573 -145.218 121.78 -121.693 111.568C-117.315 110.29 -112.936 109 -108.558 107.722C-102.499 102.03 -95.9438 97.0248 -88.8911 92.7057C-77.685 88.7888 -67.816 94.0902 -55.9945 88.99C-42.3033 83.0733 -30.9078 74.5297 -16.3528 68.9325C-5.12299 64.6133 4.69869 63.785 16.745 63.4773C26.259 63.2407 40.956 61.1106 49.831 63.4655C62.4572 66.8143 71.4032 78.1625 82.8815 83.6887C103.815 93.7825 134.049 102.089 155.1 89.8183C174.022 78.7778 196.375 65.3115 219.769 66.838C252.015 68.9562 259.553 104.018 295.491 89.4397" stroke="#191919" stroke-width="0.2" stroke-linecap="round" stroke-linejoin="round"/>
<path d="M-260.817 97.5928C-216.951 118.562 -167.121 134.619 -121.255 114.361C-108.842 108.882 -100.772 96.658 -88.5359 92.8358C-76.8919 89.203 -68.0879 94.6937 -55.7575 89.7C-30.2449 79.3695 -11.6074 68.116 16.7453 67.9977C26.7445 67.9503 40.2817 65.9505 49.7129 69.3112C61.7356 73.583 70.5514 84.4578 82.6688 88.9308C104.975 97.155 133.659 104.314 154.627 91.7117C172.945 80.7067 196.778 70.2697 219.012 70.6838C250.607 71.2755 258.891 108.148 294.308 92.6938" stroke="#191919" stroke-width="0.2" stroke-linecap="round" stroke-linejoin="round"/>
<path d="M-259.599 100.776C-217.567 120.029 -165.713 139.282 -120.817 118.443C-107.682 112.349 -101.742 97.8413 -88.181 94.2558C-76.821 91.2502 -67.378 95.2735 -55.521 91.688C-29.1445 83.7123 -11.5365 72.5416 16.7452 72.5416C27.691 72.5416 39.1812 70.9323 49.5827 75.5118C61.6172 80.8132 69.4035 90.3863 82.4438 93.9127C105.992 100.279 132.558 106.089 154.142 93.5813C171.679 83.4165 197.44 74.6835 218.243 74.5533C240.928 74.4232 237.188 81.8427 255.991 94.8948C267.943 103.19 279.99 101.77 293.089 95.9361" stroke="#191919" stroke-width="0.2" stroke-linecap="round" stroke-linejoin="round"/>
<path d="M-258.344 103.64C-237.659 113.225 -213.33 127.756 -190.243 128.774C-179.936 129.223 -168.978 128.111 -158.589 127.768C-146.531 127.366 -131.822 128.43 -120.32 122.372C-107.137 115.414 -102.546 100.113 -87.8136 96.7054C-77.1044 94.2322 -66.4544 97.5455 -55.2601 95.0013C-40.2909 91.5933 -30.3628 83.1917 -16.0208 78.7068C-5.6666 75.4645 6.15488 77.0265 16.7575 77.0857C28.6264 77.1448 38.3061 75.8905 49.4886 81.6652C61.4402 87.8422 68.5521 95.593 82.2314 98.3147C106.809 103.202 131.174 107.462 153.657 95.5812C170.342 86.7653 198.21 78.3518 217.451 78.4347C239.816 78.5293 236.384 86.7772 254.986 99.1193C267.021 107.107 278.972 104.764 291.835 99.1903" stroke="#191919" stroke-width="0.2" stroke-linecap="round" stroke-linejoin="round"/>
<path d="M-257.042 106.456C-236.511 116.136 -212.217 131.211 -189.379 131.519C-178.966 131.661 -168.138 131.247 -157.879 131.058C-146.814 130.856 -129.988 131.14 -119.799 125.378C-106.794 118.017 -103.019 103.474 -87.4467 100.137C-77.0215 97.9005 -65.8508 101.628 -55.0115 99.5335C-40.2908 96.6817 -30.1733 86.8837 -15.9142 83.0733C-5.61917 80.3162 6.26151 81.464 16.7458 81.5587C42.7792 81.7953 57.6655 98.3975 81.9593 102.172C107.377 106.113 129.648 108.338 153.125 97.7703C168.958 90.6348 199.086 81.3812 216.611 82.2332C237.71 83.2508 236.337 94.0428 253.933 103.746C266.559 110.716 277.505 107.698 290.534 102.373" stroke="#191919" stroke-width="0.2" stroke-linecap="round" stroke-linejoin="round"/>
<path d="M-255.717 109.272C-234.902 119.248 -211.661 133.898 -188.492 133.827C-177.794 133.791 -167.547 134.099 -157.145 134.264C-145.075 134.454 -129.988 134.667 -119.219 128.016C-106.853 120.372 -102.818 108.207 -87.0445 104.847C-76.4536 102.587 -65.3066 107 -54.7395 104.575C-40.575 101.32 -30.2208 91.0727 -15.796 88.0789C-5.51281 85.9489 6.33238 86.0908 16.7457 86.0317C42.0335 85.866 57.6772 102.598 81.6988 105.959C107.283 109.545 128.606 109.083 152.592 100.374C167.834 94.8357 199.713 84.4105 215.759 86.1737C233.899 88.1617 237.686 101.439 252.856 108.775C265.482 114.881 276.748 110.527 289.208 105.569" stroke="#191919" stroke-width="0.2" stroke-linecap="round" stroke-linejoin="round"/>
<path d="M-254.297 112.195C-232.784 122.668 -211.543 135.909 -187.533 135.933C-166.292 135.957 -137.289 143.908 -118.592 130.738C-107.149 122.668 -101.682 113.461 -86.6304 110.278C-76.075 108.042 -64.8452 111.686 -54.4555 108.823C-40.007 104.847 -30.7297 97.013 -15.6659 94.0784C-5.56022 92.1022 6.4743 91.333 16.7456 90.8123C41.2525 89.5698 58.0321 105.817 81.4029 109.497C106.43 113.45 128.18 110.728 152.012 103.569C167.561 98.8945 198.872 88.5167 214.847 90.9425C230.515 93.321 237.875 108.763 251.708 114.207C264.228 119.129 276.014 113.414 287.788 108.846" stroke="#191919" stroke-width="0.2" stroke-linecap="round" stroke-linejoin="round"/>
<path d="M-252.842 115.106C-230.595 126.229 -211.39 137.518 -186.551 137.992C-163.382 138.43 -138.508 148.287 -117.918 133.803C-107.304 126.324 -99.612 118.715 -86.1811 115.71C-75.614 113.343 -64.6208 115.71 -54.1365 112.384C-37.4041 107.059 -32.7063 103.569 -15.5125 101.427C-4.49564 100.054 5.74019 97.4035 16.7689 96.019C40.471 93.037 58.647 108.255 81.1304 112.751C105.625 117.638 127.718 112.929 151.432 107.367C167.395 103.628 197.914 92.2442 213.924 96.0782C228.692 99.6045 236.029 115.65 250.548 119.757C262.784 123.224 275.304 116.372 286.356 112.124" stroke="#191919" stroke-width="0.2" stroke-linecap="round" stroke-linejoin="round"/>
<path d="M-251.351 118.029C-228.536 129.566 -210.892 139.021 -185.522 140.216C-160.151 141.412 -140.614 151.979 -117.22 137.471C-107.161 131.235 -97.2688 124.111 -85.7194 120.928C-75.1049 118.005 -64.4431 119.047 -53.8286 115.378C-34.1261 108.562 -35.5816 107.817 -15.3821 110.065C-2.68493 111.485 4.93575 104.066 16.7454 101.415C39.6547 96.2675 59.1324 110.325 80.7874 115.686C104.643 121.591 127.233 116.432 150.77 111.533C167.218 108.113 196.553 96.1373 212.907 101.143C227.556 105.628 233.71 122.289 249.294 125.153C260.796 127.271 274.759 119.307 284.841 115.343" stroke="#191919" stroke-width="0.2" stroke-linecap="round" stroke-linejoin="round"/>
<path d="M-249.812 120.952C-226.832 132.726 -209.934 140.548 -184.469 142.808C-157.974 145.163 -141.75 155.671 -116.534 142.098C-94.9378 130.478 -75.9808 126.23 -53.4975 118.1C-32.304 110.432 -35.5937 116.514 -15.2285 119.97C-2.14084 122.194 5.46798 111.343 16.757 107.45C39.335 99.6519 58.9191 112.325 80.515 118.455C104.217 125.176 126.44 120.313 150.142 115.733C167.064 112.456 195.204 100.149 211.912 106.042C226.396 111.142 232.029 128.04 248.051 130.312C258.37 131.768 274.416 122.194 283.326 118.585" stroke="#191919" stroke-width="0.2" stroke-linecap="round" stroke-linejoin="round"/>
<path d="M-248.25 123.875C-225.435 135.72 -208.537 142.311 -183.403 145.79C-157.891 149.328 -140.78 160.321 -115.871 147.66C-94.9018 136.998 -76.2288 126.738 -53.1775 120.68C-30.8007 114.799 -35.4748 127.212 -15.0978 130.774C-2.32968 133.01 6.67548 118.68 16.7338 113.887C38.9923 103.297 58.3043 114.183 80.2196 121.047C104.206 128.561 125.245 124.49 149.468 119.875C166.638 116.609 193.926 104.172 210.871 110.527C224.929 115.804 230.905 133.057 246.75 134.903C256.146 135.992 273.635 125.165 281.741 121.757" stroke="#191919" stroke-width="0.2" stroke-linecap="round" stroke-linejoin="round"/>
<path d="M-246.641 126.797C-224.169 138.619 -206.833 144.287 -182.303 148.973C-159.086 153.399 -138.555 165.528 -115.196 153.919C-94.9846 143.885 -75.9685 127.886 -52.8343 123.52C-31.0846 119.402 -33.9247 140.737 -14.944 142.015C-2.68465 142.843 7.5512 126.076 16.7339 120.62C38.5545 107.663 57.4879 115.899 79.9712 123.567C104.561 131.957 123.684 128.868 148.794 124.017C166.011 120.691 192.778 108.172 209.807 114.55C223.557 119.697 229.923 136.808 245.425 138.501C254.679 139.506 272.204 128.383 280.12 124.94" stroke="#191919" stroke-width="0.2" stroke-linecap="round" stroke-linejoin="round"/>
<path d="M-244.996 129.72C-223.093 141.412 -204.928 146.666 -181.179 152.393C-159.654 157.588 -136.342 170.628 -114.522 159.079C-96.2511 149.411 -74.5014 129.33 -52.4796 127.247C-32.4931 125.354 -32.9783 153.209 -14.7786 153.032C-3.61979 152.914 8.5449 133.152 16.7454 127.519C38.0927 112.846 56.6001 117.745 79.7224 126.3C104.856 135.601 122.109 133.341 148.107 128.158C165.195 124.75 191.737 112.136 208.741 118.1C222.492 122.928 228.846 139.092 244.099 140.903C254.181 142.098 270.002 131.933 278.499 128.123" stroke="#191919" stroke-width="0.2" stroke-linecap="round" stroke-linejoin="round"/>
<path d="M-243.327 132.631C-222.063 144.145 -203.011 149.47 -180.031 156.038C-159.512 161.907 -134.034 175.811 -113.835 162.913C-102.712 155.813 -96.014 149.719 -83.163 144.938C-76.0985 142.311 -59.7566 131.626 -52.136 131.91C-33.4157 132.608 -34.244 164.877 -14.6361 163.031C-4.30565 162.061 9.01867 140.299 16.7222 134.477C37.7027 118.644 55.6893 119.792 79.4152 129.294C104.904 139.518 120.595 137.72 147.362 132.193C164.248 128.714 190.66 115.934 207.594 121.117C221.238 125.295 228.054 140.441 242.68 142.607C253.921 144.275 267.293 135.601 276.783 131.199" stroke="#191919" stroke-width="0.2" stroke-linecap="round" stroke-linejoin="round"/>
<path d="M-241.611 135.554C-220.891 146.926 -201.141 152.535 -178.824 159.706C-157.583 166.522 -132.567 180.426 -113.09 165.599C-102.002 157.162 -96.1205 154.251 -82.5832 150.038C-75.1992 147.743 -59.6738 137.27 -51.7455 138.276C-33.392 140.607 -36.8237 176.154 -14.4468 171.031C-3.61934 168.546 8.30867 148.169 16.734 141.53C37.7145 125.022 54.7663 122.348 79.0957 132.904C104.561 143.956 119.483 141.968 146.617 136.252C163.68 132.655 189.158 120.017 206.446 123.827C220.007 126.809 227.592 141.293 241.271 143.991C253.566 146.417 264.453 139.483 275.091 134.335" stroke="#191919" stroke-width="0.2" stroke-linecap="round" stroke-linejoin="round"/>
<path d="M-239.86 138.465C-219.732 149.872 -199.355 155.848 -177.605 163.351C-167.937 166.688 -158.187 170.119 -148.27 172.663C-130.189 177.29 -127.692 179.657 -112.344 167.48C-101.351 158.759 -95.47 158.759 -82.0037 155.6C-74.1819 153.766 -59.9227 144.098 -51.3554 147.352C-33.5935 154.109 -37.7589 184.994 -14.2579 177.361C-2.99254 173.705 7.61012 155.825 16.7573 148.677C38.152 131.957 53.8548 125.685 78.7758 137.376C103.661 149.044 119.163 146.062 145.883 140.311C162.828 136.666 188.104 123.756 205.298 126.36C219.166 128.454 226.917 141.909 239.839 145.222C252.536 148.464 262.05 143.447 273.351 137.447" stroke="#191919" stroke-width="0.2" stroke-linecap="round" stroke-linejoin="round"/>
<path d="M-238.062 141.376C-218.608 152.949 -197.58 159.398 -176.351 166.972C-166.837 170.368 -157.11 174.202 -147.241 176.486C-127.562 181.03 -128.343 180.757 -111.575 168.83C-100.724 161.102 -93.9197 163.587 -81.4119 161.576C-70.3477 159.789 -62.2655 152.334 -50.9765 158.203C-33.333 167.374 -37.806 192.058 -14.0684 182.639C-2.74386 178.142 7.03046 163.244 16.7575 156.073C25.5615 149.589 37.454 140.406 47.5715 136.738C60.9431 131.886 66.2681 136.56 78.3973 142.619C102.194 154.511 119.518 150.109 145.114 144.335C162.094 140.501 186.933 127.543 204.103 128.88C233.828 131.2 239.437 159.682 271.576 140.524" stroke="#191919" stroke-width="0.2" stroke-linecap="round" stroke-linejoin="round"/>
<path d="M-236.239 144.275C-217.531 156.097 -195.757 162.972 -175.085 170.557C-165.819 173.953 -155.962 178.45 -146.199 180.261C-124.414 184.308 -130.284 179.373 -110.806 170.037C-100.464 165.078 -91.5768 168.983 -80.8321 167.942C-67.0463 166.593 -62.6088 160.179 -50.6098 170.025C-35.9483 182.036 -34.5993 195.644 -13.9028 186.899C-2.89777 182.237 6.74641 170.38 16.7456 163.871C26.7092 157.387 37.1936 149.47 47.3584 143.648C61.0732 135.791 64.99 141.992 77.9949 148.476C101.141 160.026 119.861 154.369 144.309 148.299C161.444 144.039 185.584 131.531 202.872 131.59C230.621 131.685 240.289 163.493 269.742 143.542" stroke="#191919" stroke-width="0.2" stroke-linecap="round" stroke-linejoin="round"/>
<path d="M-234.382 147.163C-216.407 159.233 -193.936 166.51 -173.795 174.119C-164.979 177.456 -154.625 182.911 -145.135 184.023C-124.214 186.485 -129.124 177.42 -110.002 171.622C-100.961 168.889 -89.3052 174.663 -80.229 174.628C-64.6919 174.569 -62.2897 171.113 -50.2197 182.13C-35.9842 195.123 -32.162 198.579 -13.7257 190.26C-3.2177 185.526 6.61577 177.704 16.7569 172.237C28.3773 165.978 36.1755 158.629 47.145 151.174C60.6468 142.003 64.1139 148.843 77.5921 154.783C101.353 165.256 119.506 159.221 143.492 152.239C160.674 147.234 184.092 136.016 201.617 134.832C227.319 133.105 241.07 166.546 267.872 146.524" stroke="#191919" stroke-width="0.2" stroke-linecap="round" stroke-linejoin="round"/>
<path d="M-232.488 150.05C-214.715 162.108 -192.361 169.918 -172.446 177.657C-164.281 180.828 -152.98 187.443 -144.022 187.763C-126.935 188.366 -125.006 176.06 -109.149 174.107C-101.233 173.125 -87.6364 180.402 -79.5898 181.385C-63.8988 183.313 -61.8753 184.094 -49.7816 193.845C-35.0846 205.69 -29.31 200.2 -13.5243 192.875C-3.6198 188.283 6.75804 185.372 16.769 181.29C30.756 175.574 34.5427 168.486 46.873 159.079C59.7359 149.269 63.6172 156.546 77.1782 161.303C102.916 170.332 118.086 164.877 142.64 156.168C159.278 150.275 182.992 140.429 200.316 138.418C224.633 135.601 241.129 168.723 265.991 149.529" stroke="#191919" stroke-width="0.2" stroke-linecap="round" stroke-linejoin="round"/>
<path d="M-230.56 152.925C-212.656 164.818 -190.977 173.231 -171.097 181.172C-163.654 184.142 -151.205 191.833 -142.91 191.467C-129.314 190.875 -121.882 176.154 -108.309 177.965C-99.7302 179.101 -87.3052 185.988 -78.9509 188.165C-65.9934 191.549 -60.5974 199.478 -49.3439 204.637C-33.7476 211.773 -27.2629 201.206 -13.3469 195.62C-3.34775 191.609 6.67508 193.467 16.7689 190.816C32.7321 186.615 33.3593 178.249 46.1038 167.398C58.1264 157.162 63.1319 163.99 76.6338 167.835C84.9053 170.19 97.7563 174.924 106.525 174.604C122.547 174.036 127.683 166.569 141.788 160.179C156.781 153.387 182.791 144.181 199.002 141.98C222.622 138.773 240.383 170.616 264.05 152.5" stroke="#191919" stroke-width="0.2" stroke-linecap="round" stroke-linejoin="round"/>
<path d="M-228.606 155.848C-210.324 167.386 -189.675 176.474 -169.724 184.674C-162.458 187.656 -150.057 195.301 -141.797 194.472C-126.721 192.981 -123.846 178.426 -107.457 182.864C-98.7238 185.231 -86.7484 192.188 -78.2994 195.454C-68.7618 199.135 -58.5614 211.382 -48.8581 213.997C-35.1788 217.689 -24.5051 202.827 -13.1688 199.087C-2.22296 195.478 6.13139 202.034 16.7814 200.555C32.2949 198.389 34.5314 188.142 45.3707 177.231C56.3284 166.214 61.7362 170.084 75.8652 173.705C84.2195 175.847 97.5557 182.828 105.922 182.769C122.749 182.651 127.139 172.521 140.925 164.83C154.32 157.363 182.531 147.447 197.678 145.541C221.179 142.571 238.893 172.237 262.086 155.588" stroke="#191919" stroke-width="0.2" stroke-linecap="round" stroke-linejoin="round"/>
<path d="M-226.607 158.688C-208.017 169.93 -188.327 179.681 -168.316 188.13C-160.447 191.455 -149.703 197.821 -140.65 196.602C-123.208 194.271 -125.574 180.947 -106.582 188.437C-97.4111 192.058 -86.5718 198.389 -77.6139 202.874C-68.7153 207.335 -58.8818 220.234 -48.3146 221.464C-35.5701 222.943 -24.0563 206.199 -12.9803 203.3C-0.898434 200.141 5.51522 210.862 16.7924 210.152C30.4007 209.288 36.0571 198.105 44.8019 188.023C54.5762 176.746 59.7711 175.196 75.0242 178.758C84.4081 180.947 96.0639 191.408 105.318 191.585C122.026 191.905 127.493 178.438 140.06 170.084C152.604 161.741 181.323 150.937 196.351 149.482C219.509 147.234 237.531 173.811 260.121 158.535" stroke="#191919" stroke-width="0.2" stroke-linecap="round" stroke-linejoin="round"/>
<path d="M-224.571 161.481C-205.946 172.675 -186.823 182.911 -166.884 191.573C-157.76 195.537 -149.666 199.774 -139.478 198.294C-120.781 195.585 -125.538 185.077 -105.705 194.437C-90.0973 201.797 -64.1941 228.079 -47.805 227.121C-34.102 226.316 -25.6293 210.767 -12.8256 208.365C-0.483463 206.057 5.30303 219.606 16.7695 219.299C42.8147 218.577 44.3412 178.568 73.8535 184.154C85.5922 186.378 93.3075 199.395 104.668 200.874C119.376 202.803 129.742 183.479 139.138 175.918C151.409 166.049 178.969 154.949 194.944 153.99C217.392 152.641 236.254 175.563 258.051 161.422" stroke="#191919" stroke-width="0.2" stroke-linecap="round" stroke-linejoin="round"/>
<path d="M-222.513 164.25C-204.124 175.657 -185.285 186.307 -165.429 194.981C-141.762 205.324 -127.42 189.218 -104.807 200.567C-87.4707 209.264 -66.076 234.907 -47.2965 232.315C-34.5402 230.564 -25.3694 215.5 -12.6249 214.636C-0.554856 213.82 5.29081 227.191 16.7691 227.511C27.4428 227.807 36.7201 217.831 43.9148 209.915C47.0625 205.785 50.2101 201.643 53.346 197.513C58.2213 186.059 64.5995 183.432 72.4805 189.656C85.0593 191.49 91.6031 208.803 104.028 210.223C117.838 211.808 130.31 189.609 138.226 182.154C150.888 170.238 175.75 159.114 193.547 158.866C215.238 158.57 234.964 177.492 256.004 164.191" stroke="#191919" stroke-width="0.2" stroke-linecap="round" stroke-linejoin="round"/>
<path d="M-220.418 167.007C-202.561 178.746 -183.664 190.082 -163.926 198.354C-152.755 203.04 -148.022 202.424 -137.017 201.537C-118.876 200.081 -121.681 197.774 -103.86 206.601C-84.5358 216.175 -68.6318 241.486 -46.7756 237.321C-34.4098 234.966 -25.523 222.068 -12.3998 221.902C-1.1463 221.76 5.58686 234.031 16.7339 234.362C26.733 234.658 36.3772 226.99 43.5718 220.009C46.6958 216.21 49.808 212.412 52.932 208.613C56.2335 193.135 62.3987 189.135 71.4394 196.614C83.6987 198.271 90.9525 219.902 103.342 219.251C117.495 218.518 129.044 197.407 137.256 188.745C150.77 174.498 171.916 163.339 192.092 164.037C213.262 164.771 233.402 179.752 253.909 166.936" stroke="#191919" stroke-width="0.2" stroke-linecap="round" stroke-linejoin="round"/>
<path d="M-218.288 169.776C-201.13 181.692 -181.948 194.129 -162.411 201.726C-151.359 206.022 -146.199 203.726 -135.751 203.655C-120.083 203.548 -117.433 204.637 -102.937 212.423C-83.2579 222.979 -70.4424 247.474 -46.3024 242.315C-33.4633 239.569 -26.1148 229.227 -12.1751 229.748C-1.74992 230.126 5.92991 240.078 16.6982 240.338C26.1057 240.563 36.1049 235.297 43.3114 229.274C46.4117 225.819 49.5121 222.352 52.6124 218.896C55.2039 203.856 61.2152 199.419 70.6346 205.608C83.5684 206.708 89.8045 228.801 102.667 227.653C115.507 226.505 129.292 203.631 136.31 195.632C150.971 178.9 167.727 167.694 190.636 169.516C211.652 171.184 231.592 182.331 251.779 169.681" stroke="#191919" stroke-width="0.2" stroke-linecap="round" stroke-linejoin="round"/>
<path d="M-216.123 172.545C-199.604 184.414 -180.15 198.188 -160.873 205.04C-150.566 208.696 -144.129 205.584 -134.438 206.306C-121.658 207.264 -113.209 211.406 -101.979 217.808C-81.4479 229.499 -72.1351 252.929 -45.8059 247.261C-32.3041 244.35 -26.3993 236.705 -11.9153 237.676C-2.06992 238.338 6.28442 245.415 16.7333 245.486C25.9159 245.545 35.4418 242.409 43.1453 237.463C54.2331 230.351 55.8069 216.246 70.4448 216.293C83.5798 216.329 89.2597 236.291 101.992 234.848C114.015 233.475 128.996 210.294 135.339 202.661C151.124 183.669 163.727 172.096 189.157 175.137C210.315 177.657 229.627 185.065 249.613 172.391" stroke="#191919" stroke-width="0.2" stroke-linecap="round" stroke-linejoin="round"/>
<path d="M-213.934 175.314C-197.923 187.136 -178.374 201.892 -159.311 208.128C-149.927 211.193 -142.129 208.246 -133.112 209.643C-122.947 211.216 -109.788 217.417 -101.02 222.636C-79.5543 235.416 -73.4838 257.355 -45.3441 252.183C-31.4754 249.639 -26.1741 244.444 -11.6783 245.415C-2.06959 246.066 6.49772 250.101 16.7336 249.84C25.7269 249.616 34.8741 248.527 43.0272 244.539C53.4761 239.415 57.1562 227.251 70.3385 226.706C82.657 226.197 88.9761 241.912 101.283 240.291C113.672 238.646 127.778 217.879 134.345 209.749C151.137 188.946 160.248 176.805 187.654 180.84C209.144 184 227.639 187.869 247.424 175.078" stroke="#191919" stroke-width="0.2" stroke-linecap="round" stroke-linejoin="round"/>
<path d="M-211.697 178.083C-196.018 189.928 -176.659 205.217 -157.714 211.086C-138.047 217.169 -118.912 215.548 -100.002 227.227C-78.2409 240.67 -74.0164 260.656 -44.8354 257.118C-31.4637 255.497 -25.0738 252.124 -11.3944 252.763C-1.7266 253.213 6.65143 254.799 16.7453 254.112C25.5019 253.521 34.6609 253.627 43.0152 250.61C52.9671 247.012 58.4341 237.203 70.2911 236.599C81.4736 236.019 88.9404 246.078 100.584 244.208C114.382 241.995 125.517 226.659 133.351 216.873C151.077 194.745 157.266 182.071 186.128 186.627C207.984 190.082 225.71 190.733 245.188 177.787" stroke="#191919" stroke-width="0.2" stroke-linecap="round" stroke-linejoin="round"/>
<path d="M-209.449 180.793C-193.995 192.804 -174.943 208.223 -156.069 213.986C-136.781 219.879 -116.581 220.305 -98.9377 232.54C-78.1347 246.953 -72.8689 263.543 -44.3269 261.934C-24.0091 260.786 -3.52556 260.526 16.7331 258.242C25.3478 257.272 34.6724 257.781 43.0978 255.615C52.7538 253.142 59.6171 246.184 70.3854 245.64C80.7514 245.107 89.2477 250.101 99.8149 247.947C114.476 244.965 123.127 235.132 132.274 223.878C140.309 213.986 146.994 198.531 158.721 192.946C168.377 188.355 174.365 190.863 184.53 192.319C206.847 195.514 223.651 193.68 242.927 180.497" stroke="#191919" stroke-width="0.2" stroke-linecap="round" stroke-linejoin="round"/>
<path d="M-207.153 183.467C-191.746 195.81 -173.322 210.743 -154.424 216.837C-135.171 223.038 -114.723 225.369 -97.8725 238.35C-78.5487 253.237 -70.5493 266.443 -43.8178 266.656C-23.713 266.821 -3.12301 265.07 16.7452 262.254C34.4715 259.745 52.896 254.432 70.4803 253.201C96.4545 251.367 112.855 252.562 131.256 230.694C149.858 208.578 153.302 194.863 182.968 198.034C205.664 200.448 221.663 196.768 240.644 183.183" stroke="#191919" stroke-width="0.2" stroke-linecap="round" stroke-linejoin="round"/>
<path d="M-204.834 186.13C-189.332 198.91 -171.736 212.861 -152.755 219.665C-133.266 226.671 -113.114 230.529 -96.7838 244.314C-79.4717 258.929 -67.2242 269.59 -43.2853 271.164C-22.8137 272.513 -3.26502 269.212 16.757 266.111C52.3516 260.597 104.264 266.313 130.215 237.262C148.971 216.281 152.308 202.105 181.382 203.667C204.126 204.897 219.864 199.963 238.336 185.858" stroke="#191919" stroke-width="0.2" stroke-linecap="round" stroke-linejoin="round"/>
<path d="M-202.479 188.757C-186.965 201.939 -170.032 215.074 -151.075 222.576C-131.538 230.304 -111.338 235.522 -95.6945 250.148C-62.3008 281.376 -24.8247 276.347 16.7458 269.827C51.2873 264.407 102.644 270.632 129.139 243.51C148.013 224.198 151.658 209.583 179.75 209.217C202.399 208.921 218.043 203.229 235.97 188.532" stroke="#191919" stroke-width="0.2" stroke-linecap="round" stroke-linejoin="round"/>
<path d="M-200.101 191.348C-184.658 204.862 -168.21 217.441 -149.371 225.618C-129.432 234.28 -110.83 240.883 -94.5946 255.615C-60.9879 286.098 -23.5473 279.483 16.7334 273.401C51.4051 268.158 99.4721 273.685 128.038 249.332C147.634 232.623 150.923 217.039 178.093 214.625C200.505 212.625 216.149 206.448 233.579 191.183" stroke="#191919" stroke-width="0.2" stroke-linecap="round" stroke-linejoin="round"/>
<path d="M-197.687 193.916C-165.902 222.541 -125.87 234.244 -93.423 260.562C-78.4184 272.726 -60.4435 279.542 -41.6049 282.773C-19.6895 286.524 -4.43636 279.802 16.7453 276.88C51.0856 272.158 97.3421 276.619 126.914 254.633C146.285 240.22 151.077 224.068 176.401 219.772C198.647 215.997 213.889 209.371 231.177 193.786" stroke="#191919" stroke-width="0.2" stroke-linecap="round" stroke-linejoin="round"/>
<path d="M-195.237 196.46C-164.198 225.263 -125.385 239.758 -92.2991 264.881C-77.0933 276.418 -59.6155 283.057 -41.0371 286.417C-19.1691 290.381 -4.44846 282.855 16.745 280.37C51.1564 276.347 95.2829 279.128 125.789 259.272C144.545 247.071 151.716 230.588 174.708 224.813C196.6 219.322 211.628 212.21 228.727 196.354" stroke="#191919" stroke-width="0.2" stroke-linecap="round" stroke-linejoin="round"/>
<path d="M-192.764 198.969C-162.589 227.83 -124.71 244.598 -91.1627 268.478C-75.3652 279.731 -59.4612 286.536 -40.445 290.026C-18.8965 293.991 -4.24683 285.778 16.7455 283.849C51.9615 280.619 92.5498 280.927 124.665 263.378C142.889 253.414 152.355 236.694 173.005 229.819C194.34 222.719 209.463 214.861 226.266 198.91" stroke="#191919" stroke-width="0.2" stroke-linecap="round" stroke-linejoin="round"/>
</g>
</g>
<defs>
<clipPath id="clip0_1067_76883">
<rect width="601.737" height="645.745" fill="white" transform="translate(-288.566 -354.05)"/>
</clipPath>
</defs>
</svg>
