<svg width="262" height="563" viewBox="0 0 262 563" fill="none" xmlns="http://www.w3.org/2000/svg">
<g opacity="0.4">
<g clip-path="url(#clip0_1311_42042)">
<path d="M-389.318 -22.6723C-362.279 -7.21307 -342.896 9.16433 -313.727 -8.13124C-286.144 -24.4873 -269.979 -64.9931 -240.112 -71.8472C-224.374 -75.4558 -214.942 -87.6268 -200.139 -93.9898C-185.939 -100.097 -174.816 -96.3813 -160.19 -104.965C-145.54 -113.549 -142.771 -111.542 -128.216 -105.008C-109.425 -96.5521 -105.307 -117.157 -88.2547 -126.382C-54.6599 -144.574 -38.8032 -77.3135 -16.663 -41.8896C4.1163 -8.66504 29.3805 -17.5477 55.615 -18.1242C66.2295 -18.3591 76.9859 -19.5762 87.5886 -18.7008C100.7 -17.6118 114.462 -7.08497 127.55 -8.53694C138.081 -9.71133 148.72 -19.4054 159.512 -21.0923C176.386 -23.74 191.237 -17.0352 207.448 -9.64725" stroke="#191919" stroke-width="0.2" stroke-linecap="round" stroke-linejoin="round"/>
<path d="M-388.194 -15.7755C-361.842 1.30659 -334.317 20.8014 -306.071 -0.46571C-294.865 -8.89997 -285.055 -24.7008 -274.961 -36.5301C-262.039 -51.6691 -250.443 -56.2599 -236.041 -63.776C-223.723 -70.2031 -210.02 -89.0574 -197.169 -92.1749C-186.483 -94.7585 -177.159 -89.997 -166.047 -95.1002C-160.864 -98.0255 -155.669 -100.951 -150.486 -103.876C-142.381 -98.5593 -134.594 -92.0254 -127.139 -84.2745C-121.956 -74.2388 -116.773 -74.2174 -111.578 -84.2104C-102.739 -91.5343 -94.9525 -101.719 -88.2312 -114.787C-57.1213 -145.642 -37.5017 -79.9612 -18.4027 -45.5409C-5.39785 -22.0958 1.37079 -9.49781 20.6946 -8.70776C31.037 -8.28071 41.4621 -9.17751 51.8163 -9.4978C76.8083 -10.2878 105.208 -0.935451 129.597 -5.65436C156.79 -10.9071 179.711 -15.7755 207.33 -6.78605" stroke="#191919" stroke-width="0.2" stroke-linecap="round" stroke-linejoin="round"/>
<path d="M-387.105 -8.92129C-362.764 8.22481 -332.211 26.4599 -305.976 10.7871C-294.77 4.08243 -284.605 -11.0779 -274.89 -22.651C-262.205 -37.7472 -249.815 -45.3061 -236.017 -55.4485C-223.876 -64.3739 -210.765 -84.9791 -197.145 -86.9222C-186.128 -88.5023 -177.502 -84.3813 -166.047 -88.6304C-160.864 -90.5521 -155.681 -92.4738 -150.486 -94.3956C-143.978 -80.2602 -136.191 -69.349 -127.151 -61.6621C-121.518 -50.4734 -116.335 -51.3702 -111.59 -64.3312C-103.105 -74.9221 -95.331 -87.0503 -88.2546 -100.716C-57.1685 -138.104 -37.7618 -83.1641 -18.3078 -44.6654C-5.97748 -20.2595 0.992355 -2.3447 20.6357 0.0254311C30.7532 1.24253 41.6044 -0.145413 51.7337 -0.999515C77.483 -3.13477 103.978 2.67311 129.455 -1.27711C155.772 -5.3768 180.622 -8.57968 207.117 -3.47642" stroke="#191919" stroke-width="0.2" stroke-linecap="round" stroke-linejoin="round"/>
<path d="M-386.064 -2.19524C-362.918 14.0754 -330.933 31.9048 -305.846 21.2499C-282.759 11.4491 -256.395 -27.3485 -235.947 -47.8897C-222.883 -61.0215 -213.097 -80.2601 -197.098 -80.3242C-186.081 -80.3669 -177.147 -79.5128 -166 -81.0075C-144.357 -83.9114 -145.587 -44.4092 -127.127 -39.2206C-120.844 -28.7365 -115.661 -30.8717 -111.578 -45.669C-103.555 -58.7368 -95.781 -72.2743 -88.255 -86.2816C-57.1451 -127.919 -38.6496 -85.6197 -18.2371 -42.7865C2.55402 0.836796 19.7124 13.3067 51.6624 7.49883C101.777 -1.59735 156.127 -3.83936 206.904 0.431146" stroke="#191919" stroke-width="0.2" stroke-linecap="round" stroke-linejoin="round"/>
<path d="M-385.07 4.33865C-362.185 19.0719 -330.4 37.2643 -305.692 30.8585C-282.014 24.709 -254.3 -16.7577 -235.864 -40.7793C-221.569 -59.3987 -216.185 -75.6907 -197.039 -72.381C-186.554 -70.5661 -175.892 -73.9398 -165.964 -72.1248C-145.753 -68.4308 -145.528 -20.2595 -127.115 -19.0637C-109.756 -17.932 -102.242 -51.6477 -88.2548 -71.5696C-80.6105 -82.4594 -67.44 -97.9614 -57.1687 -97.876C-37.9277 -97.7052 -28.7213 -61.8969 -18.2133 -39.3913C1.22886 2.28885 20.0793 25.435 51.5915 15.3139C78.82 6.55934 101.41 13.3495 129.183 10.7872C154.991 8.39567 180.8 5.17143 206.644 5.04332" stroke="#191919" stroke-width="0.2" stroke-linecap="round" stroke-linejoin="round"/>
<path d="M-384.135 10.7017C-360.362 23.6841 -332.447 40.6593 -307.502 39.5063C-279.232 38.1824 -251.081 -7.78959 -232.005 -40.7366C-221.888 -58.1816 -216.421 -69.6053 -201.748 -66.2743C-190.707 -63.7547 -174.72 -62.0678 -163.928 -56.0037C-149.728 -48.0392 -141.705 4.46676 -126.097 4.42405C-114.157 4.4027 -96.4427 -43.5124 -88.2541 -55.5126C-77.8881 -70.7156 -65.1318 -92.7941 -50.4111 -88.9933C-35.3236 -85.1072 -28.1526 -56.9005 -19.9758 -37.8967C0.259244 9.10024 22.1036 36.6023 55.4736 17.7053C80.2763 3.65536 104.736 20.6306 130.994 18.1324C156.116 15.7409 181.215 12.3459 206.349 10.2533" stroke="#191919" stroke-width="0.2" stroke-linecap="round" stroke-linejoin="round"/>
<path d="M-383.283 16.8939C-358.836 28.0613 -332.554 45.1647 -307.301 47.1078C-274.843 49.5847 -251.803 3.86888 -231.911 -34.7579C-220.965 -56.0037 -217.356 -63.114 -201.665 -56.4093C-187.749 -50.4733 -175.727 -51.0926 -163.881 -39.8184C-150.32 -26.9215 -144.439 18.4527 -126.074 14.7801C-112.974 12.1537 -97.3189 -27.861 -88.2545 -41.9964C-77.7347 -58.4165 -66.0671 -83.8261 -50.4352 -80.2175C-35.4897 -76.7797 -28.5554 -49.3844 -20.059 -31.2347C0.85046 13.3921 24.0319 44.6096 55.3666 20.5025C78.6546 2.58774 105.173 28.5951 130.792 25.7766C155.879 23.0221 180.954 19.6911 206.005 16.0825" stroke="#191919" stroke-width="0.2" stroke-linecap="round" stroke-linejoin="round"/>
<path d="M-382.502 23.0007C-357.593 32.5667 -332.388 50.4815 -307.064 54.7093C-270.701 60.7734 -253.436 15.869 -231.804 -26.9429C-220.586 -49.1282 -217.084 -53.2706 -201.582 -45.4342C-184.885 -36.9999 -176.756 -37.9394 -163.834 -21.0709C-149.977 -2.98529 -146.391 32.3745 -126.062 22.0399C-111.377 14.5665 -98.9043 -12.3377 -88.278 -29.9963C-77.5333 -47.847 -67.5815 -76.4167 -50.4941 -70.8651C-36.8976 -66.4451 -28.8983 -39.4341 -20.189 -23.6759C-9.87031 -5.01378 4.09302 15.7836 17.4883 27.741C35.6998 44.033 39.2025 36.218 55.213 22.0826C77.2467 2.65177 105.611 35.9618 130.532 33.2714C155.583 30.5596 180.611 26.588 205.591 22.2321" stroke="#191919" stroke-width="0.2" stroke-linecap="round" stroke-linejoin="round"/>
<path d="M-381.804 29.0649C-356.8 38.2465 -331.962 56.8232 -306.792 62.2895C-267.009 70.9159 -255.862 28.6165 -231.662 -16.8218C-211.143 -55.3418 -182.838 -28.95 -163.739 -0.0386267C-149.03 22.2321 -146.167 42.6664 -126.003 28.1467C-110.584 17.0434 -99.839 0.281628 -88.2542 -20.0246C-76.9534 -39.8398 -69.6522 -69.7761 -50.5177 -59.4201C-38.8974 -53.1424 -29.4189 -28.6083 -20.2835 -15.7114C-9.51522 -0.508375 4.96875 19.5203 17.4056 30.9653C36.7058 48.7306 38.469 37.4991 55.0829 23.2783C76.9391 4.57349 105.718 42.944 130.284 40.8515C155.264 38.7162 180.303 33.4208 205.165 28.7659" stroke="#191919" stroke-width="0.2" stroke-linecap="round" stroke-linejoin="round"/>
<path d="M-381.213 35.2572C-355.913 43.5633 -331.726 64.0618 -306.509 69.7629C-293.753 72.6455 -280.949 73.6277 -269.009 63.9122C-250.395 48.7733 -245.97 20.9296 -231.521 -4.1383C-206.73 -47.1637 -184.01 -8.601 -163.669 21.741C-148.12 44.9298 -144.771 48.8587 -125.968 34.1255C-109.886 21.5275 -100.503 8.43835 -88.2551 -13.7469C-76.2088 -35.5479 -70.872 -63.1567 -50.566 -46.4804C-40.0698 -37.8539 -30.7569 -18.7434 -20.3673 -8.32338C-7.78844 4.29597 4.51822 22.104 17.31 33.6344C36.8942 51.2929 38.0184 36.9226 54.94 24.7517C77.6482 8.41699 105.587 49.4993 130.011 48.3676C154.861 47.2146 180.018 40.1255 204.703 35.2785" stroke="#191919" stroke-width="0.2" stroke-linecap="round" stroke-linejoin="round"/>
<path d="M-380.691 41.6202C-355.581 48.9014 -332.849 70.8946 -308.07 76.8946C-296.119 79.7986 -283.232 82.9374 -271.588 76.8946C-253.353 67.3928 -247.2 41.8124 -235.082 19.136C-224.716 -0.273516 -214.137 -13.5761 -198.411 -7.44793C-177.478 0.708741 -178.779 29.0222 -161.716 49.4139C-147.504 66.4105 -138.593 50.8872 -124.997 40.1469C-103.981 23.5346 -105.365 25.7126 -88.2543 -11.932C-80.2668 -29.5265 -73.0011 -48.1245 -58.8958 -41.4625C-51.2988 -33.071 -43.9621 -24.0175 -36.8621 -14.3021C-30.8981 -3.60446 -23.5378 1.47744 -14.8048 0.900922C-3.83532 7.71238 4.8622 22.0826 14.5419 32.8443C33.5107 53.9406 33.7119 42.7732 51.1897 32.7589C77.1994 17.8335 97.7065 50.268 124.261 54.7093C149.619 58.9371 179.025 47.0864 204.171 41.6842" stroke="#191919" stroke-width="0.2" stroke-linecap="round" stroke-linejoin="round"/>
<path d="M-380.136 47.9406C-354.67 54.7734 -332.767 78.5815 -307.728 84.3039C-295.965 86.9944 -282.937 91.6492 -271.328 86.8662C-253.768 79.6063 -246.999 56.4389 -234.846 35.6628C-225.368 19.4563 -212.363 1.00761 -198.293 5.72653C-178.638 12.3245 -179.549 57.6986 -161.633 68.8446C-148.96 76.7451 -135.292 56.7164 -124.962 47.2573C-119.909 43.4351 -115.01 39.0151 -110.288 34.0186C-99.3071 25.926 -91.9704 10.5522 -88.2666 -12.0601C-79.3088 -29.5906 -72.0313 -39.5622 -58.9318 -30.039C-51.9383 -20.1741 -44.6134 -11.206 -36.9573 -3.15614C-30.7329 6.53792 -23.3726 9.86894 -14.8881 6.87958C-3.72926 11.4063 4.82623 24.8371 14.4231 34.8514C32.3624 53.5563 33.8771 44.2252 51.0117 36.7305C77.5539 25.136 97.7889 53.8125 123.941 60.2823C149.004 66.4746 178.717 53.7057 203.626 47.9406" stroke="#191919" stroke-width="0.2" stroke-linecap="round" stroke-linejoin="round"/>
<path d="M-379.544 54.2609C-353.806 60.9869 -332.731 86.2897 -307.361 91.7133C-295.681 94.2115 -282.664 99.635 -271.044 96.0905C-254.466 91.0513 -246.691 72.1756 -234.586 53.3854C-224.965 38.46 -211.806 17.0647 -198.163 21.9544C-180.708 28.2107 -179.359 78.9231 -161.538 84.1118C-151.338 87.0798 -132.653 63.7627 -124.914 55.3712C-107.661 36.6877 -103.863 9.74077 -88.2665 -12.7435C-78.7407 -26.4732 -69.8065 -28.0319 -58.9317 -18.8716C-39.4895 -2.45153 -36.2945 7.54147 -14.9827 14.1608C-3.40968 17.7693 4.25834 27.6983 14.293 37.5845C30.7887 53.8125 34.3623 47.3854 50.8225 42.4743C77.8498 34.4244 97.6352 56.2253 123.597 64.809C148.944 73.2006 177.747 60.5599 203.035 54.2609" stroke="#191919" stroke-width="0.2" stroke-linecap="round" stroke-linejoin="round"/>
<path d="M-378.905 60.5385C-353.061 67.4568 -332.637 93.7417 -306.97 99.0799C-295.267 101.514 -282.44 107.13 -270.749 104.931C-254.927 101.941 -246.478 87.9552 -234.326 70.9586C-223.853 56.3108 -211.795 33.5489 -198.009 39.9333C-181.513 47.5776 -180.815 93.272 -161.432 94.4037C-151.918 94.9588 -131.873 71.1294 -124.855 62.2895C-111.578 45.5704 -101.757 0.302982 -88.255 -12.2737C-79.0486 -20.836 -67.665 -16.0744 -58.9083 -8.57966C-41.4305 6.38848 -34.6737 17.4277 -15.0777 22.4883C-2.86567 25.6485 3.29947 31.3923 14.1506 41.6629C29.4393 56.1399 34.9181 52.1256 50.6091 49.0509C77.2578 43.7981 97.7058 57.2503 123.218 68.2255C149.37 79.4783 176.066 67.5635 202.395 60.5385" stroke="#191919" stroke-width="0.2" stroke-linecap="round" stroke-linejoin="round"/>
<path d="M-378.219 66.7948C-352.434 74.1401 -332.495 100.767 -306.532 106.404C-277.659 112.681 -258.939 119.258 -234.065 87.9766C-222.386 73.286 -212.031 50.7377 -197.831 58.9371C-181.194 68.5457 -182.436 107.898 -161.314 102.496C-150.498 99.7418 -132.89 79.2647 -124.796 67.5208C-112.489 49.6701 -103.461 1.02903 -88.2429 -8.43015C-65.7359 -22.4374 -37.5844 24.6022 -15.1958 30.2179C-2.48677 33.3994 2.47139 36.8799 14.0089 47.6416C28.3154 60.9869 35.4746 58.5314 50.4082 56.4602C76.2877 52.8943 98.0492 57.2289 122.84 70.7024C150.199 85.5851 173.652 74.802 201.733 66.7948" stroke="#191919" stroke-width="0.2" stroke-linecap="round" stroke-linejoin="round"/>
<path d="M-377.497 73.0298C-352.422 80.6526 -333.406 107.365 -307.834 113.322C-283.753 118.916 -259.365 130.938 -237.355 108.176C-224.551 94.9375 -211.345 63.8055 -194.992 77.5138C-184.2 86.5673 -181.466 113.749 -166.544 112.383C-158.261 111.635 -129.92 83.9409 -123.861 74.4817C-109.59 52.211 -109.484 8.5878 -88.2549 1.17846C-64.4225 -7.14903 -39.7264 25.8193 -17.1602 35.855C9.06246 47.5135 25.8895 68.0973 53.8516 63.9763C79.1158 60.2396 100.333 58.873 124.307 73.9693C151.891 91.3503 172.102 81.7843 200.987 73.0084" stroke="#191919" stroke-width="0.2" stroke-linecap="round" stroke-linejoin="round"/>
<path d="M-376.739 79.2434C-351.866 88.0193 -333.24 114.197 -307.349 120.582C-284.984 126.091 -258.418 140.162 -237.082 122.568C-221.947 110.076 -212.552 81.101 -194.79 96.3467C-183.039 106.447 -181.619 123.956 -166.402 118.511C-152.722 113.621 -132.239 93.7417 -123.79 74.5244C-112.335 48.453 -108.927 15.5274 -88.2426 9.42055C-64.2683 2.3315 -39.3473 29.2144 -17.3018 42.1113C8.89722 57.4211 25.1562 76.4675 53.5917 72.0475C79.2701 68.0546 99.6589 57.4424 123.858 75.3999C136.662 84.9018 144.519 94.4677 158.719 91.8841C172.611 89.3431 186.516 83.642 200.242 79.222" stroke="#191919" stroke-width="0.2" stroke-linecap="round" stroke-linejoin="round"/>
<path d="M-375.946 85.4142C-362.302 91.9268 -354.031 103.585 -341.511 113.578C-330.376 122.461 -318.862 124.66 -306.828 127.799C-285.48 133.351 -257.838 148.511 -236.786 135.635C-219.048 124.767 -214.196 97.8201 -194.565 112.318C-182.424 121.287 -180.176 130.361 -166.248 123.507C-145.196 113.151 -136.83 105.785 -123.731 72.56C-112.737 44.6736 -108.915 24.3886 -88.2543 18.7302C-63.9605 12.0682 -39.359 31.5204 -17.4673 48.453C-5.85884 57.4211 6.03368 74.0761 18.0209 80.3751C29.3453 86.3111 41.865 82.0191 53.2842 80.1188C79.8027 75.6988 98.31 55.6702 123.349 76.5103C135.585 86.6954 143.88 100.083 158.08 98.7596C171.759 97.4998 186.042 90.005 199.426 85.4356" stroke="#191919" stroke-width="0.2" stroke-linecap="round" stroke-linejoin="round"/>
<path d="M-375.106 91.5638C-350.387 107.685 -333.228 127.607 -306.296 134.973C-285.41 140.696 -257.483 156.241 -236.503 147.358C-216.256 138.774 -216.126 113.856 -194.352 124.916C-182.543 130.917 -178.247 133.03 -166.118 127.308C-140.806 115.393 -139.907 110.931 -123.684 69.955C-112.963 42.8586 -107.188 32.4385 -88.2783 27.8264C-63.4638 21.7836 -39.525 34.0186 -17.6096 55.3712C-6.02481 66.6453 4.53054 86.4391 17.7957 91.2648C28.8599 95.3004 41.983 90.1332 52.9644 88.1047C67.0224 85.4997 74.5957 81.7416 87.991 71.5777C102.534 60.5385 108.912 65.0439 122.817 77.5351C134.401 87.9552 143.572 105.059 157.417 105.379C170.647 105.699 185.758 96.1759 198.574 91.5851" stroke="#191919" stroke-width="0.2" stroke-linecap="round" stroke-linejoin="round"/>
<path d="M-374.219 97.692C-349.724 118.617 -333.145 134.248 -305.716 142.148C-285.09 148.084 -256.974 164.184 -236.159 157.693C-215.12 151.137 -216.504 128.44 -194.092 134.141C-183.11 136.938 -176.567 133.671 -165.928 130.212C-129.292 118.34 -126.867 46.3391 -88.2544 36.5383C-63.1559 30.1753 -39.0988 37.7554 -17.6923 62.7165C-5.85892 76.5316 2.60191 97.9055 17.5829 101.386C28.4814 103.927 41.9122 98.5461 52.6687 96.0265C67.3066 92.5887 74.0397 87.5922 87.5889 74.9301C102.097 61.3499 107.907 65.3429 122.296 78.7736C133.538 89.2577 143.359 108.774 156.755 110.909C169.629 112.959 185.38 102.325 197.71 97.6706" stroke="#191919" stroke-width="0.2" stroke-linecap="round" stroke-linejoin="round"/>
<path d="M-373.308 104.269C-350.552 127.5 -332.601 140.91 -306.757 148.767C-284.735 155.472 -253.933 172.319 -232.313 162.732C-218.8 156.753 -212.966 138.39 -198.186 138.304C-186.163 138.24 -175.703 138.198 -163.917 133.756C-143.173 125.941 -141.99 110.333 -129.553 82.7879C-117.542 56.1612 -106.501 49.3925 -88.2544 44.2039C-65.1084 37.6273 -38.6965 41.5134 -19.491 67.5208C-7.40913 83.8555 -0.959968 103.372 14.8257 108.539C25.736 112.105 38.0072 106.745 49.0004 104.653C67.6615 101.087 73.4362 90.3254 89.778 75.0369C103.576 62.14 110.463 68.6952 123.515 82.3395C134.129 93.4428 144.353 112.361 157.003 115.714C169.558 119.045 184.835 108.496 196.787 103.756" stroke="#191919" stroke-width="0.2" stroke-linecap="round" stroke-linejoin="round"/>
<path d="M-372.35 111.443C-350.304 136.511 -331.607 147.721 -306.13 155.835C-284.262 162.817 -253.105 179.216 -231.959 169.244C-218.54 162.924 -212.233 147.23 -197.926 144.283C-187.17 142.063 -174.035 139.885 -163.74 136.639C-143.304 130.191 -143.469 104.012 -129.459 81.5281C-119.672 65.8126 -101.047 55.478 -88.2549 52.1683C-63.9966 45.8693 -38.413 47.5348 -19.5743 77.407C-8.1433 95.5354 -1.36277 112.34 14.5886 116.824C25.4161 119.856 37.8055 115.286 48.6685 112.596C66.7144 108.112 73.5541 93.3787 89.3161 78.7309C102.558 66.4318 110.119 71.3643 122.923 83.9837C133.88 94.7667 143.903 113.877 156.269 119.386C169.156 125.109 183.521 114.988 195.84 109.863" stroke="#191919" stroke-width="0.2" stroke-linecap="round" stroke-linejoin="round"/>
<path d="M-371.355 118.959C-350.15 144.326 -330.211 154.661 -305.467 162.903C-283.469 170.227 -252.17 185.237 -231.58 174.091C-224.243 168.027 -217.451 160.276 -211.227 150.86C-206.695 150.112 -202.174 149.365 -197.642 148.618C-185.761 143.92 -175.1 141.016 -163.55 137.514C-144.747 131.813 -144.049 99.6351 -129.352 82.916C-120.607 72.9657 -98.4907 62.2468 -88.243 60.0261C-62.115 54.3677 -39.2175 55.2858 -19.7043 88.2755C1.33533 123.849 19.9137 130.383 48.3137 120.496C77.0687 110.482 91.3988 59.3641 122.296 85.9481C133.916 95.941 143.241 114.24 155.488 122.055C168.895 130.618 181.652 121.65 194.858 115.906" stroke="#191919" stroke-width="0.2" stroke-linecap="round" stroke-linejoin="round"/>
<path d="M-370.326 126.539C-348.233 153.102 -325.679 162.796 -299.835 171.55C-278.63 178.746 -246.786 193.885 -227.888 173.878C-216.457 161.771 -207.677 154.276 -194.826 147.401C-188.72 140.867 -182.082 137.023 -174.922 135.87C-170.485 137.728 -166.059 139.607 -161.622 141.465C-153.682 132.539 -147.031 121.265 -141.635 107.664C-137.541 93.4215 -130.867 86.1402 -121.625 85.8626C-110.36 78.7949 -100.29 70.6383 -88.2432 68.5244C-77.3684 66.624 -65.748 67.0938 -54.8613 67.0938C-39.123 67.0938 -33.5259 79.286 -21.4677 96.5389C0.139975 127.479 23.1322 142.938 51.402 126.561C74.3705 113.258 89.7301 70.3393 116.876 83.8769C131.549 91.2008 141.939 114.859 155.618 125.536C168.67 135.721 180.693 128.589 193.852 121.863" stroke="#191919" stroke-width="0.2" stroke-linecap="round" stroke-linejoin="round"/>
<path d="M-369.249 134.055C-347.63 159.081 -324.247 170.163 -299.137 178.597C-276.014 186.369 -247.709 196.511 -227.498 174.817C-217.096 163.65 -205.712 153.977 -194.53 147.337C-183.182 140.611 -172.023 145.308 -161.42 140.525C-154.652 129.998 -148.013 119.237 -141.493 108.219C-136.7 96.3681 -130.05 91.094 -121.542 92.4179C-110.004 86.2043 -100.656 77.9622 -88.2547 76.4462C-77.5574 75.1437 -65.5938 74.6312 -54.9675 75.4426C-39.4777 76.617 -33.7267 92.2471 -21.6922 107.856C-1.45718 134.098 26.008 150.732 50.9645 132.091C72.7023 115.863 89.7186 79.2007 116.178 87.8911C131.762 92.9944 141.501 116.119 154.731 128.781C167.582 141.102 179.309 135.571 192.74 127.863" stroke="#191919" stroke-width="0.2" stroke-linecap="round" stroke-linejoin="round"/>
<path d="M-368.148 141.294C-346.706 164.077 -322.969 177.999 -298.426 185.6C-287.362 189.038 -277.138 187.864 -266.157 188.889C-245.165 190.853 -246.419 194.056 -227.107 176.526C-216.812 167.173 -204.624 153.081 -194.222 146.44C-188.862 135.742 -182.27 133.906 -174.437 140.931C-170.035 140.376 -165.621 139.821 -161.219 139.287C-155.527 127.756 -148.912 118.639 -141.351 111.913C-135.351 104.589 -128.713 99.9127 -121.459 97.8842C-110.016 90.7097 -100.644 85.5638 -88.2664 84.6456C-78.0661 83.8769 -64.9666 81.3787 -55.0739 83.7488C-40.9923 87.1439 -33.3716 106.489 -21.9169 118.981C-1.88309 140.824 28.1499 157.479 50.5267 136.618C71.1523 117.379 90.1566 89.0442 115.468 92.8663C148.59 97.8628 154.258 157.586 191.616 133.821" stroke="#191919" stroke-width="0.2" stroke-linecap="round" stroke-linejoin="round"/>
<path d="M-367.001 148.127C-345.559 168.369 -321.821 186.156 -297.669 192.561C-271.459 199.522 -250.218 198.092 -226.693 179.664C-222.315 177.358 -217.936 175.031 -213.558 172.725C-207.499 162.454 -200.944 153.422 -193.891 145.628C-182.685 138.561 -172.816 148.127 -160.994 138.924C-147.303 128.247 -135.908 112.831 -121.353 102.731C-110.123 94.9375 -100.301 93.4428 -88.255 92.8877C-78.741 92.4606 -64.044 88.6171 -55.169 92.8663C-42.5428 98.9091 -33.5968 119.386 -22.1185 129.358C-1.18535 147.572 29.0488 162.561 50.1003 140.418C69.0218 120.497 91.375 96.1973 114.769 98.9518C147.015 102.774 154.553 166.041 190.491 139.735" stroke="#191919" stroke-width="0.2" stroke-linecap="round" stroke-linejoin="round"/>
<path d="M-365.817 154.447C-321.951 192.284 -272.121 221.259 -226.255 184.704C-213.842 174.817 -205.772 152.76 -193.536 145.863C-181.892 139.308 -173.088 149.216 -160.758 140.205C-135.245 121.564 -116.607 101.258 -88.2547 101.044C-78.2555 100.959 -64.7183 97.3503 -55.2871 103.414C-43.2644 111.123 -34.4486 130.746 -22.3312 138.817C-0.0254126 153.657 28.6586 166.575 49.6272 143.835C67.9452 123.977 91.7776 105.144 114.012 105.891C145.607 106.959 153.891 173.494 189.308 145.607" stroke="#191919" stroke-width="0.2" stroke-linecap="round" stroke-linejoin="round"/>
<path d="M-364.599 160.191C-322.567 194.931 -270.713 229.672 -225.817 192.07C-212.682 181.074 -206.742 154.895 -193.181 148.426C-181.821 143.002 -172.378 150.262 -160.521 143.792C-134.144 129.4 -116.536 109.244 -88.2548 109.244C-77.309 109.244 -65.8188 106.34 -55.4173 114.603C-43.3828 124.169 -35.5965 141.443 -22.5562 147.806C0.992168 159.294 27.558 169.778 49.142 147.208C66.679 128.867 92.4402 113.109 113.243 112.874C135.928 112.639 132.188 126.027 150.991 149.579C162.943 164.547 174.99 161.984 188.089 151.458" stroke="#191919" stroke-width="0.2" stroke-linecap="round" stroke-linejoin="round"/>
<path d="M-363.344 165.358C-342.659 182.654 -318.33 208.875 -295.243 210.711C-284.936 211.522 -273.978 209.515 -263.589 208.896C-251.531 208.17 -236.822 210.092 -225.32 199.159C-212.137 186.604 -207.546 158.995 -192.814 152.846C-182.104 148.383 -171.454 154.362 -160.26 149.771C-145.291 143.621 -135.363 128.461 -121.021 120.368C-110.667 114.518 -98.8451 117.336 -88.2425 117.443C-76.3736 117.55 -66.6939 115.286 -55.5114 125.707C-43.5598 136.853 -36.4479 150.839 -22.7686 155.75C1.80923 164.568 26.174 172.255 48.6574 150.817C65.3424 134.91 93.2099 119.728 112.451 119.877C134.816 120.048 131.384 134.931 149.986 157.202C162.021 171.615 173.972 167.387 186.835 157.33" stroke="#191919" stroke-width="0.2" stroke-linecap="round" stroke-linejoin="round"/>
<path d="M-362.042 170.44C-341.511 187.907 -317.217 215.11 -294.379 215.665C-283.966 215.921 -273.138 215.174 -262.879 214.832C-251.814 214.469 -234.988 214.982 -224.799 204.583C-211.794 191.302 -208.019 165.059 -192.447 159.038C-182.021 155.002 -170.851 161.728 -160.012 157.949C-145.291 152.803 -135.173 135.123 -120.914 128.247C-110.619 123.272 -98.7385 125.344 -88.2542 125.514C-62.2208 125.941 -47.3345 155.899 -23.0407 162.711C2.3773 169.821 24.6477 173.835 48.125 154.767C63.958 141.892 94.0857 125.194 111.611 126.731C132.71 128.568 131.337 148.041 148.933 165.55C161.559 178.127 172.505 172.682 185.534 163.073" stroke="#191919" stroke-width="0.2" stroke-linecap="round" stroke-linejoin="round"/>
<path d="M-360.717 175.522C-339.902 193.522 -316.661 219.957 -293.492 219.829C-282.794 219.765 -272.547 220.32 -262.145 220.619C-250.075 220.96 -234.988 221.345 -224.219 209.344C-211.853 195.551 -207.818 173.6 -192.044 167.536C-181.454 163.458 -170.307 171.422 -159.739 167.045C-145.575 161.173 -135.221 142.682 -120.796 137.28C-110.513 133.436 -98.6676 133.692 -88.2543 133.586C-62.9665 133.287 -47.3228 163.479 -23.3012 169.543C2.2825 176.013 23.6062 175.18 47.5923 159.465C62.8337 149.472 94.7127 130.66 110.759 133.842C128.899 137.429 132.686 161.387 147.856 174.625C160.482 185.643 171.748 177.785 184.208 168.839" stroke="#191919" stroke-width="0.2" stroke-linecap="round" stroke-linejoin="round"/>
<path d="M-359.297 180.796C-337.784 199.693 -316.543 223.587 -292.533 223.629C-271.292 223.672 -242.289 238.021 -223.592 214.256C-212.149 199.693 -206.682 183.081 -191.63 177.337C-181.075 173.301 -169.845 179.878 -159.456 174.711C-145.007 167.536 -135.73 153.401 -120.666 148.105C-110.56 144.539 -98.5257 143.152 -88.2544 142.212C-63.7475 139.97 -46.9679 169.287 -23.5971 175.928C1.43044 183.059 23.1801 178.148 47.0125 165.23C62.5615 156.796 93.8725 138.07 109.847 142.447C125.515 146.739 132.875 174.604 146.708 184.426C159.228 193.309 171.014 182.995 182.788 174.753" stroke="#191919" stroke-width="0.2" stroke-linecap="round" stroke-linejoin="round"/>
<path d="M-357.842 186.049C-335.595 206.12 -316.39 226.49 -291.551 227.345C-268.382 228.135 -243.508 245.921 -222.918 219.786C-212.304 206.291 -204.612 192.561 -191.181 187.138C-180.614 182.867 -169.621 187.138 -159.136 181.138C-142.404 171.529 -137.706 165.23 -120.512 161.365C-109.496 158.888 -99.2598 154.105 -88.2311 151.607C-64.529 146.226 -46.353 173.686 -23.8696 181.8C0.625367 190.618 22.7182 182.12 46.4322 172.084C62.3953 165.337 92.9135 144.796 108.924 151.714C123.692 158.077 131.029 187.031 145.548 194.44C157.784 200.697 170.304 188.334 181.356 180.668" stroke="#191919" stroke-width="0.2" stroke-linecap="round" stroke-linejoin="round"/>
<path d="M-356.351 191.323C-333.536 212.142 -315.892 229.202 -290.522 231.359C-265.151 233.516 -245.614 252.583 -222.22 226.405C-212.161 215.152 -202.269 202.298 -190.719 196.554C-180.105 191.28 -169.443 193.159 -158.829 186.54C-139.126 174.241 -140.582 172.896 -120.382 176.953C-107.685 179.515 -100.064 166.127 -88.2546 161.344C-65.3453 152.056 -45.8676 177.422 -24.2126 187.095C-0.356612 197.75 22.2332 188.44 45.7697 179.6C62.218 173.429 91.5529 151.821 107.907 160.853C122.556 168.945 128.71 199.01 144.294 204.177C155.796 207.999 169.759 193.629 179.841 186.476" stroke="#191919" stroke-width="0.2" stroke-linecap="round" stroke-linejoin="round"/>
<path d="M-354.812 196.597C-331.832 217.843 -314.934 231.957 -289.469 236.035C-262.974 240.284 -246.75 259.245 -221.534 234.754C-199.938 213.786 -180.981 206.12 -158.498 191.451C-137.304 177.615 -140.594 188.59 -120.229 194.825C-107.141 198.839 -99.532 179.259 -88.243 172.234C-65.665 158.162 -46.0809 181.031 -24.485 192.092C-0.782856 204.22 21.4401 195.444 45.1423 187.181C62.064 181.266 90.2036 159.059 106.912 169.693C121.396 178.896 127.029 209.387 143.051 213.487C153.37 216.113 169.416 198.839 178.326 192.326" stroke="#191919" stroke-width="0.2" stroke-linecap="round" stroke-linejoin="round"/>
<path d="M-353.25 201.871C-330.435 223.245 -313.537 235.138 -288.403 241.416C-262.891 247.8 -245.78 267.637 -220.871 244.79C-199.902 225.551 -181.229 207.038 -158.178 196.106C-135.801 185.494 -140.475 207.892 -120.098 214.32C-107.33 218.355 -98.3245 192.497 -88.2662 183.85C-66.0077 164.739 -46.6957 184.383 -24.7804 196.768C-0.794199 210.327 20.2455 202.981 44.4683 194.654C61.6385 188.761 88.9261 166.319 105.871 177.785C119.929 187.309 125.905 218.441 141.75 221.772C151.146 223.736 168.635 204.199 176.741 198.049" stroke="#191919" stroke-width="0.2" stroke-linecap="round" stroke-linejoin="round"/>
<path d="M-351.641 207.145C-329.169 228.476 -311.833 238.704 -287.303 247.16C-264.086 255.146 -243.555 277.032 -220.196 256.085C-199.985 237.978 -180.968 209.11 -157.834 201.23C-136.085 193.8 -138.925 232.298 -119.944 234.604C-107.685 236.099 -97.4488 205.843 -88.2661 195.999C-66.4455 172.618 -47.5121 187.479 -25.0288 201.316C-0.439129 216.455 18.6835 210.882 43.7939 202.127C61.0114 196.127 87.7784 173.536 104.807 185.045C118.557 194.334 124.923 225.209 140.425 228.263C149.679 230.078 167.204 210.006 175.12 203.793" stroke="#191919" stroke-width="0.2" stroke-linecap="round" stroke-linejoin="round"/>
<path d="M-349.996 212.419C-328.093 233.516 -309.928 242.996 -286.179 253.331C-264.654 262.704 -241.342 286.235 -219.522 265.395C-201.251 247.95 -179.501 211.715 -157.48 207.957C-137.493 204.54 -137.978 254.804 -119.779 254.484C-108.62 254.27 -96.4551 218.611 -88.2546 208.448C-66.9073 181.97 -48.3999 190.81 -25.2776 206.248C-0.143606 223.031 17.1094 218.953 43.1072 209.601C60.1945 203.451 86.7367 180.689 103.741 191.451C117.492 200.163 123.846 229.33 139.099 232.597C149.181 234.754 165.002 216.412 173.499 209.537" stroke="#191919" stroke-width="0.2" stroke-linecap="round" stroke-linejoin="round"/>
<path d="M-348.327 217.672C-327.063 238.448 -308.011 248.057 -285.031 259.907C-264.512 270.498 -239.034 295.587 -218.835 272.313C-207.712 259.502 -201.014 248.505 -188.163 239.879C-181.098 235.138 -164.757 215.857 -157.136 216.369C-138.416 217.629 -139.244 275.858 -119.636 272.527C-109.306 270.776 -95.9813 231.508 -88.2778 221.003C-67.2973 192.433 -49.3107 194.504 -25.5848 211.651C-0.0958419 230.099 15.5952 226.854 42.3622 216.882C59.2483 210.604 85.6603 187.543 102.594 196.896C116.238 204.433 123.054 231.765 137.68 235.672C148.921 238.683 162.293 223.031 171.783 215.088" stroke="#191919" stroke-width="0.2" stroke-linecap="round" stroke-linejoin="round"/>
<path d="M-346.611 222.946C-325.891 243.466 -306.141 253.587 -283.824 266.527C-262.583 278.826 -237.567 303.915 -218.09 277.16C-207.002 261.936 -201.12 256.683 -187.583 249.082C-180.199 244.939 -164.674 226.042 -156.745 227.857C-138.392 232.064 -141.824 296.207 -119.447 286.961C-108.619 282.477 -96.6913 245.708 -88.266 233.729C-67.2855 203.942 -50.2337 199.117 -25.9043 218.163C-0.438987 238.106 14.4828 234.519 41.6167 224.206C58.6803 217.715 84.1575 194.91 101.446 201.786C115.007 207.167 122.592 233.302 136.271 238.17C148.566 242.548 159.453 230.035 170.091 220.747" stroke="#191919" stroke-width="0.2" stroke-linecap="round" stroke-linejoin="round"/>
<path d="M-344.86 228.199C-324.732 248.783 -304.355 259.566 -282.605 273.103C-272.937 279.125 -263.187 285.317 -253.27 289.908C-235.189 298.256 -232.692 302.527 -217.344 280.555C-206.351 264.818 -200.47 264.818 -187.004 259.117C-179.182 255.808 -164.923 238.363 -156.355 244.235C-138.594 256.427 -142.759 312.157 -119.258 298.385C-107.993 291.787 -97.3899 259.523 -88.2427 246.626C-66.848 216.455 -51.1452 205.138 -26.2242 226.234C-1.33871 247.288 14.163 241.907 40.8826 231.53C57.828 224.953 83.104 201.658 100.298 206.355C114.166 210.134 121.917 234.412 134.839 240.391C147.536 246.242 157.05 237.188 168.351 226.362" stroke="#191919" stroke-width="0.2" stroke-linecap="round" stroke-linejoin="round"/>
<path d="M-343.062 233.452C-323.608 254.334 -302.58 265.971 -281.351 279.637C-271.837 285.765 -262.11 292.683 -252.241 296.805C-232.562 305.004 -233.343 304.513 -216.575 282.989C-205.724 269.046 -198.92 273.53 -186.412 269.9C-175.348 266.676 -167.266 253.224 -155.977 263.815C-138.333 280.363 -142.806 324.904 -119.068 307.908C-107.744 299.794 -97.9695 272.911 -88.2425 259.971C-79.4385 248.27 -67.546 231.701 -57.4285 225.081C-44.0569 216.327 -38.7319 224.761 -26.6027 235.694C-2.80588 257.153 14.5181 249.21 40.1136 238.79C57.0945 231.871 81.9326 208.49 99.1028 210.903C128.828 215.088 134.437 266.484 166.576 231.914" stroke="#191919" stroke-width="0.2" stroke-linecap="round" stroke-linejoin="round"/>
<path d="M-341.239 238.683C-322.531 260.014 -300.757 272.42 -280.085 286.107C-270.819 292.235 -260.962 300.349 -251.199 303.616C-229.414 310.919 -235.284 302.015 -215.806 285.167C-205.464 276.221 -196.577 283.267 -185.832 281.388C-172.046 278.954 -167.609 267.381 -155.61 285.146C-140.948 306.819 -139.599 331.374 -118.903 315.595C-107.898 307.182 -98.2536 285.787 -88.2544 274.043C-78.2908 262.341 -67.8064 248.057 -57.6416 237.551C-43.9268 223.373 -40.01 234.562 -27.0051 246.263C-3.85912 267.103 14.8612 256.897 39.3089 245.943C56.4436 238.256 80.5835 215.686 97.872 215.793C125.621 215.964 135.289 273.359 164.742 237.359" stroke="#191919" stroke-width="0.2" stroke-linecap="round" stroke-linejoin="round"/>
<path d="M-339.382 243.893C-321.407 265.672 -298.936 278.804 -278.795 292.534C-269.979 298.555 -259.625 308.399 -250.135 310.406C-229.214 314.847 -234.124 298.491 -215.002 288.029C-205.961 283.096 -194.305 293.516 -185.229 293.452C-169.692 293.345 -167.29 287.11 -155.22 306.99C-140.984 330.435 -137.162 336.67 -118.726 321.659C-108.218 313.118 -98.3842 299.004 -88.2431 289.139C-76.6227 277.843 -68.8245 264.583 -57.855 251.131C-44.3532 234.583 -40.8861 246.925 -27.4079 257.644C-3.64657 276.541 14.5058 265.651 38.4919 253.053C55.6739 244.021 79.0921 223.779 96.6172 221.644C122.319 218.526 136.07 278.868 162.872 242.74" stroke="#191919" stroke-width="0.2" stroke-linecap="round" stroke-linejoin="round"/>
<path d="M-337.488 249.103C-319.715 270.861 -297.361 284.954 -277.446 298.918C-269.281 304.641 -257.98 316.577 -249.022 317.153C-231.935 318.242 -230.006 296.036 -214.149 292.513C-206.233 290.74 -192.636 303.872 -184.59 305.644C-168.899 309.125 -166.875 310.534 -154.782 328.129C-140.085 349.503 -134.31 339.595 -118.524 326.378C-108.62 318.093 -98.242 312.84 -88.231 305.474C-74.244 295.16 -70.4573 282.37 -58.127 265.395C-45.2641 247.694 -41.3828 260.825 -27.8218 269.409C-2.08429 285.701 13.086 275.858 37.6402 260.142C54.2779 249.509 77.9919 231.743 95.3159 228.113C119.633 223.031 136.129 282.797 160.991 248.163" stroke="#191919" stroke-width="0.2" stroke-linecap="round" stroke-linejoin="round"/>
<path d="M-335.56 254.292C-317.656 275.751 -295.977 290.933 -276.097 305.26C-268.654 310.62 -256.205 324.499 -247.91 323.837C-234.314 322.769 -226.882 296.207 -213.309 299.474C-204.73 301.523 -192.305 313.951 -183.951 317.879C-170.993 323.986 -165.597 338.292 -154.344 347.602C-138.748 360.478 -132.263 341.41 -118.347 331.332C-108.348 324.093 -98.3249 327.445 -88.2311 322.662C-72.2679 315.082 -71.6407 299.986 -58.8962 280.406C-46.8736 261.936 -41.8681 274.256 -28.3662 281.196C-20.0947 285.445 -7.24373 293.986 1.52477 293.409C17.5471 292.385 22.6828 278.911 36.7881 267.381C51.7809 255.124 77.7906 238.512 94.0023 234.54C117.622 228.754 135.383 286.214 159.05 253.523" stroke="#191919" stroke-width="0.2" stroke-linecap="round" stroke-linejoin="round"/>
<path d="M-333.606 259.566C-315.324 280.384 -294.675 296.783 -274.724 311.58C-267.458 316.961 -255.057 330.755 -246.797 329.26C-231.721 326.57 -228.846 300.306 -212.457 308.314C-203.724 312.584 -191.748 325.139 -183.299 331.033C-173.762 337.673 -163.561 359.773 -153.858 364.492C-140.179 371.154 -129.505 344.335 -118.169 337.588C-107.223 331.075 -98.8686 342.905 -88.2186 340.236C-72.7051 336.328 -70.4686 317.837 -59.6293 298.15C-48.6716 278.27 -43.2638 285.253 -29.1348 291.787C-20.7805 295.651 -7.44428 308.249 0.921887 308.143C17.7489 307.929 22.1391 289.651 35.9249 275.772C49.3202 262.299 77.5309 244.405 92.6775 240.968C116.179 235.608 133.893 289.139 157.086 259.096" stroke="#191919" stroke-width="0.2" stroke-linecap="round" stroke-linejoin="round"/>
<path d="M-331.607 264.69C-313.017 284.975 -293.327 302.57 -273.316 317.815C-265.447 323.815 -254.703 335.303 -245.65 333.104C-228.208 328.897 -230.574 304.854 -211.582 318.371C-202.411 324.904 -191.572 336.328 -182.614 344.421C-173.715 352.471 -163.882 375.745 -153.315 377.966C-140.57 380.635 -129.056 350.421 -117.98 345.189C-105.898 339.488 -99.4848 358.834 -88.2076 357.553C-74.5993 355.994 -68.9429 335.816 -60.1981 317.623C-50.4238 297.274 -45.2289 294.477 -29.9758 300.904C-20.5919 304.854 -8.9361 323.73 0.317563 324.05C17.0262 324.627 22.4932 300.328 35.0602 285.253C47.6035 270.199 76.3231 250.704 91.3514 248.078C114.509 244.021 132.531 291.979 155.121 264.413" stroke="#191919" stroke-width="0.2" stroke-linecap="round" stroke-linejoin="round"/>
<path d="M-329.571 269.729C-310.946 289.929 -291.823 308.399 -271.884 324.029C-262.76 331.182 -254.666 338.826 -244.478 336.157C-225.781 331.267 -230.538 312.306 -210.705 329.196C-195.097 342.478 -169.194 389.902 -152.805 388.172C-139.102 386.72 -130.629 358.663 -117.826 354.328C-105.483 350.165 -99.697 374.613 -88.2305 374.058C-62.1853 372.756 -60.6588 300.563 -31.1465 310.641C-19.4078 314.655 -11.6925 338.143 -0.332494 340.812C14.3763 344.293 24.7423 309.424 34.138 295.78C46.4092 277.971 73.969 257.943 89.944 256.213C112.392 253.779 131.254 295.139 153.051 269.623" stroke="#191919" stroke-width="0.2" stroke-linecap="round" stroke-linejoin="round"/>
<path d="M-327.513 274.726C-309.124 295.31 -290.285 314.527 -270.429 330.179C-246.762 348.841 -232.42 319.78 -209.807 340.257C-192.471 355.951 -171.076 402.222 -152.297 397.546C-139.54 394.386 -130.369 367.204 -117.625 365.645C-105.555 364.172 -99.7092 388.3 -88.2309 388.877C-77.5572 389.41 -68.2799 371.41 -61.0852 357.125C-57.9375 349.673 -54.7899 342.2 -51.654 334.748C-46.7787 314.079 -40.4005 309.338 -32.5195 320.57C-19.9407 323.88 -13.3969 355.118 -0.971866 357.681C12.8376 360.542 25.31 320.484 33.2265 307.032C45.8882 285.53 70.75 265.459 88.5473 265.011C110.238 264.477 129.964 298.62 151.004 274.619" stroke="#191919" stroke-width="0.2" stroke-linecap="round" stroke-linejoin="round"/>
<path d="M-325.418 279.701C-307.561 300.883 -288.664 321.339 -268.926 336.264C-257.755 344.72 -253.022 343.609 -242.017 342.008C-223.876 339.382 -226.681 335.218 -208.86 351.147C-189.536 368.421 -173.632 414.094 -151.776 406.578C-139.41 402.329 -130.523 379.055 -117.4 378.756C-106.146 378.499 -99.4131 400.642 -88.2661 401.24C-78.267 401.774 -68.6228 387.937 -61.4282 375.339C-58.3042 368.485 -55.192 361.631 -52.068 354.777C-48.7665 326.848 -42.6013 319.63 -33.5606 333.125C-21.3013 336.115 -14.0475 375.147 -1.65798 373.973C12.4947 372.649 24.044 334.556 32.2564 318.926C45.77 293.217 66.9162 273.082 87.092 274.342C108.262 275.665 128.402 302.698 148.909 279.573" stroke="#191919" stroke-width="0.2" stroke-linecap="round" stroke-linejoin="round"/>
<path d="M-323.288 284.698C-306.13 306.2 -286.948 328.641 -267.411 342.349C-256.359 350.1 -251.199 345.958 -240.751 345.83C-225.083 345.638 -222.433 347.602 -207.937 361.652C-188.258 380.699 -175.442 424.898 -151.302 415.589C-138.463 410.635 -131.115 391.973 -117.175 392.912C-106.75 393.596 -99.0701 411.553 -88.3018 412.023C-78.8943 412.429 -68.8951 402.927 -61.6886 392.058C-58.5883 385.823 -55.4879 379.567 -52.3876 373.332C-49.7961 346.193 -43.7848 338.186 -34.3654 349.353C-21.4316 351.339 -15.1955 391.204 -2.33262 389.133C10.5065 387.062 24.2924 345.787 31.3095 331.353C45.971 301.16 62.7271 280.94 85.6364 284.228C106.652 287.239 126.592 307.353 146.779 284.527" stroke="#191919" stroke-width="0.2" stroke-linecap="round" stroke-linejoin="round"/>
<path d="M-321.123 289.694C-304.604 311.111 -285.15 335.965 -265.873 348.328C-255.566 354.926 -249.129 349.31 -239.438 350.613C-226.658 352.342 -218.209 359.816 -206.979 371.368C-186.448 392.464 -177.135 434.742 -150.806 424.514C-137.304 419.261 -131.399 405.468 -116.915 407.218C-107.07 408.414 -98.7156 421.183 -88.2667 421.311C-79.0841 421.418 -69.5582 415.76 -61.8547 406.834C-50.7669 394.001 -49.1931 368.549 -34.5552 368.634C-21.4202 368.699 -15.7403 404.72 -3.00761 402.115C9.01505 399.638 23.9961 357.809 30.3387 344.036C46.1244 309.765 58.7269 288.883 84.1567 294.37C105.315 298.918 124.627 312.285 144.613 289.417" stroke="#191919" stroke-width="0.2" stroke-linecap="round" stroke-linejoin="round"/>
<path d="M-318.934 294.691C-302.923 316.022 -283.374 342.648 -264.311 353.901C-254.927 359.431 -247.129 354.115 -238.112 356.634C-227.947 359.474 -214.788 370.663 -206.02 380.079C-184.554 403.14 -178.484 442.728 -150.344 433.397C-136.475 428.806 -131.174 419.432 -116.678 421.183C-107.07 422.357 -98.5023 429.639 -88.2664 429.169C-79.2731 428.763 -70.1259 426.799 -61.9728 419.603C-51.5239 410.357 -47.8438 388.407 -34.6615 387.425C-22.343 386.507 -16.0239 414.863 -3.71727 411.937C8.67223 408.969 22.7776 371.496 29.3451 356.827C46.1366 319.289 55.2482 297.381 82.6542 304.662C104.144 310.363 122.639 317.346 142.424 294.264" stroke="#191919" stroke-width="0.2" stroke-linecap="round" stroke-linejoin="round"/>
<path d="M-316.697 299.687C-301.018 321.061 -281.659 348.648 -262.714 359.239C-243.047 370.215 -223.912 367.289 -205.002 388.364C-183.241 412.621 -179.016 448.685 -149.835 442.301C-136.464 439.375 -130.074 433.29 -116.394 434.443C-106.727 435.254 -98.3486 438.116 -88.2547 436.877C-79.4981 435.81 -70.3391 436.002 -61.9848 430.557C-52.0329 424.066 -46.5659 406.364 -34.7089 405.275C-23.5264 404.229 -16.0596 422.379 -4.41559 419.005C9.38208 415.012 20.5172 387.339 28.3509 369.681C46.0772 329.751 52.2661 306.883 81.1276 315.104C102.984 321.339 120.71 322.513 140.188 299.153" stroke="#191919" stroke-width="0.2" stroke-linecap="round" stroke-linejoin="round"/>
<path d="M-314.449 304.577C-298.995 326.25 -279.943 354.072 -261.069 364.471C-241.781 375.104 -221.581 375.873 -203.938 397.951C-183.135 423.959 -177.869 453.895 -149.327 450.991C-129.009 448.92 -108.526 448.45 -88.2669 444.329C-79.6522 442.578 -70.3276 443.497 -61.9022 439.589C-52.2462 435.126 -45.3829 422.571 -34.6146 421.589C-24.2486 420.628 -15.7523 429.639 -5.1851 425.753C9.4764 420.372 18.1266 402.628 27.2738 382.321C35.3086 364.471 41.9944 336.584 53.7213 326.506C63.3773 318.221 69.3649 322.748 79.5298 325.374C101.847 331.139 118.651 327.83 137.927 304.043" stroke="#191919" stroke-width="0.2" stroke-linecap="round" stroke-linejoin="round"/>
<path d="M-312.153 309.402C-296.746 331.673 -278.322 358.62 -259.424 369.617C-240.171 380.805 -219.723 385.012 -202.873 408.436C-183.549 435.297 -175.549 459.126 -148.818 459.511C-128.713 459.81 -108.123 456.65 -88.2548 451.568C-70.5285 447.041 -52.104 437.454 -34.5197 435.233C-8.54552 431.923 7.85544 434.08 26.2563 394.62C44.8583 354.713 48.3018 329.965 77.9679 335.687C100.664 340.043 116.663 333.403 135.644 308.89" stroke="#191919" stroke-width="0.2" stroke-linecap="round" stroke-linejoin="round"/>
<path d="M-309.834 314.207C-294.332 337.268 -276.736 362.442 -257.755 374.72C-238.266 387.361 -218.114 394.322 -201.784 419.197C-184.472 445.568 -172.224 464.806 -148.285 467.646C-127.814 470.08 -108.265 464.123 -88.243 458.529C-52.6484 448.579 -0.735518 458.892 25.215 406.471C43.9708 368.613 47.3078 343.033 76.3823 345.851C99.126 348.072 114.864 339.168 133.336 313.716" stroke="#191919" stroke-width="0.2" stroke-linecap="round" stroke-linejoin="round"/>
<path d="M-307.479 318.947C-291.965 342.734 -275.032 366.435 -256.075 379.973C-236.538 393.916 -216.338 403.332 -200.695 429.724C-167.301 486.074 -129.825 476.999 -88.2542 465.233C-53.7127 455.454 -2.35604 466.685 24.1388 417.745C43.013 382.898 46.6576 356.528 74.75 355.866C97.399 355.332 113.043 345.061 130.97 318.541" stroke="#191919" stroke-width="0.2" stroke-linecap="round" stroke-linejoin="round"/>
<path d="M-305.101 323.623C-289.658 348.008 -273.21 370.706 -254.371 385.46C-234.432 401.09 -215.83 413.005 -199.595 439.589C-165.988 494.593 -128.547 482.657 -88.2666 471.682C-53.5949 462.223 -5.52795 472.194 23.0377 428.251C42.6337 398.101 45.9234 369.98 73.0927 365.624C95.505 362.015 111.149 350.869 128.579 323.324" stroke="#191919" stroke-width="0.2" stroke-linecap="round" stroke-linejoin="round"/>
<path d="M-302.687 328.257C-270.902 379.909 -230.87 401.026 -198.423 448.514C-183.418 470.465 -165.444 482.764 -146.605 488.593C-124.69 495.362 -109.436 483.234 -88.2547 477.959C-53.9144 469.44 -7.65787 477.49 21.9136 437.817C41.2848 411.809 46.0773 382.663 71.4006 374.912C93.6473 368.101 108.889 356.143 126.177 328.022" stroke="#191919" stroke-width="0.2" stroke-linecap="round" stroke-linejoin="round"/>
<path d="M-300.237 332.848C-269.198 384.82 -230.385 410.977 -197.299 456.308C-182.093 477.127 -164.615 489.106 -146.037 495.17C-124.169 502.323 -109.448 488.743 -88.255 484.259C-53.8436 476.999 -9.71714 482.017 20.7892 446.187C39.545 424.172 46.716 394.428 69.7082 384.008C91.5998 374.101 106.628 361.268 123.727 332.655" stroke="#191919" stroke-width="0.2" stroke-linecap="round" stroke-linejoin="round"/>
<path d="M-297.764 337.374C-267.589 389.453 -229.71 419.71 -196.163 462.799C-180.365 483.105 -164.461 495.383 -145.445 501.682C-123.897 508.835 -109.247 494.017 -88.2545 490.536C-53.0385 484.707 -12.4502 485.262 19.6655 453.596C37.8888 435.617 47.3555 405.446 68.0047 393.04C89.3402 380.229 104.463 366.051 121.266 337.268" stroke="#191919" stroke-width="0.2" stroke-linecap="round" stroke-linejoin="round"/>
</g>
</g>
<defs>
<clipPath id="clip0_1311_42042">
<rect width="601.737" height="1165.21" fill="white" transform="translate(-393.566 -660.516)"/>
</clipPath>
</defs>
</svg>
