<svg width="431" height="600" viewBox="0 0 431 600" fill="none" xmlns="http://www.w3.org/2000/svg">
<g opacity="0.6">
<g clip-path="url(#clip0_1260_37373)">
<path d="M128.59 294.94C128.47 296.32 127.01 297.35 126.26 297.58C125.7 297.29 124.67 295.84 127.5 292.09C128.26 291.93 128.7 293.61 128.59 294.93V294.94Z" stroke="#191919" stroke-width="0.2" stroke-linecap="round" stroke-linejoin="round"/>
<path d="M131.43 294.96C130.88 299.07 125.49 300.56 122.25 299.12C120.5 297.84 122.56 292.78 125.08 289.34C126.6 288.02 127.48 285.41 130.91 289.27C131.58 290.74 131.64 293.34 131.43 294.96Z" stroke="#191919" stroke-width="0.2" stroke-linecap="round" stroke-linejoin="round"/>
<path d="M135.21 295.35C132.45 300.43 122.29 303.45 116.69 300.45C113.23 298.6 118.68 290.49 123.93 285.89C127.58 282.7 128.42 280.16 135.34 286.03C137.31 288.62 136.37 293.21 135.21 295.35Z" stroke="#191919" stroke-width="0.2" stroke-linecap="round" stroke-linejoin="round"/>
<path d="M140.29 295.59C134.83 301.25 130.13 308.22 117.7 304.83C107.39 302.02 110.68 300.45 113.99 291.99C115.11 289.12 116.85 286.56 119.05 284.55C121.25 282.55 124.15 280.85 125.89 279.9C129.76 277.8 145.15 281.05 143.57 289.78C143.18 291.95 141.65 294.17 140.29 295.57V295.59Z" stroke="#191919" stroke-width="0.2" stroke-linecap="round" stroke-linejoin="round"/>
<path d="M144.62 294.98C138.31 303.17 128.97 312.66 117.38 311.05C108.53 309.81 103.46 301.5 106.78 298.62C107.56 297.94 108.57 296.51 109.38 294.04C110.18 291.58 111.02 289.31 112.24 287.29C115.06 282.61 120.81 279.53 124.18 277.36C125.87 276.27 126.9 275.35 128.24 275.04C132.13 274.15 151.12 276.76 148.33 287.87C147.54 291.01 145.89 293.36 144.64 294.98H144.62Z" stroke="#191919" stroke-width="0.2" stroke-linecap="round" stroke-linejoin="round"/>
<path d="M147.98 293.12C138.25 305.03 114.82 332.01 101.1 306.67C99.6701 304.03 98.75 302.05 98.84 301.03C99.21 296.96 105.33 287.17 113.05 279.88C119.73 273.57 123.36 270.47 132.59 271.54C134.44 271.75 137.69 272.31 141.21 272.98C157.05 276.01 157.51 283.22 150.8 290.03C149.78 291.3 148.74 292.18 147.96 293.13L147.98 293.12Z" stroke="#191919" stroke-width="0.2" stroke-linecap="round" stroke-linejoin="round"/>
<path d="M151.44 290.78C142.76 298.28 141.73 311.19 130.31 318.02C118.94 324.82 108.73 323.18 99.8103 313.14C97.6803 310.74 95.7903 307.21 94.7703 304.59C91.7203 296.74 97.2203 296.01 101.21 288.02C108.83 272.76 126.57 267.09 142.34 269.86C146.86 270.66 148.58 271.85 150.69 270.7C156 269.19 164.15 276.81 156.9 285.48C154.93 288.38 152.83 289.58 151.44 290.78Z" stroke="#191919" stroke-width="0.2" stroke-linecap="round" stroke-linejoin="round"/>
<path d="M155.15 288.8C144.63 294.5 142.57 311.84 133.47 320.83C121.64 332.52 115.45 330.58 102.49 322.41C98.6903 320.02 95.9003 317.23 93.9203 314.37C91.9403 311.51 90.1903 307.78 89.2903 304.87C88.6903 302.93 88.5003 301.46 88.8003 301.04C95.5403 291.41 101.88 272.8 122.34 267.54C130.75 265.38 144.07 268.59 150.06 267.07C151.57 266.69 154.25 262.96 156.08 262.43C161.13 260.98 167.47 273.57 161.98 282.11C159.74 285.59 157.42 287.58 155.16 288.8H155.15Z" stroke="#191919" stroke-width="0.2" stroke-linecap="round" stroke-linejoin="round"/>
<path d="M159.6 286.85C138.35 296.67 142.33 348.93 105.94 329.16C103.08 327.6 100.09 325.82 97.44 323.88C94.79 321.94 92.35 319.87 90.52 317.98C81.33 308.5 83.47 304.36 88.94 296.02C90.04 294.35 90.66 291.72 91.23 289.68C94.63 277.53 107.78 269.04 119.11 264.97C129.92 261.09 146.66 267.66 153.77 260.94C156.2 258.65 158.82 256.7 161.23 257.98C170.44 262.88 170.09 277.03 163.53 283.86C162.31 285.13 160.96 286.24 159.63 286.85H159.6Z" stroke="#191919" stroke-width="0.2" stroke-linecap="round" stroke-linejoin="round"/>
<path d="M164.24 284.97C148.18 294.16 148.38 307.59 141.05 323.35C137.11 331.82 128.52 344.5 118.17 340.92C115.47 339.99 112.07 338.85 108.71 337.36C105.33 335.86 101.95 333.93 98.7303 331.72C94.6203 328.9 90.7703 325.29 87.7903 322.36C82.0103 316.7 78.2903 309.75 78.2803 301.46C83.1003 298.35 85.4303 293.42 86.0603 287.65C86.3403 285.06 87.6003 282.61 89.4803 280.4C98.4303 269.86 111.21 262.1 125.26 260.05C129.22 259.48 132.44 259.33 136.53 259.51C144.28 264.66 149.79 264.02 153.08 257.58C155.37 252.56 159.6 251.78 165.13 253.83C168.43 255.05 170.9 256.66 172.13 258.85C174.63 266.88 172.89 276.32 168.24 281.62C167.05 282.98 165.71 284.13 164.25 284.97H164.24Z" stroke="#191919" stroke-width="0.2" stroke-linecap="round" stroke-linejoin="round"/>
<path d="M168.87 283.42C164.15 286.57 153.7 292.41 150.67 296.94C145.95 303.99 147.66 315.25 144.97 322.98C141.95 331.66 132.65 348.18 122.87 347.08C120.07 346.76 116.83 345.71 113.07 344.62C100.27 340.9 88.7802 332.21 80.8502 321.7C78.5102 318.6 77.2102 316.06 76.0702 313.03C75.0802 310.38 74.2202 307.1 74.0702 304.81C73.9302 302.52 74.3602 301.27 75.1102 300.66C84.1902 293.21 82.8202 278.46 94.1302 270.6C96.3202 269.08 98.6602 266.99 101.04 265.58C110.43 260.03 121.86 257.32 133.1 257.05C141.61 256.85 145.48 257.57 152.13 255.11C163.29 250.98 157.78 246.76 172.6 255C176.88 257.38 177.49 262.36 177.18 266.1C176.9 269.46 174.75 274.56 174.03 277.76C172.68 280.37 171.09 281.94 168.87 283.42Z" stroke="#191919" stroke-width="0.2" stroke-linecap="round" stroke-linejoin="round"/>
<path d="M173.41 282.34C168.07 286.52 159.75 291.3 155.41 296.63C149.11 304.38 150.05 311.24 147.15 321.18C143.92 332.23 136.76 346.74 125.46 352.29C123.18 351.88 120.8 350.96 118.85 350.45C105.36 346.92 92.4198 340.84 82.1298 330.29C78.5298 326.6 74.8798 321.98 73.5598 318.78C66.7698 302.42 71.3698 303.15 78.3798 286.35C79.4798 283.72 80.7098 281.41 81.9798 279.4C85.8598 273.28 92.8698 267.33 100.14 262.48C102.58 260.86 105.52 259.46 108.5 258.22C119.18 255.54 130 257.18 140.47 255.39C157.81 252.42 156.96 241.78 175.34 250.91C179.26 252.86 179.01 256.65 179.57 259.64C180.13 262.62 180.36 265.08 180.16 267.6C179.75 272.52 176.25 278.04 175.97 280.19C175.3 280.92 174.37 281.59 173.41 282.34Z" stroke="#191919" stroke-width="0.2" stroke-linecap="round" stroke-linejoin="round"/>
<path d="M177.99 281.86C161.57 295.96 154.19 301.43 149.96 323.02C147.6 335.06 136.67 351.56 125.44 357.56C122.09 357.2 118.76 356.37 115.91 355.41C96.3302 348.79 78.1502 339.6 68.8102 319.31C67.2402 315.91 66.4502 312.84 65.4602 309.6C62.3002 299.2 83.7702 269.71 92.6402 264.09C94.9002 261.87 97.7702 259.88 100.63 258.09C103.44 256.34 106.48 254.67 109.64 253.48C112.81 252.28 115.8 251.86 118.96 252C122.32 252.15 148.28 255.17 150.35 254.02C152.4 250.86 154.45 247.69 156.51 244.53C165.03 241.61 173.53 243.82 178.75 250.78C181.67 254.67 182.49 260.13 183.12 263.61C183.44 265.35 183.66 266.78 183.69 268.22C183.79 273.22 180.08 279.11 179.5 280.32C179.28 280.79 178.75 281.2 177.98 281.86H177.99Z" stroke="#191919" stroke-width="0.2" stroke-linecap="round" stroke-linejoin="round"/>
<path d="M181.95 282.25C177.94 290.2 170.11 293.44 164.51 299.86C155.49 310.22 156.43 313.79 152.62 326.17C149.63 335.89 134.15 363.44 120.62 362.79C117.48 362.22 114.32 361.37 111.69 360C97.2501 352.49 83.8102 346.62 72.9601 333.35C69.4401 329.04 66.5101 323.66 64.6301 319.96C58.1201 307.19 59.0001 306.75 63.2601 295.34C68.2101 282.06 77.9601 278.64 85.4001 267.85C86.1101 265.97 88.5001 263.87 90.9601 261.79C95.8901 257.63 101.33 253.94 107.15 250.65C110.17 248.94 112.94 247.76 115.78 247.48C118.81 247.17 122.95 247.38 125.52 247.88C130.76 248.89 136.52 250.36 142.1 251.19C151.16 254 156.32 251.43 157.56 243.48C158.79 234.84 163.51 233.87 171.72 240.57C178.81 245.13 182.51 252.7 184.71 259.91C186.04 264.25 187.32 267.22 186.99 269.93C186.83 271.28 186.25 272.93 185.33 275.12C184.41 277.3 183.66 278.88 183.32 279.73C182.84 280.96 182.36 281.44 181.94 282.26L181.95 282.25Z" stroke="#191919" stroke-width="0.2" stroke-linecap="round" stroke-linejoin="round"/>
<path d="M185.64 283.03C183.2 291.04 177.44 296.68 170.88 302.1C159.97 311.12 159.82 314.32 155.61 326.72C151.58 338.57 136.48 366.22 121.48 368.85C118.71 368.69 115.82 368.07 113.26 367.08C93.5197 359.51 76.0097 344.27 63.6497 327.08C60.6697 322.93 57.9997 319.55 56.5197 316.52C49.5197 302.15 52.6097 303.77 59.9097 288.82C64.1097 280.22 86.6897 272.51 85.1097 263.58C84.7397 261.52 88.2997 259.07 91.0997 256.96C96.7197 252.73 102.9 249.22 109.38 245.71C112.42 244.06 114.88 243.52 118.02 243.21C121.16 242.89 124.54 243.06 126.54 243.5C131.22 246.32 136.26 248.22 141.65 249.2C150.88 253.15 156.21 250.97 157.64 242.64C158.65 234.93 162.91 233.17 170.41 237.38C178.38 240.32 182.06 247.55 184.15 254.51C185.78 259.95 188.32 265.72 189.37 268.8C189.89 270.34 190.12 271.76 189.51 274.03C188.91 276.29 187.68 278.72 186.87 279.78C186.31 281.4 185.96 281.91 185.62 283.03H185.64Z" stroke="#191919" stroke-width="0.2" stroke-linecap="round" stroke-linejoin="round"/>
<path d="M189.62 283.95C185.88 303.91 164.23 308.91 158.43 327.22C152.2 346.87 152.61 343.35 139.62 357.07C133.86 363.15 129.58 373.31 120.04 374.35C116.93 374.38 113.54 374 110.65 372.91C101.03 369.28 93.5102 360.64 85.4002 354.85C73.6902 346.49 66.9802 339.09 58.1002 327.4C54.7102 322.94 51.6202 319.36 50.1102 315.99C43.7202 301.71 47.4602 296.9 55.4002 285.23C59.1602 279.7 85.7202 264.38 84.7102 257.96C84.4902 256.57 89.0802 253.77 91.9202 251.99C100.36 246.68 111.19 241.03 121.13 239.91C124.37 239.54 126.87 239.64 129.13 239.98C134.21 243.66 139.95 245.68 146.34 246.04C153.16 245.78 157.84 242.77 160.38 237C163.16 229.43 168.22 229.17 175.56 236.2C180.51 242.14 183.82 250.12 186.92 256.06C190.75 263.4 194.15 267.69 193.14 273.12C192.89 274.48 192.07 276.58 191.48 277.97C190.89 279.36 190.34 280.31 190.13 280.93C189.78 281.95 189.85 282.72 189.62 283.96V283.95Z" stroke="#191919" stroke-width="0.2" stroke-linecap="round" stroke-linejoin="round"/>
<path d="M193.69 285C192.86 293.85 185.52 304.28 179.11 310.8C166.61 323.5 164.67 318.11 158.74 337.1C153.53 353.77 128.91 379.84 108.68 377.21C105.64 376.24 102.4 375.41 99.8702 373.87C82.3702 363.21 65.1402 344.75 52.6402 327.05C49.8702 323.13 47.6602 319.76 46.3002 316.69C41.5902 306.14 47.1402 297.53 52.4302 287.72C60.0702 273.55 77.9202 268.51 85.0702 255.04C84.0802 252.91 86.4802 250.69 89.4502 248.63C99.1102 241.94 111.58 235.37 123.47 235.49C126.03 235.52 128.11 235.66 130.04 235.86C132.23 237.05 133.43 238.42 135.27 239.15C137.79 240.15 141.35 240.66 144.39 241.42C151.67 244.15 156.39 242.28 158.55 235.79C159.72 230.25 162.36 228.96 166.49 231.9C171.3 233.1 175.62 235.35 179.45 238.63C186.66 246.02 196.3 265.36 197.28 273.4C197.4 274.37 196.4 276.68 195.76 278.09C195.12 279.5 194.48 280.52 193.74 281.28C193.59 282.65 193.82 283.47 193.68 284.99L193.69 285Z" stroke="#191919" stroke-width="0.2" stroke-linecap="round" stroke-linejoin="round"/>
<path d="M197.78 286C197.96 310 171.68 316.57 161.75 333.56C160.71 343.14 157.03 351.43 150.7 358.44C144.55 360.8 139.51 364.6 135.57 369.84C126.79 377.41 123.07 384.13 110.14 383.86C107.57 383.03 105.29 381.88 102.96 380.51C81.0499 367.62 61.0099 346.65 46.5099 326.1C43.7299 322.16 42.2199 318.51 40.9599 315.38C37.0499 305.67 42.4799 294.88 47.7299 285.82C55.7199 272 72.0899 259.8 86.2099 252.5C85.9599 250.56 82.8999 248.66 85.2599 247.11C96.7999 239.52 112.79 232.74 128.17 233.52C131.13 233.67 132.57 233.56 133.84 233.89C137.47 234.83 141.52 236.1 145.46 236.78C150.99 239.56 155.34 237.83 158.49 231.6C161.92 225.08 165.57 224.17 169.45 228.87C173.17 231.42 176.81 234.07 180.38 236.83C188.96 246.04 200.3 264.36 200.66 274.2C200.74 276.3 198.63 280.06 197.48 281.59C197.41 283.15 197.77 284.06 197.79 285.99L197.78 286Z" stroke="#191919" stroke-width="0.2" stroke-linecap="round" stroke-linejoin="round"/>
<path d="M201.85 286.82C203.44 313.27 175.73 319.52 163.29 337.67C156 348.32 157.41 356.64 148.05 365.08C143.71 369 138.35 372 133.96 376.14C125.35 384.26 119.03 389.2 106.79 389.7C104.2 388.63 101.77 387.15 99.1998 385.22C84.9198 374.49 60.8798 356.15 52.3598 340.13C48.4598 335.44 44.9498 330.04 42.0798 325.53C23.4498 296.28 57.1298 260.54 85.5898 249.79C87.0098 247.52 83.9198 245.05 84.3498 244.17C88.0998 236.5 114.65 229.19 129.35 229.81C132.17 229.93 133.27 229.79 134.79 230.07C136.14 230.83 138.04 231.69 142.25 233.11C157.76 234.11 155.71 223.48 169 226.19C177.01 227.82 181.72 237.79 186.13 243.42C191.81 250.67 208.91 270.44 204.48 279.48C203.53 281.41 202.79 282.9 201.44 284.15C201.56 284.89 201.79 285.74 201.85 286.81V286.82Z" stroke="#191919" stroke-width="0.2" stroke-linecap="round" stroke-linejoin="round"/>
<path d="M205.94 287.45C208.67 314.43 177.09 327.49 163.68 346.3C156.98 355.69 155.11 365.74 145.97 373.36C140.35 378.04 134.14 382.5 128.37 387.14C120.25 393.66 112.14 396.89 101.4 394.58C99.4802 393.29 97.4002 391.41 94.9102 389.42C85.8702 382.2 80.3002 372.52 72.0502 364.2C61.3902 353.44 52.8502 348.87 45.1502 335.02C41.8302 330.38 38.6402 325.63 36.2002 321.73C19.7902 295.47 49.2802 260.74 75.2502 254.05C77.9902 251.43 82.4202 248.49 83.1502 246.68C86.8602 237.49 120.73 226.49 132.95 225.71C134.97 225.58 137.61 224.88 140.77 226.18C146.7 228.62 152.73 230.22 156.62 224.64C159.41 220.15 163.31 219.19 168.3 221.77C174.51 223.25 185.39 238.48 189.38 243.03C195.74 250.28 214.58 271.81 207.03 282.43C206.51 283.16 205.99 283.94 205.32 284.62C205.52 285.43 205.83 286.33 205.94 287.46V287.45Z" stroke="#191919" stroke-width="0.2" stroke-linecap="round" stroke-linejoin="round"/>
<path d="M209.88 288C215.54 302.88 202.68 323.47 190.33 330.5C185.43 333.29 178.64 334.82 173 339.78C157.03 353.82 130.15 412.85 100.57 400.76C98.8899 400.07 96.9099 398.35 94.4299 396.59C83.8099 389.04 81.5899 376.95 72.8699 368.36C60.8399 356.5 51.7399 353.53 42.4899 337.93C39.2199 333.56 35.8299 329.06 33.3699 324.9C16.4999 296.46 41.1099 258.17 72.1199 251.29C75.2699 249.25 78.0199 247.06 80.8799 244.93C89.5899 223.73 119.2 221.64 138.18 222.46C141.09 222.59 148.42 225.34 149.83 225.13C152.71 224.71 158.06 220.18 162.25 217.83C167.43 213.1 170.84 215.56 172.49 225.2C178.59 231.78 188.73 236.9 195.26 243.7C203.03 251.78 220.19 272.33 209.11 283.8C209.26 285.13 209.63 286.23 209.86 288H209.88Z" stroke="#191919" stroke-width="0.2" stroke-linecap="round" stroke-linejoin="round"/>
<path d="M213.87 288.35C214.24 289.76 215.01 291.95 214.8 294.65C212.44 324.89 182.49 339.71 163.89 361.73C145.03 384.06 129.67 401.4 99.5896 405.58C97.8096 405.09 95.9096 404.41 93.2896 403.12C79.3196 396.27 78.1796 384.25 70.1496 372.86C65.0696 365.66 56.2396 364.39 50.4196 358.1C45.9796 353.3 43.1496 345.75 40.1196 340.05C36.8296 335.57 34.1096 330.83 31.4496 326.49C24.0296 314.39 18.9096 302.54 25.0996 290.01C32.3996 275.23 53.1096 252.77 69.2296 248.67C72.3096 246.39 75.2496 243.6 78.1696 241.83C82.8596 238.98 86.4996 235.08 86.9196 229.55C91.6996 227.59 96.4996 225.67 101.31 223.79C117.04 218.87 133.19 217.02 148.15 220.6C152.86 221.73 153.81 220.26 157.32 218.13C159.82 216.15 162.33 214.16 164.83 212.18C170.23 226.88 193.92 237.78 203.75 250.05C209.04 256.66 222.02 277.99 213.4 285.76C213.55 286.52 213.63 287.47 213.86 288.33L213.87 288.35Z" stroke="#191919" stroke-width="0.2" stroke-linecap="round" stroke-linejoin="round"/>
<path d="M218.02 289.41C218.3 290.81 219.07 293.03 219.08 296.18C219.09 299.34 218.75 302.73 217.9 305.44C208.74 334.68 181.21 347.55 162.46 369.6C150.38 383.8 142.72 390.91 126.5 400.03C117.35 405.17 109.2 405.59 99.7004 409.08C97.8104 409.06 95.8104 408.33 93.3004 407.28C80.2804 401.88 73.0204 394.41 68.3804 380.83C63.9404 367.85 63.2804 369.89 52.8904 362.41C47.1204 358.25 42.7404 353.97 41.0004 346.76C38.4404 342.68 35.7204 338.3 32.9204 333.75C24.6904 320.4 12.2204 304.75 19.5304 290.79C28.5804 273.52 48.0504 252.73 66.1004 245.88C68.8204 243.86 71.4004 241.77 74.0504 239.75C87.8604 229.21 83.0004 226.58 100.6 221.19C118.45 215.73 142.02 219.03 153.71 215.42C155.84 214.76 159.49 210.64 162.73 209.82C169.76 212.16 175.88 221.16 181.51 226.26C189.43 233.44 198.75 239.15 205.8 247.29C211.25 253.59 225.72 280.63 217.66 287.16C217.78 287.81 217.87 288.59 218.03 289.4L218.02 289.41Z" stroke="#191919" stroke-width="0.2" stroke-linecap="round" stroke-linejoin="round"/>
<path d="M222.06 291.67C223.51 295.01 222.59 301.89 221.95 306.79C221.6 309.46 220.74 312.14 220.07 314.72C215.95 330.45 203.14 347.63 191.24 356.31C186.74 359.59 178.08 360.17 173.06 364.25C155.78 378.33 120.11 422.14 91.3197 411.21C88.3597 410.09 84.4396 408.27 80.9996 407.04C66.3996 401.81 68.7196 390.22 63.4996 378.66C65.4596 369.88 61.8296 364.79 52.5896 363.41C44.6496 361.74 40.1896 357.01 39.1996 349.21C37.1896 345.43 34.6596 341.05 31.6496 336.32C25.2996 326.35 16.8097 314.88 13.9397 303.11C12.2697 296.26 11.8397 297.73 15.9597 290.22C25.8197 272.21 44.2697 252.23 62.9097 242.99C65.5997 240.88 68.2696 238.75 71.1196 236.69C73.9696 234.63 76.9996 232.63 80.0896 230.84C76.6896 204.41 144.45 217.65 156 209.35C158.63 207.46 161.25 205.16 164.42 205.61C174.03 221.49 191.63 227.29 204.89 239.63C217.44 251.31 220.41 269.96 221.95 285.45C221.9 287.87 221.82 289.07 221.78 289.72C221.75 290.15 222 290.88 222.07 291.68L222.06 291.67Z" stroke="#191919" stroke-width="0.2" stroke-linecap="round" stroke-linejoin="round"/>
<path d="M226.05 294.73C226.94 297.33 227.03 304.17 225.6 307.82C225.26 310.19 224.79 312.24 224.13 314.42C223.39 316.87 222.33 319.52 221.14 322.47C213.78 340.77 199.21 364.23 179.67 370.71C175.74 372.01 170.27 372.69 166.15 377.48C153.47 390.12 139.2 400.76 122.47 407.28C113.83 410.65 95.7896 417.95 87.0896 414.54C84.1596 413.39 80.5296 412.36 77.3296 411.27C63.5596 406.57 59.3196 400.43 58.2096 385.73C59.5796 378.46 58.0296 371.99 53.5696 366.33C44.4296 365.22 39.1696 360.41 37.8096 351.88C35.6296 348.01 33.6996 343.59 30.3696 338.51C23.6496 328.26 12.7196 315.13 10.1396 302.61C8.57962 295.02 8.05962 297.83 13.3896 289.06C25.0996 269.82 41.3296 249.78 61.2096 238.53C62.5096 236.61 65.6796 235.21 68.1196 233.58C71.1696 231.54 74.6796 229.29 77.6296 227.85C75.2296 213.04 96.0496 212.59 106.57 210.99C124.61 208.25 142.72 214.54 156.39 203.68C159.19 201.45 162.01 200.49 165.2 202.01C167.8 203.25 168.37 208.63 169.52 212.68C185.53 218.16 206.5 230.76 214.51 245.75C219.93 255.9 228.84 281.53 225.8 292.13C225.91 293.01 226.06 293.65 226.05 294.7V294.73Z" stroke="#191919" stroke-width="0.2" stroke-linecap="round" stroke-linejoin="round"/>
<path d="M230.11 298.18C230.11 300.93 229.13 309.96 227.72 315.4C227.25 317.22 226.39 319.3 225.42 321.75C224.45 324.2 223.39 327.25 221.88 330.29C214.24 345.59 200.65 362.32 185.15 372.32C173.2 380.03 161.73 391.6 148.99 397.7C137.47 403.21 123.73 406.34 112.01 410.94C100.66 415.41 94.0701 420.73 81.1001 417.8C77.3001 416.52 73.4901 414.9 69.9601 413.43C56.7201 407.9 55.2701 400.68 53.6301 387.24C53.3901 381.36 52.9101 375.5 52.2001 369.66C45.0401 366.78 40.0301 361.81 37.1601 354.76C34.2301 350.96 32.8901 346.49 29.3401 341.24C21.0701 328.96 12.4701 317.45 7.03007 303.27C5.40007 301.99 3.86008 300.62 2.41008 299.15C1.92008 293.57 4.85008 290.41 11.1901 289.66C25.9901 269.2 35.1001 248.92 58.3101 235.9C60.9301 233.22 63.1701 231.64 66.1901 229.9C69.2101 228.17 72.0601 226.57 73.7301 225.11C75.5901 223.48 78.1601 222.16 76.8001 221.21C76.0901 219.7 75.3801 218.19 74.6601 216.68C99.3301 206.7 128.54 210.67 147.31 207.53C151.1 206.89 158.31 195.89 164.96 200.64C168.02 201.8 168 208.62 170.27 211.31C211.31 214.3 224.29 262.6 229.36 292.71C229.62 294.79 229.96 295.93 230.05 296.77C230.09 297.21 230.1 297.67 230.1 298.19L230.11 298.18Z" stroke="#191919" stroke-width="0.2" stroke-linecap="round" stroke-linejoin="round"/>
<path d="M234.25 301.5C234.31 304.5 232.73 313.34 231.03 318.12C230.42 319.84 229.54 321.9 228.41 324.63C227.29 327.36 225.97 330.94 224.18 335.03C222.39 339.13 220.29 344.02 217.64 348C202.71 370.55 172.72 391.14 145.05 400.69C133.65 404.62 121.8 407.94 110.45 412.45C98.6697 417.13 93.5297 423.57 79.4797 421.39C75.5997 420.33 71.8197 419.1 68.2197 417.72C36.1897 405.44 60.0997 380.85 40.0997 362.56C37.0097 360.1 34.4797 356.54 32.7197 352.32C30.9597 348.1 27.4697 343.04 23.2497 336.97C19.3597 331.36 14.8797 325.2 11.9997 320.06C11.6197 319.38 -1.27027 298.83 -1.28027 299.46C-1.22027 292.59 5.90973 288.95 10.8497 282.92C24.9697 265.68 31.6597 246.91 52.4897 235.54C55.4597 232.73 57.9297 229.42 61.0497 227.92C64.1697 226.41 66.1997 224.78 67.6997 223.23C69.2097 221.67 71.0197 220.16 71.2197 219.54C72.8397 214.62 100.42 204.7 107.8 203.54C124.3 200.95 141.01 208.28 151.85 199.04C157.03 194.62 165.13 193.93 168.35 203.43C169.91 207.32 173.12 208.04 176.09 209.4C220.12 214.97 225.69 270.97 233.28 295.63C233.84 297.46 234.15 299.06 234.26 300.03C234.31 300.49 234.22 301.02 234.23 301.49L234.25 301.5Z" stroke="#191919" stroke-width="0.2" stroke-linecap="round" stroke-linejoin="round"/>
<path d="M238.52 304.07C238.32 307.72 235.58 315.32 234.12 319.67C233.61 321.19 232.56 323.3 231.58 326.2C227.89 337.08 223.17 348.14 217.32 358.05C215.2 361.65 212.64 365.4 210.46 368.36C191.36 386.62 164.04 394.88 139.66 402.78C130.6 405.72 116.62 409.31 108.49 413.78C104.26 417.42 99.9697 420.98 95.6097 424.45C88.7497 425.29 81.9097 425.07 75.1097 423.78C71.6197 422.74 68.1297 421.38 65.0197 420.27C55.6297 416.95 47.5697 411.82 44.0097 402.26C38.9397 388.65 50.7197 373.69 37.6597 362.85C36.1497 360.62 31.3897 356.86 29.5997 352.92C27.8097 348.98 24.8397 344.46 21.1297 338.98C17.1397 333.07 12.3897 326.44 9.0997 320.87C6.0297 315.67 3.55969 310.17 1.66969 304.43C-0.070307 301.98 -2.37031 300.42 -5.23031 299.76C-5.35031 293.91 4.05969 288.22 8.86969 280.51C20.6497 261.6 30.3797 241.7 51.2697 231.19C54.1497 228.62 57.9197 225.7 59.2097 223.75C61.7897 219.83 63.4397 220.29 67.9397 216.86C70.3897 214.99 74.6997 213.34 72.0597 212.7C76.2597 199.62 108.66 196.7 121.97 197.22C130.42 197.55 138.17 202.18 146.63 200.93C148.86 198.21 151.1 195.49 153.33 192.77C161.13 190.04 166.51 192.9 169.45 201.35C172.19 204.51 176.46 203.69 179.56 205.29C194.59 206.67 212.6 226.54 218.11 239.24C221.2 246.36 230.63 292.37 235.59 291.3C237.21 291.66 236.84 295.84 237.33 297.83C237.82 299.82 238.47 301.24 238.62 302.3C238.69 302.82 238.57 303.49 238.53 304.06L238.52 304.07Z" stroke="#191919" stroke-width="0.2" stroke-linecap="round" stroke-linejoin="round"/>
<path d="M242.99 305.29C242.21 309.04 239.45 317.01 238.07 319.2C237.58 319.98 237.07 321.08 236.41 322.65C230.04 337.89 224.88 352.89 215.82 366.94C213.4 370.7 211.11 373.03 208.96 375.97C188.9 393.22 164.35 395.94 140.24 403.1C132.41 405.43 120.06 409.28 113.02 413.35C99.05 421.42 96.38 429.24 78.86 429.02C74.8 428.07 70.8901 426.78 67.2101 425.49C58.1901 422.31 46.9801 418.01 41.7401 409.04C33.7301 395.32 44.04 380.64 37.36 366.51C34.14 363.51 31.34 360.25 27.95 356.05C20.61 346.96 13.25 333.08 6.06004 321.8C2.27004 315.85 1.40005 311.77 0.440049 308.5C-0.729951 304.52 -11.42 299.5 -8.97996 294.67C-5.46996 293.04 -1.95995 291.42 1.55005 289.79C3.96005 283.79 6.97004 278.11 10.56 272.76C20.08 255.63 30.28 237.9 48.55 228.69C50.42 225.94 54.1301 222.44 55.7401 220.59C58.9501 216.9 60.3801 216.02 64.8801 213.24C67.3401 211.72 72.6701 210.23 71.3801 209.64C73.7101 195.48 109.16 194.97 122.13 194.22C129.35 193.8 139.22 197.41 145.44 196.72C147.57 194.14 149.7 191.56 151.82 188.98C160.32 187.13 166.85 190.17 171.4 198.11C175.53 198.73 179.28 199.23 182.54 200.82C199.68 201.11 216.47 229.55 221.03 242.56C224.99 253.84 229.27 289.59 240.75 294.76C241.24 297.84 242.03 299.88 242.82 301.48C243.13 302.79 243.23 304.09 242.98 305.31L242.99 305.29Z" stroke="#191919" stroke-width="0.2" stroke-linecap="round" stroke-linejoin="round"/>
<path d="M247.29 305.48C247.77 308.72 242.76 318.83 241.62 320.75C241.18 321.49 240.46 322.44 239.72 324.28C232.89 341.34 227.01 358.31 216.37 373.33C214.22 376.36 212.14 379.79 209.7 382.68C193.56 401.78 160.2 399.8 137.16 407.16C127.23 410.33 114.74 414.85 105.74 420.17C102.44 426.07 97.6704 430.27 91.4304 432.77C83.6604 432.29 75.9004 431.58 68.1704 430.64C64.2004 429.28 60.4604 428.21 56.6904 426.94C31.4104 418.44 33.8404 395.45 37.2404 372.88C35.4504 369.54 32.2604 365.29 30.9704 363.52C23.4204 353.16 8.31044 332.43 0.110437 318.73C-2.91956 313.67 -3.07956 310.22 -3.88956 307.45C-6.58956 298.1 -12.3996 303.91 -11.6296 293.9C-8.37956 292.13 -5.12956 290.37 -1.87956 288.6C1.30044 283.03 4.32043 277.37 7.18043 271.63C16.1504 253.54 24.7604 236.81 44.0004 227.53C46.2104 224.85 48.4304 221.86 50.1104 219.95C53.4804 216.13 54.4904 214.49 58.6404 211.99C60.7104 210.74 64.5304 209.63 65.7904 208.36C73.6804 200.4 102.48 194.25 117.32 191.76C124.68 190.52 135.16 191.58 141.56 190.14C155.99 186.9 149.07 180.95 166.91 190.95C170.5 193.43 174.54 194.27 178.18 194.93C181.37 195.5 184.31 195.93 186.92 196.86C205.12 201.37 218.26 230.06 223.28 245.22C227.91 259.2 237.7 287.87 242.43 297.07C243.42 298.99 244.02 301.91 245.2 303C246.17 303.89 247.13 304.37 247.3 305.48H247.29Z" stroke="#191919" stroke-width="0.2" stroke-linecap="round" stroke-linejoin="round"/>
<path d="M250.86 306.65C251.5 308.21 247.08 319.52 245.16 321.43C244.59 322 243.9 323.05 243.19 325.07C235.57 346.84 226.05 367.59 212.8 386.89C210.53 390.19 208.03 393.29 205.44 395.66C181.59 403.75 155.65 404.35 132.27 412.12C127.54 414.68 122.6 416.77 117.46 418.39C109.06 418.56 103.09 422.5 99.5699 430.23C88.8999 438.56 76.5799 433.98 64.1499 432.37C61.4999 431.36 56.7299 431 53.8899 429.77C30.8399 419.76 28.0599 401.51 32.3299 376.39C31.4399 372.24 29.1399 368.3 27.8499 365.51C20.8699 350.48 5.38988 334.89 -3.84012 319.55C-7.08012 314.17 -7.48012 310.52 -8.07012 307.45C-12.7301 295.12 -17.1401 305.14 -13.4901 292.86C-7.60012 290.3 -3.41013 286.18 -0.910127 280.49C2.73987 275.06 5.73988 269.28 8.07988 263.14C17.5099 244.24 30.0799 229.4 46.8899 216.59C47.7099 215.23 49.1799 213.68 50.0499 212.52C51.7899 210.19 56.8199 208.4 62.5099 205.59C65.5699 204.08 70.3499 202.25 67.7099 201.07C74.2099 187.37 109.18 187.84 122.9 185.11C140.54 181.6 153.69 178.61 168.68 187.96C172.9 189.85 177.21 190.84 181.06 191.68C184.91 192.52 188.44 192.92 191.55 193.6C208.58 201.91 218.98 223.13 224.38 239.95C230.33 258.46 238.1 276.68 240.07 296.15C241.38 297.1 242.01 297.89 242.92 300.61C243.83 303.32 245.44 304.57 247.19 305.29C248.73 305.9 250.17 305.98 250.85 306.63L250.86 306.65Z" stroke="#191919" stroke-width="0.2" stroke-linecap="round" stroke-linejoin="round"/>
<path d="M255.22 306.79C257.36 309.13 250.63 319.88 249.52 321.48C248.98 322.26 247.41 323.21 246.67 325.51C238.71 350.22 226.33 378.75 209.21 399.19C207.42 401.32 206.05 402.33 204.73 402.91C187.01 410.75 155.43 409.1 132.16 415.6C122.09 418.41 110.61 421.66 102.91 428.8C90.2598 440.52 86.1898 438.67 68.3298 437.56C64.2998 436.24 60.3698 435.5 56.4398 434.39C30.4098 427.02 23.2598 402.05 26.4698 376.56C25.3998 372.56 24.8698 367.85 23.4698 365.45C16.0998 352.78 -10.2002 325.69 -12.3302 307.58C-12.6902 304.55 -13.7902 301.88 -15.0602 300.99C-23.9502 294.13 -14.3602 294.1 -8.58022 287.4C-0.640224 278.2 1.65978 266.76 7.04978 256.24C15.9398 238.89 29.7798 228.43 42.5198 214.45C43.2098 213.25 44.3498 211.78 45.4698 210.58C47.7098 208.18 52.8698 206.13 59.7598 202.02C63.4698 199.81 70.0898 197.33 68.7298 196.45C74.3398 184.68 109.84 184.4 123.07 180.48C141.7 174.96 154.45 173.7 170.97 184.43C175.67 186.05 180.06 187.71 184.11 188.88C186.84 189.67 189.43 190.24 191.84 190.6C210.4 200.95 219.15 218.77 225.46 238.32C231.93 258.36 235.71 286.16 241.73 297.89C242.18 298.77 243.45 299.74 245.22 301.79C246.99 303.84 249.15 304.79 251.39 305.28C253.12 305.87 254.56 306.07 255.2 306.76L255.22 306.79Z" stroke="#191919" stroke-width="0.2" stroke-linecap="round" stroke-linejoin="round"/>
<path d="M260.71 306.18C261.73 308.27 255.81 318.7 252.63 323.02C251.77 324.19 250.4 325.14 249.01 329.59C243.65 346.75 237.23 360.66 227.87 376.5C222.45 385.68 214.4 400.19 209.94 406.3C209.14 407.39 205.46 408.36 201.5 409.03C184.52 411.9 167.55 416.18 150.89 418.2C138.83 419.66 126 421.15 114.37 425.99C97.6995 432.92 97.2695 439.51 78.0595 440.74C73.4095 440.79 67.5695 440.68 63.4195 438.98C60.4495 438.36 55.2795 438.16 52.7495 436.93C29.5795 425.66 17.9795 407.82 21.7695 380.18C21.2595 375.6 20.5295 370.53 19.0595 366.77C11.8895 348.41 -14.5105 329.58 -16.6505 307.79C-16.9605 304.68 -17.9505 301.98 -19.0705 301.07C-20.5405 300.18 -22.0105 299.3 -23.4805 298.41C-16.5405 287.97 -8.68047 283.83 -3.05047 271.74C1.02953 262.99 4.14954 254.18 9.37954 245.92C17.8895 232.49 30.2695 218.31 40.7395 208.74C42.2995 207.31 44.1495 206.18 47.1095 204.39C50.0695 202.6 54.0295 200.05 57.8195 197.87C61.8995 195.52 67.5595 193.4 68.9395 192.2C73.9295 184.85 87.0795 184.76 95.5495 183.64C106 182.26 113.4 180.91 123.24 176.35C142.49 167.43 155.04 169.65 173.35 180.86C178.12 182.62 183.14 184.43 187.38 186.09C194.4 186.26 198.34 189.79 199.21 196.69C203.3 197.87 207.25 199.41 211.07 201.29C218.73 207.2 223.05 223.31 226.17 231.64C233.99 252.49 242.66 272.56 244.14 295.03C244.97 298.75 247.93 297.67 249.31 299.83C250.69 301.99 253.33 304.34 256.03 304.92C258.17 305.38 260.36 305.47 260.7 306.18H260.71Z" stroke="#191919" stroke-width="0.2" stroke-linecap="round" stroke-linejoin="round"/>
<path d="M265.8 305.3C267.59 307.52 259.47 317.66 256.82 324.18C256.15 325.82 255.29 328.95 253.46 333.64C246.75 350.87 237.82 365.66 228.81 381.73C223.91 390.46 219.22 407.13 212.2 410.45C209.44 411.75 204.2 413.04 199.91 413.97C180.1 418.25 159.25 424.06 139.28 425.03C116.67 426.13 96.0103 439.66 73.2803 440.44C68.0003 440.62 62.9803 440.75 56.1203 441.17C51.8003 441.26 49.9803 439.9 47.4503 438.19C25.3003 423.17 14.8903 408.71 17.6103 381.48C16.7303 376.23 15.5303 370.83 13.9603 366.19C7.16032 346.2 -19.8697 329.46 -21.0597 306.99C-21.2097 304.2 -22.2197 301.95 -23.1997 301.12C-24.5297 300.24 -25.8497 299.35 -27.1797 298.47C-20.6797 287.73 -12.0697 284.58 -6.55968 272.24C-2.01968 262.08 1.00031 251.3 7.11031 241.81C13.3103 232.17 22.5103 225.7 30.0303 217.37C34.9503 211.93 31.6203 207.6 39.8903 204.22C42.0103 203.36 46.1803 199.91 50.1503 197.47C54.1203 195.03 57.9503 192.24 62.2803 190.56C66.3203 188.99 71.2203 188.09 69.5203 187.61C74.8703 180.08 88.0703 180.73 95.9803 179.6C112.38 177.24 113.79 175.07 128.94 167.94C147.99 158.98 164.64 168.64 181.06 180.18C185.53 181.98 191.01 182.64 194.78 184.45C196.49 190.37 199.01 195.92 202.35 201.08C207.54 198.9 212.02 199.91 215.78 204.11C223.08 210.43 226.77 226.76 230.02 235.22C237.76 255.33 241.1 281.8 249.2 296.11C250.11 297.72 253.38 298 254.32 301.1C255.26 304.2 258.85 304.53 261.41 304.87C263.25 305.1 264.83 304.8 265.78 305.29L265.8 305.3Z" stroke="#191919" stroke-width="0.2" stroke-linecap="round" stroke-linejoin="round"/>
<path d="M268.62 306.47C271.46 307.08 265.36 321.97 260.79 325.85C259.68 326.79 258.64 328.99 257.86 332.72C253.72 352.55 238.26 369.62 228.73 387.74C220.67 403.07 222.23 413.46 203.01 417.39C198.64 418.29 193.65 419.45 189.47 420.48C161.85 427.26 127.07 426.65 104.22 433.92C98.5203 435.74 91.5503 437.16 81.9703 438.54C75.4703 439.47 69.7903 439.09 63.1003 440.42C59.1803 441.2 54.4103 442.09 51.9503 441.85C41.6603 440.86 31.9403 429.54 25.0003 422.11C11.8703 408.07 11.7003 397.02 12.4903 378.44C11.2503 373.07 10.0203 366.96 8.05028 363.18C2.17028 351.9 -10.1197 339.77 -17.5597 327.04C-23.4697 316.92 -22.2997 307.74 -27.2597 301.21C-27.8897 300.38 -29.2997 300.12 -29.7197 298.38C-24.3697 288.71 -14.9797 284.1 -10.5497 273.49C-5.77973 262.04 -3.01973 250.51 3.88027 239.89C9.77027 230.83 20.1303 225.22 25.8103 216.49C30.0403 209.98 30.4403 203.24 39.0403 200.12C42.0703 199.02 45.5303 195.92 49.1303 193.5C56.3203 188.66 73.1003 185.09 71.0503 183.71C70.0203 183.02 70.4803 182.25 74.9703 181.62C82.6603 179.35 89.8403 177.6 97.8003 176.6C111.53 174.88 117.75 169.77 130.11 163.55C146.54 155.28 155.43 161.27 170.6 170.94C174.9 172.34 178.94 177.41 182.45 178.17C189.9 179.78 198.38 182.54 199.29 192.89C198.8 202.04 202.29 204.97 209.76 201.69C215.98 202.39 220.06 205.9 222.01 212.23C224.68 217.45 227.26 222.73 229.74 228.05C240.48 249.41 247.74 270.98 253.48 294.25C254.87 296.73 257.22 297.54 258.59 300.21C259.96 302.89 262.06 304.94 264.23 305.74C266.04 306.43 267.67 306.29 268.64 306.5L268.62 306.47Z" stroke="#191919" stroke-width="0.2" stroke-linecap="round" stroke-linejoin="round"/>
<path d="M270.98 308C272.72 310.8 268.87 322.62 263.89 330.39C262.73 332.2 261.18 335.05 260.07 338.64C253.68 359.36 233.09 375.12 227.59 396.72C225.13 406.39 229.18 407.33 221.84 414.76C215.44 421.23 199.92 423.18 191.9 425.03C187.33 426.08 183.17 427.32 178.3 428.06C164.65 430.12 148.09 436.99 135.14 435.16C125.97 433.87 114.39 436.29 104.38 436.32C90.2904 436.36 75.6104 437.7 62.4804 439.93C58.3404 440.63 54.2204 441.61 51.3404 441.75C39.9704 442.29 29.9004 431.26 22.5104 423.62C8.7604 409.41 7.2104 398.14 8.1104 379.02C6.7304 373.46 5.26041 367.49 3.26041 363.18C-2.37959 351.01 -14.1096 340.64 -21.5396 328.04C-27.8896 317.27 -26.4496 308.5 -31.4296 301.41C-32.0396 300.55 -33.9596 299.53 -33.7196 298.31C-32.8996 294.2 -26.0796 288.61 -20.5196 285.45C-14.6896 278.96 -11.3496 271.37 -10.5096 262.69C-7.0696 252.5 -1.72959 241.89 4.69041 233.31C10.7804 225.17 19.2304 219.49 25.5004 211.58C25.3304 207.74 26.4204 204.24 28.7504 201.09C35.0004 197.45 41.4004 193.92 47.6204 190.39C51.6504 188.11 56.1704 185.45 60.4804 183.39C64.7904 181.32 71.1904 180.68 71.8904 179.73C72.5904 178.78 69.5004 178.28 73.8804 178.02C82.5604 175.51 91.4204 174.62 100.1 172.32C111.91 169.2 119.95 162.77 131.08 157.54C147.89 149.65 158.42 157.2 172.19 167.41C175.59 169.73 179.16 174.17 183.35 176.67C192.88 177.4 198.19 182.71 199.3 192.59C200.72 198.92 204.49 202.41 210.63 203.04C221.78 210.98 225.31 215.08 232.81 228.18C244.79 249.1 247.75 276.23 258.5 294.72C259.63 296.66 261.82 298.2 263.12 300.75C264.42 303.31 265.79 305.37 267.52 306.21C269.12 307.23 270.52 307.25 270.98 307.99V308Z" stroke="#191919" stroke-width="0.2" stroke-linecap="round" stroke-linejoin="round"/>
<path d="M274.81 307.62C273.66 314.01 275.9 327.4 267.83 335.24C266.14 336.88 264.87 339.31 263.52 342.1C253.46 362.92 236.88 380.77 229.6 402.72C222.28 424.78 205.22 427.59 182.44 430.3C178.01 430.83 174.17 431.54 169.9 431.73C158.34 435.68 149.86 438.82 137.89 439.2C111.85 440.03 83.9795 435.59 57.9295 439.8C53.9295 440.45 50.1095 440.7 46.7895 441.08C19.5195 444.22 2.88954 399.82 3.86954 379.38C2.44954 373.87 0.769534 368.27 -1.18047 363.64C-6.78047 350.35 -18.4305 342.11 -25.9305 329.22C-32.4505 318.03 -30.6505 309.18 -35.5305 301.65C-36.1205 300.73 -38.1105 299.42 -37.7305 298.2C-36.4605 294.09 -28.4805 288.32 -22.7805 284.53C-17.9105 277.5 -14.8805 269.75 -13.7005 261.28C-10.2505 250.75 -5.05046 240.37 1.54954 231.48C7.66954 223.24 16.9595 217.71 22.8195 209.64C24.1395 205.61 25.8095 201.73 27.8495 198.01C33.6195 193.76 40.3595 190.37 46.3295 187.26C50.3295 185.18 54.9395 182.07 59.4395 179.81C63.9395 177.55 68.3595 175.69 72.1895 175.9C76.0195 176.11 68.9995 174.36 73.2995 174.36C93.9495 169.89 111.64 159.46 131.3 152.25C148.29 146.02 160.62 153.19 173.4 164.42C176.49 167.84 179.81 173.12 183.86 175.53C196.85 182.13 201.98 194.07 213.73 203.19C221.86 209.5 225.8 213.96 232.61 222.42C248.29 241.94 249.75 261.81 257.74 285.5C259.16 288.25 260.59 291.07 262.13 293.35C265.22 297.91 267.82 303.72 271.32 305.62C272.71 306.84 274.9 307.13 274.82 307.61L274.81 307.62Z" stroke="#191919" stroke-width="0.2" stroke-linecap="round" stroke-linejoin="round"/>
<path d="M279.11 307.2C280.22 312.1 276.19 329.89 273.75 339.36C273.1 341.89 270.66 344.73 269.36 346.71C256.59 366.18 239.47 382.53 231.18 404.4C222.53 427.21 207.38 429.96 183 434.01C179.8 434.54 176.07 434.92 172.09 435.14C163.26 438.5 153 442.68 144.31 442.88C128.15 443.26 128.51 448.4 113.28 444.48C101.02 441.33 90.0796 438.47 77.6296 437.8C70.2096 437.4 61.7496 438.18 52.1796 439.4C48.1096 439.92 43.9696 440.28 40.6596 440.68C16.5496 443.58 -0.970362 404.19 0.589638 385.31C0.0496377 379.81 -1.03036 375.93 -2.64036 371.53C-8.20036 356.39 -19.1904 347.45 -27.7404 333.95C-34.7704 322.85 -33.4504 311.04 -37.3604 302C-37.7304 301.14 -38.8804 300.56 -39.2304 298.79C-39.5804 297.02 -37.8404 294.15 -34.1704 291.91C-14.9604 280.16 -15.4604 242.73 3.99964 221.88C10.0596 215.38 17.5996 210.59 23.1096 203.48C32.3896 191.51 38.3796 187.8 52.4196 180.13C56.5996 177.85 61.0496 175.02 65.1896 173.4C69.3296 171.78 75.2396 171.97 74.5396 171.53C73.8396 171.09 73.0496 170.91 76.9796 170.95C105.33 155.38 145.29 132.12 171.14 155.96C173.17 157.84 175.3 164.39 178.16 168.84C198.53 181.37 216.65 200.88 232.94 218.22C241.78 227.62 247.46 233.45 251.53 246.15C255.62 258.93 255.66 273.46 261.55 284.93C262.85 287.45 264.75 290.01 266.44 292.15C269.82 296.44 271.14 303.32 274.48 305.34C276.11 306.66 279.03 306.81 279.11 307.18V307.2Z" stroke="#191919" stroke-width="0.2" stroke-linecap="round" stroke-linejoin="round"/>
<path d="M282.58 307.49C283.58 309.61 278.15 320.21 274.76 326.1C278.5 332.88 279 339.88 276.44 347.01C275.4 349.92 274.65 351.57 273.41 353.37C271.93 355.53 269.96 358.08 267.88 360.32C259.24 369.63 249.4 379.51 241.58 389.51C234.86 398.1 233.81 405.32 229.38 414.71C219.78 435.06 195.7 435.47 176.56 439.07C172.72 439.79 168.8 440.39 164.91 441.01C156.79 445.2 143.59 447.19 136.02 446.67C124.75 445.9 113.65 449.26 99.39 445.51C83.63 441.37 70.92 437.41 54.4 437.72C50.22 437.93 46 438.26 42.52 438.91C17.07 443.7 -7.79001 411.33 -3.78001 386.41C-4.08001 380.89 -4.07001 377.56 -6.10001 373.39C-18.02 349.02 -34.93 326.36 -37.51 302.63C-37.6 301.78 -38.38 301.15 -38.48 299.24C-38.58 297.34 -37.28 294.03 -34.11 291.7C-22.99 283.52 -22.58 266.66 -17.63 253.06C-13.28 241.12 -7.20001 229.4 1.09999 219.59C7.17999 212.41 15.13 207.57 21.31 200.51C31.6 188.73 37.93 185.09 52.11 177.25C56.41 174.87 60.97 171.77 65.38 170.02C69.8 168.27 76.64 169.17 77.27 168.6C77.9 168.04 73.51 167.95 76.72 167.7C94.82 156.1 108.11 144.44 130.62 140.38C145.25 137.74 160.76 143.59 171.44 154.02C173.49 156.49 175.45 163.79 178.08 168.23C201.71 179.16 218.31 200.23 236.42 218C247 228.38 252.93 234.07 256.87 248.84C260.21 261.37 259.28 274.82 266.18 285.36C267.53 287.42 269.48 289.75 270.72 292.04C273.21 296.62 274.39 303.27 277.72 305.52C279.29 306.91 282.41 307.13 282.56 307.46L282.58 307.49Z" stroke="#191919" stroke-width="0.2" stroke-linecap="round" stroke-linejoin="round"/>
<path d="M286.43 308.11C287.83 310.36 280.75 320.35 279.7 327.94C278.36 337.59 281.37 346.44 278.95 355.59C278.53 357.17 277.3 359.27 275.99 361.26C274.68 363.25 273.16 365.26 271.6 366.94C269.51 369.19 266.47 370.59 264.15 372.77C258.82 377.75 253.77 384.96 249.02 391.41C245.81 393.29 242.61 395.18 239.4 397.06C233.79 405 232.38 413.21 227.54 421.43C217.64 438.23 194.54 441.08 177.37 445.53C173.7 446.48 169.77 446.95 165.87 447.61C156.52 449.19 142.25 448.25 133.22 450.68C123.08 453.4 125.35 456.83 112.85 452.75C93.7796 446.53 73.3196 438.38 54.1096 436.96C49.8196 436.64 45.2196 436.96 41.4196 437.53C25.5296 439.93 19.9296 441.81 7.99958 428.43C-1.56042 417.71 -9.08042 403.34 -7.96042 388.54C-7.96042 383.43 -8.39042 379.41 -10.4304 375.28C-14.1404 367.78 -17.6904 359.83 -20.3404 351.69C-26.2704 347.58 -30.4704 342.25 -32.9604 335.71C-39.5504 324.17 -38.7904 314.54 -37.2504 303.32C-37.1304 302.43 -37.5504 301.79 -37.3204 299.77C-37.0904 297.75 -35.7304 294.11 -33.5904 291.61C-25.7904 282.53 -25.0404 266.64 -21.5504 253.88C-17.7404 239.94 -11.6204 227.36 -2.40042 215.59C11.5596 197.79 32.2196 184.34 52.1396 174.55C56.5296 171.9 61.1096 169.01 65.9296 167.21C70.7496 165.41 76.8496 166.84 78.0596 165.87C79.2696 164.9 72.8496 164.78 75.9696 164.13C85.5996 157.63 89.4196 147.73 99.9596 142C109.15 137.01 121.57 133.77 131.86 133.58C145.46 133.32 164.13 139.05 172.05 151.19C173.64 155.33 175.22 163.74 177.65 167.85C204.68 178.76 218.39 195.35 238.83 214.83C248.76 224.29 258.04 231.24 261.38 245.12C264.46 257.94 260.73 269.35 267.96 281.95C270.05 284.62 271.76 287.06 273.14 289.55C275.91 294.52 277.52 302.67 281.04 305.64C282.41 307.35 286.17 307.68 286.44 308.1L286.43 308.11Z" stroke="#191919" stroke-width="0.2" stroke-linecap="round" stroke-linejoin="round"/>
<path d="M290.26 308.93C292.12 311 289.01 319.97 283.56 324.32C282.52 332.79 283.29 342.16 283.13 349.75C283.07 352.69 282.68 356.38 282.17 358.75C281.15 363.5 278.08 369.91 275.12 372.92C273.14 374.93 270.59 376.8 268.3 378.82C262.78 383.7 257.62 389.03 252.99 394.82C248.04 399.3 242.44 402.7 236.2 405.01C234.75 409.17 233.4 413.36 232.16 417.59C231.57 422.17 228.98 425.45 224.37 427.43C212.44 444.66 188.82 452.85 166.84 453.3C162.77 453.38 157.98 453.65 153.5 453.61C143.24 455.9 128.34 452.28 126.7 455.47C121 466.58 77.1899 445.49 66.8499 440.97C60.6199 438.25 49.9599 436.32 42.2699 436.65C38.5199 436.81 34.7999 437.28 32.3199 438.28C4.90987 449.41 -16.4801 396.73 -14.5201 376.49C-15.7001 374.03 -17.8201 367.65 -19.9601 362.98C-28.8101 343.67 -41.9201 324.57 -37.9701 303.86C-37.7901 302.92 -38.1801 302.2 -37.7201 300.03C-37.2601 297.86 -35.9501 294.01 -34.2801 291.31C-27.9701 281.06 -27.4501 265.77 -24.7101 253.25C-21.4201 238.19 -15.1701 225.79 -6.11014 212.93C6.64986 194.8 32.2599 181.26 51.9699 172.13C56.2699 169.73 60.6499 166.21 65.0299 163.99C69.4099 161.77 73.7799 160.75 77.4799 162.5C81.1699 164.25 72.4899 161.96 75.5499 161C91.1799 144.47 99.4399 129.19 125.27 128.08C140.09 127.45 154.68 132.78 166.96 140.71C169.33 142.24 171.89 143.28 172.92 148.77C175.61 162.05 175.2 162.8 186.31 168.92C192.84 172.52 200.67 173.54 207.05 177.65C218.91 185.29 225.83 198.49 235.79 207.87C245.17 216.7 259.22 224.28 264.64 236.54C270.73 250.33 262.73 264.6 270.72 279.29C272.29 281.41 273.77 283.34 274.83 285.28C278 291.09 280.84 301.65 284.04 305.79C285.48 307.65 289.68 308.25 290.28 308.92L290.26 308.93Z" stroke="#191919" stroke-width="0.2" stroke-linecap="round" stroke-linejoin="round"/>
<path d="M293.93 309.85C296.45 311.53 285.29 347.26 283.89 354.45C283.2 357.98 283.45 360.83 283.5 362C283.85 369.34 277.53 381.33 270.66 386.19C268.27 387.88 265.11 390.29 261.71 392.95C253.66 402.88 241.95 408.86 236.2 416.24C231.56 422.2 228.16 430.29 223.02 434.75C207.5 448.21 187.59 457.2 164.86 458.18C160.62 458.36 155.55 458.76 151.25 458.66C138.37 458.37 127.24 465.76 126.02 465.87C115.88 466.81 81.9199 448.93 62.7799 442.37C57.1299 440.43 50.2299 438.34 43.4599 437.36C38.9699 436.71 34.4199 436.52 31.4399 437.44C6.89993 444.98 -25.7701 409.15 -18.0601 384.16C-18.0301 378.78 -18.7101 376.23 -20.5101 371.99C-30.9001 347.48 -39.6201 327.58 -40.3501 304.28C-40.4101 302.32 -42.2801 297.61 -38.5701 292.08C-36.7101 289.32 -35.8101 286.03 -34.3601 282.92C-24.7001 262.16 -26.6801 225.64 -5.75008 202.69C0.549924 195.79 10.1599 193.26 18.0799 187.87C30.6999 179.28 43.7299 171.97 56.9199 164.25C60.9399 161.41 65.2199 159.01 69.2899 158.18C73.3599 157.35 79.9399 159.97 78.2299 159.45C76.5299 158.92 74.7599 158.36 77.7499 156.22C91.5999 135.93 102.35 115.75 130.63 120.99C143.68 123.41 161.95 132.08 171.6 141.3C173.77 143.11 174.83 150.33 175.86 156.67C182.42 169.44 200.42 168.38 211.61 175.67C223.18 183.2 229.69 196.55 239.77 205.87C248.84 214.26 262.48 222.82 268.29 234.04C274.33 245.71 268.16 263.78 273.05 275.36C273.86 277.28 275.33 279.22 276.43 281.05C280.83 288.38 283.35 301.23 287.42 306.56C288.86 308.45 292.63 308.95 293.93 309.82V309.85Z" stroke="#191919" stroke-width="0.2" stroke-linecap="round" stroke-linejoin="round"/>
<path d="M297.34 310.8C302.38 312.68 289.01 351.18 286.28 358.46C284.57 363 283.77 366.56 283.65 368.32C283.16 375.38 282.77 384.15 275.16 392.05C272.78 394.52 269.21 397.17 266.06 399.61C259.71 404.55 253.29 410.94 247.01 416.73C239.57 412.61 236.31 415.05 237.25 424.04C235.62 429.1 232.35 432.07 227.44 432.94C222.21 433.18 220.73 435.78 223 440.75C201.23 460.59 179.88 465.85 150.09 463.87C145.83 463.59 141.38 465.45 138.42 464.86C132 463.58 125.63 462.79 123.32 469.42C115.56 465.65 107.41 462.28 99.2697 460.05C82.7497 455.53 67.6296 447.95 50.8796 442.85C44.8396 440.44 39.1896 438.73 34.7096 438.15C31.3996 437.72 28.2696 437.96 25.6796 438.66C-1.23037 445.95 -28.4304 412.79 -22.6904 387.12C-22.5904 381.62 -22.5104 378.25 -24.3004 374.03C-35.0404 348.72 -39.8504 327.69 -43.0604 304.76C-43.3704 302.57 -45.2504 297.5 -42.4104 291.37C-40.9904 288.31 -40.1404 285.04 -38.3804 281.77C-26.5304 259.83 -31.3904 221.52 -8.91036 199.83C-2.66036 193.8 5.75964 190.65 13.8396 185.75C27.8696 177.24 40.2396 167.01 55.1396 160C59.2796 157.47 63.6596 155.29 67.8996 154.51C72.1296 153.74 78.7596 157.53 78.7496 156.65C78.7296 155.76 74.8396 155.27 77.9496 152.55C90.9896 131.72 101.89 106.31 130.96 115.38C143.71 119.35 163.47 128.56 172.77 138.24C175 140.89 176.01 148.25 177.31 153.83C188.22 164.93 205.43 164.83 217.49 174.32C228.07 182.65 235.01 195.84 244.66 205.59C253.07 214.1 266.28 222.54 271.91 233.38C278.49 246.06 274.71 263.11 279.66 276.96C280.5 279.31 281.62 281.65 282.75 283.83C286.16 290.36 287.83 302.1 290.41 306.89C291.56 309.03 294.97 309.88 297.35 310.77L297.34 310.8Z" stroke="#191919" stroke-width="0.2" stroke-linecap="round" stroke-linejoin="round"/>
<path d="M300.46 311.75C308.38 313.28 291.77 360.63 288.54 368.33C287.17 371.58 284.51 375.29 283.61 378.09C279.05 392.21 282.15 396.24 270.36 406.89C267.49 409.48 261 411.02 259.32 413C255.51 417.48 251.44 425.07 244.5 422.21C243.24 426.18 241.15 429.6 238.23 432.48C235.08 437.42 230.19 439.66 223.57 439.19C224.01 443.13 223.2 446.73 221.13 450C208.88 473.67 170.34 469.2 149.05 467.68C145.2 467.41 140.77 469.23 137.89 468.69C130.74 467.36 125.01 466.88 125.1 474.58C114.17 469.8 103.47 466.23 92.4604 462.82C70.6904 456.07 49.6604 443.81 27.1404 440.79C23.7604 440.34 21.2104 440.69 18.1404 440.24C-9.11958 436.28 -29.8096 420.27 -27.6096 390.27C-27.4396 385.08 -26.8096 378.99 -28.1996 376.14C-39.8596 352.25 -43.2696 327.65 -46.2396 305.21C-46.5496 302.84 -48.1396 297.46 -46.2396 290.58C-45.2896 287.14 -44.1896 283.74 -42.3396 280.36C-30.0696 257.93 -34.8296 215.61 -12.2696 195.79C-6.55958 190.77 2.50041 187.09 9.18041 183.23C24.6704 174.28 36.0204 161.81 53.1204 155.82C57.3404 153.53 62.0004 151.41 66.5004 150.68C71.0004 149.94 75.3504 150.57 78.6704 153.78C81.9904 156.99 75.0404 152.36 78.3204 149.1C91.4004 127.89 101.92 101.34 131.1 110.89C143.33 114.89 165.88 125.28 174.1 135.2C176.68 138.35 177.31 145.82 178.77 150.54C191.14 159.77 206.84 161.64 219.47 170.33C228.55 176.57 234.83 185.33 242.2 193.95C251.5 204.84 262.17 215.57 270.92 226.93C279.9 238.58 279.23 249.09 281.18 262.62C281.84 267.22 283.61 273.5 285.18 276.27C289.39 283.67 290.99 299.24 293.42 307.32C294.08 309.52 297.65 311.22 300.46 311.77V311.75Z" stroke="#191919" stroke-width="0.2" stroke-linecap="round" stroke-linejoin="round"/>
<path d="M303.32 312.67C314.81 315.5 302.1 348.3 299.6 355.9C297.9 361.08 295.92 366.6 293.75 370.28C284.02 386.83 285.12 402.27 274.58 414.2C271.98 417.14 266.39 418.31 263.64 419.72C257.5 422.85 246.07 435.06 238.89 439.17C232.34 438.79 227.7 441.05 224.99 445.94C221.95 449.23 220.71 453.28 221.26 458.09C203.44 480.5 162.92 471.24 139.65 472.93C135.63 473.22 128.08 471.87 127.68 472.15C124.24 474.51 102.05 469.72 95.3501 467.25C77.8201 460.78 60.4101 454.11 42.2001 448.89C35.7701 445.87 28.3601 445.8 24.0101 443.87C20.4101 443.53 18.2601 442.4 15.1201 441.22C-11.9099 431.03 -31.6799 427.53 -32.3299 393.26C-32.4299 388.96 -31.1499 380.45 -32.1399 378.06C-42.7599 352.33 -46.0299 328.14 -49.4499 305.55C-50.0499 301.6 -53.1099 289.72 -46.4299 278.75C-44.1999 275.09 -42.6599 270.98 -41.9799 267.2C-37.7799 243.97 -31.3499 205.47 -11.7399 191.75C-4.8499 186.93 3.37011 183.16 10.4601 178.58C25.2201 169.03 33.6701 156.36 50.9001 151.31C55.2401 149.26 60.1301 147.27 64.9201 146.6C69.7101 145.92 74.3801 146.55 77.9601 149.74C81.5401 152.93 75.5601 149.76 78.6401 146.12C91.4901 125.52 101.84 96.9802 130.57 106.74C142.67 110.85 167.61 121.83 175.25 131.95C177.86 135.25 178.48 144.04 180.38 146.86C188.52 158.94 226.31 169.02 226.31 169.02C226.31 169.02 244.1 186.24 243 185.12C252.25 194.58 259.41 206.89 268.03 216.89C279.46 230.14 288.25 243.18 287.34 261.35C287.15 265.03 288.69 269.38 290.37 272.61C296.34 284.1 291.69 302.9 298.87 310.74C299.59 311.53 301.76 312.3 303.31 312.69L303.32 312.67Z" stroke="#191919" stroke-width="0.2" stroke-linecap="round" stroke-linejoin="round"/>
<path d="M307.6 313.56C319.31 316.45 304.58 360.26 301 368.49C299.39 372.19 296.44 376.14 293.72 380C281.99 396.65 286.44 419.16 266.42 427.2C263.34 428.44 259.21 428.29 257.77 429.48C253.43 433.07 243.24 441.74 236.64 446.06C232.56 448.06 228.6 450.27 224.75 452.7C225.67 459.61 223.11 463.97 217.06 465.78C199.57 481.36 164.43 475.14 143.01 476.82C139.15 477.12 135.15 477.53 131.21 476.98C121.59 475.63 125.13 485.04 117.21 479.89C105.83 472.48 90.59 470.88 77.87 465.97C58.66 458.55 38.43 450.73 19.02 448.65C16.16 448.34 14.45 446.63 11.89 444.58C0.370029 435.33 -17.53 438.05 -27.51 426.97C-36.98 416.46 -37.76 400.76 -36.44 387.74C-36.05 382.01 -36.12 378.87 -37.76 374.18C-42.25 361.33 -49.87 347.98 -52.48 334.2C-54.31 324.54 -51.77 314.44 -54.04 306.24C-55.29 301.72 -57.96 290.22 -52.26 279.65C-50.36 276.13 -47.53 272.29 -46.63 269.11C-42.71 255.34 -38.1 237.48 -33.74 222.08C-30.99 212.35 -29.19 204.58 -22.32 197.12C-16.14 190.42 -7.56997 185.8 -1.97997 180.02C10.93 166.69 35.51 150.98 54.9 144.19C59.26 142.67 64.31 141.79 68.8 142.3C73.3 142.81 80.4 148.44 79.46 147.33C78.52 146.21 77.91 145.08 81.42 140.63C92.37 120.55 102.23 94.39 129.01 102.06C143.51 106.21 161.29 117.21 173.59 125.82C176.63 127.25 178.11 131.67 179.61 136.58C193.93 158.94 226.62 160.12 244.85 178.13C256.54 189.67 266.42 207.47 276.23 220.83C283.36 230.55 291.37 241.99 293.79 252.61C294.47 255.57 293.61 261.88 294.79 265.94C299.17 280.92 298.98 295.58 302.49 310.37C303.79 315.86 305.69 313.13 307.58 313.6L307.6 313.56Z" stroke="#191919" stroke-width="0.2" stroke-linecap="round" stroke-linejoin="round"/>
<path d="M313.94 314.99C314.61 314.9 315.85 315.31 316.8 315.48C311.19 333.52 313.67 353.1 306.42 369.9C304.7 373.89 301.48 378.13 298.44 382.14C288.29 395.55 287.7 397.07 284.99 410.48C282.24 424.11 282.22 429.42 271.08 434.94C268.25 436.34 264.65 434.52 263.17 435.25C257.08 438.29 243.68 446.71 235.36 452.95C229.32 452.96 225.8 455.64 224.8 460.98C223.14 467.65 218.26 471.1 210.18 471.35C185.36 480.05 155.67 483.04 131.62 481.26C128.14 481 128.9 485.26 128.23 486.16C125.5 489.88 92.8604 474.3 83.1004 470.92C63.1004 464 31.8704 460.98 15.7504 452.81C14.0504 451.95 11.4204 449.44 8.60044 447.25C-3.28956 438.02 -21.0496 438.92 -30.9796 429.64C-40.4196 420.81 -42.6996 403.43 -40.9696 391.39C-40.4996 385.7 -39.3996 381.11 -41.0096 376.34C-45.2896 363.67 -54.1696 349.9 -56.9996 336.17C-59.0296 326.32 -56.1896 314.81 -59.6296 306.74C-64.4896 295.32 -56.0896 277.91 -50.6096 267.5C-48.8396 264.14 -49.0496 260.83 -48.0196 257.64C-44.0896 245.55 -39.3896 233.41 -36.4696 220.62C-34.9796 214.08 -34.6696 205.37 -30.4496 199.85C-25.3096 193.14 -18.9796 191.94 -11.5196 186.28C-3.55956 180.24 5.62043 173.21 13.1504 166.65C29.3004 152.57 29.2704 141.83 52.1804 139.51C56.8904 138.26 62.0404 137.39 66.8304 137.96C71.6304 138.53 76.9004 145.84 79.0704 144.54C81.2404 143.24 77.6104 142.17 81.3404 136.79C91.9604 116.92 102.83 91.1102 129.2 98.6802C144.38 103.04 162.07 113.92 175.42 122.34C178.69 123.77 179.87 128.41 181.5 133.03C190.25 157.86 232.12 151.2 238.81 162.15C241.97 167.33 246.52 169.04 251.56 174.63C261.09 185.21 267.24 200.87 275.1 212.47C283.78 225.3 293.85 238.91 300.29 251.59C301.49 253.94 300.17 261.09 301.24 265.01C305.5 280.64 306.76 312.56 311.86 315.82C312.03 315.93 313.34 315.07 313.94 314.99Z" stroke="#191919" stroke-width="0.2" stroke-linecap="round" stroke-linejoin="round"/>
<path d="M318.65 315.35C319.58 315.01 320.83 314.82 321.91 314.56C315.94 326.44 318.72 344.98 316.85 356.82C316.14 361.29 314.18 366.93 311.75 371.05C304.66 383.07 289.15 397.06 286.58 411.35C284.48 423.01 287.57 438.2 276.3 441.5C274.31 442.08 270.32 441.25 268.45 441.81C231.32 452.78 172.46 480.72 129.38 485.2C128.26 485.32 129.31 492.85 128.73 493.17C123.56 496.03 97.6101 480.93 84.8201 476.5C64.2201 469.36 28.8101 465.64 11.8301 454.83C9.24009 453.18 5.95009 449.89 2.60009 447.36C-9.02991 438.56 -25.9999 440.38 -35.5599 431.77C-45.0299 423.25 -46.5599 406.8 -45.4399 395.03C-45.1999 389.74 -43.2099 383.27 -44.7099 378.65C-48.7999 366.11 -58.4999 351.89 -61.4699 338.06C-63.7199 327.55 -60.8999 315.7 -65.2999 306.94C-71.2299 295.17 -59.6399 276.75 -54.9099 266.27C-53.4499 263.03 -53.6799 259.06 -52.2799 255.86C-47.0699 243.96 -42.4699 230.85 -39.2799 217.64C-37.7199 211.2 -37.7499 202.89 -33.0899 197.75C-27.9499 192.08 -20.8499 190.29 -14.2399 184.81C5.75009 168.28 23.3701 136.49 48.9601 134.63C53.8201 133.57 59.2301 132.82 64.3301 133.46C69.4201 134.1 74.3001 134.98 77.6901 137.3C81.0801 139.62 76.9501 135.27 81.0101 130.62C92.0401 112.37 104.8 87.2102 129.66 94.1902C144.57 98.3702 164.58 109.71 177.22 118.62C180.89 119.76 181.82 124.73 183.53 129.43C193 155.42 234.21 146.6 244.05 159.44C247.14 163.48 250.86 163.3 254.26 166.97C263.1 176.54 267.69 190.11 274.16 201.26C282.09 214.93 288.86 230 298.36 241.93C300.98 245.22 304.71 246.7 306.43 250.35C308.15 254 306.86 259.92 307.72 263.76C310.57 276.46 313.72 313.43 316.57 316.14C316.66 316.23 317.78 315.66 318.65 315.35Z" stroke="#191919" stroke-width="0.2" stroke-linecap="round" stroke-linejoin="round"/>
<path d="M323.52 312.96C328.6 316.84 322.26 356.16 319.22 367.08C318.04 371.32 314.63 376.17 311.63 380.28C301.21 394.58 291.94 405.39 288.85 423.12C287.22 432.48 285.66 447.64 273.52 448.04C271.31 448.11 268.58 448.75 266.66 448.53C260.6 447.83 255.4 450.16 251.76 456.44C248.53 463.47 243.01 466.62 235.2 465.9C223.1 470.81 209.8 474.05 197.43 479.28C175.51 488.54 149.33 488.35 129.82 489.37C128.71 489.43 130.02 495.85 129.28 497.59C127.93 500.78 112.99 496.2 106.75 493.18C84.83 482.58 61.69 475.95 38.52 470.1C30.57 468.09 15.98 464.77 9.59002 458.49C6.90002 455.85 2.91002 452.92 -0.18998 450.3C-7.69998 443.96 -14.9 440.2 -24.17 438.41C-30.64 437.16 -33.51 438.8 -38.86 434.55C-48.63 426.8 -50.74 409.68 -50.02 398.14C-50.17 393.98 -47.99 383.68 -49.03 380.47C-53.25 367.42 -62.01 353.39 -65.45 339.38C-68.12 328.49 -66.1 315.98 -71.07 306.94C-77.81 294.68 -62.76 275.33 -58.42 264.74C-57.11 261.55 -57.78 257.15 -56.61 254.05C-50.76 238.45 -48.08 216.74 -39.99 201.36C-35.89 193.57 -31.05 194.1 -25.04 189.5C-16 182.57 -8.00998 173.17 -0.679977 164.6C10.46 151.59 29.76 132.87 45.14 129.61C49.87 128.61 56.81 127.67 62.65 127.65C68.48 127.63 73.34 128.18 76.8 129.98C80.26 131.78 76.38 128.48 80.65 124.13C92.31 106.57 105.81 82.48 129.97 89.66C146.06 94.44 163.41 106.82 178.46 114.65C181.02 116.63 183.84 120.81 185.56 125.83C194.64 152.34 224.96 142.82 245.7 154.82C273.47 170.89 279.41 205.2 294.3 230.88C295.77 233.42 298.61 237.56 301.6 241.14C304.82 245 310.55 246.57 311.93 249.27C319.19 263.52 320.25 291.5 322.56 311.85C322.63 312.48 323.28 312.74 323.54 312.94L323.52 312.96Z" stroke="#191919" stroke-width="0.2" stroke-linecap="round" stroke-linejoin="round"/>
<path d="M328.61 310.54C331.04 314.56 326.96 340.17 325.68 353.97C325.24 358.75 324.61 364.14 322.93 368.14C315.62 385.56 297.76 402.05 292.86 422.49C290.45 432.55 291.65 452.52 277.58 453.43C275.84 453.54 272.79 455.35 271.04 454.89C261.17 452.29 252.34 469.65 240.49 471.12C230.81 468.88 221.51 470.07 212.58 474.69C207.93 478.68 202.84 481.92 197.3 484.4C188.28 488.38 176.66 492.16 167.02 493.94C154.57 496.24 132.25 492.53 129.62 495.99C128.91 496.93 131.82 503.31 127.16 502.47C120.4 501.26 114.2 501.71 108.75 499.74C82.1498 490.11 58.7198 476.68 29.4698 471.59C19.2198 469.81 12.7798 466.43 6.43983 460.48C3.67983 457.89 0.659826 455.14 -2.28017 453.03C-13.1602 445.18 -18.2002 444.12 -30.2702 440.64C-35.8102 439.05 -38.9802 440.37 -43.8302 436.05C-55.1102 425.99 -55.7002 405.63 -54.4202 392.47C-54.0002 385.95 -53.7502 381.5 -55.4702 376.44C-59.4002 364.86 -67.4202 351.32 -70.4602 339.1C-73.2902 327.74 -72.2202 316.22 -76.9502 306.92C-85.1702 290.75 -61.7402 272.24 -61.0002 256.06C-60.8502 252.92 -59.8202 249.24 -58.6102 246.4C-53.5102 234.45 -49.3802 223.97 -46.0502 210.73C-41.4802 192.59 -32.2702 192.62 -19.5002 180.63C-9.67018 171.41 -1.60017 160.72 7.85983 151.13C13.5398 145.38 26.3598 124.8 33.8298 126.06C39.9098 125.31 46.3098 124.93 52.3498 124.15C64.4198 122.59 74.9798 126.46 78.7198 122.13C80.5898 119.96 78.8098 118.53 83.1698 114C94.3598 98.4702 107.99 77.9802 129.73 84.0102C145.8 88.4602 161.23 101.8 175.91 109.69C179.11 110.56 181.3 112.84 183.24 116.68C194.14 138.25 198.38 140.27 223.07 143.27C234.78 144.69 254.24 145.82 258.77 153.84C263.04 161.39 272.03 176.89 277.43 187.73C282.5 197.89 288.65 210.36 294.12 218.62C295.24 220.32 295.7 223.41 296.5 226.3C298.11 232.07 302.81 241.36 310.35 245.34C314.37 247.47 319.84 251.24 319.81 252.42C319.62 259.91 330.88 293.67 327.82 309.6C327.71 310.18 328.5 310.39 328.59 310.54H328.61Z" stroke="#191919" stroke-width="0.2" stroke-linecap="round" stroke-linejoin="round"/>
<path d="M334.1 310.29C337.34 320.58 330.5 347.31 329.25 358.57C328.61 364.31 326.96 368.71 324.56 373.42C314.54 393.09 299.74 410.4 294.96 433.23C292.32 445.85 289.78 458.76 275.19 460.85C272.73 461.2 269.61 459.31 267.86 459.93C262.82 461.71 256.56 469.7 252.16 475.86C243.01 478.17 234.01 477.57 225.17 474.09C216.53 474.89 199.86 488.11 190.51 491.34C182.29 494.17 171.47 498.31 162.76 499.63C153.51 501.04 129.6 505.45 128.07 506.89C127.24 507.67 118.48 506.2 114.37 505.72C104.08 504.54 96.7997 502.1 87.8197 496.56C82.6097 493.34 77.4897 489.92 72.4397 488.21C53.3897 481.76 21.2797 481.06 4.29965 463.16C1.63965 460.36 -1.71035 457.47 -4.47035 455.57C-14.9904 448.33 -20.6404 445.46 -33.2104 442.75C-39.3904 441.42 -41.9104 443.41 -47.4104 438.68C-57.8004 429.74 -60.5104 407.79 -59.4204 395.56C-59.2204 389.52 -58.0504 382.96 -59.5304 378.39C-63.4504 366.25 -71.5904 352.68 -74.9704 340.76C-78.4004 328.69 -77.1504 315.94 -82.8404 307.01C-89.1504 297.1 -79.2304 284.21 -73.4004 276.42C-65.6104 266.01 -65.5004 256.4 -62.2904 244.45C-61.4604 241.36 -60.1204 238.05 -58.6404 235.03C-53.4604 224.42 -53.5804 208.73 -46.9604 199.06C-40.2404 189.25 -25.9704 183.82 -17.4104 174.57C-8.14035 164.56 -0.630358 153.55 9.03964 143.79C15.0496 137.73 24.5097 119.76 34.7697 122.68C41.9397 121.62 47.7696 121.21 52.5096 120.07C61.9796 117.79 70.7397 112.76 77.9397 113.37C81.5397 113.68 78.3497 110.27 82.9097 106.15C95.1697 90.7502 108.84 73.0002 130.33 79.9802C146.77 85.3202 162.35 97.9302 177.72 105.98C180.73 107.23 182.25 110.19 184.17 113.91C199.48 139.72 234.77 136.67 259.18 151.36C270.64 158.26 279.67 166.95 284.67 179.77C289.51 192.2 291.83 206.08 298.82 215.61C300.05 217.29 300.28 220.83 300.68 224.14C301.48 230.76 305.15 241.22 313.33 245.35C317.69 247.55 322.69 248.28 322.97 250.63C323.59 255.87 329.54 268.06 331.53 274.24C335.19 285.58 339.58 297.14 334.52 308.86C334.15 309.71 334.03 310.03 334.11 310.29H334.1Z" stroke="#191919" stroke-width="0.2" stroke-linecap="round" stroke-linejoin="round"/>
<path d="M339.93 309.93C336.12 323.12 336.05 337 334.72 350.95C334.31 355.24 333.78 360.99 332.41 364.22C323 386.38 304.35 408.51 299.19 433.41C297 443.99 288.73 462.22 278.97 465.63C276.69 466.43 273 466.98 271.05 467.13C265.53 467.55 258.87 472.93 254.57 478.68C245.73 485.68 237.03 485.24 228.48 477.36C219.29 477.13 202.74 491.34 193.37 494.47C185.19 497.2 174.06 501.07 165.7 502.84C155.54 504.99 131.12 497.57 130.33 509.87C130.18 512.25 123.1 510.52 118.39 510.41C97.5504 509.93 88.2304 501.62 71.7504 492.88C49.7204 481.2 23.5704 485.2 2.5304 465.99C-0.559604 463.17 -3.4396 460.52 -5.9696 458.68C-15.4796 451.75 -23.3096 445.88 -35.1196 443.98C-42.4196 442.8 -42.8096 447.65 -50.1296 441.98C-60.4896 433.96 -63.7696 409.79 -64.0396 398.16C-64.2596 393.11 -62.6896 383.36 -63.6196 380.03C-66.4396 369.95 -70.0396 359.63 -73.5996 349.55C-75.6596 347.3 -77.7296 345.04 -79.7896 342.79C-83.8096 329.76 -82.1096 318 -88.7296 307.4C-97.5996 293.18 -80.0196 281.7 -73.6696 270.08C-67.2696 258.39 -67.5696 245.14 -62.4796 232.73C-61.1196 229.42 -59.8696 225.22 -58.6696 221.86C-56.5196 215.83 -54.8996 209.62 -53.8796 203.28C-52.0496 194.58 -46.5996 190.02 -37.5396 189.6C-29.2496 184.69 -21.8996 174.5 -16.0196 167.16C-5.2696 153.74 16.2804 116.95 36.6704 119.73C40.0204 119.67 45.7304 116.27 50.2704 114C58.2604 109.99 67.9704 105.27 76.9904 104.03C80.9904 103.48 77.8504 101.66 82.6004 98.1802C96.0504 83.4302 109.62 69.5602 130.61 75.8502C147.51 80.9202 164.52 92.7102 179.55 101.81C182.46 103.36 183.99 107.04 185.58 110.89C193.23 129.47 204.49 128.53 224.39 132.22C235.55 134.29 255.7 133.64 262.48 144.05C268.15 152.76 277.32 158.75 282.9 167.63C290.61 179.9 289.57 195.13 297.42 206.32C299.53 209.33 303.12 210.31 303.8 212.41C307.6 224.18 306.16 237.44 315.3 244.53C317.75 246.43 324.91 245.38 326.12 247.06C334.26 258.36 351.52 289.05 340.96 307.89C340.39 308.91 340.11 309.5 339.98 309.95L339.93 309.93Z" stroke="#191919" stroke-width="0.2" stroke-linecap="round" stroke-linejoin="round"/>
<path d="M345.48 309.26C341.26 321.13 341.19 337.58 339.27 351.58C338.71 355.63 338.38 360.83 336.89 363.94C325.93 386.72 309.37 410.33 302.73 436.55C299.79 448.15 286.4 471.91 281.62 470C281.33 469.88 276.46 473.02 274.32 473.17C267.8 473.64 261.08 478.35 256.44 484.5C247.56 493.95 238.54 493.63 229.38 483.54C219.02 485.44 210.4 490.34 203.49 498.23C198.93 498.18 194.38 498.38 189.84 498.82C177.38 500.37 168.2 507.29 155.93 508.23C147.92 508.16 139.98 507.43 132.09 506.03C133.02 515.72 126.59 516.26 117.48 514.81C113.79 514.22 107.93 515.38 103.44 514.91C95.5501 514.08 85.4701 512.15 81.7501 507.94C76.3601 501.85 69.4801 497.54 61.2201 495.52C46.6901 491.97 32.3801 489.5 19.3801 483.99C14.0801 481.74 5.86013 472.81 -0.399872 466.5C-3.29987 463.57 -5.78987 461.03 -8.21987 459.25C-15.7099 453.76 -24.8399 446.31 -34.7199 445.56C-44.1399 444.84 -52.8499 452.97 -57.4799 445.94C-63.9999 436.05 -64.1999 414.27 -68.3999 400.07C-69.3799 396.77 -67.2999 386.07 -68.0999 381.64C-70.3799 368.99 -79.2199 356.6 -83.7799 343.96C-87.9299 332.45 -87.0699 317.63 -92.3599 307.77C-101.36 290.99 -78.9399 278.2 -73.8699 263.61C-68.9799 249.56 -67.0799 233.45 -62.2599 219.05C-61.0899 215.56 -59.8099 211.8 -59.5199 208.82C-58.1999 194.83 -41.8699 189.91 -32.4099 180.94C-25.3699 174.27 -20.4599 165.79 -14.6199 158.08C-0.689873 139.66 16.7201 126.36 35.1601 114.29C37.5001 112.76 43.3701 109.95 48.0601 107.49C56.7501 102.94 66.3401 97.7302 75.9101 95.0802C80.2901 93.8702 77.2901 93.0502 82.1201 90.0202C96.9301 76.1202 109.97 66.8802 130.33 72.5402C147.76 77.3902 168.13 87.5902 181.25 97.5002C183.57 99.2602 185.82 103.3 187.27 107.17C199.55 139.9 251.27 118.15 267.23 142.94C278.28 160.1 288.34 172.71 294.81 192.38C295.88 195.63 298.88 199.65 301.46 201.81C306.46 205.99 311.07 211.58 309.55 219.38C306.83 228.85 309.85 236.53 318.18 240.94C321.62 242.76 327.67 242.07 329.01 243.73C337.34 254.02 360.43 288.22 347.08 306.65C346.28 307.76 345.71 308.65 345.49 309.27L345.48 309.26Z" stroke="#191919" stroke-width="0.2" stroke-linecap="round" stroke-linejoin="round"/>
<path d="M350.96 308.52C345.83 317.63 346.29 331.82 345.3 342.68C344.92 346.8 343.97 351.32 343.22 355.48C340.49 370.64 329.46 381.09 322.24 395.35C315.16 409.35 310.42 426.37 305.88 441.29C302.19 453.43 291.8 474.27 278.08 477.68C275.75 478.26 273.01 478.12 270.72 479.54C263.66 483.91 256.45 491.41 249.91 498.02C241.38 491.09 231.73 488.17 220.94 489.25C216.3 497.83 209.43 502.55 200.33 503.41C195.22 501.79 190.16 501.76 185.15 503.34C173.08 505.23 165.93 512.2 153.56 512.59C146.18 511.95 138.79 511.44 131.39 511.07C132.56 521.56 125.32 521.34 115.65 519.79C112.01 519.2 105.64 520.63 100.98 520.08C82.3601 517.89 74.0701 500.5 58.9501 498.03C45.1601 495.78 23.7701 492.57 11.6901 481.33C7.27006 477.22 0.440064 471.65 -3.44994 467.8C-5.55994 465.71 -7.20994 464 -9.29994 462.46C-16.1299 457.42 -29.0699 444.58 -38.7499 444.66C-54.8399 444.79 -54.2299 459.69 -61.7899 442.2C-67.6899 428.54 -72.2799 410.11 -73.2199 394.81C-73.5699 389.18 -72.7299 381.28 -73.9899 378.37C-77.4899 370.22 -80.2099 359.95 -83.5199 350.82C-85.5299 348.62 -87.5399 346.41 -89.5499 344.21C-92.8199 332.92 -91.7699 318.92 -95.6199 308.01C-99.4599 297.15 -93.1299 290.28 -87.5399 280.92C-81.1699 270.26 -78.9699 265 -77.3999 252.32C-75.0399 233.33 -64.3399 216.24 -60.9499 198.17C-60.3199 194.79 -56.9599 192.96 -51.6799 191.19C-31.4899 184.4 -25.0599 162.65 -12.7099 147.4C-0.389938 132.18 18.9801 124.96 30.4601 111.71C32.0601 109.86 32.4101 108.42 36.8801 105.95C46.0401 100.88 55.8601 95.5702 65.4701 90.8902C69.8001 88.7802 74.0901 87.4602 78.6101 85.7102C101.31 47.2302 153.28 77.7502 180.03 91.3502C183.01 92.7302 185.05 95.3102 186.93 98.5702C188.81 101.83 190.43 105.73 192.07 109.44C197.69 119.47 222.48 120.91 232.83 124.29C242.32 127.39 252.83 128.83 261.49 133.58C274.27 140.57 290.15 156.88 293.31 170.75C295.1 174.94 295.23 179.62 296.62 182.98C299.93 191 308.71 198.16 311.98 206.62C315.22 215.03 311.15 226.43 317.58 232.08C319.67 233.91 323.16 238.41 326.05 239.73C335.83 244.17 344.07 261.24 349.7 269.98C356.71 280.87 363.78 294.26 353.12 305.93C352.16 307.09 351.39 307.77 350.97 308.52H350.96Z" stroke="#191919" stroke-width="0.2" stroke-linecap="round" stroke-linejoin="round"/>
<path d="M356.21 308.02C351.78 318.74 351.5 332.23 349.92 343.72C349.37 347.69 348.01 351.73 347.66 355.93C346.3 372.31 334.54 380.83 327.15 394.39C318.88 409.58 316.59 427.98 310.29 444.28C306.34 454.5 288.93 477.9 281.25 480.7C279.02 481.51 274.94 482.67 272.93 484.09C267.25 488.11 259.96 496.97 251.99 501.63C243.12 495.12 233.45 492.83 222.98 494.76C217.29 501.7 210.24 506.67 201.85 509.65C195.23 507.07 188.41 506.4 181.38 507.63C175.16 508.93 169.7 511.66 165.02 515.81C157.82 516.75 150.62 516.81 143.4 515.99C133.57 511.48 129.18 514.15 130.23 523.99C120.86 524.17 111.16 524.71 102.13 524.61C97.6004 524.56 92.2604 523.56 87.9704 522.54C84.3704 520.4 81.7504 520.08 79.3404 518.76C62.7704 497.84 30.7204 499.62 10.2104 482.95C5.33043 478.51 -0.62958 473.58 -4.92958 470.57C-7.56958 468.71 -10.4396 467.38 -13.8596 465.3C-19.8696 461.63 -35.8696 444.16 -43.7696 444.23C-58.9996 444.36 -51.1196 455.82 -61.6896 446.64C-70.6096 438.9 -77.2396 408.78 -77.9896 397.23C-78.4096 392.02 -77.3396 383.54 -78.5396 379.67C-81.3396 370.66 -84.4896 361.28 -87.1396 351.99C-89.3196 349.7 -91.4996 347.41 -93.6796 345.12C-96.8196 333.9 -95.3396 317.41 -99.1196 307.77C-103.54 296.5 -94.5596 287.3 -88.5896 278.83C-82.5896 270.32 -82.9896 261.31 -81.7396 251.43C-79.1496 231.06 -66.4596 214.68 -63.1696 195.01C-62.6096 191.66 -56.4696 191.38 -52.5196 189.42C-45.9196 186.13 -35.0496 177.46 -30.4496 170.22C-30.6196 164.98 -29.0696 160.4 -25.8096 156.5C-22.8496 151.38 -19.3396 146.65 -15.2996 142.3C-2.32958 127.17 17.0804 119.56 29.2604 106.27C31.0204 104.35 32.8704 101.68 35.3704 100.04C43.9204 94.4202 54.4604 89.1702 64.1404 84.2702C68.5504 82.0402 72.9504 80.1902 77.6704 78.6202C106.14 45.9402 151.82 75.0902 181.56 87.3002C184.61 88.7902 186.82 91.4202 188.85 94.5402C190.88 97.6602 192.65 101.3 194.4 104.68C202.39 111.67 216.65 111.51 226.87 115.28C239.05 119.78 252.99 122.83 263.9 129.9C277 138.39 289.9 153.2 295.52 167.59C297.31 171.46 298.67 175.55 300.33 178.93C304.43 187.27 311.88 194.84 315.72 203.63C319.35 211.93 318.47 221.86 321.83 228.98C322.89 231.22 325.95 237.34 328.94 239.12C345.46 248.91 370.28 285.66 357.33 305.66C356.85 306.72 356.5 307.29 356.2 308.04L356.21 308.02Z" stroke="#191919" stroke-width="0.2" stroke-linecap="round" stroke-linejoin="round"/>
<path d="M360.03 307.95C356.67 318.18 356.58 331.58 354.78 342.63C354.09 346.4 352.34 349.85 352.12 353.76C350.99 373.49 341.75 378.85 331.97 394.92C321.72 411.76 322.24 433.65 312.71 451.02C308.29 459.07 302.27 465.75 296.15 472.58C290.19 479.23 279.77 484.72 274.87 489.28C272.24 491.73 267.42 497.06 264.37 498.81C251.6 506.17 234.32 493.53 217.63 506.1C212.63 514.88 205.81 517.72 197.18 514.62C190.79 508.17 183.6 507.63 175.61 512.98C171.36 516.05 166.77 518.45 161.84 520.19C154.92 520.72 148 520.73 141.08 520.23C132.5 517.83 128.61 520.94 129.43 529.58C120.31 529.58 110.84 530.02 102.08 529.85C97.5598 529.76 92.1998 528.72 87.7898 527.69C83.6398 526.72 80.8798 525.38 78.6498 523.98C68.5498 517.62 58.7698 505.7 45.8798 504.06C23.7298 501.24 13.6898 482.17 -6.0702 473.16C-8.9702 471.84 -13.1402 470.28 -16.6302 468.12C-24.0202 463.54 -33.7802 452.18 -41.9902 448.16C-50.1802 444.15 -54.2802 445.89 -61.7302 452.4C-71.8902 437.14 -79.2402 416.88 -82.5102 398.8C-83.4402 394.66 -82.1202 385.07 -83.0902 380.83C-85.0802 372.12 -88.4202 362.07 -90.1502 352.46C-92.4202 350.06 -94.6902 347.66 -96.9602 345.26C-100.07 333.81 -98.7302 316.91 -102.34 307.4C-106.43 296.61 -97.7402 286.35 -92.0202 277.78C-85.9002 268.6 -86.8002 260.25 -85.9502 249.68C-84.1602 227.59 -72.3202 202.49 -63.4802 191.54C-62.3702 190.16 -54.9802 188.42 -53.2502 187.24C-46.2802 182.47 -38.7302 174.99 -33.6802 166.05C-27.1902 154.55 -26.7902 148.18 -17.1502 137.43C-3.5802 122.29 16.6898 114.18 29.4798 99.4001C31.2298 97.3801 33.3098 94.8701 35.7698 93.2101C43.7498 87.8101 53.8298 82.8901 63.0898 78.4801C67.5298 76.3601 73.2898 74.9601 76.8198 72.9901C105.9 56.7801 152.24 69.0801 182.83 84.0501C185.97 85.5301 188.49 87.9501 190.75 90.7601C193.01 93.5801 194.96 97.0701 196.96 99.7201C203.81 108.77 229.74 112.88 241.16 116.36C253.38 120.09 263.45 121.98 273.17 130.19C283.84 139.2 288.15 154.59 297.51 164.61C299.87 167.14 302.19 171.57 304.09 175.01C313.41 191.87 324.33 211.27 326.47 227.27C326.83 229.97 329.93 236.75 332.56 239.02C347.69 252.06 374.09 283.23 360.78 305.56C360.43 306.59 360.27 307.2 360.02 307.96L360.03 307.95Z" stroke="#191919" stroke-width="0.2" stroke-linecap="round" stroke-linejoin="round"/>
<path d="M363.76 307.91C363.47 311.04 360.7 323.35 360.82 331.52C360.88 335.27 360.35 340.11 359.17 343.41C356.21 351.69 357.31 360.22 355.34 369.33C353.42 378.21 349.78 381.42 344.6 388.74C332.13 406.36 329.7 428.82 319.82 447.92C309.87 467.16 292.37 480.48 276.57 494.02C273.03 497.05 268.76 501.75 265.93 502.26C248.81 505.36 233.48 502.43 215.61 515.53C208.51 525.35 201.58 525.67 194.84 516.49C189.08 513.7 183.49 513.74 178.07 516.6C165.17 519.94 158.01 524.34 143.66 524.51C133.89 520.89 129.27 523.97 129.82 533.75C120.58 534.45 111.06 534.97 102.05 534.58C97.49 534.38 92.01 533.45 87.83 532.2C80.59 530.04 76.9 527.87 73.05 525.41C62.26 518.52 53.97 508.68 40.47 505.1C20.59 499.83 10.15 482.49 -6.68 475.36C-10.88 473.58 -16.31 472.09 -20.57 469.05C-24.53 466.23 -48.16 443.66 -52.73 443.19C-56.9 442.76 -60.86 452.75 -66.97 450.57C-75.69 447.46 -84.55 407.26 -86.58 399.52C-88.18 396.96 -86.84 387.45 -87.38 382.34C-88.33 373.35 -91.36 362.73 -93.27 352.9C-95.52 350.34 -97.76 347.78 -100.01 345.22C-103.12 333.55 -101.78 316.37 -105.36 306.99C-109.27 296.76 -101.02 285.69 -95.61 277.19C-89.63 267.79 -90.4 259.68 -89.77 248.89C-88.4 225.57 -75.97 201.65 -63.47 189.22C-61.67 187.43 -57.27 186.47 -55.39 184.67C-47.07 176.73 -42.62 172.78 -37.47 162.46C-33.14 153.77 -31.21 145.99 -24.65 138.02C-11.51 122.07 8.32001 113.08 22.74 100.93C24.86 99.1502 26.78 96.4902 28.64 94.1902C36.34 84.6702 51.47 78.5302 62.41 73.4702C66.88 71.4002 72.32 69.9402 76.32 68.2602C108.13 54.8702 153.63 61.8602 183.7 79.7602C187 81.7302 189.99 85.1202 192.54 87.4702C194.8 89.5602 197.01 92.8102 198.89 94.0102C214.62 104.04 245.94 108.92 266.49 122.59C282.52 133.26 286.21 146.1 297.42 160.77C300.34 162.89 303.26 164.92 305.44 167.87C317.18 183.78 331.56 207.92 331.95 225.72C332.02 229.07 334.12 235.56 336.38 238.95C346.66 254.39 377.76 280.29 364.12 305.53C363.9 306.49 363.86 307.05 363.78 307.9L363.76 307.91Z" stroke="#191919" stroke-width="0.2" stroke-linecap="round" stroke-linejoin="round"/>
<path d="M367.45 307.9C365.84 311.07 366.32 322.98 365.55 330.44C365.18 333.99 365.3 338.66 364.23 342.02C360.86 352.6 361.86 361.81 360.06 373.41C358.73 381.99 354.11 387.47 349.68 394.63C338.27 413.07 334.56 437.01 322.32 454.34C310.02 471.75 286.68 497.01 268.99 503.03C265.47 504.23 258.66 502.39 254.25 502.48C247.44 502.63 239.28 506.46 232.67 510.71C224.65 515.5 217.17 521.01 210.21 527.25C202.75 527.31 196.48 524.54 191.4 518.94C183.52 518.55 176.11 520.2 169.18 523.88C157.12 526.73 143.11 526.29 131.21 529.87C131.62 540.32 126.34 543.51 115.36 539.42C105.72 540.22 96.2198 539.2 86.9698 536.57C82.5298 535.31 80.6098 534.01 77.4698 532.58C66.0298 524.13 55.6898 517.4 42.7298 511.61C26.0798 504.17 15.4298 493.6 1.47983 482.75C-0.930172 480.87 -4.61018 477.99 -9.26018 476.75C-14.6102 475.75 -20.2502 474.35 -24.2702 471.3C-31.2902 465.99 -45.5102 448.93 -54.4702 446.81C-63.4902 444.68 -69.2002 458.45 -74.0102 448.58C-81.5802 433.04 -88.4402 410.53 -91.6302 395.06C-92.5102 390.77 -90.7402 381.41 -91.4902 378.35C-94.4302 366.37 -100.31 354.33 -103.14 342.97C-106 331.51 -104.73 315.35 -108.27 306.52C-112.08 297.04 -105.27 286.97 -100.42 278.84C-93.1602 266.66 -94.8402 260.63 -93.5502 247.13C-91.5102 225.81 -79.8602 197.69 -62.3602 186.18C-59.5602 184.34 -58.2802 182.71 -56.0402 180.81C-40.6402 167.7 -41.1602 146.65 -25.9802 131.56C-11.2702 116.94 9.30982 108.23 23.2798 94.3298C25.4498 92.1698 27.6698 89.2298 29.9698 86.7898C38.9898 77.2598 54.1098 72.1798 66.1598 67.6098C70.2298 66.0698 75.9698 65.4498 78.7898 63.8898C99.4398 52.4698 158.42 62.0298 180.89 72.8098C184.53 74.5598 187.83 77.2998 190.76 80.0998C193.68 82.8998 196.25 85.6398 198.77 87.7298C201.29 89.8198 202.93 90.9098 207.51 91.8898C228.97 95.3798 253.56 108.47 270.65 122.07C284.7 133.26 288.61 147.73 300.53 159.95C304.15 161.87 308.29 163.37 310.27 166.41C317.37 177.3 322.81 187.9 331.45 199.11C339.5 209.56 336.5 218.91 338.5 230.24C339.11 233.7 341.04 240.14 343.07 242.53C356.94 258.89 381.44 280.91 367.5 305.79C367.4 306.59 367.45 307.09 367.48 307.91L367.45 307.9Z" stroke="#191919" stroke-width="0.2" stroke-linecap="round" stroke-linejoin="round"/>
<path d="M371.3 307.93C371.87 310.56 369.92 323.6 369.98 331.68C370.01 335.6 369.4 340.44 368.22 344.21C364.84 355.06 366.07 365.94 364.35 377.34C362.84 387.37 356.61 396.43 352.08 405.24C342.75 423.39 336.38 445.39 322.62 460.29C303.15 481.36 282.45 502.07 254.35 503.61C250.91 503.8 247.81 507.06 244.61 509.28C232.59 517.61 216.8 535.68 200.41 530.1C195.79 523.8 190.14 521.83 183.48 524.2C177.74 524.36 172.35 525.88 167.31 528.75C158.16 530.89 145.67 529.67 137.14 532.98C132.43 536.89 127.54 540.54 122.45 543.93C112.67 544.73 102.75 544.34 93.3198 542.34C88.6598 541.35 85.0498 539.58 82.0298 538.57C75.3598 536.33 66.8098 533.46 62.6998 527.47C54.4198 515.41 39.1298 514.52 27.3898 507.61C13.6298 499.52 5.46981 483.53 -10.8702 479.28C-15.5402 477.58 -21.9602 475.85 -27.0402 473.52C-36.7302 467.63 -60.6902 439.2 -70.2702 454.15C-82.6902 442.68 -91.9302 413.01 -95.4802 396.42C-96.0202 392.12 -94.5302 383.14 -95.1002 379.21C-98.5602 355.5 -103.38 324.23 -111.19 305.96C-114.8 297.5 -108.77 285.75 -104.08 278.18C-96.5902 266.11 -98.6502 259.35 -97.2202 245.97C-94.8402 223.66 -82.2502 197.3 -63.5002 183.96C-60.8602 182.08 -59.7702 179.71 -57.5102 177.7C-44.1402 165.88 -47.2502 146.69 -35.7002 133C-22.7802 117.69 -0.87019 106.35 14.7198 96.5801C18.1298 94.4401 19.9498 91.7501 22.2198 89.2001C33.6998 76.2501 48.7298 70.8201 64.3698 64.0001C67.9998 62.4201 73.2198 61.7601 75.8598 60.2901C86.6898 54.2701 108.5 51.5101 124.47 51.9501C145.48 52.5301 164.28 60.2501 181.42 67.9701C185.14 69.6501 188.79 73.0701 192 75.8701C195.21 78.6701 198.09 81.4501 200.89 83.6401C203.69 85.8301 206.41 86.4301 211.17 86.8801C231.22 89.0501 256.69 107.25 272.31 119.69C286.77 131.2 292.71 142.19 301.89 158.15C305.23 160.05 311.76 161.26 313.3 163.08C320.29 171.34 327.62 185.11 336.46 196.29C345.26 207.4 342.92 215.53 343.57 228.51C343.75 232.19 345.25 239.03 347.03 241.32C360.35 258.39 383.25 280.66 371.07 305.9C371.07 306.65 371.14 307.21 371.29 307.93H371.3Z" stroke="#191919" stroke-width="0.2" stroke-linecap="round" stroke-linejoin="round"/>
<path d="M375.37 308.07C375.56 309.25 375.01 314.23 375 318.22C375 322.38 374.78 326.6 374.57 330.56C372.23 373.81 358.15 430.09 326.56 461.38C317.64 470.22 308.75 479.27 299.61 487.88C292.85 494.24 285.28 501.66 275.99 504.05C263.57 507.24 255.93 505.22 245.77 513.77C242.84 516.23 238.62 519.36 235.14 522.03C228.81 526.88 221.57 531.25 213.62 533.63C205.74 537.32 198.99 535.7 193.35 528.78C181.08 524.28 173.05 531 161.71 533.69C151.75 536.05 140.51 534.56 130.8 538.06C131.16 548.5 126.03 551.99 115.42 548.51C105.95 549.23 96.6405 547.94 87.7005 545.06C83.5505 543.72 81.3805 542.36 78.2905 541.34C70.1805 538.68 58.5905 534.25 53.3205 527.49C46.7805 519.08 37.5005 516.51 28.4005 511.17C18.0505 505.1 10.7605 494.96 0.270454 489.27C-3.75955 487.08 -9.40954 484.9 -14.5695 481.87C-18.3895 479.63 -23.3795 477.22 -28.7895 475.18C-34.5595 473 -39.0195 470.3 -42.8695 466.9C-52.1295 459.99 -57.1795 455.79 -65.6595 452.57C-75.5795 448.8 -68.9395 457.8 -78.5395 448.2C-88.4995 438.24 -94.6895 411.05 -99.1695 397.32C-100.17 394.25 -98.4695 385.09 -98.8695 380.4C-100.9 356.97 -106.54 324.11 -114.14 305.35C-117.83 296.25 -112.38 285.73 -107.44 277.05C-99.8995 263.8 -102.27 252.5 -99.9595 238.16C-95.5495 210.74 -75.7595 192.64 -58.6395 174.13C-56.6795 172.01 -53.7395 169.77 -52.7595 167.91C-44.9795 153.12 -47.7995 136.18 -30.7695 122.94C-15.6095 111.16 3.55046 101.68 16.5005 89.03C18.8605 86.72 21.2805 84.77 23.4705 82.83C34.7305 72.79 47.9705 66.91 61.4905 60.37C64.8105 58.76 68.9805 57.94 72.1205 56.67C96.3005 46.96 142.29 50.9 167.55 61.32C171.98 63.15 177.75 62.75 181.89 64.58C189.87 68.11 196.46 74.85 202.5 79.33C205.52 81.57 208.54 82.35 212.93 82.9C235.56 85.86 257.62 104.81 274.99 118.57C289.78 130.29 295.57 147.63 309.21 159.23C313.4 160.61 317.45 161.78 319.05 164.67C324.57 174.67 338.22 186.35 344.95 197.59C351.62 208.73 348.5 217.73 349.52 229.36C349.82 232.8 350.82 239.52 352.77 241.86C365.89 257.52 384.08 282.4 374.87 306.16C374.97 306.84 375.27 307.35 375.39 308.08L375.37 308.07Z" stroke="#191919" stroke-width="0.2" stroke-linecap="round" stroke-linejoin="round"/>
<path d="M379.54 308.28C380.13 309.77 379.82 313.75 379.66 317.97C379.5 322.13 379.49 326.09 379.26 329.86C376.31 376.56 361.19 433.32 326.47 466.08C315.75 476.2 305.37 489.73 292.96 497.85C282.59 504.63 272.38 503.45 261.37 508.18C251.47 512.43 243.76 520.94 235.77 527.16C232.14 529.99 228.11 531.35 225.02 532.83C218.25 536.08 210.66 538.85 202.78 539.53C197.96 533.75 192.1 531.34 185.21 532.32C173.93 531.27 162.05 536.98 150.89 538.94C145.55 539.49 140.24 540.27 134.96 541.28C131.83 548.67 126.25 552.6 118.22 553.08C105.04 556.12 89.4497 549.55 77.6297 545.25C74.3397 544.05 70.8897 542.78 67.7997 541.75C60.2297 539.23 52.7797 534.58 47.3397 528.55C41.4097 521.98 35.6997 517.29 28.0297 513.94C19.3397 510.14 13.7197 502.31 5.8997 497.18C-1.4503 492.35 -10.5603 489.27 -17.7103 484.95C-21.5403 482.63 -25.3103 479.05 -30.4403 476.83C-35.9103 474.47 -42.4703 473.27 -46.2603 470.07C-55.8703 462.26 -59.3903 461.14 -67.7603 456.3C-75.3403 451.92 -73.2203 457.24 -80.6903 449.49C-91.8303 437.93 -97.5403 412.47 -102.69 397.9C-103.98 394.24 -102.59 387.26 -102.79 381.88C-103.67 358.34 -109.19 322.5 -117.22 304.69C-120.87 296.6 -116.27 285.8 -111.79 277.68C-104.62 264.71 -105.73 254.04 -103.65 239.95C-99.7903 213.81 -81.6503 193.72 -64.3303 175.01C-61.9203 172.41 -59.3603 170.1 -57.8803 168.06C-49.8303 156.98 -51.4103 139.04 -44.1303 128.14C-34.1003 113.12 -11.7903 102.08 2.84969 93.0199C6.40969 90.8199 9.96969 87.7699 13.3997 85.6599C31.9997 74.2399 47.2697 58.1299 68.1697 52.9599C71.9197 52.0299 75.0197 48.5599 79.1997 46.6899C91.2797 41.2999 108.75 44.2199 124.22 44.6899C142.75 45.2599 152.63 52.8199 167.84 59.6899C172.07 61.5999 178.3 60.9399 182.3 62.5299C193.76 67.0899 204.25 76.3599 215.93 79.4199C219.89 80.4599 223.49 82.5099 228.71 85.4399C264.19 102.41 289.45 139.05 309.93 157.85C311.87 159.63 320.23 160 322.81 161.94C340.66 175.37 356.25 201.09 353.99 227.11C353.66 230.87 355.6 237.59 357.55 240.08C370.65 256.86 386.01 282.32 378.69 306.37C378.9 307.03 379.24 307.5 379.54 308.28Z" stroke="#191919" stroke-width="0.2" stroke-linecap="round" stroke-linejoin="round"/>
<path d="M383.77 308.49C384.61 310.02 384.49 314.13 384.41 318.56C384.32 322.97 384.25 326.91 383.89 330.75C379.25 380.27 363.08 434.4 327.51 469.97C316.73 480.75 305.21 494.9 291.73 501.92C281.46 507.26 269.57 506.95 259.42 512.38C248.52 518.2 241.43 528.79 230.19 534.15C227.08 535.63 224.05 537.02 220.93 538.32C203.01 545.79 197.29 536.25 180.83 536.12C170.09 536.03 157.68 541.15 147.02 543.14C141.53 543.79 136.12 544.85 130.78 546.33C130.1 556.89 124.53 560.57 114.05 557.35C100.14 557.28 87.96 552.47 75 548.13C71.62 547 68.19 545.88 65.09 544.84C63.66 543.57 61.02 543.58 59.23 542.61C45.45 535.17 33.06 522.18 21.99 513.79C8.88004 503.85 -6.80997 496.58 -21.54 487.51C-25.4 485.13 -29.7 481.11 -33.83 478.53C-37.96 475.95 -45.28 474.84 -49.51 472.24C-60.04 465.76 -72.71 462.68 -81.75 453.25C-93.81 440.67 -99.24 421.35 -103.85 405.02C-105.32 401.36 -107.46 398.71 -107.45 394.45C-107.39 365.68 -111.73 323.46 -120.52 303.98C-124.85 294.39 -113.72 277.01 -110.27 266.65C-106.88 256.46 -108.87 245 -106.53 234.58C-100.66 208.47 -79.22 186.29 -62.27 167.23C-60.36 165.08 -59.22 162.88 -57.97 159.45C-55.51 152.69 -52.73 145.93 -49.86 139.27C-50.68 134.15 -49.86 129.29 -47.37 124.7C-39.65 111.84 -16.7 101.04 -4.66997 92.4202C-1.15997 89.9002 2.29003 86.8602 5.83003 84.9202C23.94 75.0002 38.84 60.6802 57.42 51.5902C60.28 50.1902 64.59 49.8502 67.71 48.7202C83.35 43.0302 98.74 41.0902 119.56 41.5702C139.66 42.0302 148.44 45.3302 164.76 56.3502C168.7 59.0102 174.31 58.9002 178.61 59.9202C191.43 62.9402 203.3 71.1902 215.09 75.2202C218.64 76.4302 222.51 78.3102 227.26 80.8002C257.59 94.3702 299.61 121.21 311 154.65C312.36 157.92 318.28 158.13 323.06 160C334.76 164.59 344.51 178.44 353.8 190.32C363.96 203.32 359.36 209.82 357.74 223.89C357.32 227.56 359.6 233.11 361.85 237.48C377.28 256.94 387.5 281.15 382.54 306.55C382.87 307.21 383.33 307.68 383.76 308.47L383.77 308.49Z" stroke="#191919" stroke-width="0.2" stroke-linecap="round" stroke-linejoin="round"/>
</g>
</g>
<defs>
<clipPath id="clip0_1260_37373">
<rect width="506.97" height="517.97" fill="white" transform="translate(-122 41)"/>
</clipPath>
</defs>
</svg>
