<svg width="30" height="30" viewBox="0 0 30 30" fill="none" xmlns="http://www.w3.org/2000/svg">
<path d="M14.8332 0.833252C7.00879 0.833252 0.632812 7.19409 0.632812 14.9999C0.632812 22.8058 7.00879 29.1666 14.8332 29.1666C22.6576 29.1666 29.0336 22.8058 29.0336 14.9999C29.0336 7.19409 22.6576 0.833252 14.8332 0.833252ZM20.5986 13.9658L15.5858 18.9666C15.3728 19.1791 15.103 19.2783 14.8332 19.2783C14.5634 19.2783 14.2936 19.1791 14.0806 18.9666L9.06785 13.9658C8.65604 13.5549 8.65604 12.8749 9.06785 12.4641C9.47966 12.0533 10.1613 12.0533 10.5731 12.4641L14.8332 16.7141L19.0933 12.4641C19.5051 12.0533 20.1868 12.0533 20.5986 12.4641C21.0104 12.8749 21.0104 13.5408 20.5986 13.9658Z" fill="white"/>
</svg>
