<svg width="22" height="22" viewBox="0 0 22 22" fill="none" xmlns="http://www.w3.org/2000/svg">
<path d="M15.4262 14.3366C16.0404 13.9332 16.8471 14.3732 16.8471 15.1066V16.2891C16.8471 17.4532 15.9396 18.6999 14.8487 19.0666L11.9246 20.0382C11.4112 20.2124 10.5771 20.2124 10.0729 20.0382L7.14872 19.0666C6.04872 18.6999 5.15039 17.4532 5.15039 16.2891V15.0974C5.15039 14.3732 5.95706 13.9332 6.56206 14.3274L8.45039 15.5557C9.17456 16.0416 10.0912 16.2799 11.0079 16.2799C11.9246 16.2799 12.8412 16.0416 13.5654 15.5557L15.4262 14.3366Z" fill="#8892EE"/>
<path d="M18.3168 5.92174L12.826 2.31924C11.836 1.66841 10.2043 1.66841 9.21435 2.31924L3.69602 5.92174C1.92685 7.06757 1.92685 9.66174 3.69602 10.8167L5.16268 11.7701L9.21435 14.4101C10.2043 15.0609 11.836 15.0609 12.826 14.4101L16.8502 11.7701L18.106 10.9451V13.7501C18.106 14.1259 18.4177 14.4376 18.7935 14.4376C19.1693 14.4376 19.481 14.1259 19.481 13.7501V9.24007C19.8477 8.05757 19.4718 6.68257 18.3168 5.92174Z" fill="#8892EE"/>
</svg>
