<svg width="20" height="20" viewBox="0 0 20 20" fill="none" xmlns="http://www.w3.org/2000/svg">
<path d="M14.1861 7.62939e-06H5.80609C2.16609 7.62939e-06 -0.00390625 2.17001 -0.00390625 5.81001V14.19C-0.00390625 17 1.28609 18.93 3.55609 19.66C4.21609 19.89 4.97609 20 5.80609 20H14.1861C15.0161 20 15.7761 19.89 16.4361 19.66C18.7061 18.93 19.9961 17 19.9961 14.19V5.81001C19.9961 2.17001 17.8261 7.62939e-06 14.1861 7.62939e-06ZM18.4961 14.19C18.4961 16.33 17.6561 17.68 15.9661 18.24C14.9961 16.33 12.6961 14.97 9.99609 14.97C7.29609 14.97 5.00609 16.32 4.02609 18.24H4.01609C2.34609 17.7 1.49609 16.34 1.49609 14.2V5.81001C1.49609 2.99001 2.98609 1.50001 5.80609 1.50001H14.1861C17.0061 1.50001 18.4961 2.99001 18.4961 5.81001V14.19Z" fill="#292D32"/>
<path d="M9.99602 6.00001C8.01602 6.00001 6.41602 7.60001 6.41602 9.58001C6.41602 11.56 8.01602 13.17 9.99602 13.17C11.976 13.17 13.576 11.56 13.576 9.58001C13.576 7.60001 11.976 6.00001 9.99602 6.00001Z" fill="#292D32"/>
</svg>
